%TF.GenerationSoftware,KiCad,Pcbnew,7.0.5*%
%TF.CreationDate,2023-08-30T17:00:08-05:00*%
%TF.ProjectId,Chimera_Card_Template_2,4368696d-6572-4615-9f43-6172645f5465,rev?*%
%TF.SameCoordinates,Original*%
%TF.FileFunction,Copper,L1,Top*%
%TF.FilePolarity,Positive*%
%FSLAX46Y46*%
G04 Gerber Fmt 4.6, Leading zero omitted, Abs format (unit mm)*
G04 Created by KiCad (PCBNEW 7.0.5) date 2023-08-30 17:00:08*
%MOMM*%
%LPD*%
G01*
G04 APERTURE LIST*
G04 Aperture macros list*
%AMRoundRect*
0 Rectangle with rounded corners*
0 $1 Rounding radius*
0 $2 $3 $4 $5 $6 $7 $8 $9 X,Y pos of 4 corners*
0 Add a 4 corners polygon primitive as box body*
4,1,4,$2,$3,$4,$5,$6,$7,$8,$9,$2,$3,0*
0 Add four circle primitives for the rounded corners*
1,1,$1+$1,$2,$3*
1,1,$1+$1,$4,$5*
1,1,$1+$1,$6,$7*
1,1,$1+$1,$8,$9*
0 Add four rect primitives between the rounded corners*
20,1,$1+$1,$2,$3,$4,$5,0*
20,1,$1+$1,$4,$5,$6,$7,0*
20,1,$1+$1,$6,$7,$8,$9,0*
20,1,$1+$1,$8,$9,$2,$3,0*%
G04 Aperture macros list end*
%TA.AperFunction,SMDPad,CuDef*%
%ADD10R,1.270003X2.800000*%
%TD*%
%TA.AperFunction,SMDPad,CuDef*%
%ADD11R,0.350000X1.450000*%
%TD*%
%TA.AperFunction,SMDPad,CuDef*%
%ADD12R,0.300000X1.550013*%
%TD*%
%TA.AperFunction,SMDPad,CuDef*%
%ADD13R,0.300000X1.524003*%
%TD*%
%TA.AperFunction,SMDPad,CuDef*%
%ADD14R,1.300000X2.800000*%
%TD*%
%TA.AperFunction,SMDPad,CuDef*%
%ADD15RoundRect,0.200000X-0.275000X0.200000X-0.275000X-0.200000X0.275000X-0.200000X0.275000X0.200000X0*%
%TD*%
%TA.AperFunction,ComponentPad*%
%ADD16C,2.900000*%
%TD*%
%TA.AperFunction,ConnectorPad*%
%ADD17C,5.000000*%
%TD*%
%TA.AperFunction,SMDPad,CuDef*%
%ADD18R,0.800000X0.800000*%
%TD*%
%TA.AperFunction,ViaPad*%
%ADD19C,0.600000*%
%TD*%
%TA.AperFunction,Conductor*%
%ADD20C,0.254000*%
%TD*%
G04 APERTURE END LIST*
D10*
%TO.P,X5,6,6*%
%TO.N,Net-(CN1-20-Pad51)*%
X107470003Y-108299798D03*
%TO.P,X5,5,5*%
%TO.N,Net-(CN1-20-Pad45)*%
X107470003Y-113900002D03*
%TO.P,X5,4,4*%
%TO.N,Net-(CN1-20-Pad53)*%
X104929997Y-108299798D03*
%TO.P,X5,3,3*%
%TO.N,Net-(CN1-20-Pad43)*%
X104929997Y-113900002D03*
%TO.P,X5,2,2*%
%TO.N,Net-(CN1-20-Pad55)*%
X102389992Y-108299798D03*
%TO.P,X5,1,1*%
%TO.N,Net-(CN1-20-Pad41)*%
X102389992Y-113900002D03*
%TO.P,X5,7,7*%
%TO.N,Net-(CN1-20-Pad47)*%
X110010008Y-113900002D03*
%TO.P,X5,8,8*%
%TO.N,Net-(CN1-20-Pad49)*%
X110010008Y-108305894D03*
%TD*%
%TO.P,X4,8,8*%
%TO.N,Net-(CN1-20-Pad57)*%
X122700008Y-122705894D03*
%TO.P,X4,7,7*%
%TO.N,Net-(CN1-20-Pad39)*%
X122700008Y-128300002D03*
%TO.P,X4,1,1*%
%TO.N,Net-(CN1-20-Pad33)*%
X115079992Y-128300002D03*
%TO.P,X4,2,2*%
%TO.N,Net-(CN1-20-Pad63)*%
X115079992Y-122699798D03*
%TO.P,X4,3,3*%
%TO.N,Net-(CN1-20-Pad35)*%
X117619997Y-128300002D03*
%TO.P,X4,4,4*%
%TO.N,Net-(CN1-20-Pad61)*%
X117619997Y-122699798D03*
%TO.P,X4,5,5*%
%TO.N,Net-(CN1-20-Pad37)*%
X120160003Y-128300002D03*
%TO.P,X4,6,6*%
%TO.N,Net-(CN1-20-Pad59)*%
X120160003Y-122699798D03*
%TD*%
%TO.P,X3,6,6*%
%TO.N,Net-(CN1-1-Pad67)*%
X107490003Y-122905998D03*
%TO.P,X3,5,5*%
%TO.N,Net-(CN1-20-Pad29)*%
X107490003Y-128506202D03*
%TO.P,X3,4,4*%
%TO.N,Net-(CN1-1-Pad69)*%
X104949997Y-122905998D03*
%TO.P,X3,3,3*%
%TO.N,Net-(CN1-20-Pad27)*%
X104949997Y-128506202D03*
%TO.P,X3,2,2*%
%TO.N,Net-(CN1-1-Pad71)*%
X102409992Y-122905998D03*
%TO.P,X3,1,1*%
%TO.N,Net-(CN1-20-Pad25)*%
X102409992Y-128506202D03*
%TO.P,X3,7,7*%
%TO.N,Net-(CN1-20-Pad31)*%
X110030008Y-128506202D03*
%TO.P,X3,8,8*%
%TO.N,Net-(CN1-1-Pad66)*%
X110030008Y-122912094D03*
%TD*%
%TO.P,X2,8,8*%
%TO.N,Net-(CN1-1-Pad73)*%
X122700008Y-137906094D03*
%TO.P,X2,7,7*%
%TO.N,Net-(CN1-20-Pad23)*%
X122700008Y-143500202D03*
%TO.P,X2,1,1*%
%TO.N,Net-(CN1-1-Pad9)*%
X115079992Y-143500202D03*
%TO.P,X2,2,2*%
%TO.N,8*%
X115079992Y-137899998D03*
%TO.P,X2,3,3*%
%TO.N,Net-(CN1-1-Pad11)*%
X117619997Y-143500202D03*
%TO.P,X2,4,4*%
%TO.N,10*%
X117619997Y-137899998D03*
%TO.P,X2,5,5*%
%TO.N,Net-(CN1-20-Pad21)*%
X120160003Y-143500202D03*
%TO.P,X2,6,6*%
%TO.N,20*%
X120160003Y-137899998D03*
%TD*%
%TO.P,X1,6,6*%
%TO.N,4*%
X107480003Y-137906098D03*
%TO.P,X1,5,5*%
%TO.N,Net-(CN1-1-Pad5)*%
X107480003Y-143506302D03*
%TO.P,X1,4,4*%
%TO.N,GND*%
X104939997Y-137906098D03*
%TO.P,X1,3,3*%
%TO.N,+5V*%
X104939997Y-143506302D03*
%TO.P,X1,2,2*%
%TO.N,GND*%
X102399992Y-137906098D03*
%TO.P,X1,1,1*%
%TO.N,+3V3*%
X102399992Y-143506302D03*
%TO.P,X1,7,7*%
%TO.N,Net-(CN1-1-Pad7)*%
X110020008Y-143506302D03*
%TO.P,X1,8,8*%
%TO.N,6*%
X110020008Y-137912194D03*
%TD*%
D11*
%TO.P,U1,1,1*%
%TO.N,GND*%
X103250000Y-91175000D03*
%TO.P,U1,3,1*%
%TO.N,Net-(CN1-1-Pad74)*%
X103750000Y-91175000D03*
%TO.P,U1,5,1*%
%TO.N,Net-(CN1-1-Pad71)*%
X104250000Y-91175000D03*
%TO.P,U1,7,1*%
%TO.N,Net-(CN1-1-Pad69)*%
X104750000Y-91175000D03*
%TO.P,U1,9,1*%
%TO.N,Net-(CN1-1-Pad67)*%
X105250000Y-91175000D03*
%TO.P,U1,11,1*%
%TO.N,Net-(CN1-1-Pad66)*%
X105750000Y-91175000D03*
%TO.P,U1,13,13*%
%TO.N,Net-(CN1-20-Pad63)*%
X106250000Y-91175000D03*
%TO.P,U1,15,15*%
%TO.N,Net-(CN1-20-Pad61)*%
X106750000Y-91175000D03*
%TO.P,U1,17,17*%
%TO.N,Net-(CN1-20-Pad59)*%
X107250000Y-91175000D03*
%TO.P,U1,19,19*%
%TO.N,Net-(CN1-20-Pad57)*%
X107750000Y-91175000D03*
%TO.P,U1,21,20*%
%TO.N,Net-(CN1-20-Pad55)*%
X108250000Y-91175000D03*
%TO.P,U1,23,20*%
%TO.N,Net-(CN1-20-Pad53)*%
X108750000Y-91175000D03*
%TO.P,U1,25,20*%
%TO.N,Net-(CN1-20-Pad51)*%
X109250000Y-91175000D03*
%TO.P,U1,27,20*%
%TO.N,Net-(CN1-20-Pad49)*%
X109750000Y-91175000D03*
%TO.P,U1,29,20*%
%TO.N,Net-(CN1-20-Pad47)*%
X110250000Y-91175000D03*
%TO.P,U1,31,20*%
%TO.N,Net-(CN1-20-Pad45)*%
X110750000Y-91175000D03*
%TO.P,U1,33,20*%
%TO.N,Net-(CN1-20-Pad43)*%
X111250000Y-91175000D03*
%TO.P,U1,35,20*%
%TO.N,Net-(CN1-20-Pad41)*%
X111750000Y-91175000D03*
%TO.P,U1,37,20*%
%TO.N,Net-(CN1-20-Pad39)*%
X112250000Y-91175000D03*
%TO.P,U1,39,20*%
%TO.N,Net-(CN1-20-Pad37)*%
X112750000Y-91175000D03*
%TO.P,U1,41,20*%
%TO.N,Net-(CN1-20-Pad35)*%
X113250000Y-91175000D03*
%TO.P,U1,43,20*%
%TO.N,Net-(CN1-20-Pad33)*%
X113750000Y-91175000D03*
%TO.P,U1,45,20*%
%TO.N,Net-(CN1-20-Pad31)*%
X114250000Y-91175000D03*
%TO.P,U1,47,20*%
%TO.N,Net-(CN1-20-Pad29)*%
X114750000Y-91175000D03*
%TO.P,U1,49,20*%
%TO.N,Net-(CN1-20-Pad27)*%
X115250000Y-91175000D03*
%TO.P,U1,51,20*%
%TO.N,Net-(CN1-20-Pad25)*%
X115750000Y-91175000D03*
%TO.P,U1,53,20*%
%TO.N,Net-(CN1-20-Pad23)*%
X116250000Y-91175000D03*
%TO.P,U1,55,20*%
%TO.N,Net-(CN1-20-Pad21)*%
X116750000Y-91175000D03*
%TO.P,U1,57,20*%
%TO.N,20*%
X117250000Y-91175000D03*
%TO.P,U1,67,1*%
%TO.N,10*%
X119750000Y-91175000D03*
%TO.P,U1,69,1*%
%TO.N,8*%
X120250000Y-91175000D03*
%TO.P,U1,71,1*%
%TO.N,6*%
X120750000Y-91175000D03*
%TO.P,U1,73,1*%
%TO.N,4*%
X121250000Y-91175000D03*
%TO.P,U1,75,1*%
%TO.N,GND*%
X121750000Y-91175000D03*
%TD*%
D12*
%TO.P,CN1,1,1*%
%TO.N,+3V3*%
X121749836Y-102400029D03*
%TO.P,CN1,2,1*%
%TO.N,GND*%
X121499900Y-94850117D03*
%TO.P,CN1,3,1*%
%TO.N,+5V*%
X121249964Y-102400029D03*
%TO.P,CN1,4,1*%
%TO.N,4*%
X120999773Y-94850117D03*
%TO.P,CN1,5,1*%
%TO.N,Net-(CN1-1-Pad5)*%
X120749836Y-102400029D03*
%TO.P,CN1,6,1*%
%TO.N,6*%
X120499900Y-94850117D03*
%TO.P,CN1,7,1*%
%TO.N,Net-(CN1-1-Pad7)*%
X120249964Y-102400029D03*
%TO.P,CN1,8,1*%
%TO.N,8*%
X119999773Y-94850117D03*
%TO.P,CN1,9,1*%
%TO.N,Net-(CN1-1-Pad9)*%
X119749836Y-102400029D03*
%TO.P,CN1,10,1*%
%TO.N,10*%
X119499900Y-94850117D03*
%TO.P,CN1,11,1*%
%TO.N,Net-(CN1-1-Pad11)*%
X119249964Y-102400029D03*
%TO.P,CN1,20,20*%
%TO.N,20*%
X116999773Y-94850117D03*
%TO.P,CN1,21,20*%
%TO.N,Net-(CN1-20-Pad21)*%
X116749836Y-102400029D03*
%TO.P,CN1,22,20*%
X116499900Y-94850117D03*
%TO.P,CN1,23,20*%
%TO.N,Net-(CN1-20-Pad23)*%
X116249964Y-102400029D03*
%TO.P,CN1,24,20*%
X115999773Y-94850117D03*
%TO.P,CN1,25,20*%
%TO.N,Net-(CN1-20-Pad25)*%
X115749836Y-102400029D03*
%TO.P,CN1,26,20*%
X115499900Y-94850117D03*
%TO.P,CN1,27,20*%
%TO.N,Net-(CN1-20-Pad27)*%
X115249964Y-102400029D03*
%TO.P,CN1,28,20*%
X114999773Y-94850117D03*
%TO.P,CN1,29,20*%
%TO.N,Net-(CN1-20-Pad29)*%
X114749836Y-102400029D03*
%TO.P,CN1,30,20*%
X114499900Y-94850117D03*
%TO.P,CN1,31,20*%
%TO.N,Net-(CN1-20-Pad31)*%
X114249964Y-102400029D03*
%TO.P,CN1,32,20*%
X113999773Y-94850117D03*
%TO.P,CN1,33,20*%
%TO.N,Net-(CN1-20-Pad33)*%
X113749836Y-102400029D03*
%TO.P,CN1,34,20*%
X113499900Y-94850117D03*
%TO.P,CN1,35,20*%
%TO.N,Net-(CN1-20-Pad35)*%
X113249964Y-102400029D03*
%TO.P,CN1,36,20*%
X112999773Y-94850117D03*
%TO.P,CN1,37,20*%
%TO.N,Net-(CN1-20-Pad37)*%
X112749836Y-102400029D03*
%TO.P,CN1,38,20*%
X112499900Y-94850117D03*
%TO.P,CN1,39,20*%
%TO.N,Net-(CN1-20-Pad39)*%
X112249964Y-102400029D03*
%TO.P,CN1,40,20*%
X111999773Y-94850117D03*
%TO.P,CN1,41,20*%
%TO.N,Net-(CN1-20-Pad41)*%
X111749836Y-102400029D03*
%TO.P,CN1,42,20*%
X111499900Y-94850371D03*
%TO.P,CN1,43,20*%
%TO.N,Net-(CN1-20-Pad43)*%
X111249964Y-102400029D03*
%TO.P,CN1,44,20*%
X110999773Y-94850371D03*
%TO.P,CN1,45,20*%
%TO.N,Net-(CN1-20-Pad45)*%
X110749836Y-102400029D03*
%TO.P,CN1,46,20*%
X110499900Y-94850371D03*
%TO.P,CN1,47,20*%
%TO.N,Net-(CN1-20-Pad47)*%
X110249964Y-102400029D03*
%TO.P,CN1,48,20*%
X109999773Y-94850371D03*
%TO.P,CN1,49,20*%
%TO.N,Net-(CN1-20-Pad49)*%
X109749836Y-102400029D03*
%TO.P,CN1,50,20*%
X109499900Y-94850371D03*
%TO.P,CN1,51,20*%
%TO.N,Net-(CN1-20-Pad51)*%
X109249964Y-102400029D03*
%TO.P,CN1,52,20*%
X108999773Y-94850371D03*
%TO.P,CN1,53,20*%
%TO.N,Net-(CN1-20-Pad53)*%
X108749836Y-102400029D03*
%TO.P,CN1,54,20*%
X108499900Y-94850371D03*
%TO.P,CN1,55,20*%
%TO.N,Net-(CN1-20-Pad55)*%
X108249964Y-102400029D03*
%TO.P,CN1,56,20*%
X107999773Y-94850371D03*
%TO.P,CN1,57,20*%
%TO.N,Net-(CN1-20-Pad57)*%
X107749836Y-102400029D03*
%TO.P,CN1,58,20*%
X107499900Y-94850371D03*
D13*
%TO.P,CN1,59,20*%
%TO.N,Net-(CN1-20-Pad59)*%
X107249964Y-102400283D03*
%TO.P,CN1,60,20*%
X106999773Y-94850371D03*
%TO.P,CN1,61,20*%
%TO.N,Net-(CN1-20-Pad61)*%
X106749836Y-102400283D03*
%TO.P,CN1,62,20*%
X106499900Y-94850371D03*
%TO.P,CN1,63,20*%
%TO.N,Net-(CN1-20-Pad63)*%
X106249964Y-102400283D03*
%TO.P,CN1,64,20*%
X105999773Y-94850371D03*
%TO.P,CN1,65,20*%
%TO.N,Net-(CN1-1-Pad66)*%
X105749836Y-102400283D03*
%TO.P,CN1,66,1*%
X105499900Y-94850371D03*
D12*
%TO.P,CN1,67,1*%
%TO.N,Net-(CN1-1-Pad67)*%
X105249964Y-102400029D03*
%TO.P,CN1,68,1*%
X104999773Y-94850371D03*
%TO.P,CN1,69,1*%
%TO.N,Net-(CN1-1-Pad69)*%
X104749836Y-102400029D03*
%TO.P,CN1,70,1*%
X104499900Y-94850371D03*
%TO.P,CN1,71,1*%
%TO.N,Net-(CN1-1-Pad71)*%
X104249964Y-102400029D03*
%TO.P,CN1,72,1*%
X103999773Y-94850371D03*
%TO.P,CN1,73,1*%
%TO.N,Net-(CN1-1-Pad73)*%
X103749836Y-102400029D03*
%TO.P,CN1,74,1*%
%TO.N,Net-(CN1-1-Pad74)*%
X103499900Y-94850371D03*
%TO.P,CN1,75,1*%
%TO.N,GND*%
X103249964Y-102400029D03*
D14*
%TO.P,CN1,76*%
%TO.N,N/C*%
X102149887Y-101675111D03*
%TO.P,CN1,77*%
X122849913Y-101675111D03*
%TD*%
D15*
%TO.P,R1,1*%
%TO.N,+3V3*%
X122850000Y-104350000D03*
%TO.P,R1,2*%
%TO.N,Net-(LED1-+)*%
X122850000Y-106000000D03*
%TD*%
%TO.P,R2,1*%
%TO.N,+5V*%
X121200000Y-104375000D03*
%TO.P,R2,2*%
%TO.N,Net-(LED2-+)*%
X121200000Y-106025000D03*
%TD*%
D16*
%TO.P,H1,1*%
%TO.N,N/C*%
X112500000Y-149900000D03*
D17*
X112500000Y-149900000D03*
%TD*%
D18*
%TO.P,LED1,1,-*%
%TO.N,GND*%
X122749467Y-107671571D03*
%TO.P,LED1,2,+*%
%TO.N,Net-(LED1-+)*%
X121150533Y-107678429D03*
%TD*%
%TO.P,LED2,1,-*%
%TO.N,GND*%
X122749467Y-111471571D03*
%TO.P,LED2,2,+*%
%TO.N,Net-(LED2-+)*%
X121150533Y-111478429D03*
%TD*%
D19*
%TO.N,Net-(CN1-20-Pad61)*%
X103300000Y-104100000D03*
%TO.N,GND*%
X105000000Y-135100000D03*
X122916402Y-113384891D03*
X122200000Y-95000000D03*
%TO.N,20*%
X117675800Y-101500000D03*
X119883400Y-113488100D03*
X120160000Y-131566700D03*
%TO.N,8*%
X120174600Y-93492800D03*
X118926600Y-97451700D03*
X114208300Y-134814900D03*
%TO.N,6*%
X112767600Y-136011200D03*
X120501100Y-97771600D03*
%TO.N,4*%
X116255600Y-133069900D03*
X121456600Y-99000000D03*
%TO.N,Net-(CN1-20-Pad31)*%
X114156000Y-97054400D03*
X114125000Y-92928000D03*
X110030000Y-126074900D03*
%TO.N,Net-(CN1-20-Pad29)*%
X114748000Y-96463100D03*
X106401800Y-108751500D03*
X114650500Y-107033500D03*
%TO.N,Net-(CN1-1-Pad9)*%
X119900000Y-98500000D03*
X119583300Y-100449600D03*
X119908200Y-111945000D03*
X116203000Y-142160100D03*
%TO.N,Net-(CN1-20-Pad63)*%
X105985000Y-93010900D03*
%TO.N,Net-(CN1-1-Pad7)*%
X119700000Y-99400000D03*
X114342400Y-133794500D03*
X119968900Y-96764600D03*
%TO.N,Net-(CN1-1-Pad67)*%
X105045000Y-97221400D03*
%TO.N,Net-(CN1-20-Pad61)*%
X117167800Y-109269200D03*
X108867500Y-105582400D03*
%TO.N,Net-(CN1-20-Pad59)*%
X107144000Y-97644100D03*
X120325300Y-116088100D03*
X107976100Y-103842600D03*
%TO.N,Net-(CN1-20-Pad57)*%
X107524000Y-96199400D03*
X121300000Y-112550600D03*
%TO.N,Net-(CN1-20-Pad55)*%
X108174000Y-100173000D03*
X102043000Y-106224400D03*
%TO.N,Net-(CN1-20-Pad53)*%
X108640000Y-99103600D03*
X104838400Y-106281200D03*
%TO.N,Net-(CN1-20-Pad51)*%
X109286000Y-99917100D03*
X109038000Y-92998700D03*
X107470000Y-106460000D03*
%TO.N,Net-(CN1-20-Pad49)*%
X109404000Y-96835300D03*
%TO.N,Net-(CN1-20-Pad47)*%
X109934000Y-96115600D03*
%TO.N,Net-(CN1-20-Pad45)*%
X110435000Y-97598900D03*
X107245600Y-110822400D03*
%TO.N,Net-(CN1-20-Pad43)*%
X104930000Y-111878400D03*
X110981000Y-103625400D03*
%TO.N,+3V3*%
X122800000Y-95800000D03*
X123445000Y-135449100D03*
X102182500Y-141079100D03*
%TO.N,Net-(CN1-20-Pad41)*%
X111635000Y-93248200D03*
X111556000Y-96746600D03*
X102390000Y-115741500D03*
X112100000Y-104100000D03*
%TO.N,Net-(CN1-1-Pad73)*%
X103768000Y-99155600D03*
X121430000Y-126163500D03*
X103682200Y-110242600D03*
%TO.N,Net-(CN1-1-Pad71)*%
X104045000Y-93369500D03*
%TO.N,Net-(CN1-1-Pad69)*%
X104817000Y-100573000D03*
%TO.N,Net-(CN1-20-Pad39)*%
X112085000Y-97876300D03*
X121795700Y-115439600D03*
X113814500Y-113209900D03*
%TO.N,Net-(CN1-1-Pad5)*%
X121075600Y-100300000D03*
X112784700Y-136877000D03*
%TO.N,Net-(CN1-20-Pad37)*%
X112519000Y-99831700D03*
X119828900Y-110272900D03*
%TO.N,Net-(CN1-20-Pad35)*%
X113250000Y-103607000D03*
X113487500Y-119268200D03*
X117438600Y-124549500D03*
%TO.N,Net-(CN1-20-Pad33)*%
X113453000Y-96299800D03*
%TO.N,Net-(CN1-1-Pad66)*%
X105700000Y-99000000D03*
%TO.N,Net-(CN1-20-Pad27)*%
X115250000Y-97947800D03*
X104950000Y-126675100D03*
%TO.N,Net-(CN1-20-Pad25)*%
X115631000Y-93269900D03*
X116541500Y-122227900D03*
X101555000Y-126289700D03*
%TO.N,Net-(CN1-20-Pad23)*%
X116306000Y-96281400D03*
X115050500Y-141272200D03*
X122630600Y-141590700D03*
%TO.N,Net-(CN1-20-Pad21)*%
X117612000Y-95617700D03*
X119316400Y-114982900D03*
X120160000Y-141011700D03*
%TO.N,Net-(CN1-1-Pad11)*%
X118200000Y-98000000D03*
X118768650Y-99931350D03*
%TO.N,+5V*%
X121951700Y-105005100D03*
X121553300Y-96200000D03*
X104940000Y-141655600D03*
%TO.N,GND*%
X102923000Y-94656200D03*
%TD*%
D20*
%TO.N,Net-(CN1-1-Pad11)*%
X117620000Y-141844300D02*
X117620000Y-143500200D01*
X119133000Y-140331300D02*
X117620000Y-141844300D01*
X119133000Y-116494000D02*
X119133000Y-140331300D01*
X120255200Y-115371800D02*
X119133000Y-116494000D01*
X120255200Y-114594000D02*
X120255200Y-115371800D01*
X119609600Y-114044100D02*
X119705300Y-114044100D01*
X118867100Y-113301600D02*
X119609600Y-114044100D01*
X118867100Y-103813800D02*
X118867100Y-113301600D01*
X119250000Y-103430900D02*
X118867100Y-103813800D01*
X119250000Y-101369100D02*
X119250000Y-103430900D01*
X119705300Y-114044100D02*
X120255200Y-114594000D01*
X118768650Y-100887750D02*
X119250000Y-101369100D01*
X118768650Y-99931350D02*
X118768650Y-100887750D01*
%TO.N,10*%
X117620000Y-136244100D02*
X117620000Y-137900000D01*
X118750000Y-116335500D02*
X118750000Y-135114100D01*
X119872300Y-115213200D02*
X118750000Y-116335500D01*
X119546700Y-114427000D02*
X119872300Y-114752600D01*
X118750000Y-135114100D02*
X117620000Y-136244100D01*
X119451000Y-114427000D02*
X119546700Y-114427000D01*
X118484200Y-113460200D02*
X119451000Y-114427000D01*
X118484200Y-101184200D02*
X118484200Y-113460200D01*
X118000000Y-100700000D02*
X118484200Y-101184200D01*
X118000000Y-99207500D02*
X118000000Y-100700000D01*
X119872300Y-114752600D02*
X119872300Y-115213200D01*
X119499900Y-97707600D02*
X118000000Y-99207500D01*
X119413000Y-96994800D02*
X119499900Y-97081700D01*
X119499900Y-95881000D02*
X119413000Y-95967900D01*
X119413000Y-95967900D02*
X119413000Y-96994800D01*
X119499900Y-93384025D02*
X119499900Y-95881000D01*
X119750000Y-93133925D02*
X119499900Y-93384025D01*
X119499900Y-97081700D02*
X119499900Y-97707600D01*
X119750000Y-91175000D02*
X119750000Y-93133925D01*
%TO.N,Net-(CN1-1-Pad7)*%
X120250000Y-99950000D02*
X120250000Y-102400000D01*
X119700000Y-99400000D02*
X120250000Y-99950000D01*
%TO.N,Net-(CN1-1-Pad66)*%
X105644000Y-97004200D02*
X105499900Y-96860100D01*
X105644000Y-98944000D02*
X105644000Y-97004200D01*
X105499900Y-96860100D02*
X105499900Y-94850371D01*
X105700000Y-99000000D02*
X105644000Y-98944000D01*
X105808000Y-99108000D02*
X105808000Y-101776200D01*
X105700000Y-99000000D02*
X105808000Y-99108000D01*
%TO.N,Net-(CN1-20-Pad63)*%
X108760800Y-115327600D02*
X115080000Y-121646800D01*
X108760800Y-106331100D02*
X108760800Y-115327600D01*
X106300000Y-101430118D02*
X106300000Y-103870300D01*
X106025000Y-96846685D02*
X106025000Y-98097525D01*
X106300000Y-103870300D02*
X108760800Y-106331100D01*
X106369000Y-98441525D02*
X106369000Y-101361118D01*
X106000000Y-96821685D02*
X106025000Y-96846685D01*
X106025000Y-98097525D02*
X106369000Y-98441525D01*
X106000000Y-94850400D02*
X106000000Y-96821685D01*
X115080000Y-121646800D02*
X115080000Y-122699800D01*
X106369000Y-101361118D02*
X106300000Y-101430118D01*
%TO.N,Net-(CN1-20-Pad47)*%
X110342000Y-102307993D02*
X110249964Y-102400029D01*
X110342000Y-99645700D02*
X110342000Y-102307993D01*
%TO.N,Net-(CN1-20-Pad45)*%
X110750000Y-99512000D02*
X110749836Y-99512164D01*
X110749836Y-99512164D02*
X110749836Y-102400029D01*
%TO.N,Net-(CN1-20-Pad41)*%
X111749800Y-103749800D02*
X111749800Y-102400000D01*
X112100000Y-104100000D02*
X111749800Y-103749800D01*
X111499900Y-94850371D02*
X111499900Y-96230300D01*
%TO.N,+3V3*%
X121749836Y-103249836D02*
X122850000Y-104350000D01*
X121749836Y-102400029D02*
X121749836Y-103249836D01*
%TO.N,+5V*%
X121900000Y-100816859D02*
X121249964Y-101466895D01*
X121900000Y-100121111D02*
X121900000Y-100816859D01*
X122100000Y-99921111D02*
X121900000Y-100121111D01*
X121249964Y-101466895D02*
X121249964Y-102400029D01*
X122100000Y-98800000D02*
X122100000Y-99921111D01*
%TO.N,+3V3*%
X124154000Y-103046000D02*
X122850000Y-104350000D01*
X122800000Y-95800000D02*
X123392599Y-95800000D01*
X123392599Y-95800000D02*
X124154000Y-96561401D01*
X124154000Y-96561401D02*
X124154000Y-103046000D01*
%TO.N,GND*%
X121903900Y-94850117D02*
X121499900Y-94850117D01*
X122053783Y-95000000D02*
X121903900Y-94850117D01*
X122200000Y-95000000D02*
X122053783Y-95000000D01*
%TO.N,Net-(CN1-1-Pad5)*%
X120749800Y-101369100D02*
X120749800Y-102400000D01*
X121075600Y-101043300D02*
X120749800Y-101369100D01*
X121075600Y-100300000D02*
X121075600Y-101043300D01*
%TO.N,+5V*%
X121518900Y-98218900D02*
X122100000Y-98800000D01*
X121518900Y-96234400D02*
X121518900Y-98218900D01*
X121553300Y-96200000D02*
X121518900Y-96234400D01*
%TO.N,4*%
X121250000Y-93197500D02*
X121250000Y-91175000D01*
X121100000Y-98643400D02*
X121100000Y-97587025D01*
X120999800Y-97486825D02*
X120999800Y-93995300D01*
X121113700Y-93881400D02*
X121113700Y-93333800D01*
X121113700Y-93333800D02*
X121250000Y-93197500D01*
X121456600Y-99000000D02*
X121100000Y-98643400D01*
X121100000Y-97587025D02*
X120999800Y-97486825D01*
X120999800Y-93995300D02*
X121113700Y-93881400D01*
%TO.N,GND*%
X104940000Y-135160000D02*
X105000000Y-135100000D01*
X104940000Y-136250200D02*
X104940000Y-135160000D01*
X122749467Y-113217956D02*
X122916402Y-113384891D01*
X122749467Y-111471571D02*
X122749467Y-113217956D01*
%TO.N,20*%
X117500000Y-96513175D02*
X118166000Y-95847175D01*
X117500000Y-101324200D02*
X117500000Y-96513175D01*
X118166000Y-95847175D02*
X118166000Y-94766000D01*
X118166000Y-94766000D02*
X117250000Y-93850000D01*
X117675800Y-101500000D02*
X117500000Y-101324200D01*
X117250000Y-91175000D02*
X117250000Y-93850000D01*
X117000000Y-94100200D02*
X117000000Y-94287600D01*
X117250000Y-93850000D02*
X117000000Y-94100200D01*
X117000000Y-94287600D02*
X117000000Y-94475100D01*
X116999800Y-94287800D02*
X116999800Y-94850100D01*
X117000000Y-94287600D02*
X116999800Y-94287800D01*
X120160000Y-131566700D02*
X120160000Y-137900000D01*
%TO.N,8*%
X120250000Y-91175000D02*
X120250000Y-92155900D01*
X115080000Y-135686600D02*
X115080000Y-137900000D01*
X114208300Y-134814900D02*
X115080000Y-135686600D01*
X120174600Y-92231300D02*
X120174600Y-93492800D01*
X120250000Y-92155900D02*
X120174600Y-92231300D01*
X119999800Y-93667600D02*
X120174600Y-93492800D01*
X119999800Y-94850100D02*
X119999800Y-93667600D01*
%TO.N,6*%
X110020000Y-137912200D02*
X110020000Y-136256300D01*
X120499900Y-94850100D02*
X120499900Y-95881000D01*
X120730800Y-92175100D02*
X120750000Y-92155900D01*
X120730800Y-93722800D02*
X120730800Y-92175100D01*
X120499900Y-93953700D02*
X120730800Y-93722800D01*
X120499900Y-94850100D02*
X120499900Y-93953700D01*
X120750000Y-91175000D02*
X120750000Y-92155900D01*
X110265100Y-136011200D02*
X112767600Y-136011200D01*
X110020000Y-136256300D02*
X110265100Y-136011200D01*
X120524800Y-95905900D02*
X120499900Y-95881000D01*
X120524800Y-97747900D02*
X120524800Y-95905900D01*
X120501100Y-97771600D02*
X120524800Y-97747900D01*
%TO.N,4*%
X107480000Y-137906100D02*
X107480000Y-136250200D01*
X110660300Y-133069900D02*
X116255600Y-133069900D01*
X107480000Y-136250200D02*
X110660300Y-133069900D01*
%TO.N,Net-(CN1-20-Pad31)*%
X114250000Y-92803000D02*
X114250000Y-91175000D01*
X114125000Y-92928000D02*
X114250000Y-92803000D01*
X114250000Y-97148300D02*
X114250000Y-102400000D01*
X114156000Y-97054400D02*
X114250000Y-97148300D01*
X114000000Y-95881000D02*
X114000000Y-95623200D01*
X114009000Y-95889900D02*
X114000000Y-95881000D01*
X114009000Y-96907000D02*
X114009000Y-95889900D01*
X114156000Y-97054400D02*
X114009000Y-96907000D01*
X114000000Y-95623200D02*
X114000000Y-95365500D01*
X113999800Y-95623000D02*
X113999800Y-94850100D01*
X114000000Y-95623200D02*
X113999800Y-95623000D01*
X110030000Y-128506200D02*
X110030000Y-126074900D01*
%TO.N,Net-(CN1-20-Pad29)*%
X114500000Y-93339300D02*
X114500000Y-94776900D01*
X114681000Y-93158300D02*
X114500000Y-93339300D01*
X114681000Y-91244100D02*
X114681000Y-93158300D01*
X114750000Y-91175000D02*
X114681000Y-91244100D01*
X114500000Y-96214600D02*
X114748000Y-96463100D01*
X114500000Y-94850100D02*
X114500000Y-96214600D01*
X114500000Y-94776900D02*
X114500000Y-94777000D01*
X114500000Y-94776900D02*
X114500000Y-94777000D01*
X114500000Y-94777000D02*
X114500000Y-94813500D01*
X114500000Y-94813500D02*
X114500000Y-94850100D01*
X114500000Y-94777000D02*
X114500000Y-94813500D01*
X114500000Y-94813500D02*
X114500000Y-94850100D01*
X114499900Y-94813600D02*
X114499900Y-94850100D01*
X114500000Y-94813500D02*
X114499900Y-94813600D01*
X114750000Y-101369000D02*
X114750000Y-101626500D01*
X114694000Y-101313000D02*
X114750000Y-101369000D01*
X114694000Y-97717600D02*
X114694000Y-101313000D01*
X114748000Y-97663100D02*
X114694000Y-97717600D01*
X114748000Y-96463100D02*
X114748000Y-97663100D01*
X114750000Y-101626500D02*
X114750000Y-101884000D01*
X114749800Y-101626700D02*
X114749800Y-102400000D01*
X114750000Y-101626500D02*
X114749800Y-101626700D01*
X114749800Y-106934200D02*
X114749800Y-102400000D01*
X114650500Y-107033500D02*
X114749800Y-106934200D01*
X107490000Y-128506200D02*
X107490000Y-126850300D01*
X106401800Y-118986700D02*
X106401800Y-108751500D01*
X108381000Y-120965900D02*
X106401800Y-118986700D01*
X108381000Y-125959300D02*
X108381000Y-120965900D01*
X107490000Y-126850300D02*
X108381000Y-125959300D01*
%TO.N,Net-(LED2-+)*%
X121150500Y-111478400D02*
X121150500Y-110822500D01*
X120494600Y-106730400D02*
X121200000Y-106025000D01*
X120494600Y-110166600D02*
X120494600Y-106730400D01*
X121150500Y-110822500D02*
X120494600Y-110166600D01*
%TO.N,Net-(LED1-+)*%
X121806400Y-107043600D02*
X122850000Y-106000000D01*
X121806400Y-107678400D02*
X121806400Y-107043600D01*
X121150500Y-107678400D02*
X121806400Y-107678400D01*
%TO.N,Net-(CN1-1-Pad9)*%
X119749800Y-100616100D02*
X119749800Y-102400000D01*
X119583300Y-100449600D02*
X119749800Y-100616100D01*
X119250000Y-111286800D02*
X119908200Y-111945000D01*
X119250000Y-108720000D02*
X119250000Y-111286800D01*
X119749800Y-108220200D02*
X119250000Y-108720000D01*
X119749800Y-102400000D02*
X119749800Y-108220200D01*
X115080000Y-143500200D02*
X115080000Y-141844300D01*
X115887200Y-141844300D02*
X115080000Y-141844300D01*
X116203000Y-142160100D02*
X115887200Y-141844300D01*
%TO.N,Net-(CN1-1-Pad74)*%
X103500000Y-93819500D02*
X103500000Y-94077200D01*
X103489000Y-93809000D02*
X103500000Y-93819500D01*
X103489000Y-92416500D02*
X103489000Y-93809000D01*
X103750000Y-92155900D02*
X103489000Y-92416500D01*
X103750000Y-91175000D02*
X103750000Y-92155900D01*
X103500000Y-94077200D02*
X103500000Y-94334900D01*
X103499900Y-94077300D02*
X103499900Y-94850400D01*
X103500000Y-94077200D02*
X103499900Y-94077300D01*
%TO.N,Net-(CN1-20-Pad63)*%
X106250000Y-92746300D02*
X106250000Y-91175000D01*
X105985000Y-93010900D02*
X106250000Y-92746300D01*
X105999800Y-94850400D02*
X106000000Y-94850400D01*
X106000000Y-93025300D02*
X106000000Y-94850400D01*
X105985000Y-93010900D02*
X106000000Y-93025300D01*
%TO.N,Net-(CN1-1-Pad7)*%
X110020000Y-143506300D02*
X110020000Y-141850400D01*
X113364000Y-134772900D02*
X114342400Y-133794500D01*
X113364000Y-138506400D02*
X113364000Y-134772900D01*
X110020000Y-141850400D02*
X113364000Y-138506400D01*
%TO.N,Net-(CN1-1-Pad67)*%
X105000000Y-92534300D02*
X105000000Y-94850400D01*
X105250000Y-92284100D02*
X105000000Y-92534300D01*
X105250000Y-91175000D02*
X105250000Y-92284100D01*
X105000000Y-97176100D02*
X105045000Y-97221400D01*
X105000000Y-95389000D02*
X105000000Y-97176100D01*
X105000000Y-95389000D02*
X105000000Y-95388800D01*
X105000000Y-95388800D02*
X105000000Y-95389000D01*
X105000000Y-94850400D02*
X105000000Y-95119600D01*
X105000000Y-95119600D02*
X105000000Y-95388800D01*
X105000000Y-95388800D02*
X105000000Y-95119600D01*
X105000000Y-95119600D02*
X105000000Y-94850400D01*
X104999800Y-95119400D02*
X104999800Y-94850400D01*
X105000000Y-95119600D02*
X104999800Y-95119400D01*
X105091000Y-97267000D02*
X105045000Y-97221400D01*
X105091000Y-100061000D02*
X105091000Y-97267000D01*
X105425000Y-100395000D02*
X105091000Y-100061000D01*
X105425000Y-101194000D02*
X105425000Y-100395000D01*
X105250000Y-101369000D02*
X105425000Y-101194000D01*
X105250000Y-102400000D02*
X105250000Y-101369000D01*
X107490000Y-122906000D02*
X107490000Y-121250100D01*
X105250000Y-105906600D02*
X105250000Y-102400000D01*
X105839400Y-106496000D02*
X105250000Y-105906600D01*
X105839400Y-119599500D02*
X105839400Y-106496000D01*
X107490000Y-121250100D02*
X105839400Y-119599500D01*
%TO.N,Net-(CN1-20-Pad61)*%
X106750000Y-92155900D02*
X106750000Y-91175000D01*
X106633000Y-92273000D02*
X106750000Y-92155900D01*
X106633000Y-93396400D02*
X106633000Y-92273000D01*
X106557000Y-93472300D02*
X106633000Y-93396400D01*
X106500000Y-93529400D02*
X106557000Y-93472300D01*
X106500000Y-94698800D02*
X106500000Y-93529400D01*
X106500000Y-94698800D02*
X106500000Y-94698900D01*
X106500000Y-94698900D02*
X106500000Y-94698800D01*
X106500000Y-94850400D02*
X106500000Y-94774600D01*
X106500000Y-94774600D02*
X106500000Y-94698900D01*
X106500000Y-94698900D02*
X106500000Y-94774600D01*
X106500000Y-94774600D02*
X106500000Y-94850400D01*
X106499900Y-94774700D02*
X106499900Y-94850400D01*
X106500000Y-94774600D02*
X106499900Y-94774700D01*
X106750000Y-102020000D02*
X106750000Y-100028200D01*
X106500000Y-95868300D02*
X106500000Y-94850400D01*
X106586000Y-95953900D02*
X106500000Y-95868300D01*
X106586000Y-97872200D02*
X106586000Y-95953900D01*
X106750000Y-98036500D02*
X106586000Y-97872200D01*
X106750000Y-100028200D02*
X106750000Y-98036500D01*
X106749800Y-100028400D02*
X106749800Y-102400300D01*
X106750000Y-100028200D02*
X106749800Y-100028400D01*
X106749800Y-103464700D02*
X108867500Y-105582400D01*
X106749800Y-102400300D02*
X106749800Y-103464700D01*
X117620000Y-109721400D02*
X117167800Y-109269200D01*
X117620000Y-122699800D02*
X117620000Y-109721400D01*
%TO.N,Net-(CN1-20-Pad59)*%
X106968000Y-97468800D02*
X107144000Y-97644100D01*
X106968000Y-95899700D02*
X106968000Y-97468800D01*
X107096000Y-95772200D02*
X106968000Y-95899700D01*
X107096000Y-93645800D02*
X107096000Y-95772200D01*
X107336000Y-93405900D02*
X107096000Y-93645800D01*
X107336000Y-92919400D02*
X107336000Y-93405900D01*
X107250000Y-92833600D02*
X107336000Y-92919400D01*
X107250000Y-91175000D02*
X107250000Y-92833600D01*
X107235000Y-102385000D02*
X107235000Y-101754200D01*
X107235000Y-97735200D02*
X107144000Y-97644100D01*
X107235000Y-101754200D02*
X107235000Y-97735200D01*
X107250000Y-101769200D02*
X107250000Y-102400300D01*
X107235000Y-101754200D02*
X107250000Y-101769200D01*
X107250000Y-102400300D02*
X107250000Y-103418200D01*
X107976100Y-103842500D02*
X107976100Y-103842600D01*
X107674300Y-103842500D02*
X107976100Y-103842500D01*
X107250000Y-103418200D02*
X107674300Y-103842500D01*
X120160000Y-116253400D02*
X120325300Y-116088100D01*
X120160000Y-122699800D02*
X120160000Y-116253400D01*
%TO.N,Net-(CN1-20-Pad57)*%
X107524000Y-93756200D02*
X107524000Y-94850400D01*
X107717000Y-93563700D02*
X107524000Y-93756200D01*
X107717000Y-92189100D02*
X107717000Y-93563700D01*
X107750000Y-92155900D02*
X107717000Y-92189100D01*
X107750000Y-91175000D02*
X107750000Y-92155900D01*
X107524000Y-94850400D02*
X107524000Y-96199400D01*
X107500000Y-94850400D02*
X107524000Y-94850400D01*
X107500000Y-94850400D02*
X107499900Y-94850400D01*
X107750000Y-101369000D02*
X107750000Y-101626500D01*
X107618000Y-101237000D02*
X107750000Y-101369000D01*
X107618000Y-97956300D02*
X107618000Y-101237000D01*
X107700000Y-97874400D02*
X107618000Y-97956300D01*
X107700000Y-96374700D02*
X107700000Y-97874400D01*
X107524000Y-96199400D02*
X107700000Y-96374700D01*
X107750000Y-101626500D02*
X107750000Y-101884000D01*
X107749800Y-101626700D02*
X107749800Y-102400000D01*
X107750000Y-101626500D02*
X107749800Y-101626700D01*
X122700000Y-122705900D02*
X122700000Y-121050000D01*
X122509300Y-120859300D02*
X122700000Y-121050000D01*
X122509300Y-113759900D02*
X122509300Y-120859300D01*
X121300000Y-112550600D02*
X122509300Y-113759900D01*
%TO.N,Net-(CN1-20-Pad55)*%
X108250000Y-101369000D02*
X108250000Y-102400000D01*
X108174000Y-101293000D02*
X108250000Y-101369000D01*
X108174000Y-100173000D02*
X108174000Y-101293000D01*
X108000000Y-94850400D02*
X107999800Y-94850400D01*
X108000000Y-93819500D02*
X108000000Y-94850400D01*
X108100000Y-93719600D02*
X108000000Y-93819500D01*
X108100000Y-92609900D02*
X108100000Y-93719600D01*
X108250000Y-92459600D02*
X108100000Y-92609900D01*
X108250000Y-91175000D02*
X108250000Y-92459600D01*
X108082000Y-100082000D02*
X108174000Y-100173000D01*
X108082000Y-95964000D02*
X108082000Y-100082000D01*
X108000000Y-95881300D02*
X108082000Y-95964000D01*
X108000000Y-94850400D02*
X108000000Y-95881300D01*
X102043000Y-106296900D02*
X102390000Y-106643900D01*
X102043000Y-106224400D02*
X102043000Y-106296900D01*
X102390000Y-108299800D02*
X102390000Y-106643900D01*
%TO.N,Net-(CN1-20-Pad53)*%
X108500000Y-94850400D02*
X108499900Y-94850400D01*
X108500000Y-93819500D02*
X108500000Y-94850400D01*
X108483000Y-93802200D02*
X108500000Y-93819500D01*
X108483000Y-92768500D02*
X108483000Y-93802200D01*
X108750000Y-92501100D02*
X108483000Y-92768500D01*
X108750000Y-91175000D02*
X108750000Y-92501100D01*
X108465000Y-98929500D02*
X108640000Y-99103600D01*
X108465000Y-95915800D02*
X108465000Y-98929500D01*
X108500000Y-95881300D02*
X108465000Y-95915800D01*
X108500000Y-94850400D02*
X108500000Y-95881300D01*
X108750000Y-101369000D02*
X108750000Y-101626500D01*
X108730000Y-101349000D02*
X108750000Y-101369000D01*
X108730000Y-99193700D02*
X108730000Y-101349000D01*
X108640000Y-99103600D02*
X108730000Y-99193700D01*
X108750000Y-101626500D02*
X108750000Y-101884000D01*
X108749800Y-101626700D02*
X108749800Y-102400000D01*
X108750000Y-101626500D02*
X108749800Y-101626700D01*
X104930000Y-106372800D02*
X104930000Y-108299800D01*
X104838400Y-106281200D02*
X104930000Y-106372800D01*
%TO.N,Net-(CN1-20-Pad51)*%
X109250000Y-92116600D02*
X109250000Y-91175000D01*
X109179000Y-92187200D02*
X109250000Y-92116600D01*
X109179000Y-92857800D02*
X109179000Y-92187200D01*
X109038000Y-92998700D02*
X109179000Y-92857800D01*
X109250000Y-102400000D02*
X109250000Y-99917100D01*
X109250000Y-99917100D02*
X109286000Y-99917100D01*
X108996000Y-94854600D02*
X108998000Y-94852500D01*
X108996000Y-96455600D02*
X108996000Y-94854600D01*
X108848000Y-96602900D02*
X108996000Y-96455600D01*
X108848000Y-98364700D02*
X108848000Y-96602900D01*
X109250000Y-98766400D02*
X108848000Y-98364700D01*
X109250000Y-99917100D02*
X109250000Y-98766400D01*
X108999800Y-94850400D02*
X109000000Y-94850400D01*
X109000000Y-94850700D02*
X109000000Y-94850400D01*
X108998000Y-94852500D02*
X109000000Y-94850700D01*
X109000000Y-94850400D02*
X108998000Y-94852500D01*
X107470000Y-108299800D02*
X107470000Y-106460000D01*
%TO.N,Net-(CN1-20-Pad49)*%
X109500000Y-95764000D02*
X109500000Y-94850400D01*
X109378000Y-95885400D02*
X109500000Y-95764000D01*
X109378000Y-96809500D02*
X109378000Y-95885400D01*
X109404000Y-96835300D02*
X109378000Y-96809500D01*
X109750000Y-92187300D02*
X109750000Y-91175000D01*
X109594000Y-92342900D02*
X109750000Y-92187300D01*
X109594000Y-93725000D02*
X109594000Y-92342900D01*
X109500000Y-93819500D02*
X109594000Y-93725000D01*
X109500000Y-94785700D02*
X109500000Y-93819500D01*
X109500000Y-94785700D02*
X109500000Y-94785800D01*
X109500000Y-94785800D02*
X109500000Y-94785700D01*
X109500000Y-94850400D02*
X109500000Y-94818100D01*
X109500000Y-94818100D02*
X109500000Y-94785800D01*
X109500000Y-94785800D02*
X109500000Y-94818100D01*
X109500000Y-94818100D02*
X109500000Y-94850400D01*
X109499900Y-94818200D02*
X109499900Y-94850400D01*
X109500000Y-94818100D02*
X109499900Y-94818200D01*
X109750000Y-101369000D02*
X109750000Y-101626500D01*
X109907000Y-101212000D02*
X109750000Y-101369000D01*
X109907000Y-99752000D02*
X109907000Y-101212000D01*
X109733000Y-99578600D02*
X109907000Y-99752000D01*
X109733000Y-98708300D02*
X109733000Y-99578600D01*
X109404000Y-98379200D02*
X109733000Y-98708300D01*
X109404000Y-96835300D02*
X109404000Y-98379200D01*
X109750000Y-101626500D02*
X109750000Y-101884000D01*
X109749800Y-101626700D02*
X109749800Y-102400000D01*
X109750000Y-101626500D02*
X109749800Y-101626700D01*
X109749800Y-106389800D02*
X110010000Y-106650000D01*
X109749800Y-102400000D02*
X109749800Y-106389800D01*
X110010000Y-108305900D02*
X110010000Y-106650000D01*
%TO.N,Net-(CN1-20-Pad47)*%
X109958000Y-96115600D02*
X109934000Y-96115600D01*
X110000000Y-93787600D02*
X110000000Y-94850400D01*
X110225000Y-93562100D02*
X110000000Y-93787600D01*
X110225000Y-92180600D02*
X110225000Y-93562100D01*
X110250000Y-92155900D02*
X110225000Y-92180600D01*
X110250000Y-91175000D02*
X110250000Y-92155900D01*
X110000000Y-96073800D02*
X109958000Y-96115600D01*
X110000000Y-94930700D02*
X110000000Y-96073800D01*
X110000000Y-94930700D02*
X110000000Y-94930500D01*
X110000000Y-94930500D02*
X110000000Y-94930700D01*
X110000000Y-94850400D02*
X110000000Y-94890400D01*
X110000000Y-94890400D02*
X110000000Y-94930500D01*
X110000000Y-94930500D02*
X110000000Y-94890400D01*
X110000000Y-94890400D02*
X110000000Y-94850400D01*
X109999800Y-94890200D02*
X109999800Y-94850400D01*
X110000000Y-94890400D02*
X109999800Y-94890200D01*
X109960000Y-96117800D02*
X109958000Y-96115600D01*
X109960000Y-97065600D02*
X109960000Y-96117800D01*
X109857000Y-97168900D02*
X109960000Y-97065600D01*
X109857000Y-97851200D02*
X109857000Y-97168900D01*
X110116000Y-98110600D02*
X109857000Y-97851200D01*
X110116000Y-99420000D02*
X110116000Y-98110600D01*
X110342000Y-99645700D02*
X110116000Y-99420000D01*
X110900900Y-111353200D02*
X110010000Y-112244100D01*
X110900900Y-106799900D02*
X110900900Y-111353200D01*
X110250000Y-106149000D02*
X110900900Y-106799900D01*
X110250000Y-102400000D02*
X110250000Y-106149000D01*
X110010000Y-113900000D02*
X110010000Y-112244100D01*
%TO.N,Net-(CN1-20-Pad45)*%
X110500000Y-97533900D02*
X110500000Y-94998200D01*
X110435000Y-97598900D02*
X110500000Y-97533900D01*
X110750000Y-92403400D02*
X110750000Y-91175000D01*
X110608000Y-92545200D02*
X110750000Y-92403400D01*
X110608000Y-93720700D02*
X110608000Y-92545200D01*
X110500000Y-93829000D02*
X110608000Y-93720700D01*
X110500000Y-94850400D02*
X110500000Y-93829000D01*
X110500000Y-94998200D02*
X110500000Y-94998100D01*
X110500000Y-94998200D02*
X110500000Y-94998100D01*
X110500000Y-94998100D02*
X110500000Y-94924200D01*
X110500000Y-94924200D02*
X110500000Y-94850400D01*
X110500000Y-94998100D02*
X110500000Y-94924200D01*
X110500000Y-94924200D02*
X110500000Y-94850400D01*
X110499900Y-94924100D02*
X110499900Y-94850400D01*
X110500000Y-94924200D02*
X110499900Y-94924100D01*
X110586000Y-99348100D02*
X110750000Y-99512000D01*
X110586000Y-97749900D02*
X110586000Y-99348100D01*
X110435000Y-97598900D02*
X110586000Y-97749900D01*
X107470000Y-111046800D02*
X107245600Y-110822400D01*
X107470000Y-113900000D02*
X107470000Y-111046800D01*
%TO.N,Net-(CN1-20-Pad43)*%
X111000000Y-93097400D02*
X111000000Y-94850400D01*
X111250000Y-92847200D02*
X111000000Y-93097400D01*
X111250000Y-91175000D02*
X111250000Y-92847200D01*
X111250000Y-99393600D02*
X111250000Y-102400000D01*
X111000000Y-99143400D02*
X111250000Y-99393600D01*
X111000000Y-95193500D02*
X111000000Y-99143400D01*
X111000000Y-95193500D02*
X111000000Y-95193300D01*
X111000000Y-95193300D02*
X111000000Y-95193500D01*
X111000000Y-94850400D02*
X111000000Y-95021800D01*
X111000000Y-95021800D02*
X111000000Y-95193300D01*
X111000000Y-95193300D02*
X111000000Y-95021800D01*
X111000000Y-95021800D02*
X111000000Y-94850400D01*
X110999800Y-95021600D02*
X110999800Y-94850400D01*
X111000000Y-95021800D02*
X110999800Y-95021600D01*
X104930000Y-113900000D02*
X104930000Y-111878400D01*
X111175500Y-103430900D02*
X110981000Y-103625400D01*
X111250000Y-103430900D02*
X111175500Y-103430900D01*
X111250000Y-102400000D02*
X111250000Y-103430900D01*
%TO.N,+3V3*%
X102400000Y-141296600D02*
X102182500Y-141079100D01*
X102400000Y-143506300D02*
X102400000Y-141296600D01*
X123621100Y-105121100D02*
X122850000Y-104350000D01*
X123621100Y-135273000D02*
X123621100Y-105121100D01*
X123445000Y-135449100D02*
X123621100Y-135273000D01*
%TO.N,Net-(CN1-20-Pad41)*%
X111750000Y-93133300D02*
X111635000Y-93248200D01*
X111750000Y-91175000D02*
X111750000Y-93133300D01*
X111500000Y-96690500D02*
X111500000Y-96230400D01*
X111556000Y-96746600D02*
X111500000Y-96690500D01*
X111500000Y-96230400D02*
X111499900Y-96230300D01*
X102390000Y-113900000D02*
X102390000Y-115555900D01*
X102390000Y-115555900D02*
X102390000Y-115741500D01*
%TO.N,Net-(CN1-1-Pad73)*%
X103750000Y-101369000D02*
X103750000Y-101626500D01*
X103768000Y-101350000D02*
X103750000Y-101369000D01*
X103768000Y-99155600D02*
X103768000Y-101350000D01*
X103750000Y-101626500D02*
X103750000Y-101884000D01*
X103749800Y-101626700D02*
X103749800Y-102400000D01*
X103750000Y-101626500D02*
X103749800Y-101626700D01*
X121430000Y-134980200D02*
X121430000Y-126163500D01*
X122700000Y-136250200D02*
X121430000Y-134980200D01*
X122700000Y-137906100D02*
X122700000Y-136250200D01*
%TO.N,Net-(CN1-1-Pad71)*%
X104218000Y-93196400D02*
X104045000Y-93369500D01*
X104218000Y-91206600D02*
X104218000Y-93196400D01*
X104250000Y-91175000D02*
X104218000Y-91206600D01*
X104045000Y-93774000D02*
X104045000Y-93369500D01*
X104000000Y-93819500D02*
X104045000Y-93774000D01*
X104000000Y-94850400D02*
X104000000Y-93819500D01*
X104000000Y-95361400D02*
X104000000Y-95361200D01*
X104000000Y-95361400D02*
X104000000Y-95361200D01*
X104000000Y-95361200D02*
X104000000Y-95105800D01*
X104000000Y-95105800D02*
X104000000Y-94850400D01*
X104000000Y-95361200D02*
X104000000Y-95105800D01*
X104000000Y-95105800D02*
X104000000Y-94850400D01*
X103999800Y-95105600D02*
X103999800Y-94850400D01*
X104000000Y-95105800D02*
X103999800Y-95105600D01*
X104000000Y-97503700D02*
X104000000Y-95361400D01*
X104324000Y-97828200D02*
X104000000Y-97503700D01*
X104324000Y-99385900D02*
X104324000Y-97828200D01*
X104250000Y-99460200D02*
X104324000Y-99385900D01*
X104250000Y-102400000D02*
X104250000Y-99460200D01*
X102410000Y-122906000D02*
X102410000Y-121250100D01*
X103284600Y-120375500D02*
X102410000Y-121250100D01*
X103284600Y-110631100D02*
X103284600Y-120375500D01*
X103126300Y-110472800D02*
X103284600Y-110631100D01*
X103126300Y-110012400D02*
X103126300Y-110472800D01*
X103442900Y-109695800D02*
X103126300Y-110012400D01*
X103442900Y-106349100D02*
X103442900Y-109695800D01*
X104250000Y-105542000D02*
X103442900Y-106349100D01*
X104250000Y-102400000D02*
X104250000Y-105542000D01*
%TO.N,Net-(CN1-1-Pad69)*%
X104750000Y-100573000D02*
X104817000Y-100573000D01*
X104500000Y-94850400D02*
X104499900Y-94850400D01*
X104500000Y-93819500D02*
X104500000Y-94850400D01*
X104601000Y-93718100D02*
X104500000Y-93819500D01*
X104601000Y-92304600D02*
X104601000Y-93718100D01*
X104750000Y-92155900D02*
X104601000Y-92304600D01*
X104750000Y-91175000D02*
X104750000Y-92155900D01*
X104708000Y-100531000D02*
X104750000Y-100573000D01*
X104708000Y-97670200D02*
X104708000Y-100531000D01*
X104489000Y-97451600D02*
X104708000Y-97670200D01*
X104489000Y-95892000D02*
X104489000Y-97451600D01*
X104500000Y-95881300D02*
X104489000Y-95892000D01*
X104500000Y-94850400D02*
X104500000Y-95881300D01*
X104750000Y-100573000D02*
X104750000Y-101029500D01*
X104749800Y-101029700D02*
X104749800Y-102400000D01*
X104750000Y-101029500D02*
X104749800Y-101029700D01*
X104950000Y-122906000D02*
X104950000Y-121250100D01*
X104749800Y-105583700D02*
X104749800Y-102400000D01*
X103996400Y-106337100D02*
X104749800Y-105583700D01*
X103996400Y-109770600D02*
X103996400Y-106337100D01*
X104238100Y-110012300D02*
X103996400Y-109770600D01*
X104238100Y-110472900D02*
X104238100Y-110012300D01*
X103996400Y-110714600D02*
X104238100Y-110472900D01*
X103996400Y-120296500D02*
X103996400Y-110714600D01*
X104950000Y-121250100D02*
X103996400Y-120296500D01*
%TO.N,Net-(CN1-20-Pad39)*%
X112000000Y-93671000D02*
X112000000Y-94850100D01*
X112250000Y-93420800D02*
X112000000Y-93671000D01*
X112250000Y-91175000D02*
X112250000Y-93420800D01*
X112112000Y-97849300D02*
X112085000Y-97876300D01*
X112112000Y-96516300D02*
X112112000Y-97849300D01*
X112000000Y-96404200D02*
X112112000Y-96516300D01*
X112000000Y-95037600D02*
X112000000Y-96404200D01*
X112000000Y-95037600D02*
X112000000Y-95037400D01*
X112000000Y-95037400D02*
X112000000Y-95037600D01*
X112000000Y-94850100D02*
X112000000Y-94943700D01*
X112000000Y-94943700D02*
X112000000Y-95037400D01*
X112000000Y-95037400D02*
X112000000Y-94943700D01*
X112000000Y-94943700D02*
X112000000Y-94850100D01*
X111999800Y-94943500D02*
X111999800Y-94850100D01*
X112000000Y-94943700D02*
X111999800Y-94943500D01*
X111963000Y-97998500D02*
X112085000Y-97876300D01*
X111963000Y-101082000D02*
X111963000Y-97998500D01*
X112250000Y-101369000D02*
X111963000Y-101082000D01*
X112250000Y-102400000D02*
X112250000Y-101369000D01*
X122700000Y-128300000D02*
X122700000Y-126644100D01*
X121795700Y-125739800D02*
X121795700Y-115439600D01*
X122700000Y-126644100D02*
X121795700Y-125739800D01*
%TO.N,Net-(CN1-1-Pad5)*%
X107480000Y-143506300D02*
X107480000Y-141850400D01*
X112784700Y-137580600D02*
X112784700Y-136877000D01*
X108514900Y-141850400D02*
X112784700Y-137580600D01*
X107480000Y-141850400D02*
X108514900Y-141850400D01*
%TO.N,Net-(CN1-20-Pad37)*%
X112500000Y-97301600D02*
X112500000Y-94965300D01*
X112682000Y-97483200D02*
X112500000Y-97301600D01*
X112682000Y-99668800D02*
X112682000Y-97483200D01*
X112519000Y-99831700D02*
X112682000Y-99668800D01*
X112750000Y-93569100D02*
X112750000Y-91175000D01*
X112500000Y-93819200D02*
X112750000Y-93569100D01*
X112500000Y-94850100D02*
X112500000Y-93819200D01*
X112500000Y-94965300D02*
X112500000Y-94965200D01*
X112500000Y-94965300D02*
X112500000Y-94965200D01*
X112500000Y-94965200D02*
X112500000Y-94907600D01*
X112500000Y-94907600D02*
X112500000Y-94850100D01*
X112500000Y-94965200D02*
X112500000Y-94907600D01*
X112500000Y-94907600D02*
X112500000Y-94850100D01*
X112499900Y-94907500D02*
X112499900Y-94850100D01*
X112500000Y-94907600D02*
X112499900Y-94907500D01*
X112750000Y-100063000D02*
X112750000Y-101453700D01*
X112519000Y-99831700D02*
X112750000Y-100063000D01*
X112750000Y-101453700D02*
X112750000Y-101769000D01*
X112749800Y-101453900D02*
X112749800Y-102400000D01*
X112750000Y-101453700D02*
X112749800Y-101453900D01*
X120160000Y-128300000D02*
X120160000Y-126644100D01*
X120464100Y-110908100D02*
X119828900Y-110272900D01*
X120464100Y-114261400D02*
X120464100Y-110908100D01*
X121117900Y-114915200D02*
X120464100Y-114261400D01*
X121117900Y-125686200D02*
X121117900Y-114915200D01*
X120160000Y-126644100D02*
X121117900Y-125686200D01*
%TO.N,Net-(CN1-20-Pad35)*%
X113000000Y-93941300D02*
X113000000Y-94850100D01*
X113186000Y-93754900D02*
X113000000Y-93941300D01*
X113186000Y-92219700D02*
X113186000Y-93754900D01*
X113250000Y-92155900D02*
X113186000Y-92219700D01*
X113250000Y-91175000D02*
X113250000Y-92155900D01*
X113000000Y-94911100D02*
X113000000Y-94910900D01*
X113000000Y-94910900D02*
X113000000Y-94911100D01*
X113000000Y-94850100D02*
X113000000Y-94880500D01*
X113000000Y-94880500D02*
X113000000Y-94910900D01*
X113000000Y-94910900D02*
X113000000Y-94880500D01*
X113000000Y-94880500D02*
X113000000Y-94850100D01*
X112999800Y-94880300D02*
X112999800Y-94850100D01*
X113000000Y-94880500D02*
X112999800Y-94880300D01*
X113250000Y-101369000D02*
X113250000Y-102400000D01*
X113179000Y-101298000D02*
X113250000Y-101369000D01*
X113179000Y-96814100D02*
X113179000Y-101298000D01*
X112896000Y-96531200D02*
X113179000Y-96814100D01*
X112896000Y-95985100D02*
X112896000Y-96531200D01*
X113000000Y-95881000D02*
X112896000Y-95985100D01*
X113000000Y-94911100D02*
X113000000Y-95881000D01*
X113250000Y-102400000D02*
X113250000Y-103607000D01*
X113250000Y-119030700D02*
X113487500Y-119268200D01*
X113250000Y-103607000D02*
X113250000Y-119030700D01*
X117620000Y-124730900D02*
X117438600Y-124549500D01*
X117620000Y-128300000D02*
X117620000Y-124730900D01*
%TO.N,Net-(CN1-20-Pad33)*%
X113500000Y-96299800D02*
X113453000Y-96299800D01*
X113569000Y-94780900D02*
X113534000Y-94815500D01*
X113569000Y-92697800D02*
X113569000Y-94780900D01*
X113750000Y-92516900D02*
X113569000Y-92697800D01*
X113750000Y-91175000D02*
X113750000Y-92516900D01*
X113500000Y-94850100D02*
X113500000Y-96299800D01*
X113562000Y-96362200D02*
X113500000Y-96299800D01*
X113562000Y-98929100D02*
X113562000Y-96362200D01*
X113750000Y-99116600D02*
X113562000Y-98929100D01*
X113750000Y-100758000D02*
X113750000Y-99116600D01*
X113750000Y-101579000D02*
X113750000Y-100758000D01*
X113750000Y-100758000D02*
X113750000Y-101579000D01*
X113534000Y-94815500D02*
X113517000Y-94832800D01*
X113517000Y-94832800D02*
X113500000Y-94850100D01*
X113534000Y-94815500D02*
X113517000Y-94832800D01*
X113517000Y-94832800D02*
X113500000Y-94850100D01*
X113499900Y-94849900D02*
X113499900Y-94850100D01*
X113517000Y-94832800D02*
X113499900Y-94849900D01*
X113806000Y-101635000D02*
X113806000Y-102641900D01*
X113750000Y-101579000D02*
X113806000Y-101635000D01*
X113749800Y-102585700D02*
X113749800Y-102400000D01*
X113806000Y-102641900D02*
X113749800Y-102585700D01*
X115970900Y-110906300D02*
X113806000Y-108741400D01*
X115970900Y-125753200D02*
X115970900Y-110906300D01*
X115080000Y-126644100D02*
X115970900Y-125753200D01*
X113806000Y-102641900D02*
X113806000Y-108741400D01*
X115080000Y-128300000D02*
X115080000Y-126644100D01*
%TO.N,Net-(CN1-1-Pad66)*%
X105750000Y-92460200D02*
X105750000Y-91175000D01*
X105430000Y-92780700D02*
X105750000Y-92460200D01*
X105430000Y-93762100D02*
X105430000Y-92780700D01*
X105500000Y-93832500D02*
X105430000Y-93762100D01*
X105500000Y-94850400D02*
X105500000Y-93832500D01*
X105500000Y-95098300D02*
X105500000Y-94850400D01*
X105499900Y-95098200D02*
X105499900Y-94850400D01*
X105500000Y-95098300D02*
X105499900Y-95098200D01*
X105808000Y-101776200D02*
X105808000Y-102342000D01*
X105749800Y-101834400D02*
X105749800Y-102400300D01*
X105808000Y-101776200D02*
X105749800Y-101834400D01*
X105749800Y-102400300D02*
X105749800Y-103418200D01*
X110030000Y-122912100D02*
X110030000Y-121256200D01*
X105749800Y-103885900D02*
X105749800Y-103418200D01*
X108377900Y-106514000D02*
X105749800Y-103885900D01*
X108377900Y-119604100D02*
X108377900Y-106514000D01*
X110030000Y-121256200D02*
X108377900Y-119604100D01*
%TO.N,Net-(CN1-20-Pad27)*%
X115250000Y-102400000D02*
X115250000Y-97947800D01*
X115000000Y-94850100D02*
X114999800Y-94850100D01*
X115000000Y-95881000D02*
X115000000Y-94850100D01*
X115306000Y-96187100D02*
X115000000Y-95881000D01*
X115306000Y-97891900D02*
X115306000Y-96187100D01*
X115250000Y-97947800D02*
X115306000Y-97891900D01*
X115250000Y-92155900D02*
X115250000Y-91175000D01*
X115064000Y-92342100D02*
X115250000Y-92155900D01*
X115064000Y-93755200D02*
X115064000Y-92342100D01*
X115000000Y-93819200D02*
X115064000Y-93755200D01*
X115000000Y-94850100D02*
X115000000Y-93819200D01*
X104950000Y-128506200D02*
X104950000Y-126850300D01*
X104950000Y-126850300D02*
X104950000Y-126675100D01*
%TO.N,Net-(CN1-20-Pad25)*%
X115750000Y-93151300D02*
X115631000Y-93269900D01*
X115750000Y-91175000D02*
X115750000Y-93151300D01*
X115631000Y-93687700D02*
X115631000Y-93269900D01*
X115500000Y-93819200D02*
X115631000Y-93687700D01*
X115500000Y-94815100D02*
X115500000Y-93819200D01*
X115500000Y-94815200D02*
X115500000Y-94850100D01*
X115500000Y-94815100D02*
X115500000Y-94815200D01*
X115500000Y-94815100D02*
X115500000Y-94815200D01*
X115500000Y-94815200D02*
X115500000Y-94850100D01*
X115500000Y-94850100D02*
X115500000Y-95330600D01*
X115499900Y-95330500D02*
X115499900Y-94850100D01*
X115500000Y-95330600D02*
X115499900Y-95330500D01*
X115750000Y-101369000D02*
X115750000Y-101626500D01*
X115806000Y-101313000D02*
X115750000Y-101369000D01*
X115806000Y-97717500D02*
X115806000Y-101313000D01*
X115750000Y-97661600D02*
X115806000Y-97717500D01*
X115750000Y-96061000D02*
X115750000Y-97661600D01*
X115500000Y-95811100D02*
X115750000Y-96061000D01*
X115500000Y-95330600D02*
X115500000Y-95811100D01*
X115750000Y-101626500D02*
X115750000Y-101884000D01*
X115749800Y-101626700D02*
X115749800Y-102400000D01*
X115750000Y-101626500D02*
X115749800Y-101626700D01*
X102115600Y-126850300D02*
X102410000Y-126850300D01*
X101555000Y-126289700D02*
X102115600Y-126850300D01*
X102410000Y-128506200D02*
X102410000Y-126850300D01*
X115749800Y-102400000D02*
X115749800Y-103430900D01*
X116541500Y-104222600D02*
X116541500Y-122227900D01*
X115749800Y-103430900D02*
X116541500Y-104222600D01*
%TO.N,Net-(CN1-20-Pad23)*%
X116260000Y-96281400D02*
X116306000Y-96281400D01*
X116000000Y-95769500D02*
X116000000Y-94850100D01*
X116260000Y-96030200D02*
X116000000Y-95769500D01*
X116260000Y-96281400D02*
X116260000Y-96030200D01*
X116250000Y-93550000D02*
X116250000Y-91175000D01*
X116000000Y-93800200D02*
X116250000Y-93550000D01*
X116000000Y-94784800D02*
X116000000Y-93800200D01*
X116000000Y-94784800D02*
X116000000Y-94785000D01*
X116000000Y-94785000D02*
X116000000Y-94784800D01*
X116000000Y-94850100D02*
X116000000Y-94817500D01*
X116000000Y-94817500D02*
X116000000Y-94785000D01*
X116000000Y-94785000D02*
X116000000Y-94817500D01*
X116000000Y-94817500D02*
X116000000Y-94850100D01*
X115999800Y-94817700D02*
X115999800Y-94850100D01*
X116000000Y-94817500D02*
X115999800Y-94817700D01*
X116250000Y-96291900D02*
X116260000Y-96281400D01*
X116250000Y-102400000D02*
X116250000Y-96291900D01*
X122700000Y-141660100D02*
X122630600Y-141590700D01*
X122700000Y-143500200D02*
X122700000Y-141660100D01*
%TO.N,Net-(CN1-20-Pad21)*%
X117252000Y-95978000D02*
X116862000Y-95978000D01*
X117612000Y-95617700D02*
X117252000Y-95978000D01*
X116500000Y-95647300D02*
X116500000Y-94854300D01*
X116831000Y-95978000D02*
X116500000Y-95647300D01*
X116862000Y-95978000D02*
X116831000Y-95978000D01*
X116750000Y-93811200D02*
X116750000Y-91175000D01*
X116500000Y-94061300D02*
X116750000Y-93811200D01*
X116500000Y-94850100D02*
X116500000Y-94061300D01*
X116500000Y-94854300D02*
X116500000Y-94854200D01*
X116500000Y-94854300D02*
X116500000Y-94854200D01*
X116500000Y-94854200D02*
X116500000Y-94852100D01*
X116500000Y-94852100D02*
X116500000Y-94850100D01*
X116500000Y-94854200D02*
X116500000Y-94852100D01*
X116500000Y-94852100D02*
X116500000Y-94850100D01*
X116499900Y-94852000D02*
X116499900Y-94850100D01*
X116500000Y-94852100D02*
X116499900Y-94852000D01*
X116750000Y-101369000D02*
X116750000Y-101626500D01*
X116862000Y-101257000D02*
X116750000Y-101369000D01*
X116862000Y-95978000D02*
X116862000Y-101257000D01*
X116750000Y-101626500D02*
X116750000Y-101884000D01*
X120160000Y-143500200D02*
X120160000Y-141011700D01*
X116749800Y-101626700D02*
X116749800Y-102400000D01*
X116750000Y-101626500D02*
X116749800Y-101626700D01*
X116749800Y-102400000D02*
X116749800Y-103430900D01*
X118101300Y-113767800D02*
X119316400Y-114982900D01*
X118101300Y-104782400D02*
X118101300Y-113767800D01*
X116749800Y-103430900D02*
X118101300Y-104782400D01*
%TO.N,+5V*%
X121250000Y-104325000D02*
X121200000Y-104375000D01*
X121250000Y-102400000D02*
X121250000Y-104325000D01*
X121321600Y-104375000D02*
X121200000Y-104375000D01*
X121951700Y-105005100D02*
X121321600Y-104375000D01*
X104940000Y-143506300D02*
X104940000Y-141655600D01*
%TO.N,GND*%
X102956000Y-94656200D02*
X102923000Y-94656200D01*
X103250000Y-92117100D02*
X103250000Y-91175000D01*
X103108000Y-92258700D02*
X103250000Y-92117100D01*
X103108000Y-93891600D02*
X103108000Y-92258700D01*
X103096000Y-93904100D02*
X103108000Y-93891600D01*
X103096000Y-94516600D02*
X103096000Y-93904100D01*
X102956000Y-94656200D02*
X103096000Y-94516600D01*
X103250000Y-102400000D02*
X103250000Y-101306000D01*
X101085000Y-96527200D02*
X102956000Y-94656200D01*
X101085000Y-97772200D02*
X101085000Y-96527200D01*
X103250000Y-99936900D02*
X101085000Y-97772200D01*
X103250000Y-101306000D02*
X103250000Y-99936900D01*
X104940000Y-137906100D02*
X104940000Y-136250200D01*
X102400000Y-137906100D02*
X102400000Y-136250200D01*
X121499900Y-94334600D02*
X121499900Y-93819200D01*
X104940000Y-136250200D02*
X102400000Y-136250200D01*
X121499900Y-94334600D02*
X121499900Y-94850100D01*
X121750000Y-93569100D02*
X121625000Y-93694100D01*
X121750000Y-91175000D02*
X121750000Y-93569100D01*
X121625000Y-93694100D02*
X121499900Y-93819200D01*
X122749500Y-107671600D02*
X122749500Y-111471600D01*
%TD*%
M02*
