%TF.GenerationSoftware,KiCad,Pcbnew,7.0.5*%
%TF.CreationDate,2023-08-30T17:00:08-05:00*%
%TF.ProjectId,Chimera_Card_Template_2,4368696d-6572-4615-9f43-6172645f5465,rev?*%
%TF.SameCoordinates,Original*%
%TF.FileFunction,Copper,L3,Inr*%
%TF.FilePolarity,Positive*%
%FSLAX46Y46*%
G04 Gerber Fmt 4.6, Leading zero omitted, Abs format (unit mm)*
G04 Created by KiCad (PCBNEW 7.0.5) date 2023-08-30 17:00:08*
%MOMM*%
%LPD*%
G01*
G04 APERTURE LIST*
%TA.AperFunction,ComponentPad*%
%ADD10C,2.900000*%
%TD*%
%TA.AperFunction,ViaPad*%
%ADD11C,0.600000*%
%TD*%
%TA.AperFunction,Conductor*%
%ADD12C,0.254000*%
%TD*%
G04 APERTURE END LIST*
D10*
%TO.N,N/C*%
%TO.C,H1*%
X112500000Y-149900000D03*
%TD*%
D11*
%TO.N,Net-(CN1-20-Pad61)*%
X103300000Y-104100000D03*
%TO.N,GND*%
X105000000Y-135100000D03*
X122916402Y-113384891D03*
X122200000Y-95000000D03*
%TO.N,20*%
X117675800Y-101500000D03*
X119883400Y-113488100D03*
X120160000Y-131566700D03*
%TO.N,8*%
X120174600Y-93492800D03*
X118926600Y-97451700D03*
X114208300Y-134814900D03*
%TO.N,6*%
X112767600Y-136011200D03*
X120501100Y-97771600D03*
%TO.N,4*%
X116255600Y-133069900D03*
X121456600Y-99000000D03*
%TO.N,Net-(CN1-20-Pad31)*%
X114156000Y-97054400D03*
X114125000Y-92928000D03*
X110030000Y-126074900D03*
%TO.N,Net-(CN1-20-Pad29)*%
X114748000Y-96463100D03*
X106401800Y-108751500D03*
X114650500Y-107033500D03*
%TO.N,Net-(CN1-1-Pad9)*%
X119900000Y-98500000D03*
X119583300Y-100449600D03*
X119908200Y-111945000D03*
X116203000Y-142160100D03*
%TO.N,Net-(CN1-20-Pad63)*%
X105985000Y-93010900D03*
%TO.N,Net-(CN1-1-Pad7)*%
X119700000Y-99400000D03*
X114342400Y-133794500D03*
X119968900Y-96764600D03*
%TO.N,Net-(CN1-1-Pad67)*%
X105045000Y-97221400D03*
%TO.N,Net-(CN1-20-Pad61)*%
X117167800Y-109269200D03*
X108867500Y-105582400D03*
%TO.N,Net-(CN1-20-Pad59)*%
X107144000Y-97644100D03*
X120325300Y-116088100D03*
X107976100Y-103842600D03*
%TO.N,Net-(CN1-20-Pad57)*%
X107524000Y-96199400D03*
X121300000Y-112550600D03*
%TO.N,Net-(CN1-20-Pad55)*%
X108174000Y-100173000D03*
X102043000Y-106224400D03*
%TO.N,Net-(CN1-20-Pad53)*%
X108640000Y-99103600D03*
X104838400Y-106281200D03*
%TO.N,Net-(CN1-20-Pad51)*%
X109286000Y-99917100D03*
X109038000Y-92998700D03*
X107470000Y-106460000D03*
%TO.N,Net-(CN1-20-Pad49)*%
X109404000Y-96835300D03*
%TO.N,Net-(CN1-20-Pad47)*%
X109934000Y-96115600D03*
%TO.N,Net-(CN1-20-Pad45)*%
X110435000Y-97598900D03*
X107245600Y-110822400D03*
%TO.N,Net-(CN1-20-Pad43)*%
X104930000Y-111878400D03*
X110981000Y-103625400D03*
%TO.N,+3V3*%
X122800000Y-95800000D03*
X123445000Y-135449100D03*
X102182500Y-141079100D03*
%TO.N,Net-(CN1-20-Pad41)*%
X111635000Y-93248200D03*
X111556000Y-96746600D03*
X102390000Y-115741500D03*
X112100000Y-104100000D03*
%TO.N,Net-(CN1-1-Pad73)*%
X103768000Y-99155600D03*
X121430000Y-126163500D03*
X103682200Y-110242600D03*
%TO.N,Net-(CN1-1-Pad71)*%
X104045000Y-93369500D03*
%TO.N,Net-(CN1-1-Pad69)*%
X104817000Y-100573000D03*
%TO.N,Net-(CN1-20-Pad39)*%
X112085000Y-97876300D03*
X121795700Y-115439600D03*
X113814500Y-113209900D03*
%TO.N,Net-(CN1-1-Pad5)*%
X121075600Y-100300000D03*
X112784700Y-136877000D03*
%TO.N,Net-(CN1-20-Pad37)*%
X112519000Y-99831700D03*
X119828900Y-110272900D03*
%TO.N,Net-(CN1-20-Pad35)*%
X113250000Y-103607000D03*
X113487500Y-119268200D03*
X117438600Y-124549500D03*
%TO.N,Net-(CN1-20-Pad33)*%
X113453000Y-96299800D03*
%TO.N,Net-(CN1-1-Pad66)*%
X105700000Y-99000000D03*
%TO.N,Net-(CN1-20-Pad27)*%
X115250000Y-97947800D03*
X104950000Y-126675100D03*
%TO.N,Net-(CN1-20-Pad25)*%
X115631000Y-93269900D03*
X116541500Y-122227900D03*
X101555000Y-126289700D03*
%TO.N,Net-(CN1-20-Pad23)*%
X116306000Y-96281400D03*
X115050500Y-141272200D03*
X122630600Y-141590700D03*
%TO.N,Net-(CN1-20-Pad21)*%
X117612000Y-95617700D03*
X119316400Y-114982900D03*
X120160000Y-141011700D03*
%TO.N,Net-(CN1-1-Pad11)*%
X118200000Y-98000000D03*
X118768650Y-99931350D03*
%TO.N,+5V*%
X121951700Y-105005100D03*
X121553300Y-96200000D03*
X104940000Y-141655600D03*
%TO.N,GND*%
X102923000Y-94656200D03*
%TD*%
D12*
%TO.N,Net-(CN1-1-Pad11)*%
X118350700Y-98150700D02*
X118200000Y-98000000D01*
X118350700Y-99513400D02*
X118350700Y-98150700D01*
X118768650Y-99931350D02*
X118350700Y-99513400D01*
%TO.N,Net-(CN1-1-Pad7)*%
X119968900Y-97430200D02*
X119968900Y-96764600D01*
X118941300Y-98457800D02*
X119968900Y-97430200D01*
X118941300Y-98927700D02*
X118941300Y-98457800D01*
X119700000Y-99400000D02*
X119413600Y-99400000D01*
X119413600Y-99400000D02*
X118941300Y-98927700D01*
%TO.N,Net-(CN1-1-Pad9)*%
X119997300Y-98500000D02*
X120483400Y-98986100D01*
X119900000Y-98500000D02*
X119997300Y-98500000D01*
X120483400Y-98986100D02*
X120483400Y-99549500D01*
X120483400Y-99549500D02*
X119583300Y-100449600D01*
%TO.N,20*%
X117608000Y-101567800D02*
X117608000Y-105426000D01*
X117675800Y-101500000D02*
X117608000Y-101567800D01*
X121193600Y-113488100D02*
X119883400Y-113488100D01*
X121884100Y-112797600D02*
X121193600Y-113488100D01*
X121884100Y-109702100D02*
X121884100Y-112797600D01*
X117608000Y-105426000D02*
X121884100Y-109702100D01*
%TO.N,8*%
X119413000Y-94254400D02*
X120174600Y-93492800D01*
X119413000Y-96965300D02*
X119413000Y-94254400D01*
X118926600Y-97451700D02*
X119413000Y-96965300D01*
%TO.N,Net-(CN1-20-Pad29)*%
X112932500Y-108751500D02*
X106401800Y-108751500D01*
X114650500Y-107033500D02*
X112932500Y-108751500D01*
%TO.N,Net-(CN1-20-Pad61)*%
X115206400Y-107307800D02*
X117167800Y-109269200D01*
X115206400Y-106803200D02*
X115206400Y-107307800D01*
X113985600Y-105582400D02*
X115206400Y-106803200D01*
X108867500Y-105582400D02*
X113985600Y-105582400D01*
%TO.N,Net-(CN1-20-Pad59)*%
X113430900Y-116088100D02*
X120325300Y-116088100D01*
X106781300Y-109438500D02*
X113430900Y-116088100D01*
X106257700Y-109438500D02*
X106781300Y-109438500D01*
X105821100Y-109001900D02*
X106257700Y-109438500D01*
X105821100Y-105997600D02*
X105821100Y-109001900D01*
X107976100Y-103842600D02*
X105821100Y-105997600D01*
%TO.N,Net-(CN1-20-Pad57)*%
X115925500Y-104600900D02*
X107524000Y-96199400D01*
X115925500Y-107176100D02*
X115925500Y-104600900D01*
X121300000Y-112550600D02*
X115925500Y-107176100D01*
%TO.N,Net-(CN1-20-Pad53)*%
X104838400Y-102691100D02*
X104838400Y-106281200D01*
X108425900Y-99103600D02*
X104838400Y-102691100D01*
X108640000Y-99103600D02*
X108425900Y-99103600D01*
%TO.N,+3V3*%
X107812500Y-135449100D02*
X102182500Y-141079100D01*
X123445000Y-135449100D02*
X107812500Y-135449100D01*
%TO.N,Net-(CN1-1-Pad73)*%
X103682200Y-111428600D02*
X103682200Y-110242600D01*
X104740000Y-112486400D02*
X103682200Y-111428600D01*
X108195200Y-112486400D02*
X104740000Y-112486400D01*
X121430000Y-125721200D02*
X108195200Y-112486400D01*
X121430000Y-126163500D02*
X121430000Y-125721200D01*
%TO.N,Net-(CN1-20-Pad39)*%
X120770000Y-114413900D02*
X121795700Y-115439600D01*
X115018500Y-114413900D02*
X120770000Y-114413900D01*
X113814500Y-113209900D02*
X115018500Y-114413900D01*
%TO.N,Net-(CN1-20-Pad37)*%
X116901700Y-107345700D02*
X119828900Y-110272900D01*
X116901700Y-104214400D02*
X116901700Y-107345700D01*
X112519000Y-99831700D02*
X116901700Y-104214400D01*
%TO.N,Net-(CN1-20-Pad35)*%
X117438600Y-122293500D02*
X117438600Y-124549500D01*
X114413300Y-119268200D02*
X117438600Y-122293500D01*
X113487500Y-119268200D02*
X114413300Y-119268200D01*
%TO.N,Net-(CN1-20-Pad25)*%
X105616800Y-122227900D02*
X116541500Y-122227900D01*
X101555000Y-126289700D02*
X105616800Y-122227900D01*
%TO.N,Net-(CN1-20-Pad23)*%
X115369000Y-141590700D02*
X122630600Y-141590700D01*
X115050500Y-141272200D02*
X115369000Y-141590700D01*
%TD*%
%TA.AperFunction,Conductor*%
%TO.N,+5V*%
G36*
X117767539Y-90120185D02*
G01*
X117813294Y-90172989D01*
X117824500Y-90224500D01*
X117824500Y-92884135D01*
X117851444Y-93010900D01*
X117859486Y-93048731D01*
X117927928Y-93202455D01*
X118026836Y-93338589D01*
X118026837Y-93338590D01*
X118026838Y-93338591D01*
X118026840Y-93338594D01*
X118102907Y-93407084D01*
X118151886Y-93451185D01*
X118297614Y-93535321D01*
X118297616Y-93535321D01*
X118297619Y-93535323D01*
X118338941Y-93548749D01*
X118457650Y-93587320D01*
X118625000Y-93604909D01*
X118792350Y-93587320D01*
X118890091Y-93555561D01*
X118959929Y-93553567D01*
X119019762Y-93589647D01*
X119050591Y-93652348D01*
X119042627Y-93721762D01*
X119013986Y-93760258D01*
X119015176Y-93761376D01*
X118962981Y-93816956D01*
X118961628Y-93818351D01*
X118941379Y-93838600D01*
X118941375Y-93838605D01*
X118937106Y-93844109D01*
X118933315Y-93848547D01*
X118901308Y-93882630D01*
X118901305Y-93882634D01*
X118891606Y-93900277D01*
X118880928Y-93916533D01*
X118868594Y-93932434D01*
X118868589Y-93932442D01*
X118850025Y-93975343D01*
X118847454Y-93980591D01*
X118824927Y-94021567D01*
X118819920Y-94041068D01*
X118813621Y-94059464D01*
X118807514Y-94073578D01*
X118805625Y-94077944D01*
X118805624Y-94077946D01*
X118798312Y-94124116D01*
X118797127Y-94129838D01*
X118785500Y-94175123D01*
X118785500Y-94195258D01*
X118783973Y-94214657D01*
X118780825Y-94234531D01*
X118785225Y-94281077D01*
X118785500Y-94286915D01*
X118785500Y-96564997D01*
X118765815Y-96632036D01*
X118713011Y-96677791D01*
X118702455Y-96682038D01*
X118577080Y-96725909D01*
X118424337Y-96821884D01*
X118296784Y-96949437D01*
X118200813Y-97102173D01*
X118192970Y-97124587D01*
X118152246Y-97181362D01*
X118089813Y-97206849D01*
X118020750Y-97214630D01*
X117850478Y-97274210D01*
X117697737Y-97370184D01*
X117570184Y-97497737D01*
X117474211Y-97650476D01*
X117414631Y-97820745D01*
X117414630Y-97820750D01*
X117394435Y-97999996D01*
X117394435Y-98000003D01*
X117414630Y-98179249D01*
X117414631Y-98179254D01*
X117474211Y-98349523D01*
X117570184Y-98502262D01*
X117686880Y-98618958D01*
X117720365Y-98680281D01*
X117723199Y-98706639D01*
X117723199Y-99430440D01*
X117721472Y-99446087D01*
X117721753Y-99446114D01*
X117721019Y-99453874D01*
X117723169Y-99522290D01*
X117723200Y-99524237D01*
X117723200Y-99552877D01*
X117724071Y-99559780D01*
X117724529Y-99565599D01*
X117725998Y-99612342D01*
X117729455Y-99624241D01*
X117731075Y-99629816D01*
X117731616Y-99631675D01*
X117735562Y-99650729D01*
X117738083Y-99670687D01*
X117738086Y-99670699D01*
X117755295Y-99714165D01*
X117757187Y-99719693D01*
X117770230Y-99764587D01*
X117770230Y-99764588D01*
X117780477Y-99781915D01*
X117789035Y-99799385D01*
X117796445Y-99818101D01*
X117823929Y-99855929D01*
X117827137Y-99860813D01*
X117850934Y-99901052D01*
X117850940Y-99901060D01*
X117865169Y-99915288D01*
X117877809Y-99930087D01*
X117889634Y-99946364D01*
X117889636Y-99946365D01*
X117889637Y-99946367D01*
X117907525Y-99961165D01*
X117925657Y-99976165D01*
X117929968Y-99980087D01*
X117942796Y-99992915D01*
X117976281Y-100054238D01*
X117978335Y-100066711D01*
X117983280Y-100110599D01*
X118042860Y-100280871D01*
X118113784Y-100393745D01*
X118138834Y-100433612D01*
X118266388Y-100561166D01*
X118315922Y-100592290D01*
X118407005Y-100649522D01*
X118419128Y-100657139D01*
X118470921Y-100675262D01*
X118589395Y-100716718D01*
X118589399Y-100716719D01*
X118686457Y-100727654D01*
X118762877Y-100736264D01*
X118827290Y-100763330D01*
X118853987Y-100793512D01*
X118857509Y-100799118D01*
X118857511Y-100799122D01*
X118953484Y-100951862D01*
X119081038Y-101079416D01*
X119233778Y-101175389D01*
X119312157Y-101202815D01*
X119404045Y-101234968D01*
X119404050Y-101234969D01*
X119583296Y-101255165D01*
X119583300Y-101255165D01*
X119583304Y-101255165D01*
X119762549Y-101234969D01*
X119762552Y-101234968D01*
X119762555Y-101234968D01*
X119932822Y-101175389D01*
X120085562Y-101079416D01*
X120213116Y-100951862D01*
X120277899Y-100848759D01*
X120330232Y-100802469D01*
X120399285Y-100791820D01*
X120463134Y-100820195D01*
X120470573Y-100827051D01*
X120573338Y-100929816D01*
X120608424Y-100951862D01*
X120681433Y-100997737D01*
X120726078Y-101025789D01*
X120867464Y-101075262D01*
X120896345Y-101085368D01*
X120896350Y-101085369D01*
X121075596Y-101105565D01*
X121075600Y-101105565D01*
X121075604Y-101105565D01*
X121254849Y-101085369D01*
X121254852Y-101085368D01*
X121254855Y-101085368D01*
X121425122Y-101025789D01*
X121577862Y-100929816D01*
X121705416Y-100802262D01*
X121801389Y-100649522D01*
X121860968Y-100479255D01*
X121866111Y-100433612D01*
X121881165Y-100300003D01*
X121881165Y-100299996D01*
X121860969Y-100120750D01*
X121860968Y-100120745D01*
X121801388Y-99950475D01*
X121776117Y-99910258D01*
X121767481Y-99896514D01*
X121748481Y-99829280D01*
X121768848Y-99762444D01*
X121806501Y-99725550D01*
X121958862Y-99629816D01*
X122086416Y-99502262D01*
X122182389Y-99349522D01*
X122241968Y-99179255D01*
X122244633Y-99155603D01*
X122262165Y-99000003D01*
X122262165Y-98999996D01*
X122241969Y-98820750D01*
X122241968Y-98820745D01*
X122211323Y-98733168D01*
X122182389Y-98650478D01*
X122179458Y-98645814D01*
X122136606Y-98577615D01*
X122086416Y-98497738D01*
X121958862Y-98370184D01*
X121892303Y-98328362D01*
X121806123Y-98274211D01*
X121635854Y-98214631D01*
X121635849Y-98214630D01*
X121456604Y-98194435D01*
X121456596Y-98194435D01*
X121386858Y-98202292D01*
X121318036Y-98190237D01*
X121266657Y-98142888D01*
X121249033Y-98075277D01*
X121255934Y-98038117D01*
X121286466Y-97950862D01*
X121286469Y-97950849D01*
X121306665Y-97771603D01*
X121306665Y-97771596D01*
X121286469Y-97592350D01*
X121286468Y-97592345D01*
X121263524Y-97526776D01*
X121226889Y-97422078D01*
X121213427Y-97400654D01*
X121130915Y-97269337D01*
X121003362Y-97141784D01*
X120850623Y-97045811D01*
X120840208Y-97042167D01*
X120783432Y-97001445D01*
X120757685Y-96936492D01*
X120757943Y-96911242D01*
X120774465Y-96764603D01*
X120774465Y-96764596D01*
X120754269Y-96585350D01*
X120754268Y-96585345D01*
X120747971Y-96567350D01*
X120694689Y-96415078D01*
X120687141Y-96403066D01*
X120602499Y-96268359D01*
X120598716Y-96262338D01*
X120471162Y-96134784D01*
X120427186Y-96107152D01*
X120318421Y-96038810D01*
X120166056Y-95985496D01*
X120148155Y-95979232D01*
X120148154Y-95979231D01*
X120148146Y-95979229D01*
X120141359Y-95977680D01*
X120141787Y-95975801D01*
X120086190Y-95952431D01*
X120046642Y-95894831D01*
X120040500Y-95856288D01*
X120040500Y-95268176D01*
X120040500Y-95000003D01*
X121394435Y-95000003D01*
X121414630Y-95179249D01*
X121414631Y-95179254D01*
X121474211Y-95349523D01*
X121537646Y-95450478D01*
X121570184Y-95502262D01*
X121697738Y-95629816D01*
X121850478Y-95725789D01*
X121883407Y-95737311D01*
X121918095Y-95749449D01*
X121974871Y-95790171D01*
X122000361Y-95852607D01*
X122014630Y-95979250D01*
X122014631Y-95979254D01*
X122074211Y-96149522D01*
X122113899Y-96212685D01*
X122132899Y-96279921D01*
X122112531Y-96346757D01*
X122072834Y-96384907D01*
X121979727Y-96440927D01*
X121979726Y-96440929D01*
X121844790Y-96568746D01*
X121740485Y-96722587D01*
X121740484Y-96722589D01*
X121671691Y-96895244D01*
X121651531Y-97018220D01*
X121643573Y-97066768D01*
X121641622Y-97078667D01*
X121651684Y-97264257D01*
X121651684Y-97264262D01*
X121701405Y-97443343D01*
X121701409Y-97443351D01*
X121788469Y-97607563D01*
X121881577Y-97717178D01*
X121908795Y-97749221D01*
X122056761Y-97861702D01*
X122056762Y-97861702D01*
X122056763Y-97861703D01*
X122225443Y-97939743D01*
X122225451Y-97939746D01*
X122262056Y-97947803D01*
X122406967Y-97979700D01*
X122406970Y-97979700D01*
X122546227Y-97979700D01*
X122546232Y-97979700D01*
X122684675Y-97964643D01*
X122860811Y-97905296D01*
X123020071Y-97809473D01*
X123155008Y-97681654D01*
X123259313Y-97527815D01*
X123284403Y-97464845D01*
X123328108Y-97355155D01*
X123338039Y-97294578D01*
X123358178Y-97171735D01*
X123348116Y-96986142D01*
X123348115Y-96986137D01*
X123298394Y-96807056D01*
X123298390Y-96807048D01*
X123251782Y-96719137D01*
X123211331Y-96642838D01*
X123211327Y-96642833D01*
X123209266Y-96639793D01*
X123208576Y-96637642D01*
X123208182Y-96636898D01*
X123208315Y-96636827D01*
X123187938Y-96573258D01*
X123205966Y-96505755D01*
X123245927Y-96465213D01*
X123302262Y-96429816D01*
X123429816Y-96302262D01*
X123525789Y-96149522D01*
X123585368Y-95979255D01*
X123585371Y-95979229D01*
X123605565Y-95800003D01*
X123605565Y-95799996D01*
X123585369Y-95620750D01*
X123585368Y-95620745D01*
X123541729Y-95496032D01*
X123525789Y-95450478D01*
X123520190Y-95441568D01*
X123450233Y-95330232D01*
X123429816Y-95297738D01*
X123302262Y-95170184D01*
X123283607Y-95158462D01*
X123149522Y-95074210D01*
X123149518Y-95074209D01*
X123081902Y-95050549D01*
X123025126Y-95009828D01*
X122999637Y-94947390D01*
X122985369Y-94820750D01*
X122985368Y-94820745D01*
X122956838Y-94739212D01*
X122925789Y-94650478D01*
X122829816Y-94497738D01*
X122702262Y-94370184D01*
X122702261Y-94370183D01*
X122549523Y-94274211D01*
X122379254Y-94214631D01*
X122379249Y-94214630D01*
X122200004Y-94194435D01*
X122199996Y-94194435D01*
X122020750Y-94214630D01*
X122020745Y-94214631D01*
X121850476Y-94274211D01*
X121697737Y-94370184D01*
X121570184Y-94497737D01*
X121474211Y-94650476D01*
X121414631Y-94820745D01*
X121414630Y-94820750D01*
X121394435Y-94999996D01*
X121394435Y-95000003D01*
X120040500Y-95000003D01*
X120040500Y-94565676D01*
X120060184Y-94498641D01*
X120076810Y-94478008D01*
X120236167Y-94318650D01*
X120297488Y-94285167D01*
X120309945Y-94283115D01*
X120353855Y-94278168D01*
X120524122Y-94218589D01*
X120676862Y-94122616D01*
X120804416Y-93995062D01*
X120900389Y-93842322D01*
X120959968Y-93672055D01*
X120962026Y-93653789D01*
X120980165Y-93492803D01*
X120980165Y-93492796D01*
X120959969Y-93313550D01*
X120959968Y-93313545D01*
X120944696Y-93269900D01*
X120900389Y-93143278D01*
X120877750Y-93107249D01*
X120809546Y-92998703D01*
X120804416Y-92990538D01*
X120676862Y-92862984D01*
X120524123Y-92767011D01*
X120353854Y-92707431D01*
X120353849Y-92707430D01*
X120174604Y-92687235D01*
X120174596Y-92687235D01*
X119995350Y-92707430D01*
X119995345Y-92707431D01*
X119825076Y-92767011D01*
X119672337Y-92862984D01*
X119637181Y-92898141D01*
X119575858Y-92931626D01*
X119506166Y-92926642D01*
X119450233Y-92884770D01*
X119425816Y-92819306D01*
X119425500Y-92810460D01*
X119425500Y-92735456D01*
X119425499Y-92735450D01*
X119425500Y-90224500D01*
X119445185Y-90157460D01*
X119497989Y-90111706D01*
X119549500Y-90100500D01*
X122100500Y-90100500D01*
X122167539Y-90120185D01*
X122213294Y-90172989D01*
X122224500Y-90224500D01*
X122224500Y-93360118D01*
X122224500Y-93400000D01*
X122224500Y-93468993D01*
X122224500Y-93468995D01*
X122224499Y-93468995D01*
X122251418Y-93604322D01*
X122251421Y-93604332D01*
X122304221Y-93731804D01*
X122304228Y-93731817D01*
X122380885Y-93846541D01*
X122380888Y-93846545D01*
X122478454Y-93944111D01*
X122478458Y-93944114D01*
X122593182Y-94020771D01*
X122593195Y-94020778D01*
X122676465Y-94055269D01*
X122720672Y-94073580D01*
X122720676Y-94073580D01*
X122720677Y-94073581D01*
X122856004Y-94100500D01*
X122856007Y-94100500D01*
X122902410Y-94100500D01*
X123365589Y-94100500D01*
X123432628Y-94120185D01*
X123453270Y-94136819D01*
X124263181Y-94946730D01*
X124296666Y-95008053D01*
X124299500Y-95034411D01*
X124299500Y-134874211D01*
X124279815Y-134941250D01*
X124227011Y-134987005D01*
X124157853Y-134996949D01*
X124094297Y-134967924D01*
X124078556Y-134951527D01*
X124074817Y-134946839D01*
X123947262Y-134819284D01*
X123794523Y-134723311D01*
X123624254Y-134663731D01*
X123624249Y-134663730D01*
X123445004Y-134643535D01*
X123444996Y-134643535D01*
X123265750Y-134663730D01*
X123265745Y-134663731D01*
X123095476Y-134723311D01*
X122969300Y-134802594D01*
X122903328Y-134821600D01*
X115125433Y-134821600D01*
X115058394Y-134801915D01*
X115012639Y-134749111D01*
X115002213Y-134711483D01*
X114993669Y-134635649D01*
X114993666Y-134635637D01*
X114934089Y-134465378D01*
X114931069Y-134459106D01*
X114933261Y-134458049D01*
X114917346Y-134401746D01*
X114937707Y-134334909D01*
X114953654Y-134315323D01*
X114972216Y-134296762D01*
X115068189Y-134144022D01*
X115127768Y-133973755D01*
X115147965Y-133794500D01*
X115137285Y-133699715D01*
X115127769Y-133615250D01*
X115127768Y-133615245D01*
X115068188Y-133444976D01*
X114972215Y-133292237D01*
X114844662Y-133164684D01*
X114693820Y-133069903D01*
X115450035Y-133069903D01*
X115470230Y-133249149D01*
X115470231Y-133249154D01*
X115529811Y-133419423D01*
X115625784Y-133572162D01*
X115753338Y-133699716D01*
X115843680Y-133756481D01*
X115904185Y-133794500D01*
X115906078Y-133795689D01*
X116076344Y-133855267D01*
X116076345Y-133855268D01*
X116076350Y-133855269D01*
X116255596Y-133875465D01*
X116255600Y-133875465D01*
X116255604Y-133875465D01*
X116434849Y-133855269D01*
X116434852Y-133855268D01*
X116434855Y-133855268D01*
X116605122Y-133795689D01*
X116757862Y-133699716D01*
X116885416Y-133572162D01*
X116981389Y-133419422D01*
X117040968Y-133249155D01*
X117061165Y-133069900D01*
X117054318Y-133009132D01*
X117040969Y-132890650D01*
X117040968Y-132890645D01*
X116981388Y-132720376D01*
X116885415Y-132567637D01*
X116757862Y-132440084D01*
X116605123Y-132344111D01*
X116434854Y-132284531D01*
X116434849Y-132284530D01*
X116255604Y-132264335D01*
X116255596Y-132264335D01*
X116076350Y-132284530D01*
X116076345Y-132284531D01*
X115906076Y-132344111D01*
X115753337Y-132440084D01*
X115625784Y-132567637D01*
X115529811Y-132720376D01*
X115470231Y-132890645D01*
X115470230Y-132890650D01*
X115450035Y-133069896D01*
X115450035Y-133069903D01*
X114693820Y-133069903D01*
X114691923Y-133068711D01*
X114521654Y-133009131D01*
X114521649Y-133009130D01*
X114342404Y-132988935D01*
X114342396Y-132988935D01*
X114163150Y-133009130D01*
X114163145Y-133009131D01*
X113992876Y-133068711D01*
X113840137Y-133164684D01*
X113712584Y-133292237D01*
X113616611Y-133444976D01*
X113557031Y-133615245D01*
X113557030Y-133615250D01*
X113536835Y-133794496D01*
X113536835Y-133794503D01*
X113557030Y-133973749D01*
X113557033Y-133973762D01*
X113616610Y-134144021D01*
X113619631Y-134150294D01*
X113617441Y-134151348D01*
X113633351Y-134207681D01*
X113612975Y-134274513D01*
X113597043Y-134294077D01*
X113578485Y-134312636D01*
X113482511Y-134465376D01*
X113422931Y-134635645D01*
X113422930Y-134635649D01*
X113414387Y-134711483D01*
X113387321Y-134775897D01*
X113329726Y-134815452D01*
X113291167Y-134821600D01*
X107895465Y-134821600D01*
X107879814Y-134819872D01*
X107879788Y-134820154D01*
X107872025Y-134819419D01*
X107803621Y-134821569D01*
X107801674Y-134821600D01*
X107773021Y-134821600D01*
X107766107Y-134822473D01*
X107760290Y-134822930D01*
X107713558Y-134824399D01*
X107713554Y-134824400D01*
X107694222Y-134830016D01*
X107675182Y-134833959D01*
X107655212Y-134836482D01*
X107655208Y-134836483D01*
X107611737Y-134853694D01*
X107606210Y-134855586D01*
X107561312Y-134868630D01*
X107561305Y-134868633D01*
X107543980Y-134878879D01*
X107526510Y-134887437D01*
X107507798Y-134894845D01*
X107469963Y-134922333D01*
X107465080Y-134925540D01*
X107424846Y-134949334D01*
X107410606Y-134963574D01*
X107395820Y-134976202D01*
X107379533Y-134988036D01*
X107379532Y-134988036D01*
X107349727Y-135024063D01*
X107345795Y-135028385D01*
X102120932Y-140253247D01*
X102059609Y-140286732D01*
X102047137Y-140288786D01*
X102003245Y-140293732D01*
X101832978Y-140353310D01*
X101680237Y-140449284D01*
X101552684Y-140576837D01*
X101456711Y-140729576D01*
X101397131Y-140899845D01*
X101397130Y-140899850D01*
X101376935Y-141079096D01*
X101376935Y-141079103D01*
X101397130Y-141258349D01*
X101397131Y-141258354D01*
X101456711Y-141428623D01*
X101552683Y-141581362D01*
X101552684Y-141581362D01*
X101680238Y-141708916D01*
X101832978Y-141804889D01*
X102003244Y-141864468D01*
X102003245Y-141864468D01*
X102003250Y-141864469D01*
X102182496Y-141884665D01*
X102182500Y-141884665D01*
X102182504Y-141884665D01*
X102361749Y-141864469D01*
X102361752Y-141864468D01*
X102361755Y-141864468D01*
X102532022Y-141804889D01*
X102684762Y-141708916D01*
X102812316Y-141581362D01*
X102908289Y-141428622D01*
X102963022Y-141272203D01*
X114244935Y-141272203D01*
X114265130Y-141451449D01*
X114265131Y-141451454D01*
X114324711Y-141621723D01*
X114417848Y-141769949D01*
X114420684Y-141774462D01*
X114548238Y-141902016D01*
X114700978Y-141997989D01*
X114871245Y-142057568D01*
X114919213Y-142062972D01*
X114983624Y-142090037D01*
X114990205Y-142095793D01*
X114997233Y-142102393D01*
X114997235Y-142102394D01*
X114997236Y-142102395D01*
X114997237Y-142102396D01*
X115014868Y-142112088D01*
X115031137Y-142122774D01*
X115047037Y-142135107D01*
X115047037Y-142135108D01*
X115089944Y-142153675D01*
X115095193Y-142156247D01*
X115136161Y-142178770D01*
X115136164Y-142178771D01*
X115136166Y-142178772D01*
X115155659Y-142183776D01*
X115174067Y-142190079D01*
X115192541Y-142198074D01*
X115224890Y-142203197D01*
X115238723Y-142205388D01*
X115244438Y-142206571D01*
X115289728Y-142218200D01*
X115293168Y-142218200D01*
X115295764Y-142218962D01*
X115297471Y-142219178D01*
X115297436Y-142219453D01*
X115360207Y-142237885D01*
X115405962Y-142290689D01*
X115416389Y-142328320D01*
X115417631Y-142339352D01*
X115477210Y-142509621D01*
X115477211Y-142509622D01*
X115573184Y-142662362D01*
X115700738Y-142789916D01*
X115853478Y-142885889D01*
X116023744Y-142945468D01*
X116023745Y-142945468D01*
X116023750Y-142945469D01*
X116202996Y-142965665D01*
X116203000Y-142965665D01*
X116203004Y-142965665D01*
X116382249Y-142945469D01*
X116382252Y-142945468D01*
X116382255Y-142945468D01*
X116552522Y-142885889D01*
X116705262Y-142789916D01*
X116832816Y-142662362D01*
X116928789Y-142509622D01*
X116988368Y-142339355D01*
X116989611Y-142328318D01*
X117016676Y-142263905D01*
X117074270Y-142224348D01*
X117112832Y-142218200D01*
X122088928Y-142218200D01*
X122154900Y-142237206D01*
X122240017Y-142290689D01*
X122281078Y-142316489D01*
X122451345Y-142376067D01*
X122451345Y-142376068D01*
X122451350Y-142376069D01*
X122630596Y-142396265D01*
X122630600Y-142396265D01*
X122630604Y-142396265D01*
X122809849Y-142376069D01*
X122809852Y-142376068D01*
X122809855Y-142376068D01*
X122980122Y-142316489D01*
X123132862Y-142220516D01*
X123260416Y-142092962D01*
X123356389Y-141940222D01*
X123415968Y-141769955D01*
X123415969Y-141769949D01*
X123436165Y-141590703D01*
X123436165Y-141590696D01*
X123415969Y-141411450D01*
X123415968Y-141411445D01*
X123367244Y-141272200D01*
X123356389Y-141241178D01*
X123260416Y-141088438D01*
X123132862Y-140960884D01*
X123106300Y-140944194D01*
X122980123Y-140864911D01*
X122809854Y-140805331D01*
X122809849Y-140805330D01*
X122630604Y-140785135D01*
X122630596Y-140785135D01*
X122451350Y-140805330D01*
X122451345Y-140805331D01*
X122281076Y-140864911D01*
X122154900Y-140944194D01*
X122088928Y-140963200D01*
X121070914Y-140963200D01*
X121003875Y-140943515D01*
X120958120Y-140890711D01*
X120947694Y-140853083D01*
X120945369Y-140832450D01*
X120945368Y-140832445D01*
X120935880Y-140805330D01*
X120885789Y-140662178D01*
X120789816Y-140509438D01*
X120662262Y-140381884D01*
X120662261Y-140381883D01*
X120509523Y-140285911D01*
X120339254Y-140226331D01*
X120339249Y-140226330D01*
X120160004Y-140206135D01*
X120159996Y-140206135D01*
X119980750Y-140226330D01*
X119980745Y-140226331D01*
X119810476Y-140285911D01*
X119657737Y-140381884D01*
X119530184Y-140509437D01*
X119434211Y-140662176D01*
X119374631Y-140832445D01*
X119374630Y-140832450D01*
X119372306Y-140853083D01*
X119345240Y-140917497D01*
X119287645Y-140957053D01*
X119249086Y-140963200D01*
X115870283Y-140963200D01*
X115803244Y-140943515D01*
X115765289Y-140905172D01*
X115756203Y-140890711D01*
X115680316Y-140769938D01*
X115552762Y-140642384D01*
X115552762Y-140642383D01*
X115400023Y-140546411D01*
X115229754Y-140486831D01*
X115229749Y-140486830D01*
X115050504Y-140466635D01*
X115050496Y-140466635D01*
X114871250Y-140486830D01*
X114871245Y-140486831D01*
X114700976Y-140546411D01*
X114548237Y-140642384D01*
X114420684Y-140769937D01*
X114324711Y-140922676D01*
X114265131Y-141092945D01*
X114265130Y-141092950D01*
X114244935Y-141272196D01*
X114244935Y-141272203D01*
X102963022Y-141272203D01*
X102967868Y-141258355D01*
X102972813Y-141214461D01*
X102999878Y-141150051D01*
X103008342Y-141140675D01*
X108036099Y-136112919D01*
X108097423Y-136079434D01*
X108123781Y-136076600D01*
X111858590Y-136076600D01*
X111925629Y-136096285D01*
X111971384Y-136149089D01*
X111981810Y-136186715D01*
X111982230Y-136190450D01*
X111982233Y-136190462D01*
X112041809Y-136360718D01*
X112041810Y-136360720D01*
X112041811Y-136360722D01*
X112061298Y-136391735D01*
X112080298Y-136458972D01*
X112061300Y-136523676D01*
X112058909Y-136527481D01*
X111999333Y-136697737D01*
X111999330Y-136697750D01*
X111979135Y-136876996D01*
X111979135Y-136877003D01*
X111999330Y-137056249D01*
X111999331Y-137056254D01*
X112058911Y-137226523D01*
X112154883Y-137379262D01*
X112154884Y-137379262D01*
X112282438Y-137506816D01*
X112435178Y-137602789D01*
X112605444Y-137662368D01*
X112605445Y-137662368D01*
X112605450Y-137662369D01*
X112784696Y-137682565D01*
X112784700Y-137682565D01*
X112784704Y-137682565D01*
X112963949Y-137662369D01*
X112963952Y-137662368D01*
X112963955Y-137662368D01*
X113134222Y-137602789D01*
X113286962Y-137506816D01*
X113414516Y-137379262D01*
X113510489Y-137226522D01*
X113570068Y-137056255D01*
X113590265Y-136877000D01*
X113570068Y-136697745D01*
X113570067Y-136697743D01*
X113570066Y-136697737D01*
X113510490Y-136527480D01*
X113491002Y-136496465D01*
X113472001Y-136429228D01*
X113491003Y-136364518D01*
X113493389Y-136360722D01*
X113552968Y-136190455D01*
X113552969Y-136190450D01*
X113553390Y-136186715D01*
X113554334Y-136184466D01*
X113554517Y-136183668D01*
X113554656Y-136183699D01*
X113580457Y-136122301D01*
X113638053Y-136082747D01*
X113676610Y-136076600D01*
X122903328Y-136076600D01*
X122969300Y-136095606D01*
X123054417Y-136149089D01*
X123095478Y-136174889D01*
X123265745Y-136234467D01*
X123265745Y-136234468D01*
X123265750Y-136234469D01*
X123444996Y-136254665D01*
X123445000Y-136254665D01*
X123445004Y-136254665D01*
X123624249Y-136234469D01*
X123624252Y-136234468D01*
X123624255Y-136234468D01*
X123794522Y-136174889D01*
X123947262Y-136078916D01*
X124074816Y-135951362D01*
X124074822Y-135951351D01*
X124078552Y-135946676D01*
X124135740Y-135906535D01*
X124205551Y-135903685D01*
X124265822Y-135939029D01*
X124297416Y-136001348D01*
X124299500Y-136023988D01*
X124299500Y-149575500D01*
X124279815Y-149642539D01*
X124227011Y-149688294D01*
X124175500Y-149699500D01*
X114552427Y-149699500D01*
X114485388Y-149679815D01*
X114439633Y-149627011D01*
X114431261Y-149601858D01*
X114376272Y-149349083D01*
X114376271Y-149349077D01*
X114278769Y-149087663D01*
X114145056Y-148842787D01*
X114145054Y-148842784D01*
X113977861Y-148619439D01*
X113977845Y-148619421D01*
X113780578Y-148422154D01*
X113780560Y-148422138D01*
X113557215Y-148254945D01*
X113557207Y-148254940D01*
X113312342Y-148121233D01*
X113312338Y-148121231D01*
X113213230Y-148084266D01*
X113050923Y-148023729D01*
X113050919Y-148023728D01*
X113050916Y-148023727D01*
X112778299Y-147964422D01*
X112500001Y-147944518D01*
X112499999Y-147944518D01*
X112221700Y-147964422D01*
X111949083Y-148023727D01*
X111949078Y-148023728D01*
X111949077Y-148023729D01*
X111885875Y-148047301D01*
X111687661Y-148121231D01*
X111687657Y-148121233D01*
X111442792Y-148254940D01*
X111442784Y-148254945D01*
X111219439Y-148422138D01*
X111219421Y-148422154D01*
X111022154Y-148619421D01*
X111022138Y-148619439D01*
X110854945Y-148842784D01*
X110854940Y-148842792D01*
X110721233Y-149087657D01*
X110721231Y-149087661D01*
X110623727Y-149349083D01*
X110568739Y-149601858D01*
X110535254Y-149663181D01*
X110473931Y-149696666D01*
X110447573Y-149699500D01*
X100824500Y-149699500D01*
X100757461Y-149679815D01*
X100711706Y-149627011D01*
X100700500Y-149575500D01*
X100700500Y-135100003D01*
X104194435Y-135100003D01*
X104214630Y-135279249D01*
X104214631Y-135279254D01*
X104274211Y-135449523D01*
X104370183Y-135602261D01*
X104370184Y-135602262D01*
X104497738Y-135729816D01*
X104650478Y-135825789D01*
X104820745Y-135885367D01*
X104820745Y-135885368D01*
X104820750Y-135885369D01*
X104999996Y-135905565D01*
X105000000Y-135905565D01*
X105000004Y-135905565D01*
X105179249Y-135885369D01*
X105179252Y-135885368D01*
X105179255Y-135885368D01*
X105349522Y-135825789D01*
X105502262Y-135729816D01*
X105629816Y-135602262D01*
X105725789Y-135449522D01*
X105785368Y-135279255D01*
X105785369Y-135279249D01*
X105805565Y-135100003D01*
X105805565Y-135099996D01*
X105785369Y-134920750D01*
X105785368Y-134920745D01*
X105754573Y-134832738D01*
X105725789Y-134750478D01*
X105629816Y-134597738D01*
X105502262Y-134470184D01*
X105494610Y-134465376D01*
X105349523Y-134374211D01*
X105179254Y-134314631D01*
X105179249Y-134314630D01*
X105000004Y-134294435D01*
X104999996Y-134294435D01*
X104820750Y-134314630D01*
X104820745Y-134314631D01*
X104650476Y-134374211D01*
X104497737Y-134470184D01*
X104370184Y-134597737D01*
X104274211Y-134750476D01*
X104214631Y-134920745D01*
X104214630Y-134920750D01*
X104194435Y-135099996D01*
X104194435Y-135100003D01*
X100700500Y-135100003D01*
X100700500Y-131566703D01*
X119354435Y-131566703D01*
X119374630Y-131745949D01*
X119374631Y-131745954D01*
X119434211Y-131916223D01*
X119530183Y-132068961D01*
X119530184Y-132068962D01*
X119657738Y-132196516D01*
X119748080Y-132253282D01*
X119797814Y-132284532D01*
X119810478Y-132292489D01*
X119958005Y-132344111D01*
X119980745Y-132352068D01*
X119980750Y-132352069D01*
X120159996Y-132372265D01*
X120160000Y-132372265D01*
X120160004Y-132372265D01*
X120339249Y-132352069D01*
X120339252Y-132352068D01*
X120339255Y-132352068D01*
X120509522Y-132292489D01*
X120662262Y-132196516D01*
X120789816Y-132068962D01*
X120885789Y-131916222D01*
X120945368Y-131745955D01*
X120965565Y-131566700D01*
X120945368Y-131387445D01*
X120885789Y-131217178D01*
X120789816Y-131064438D01*
X120662262Y-130936884D01*
X120662261Y-130936883D01*
X120509523Y-130840911D01*
X120339254Y-130781331D01*
X120339249Y-130781330D01*
X120160004Y-130761135D01*
X120159996Y-130761135D01*
X119980750Y-130781330D01*
X119980745Y-130781331D01*
X119810476Y-130840911D01*
X119657737Y-130936884D01*
X119530184Y-131064437D01*
X119434211Y-131217176D01*
X119374631Y-131387445D01*
X119374630Y-131387450D01*
X119354435Y-131566696D01*
X119354435Y-131566703D01*
X100700500Y-131566703D01*
X100700500Y-126864588D01*
X100720185Y-126797549D01*
X100772989Y-126751794D01*
X100842147Y-126741850D01*
X100905703Y-126770875D01*
X100921448Y-126787276D01*
X100925180Y-126791957D01*
X100925184Y-126791962D01*
X101052738Y-126919516D01*
X101205478Y-127015489D01*
X101375745Y-127075068D01*
X101375750Y-127075069D01*
X101554996Y-127095265D01*
X101555000Y-127095265D01*
X101555004Y-127095265D01*
X101734249Y-127075069D01*
X101734252Y-127075068D01*
X101734255Y-127075068D01*
X101904522Y-127015489D01*
X102057262Y-126919516D01*
X102184816Y-126791962D01*
X102258243Y-126675103D01*
X104144435Y-126675103D01*
X104164630Y-126854349D01*
X104164631Y-126854354D01*
X104224211Y-127024623D01*
X104255908Y-127075068D01*
X104320184Y-127177362D01*
X104447738Y-127304916D01*
X104600478Y-127400889D01*
X104770744Y-127460468D01*
X104770745Y-127460468D01*
X104770750Y-127460469D01*
X104949996Y-127480665D01*
X104950000Y-127480665D01*
X104950004Y-127480665D01*
X105129249Y-127460469D01*
X105129252Y-127460468D01*
X105129255Y-127460468D01*
X105299522Y-127400889D01*
X105452262Y-127304916D01*
X105579816Y-127177362D01*
X105675789Y-127024622D01*
X105735368Y-126854355D01*
X105741415Y-126800688D01*
X105755565Y-126675103D01*
X105755565Y-126675096D01*
X105735369Y-126495850D01*
X105735368Y-126495845D01*
X105695513Y-126381947D01*
X105675789Y-126325578D01*
X105579816Y-126172838D01*
X105481881Y-126074903D01*
X109224435Y-126074903D01*
X109244630Y-126254149D01*
X109244631Y-126254154D01*
X109304211Y-126424423D01*
X109400184Y-126577162D01*
X109527738Y-126704716D01*
X109602662Y-126751794D01*
X109675480Y-126797549D01*
X109680478Y-126800689D01*
X109833844Y-126854354D01*
X109850745Y-126860268D01*
X109850750Y-126860269D01*
X110029996Y-126880465D01*
X110030000Y-126880465D01*
X110030004Y-126880465D01*
X110209249Y-126860269D01*
X110209252Y-126860268D01*
X110209255Y-126860268D01*
X110379522Y-126800689D01*
X110532262Y-126704716D01*
X110659816Y-126577162D01*
X110755789Y-126424422D01*
X110815368Y-126254155D01*
X110824530Y-126172838D01*
X110835565Y-126074903D01*
X110835565Y-126074896D01*
X110815369Y-125895650D01*
X110815368Y-125895645D01*
X110806232Y-125869535D01*
X110755789Y-125725378D01*
X110749149Y-125714811D01*
X110672957Y-125593552D01*
X110659816Y-125572638D01*
X110532262Y-125445084D01*
X110486758Y-125416492D01*
X110379523Y-125349111D01*
X110209254Y-125289531D01*
X110209249Y-125289530D01*
X110030004Y-125269335D01*
X110029996Y-125269335D01*
X109850750Y-125289530D01*
X109850745Y-125289531D01*
X109680476Y-125349111D01*
X109527737Y-125445084D01*
X109400184Y-125572637D01*
X109304211Y-125725376D01*
X109244631Y-125895645D01*
X109244630Y-125895650D01*
X109224435Y-126074896D01*
X109224435Y-126074903D01*
X105481881Y-126074903D01*
X105452262Y-126045284D01*
X105299523Y-125949311D01*
X105129254Y-125889731D01*
X105129249Y-125889730D01*
X104950004Y-125869535D01*
X104949996Y-125869535D01*
X104770750Y-125889730D01*
X104770745Y-125889731D01*
X104600476Y-125949311D01*
X104447737Y-126045284D01*
X104320184Y-126172837D01*
X104224211Y-126325576D01*
X104164631Y-126495845D01*
X104164630Y-126495850D01*
X104144435Y-126675096D01*
X104144435Y-126675103D01*
X102258243Y-126675103D01*
X102280789Y-126639222D01*
X102340368Y-126468955D01*
X102345313Y-126425061D01*
X102372378Y-126360651D01*
X102380842Y-126351275D01*
X105840400Y-122891719D01*
X105901724Y-122858234D01*
X105928082Y-122855400D01*
X115999828Y-122855400D01*
X116065799Y-122874405D01*
X116191978Y-122953689D01*
X116362244Y-123013268D01*
X116362245Y-123013268D01*
X116362250Y-123013269D01*
X116541496Y-123033465D01*
X116541500Y-123033465D01*
X116541502Y-123033465D01*
X116597040Y-123027207D01*
X116673217Y-123018624D01*
X116742038Y-123030678D01*
X116793417Y-123078027D01*
X116811100Y-123141844D01*
X116811100Y-124007828D01*
X116792094Y-124073800D01*
X116712811Y-124199976D01*
X116653231Y-124370245D01*
X116653230Y-124370250D01*
X116633035Y-124549496D01*
X116633035Y-124549503D01*
X116653230Y-124728749D01*
X116653231Y-124728754D01*
X116712811Y-124899023D01*
X116808783Y-125051762D01*
X116808784Y-125051762D01*
X116936338Y-125179316D01*
X117089078Y-125275289D01*
X117172607Y-125304517D01*
X117259345Y-125334868D01*
X117259350Y-125334869D01*
X117438596Y-125355065D01*
X117438600Y-125355065D01*
X117438604Y-125355065D01*
X117617849Y-125334869D01*
X117617852Y-125334868D01*
X117617855Y-125334868D01*
X117788122Y-125275289D01*
X117940862Y-125179316D01*
X118068416Y-125051762D01*
X118164389Y-124899022D01*
X118223968Y-124728755D01*
X118244165Y-124549500D01*
X118223968Y-124370245D01*
X118164389Y-124199978D01*
X118085105Y-124073799D01*
X118066100Y-124007828D01*
X118066100Y-123544081D01*
X118085785Y-123477042D01*
X118138589Y-123431287D01*
X118207747Y-123421343D01*
X118271303Y-123450368D01*
X118277781Y-123456400D01*
X120631269Y-125809888D01*
X120664754Y-125871211D01*
X120660630Y-125938522D01*
X120644631Y-125984245D01*
X120644631Y-125984246D01*
X120624435Y-126163496D01*
X120624435Y-126163503D01*
X120644630Y-126342749D01*
X120644631Y-126342754D01*
X120704211Y-126513023D01*
X120744513Y-126577162D01*
X120800184Y-126665762D01*
X120927738Y-126793316D01*
X121018080Y-126850082D01*
X121066434Y-126880465D01*
X121080478Y-126889289D01*
X121166859Y-126919515D01*
X121250745Y-126948868D01*
X121250750Y-126948869D01*
X121429996Y-126969065D01*
X121430000Y-126969065D01*
X121430004Y-126969065D01*
X121609249Y-126948869D01*
X121609252Y-126948868D01*
X121609255Y-126948868D01*
X121779522Y-126889289D01*
X121932262Y-126793316D01*
X122059816Y-126665762D01*
X122155789Y-126513022D01*
X122215368Y-126342755D01*
X122215369Y-126342749D01*
X122235565Y-126163503D01*
X122235565Y-126163496D01*
X122215369Y-125984250D01*
X122215368Y-125984245D01*
X122155788Y-125813975D01*
X122100118Y-125725378D01*
X122073609Y-125683190D01*
X122057303Y-125629746D01*
X122055922Y-125629965D01*
X122054701Y-125622261D01*
X122054701Y-125622258D01*
X122049082Y-125602918D01*
X122045139Y-125583885D01*
X122042616Y-125563907D01*
X122025403Y-125520434D01*
X122023514Y-125514914D01*
X122010467Y-125470007D01*
X122000221Y-125452683D01*
X121991664Y-125435216D01*
X121984253Y-125416497D01*
X121984250Y-125416492D01*
X121956771Y-125378672D01*
X121953562Y-125373786D01*
X121929768Y-125333551D01*
X121929766Y-125333548D01*
X121929764Y-125333545D01*
X121915530Y-125319311D01*
X121902894Y-125304517D01*
X121891062Y-125288232D01*
X121891059Y-125288229D01*
X121855035Y-125258428D01*
X121850713Y-125254494D01*
X113523500Y-116927281D01*
X113490015Y-116865958D01*
X113494999Y-116796266D01*
X113536871Y-116740333D01*
X113602335Y-116715916D01*
X113611181Y-116715600D01*
X119783628Y-116715600D01*
X119849599Y-116734605D01*
X119975778Y-116813889D01*
X120124583Y-116865958D01*
X120146045Y-116873468D01*
X120146050Y-116873469D01*
X120325296Y-116893665D01*
X120325300Y-116893665D01*
X120325304Y-116893665D01*
X120504549Y-116873469D01*
X120504552Y-116873468D01*
X120504555Y-116873468D01*
X120674822Y-116813889D01*
X120827562Y-116717916D01*
X120955116Y-116590362D01*
X121051089Y-116437622D01*
X121110668Y-116267355D01*
X121121484Y-116171358D01*
X121148550Y-116106944D01*
X121206144Y-116067389D01*
X121275981Y-116065250D01*
X121310674Y-116080246D01*
X121446178Y-116165389D01*
X121616445Y-116224968D01*
X121616450Y-116224969D01*
X121795696Y-116245165D01*
X121795700Y-116245165D01*
X121795704Y-116245165D01*
X121974949Y-116224969D01*
X121974952Y-116224968D01*
X121974955Y-116224968D01*
X122145222Y-116165389D01*
X122297962Y-116069416D01*
X122425516Y-115941862D01*
X122521489Y-115789122D01*
X122581068Y-115618855D01*
X122587446Y-115562250D01*
X122601265Y-115439603D01*
X122601265Y-115439596D01*
X122581069Y-115260350D01*
X122581068Y-115260345D01*
X122521488Y-115090076D01*
X122438692Y-114958308D01*
X122425516Y-114937338D01*
X122297962Y-114809784D01*
X122280709Y-114798943D01*
X122145221Y-114713810D01*
X121974949Y-114654230D01*
X121931061Y-114649285D01*
X121866647Y-114622217D01*
X121857265Y-114613746D01*
X121477926Y-114234407D01*
X121444441Y-114173084D01*
X121449425Y-114103392D01*
X121491297Y-114047459D01*
X121492719Y-114046410D01*
X121536128Y-114014870D01*
X121540991Y-114011674D01*
X121581256Y-113987863D01*
X121595497Y-113973620D01*
X121610278Y-113960997D01*
X121626567Y-113949163D01*
X121626569Y-113949159D01*
X121626571Y-113949159D01*
X121638445Y-113934803D01*
X121656376Y-113913128D01*
X121660289Y-113908828D01*
X121958815Y-113610302D01*
X122020136Y-113576819D01*
X122089828Y-113581803D01*
X122145761Y-113623675D01*
X122163536Y-113657031D01*
X122190612Y-113734412D01*
X122256779Y-113839715D01*
X122286586Y-113887153D01*
X122414140Y-114014707D01*
X122475646Y-114053354D01*
X122552209Y-114101462D01*
X122566880Y-114110680D01*
X122737147Y-114170259D01*
X122737152Y-114170260D01*
X122916398Y-114190456D01*
X122916402Y-114190456D01*
X122916406Y-114190456D01*
X123095651Y-114170260D01*
X123095654Y-114170259D01*
X123095657Y-114170259D01*
X123265924Y-114110680D01*
X123418664Y-114014707D01*
X123546218Y-113887153D01*
X123642191Y-113734413D01*
X123701770Y-113564146D01*
X123702302Y-113559423D01*
X123721967Y-113384894D01*
X123721967Y-113384887D01*
X123701771Y-113205641D01*
X123701770Y-113205636D01*
X123670983Y-113117652D01*
X123642191Y-113035369D01*
X123627816Y-113012492D01*
X123550572Y-112889559D01*
X123546218Y-112882629D01*
X123418664Y-112755075D01*
X123364256Y-112720888D01*
X123265925Y-112659102D01*
X123095656Y-112599522D01*
X123095651Y-112599521D01*
X122916406Y-112579326D01*
X122916398Y-112579326D01*
X122737152Y-112599521D01*
X122737147Y-112599522D01*
X122676555Y-112620725D01*
X122606776Y-112624286D01*
X122546148Y-112589557D01*
X122513921Y-112527564D01*
X122511600Y-112503683D01*
X122511600Y-109785064D01*
X122513328Y-109769414D01*
X122513046Y-109769388D01*
X122513780Y-109761625D01*
X122511630Y-109693207D01*
X122511599Y-109691257D01*
X122511600Y-109662624D01*
X122510725Y-109655706D01*
X122510269Y-109649893D01*
X122510055Y-109643084D01*
X122508801Y-109603158D01*
X122503182Y-109583818D01*
X122499239Y-109564785D01*
X122496716Y-109544807D01*
X122479503Y-109501334D01*
X122477614Y-109495814D01*
X122469707Y-109468598D01*
X122464568Y-109450909D01*
X122454319Y-109433580D01*
X122445764Y-109416116D01*
X122438353Y-109397397D01*
X122438350Y-109397392D01*
X122410871Y-109359572D01*
X122407662Y-109354686D01*
X122383868Y-109314451D01*
X122383866Y-109314448D01*
X122383864Y-109314445D01*
X122369630Y-109300211D01*
X122356994Y-109285417D01*
X122350553Y-109276552D01*
X122345163Y-109269133D01*
X122345162Y-109269132D01*
X122345159Y-109269129D01*
X122309135Y-109239328D01*
X122304813Y-109235394D01*
X118271819Y-105202400D01*
X118238334Y-105141077D01*
X118235500Y-105114719D01*
X118235500Y-102123740D01*
X118255185Y-102056701D01*
X118271819Y-102036059D01*
X118271818Y-102036058D01*
X118305616Y-102002262D01*
X118401589Y-101849522D01*
X118461168Y-101679255D01*
X118461169Y-101679249D01*
X118481365Y-101500003D01*
X118481365Y-101499996D01*
X118461169Y-101320750D01*
X118461168Y-101320745D01*
X118453485Y-101298788D01*
X118401589Y-101150478D01*
X118305616Y-100997738D01*
X118178062Y-100870184D01*
X118119180Y-100833186D01*
X118025323Y-100774211D01*
X117855054Y-100714631D01*
X117855049Y-100714630D01*
X117675804Y-100694435D01*
X117675796Y-100694435D01*
X117496550Y-100714630D01*
X117496545Y-100714631D01*
X117326276Y-100774211D01*
X117173537Y-100870184D01*
X117045984Y-100997737D01*
X116950011Y-101150476D01*
X116890431Y-101320745D01*
X116890430Y-101320750D01*
X116870235Y-101499996D01*
X116870235Y-101500003D01*
X116890430Y-101679249D01*
X116890433Y-101679262D01*
X116950009Y-101849517D01*
X116950011Y-101849522D01*
X116961494Y-101867796D01*
X116980500Y-101933767D01*
X116980499Y-103106418D01*
X116960814Y-103173458D01*
X116908010Y-103219212D01*
X116838852Y-103229156D01*
X116775296Y-103200131D01*
X116768818Y-103194099D01*
X113344852Y-99770133D01*
X113311367Y-99708810D01*
X113309314Y-99696348D01*
X113304368Y-99652445D01*
X113244789Y-99482178D01*
X113227004Y-99453874D01*
X113161436Y-99349523D01*
X113148816Y-99329438D01*
X113021262Y-99201884D01*
X112985239Y-99179249D01*
X112868523Y-99105911D01*
X112698254Y-99046331D01*
X112698249Y-99046330D01*
X112519004Y-99026135D01*
X112518996Y-99026135D01*
X112339750Y-99046330D01*
X112339745Y-99046331D01*
X112169476Y-99105911D01*
X112016737Y-99201884D01*
X111889184Y-99329437D01*
X111889182Y-99329440D01*
X111837728Y-99411327D01*
X111785393Y-99457618D01*
X111716339Y-99468265D01*
X111652491Y-99439889D01*
X111645054Y-99433035D01*
X110740488Y-98528469D01*
X110707003Y-98467146D01*
X110711987Y-98397454D01*
X110753859Y-98341521D01*
X110778560Y-98328362D01*
X110778247Y-98327712D01*
X110784516Y-98324692D01*
X110784519Y-98324689D01*
X110784522Y-98324689D01*
X110937262Y-98228716D01*
X111064816Y-98101162D01*
X111088897Y-98062836D01*
X111141231Y-98016545D01*
X111210284Y-98005896D01*
X111274133Y-98034271D01*
X111310932Y-98087853D01*
X111359209Y-98225819D01*
X111359211Y-98225822D01*
X111455184Y-98378562D01*
X111582738Y-98506116D01*
X111618313Y-98528469D01*
X111734282Y-98601338D01*
X111735478Y-98602089D01*
X111860437Y-98645814D01*
X111905745Y-98661668D01*
X111905750Y-98661669D01*
X112084996Y-98681865D01*
X112085000Y-98681865D01*
X112085004Y-98681865D01*
X112264249Y-98661669D01*
X112264252Y-98661668D01*
X112264255Y-98661668D01*
X112434522Y-98602089D01*
X112587262Y-98506116D01*
X112714816Y-98378562D01*
X112810789Y-98225822D01*
X112870368Y-98055555D01*
X112872766Y-98034271D01*
X112890565Y-97876303D01*
X112890565Y-97876296D01*
X112870369Y-97697050D01*
X112870368Y-97697045D01*
X112862824Y-97675485D01*
X112810789Y-97526778D01*
X112810301Y-97526002D01*
X112757830Y-97442494D01*
X112714816Y-97374038D01*
X112587262Y-97246484D01*
X112566835Y-97233649D01*
X112434520Y-97150509D01*
X112398534Y-97137917D01*
X112341758Y-97097195D01*
X112316012Y-97032242D01*
X112322448Y-96979924D01*
X112341368Y-96925855D01*
X112342218Y-96918311D01*
X112361565Y-96746603D01*
X112361565Y-96746596D01*
X112341369Y-96567350D01*
X112341368Y-96567345D01*
X112334922Y-96548923D01*
X112281789Y-96397078D01*
X112274141Y-96384907D01*
X112220667Y-96299803D01*
X112647435Y-96299803D01*
X112667630Y-96479049D01*
X112667631Y-96479054D01*
X112727211Y-96649323D01*
X112817700Y-96793335D01*
X112823184Y-96802062D01*
X112950738Y-96929616D01*
X113074193Y-97007188D01*
X113103478Y-97025589D01*
X113280318Y-97087468D01*
X113279574Y-97089592D01*
X113331210Y-97118468D01*
X113364073Y-97180127D01*
X113365867Y-97191374D01*
X113370630Y-97233649D01*
X113430210Y-97403921D01*
X113506919Y-97526002D01*
X113526184Y-97556662D01*
X113653738Y-97684216D01*
X113691262Y-97707794D01*
X113792808Y-97771600D01*
X113806478Y-97780189D01*
X113931434Y-97823913D01*
X113976745Y-97839768D01*
X113976750Y-97839769D01*
X114155996Y-97859965D01*
X114156000Y-97859965D01*
X114156004Y-97859965D01*
X114307826Y-97842859D01*
X114376647Y-97854914D01*
X114428027Y-97902263D01*
X114444929Y-97952195D01*
X114464630Y-98127050D01*
X114464631Y-98127054D01*
X114524211Y-98297323D01*
X114607459Y-98429811D01*
X114620184Y-98450062D01*
X114747738Y-98577616D01*
X114900478Y-98673589D01*
X115070744Y-98733167D01*
X115070745Y-98733168D01*
X115070750Y-98733169D01*
X115249996Y-98753365D01*
X115250000Y-98753365D01*
X115250004Y-98753365D01*
X115429249Y-98733169D01*
X115429252Y-98733168D01*
X115429255Y-98733168D01*
X115599522Y-98673589D01*
X115752262Y-98577616D01*
X115879816Y-98450062D01*
X115975789Y-98297322D01*
X116035368Y-98127055D01*
X116035369Y-98127049D01*
X116055565Y-97947803D01*
X116055565Y-97947796D01*
X116035369Y-97768550D01*
X116035368Y-97768545D01*
X116005860Y-97684215D01*
X115975789Y-97598278D01*
X115879816Y-97445538D01*
X115752262Y-97317984D01*
X115715012Y-97294578D01*
X115599523Y-97222011D01*
X115431121Y-97163085D01*
X115374345Y-97122363D01*
X115348598Y-97057410D01*
X115362054Y-96988849D01*
X115375134Y-96968724D01*
X115377808Y-96965369D01*
X115377816Y-96965362D01*
X115473789Y-96812622D01*
X115473788Y-96812622D01*
X115477494Y-96806726D01*
X115478879Y-96807596D01*
X115519971Y-96762071D01*
X115587396Y-96743748D01*
X115654022Y-96764787D01*
X115672564Y-96780042D01*
X115676184Y-96783662D01*
X115803738Y-96911216D01*
X115864568Y-96949438D01*
X115952438Y-97004651D01*
X115956478Y-97007189D01*
X116126744Y-97066767D01*
X116126745Y-97066768D01*
X116126750Y-97066769D01*
X116305996Y-97086965D01*
X116306000Y-97086965D01*
X116306004Y-97086965D01*
X116485249Y-97066769D01*
X116485252Y-97066768D01*
X116485255Y-97066768D01*
X116655522Y-97007189D01*
X116808262Y-96911216D01*
X116935816Y-96783662D01*
X117031789Y-96630922D01*
X117091368Y-96460655D01*
X117091369Y-96460650D01*
X117093150Y-96444844D01*
X117120216Y-96380430D01*
X117177811Y-96340875D01*
X117247647Y-96338737D01*
X117257325Y-96341686D01*
X117432737Y-96403066D01*
X117432743Y-96403067D01*
X117432745Y-96403068D01*
X117432746Y-96403068D01*
X117432750Y-96403069D01*
X117611996Y-96423265D01*
X117612000Y-96423265D01*
X117612004Y-96423265D01*
X117791249Y-96403069D01*
X117791252Y-96403068D01*
X117791255Y-96403068D01*
X117961522Y-96343489D01*
X118114262Y-96247516D01*
X118241816Y-96119962D01*
X118337789Y-95967222D01*
X118397368Y-95796955D01*
X118397369Y-95796949D01*
X118417565Y-95617703D01*
X118417565Y-95617696D01*
X118397369Y-95438450D01*
X118397368Y-95438445D01*
X118397367Y-95438445D01*
X118337789Y-95268178D01*
X118241816Y-95115438D01*
X118114262Y-94987884D01*
X118106567Y-94983049D01*
X117961523Y-94891911D01*
X117791254Y-94832331D01*
X117791249Y-94832330D01*
X117612004Y-94812135D01*
X117611996Y-94812135D01*
X117432750Y-94832330D01*
X117432745Y-94832331D01*
X117262476Y-94891911D01*
X117109737Y-94987884D01*
X116982184Y-95115437D01*
X116886211Y-95268176D01*
X116826631Y-95438445D01*
X116826631Y-95438447D01*
X116824849Y-95454261D01*
X116797779Y-95518673D01*
X116740183Y-95558226D01*
X116670346Y-95560361D01*
X116660674Y-95557413D01*
X116485262Y-95496033D01*
X116485249Y-95496030D01*
X116306004Y-95475835D01*
X116305996Y-95475835D01*
X116126750Y-95496030D01*
X116126745Y-95496031D01*
X115956476Y-95555611D01*
X115803737Y-95651584D01*
X115676184Y-95779137D01*
X115576506Y-95937774D01*
X115575125Y-95936906D01*
X115534002Y-95982444D01*
X115466573Y-96000750D01*
X115399952Y-95979695D01*
X115381435Y-95964457D01*
X115250262Y-95833284D01*
X115097523Y-95737311D01*
X114927254Y-95677731D01*
X114927249Y-95677730D01*
X114748004Y-95657535D01*
X114747996Y-95657535D01*
X114568750Y-95677730D01*
X114568745Y-95677731D01*
X114398476Y-95737311D01*
X114250020Y-95830593D01*
X114182783Y-95849593D01*
X114115948Y-95829225D01*
X114087101Y-95802911D01*
X114082817Y-95797539D01*
X113955262Y-95669984D01*
X113802523Y-95574011D01*
X113632254Y-95514431D01*
X113632249Y-95514430D01*
X113453004Y-95494235D01*
X113452996Y-95494235D01*
X113273750Y-95514430D01*
X113273745Y-95514431D01*
X113103476Y-95574011D01*
X112950737Y-95669984D01*
X112823184Y-95797537D01*
X112727211Y-95950276D01*
X112667631Y-96120545D01*
X112667630Y-96120550D01*
X112647435Y-96299796D01*
X112647435Y-96299803D01*
X112220667Y-96299803D01*
X112220665Y-96299800D01*
X112185816Y-96244338D01*
X112058262Y-96116784D01*
X112003413Y-96082320D01*
X111905523Y-96020811D01*
X111735254Y-95961231D01*
X111735249Y-95961230D01*
X111556004Y-95941035D01*
X111555996Y-95941035D01*
X111376750Y-95961230D01*
X111376745Y-95961231D01*
X111206476Y-96020811D01*
X111053739Y-96116783D01*
X110950099Y-96220423D01*
X110888776Y-96253907D01*
X110819084Y-96248923D01*
X110763151Y-96207051D01*
X110738734Y-96141586D01*
X110739198Y-96118853D01*
X110739432Y-96116784D01*
X110739565Y-96115600D01*
X110739337Y-96113578D01*
X110719369Y-95936350D01*
X110719368Y-95936345D01*
X110671657Y-95799996D01*
X110659789Y-95766078D01*
X110641713Y-95737311D01*
X110589257Y-95653827D01*
X110563816Y-95613338D01*
X110436262Y-95485784D01*
X110398036Y-95461765D01*
X110283523Y-95389811D01*
X110113254Y-95330231D01*
X110113249Y-95330230D01*
X109934004Y-95310035D01*
X109933996Y-95310035D01*
X109754750Y-95330230D01*
X109754745Y-95330231D01*
X109584476Y-95389811D01*
X109431737Y-95485784D01*
X109304184Y-95613337D01*
X109208210Y-95766078D01*
X109148630Y-95936350D01*
X109140907Y-96004896D01*
X109113840Y-96069310D01*
X109058651Y-96108050D01*
X109054482Y-96109509D01*
X109054475Y-96109512D01*
X108901737Y-96205484D01*
X108774186Y-96333035D01*
X108774183Y-96333039D01*
X108768493Y-96342095D01*
X108716157Y-96388385D01*
X108647103Y-96399031D01*
X108583255Y-96370654D01*
X108575820Y-96363801D01*
X108349852Y-96137833D01*
X108316367Y-96076510D01*
X108314314Y-96064048D01*
X108309368Y-96020145D01*
X108249789Y-95849878D01*
X108237671Y-95830593D01*
X108205339Y-95779137D01*
X108153816Y-95697138D01*
X108026262Y-95569584D01*
X107945238Y-95518673D01*
X107873523Y-95473611D01*
X107703254Y-95414031D01*
X107703249Y-95414030D01*
X107524004Y-95393835D01*
X107523996Y-95393835D01*
X107344750Y-95414030D01*
X107344745Y-95414031D01*
X107174476Y-95473611D01*
X107021737Y-95569584D01*
X106894184Y-95697137D01*
X106798211Y-95849876D01*
X106738631Y-96020145D01*
X106738630Y-96020150D01*
X106718435Y-96199396D01*
X106718435Y-96199403D01*
X106738630Y-96378649D01*
X106738631Y-96378654D01*
X106798211Y-96548923D01*
X106894184Y-96701662D01*
X106898525Y-96707105D01*
X106896022Y-96709101D01*
X106922770Y-96758086D01*
X106917786Y-96827778D01*
X106875914Y-96883711D01*
X106842560Y-96901485D01*
X106794479Y-96918309D01*
X106641737Y-97014284D01*
X106514184Y-97141837D01*
X106418211Y-97294576D01*
X106358631Y-97464845D01*
X106358630Y-97464850D01*
X106338435Y-97644096D01*
X106338435Y-97644103D01*
X106358630Y-97823349D01*
X106358631Y-97823354D01*
X106418211Y-97993623D01*
X106498325Y-98121122D01*
X106514184Y-98146362D01*
X106641738Y-98273916D01*
X106727354Y-98327712D01*
X106762880Y-98350035D01*
X106794478Y-98369889D01*
X106964745Y-98429467D01*
X106964745Y-98429468D01*
X106964750Y-98429469D01*
X107143996Y-98449665D01*
X107144000Y-98449665D01*
X107144004Y-98449665D01*
X107323249Y-98429469D01*
X107323252Y-98429468D01*
X107323255Y-98429468D01*
X107493522Y-98369889D01*
X107646262Y-98273916D01*
X107773816Y-98146362D01*
X107869789Y-97993622D01*
X107929368Y-97823355D01*
X107930932Y-97809473D01*
X107934074Y-97781592D01*
X107961140Y-97717178D01*
X108018735Y-97677623D01*
X108088572Y-97675485D01*
X108144975Y-97707794D01*
X108543501Y-98106320D01*
X108576986Y-98167643D01*
X108572002Y-98237335D01*
X108530130Y-98293268D01*
X108469711Y-98317220D01*
X108460754Y-98318229D01*
X108460745Y-98318231D01*
X108290476Y-98377811D01*
X108137737Y-98473784D01*
X108010185Y-98601336D01*
X107965951Y-98671733D01*
X107948639Y-98693440D01*
X105816445Y-100825634D01*
X105755122Y-100859119D01*
X105685430Y-100854135D01*
X105629497Y-100812263D01*
X105605080Y-100746799D01*
X105605544Y-100724069D01*
X105622565Y-100573002D01*
X105622565Y-100572996D01*
X105602369Y-100393750D01*
X105602368Y-100393745D01*
X105562872Y-100280872D01*
X105542789Y-100223478D01*
X105446816Y-100070738D01*
X105352206Y-99976128D01*
X105318721Y-99914805D01*
X105323705Y-99845113D01*
X105365577Y-99789180D01*
X105431041Y-99764763D01*
X105480842Y-99771406D01*
X105520737Y-99785366D01*
X105520743Y-99785367D01*
X105520745Y-99785368D01*
X105520746Y-99785368D01*
X105520750Y-99785369D01*
X105699996Y-99805565D01*
X105700000Y-99805565D01*
X105700004Y-99805565D01*
X105879249Y-99785369D01*
X105879252Y-99785368D01*
X105879255Y-99785368D01*
X106049522Y-99725789D01*
X106202262Y-99629816D01*
X106329816Y-99502262D01*
X106425789Y-99349522D01*
X106485368Y-99179255D01*
X106488033Y-99155603D01*
X106505565Y-99000003D01*
X106505565Y-98999996D01*
X106485369Y-98820750D01*
X106485368Y-98820745D01*
X106454723Y-98733168D01*
X106425789Y-98650478D01*
X106422858Y-98645814D01*
X106380006Y-98577615D01*
X106329816Y-98497738D01*
X106202262Y-98370184D01*
X106135703Y-98328362D01*
X106049523Y-98274211D01*
X105879254Y-98214631D01*
X105879249Y-98214630D01*
X105700004Y-98194435D01*
X105699996Y-98194435D01*
X105520750Y-98214630D01*
X105520745Y-98214631D01*
X105350476Y-98274211D01*
X105197737Y-98370184D01*
X105070184Y-98497737D01*
X104974211Y-98650476D01*
X104914631Y-98820745D01*
X104914630Y-98820750D01*
X104894435Y-98999996D01*
X104894435Y-99000003D01*
X104914630Y-99179249D01*
X104914631Y-99179254D01*
X104974211Y-99349523D01*
X105070184Y-99502262D01*
X105164793Y-99596871D01*
X105198278Y-99658194D01*
X105193294Y-99727886D01*
X105151422Y-99783819D01*
X105085958Y-99808236D01*
X105036158Y-99801594D01*
X104996257Y-99787632D01*
X104996249Y-99787630D01*
X104817004Y-99767435D01*
X104816996Y-99767435D01*
X104637750Y-99787630D01*
X104637742Y-99787632D01*
X104560161Y-99814779D01*
X104490382Y-99818340D01*
X104429755Y-99783611D01*
X104397528Y-99721617D01*
X104403934Y-99652042D01*
X104414214Y-99631764D01*
X104426418Y-99612343D01*
X104493789Y-99505122D01*
X104553368Y-99334855D01*
X104553978Y-99329440D01*
X104573565Y-99155603D01*
X104573565Y-99155596D01*
X104553369Y-98976350D01*
X104553368Y-98976345D01*
X104493788Y-98806076D01*
X104416806Y-98683561D01*
X104397816Y-98653338D01*
X104270262Y-98525784D01*
X104187505Y-98473784D01*
X104117523Y-98429811D01*
X103947254Y-98370231D01*
X103947249Y-98370230D01*
X103768004Y-98350035D01*
X103767996Y-98350035D01*
X103588750Y-98370230D01*
X103588745Y-98370231D01*
X103418476Y-98429811D01*
X103265737Y-98525784D01*
X103138184Y-98653337D01*
X103042211Y-98806076D01*
X102982631Y-98976345D01*
X102982630Y-98976350D01*
X102962435Y-99155596D01*
X102962435Y-99155603D01*
X102982630Y-99334849D01*
X102982631Y-99334854D01*
X103042211Y-99505123D01*
X103127620Y-99641049D01*
X103138184Y-99657862D01*
X103265738Y-99785416D01*
X103297805Y-99805565D01*
X103404240Y-99872443D01*
X103418478Y-99881389D01*
X103535081Y-99922190D01*
X103588745Y-99940968D01*
X103588750Y-99940969D01*
X103767996Y-99961165D01*
X103768000Y-99961165D01*
X103768004Y-99961165D01*
X103947249Y-99940969D01*
X103947252Y-99940968D01*
X103947255Y-99940968D01*
X103947256Y-99940967D01*
X103947259Y-99940967D01*
X104000919Y-99922190D01*
X104024836Y-99913820D01*
X104094615Y-99910258D01*
X104155243Y-99944987D01*
X104187470Y-100006980D01*
X104181066Y-100076555D01*
X104170786Y-100096834D01*
X104091211Y-100223476D01*
X104031631Y-100393745D01*
X104031630Y-100393750D01*
X104011435Y-100572996D01*
X104011435Y-100573003D01*
X104031630Y-100752249D01*
X104031631Y-100752254D01*
X104091211Y-100922523D01*
X104138472Y-100997738D01*
X104187184Y-101075262D01*
X104314738Y-101202816D01*
X104467478Y-101298789D01*
X104530225Y-101320745D01*
X104637745Y-101358368D01*
X104637750Y-101358369D01*
X104816996Y-101378565D01*
X104817000Y-101378565D01*
X104817003Y-101378565D01*
X104968069Y-101361544D01*
X105036891Y-101373598D01*
X105088271Y-101420948D01*
X105105895Y-101488558D01*
X105084168Y-101554964D01*
X105069634Y-101572445D01*
X104453353Y-102188726D01*
X104441069Y-102198569D01*
X104441249Y-102198787D01*
X104435238Y-102203760D01*
X104388381Y-102253656D01*
X104387028Y-102255051D01*
X104366779Y-102275300D01*
X104366775Y-102275305D01*
X104362506Y-102280809D01*
X104358715Y-102285247D01*
X104326708Y-102319330D01*
X104326705Y-102319334D01*
X104317006Y-102336977D01*
X104306328Y-102353233D01*
X104293994Y-102369134D01*
X104293989Y-102369142D01*
X104275425Y-102412043D01*
X104272854Y-102417291D01*
X104250327Y-102458267D01*
X104245320Y-102477768D01*
X104239021Y-102496164D01*
X104232293Y-102511712D01*
X104231025Y-102514644D01*
X104231024Y-102514646D01*
X104223712Y-102560816D01*
X104222527Y-102566538D01*
X104210900Y-102611823D01*
X104210900Y-102631958D01*
X104209373Y-102651357D01*
X104206225Y-102671231D01*
X104210625Y-102717777D01*
X104210900Y-102723615D01*
X104210900Y-103614666D01*
X104191215Y-103681705D01*
X104138411Y-103727460D01*
X104069253Y-103737404D01*
X104005697Y-103708379D01*
X103981907Y-103680639D01*
X103929817Y-103597739D01*
X103802262Y-103470184D01*
X103649523Y-103374211D01*
X103479254Y-103314631D01*
X103479249Y-103314630D01*
X103300004Y-103294435D01*
X103299996Y-103294435D01*
X103120750Y-103314630D01*
X103120745Y-103314631D01*
X102950476Y-103374211D01*
X102797737Y-103470184D01*
X102670184Y-103597737D01*
X102574211Y-103750476D01*
X102514631Y-103920745D01*
X102514630Y-103920750D01*
X102494435Y-104099996D01*
X102494435Y-104100003D01*
X102514630Y-104279249D01*
X102514631Y-104279254D01*
X102574211Y-104449523D01*
X102648900Y-104568389D01*
X102670184Y-104602262D01*
X102797738Y-104729816D01*
X102872568Y-104776835D01*
X102904711Y-104797032D01*
X102950478Y-104825789D01*
X103050585Y-104860818D01*
X103120745Y-104885368D01*
X103120750Y-104885369D01*
X103299996Y-104905565D01*
X103300000Y-104905565D01*
X103300004Y-104905565D01*
X103479249Y-104885369D01*
X103479252Y-104885368D01*
X103479255Y-104885368D01*
X103649522Y-104825789D01*
X103802262Y-104729816D01*
X103929816Y-104602262D01*
X103981906Y-104519360D01*
X104034241Y-104473070D01*
X104103294Y-104462422D01*
X104167143Y-104490797D01*
X104205515Y-104549187D01*
X104210900Y-104585333D01*
X104210900Y-105739528D01*
X104191894Y-105805500D01*
X104112611Y-105931676D01*
X104053031Y-106101945D01*
X104053030Y-106101950D01*
X104032835Y-106281196D01*
X104032835Y-106281203D01*
X104053030Y-106460449D01*
X104053031Y-106460454D01*
X104112611Y-106630723D01*
X104126969Y-106653573D01*
X104208584Y-106783462D01*
X104336138Y-106911016D01*
X104418155Y-106962551D01*
X104483199Y-107003421D01*
X104488878Y-107006989D01*
X104659145Y-107066567D01*
X104659145Y-107066568D01*
X104659150Y-107066569D01*
X104838396Y-107086765D01*
X104838400Y-107086765D01*
X104838404Y-107086765D01*
X105017649Y-107066569D01*
X105017650Y-107066568D01*
X105017655Y-107066568D01*
X105028640Y-107062723D01*
X105098418Y-107059160D01*
X105159047Y-107093886D01*
X105191277Y-107155878D01*
X105193599Y-107179764D01*
X105193599Y-108918940D01*
X105191872Y-108934587D01*
X105192153Y-108934614D01*
X105191419Y-108942374D01*
X105193569Y-109010790D01*
X105193600Y-109012737D01*
X105193600Y-109041377D01*
X105194471Y-109048280D01*
X105194929Y-109054099D01*
X105196398Y-109100842D01*
X105202016Y-109120175D01*
X105205962Y-109139229D01*
X105208483Y-109159187D01*
X105208486Y-109159199D01*
X105225695Y-109202665D01*
X105227587Y-109208193D01*
X105240630Y-109253087D01*
X105240630Y-109253088D01*
X105250877Y-109270415D01*
X105259435Y-109287885D01*
X105266845Y-109306601D01*
X105294329Y-109344429D01*
X105297537Y-109349313D01*
X105321336Y-109389556D01*
X105335571Y-109403791D01*
X105348204Y-109418582D01*
X105360036Y-109434866D01*
X105360036Y-109434867D01*
X105396056Y-109464664D01*
X105400368Y-109468587D01*
X105672117Y-109740337D01*
X105755324Y-109823544D01*
X105765166Y-109835827D01*
X105765384Y-109835648D01*
X105770357Y-109841659D01*
X105820240Y-109888503D01*
X105821607Y-109889827D01*
X105841904Y-109910124D01*
X105847423Y-109914405D01*
X105851842Y-109918180D01*
X105885933Y-109950193D01*
X105903584Y-109959896D01*
X105919834Y-109970571D01*
X105935738Y-109982908D01*
X105935741Y-109982910D01*
X105978642Y-110001474D01*
X105983890Y-110004044D01*
X106024866Y-110026572D01*
X106043940Y-110031469D01*
X106044360Y-110031577D01*
X106062764Y-110037877D01*
X106081242Y-110045874D01*
X106124738Y-110052762D01*
X106127424Y-110053188D01*
X106133129Y-110054369D01*
X106178428Y-110066000D01*
X106198558Y-110066000D01*
X106217957Y-110067527D01*
X106237833Y-110070675D01*
X106280479Y-110066643D01*
X106284379Y-110066275D01*
X106290217Y-110066000D01*
X106470019Y-110066000D01*
X106537058Y-110085685D01*
X106557700Y-110102319D01*
X106608295Y-110152914D01*
X106641780Y-110214237D01*
X106636796Y-110283929D01*
X106617571Y-110317895D01*
X106615789Y-110320128D01*
X106519811Y-110472876D01*
X106460231Y-110643145D01*
X106460230Y-110643150D01*
X106440035Y-110822396D01*
X106440035Y-110822403D01*
X106460230Y-111001649D01*
X106460231Y-111001654D01*
X106519811Y-111171923D01*
X106613118Y-111320419D01*
X106615784Y-111324662D01*
X106743338Y-111452216D01*
X106833680Y-111508982D01*
X106893986Y-111546875D01*
X106896078Y-111548189D01*
X107031222Y-111595478D01*
X107066345Y-111607768D01*
X107066350Y-111607769D01*
X107101060Y-111611680D01*
X107165474Y-111638746D01*
X107205029Y-111696341D01*
X107207167Y-111766178D01*
X107171209Y-111826084D01*
X107108571Y-111857040D01*
X107087177Y-111858900D01*
X105844181Y-111858900D01*
X105777142Y-111839215D01*
X105731387Y-111786411D01*
X105720961Y-111748782D01*
X105715369Y-111699153D01*
X105715368Y-111699147D01*
X105715368Y-111699145D01*
X105655789Y-111528878D01*
X105559816Y-111376138D01*
X105432262Y-111248584D01*
X105358150Y-111202016D01*
X105279523Y-111152611D01*
X105109254Y-111093031D01*
X105109249Y-111093030D01*
X104930004Y-111072835D01*
X104929996Y-111072835D01*
X104750750Y-111093030D01*
X104750745Y-111093031D01*
X104580476Y-111152611D01*
X104499672Y-111203384D01*
X104432435Y-111222384D01*
X104365600Y-111202016D01*
X104320386Y-111148748D01*
X104309700Y-111098390D01*
X104309700Y-110784271D01*
X104328707Y-110718298D01*
X104407988Y-110592124D01*
X104449715Y-110472876D01*
X104467568Y-110421855D01*
X104479030Y-110320128D01*
X104487765Y-110242603D01*
X104487765Y-110242596D01*
X104467569Y-110063350D01*
X104467568Y-110063345D01*
X104440861Y-109987022D01*
X104407989Y-109893078D01*
X104405528Y-109889162D01*
X104340119Y-109785064D01*
X104312016Y-109740338D01*
X104184462Y-109612784D01*
X104169142Y-109603158D01*
X104031723Y-109516811D01*
X103861454Y-109457231D01*
X103861449Y-109457230D01*
X103682204Y-109437035D01*
X103682196Y-109437035D01*
X103502950Y-109457230D01*
X103502945Y-109457231D01*
X103332676Y-109516811D01*
X103179937Y-109612784D01*
X103052384Y-109740337D01*
X102956411Y-109893076D01*
X102896831Y-110063345D01*
X102896830Y-110063350D01*
X102876635Y-110242596D01*
X102876635Y-110242603D01*
X102896830Y-110421849D01*
X102896831Y-110421854D01*
X102956411Y-110592123D01*
X103035693Y-110718299D01*
X103054699Y-110784271D01*
X103054700Y-111345632D01*
X103052972Y-111361281D01*
X103053254Y-111361308D01*
X103052519Y-111369075D01*
X103054669Y-111437490D01*
X103054700Y-111439437D01*
X103054700Y-111468077D01*
X103055571Y-111474980D01*
X103056029Y-111480799D01*
X103057498Y-111527542D01*
X103063116Y-111546875D01*
X103067062Y-111565929D01*
X103069583Y-111585887D01*
X103069586Y-111585899D01*
X103086795Y-111629365D01*
X103088687Y-111634893D01*
X103101730Y-111679787D01*
X103101730Y-111679788D01*
X103111977Y-111697115D01*
X103120535Y-111714585D01*
X103127945Y-111733301D01*
X103155429Y-111771129D01*
X103158637Y-111776013D01*
X103182434Y-111816252D01*
X103182440Y-111816260D01*
X103196669Y-111830488D01*
X103209309Y-111845287D01*
X103221134Y-111861564D01*
X103221136Y-111861565D01*
X103221137Y-111861567D01*
X103232847Y-111871254D01*
X103257157Y-111891365D01*
X103261468Y-111895287D01*
X103770516Y-112404335D01*
X104237624Y-112871443D01*
X104247471Y-112883733D01*
X104247689Y-112883554D01*
X104252656Y-112889559D01*
X104277321Y-112912720D01*
X104302581Y-112936441D01*
X104303922Y-112937741D01*
X104324204Y-112958023D01*
X104324205Y-112958024D01*
X104324207Y-112958026D01*
X104329697Y-112962283D01*
X104334148Y-112966084D01*
X104368235Y-112998095D01*
X104368237Y-112998096D01*
X104385868Y-113007788D01*
X104402137Y-113018474D01*
X104413253Y-113027096D01*
X104417834Y-113030650D01*
X104418037Y-113030807D01*
X104418037Y-113030808D01*
X104460944Y-113049375D01*
X104466193Y-113051947D01*
X104507161Y-113074470D01*
X104507164Y-113074471D01*
X104507166Y-113074472D01*
X104526659Y-113079476D01*
X104545067Y-113085779D01*
X104563541Y-113093774D01*
X104595890Y-113098897D01*
X104609723Y-113101088D01*
X104615438Y-113102271D01*
X104660728Y-113113900D01*
X104680858Y-113113900D01*
X104700255Y-113115426D01*
X104720133Y-113118575D01*
X104762779Y-113114543D01*
X104766679Y-113114175D01*
X104772517Y-113113900D01*
X107883919Y-113113900D01*
X107950958Y-113133585D01*
X107971600Y-113150219D01*
X113166817Y-118345436D01*
X113200302Y-118406759D01*
X113195318Y-118476451D01*
X113153446Y-118532384D01*
X113143643Y-118538339D01*
X113143874Y-118538706D01*
X112985237Y-118638384D01*
X112857684Y-118765937D01*
X112761711Y-118918676D01*
X112702131Y-119088945D01*
X112702130Y-119088950D01*
X112681935Y-119268196D01*
X112681935Y-119268203D01*
X112702130Y-119447449D01*
X112702131Y-119447454D01*
X112761711Y-119617723D01*
X112857684Y-119770461D01*
X112857684Y-119770462D01*
X112985238Y-119898016D01*
X113137978Y-119993989D01*
X113308245Y-120053567D01*
X113308245Y-120053568D01*
X113308250Y-120053569D01*
X113487496Y-120073765D01*
X113487500Y-120073765D01*
X113487504Y-120073765D01*
X113666749Y-120053569D01*
X113666752Y-120053568D01*
X113666755Y-120053568D01*
X113837022Y-119993989D01*
X113963200Y-119914705D01*
X114029172Y-119895700D01*
X114102019Y-119895700D01*
X114169058Y-119915385D01*
X114189700Y-119932019D01*
X115646400Y-121388719D01*
X115679885Y-121450042D01*
X115674901Y-121519734D01*
X115633029Y-121575667D01*
X115567565Y-121600084D01*
X115558719Y-121600400D01*
X105699767Y-121600400D01*
X105684118Y-121598672D01*
X105684092Y-121598954D01*
X105676324Y-121598219D01*
X105607909Y-121600369D01*
X105605962Y-121600400D01*
X105577322Y-121600400D01*
X105570418Y-121601271D01*
X105564600Y-121601729D01*
X105517860Y-121603198D01*
X105517854Y-121603199D01*
X105498519Y-121608816D01*
X105479480Y-121612759D01*
X105459515Y-121615282D01*
X105459501Y-121615285D01*
X105416035Y-121632494D01*
X105410509Y-121634386D01*
X105365607Y-121647432D01*
X105348284Y-121657677D01*
X105330815Y-121666235D01*
X105312100Y-121673645D01*
X105274275Y-121701126D01*
X105269392Y-121704333D01*
X105229147Y-121728133D01*
X105214906Y-121742374D01*
X105200120Y-121755002D01*
X105183833Y-121766836D01*
X105183832Y-121766836D01*
X105154027Y-121802863D01*
X105150095Y-121807185D01*
X101493432Y-125463847D01*
X101432109Y-125497332D01*
X101419637Y-125499386D01*
X101375745Y-125504332D01*
X101205478Y-125563910D01*
X101052737Y-125659884D01*
X100925182Y-125787439D01*
X100921444Y-125792127D01*
X100864254Y-125832266D01*
X100794443Y-125835113D01*
X100734174Y-125799765D01*
X100702583Y-125737445D01*
X100700500Y-125714811D01*
X100700500Y-115741503D01*
X101584435Y-115741503D01*
X101604630Y-115920749D01*
X101604631Y-115920754D01*
X101664211Y-116091023D01*
X101760183Y-116243761D01*
X101760184Y-116243762D01*
X101887738Y-116371316D01*
X102040478Y-116467289D01*
X102210744Y-116526868D01*
X102210745Y-116526868D01*
X102210750Y-116526869D01*
X102389996Y-116547065D01*
X102390000Y-116547065D01*
X102390004Y-116547065D01*
X102569249Y-116526869D01*
X102569252Y-116526868D01*
X102569255Y-116526868D01*
X102739522Y-116467289D01*
X102892262Y-116371316D01*
X103019816Y-116243762D01*
X103115789Y-116091022D01*
X103175368Y-115920755D01*
X103176710Y-115908845D01*
X103195565Y-115741503D01*
X103195565Y-115741496D01*
X103175369Y-115562250D01*
X103175368Y-115562245D01*
X103132913Y-115440915D01*
X103115789Y-115391978D01*
X103019816Y-115239238D01*
X102892262Y-115111684D01*
X102892262Y-115111683D01*
X102739523Y-115015711D01*
X102569254Y-114956131D01*
X102569249Y-114956130D01*
X102390004Y-114935935D01*
X102389996Y-114935935D01*
X102210750Y-114956130D01*
X102210745Y-114956131D01*
X102040476Y-115015711D01*
X101887737Y-115111684D01*
X101760184Y-115239237D01*
X101664211Y-115391976D01*
X101604631Y-115562245D01*
X101604630Y-115562250D01*
X101584435Y-115741496D01*
X101584435Y-115741503D01*
X100700500Y-115741503D01*
X100700500Y-106224403D01*
X101237435Y-106224403D01*
X101257630Y-106403649D01*
X101257631Y-106403654D01*
X101317211Y-106573923D01*
X101358262Y-106639255D01*
X101413184Y-106726662D01*
X101540738Y-106854216D01*
X101693478Y-106950189D01*
X101727981Y-106962262D01*
X101863745Y-107009768D01*
X101863750Y-107009769D01*
X102042996Y-107029965D01*
X102043000Y-107029965D01*
X102043004Y-107029965D01*
X102222249Y-107009769D01*
X102222252Y-107009768D01*
X102222255Y-107009768D01*
X102392522Y-106950189D01*
X102545262Y-106854216D01*
X102672816Y-106726662D01*
X102768789Y-106573922D01*
X102828368Y-106403655D01*
X102830136Y-106387965D01*
X102848565Y-106224403D01*
X102848565Y-106224396D01*
X102828369Y-106045150D01*
X102828368Y-106045145D01*
X102797783Y-105957738D01*
X102768789Y-105874878D01*
X102672816Y-105722138D01*
X102545262Y-105594584D01*
X102525865Y-105582396D01*
X102392523Y-105498611D01*
X102222254Y-105439031D01*
X102222249Y-105439030D01*
X102043004Y-105418835D01*
X102042996Y-105418835D01*
X101863750Y-105439030D01*
X101863745Y-105439031D01*
X101693476Y-105498611D01*
X101540737Y-105594584D01*
X101413184Y-105722137D01*
X101317211Y-105874876D01*
X101257631Y-106045145D01*
X101257630Y-106045150D01*
X101237435Y-106224396D01*
X101237435Y-106224403D01*
X100700500Y-106224403D01*
X100700500Y-97232180D01*
X101345400Y-97232180D01*
X101384715Y-97442497D01*
X101445065Y-97598278D01*
X101462006Y-97642007D01*
X101462008Y-97642013D01*
X101572678Y-97820750D01*
X101574642Y-97823922D01*
X101718786Y-97982041D01*
X101889530Y-98110981D01*
X102026642Y-98179254D01*
X102081058Y-98206350D01*
X102081064Y-98206353D01*
X102256965Y-98256400D01*
X102286852Y-98264904D01*
X102446525Y-98279700D01*
X102446528Y-98279700D01*
X102553272Y-98279700D01*
X102553275Y-98279700D01*
X102712948Y-98264904D01*
X102809843Y-98237335D01*
X102918735Y-98206353D01*
X102918737Y-98206351D01*
X102918740Y-98206351D01*
X103110270Y-98110981D01*
X103281014Y-97982041D01*
X103425158Y-97823922D01*
X103537793Y-97642010D01*
X103615085Y-97442497D01*
X103654400Y-97232180D01*
X103654400Y-97221403D01*
X104239435Y-97221403D01*
X104259630Y-97400649D01*
X104259631Y-97400654D01*
X104319211Y-97570923D01*
X104405213Y-97707794D01*
X104415184Y-97723662D01*
X104542738Y-97851216D01*
X104559428Y-97861703D01*
X104683632Y-97939746D01*
X104695478Y-97947189D01*
X104828176Y-97993622D01*
X104865745Y-98006768D01*
X104865750Y-98006769D01*
X105044996Y-98026965D01*
X105045000Y-98026965D01*
X105045004Y-98026965D01*
X105224249Y-98006769D01*
X105224252Y-98006768D01*
X105224255Y-98006768D01*
X105394522Y-97947189D01*
X105547262Y-97851216D01*
X105674816Y-97723662D01*
X105770789Y-97570922D01*
X105830368Y-97400655D01*
X105833367Y-97374037D01*
X105850565Y-97221403D01*
X105850565Y-97221396D01*
X105830369Y-97042150D01*
X105830368Y-97042145D01*
X105789674Y-96925849D01*
X105770789Y-96871878D01*
X105674816Y-96719138D01*
X105547262Y-96591584D01*
X105537333Y-96585345D01*
X105394523Y-96495611D01*
X105224254Y-96436031D01*
X105224249Y-96436030D01*
X105045004Y-96415835D01*
X105044996Y-96415835D01*
X104865750Y-96436030D01*
X104865745Y-96436031D01*
X104695476Y-96495611D01*
X104542737Y-96591584D01*
X104415184Y-96719137D01*
X104319211Y-96871876D01*
X104259631Y-97042145D01*
X104259630Y-97042150D01*
X104239435Y-97221396D01*
X104239435Y-97221403D01*
X103654400Y-97221403D01*
X103654400Y-97018220D01*
X103615085Y-96807903D01*
X103537793Y-96608390D01*
X103527387Y-96591584D01*
X103425163Y-96426486D01*
X103425161Y-96426483D01*
X103425158Y-96426478D01*
X103281014Y-96268359D01*
X103110270Y-96139419D01*
X103064813Y-96116784D01*
X102918741Y-96044049D01*
X102918735Y-96044046D01*
X102712950Y-95985496D01*
X102712947Y-95985495D01*
X102590720Y-95974169D01*
X102553275Y-95970700D01*
X102446525Y-95970700D01*
X102411794Y-95973918D01*
X102286852Y-95985495D01*
X102286849Y-95985496D01*
X102081064Y-96044046D01*
X102081058Y-96044049D01*
X101889529Y-96139419D01*
X101726760Y-96262337D01*
X101718786Y-96268359D01*
X101574642Y-96426478D01*
X101574640Y-96426479D01*
X101574638Y-96426483D01*
X101574636Y-96426486D01*
X101462008Y-96608386D01*
X101462006Y-96608392D01*
X101439560Y-96666332D01*
X101384715Y-96807903D01*
X101345400Y-97018220D01*
X101345400Y-97232180D01*
X100700500Y-97232180D01*
X100700500Y-95034411D01*
X100720185Y-94967372D01*
X100736819Y-94946730D01*
X101546731Y-94136819D01*
X101608054Y-94103334D01*
X101634412Y-94100500D01*
X102102400Y-94100500D01*
X102169439Y-94120185D01*
X102215194Y-94172989D01*
X102225138Y-94242147D01*
X102207393Y-94290473D01*
X102197211Y-94306675D01*
X102137631Y-94476945D01*
X102137630Y-94476950D01*
X102117435Y-94656196D01*
X102117435Y-94656203D01*
X102137630Y-94835449D01*
X102137631Y-94835454D01*
X102197211Y-95005723D01*
X102266150Y-95115438D01*
X102293184Y-95158462D01*
X102420738Y-95286016D01*
X102573478Y-95381989D01*
X102665046Y-95414030D01*
X102743745Y-95441568D01*
X102743750Y-95441569D01*
X102922996Y-95461765D01*
X102923000Y-95461765D01*
X102923004Y-95461765D01*
X103102249Y-95441569D01*
X103102252Y-95441568D01*
X103102255Y-95441568D01*
X103272522Y-95381989D01*
X103425262Y-95286016D01*
X103552816Y-95158462D01*
X103648789Y-95005722D01*
X103708368Y-94835455D01*
X103710025Y-94820750D01*
X103728565Y-94656203D01*
X103728565Y-94656196D01*
X103708369Y-94476950D01*
X103708368Y-94476945D01*
X103708367Y-94476945D01*
X103648789Y-94306678D01*
X103648787Y-94306675D01*
X103648787Y-94306674D01*
X103646787Y-94302520D01*
X103635433Y-94233579D01*
X103663155Y-94169444D01*
X103721149Y-94130477D01*
X103791004Y-94129050D01*
X103799461Y-94131675D01*
X103865737Y-94154866D01*
X103865743Y-94154867D01*
X103865745Y-94154868D01*
X103865746Y-94154868D01*
X103865750Y-94154869D01*
X104044996Y-94175065D01*
X104045000Y-94175065D01*
X104045004Y-94175065D01*
X104224249Y-94154869D01*
X104224252Y-94154868D01*
X104224255Y-94154868D01*
X104394522Y-94095289D01*
X104547262Y-93999316D01*
X104674816Y-93871762D01*
X104770789Y-93719022D01*
X104830368Y-93548755D01*
X104830369Y-93548749D01*
X104850565Y-93369503D01*
X104850565Y-93369496D01*
X104830369Y-93190250D01*
X104830368Y-93190245D01*
X104820974Y-93163398D01*
X104770789Y-93019978D01*
X104765086Y-93010903D01*
X105179435Y-93010903D01*
X105199630Y-93190149D01*
X105199631Y-93190154D01*
X105259211Y-93360423D01*
X105347518Y-93500962D01*
X105355184Y-93513162D01*
X105482738Y-93640716D01*
X105559736Y-93689097D01*
X105634731Y-93736220D01*
X105635478Y-93736689D01*
X105770882Y-93784069D01*
X105805745Y-93796268D01*
X105805750Y-93796269D01*
X105984996Y-93816465D01*
X105985000Y-93816465D01*
X105985004Y-93816465D01*
X106164249Y-93796269D01*
X106164252Y-93796268D01*
X106164255Y-93796268D01*
X106334522Y-93736689D01*
X106487262Y-93640716D01*
X106614816Y-93513162D01*
X106710789Y-93360422D01*
X106770368Y-93190155D01*
X106771743Y-93177954D01*
X106790565Y-93010903D01*
X106790565Y-93010896D01*
X106789191Y-92998703D01*
X108232435Y-92998703D01*
X108252630Y-93177949D01*
X108252631Y-93177954D01*
X108312211Y-93348223D01*
X108388098Y-93468995D01*
X108408184Y-93500962D01*
X108535738Y-93628516D01*
X108575958Y-93653788D01*
X108679791Y-93719031D01*
X108688478Y-93724489D01*
X108858745Y-93784067D01*
X108858745Y-93784068D01*
X108858750Y-93784069D01*
X109037996Y-93804265D01*
X109038000Y-93804265D01*
X109038004Y-93804265D01*
X109217249Y-93784069D01*
X109217252Y-93784068D01*
X109217255Y-93784068D01*
X109387522Y-93724489D01*
X109540262Y-93628516D01*
X109667816Y-93500962D01*
X109763789Y-93348222D01*
X109798787Y-93248203D01*
X110829435Y-93248203D01*
X110849630Y-93427449D01*
X110849631Y-93427454D01*
X110909211Y-93597723D01*
X110994058Y-93732755D01*
X111005184Y-93750462D01*
X111132738Y-93878016D01*
X111285478Y-93973989D01*
X111419173Y-94020771D01*
X111455745Y-94033568D01*
X111455750Y-94033569D01*
X111634996Y-94053765D01*
X111635000Y-94053765D01*
X111635004Y-94053765D01*
X111814249Y-94033569D01*
X111814252Y-94033568D01*
X111814255Y-94033568D01*
X111984522Y-93973989D01*
X112137262Y-93878016D01*
X112264816Y-93750462D01*
X112360789Y-93597722D01*
X112420368Y-93427455D01*
X112420369Y-93427449D01*
X112440565Y-93248203D01*
X112440565Y-93248196D01*
X112420369Y-93068950D01*
X112420368Y-93068945D01*
X112371050Y-92928003D01*
X113319435Y-92928003D01*
X113339630Y-93107249D01*
X113339631Y-93107254D01*
X113399211Y-93277523D01*
X113476169Y-93400000D01*
X113495184Y-93430262D01*
X113622738Y-93557816D01*
X113697686Y-93604909D01*
X113773184Y-93652348D01*
X113775478Y-93653789D01*
X113895073Y-93695637D01*
X113945745Y-93713368D01*
X113945750Y-93713369D01*
X114124996Y-93733565D01*
X114125000Y-93733565D01*
X114125004Y-93733565D01*
X114304249Y-93713369D01*
X114304252Y-93713368D01*
X114304255Y-93713368D01*
X114474522Y-93653789D01*
X114627262Y-93557816D01*
X114677651Y-93507426D01*
X114738972Y-93473942D01*
X114808664Y-93478926D01*
X114864597Y-93520797D01*
X114882372Y-93554152D01*
X114883654Y-93557815D01*
X114905210Y-93619421D01*
X114976423Y-93732755D01*
X115001184Y-93772162D01*
X115128738Y-93899716D01*
X115180815Y-93932438D01*
X115257449Y-93980591D01*
X115281478Y-93995689D01*
X115389730Y-94033568D01*
X115451745Y-94055268D01*
X115451750Y-94055269D01*
X115630996Y-94075465D01*
X115631000Y-94075465D01*
X115631004Y-94075465D01*
X115810249Y-94055269D01*
X115810252Y-94055268D01*
X115810255Y-94055268D01*
X115980522Y-93995689D01*
X116133262Y-93899716D01*
X116260816Y-93772162D01*
X116356789Y-93619422D01*
X116416368Y-93449155D01*
X116418814Y-93427449D01*
X116436565Y-93269903D01*
X116436565Y-93269896D01*
X116416369Y-93090650D01*
X116416368Y-93090645D01*
X116401701Y-93048728D01*
X116356789Y-92920378D01*
X116260816Y-92767638D01*
X116133262Y-92640084D01*
X116098727Y-92618384D01*
X115980523Y-92544111D01*
X115810254Y-92484531D01*
X115810249Y-92484530D01*
X115631004Y-92464335D01*
X115630996Y-92464335D01*
X115451750Y-92484530D01*
X115451745Y-92484531D01*
X115281476Y-92544111D01*
X115128737Y-92640084D01*
X115078349Y-92690472D01*
X115017026Y-92723956D01*
X114947334Y-92718971D01*
X114891401Y-92677100D01*
X114873628Y-92643745D01*
X114850790Y-92578480D01*
X114850789Y-92578478D01*
X114754816Y-92425738D01*
X114627262Y-92298184D01*
X114627262Y-92298183D01*
X114474523Y-92202211D01*
X114304254Y-92142631D01*
X114304249Y-92142630D01*
X114125004Y-92122435D01*
X114124996Y-92122435D01*
X113945750Y-92142630D01*
X113945745Y-92142631D01*
X113775476Y-92202211D01*
X113622737Y-92298184D01*
X113495184Y-92425737D01*
X113399211Y-92578476D01*
X113339631Y-92748745D01*
X113339630Y-92748750D01*
X113319435Y-92927996D01*
X113319435Y-92928003D01*
X112371050Y-92928003D01*
X112368381Y-92920376D01*
X112360789Y-92898678D01*
X112264816Y-92745938D01*
X112137262Y-92618384D01*
X112137261Y-92618383D01*
X111984523Y-92522411D01*
X111814254Y-92462831D01*
X111814249Y-92462830D01*
X111635004Y-92442635D01*
X111634996Y-92442635D01*
X111455750Y-92462830D01*
X111455745Y-92462831D01*
X111285476Y-92522411D01*
X111132737Y-92618384D01*
X111005184Y-92745937D01*
X110909211Y-92898676D01*
X110849631Y-93068945D01*
X110849630Y-93068950D01*
X110829435Y-93248196D01*
X110829435Y-93248203D01*
X109798787Y-93248203D01*
X109823368Y-93177955D01*
X109827275Y-93143278D01*
X109843565Y-92998703D01*
X109843565Y-92998696D01*
X109823369Y-92819450D01*
X109823368Y-92819445D01*
X109805240Y-92767637D01*
X109763789Y-92649178D01*
X109667816Y-92496438D01*
X109540262Y-92368884D01*
X109427744Y-92298184D01*
X109387523Y-92272911D01*
X109217254Y-92213331D01*
X109217249Y-92213330D01*
X109038004Y-92193135D01*
X109037996Y-92193135D01*
X108858750Y-92213330D01*
X108858745Y-92213331D01*
X108688476Y-92272911D01*
X108535737Y-92368884D01*
X108408184Y-92496437D01*
X108312211Y-92649176D01*
X108252631Y-92819445D01*
X108252630Y-92819450D01*
X108232435Y-92998696D01*
X108232435Y-92998703D01*
X106789191Y-92998703D01*
X106770369Y-92831650D01*
X106770368Y-92831645D01*
X106747971Y-92767637D01*
X106710789Y-92661378D01*
X106699709Y-92643745D01*
X106614815Y-92508637D01*
X106487262Y-92381084D01*
X106334523Y-92285111D01*
X106164254Y-92225531D01*
X106164249Y-92225530D01*
X105985004Y-92205335D01*
X105984996Y-92205335D01*
X105805750Y-92225530D01*
X105805745Y-92225531D01*
X105635476Y-92285111D01*
X105482737Y-92381084D01*
X105355184Y-92508637D01*
X105259211Y-92661376D01*
X105199631Y-92831645D01*
X105199630Y-92831650D01*
X105179435Y-93010896D01*
X105179435Y-93010903D01*
X104765086Y-93010903D01*
X104765082Y-93010896D01*
X104694570Y-92898676D01*
X104674816Y-92867238D01*
X104547262Y-92739684D01*
X104522231Y-92723956D01*
X104394523Y-92643711D01*
X104224254Y-92584131D01*
X104224249Y-92584130D01*
X104045004Y-92563935D01*
X104044996Y-92563935D01*
X103865750Y-92584130D01*
X103865745Y-92584131D01*
X103695476Y-92643711D01*
X103542737Y-92739684D01*
X103415184Y-92867237D01*
X103319211Y-93019976D01*
X103259631Y-93190245D01*
X103259630Y-93190250D01*
X103239435Y-93369496D01*
X103239435Y-93369503D01*
X103259630Y-93548749D01*
X103259631Y-93548754D01*
X103319214Y-93719031D01*
X103321214Y-93723184D01*
X103332565Y-93792125D01*
X103304841Y-93856259D01*
X103246845Y-93895224D01*
X103176990Y-93896647D01*
X103168539Y-93894025D01*
X103102257Y-93870832D01*
X103102249Y-93870830D01*
X102923004Y-93850635D01*
X102922995Y-93850635D01*
X102841910Y-93859770D01*
X102773088Y-93847715D01*
X102721710Y-93800365D01*
X102704086Y-93732755D01*
X102713466Y-93689100D01*
X102748580Y-93604328D01*
X102762306Y-93535323D01*
X102775500Y-93468995D01*
X102775500Y-90224500D01*
X102795185Y-90157461D01*
X102847989Y-90111706D01*
X102899500Y-90100500D01*
X112477410Y-90100500D01*
X117700500Y-90100500D01*
X117767539Y-90120185D01*
G37*
%TD.AperFunction*%
%TD*%
%TA.AperFunction,NonConductor*%
G36*
X110300240Y-99863059D02*
G01*
X113070519Y-102633338D01*
X113104004Y-102694661D01*
X113099020Y-102764353D01*
X113057148Y-102820286D01*
X113023793Y-102838060D01*
X112900480Y-102881209D01*
X112747737Y-102977184D01*
X112620184Y-103104737D01*
X112524212Y-103257475D01*
X112524210Y-103257479D01*
X112520626Y-103267722D01*
X112479903Y-103324497D01*
X112414950Y-103350242D01*
X112362632Y-103343806D01*
X112279257Y-103314632D01*
X112279249Y-103314630D01*
X112100004Y-103294435D01*
X112099996Y-103294435D01*
X111920750Y-103314630D01*
X111920739Y-103314633D01*
X111858208Y-103336513D01*
X111788429Y-103340074D01*
X111727802Y-103305344D01*
X111711150Y-103281361D01*
X111710494Y-103281774D01*
X111610815Y-103123137D01*
X111483262Y-102995584D01*
X111330523Y-102899611D01*
X111160254Y-102840031D01*
X111160249Y-102840030D01*
X110981004Y-102819835D01*
X110980996Y-102819835D01*
X110801750Y-102840030D01*
X110801745Y-102840031D01*
X110631476Y-102899611D01*
X110478737Y-102995584D01*
X110351184Y-103123137D01*
X110255211Y-103275876D01*
X110195631Y-103446145D01*
X110195630Y-103446150D01*
X110175435Y-103625396D01*
X110175435Y-103625403D01*
X110195630Y-103804649D01*
X110195631Y-103804654D01*
X110255211Y-103974923D01*
X110351184Y-104127661D01*
X110351184Y-104127662D01*
X110478738Y-104255216D01*
X110516996Y-104279255D01*
X110621408Y-104344862D01*
X110631478Y-104351189D01*
X110739210Y-104388886D01*
X110801745Y-104410768D01*
X110801750Y-104410769D01*
X110980996Y-104430965D01*
X110981000Y-104430965D01*
X110981004Y-104430965D01*
X111160249Y-104410769D01*
X111160250Y-104410768D01*
X111160255Y-104410768D01*
X111222790Y-104388885D01*
X111292566Y-104385323D01*
X111353194Y-104420051D01*
X111369849Y-104444038D01*
X111370506Y-104443626D01*
X111448900Y-104568389D01*
X111470184Y-104602262D01*
X111597738Y-104729816D01*
X111597740Y-104729817D01*
X111602927Y-104733954D01*
X111643067Y-104791143D01*
X111645916Y-104860955D01*
X111610569Y-104921224D01*
X111548250Y-104952816D01*
X111525613Y-104954900D01*
X109409172Y-104954900D01*
X109343200Y-104935894D01*
X109217023Y-104856611D01*
X109046754Y-104797031D01*
X109046749Y-104797030D01*
X108867504Y-104776835D01*
X108867496Y-104776835D01*
X108688250Y-104797030D01*
X108688245Y-104797031D01*
X108517976Y-104856611D01*
X108365237Y-104952584D01*
X108237684Y-105080137D01*
X108141711Y-105232876D01*
X108082131Y-105403145D01*
X108082130Y-105403150D01*
X108061935Y-105582396D01*
X108061935Y-105582405D01*
X108069982Y-105653832D01*
X108057927Y-105722654D01*
X108010577Y-105774032D01*
X107942967Y-105791656D01*
X107880790Y-105772708D01*
X107819523Y-105734211D01*
X107649254Y-105674631D01*
X107649249Y-105674630D01*
X107470004Y-105654435D01*
X107469996Y-105654435D01*
X107350707Y-105667875D01*
X107281885Y-105655820D01*
X107230506Y-105608471D01*
X107212882Y-105540861D01*
X107234609Y-105474455D01*
X107249138Y-105456979D01*
X108037667Y-104668450D01*
X108098988Y-104634967D01*
X108111445Y-104632915D01*
X108155355Y-104627968D01*
X108325622Y-104568389D01*
X108478362Y-104472416D01*
X108605916Y-104344862D01*
X108701889Y-104192122D01*
X108761468Y-104021855D01*
X108766756Y-103974922D01*
X108781665Y-103842603D01*
X108781665Y-103842596D01*
X108761469Y-103663350D01*
X108761468Y-103663345D01*
X108761468Y-103663344D01*
X108701889Y-103493078D01*
X108605916Y-103340338D01*
X108478362Y-103212784D01*
X108448625Y-103194099D01*
X108325623Y-103116811D01*
X108155354Y-103057231D01*
X108155349Y-103057230D01*
X107976104Y-103037035D01*
X107976096Y-103037035D01*
X107796850Y-103057230D01*
X107796845Y-103057231D01*
X107626576Y-103116811D01*
X107473837Y-103212784D01*
X107346284Y-103340337D01*
X107250310Y-103493078D01*
X107190732Y-103663345D01*
X107185786Y-103707237D01*
X107158718Y-103771651D01*
X107150247Y-103781032D01*
X105677580Y-105253699D01*
X105616257Y-105287184D01*
X105546565Y-105282200D01*
X105490632Y-105240328D01*
X105466215Y-105174864D01*
X105465899Y-105166042D01*
X105465899Y-103002379D01*
X105485584Y-102935341D01*
X105502213Y-102914704D01*
X107566420Y-100850497D01*
X107627741Y-100817014D01*
X107697433Y-100821998D01*
X107720071Y-100833186D01*
X107778953Y-100870184D01*
X107824478Y-100898789D01*
X107913148Y-100929816D01*
X107994745Y-100958368D01*
X107994750Y-100958369D01*
X108173996Y-100978565D01*
X108174000Y-100978565D01*
X108174004Y-100978565D01*
X108353249Y-100958369D01*
X108353252Y-100958368D01*
X108353255Y-100958368D01*
X108523522Y-100898789D01*
X108676262Y-100802816D01*
X108803816Y-100675262D01*
X108803819Y-100675256D01*
X108807090Y-100671986D01*
X108868413Y-100638501D01*
X108935727Y-100642626D01*
X108936477Y-100642888D01*
X108936478Y-100642889D01*
X108955434Y-100649522D01*
X109106737Y-100702466D01*
X109106743Y-100702467D01*
X109106745Y-100702468D01*
X109106746Y-100702468D01*
X109106750Y-100702469D01*
X109285996Y-100722665D01*
X109286000Y-100722665D01*
X109286004Y-100722665D01*
X109465249Y-100702469D01*
X109465252Y-100702468D01*
X109465255Y-100702468D01*
X109635522Y-100642889D01*
X109788262Y-100546916D01*
X109915816Y-100419362D01*
X110011789Y-100266622D01*
X110071368Y-100096355D01*
X110074255Y-100070738D01*
X110089339Y-99936857D01*
X110116405Y-99872443D01*
X110174000Y-99832888D01*
X110243837Y-99830750D01*
X110300240Y-99863059D01*
G37*
%TD.AperFunction*%
%TA.AperFunction,NonConductor*%
G36*
X114193174Y-103764139D02*
G01*
X114223661Y-103786480D01*
X115261680Y-104824499D01*
X115295165Y-104885822D01*
X115297999Y-104912180D01*
X115297999Y-105708017D01*
X115278314Y-105775056D01*
X115225510Y-105820811D01*
X115156352Y-105830755D01*
X115092796Y-105801730D01*
X115086318Y-105795698D01*
X114487976Y-105197357D01*
X114478131Y-105185068D01*
X114477913Y-105185249D01*
X114472940Y-105179237D01*
X114423043Y-105132381D01*
X114421643Y-105131024D01*
X114401397Y-105110777D01*
X114395896Y-105106511D01*
X114391448Y-105102712D01*
X114357368Y-105070708D01*
X114357363Y-105070704D01*
X114339722Y-105061006D01*
X114323457Y-105050322D01*
X114307563Y-105037993D01*
X114307562Y-105037992D01*
X114292404Y-105031432D01*
X114264654Y-105019423D01*
X114259407Y-105016853D01*
X114218437Y-104994329D01*
X114218428Y-104994326D01*
X114198934Y-104989320D01*
X114180533Y-104983020D01*
X114162059Y-104975026D01*
X114162052Y-104975024D01*
X114115887Y-104967713D01*
X114110163Y-104966528D01*
X114064879Y-104954900D01*
X114064872Y-104954900D01*
X114044742Y-104954900D01*
X114025343Y-104953373D01*
X114005468Y-104950225D01*
X114005467Y-104950225D01*
X113958921Y-104954625D01*
X113953083Y-104954900D01*
X112674387Y-104954900D01*
X112607348Y-104935215D01*
X112561593Y-104882411D01*
X112551649Y-104813253D01*
X112580674Y-104749697D01*
X112597073Y-104733954D01*
X112602254Y-104729820D01*
X112602262Y-104729816D01*
X112729816Y-104602262D01*
X112825789Y-104449522D01*
X112829372Y-104439280D01*
X112870092Y-104382506D01*
X112935044Y-104356757D01*
X112987369Y-104363194D01*
X113070737Y-104392366D01*
X113070743Y-104392367D01*
X113070745Y-104392368D01*
X113070746Y-104392368D01*
X113070750Y-104392369D01*
X113249996Y-104412565D01*
X113250000Y-104412565D01*
X113250004Y-104412565D01*
X113429249Y-104392369D01*
X113429252Y-104392368D01*
X113429255Y-104392368D01*
X113599522Y-104332789D01*
X113752262Y-104236816D01*
X113879816Y-104109262D01*
X113975789Y-103956522D01*
X114018939Y-103833204D01*
X114059659Y-103776431D01*
X114124612Y-103750683D01*
X114193174Y-103764139D01*
G37*
%TD.AperFunction*%
%TA.AperFunction,NonConductor*%
G36*
X113741358Y-106229585D02*
G01*
X113762000Y-106246219D01*
X113960922Y-106445141D01*
X113994407Y-106506464D01*
X113989423Y-106576156D01*
X113978235Y-106598794D01*
X113924710Y-106683977D01*
X113865132Y-106854245D01*
X113860186Y-106898137D01*
X113833118Y-106962551D01*
X113824647Y-106971932D01*
X112708900Y-108087681D01*
X112647577Y-108121166D01*
X112621219Y-108124000D01*
X106943472Y-108124000D01*
X106877500Y-108104994D01*
X106751323Y-108025711D01*
X106581054Y-107966131D01*
X106581050Y-107966130D01*
X106558715Y-107963614D01*
X106494301Y-107936546D01*
X106454747Y-107878951D01*
X106448600Y-107840394D01*
X106448600Y-106694527D01*
X106468285Y-106627488D01*
X106521089Y-106581733D01*
X106590247Y-106571789D01*
X106653803Y-106600814D01*
X106689642Y-106653573D01*
X106744210Y-106809521D01*
X106832597Y-106950188D01*
X106840184Y-106962262D01*
X106967738Y-107089816D01*
X107120478Y-107185789D01*
X107290745Y-107245367D01*
X107290745Y-107245368D01*
X107290750Y-107245369D01*
X107469996Y-107265565D01*
X107470000Y-107265565D01*
X107470004Y-107265565D01*
X107649249Y-107245369D01*
X107649252Y-107245368D01*
X107649255Y-107245368D01*
X107819522Y-107185789D01*
X107972262Y-107089816D01*
X108099816Y-106962262D01*
X108195789Y-106809522D01*
X108255368Y-106639255D01*
X108255369Y-106639249D01*
X108275565Y-106460003D01*
X108275565Y-106459997D01*
X108267517Y-106388569D01*
X108279571Y-106319747D01*
X108326921Y-106268367D01*
X108394531Y-106250743D01*
X108456709Y-106269692D01*
X108517973Y-106308187D01*
X108517977Y-106308188D01*
X108517978Y-106308189D01*
X108551009Y-106319747D01*
X108688245Y-106367768D01*
X108688250Y-106367769D01*
X108867496Y-106387965D01*
X108867500Y-106387965D01*
X108867504Y-106387965D01*
X109046749Y-106367769D01*
X109046752Y-106367768D01*
X109046755Y-106367768D01*
X109217022Y-106308189D01*
X109343200Y-106228905D01*
X109409172Y-106209900D01*
X113674319Y-106209900D01*
X113741358Y-106229585D01*
G37*
%TD.AperFunction*%
%TA.AperFunction,NonConductor*%
G36*
X117734403Y-106440268D02*
G01*
X117740881Y-106446300D01*
X121220282Y-109925701D01*
X121253766Y-109987022D01*
X121256600Y-110013380D01*
X121256600Y-111320419D01*
X121236915Y-111387458D01*
X121184111Y-111433213D01*
X121114953Y-111443157D01*
X121051397Y-111414132D01*
X121044919Y-111408100D01*
X120510605Y-110873786D01*
X120477120Y-110812463D01*
X120482104Y-110742771D01*
X120493290Y-110720137D01*
X120554689Y-110622422D01*
X120614268Y-110452155D01*
X120629144Y-110320128D01*
X120634465Y-110272903D01*
X120634465Y-110272896D01*
X120614269Y-110093650D01*
X120614268Y-110093645D01*
X120582916Y-110004046D01*
X120554689Y-109923378D01*
X120546358Y-109910120D01*
X120499677Y-109835827D01*
X120458716Y-109770638D01*
X120331162Y-109643084D01*
X120267620Y-109603158D01*
X120178421Y-109547110D01*
X120008149Y-109487530D01*
X119964261Y-109482585D01*
X119899847Y-109455517D01*
X119890465Y-109447046D01*
X117565519Y-107122100D01*
X117532034Y-107060777D01*
X117529200Y-107034419D01*
X117529200Y-106533981D01*
X117548885Y-106466942D01*
X117601689Y-106421187D01*
X117670847Y-106411243D01*
X117734403Y-106440268D01*
G37*
%TD.AperFunction*%
%TA.AperFunction,NonConductor*%
G36*
X107883465Y-111436781D02*
G01*
X107915085Y-111459704D01*
X108102600Y-111647219D01*
X108136085Y-111708542D01*
X108131101Y-111778234D01*
X108089229Y-111834167D01*
X108023765Y-111858584D01*
X108014919Y-111858900D01*
X107404023Y-111858900D01*
X107336984Y-111839215D01*
X107291229Y-111786411D01*
X107281285Y-111717253D01*
X107310310Y-111653697D01*
X107369088Y-111615923D01*
X107390140Y-111611680D01*
X107424849Y-111607769D01*
X107424852Y-111607768D01*
X107424855Y-111607768D01*
X107595122Y-111548189D01*
X107747862Y-111452216D01*
X107747865Y-111452212D01*
X107750084Y-111450444D01*
X107751793Y-111449745D01*
X107753759Y-111448511D01*
X107753975Y-111448855D01*
X107814768Y-111424030D01*
X107883465Y-111436781D01*
G37*
%TD.AperFunction*%
%TA.AperFunction,NonConductor*%
G36*
X114834633Y-107839298D02*
G01*
X114878980Y-107867799D01*
X116341946Y-109330765D01*
X116375431Y-109392088D01*
X116377485Y-109404561D01*
X116382430Y-109448449D01*
X116442010Y-109618721D01*
X116487588Y-109691257D01*
X116537984Y-109771462D01*
X116665538Y-109899016D01*
X116746986Y-109950193D01*
X116805598Y-109987022D01*
X116818278Y-109994989D01*
X116963696Y-110045873D01*
X116988545Y-110054568D01*
X116988550Y-110054569D01*
X117167796Y-110074765D01*
X117167800Y-110074765D01*
X117167804Y-110074765D01*
X117347049Y-110054569D01*
X117347052Y-110054568D01*
X117347055Y-110054568D01*
X117517322Y-109994989D01*
X117614624Y-109933850D01*
X117642178Y-109916537D01*
X117709415Y-109897537D01*
X117776250Y-109917905D01*
X117795831Y-109933850D01*
X119218622Y-111356641D01*
X119252107Y-111417964D01*
X119247123Y-111487656D01*
X119235935Y-111510294D01*
X119182411Y-111595476D01*
X119122831Y-111765745D01*
X119122830Y-111765750D01*
X119102635Y-111944996D01*
X119102635Y-111945003D01*
X119122830Y-112124249D01*
X119122831Y-112124254D01*
X119182411Y-112294523D01*
X119264101Y-112424531D01*
X119278384Y-112447262D01*
X119405938Y-112574816D01*
X119452009Y-112603764D01*
X119498300Y-112656099D01*
X119508948Y-112725152D01*
X119480573Y-112789001D01*
X119452010Y-112813751D01*
X119381140Y-112858282D01*
X119381137Y-112858284D01*
X119253584Y-112985837D01*
X119157611Y-113138576D01*
X119098031Y-113308845D01*
X119098030Y-113308850D01*
X119077835Y-113488096D01*
X119077835Y-113488103D01*
X119095909Y-113648517D01*
X119083854Y-113717338D01*
X119036505Y-113768718D01*
X118972689Y-113786400D01*
X115329781Y-113786400D01*
X115262742Y-113766715D01*
X115242100Y-113750081D01*
X114640352Y-113148333D01*
X114606867Y-113087010D01*
X114604814Y-113074548D01*
X114599868Y-113030645D01*
X114540289Y-112860378D01*
X114444316Y-112707638D01*
X114316762Y-112580084D01*
X114287421Y-112561648D01*
X114164023Y-112484111D01*
X113993754Y-112424531D01*
X113993749Y-112424530D01*
X113814504Y-112404335D01*
X113814496Y-112404335D01*
X113635250Y-112424530D01*
X113635245Y-112424531D01*
X113464976Y-112484111D01*
X113312237Y-112580084D01*
X113184684Y-112707637D01*
X113088711Y-112860376D01*
X113029131Y-113030645D01*
X113029130Y-113030650D01*
X113008935Y-113209896D01*
X113008935Y-113209903D01*
X113029130Y-113389149D01*
X113029131Y-113389154D01*
X113088711Y-113559423D01*
X113120682Y-113610304D01*
X113184684Y-113712162D01*
X113312238Y-113839716D01*
X113402580Y-113896482D01*
X113422211Y-113908817D01*
X113464978Y-113935689D01*
X113635245Y-113995268D01*
X113679135Y-114000213D01*
X113743548Y-114027278D01*
X113752933Y-114035752D01*
X114516124Y-114798943D01*
X114525971Y-114811233D01*
X114526189Y-114811054D01*
X114531156Y-114817059D01*
X114555821Y-114840220D01*
X114581081Y-114863941D01*
X114582422Y-114865241D01*
X114602704Y-114885523D01*
X114602705Y-114885524D01*
X114602707Y-114885526D01*
X114608197Y-114889783D01*
X114612648Y-114893584D01*
X114646735Y-114925595D01*
X114646737Y-114925596D01*
X114664368Y-114935288D01*
X114680637Y-114945974D01*
X114696537Y-114958307D01*
X114696537Y-114958308D01*
X114739444Y-114976875D01*
X114744693Y-114979447D01*
X114785661Y-115001970D01*
X114785664Y-115001971D01*
X114785666Y-115001972D01*
X114805159Y-115006976D01*
X114823567Y-115013279D01*
X114842041Y-115021274D01*
X114874390Y-115026397D01*
X114888223Y-115028588D01*
X114893938Y-115029771D01*
X114939228Y-115041400D01*
X114959358Y-115041400D01*
X114978755Y-115042926D01*
X114998633Y-115046075D01*
X115041279Y-115042043D01*
X115045179Y-115041675D01*
X115051017Y-115041400D01*
X118406613Y-115041400D01*
X118473652Y-115061085D01*
X118519407Y-115113889D01*
X118529834Y-115151519D01*
X118531031Y-115162153D01*
X118577742Y-115295646D01*
X118581303Y-115365425D01*
X118546574Y-115426052D01*
X118484580Y-115458279D01*
X118460700Y-115460600D01*
X113742181Y-115460600D01*
X113675142Y-115440915D01*
X113654500Y-115424281D01*
X107820900Y-109590681D01*
X107787415Y-109529358D01*
X107792399Y-109459666D01*
X107834271Y-109403733D01*
X107899735Y-109379316D01*
X107908581Y-109379000D01*
X112849533Y-109379000D01*
X112865181Y-109380727D01*
X112865208Y-109380446D01*
X112872975Y-109381180D01*
X112872976Y-109381179D01*
X112872977Y-109381180D01*
X112879604Y-109380971D01*
X112941392Y-109379031D01*
X112943339Y-109379000D01*
X112971973Y-109379000D01*
X112971976Y-109379000D01*
X112978878Y-109378127D01*
X112984690Y-109377669D01*
X113031443Y-109376201D01*
X113050772Y-109370584D01*
X113069828Y-109366637D01*
X113089793Y-109364116D01*
X113133270Y-109346901D01*
X113138776Y-109345016D01*
X113183691Y-109331968D01*
X113201015Y-109321721D01*
X113218483Y-109313163D01*
X113237203Y-109305753D01*
X113275042Y-109278259D01*
X113279891Y-109275074D01*
X113320156Y-109251263D01*
X113334397Y-109237020D01*
X113349178Y-109224397D01*
X113365467Y-109212563D01*
X113365469Y-109212559D01*
X113365471Y-109212559D01*
X113377345Y-109198203D01*
X113395276Y-109176528D01*
X113399189Y-109172228D01*
X114703620Y-107867797D01*
X114764941Y-107834314D01*
X114834633Y-107839298D01*
G37*
%TD.AperFunction*%
M02*
