%TF.GenerationSoftware,KiCad,Pcbnew,7.0.5*%
%TF.CreationDate,2023-08-30T17:00:08-05:00*%
%TF.ProjectId,Chimera_Card_Template_2,4368696d-6572-4615-9f43-6172645f5465,rev?*%
%TF.SameCoordinates,Original*%
%TF.FileFunction,Paste,Top*%
%TF.FilePolarity,Positive*%
%FSLAX46Y46*%
G04 Gerber Fmt 4.6, Leading zero omitted, Abs format (unit mm)*
G04 Created by KiCad (PCBNEW 7.0.5) date 2023-08-30 17:00:08*
%MOMM*%
%LPD*%
G01*
G04 APERTURE LIST*
G04 Aperture macros list*
%AMRoundRect*
0 Rectangle with rounded corners*
0 $1 Rounding radius*
0 $2 $3 $4 $5 $6 $7 $8 $9 X,Y pos of 4 corners*
0 Add a 4 corners polygon primitive as box body*
4,1,4,$2,$3,$4,$5,$6,$7,$8,$9,$2,$3,0*
0 Add four circle primitives for the rounded corners*
1,1,$1+$1,$2,$3*
1,1,$1+$1,$4,$5*
1,1,$1+$1,$6,$7*
1,1,$1+$1,$8,$9*
0 Add four rect primitives between the rounded corners*
20,1,$1+$1,$2,$3,$4,$5,0*
20,1,$1+$1,$4,$5,$6,$7,0*
20,1,$1+$1,$6,$7,$8,$9,0*
20,1,$1+$1,$8,$9,$2,$3,0*%
G04 Aperture macros list end*
%ADD10R,1.270003X2.800000*%
%ADD11R,0.300000X1.550013*%
%ADD12R,0.300000X1.524003*%
%ADD13R,1.300000X2.800000*%
%ADD14RoundRect,0.200000X-0.275000X0.200000X-0.275000X-0.200000X0.275000X-0.200000X0.275000X0.200000X0*%
%ADD15R,0.800000X0.800000*%
G04 APERTURE END LIST*
D10*
%TO.C,X5*%
X107470003Y-108299798D03*
X107470003Y-113900002D03*
X104929997Y-108299798D03*
X104929997Y-113900002D03*
X102389992Y-108299798D03*
X102389992Y-113900002D03*
X110010008Y-113900002D03*
X110010008Y-108305894D03*
%TD*%
%TO.C,X4*%
X122700008Y-122705894D03*
X122700008Y-128300002D03*
X115079992Y-128300002D03*
X115079992Y-122699798D03*
X117619997Y-128300002D03*
X117619997Y-122699798D03*
X120160003Y-128300002D03*
X120160003Y-122699798D03*
%TD*%
%TO.C,X3*%
X107490003Y-122905998D03*
X107490003Y-128506202D03*
X104949997Y-122905998D03*
X104949997Y-128506202D03*
X102409992Y-122905998D03*
X102409992Y-128506202D03*
X110030008Y-128506202D03*
X110030008Y-122912094D03*
%TD*%
%TO.C,X2*%
X122700008Y-137906094D03*
X122700008Y-143500202D03*
X115079992Y-143500202D03*
X115079992Y-137899998D03*
X117619997Y-143500202D03*
X117619997Y-137899998D03*
X120160003Y-143500202D03*
X120160003Y-137899998D03*
%TD*%
%TO.C,X1*%
X107480003Y-137906098D03*
X107480003Y-143506302D03*
X104939997Y-137906098D03*
X104939997Y-143506302D03*
X102399992Y-137906098D03*
X102399992Y-143506302D03*
X110020008Y-143506302D03*
X110020008Y-137912194D03*
%TD*%
D11*
%TO.C,CN1*%
X121749836Y-102400029D03*
X121499900Y-94850117D03*
X121249964Y-102400029D03*
X120999773Y-94850117D03*
X120749836Y-102400029D03*
X120499900Y-94850117D03*
X120249964Y-102400029D03*
X119999773Y-94850117D03*
X119749836Y-102400029D03*
X119499900Y-94850117D03*
X119249964Y-102400029D03*
X116999773Y-94850117D03*
X116749836Y-102400029D03*
X116499900Y-94850117D03*
X116249964Y-102400029D03*
X115999773Y-94850117D03*
X115749836Y-102400029D03*
X115499900Y-94850117D03*
X115249964Y-102400029D03*
X114999773Y-94850117D03*
X114749836Y-102400029D03*
X114499900Y-94850117D03*
X114249964Y-102400029D03*
X113999773Y-94850117D03*
X113749836Y-102400029D03*
X113499900Y-94850117D03*
X113249964Y-102400029D03*
X112999773Y-94850117D03*
X112749836Y-102400029D03*
X112499900Y-94850117D03*
X112249964Y-102400029D03*
X111999773Y-94850117D03*
X111749836Y-102400029D03*
X111499900Y-94850371D03*
X111249964Y-102400029D03*
X110999773Y-94850371D03*
X110749836Y-102400029D03*
X110499900Y-94850371D03*
X110249964Y-102400029D03*
X109999773Y-94850371D03*
X109749836Y-102400029D03*
X109499900Y-94850371D03*
X109249964Y-102400029D03*
X108999773Y-94850371D03*
X108749836Y-102400029D03*
X108499900Y-94850371D03*
X108249964Y-102400029D03*
X107999773Y-94850371D03*
X107749836Y-102400029D03*
X107499900Y-94850371D03*
D12*
X107249964Y-102400283D03*
X106999773Y-94850371D03*
X106749836Y-102400283D03*
X106499900Y-94850371D03*
X106249964Y-102400283D03*
X105999773Y-94850371D03*
X105749836Y-102400283D03*
X105499900Y-94850371D03*
D11*
X105249964Y-102400029D03*
X104999773Y-94850371D03*
X104749836Y-102400029D03*
X104499900Y-94850371D03*
X104249964Y-102400029D03*
X103999773Y-94850371D03*
X103749836Y-102400029D03*
X103499900Y-94850371D03*
X103249964Y-102400029D03*
D13*
X102149887Y-101675111D03*
X122849913Y-101675111D03*
%TD*%
D14*
%TO.C,R1*%
X122850000Y-104350000D03*
X122850000Y-106000000D03*
%TD*%
%TO.C,R2*%
X121200000Y-104375000D03*
X121200000Y-106025000D03*
%TD*%
D15*
%TO.C,LED1*%
X122749467Y-107671571D03*
X121150533Y-107678429D03*
%TD*%
%TO.C,LED2*%
X122749467Y-111471571D03*
X121150533Y-111478429D03*
%TD*%
M02*
