M48
; DRILL file {KiCad 7.0.5} date Wed Aug 30 17:00:09 2023
; FORMAT={-:-/ absolute / inch / decimal}
; #@! TF.CreationDate,2023-08-30T17:00:09-05:00
; #@! TF.GenerationSoftware,Kicad,Pcbnew,7.0.5
; #@! TF.FileFunction,Plated,1,4,PTH
FMAT,2
INCH
; #@! TA.AperFunction,Plated,PTH,ViaDrill
T1C0.0118
; #@! TA.AperFunction,Plated,PTH,ComponentDrill
T2C0.0984
%
G90
G05
T1
X3.9982Y-4.972
X4.0174Y-4.1821
X4.0229Y-5.5543
X4.0311Y-4.5568
X4.0521Y-3.7266
X4.0669Y-4.0984
X4.082Y-4.3403
X4.0854Y-3.9038
X4.0963Y-3.676
X4.1267Y-3.9596
X4.1275Y-4.1843
X4.1311Y-4.4047
X4.1315Y-5.577
X4.1319Y-4.9872
X4.1339Y-5.3189
X4.1356Y-3.8276
X4.1614Y-3.8976
X4.1726Y-3.6618
X4.189Y-4.2816
X4.2183Y-3.8443
X4.2223Y-4.3631
X4.2311Y-4.1913
X4.2332Y-3.7874
X4.251Y-4.0883
X4.2588Y-3.9438
X4.2772Y-3.9017
X4.2861Y-4.1568
X4.2928Y-3.6614
X4.3026Y-3.9337
X4.3072Y-3.8124
X4.3281Y-3.7841
X4.3319Y-4.9636
X4.3478Y-3.8425
X4.3693Y-4.0797
X4.392Y-3.8089
X4.3951Y-3.6712
X4.4128Y-3.8534
X4.4134Y-4.0984
X4.4299Y-3.9304
X4.4397Y-5.3548
X4.4403Y-5.3889
X4.4587Y-4.079
X4.4667Y-3.7913
X4.468Y-4.6956
X4.4809Y-4.4571
X4.4931Y-3.6586
X4.4943Y-3.821
X4.4964Y-5.3077
X4.5017Y-5.2675
X4.5138Y-4.2139
X4.5176Y-3.7978
X4.5295Y-5.5619
X4.5374Y-3.8562
X4.5524Y-3.672
X4.5749Y-5.5969
X4.577Y-5.239
X4.579Y-3.7906
X4.5882Y-4.8121
X4.6129Y-4.3019
X4.6236Y-4.9035
X4.6304Y-3.7645
X4.6329Y-3.9961
X4.6535Y-3.8583
X4.6759Y-3.9343
X4.6821Y-3.8367
X4.6975Y-4.5269
X4.708Y-3.9547
X4.7126Y-3.9134
X4.7177Y-4.3415
X4.7198Y-4.468
X4.7205Y-3.878
X4.7208Y-4.4073
X4.7232Y-3.8096
X4.7307Y-5.1798
X4.7307Y-5.5516
X4.7313Y-3.6808
X4.7372Y-4.5704
X4.7441Y-3.8493
X4.7668Y-3.9488
X4.7756Y-4.4311
X4.7807Y-4.9671
X4.7818Y-3.8976
X4.7856Y-3.7874
X4.7951Y-4.5449
X4.8012Y-4.1341
X4.811Y-3.7402
X4.828Y-5.5744
X4.8346Y-3.7717
X4.8392Y-4.464
X4.86Y-5.3326
T2
X4.4291Y-5.9016
T0
M30
