%TF.GenerationSoftware,KiCad,Pcbnew,7.0.5*%
%TF.CreationDate,2023-08-30T17:00:08-05:00*%
%TF.ProjectId,Chimera_Card_Template_2,4368696d-6572-4615-9f43-6172645f5465,rev?*%
%TF.SameCoordinates,Original*%
%TF.FileFunction,Copper,L2,Inr*%
%TF.FilePolarity,Positive*%
%FSLAX46Y46*%
G04 Gerber Fmt 4.6, Leading zero omitted, Abs format (unit mm)*
G04 Created by KiCad (PCBNEW 7.0.5) date 2023-08-30 17:00:08*
%MOMM*%
%LPD*%
G01*
G04 APERTURE LIST*
%TA.AperFunction,ComponentPad*%
%ADD10C,2.900000*%
%TD*%
%TA.AperFunction,ViaPad*%
%ADD11C,0.600000*%
%TD*%
%TA.AperFunction,Conductor*%
%ADD12C,0.254000*%
%TD*%
G04 APERTURE END LIST*
D10*
%TO.N,N/C*%
%TO.C,H1*%
X112500000Y-149900000D03*
%TD*%
D11*
%TO.N,Net-(CN1-20-Pad61)*%
X103300000Y-104100000D03*
%TO.N,GND*%
X105000000Y-135100000D03*
X122916402Y-113384891D03*
X122200000Y-95000000D03*
%TO.N,20*%
X117675800Y-101500000D03*
X119883400Y-113488100D03*
X120160000Y-131566700D03*
%TO.N,8*%
X120174600Y-93492800D03*
X118926600Y-97451700D03*
X114208300Y-134814900D03*
%TO.N,6*%
X112767600Y-136011200D03*
X120501100Y-97771600D03*
%TO.N,4*%
X116255600Y-133069900D03*
X121456600Y-99000000D03*
%TO.N,Net-(CN1-20-Pad31)*%
X114156000Y-97054400D03*
X114125000Y-92928000D03*
X110030000Y-126074900D03*
%TO.N,Net-(CN1-20-Pad29)*%
X114748000Y-96463100D03*
X106401800Y-108751500D03*
X114650500Y-107033500D03*
%TO.N,Net-(CN1-1-Pad9)*%
X119900000Y-98500000D03*
X119583300Y-100449600D03*
X119908200Y-111945000D03*
X116203000Y-142160100D03*
%TO.N,Net-(CN1-20-Pad63)*%
X105985000Y-93010900D03*
%TO.N,Net-(CN1-1-Pad7)*%
X119700000Y-99400000D03*
X114342400Y-133794500D03*
X119968900Y-96764600D03*
%TO.N,Net-(CN1-1-Pad67)*%
X105045000Y-97221400D03*
%TO.N,Net-(CN1-20-Pad61)*%
X117167800Y-109269200D03*
X108867500Y-105582400D03*
%TO.N,Net-(CN1-20-Pad59)*%
X107144000Y-97644100D03*
X120325300Y-116088100D03*
X107976100Y-103842600D03*
%TO.N,Net-(CN1-20-Pad57)*%
X107524000Y-96199400D03*
X121300000Y-112550600D03*
%TO.N,Net-(CN1-20-Pad55)*%
X108174000Y-100173000D03*
X102043000Y-106224400D03*
%TO.N,Net-(CN1-20-Pad53)*%
X108640000Y-99103600D03*
X104838400Y-106281200D03*
%TO.N,Net-(CN1-20-Pad51)*%
X109286000Y-99917100D03*
X109038000Y-92998700D03*
X107470000Y-106460000D03*
%TO.N,Net-(CN1-20-Pad49)*%
X109404000Y-96835300D03*
%TO.N,Net-(CN1-20-Pad47)*%
X109934000Y-96115600D03*
%TO.N,Net-(CN1-20-Pad45)*%
X110435000Y-97598900D03*
X107245600Y-110822400D03*
%TO.N,Net-(CN1-20-Pad43)*%
X104930000Y-111878400D03*
X110981000Y-103625400D03*
%TO.N,+3V3*%
X122800000Y-95800000D03*
X123445000Y-135449100D03*
X102182500Y-141079100D03*
%TO.N,Net-(CN1-20-Pad41)*%
X111635000Y-93248200D03*
X111556000Y-96746600D03*
X102390000Y-115741500D03*
X112100000Y-104100000D03*
%TO.N,Net-(CN1-1-Pad73)*%
X103768000Y-99155600D03*
X121430000Y-126163500D03*
X103682200Y-110242600D03*
%TO.N,Net-(CN1-1-Pad71)*%
X104045000Y-93369500D03*
%TO.N,Net-(CN1-1-Pad69)*%
X104817000Y-100573000D03*
%TO.N,Net-(CN1-20-Pad39)*%
X112085000Y-97876300D03*
X121795700Y-115439600D03*
X113814500Y-113209900D03*
%TO.N,Net-(CN1-1-Pad5)*%
X121075600Y-100300000D03*
X112784700Y-136877000D03*
%TO.N,Net-(CN1-20-Pad37)*%
X112519000Y-99831700D03*
X119828900Y-110272900D03*
%TO.N,Net-(CN1-20-Pad35)*%
X113250000Y-103607000D03*
X113487500Y-119268200D03*
X117438600Y-124549500D03*
%TO.N,Net-(CN1-20-Pad33)*%
X113453000Y-96299800D03*
%TO.N,Net-(CN1-1-Pad66)*%
X105700000Y-99000000D03*
%TO.N,Net-(CN1-20-Pad27)*%
X115250000Y-97947800D03*
X104950000Y-126675100D03*
%TO.N,Net-(CN1-20-Pad25)*%
X115631000Y-93269900D03*
X116541500Y-122227900D03*
X101555000Y-126289700D03*
%TO.N,Net-(CN1-20-Pad23)*%
X116306000Y-96281400D03*
X115050500Y-141272200D03*
X122630600Y-141590700D03*
%TO.N,Net-(CN1-20-Pad21)*%
X117612000Y-95617700D03*
X119316400Y-114982900D03*
X120160000Y-141011700D03*
%TO.N,Net-(CN1-1-Pad11)*%
X118200000Y-98000000D03*
X118768650Y-99931350D03*
%TO.N,+5V*%
X121951700Y-105005100D03*
X121553300Y-96200000D03*
X104940000Y-141655600D03*
%TO.N,GND*%
X102923000Y-94656200D03*
%TD*%
D12*
%TO.N,Net-(CN1-20-Pad61)*%
X107385100Y-104100000D02*
X108867500Y-105582400D01*
X103300000Y-104100000D02*
X107385100Y-104100000D01*
%TD*%
%TA.AperFunction,Conductor*%
%TO.N,GND*%
G36*
X117767539Y-90120185D02*
G01*
X117813294Y-90172989D01*
X117824500Y-90224500D01*
X117824500Y-92884135D01*
X117851444Y-93010900D01*
X117859486Y-93048731D01*
X117927928Y-93202455D01*
X118026836Y-93338589D01*
X118026837Y-93338590D01*
X118026838Y-93338591D01*
X118026840Y-93338594D01*
X118102907Y-93407084D01*
X118151886Y-93451185D01*
X118297614Y-93535321D01*
X118297616Y-93535321D01*
X118297619Y-93535323D01*
X118338941Y-93548749D01*
X118457650Y-93587320D01*
X118625000Y-93604909D01*
X118792350Y-93587320D01*
X118952386Y-93535321D01*
X119098114Y-93451185D01*
X119162072Y-93393596D01*
X119225064Y-93363366D01*
X119294400Y-93371991D01*
X119348065Y-93416733D01*
X119369023Y-93483385D01*
X119368911Y-93485836D01*
X119369035Y-93485836D01*
X119369035Y-93492803D01*
X119389230Y-93672049D01*
X119389231Y-93672054D01*
X119448811Y-93842323D01*
X119451464Y-93846545D01*
X119544784Y-93995062D01*
X119672338Y-94122616D01*
X119825078Y-94218589D01*
X119995345Y-94278168D01*
X119995350Y-94278169D01*
X120174596Y-94298365D01*
X120174600Y-94298365D01*
X120174604Y-94298365D01*
X120353849Y-94278169D01*
X120353852Y-94278168D01*
X120353855Y-94278168D01*
X120524122Y-94218589D01*
X120676862Y-94122616D01*
X120804416Y-93995062D01*
X120900389Y-93842322D01*
X120959968Y-93672055D01*
X120962026Y-93653789D01*
X120980165Y-93492803D01*
X120980165Y-93492796D01*
X120959969Y-93313550D01*
X120959968Y-93313545D01*
X120944696Y-93269900D01*
X120900389Y-93143278D01*
X120877750Y-93107249D01*
X120809546Y-92998703D01*
X120804416Y-92990538D01*
X120676862Y-92862984D01*
X120524123Y-92767011D01*
X120353854Y-92707431D01*
X120353849Y-92707430D01*
X120174604Y-92687235D01*
X120174596Y-92687235D01*
X119995350Y-92707430D01*
X119995345Y-92707431D01*
X119825076Y-92767011D01*
X119672337Y-92862984D01*
X119637181Y-92898141D01*
X119575858Y-92931626D01*
X119506166Y-92926642D01*
X119450233Y-92884770D01*
X119425816Y-92819306D01*
X119425500Y-92810460D01*
X119425500Y-92735456D01*
X119425499Y-92735450D01*
X119425500Y-90224500D01*
X119445185Y-90157460D01*
X119497989Y-90111706D01*
X119549500Y-90100500D01*
X122100500Y-90100500D01*
X122167539Y-90120185D01*
X122213294Y-90172989D01*
X122224500Y-90224500D01*
X122224500Y-93360118D01*
X122224500Y-93400000D01*
X122224500Y-93468993D01*
X122224500Y-93468995D01*
X122224499Y-93468995D01*
X122251418Y-93604322D01*
X122251421Y-93604332D01*
X122304221Y-93731804D01*
X122304228Y-93731817D01*
X122380885Y-93846541D01*
X122380888Y-93846545D01*
X122478454Y-93944111D01*
X122478458Y-93944114D01*
X122593182Y-94020771D01*
X122593195Y-94020778D01*
X122676465Y-94055269D01*
X122720672Y-94073580D01*
X122720676Y-94073580D01*
X122720677Y-94073581D01*
X122856004Y-94100500D01*
X122856007Y-94100500D01*
X122902410Y-94100500D01*
X123365589Y-94100500D01*
X123432628Y-94120185D01*
X123453270Y-94136819D01*
X124263181Y-94946730D01*
X124296666Y-95008053D01*
X124299500Y-95034411D01*
X124299500Y-134874211D01*
X124279815Y-134941250D01*
X124227011Y-134987005D01*
X124157853Y-134996949D01*
X124094297Y-134967924D01*
X124078556Y-134951527D01*
X124074817Y-134946839D01*
X123947262Y-134819284D01*
X123794523Y-134723311D01*
X123624254Y-134663731D01*
X123624249Y-134663730D01*
X123445004Y-134643535D01*
X123444996Y-134643535D01*
X123265750Y-134663730D01*
X123265745Y-134663731D01*
X123095476Y-134723311D01*
X122942737Y-134819284D01*
X122815184Y-134946837D01*
X122719211Y-135099576D01*
X122659631Y-135269845D01*
X122659630Y-135269850D01*
X122639435Y-135449096D01*
X122639435Y-135449103D01*
X122659630Y-135628349D01*
X122659631Y-135628354D01*
X122719211Y-135798623D01*
X122787017Y-135906535D01*
X122815184Y-135951362D01*
X122942738Y-136078916D01*
X123095478Y-136174889D01*
X123265745Y-136234467D01*
X123265745Y-136234468D01*
X123265750Y-136234469D01*
X123444996Y-136254665D01*
X123445000Y-136254665D01*
X123445004Y-136254665D01*
X123624249Y-136234469D01*
X123624252Y-136234468D01*
X123624255Y-136234468D01*
X123794522Y-136174889D01*
X123947262Y-136078916D01*
X124074816Y-135951362D01*
X124074822Y-135951351D01*
X124078552Y-135946676D01*
X124135740Y-135906535D01*
X124205551Y-135903685D01*
X124265822Y-135939029D01*
X124297416Y-136001348D01*
X124299500Y-136023988D01*
X124299500Y-149575500D01*
X124279815Y-149642539D01*
X124227011Y-149688294D01*
X124175500Y-149699500D01*
X114552427Y-149699500D01*
X114485388Y-149679815D01*
X114439633Y-149627011D01*
X114431261Y-149601858D01*
X114376272Y-149349083D01*
X114376271Y-149349077D01*
X114278769Y-149087663D01*
X114145056Y-148842787D01*
X114145054Y-148842784D01*
X113977861Y-148619439D01*
X113977845Y-148619421D01*
X113780578Y-148422154D01*
X113780560Y-148422138D01*
X113557215Y-148254945D01*
X113557207Y-148254940D01*
X113312342Y-148121233D01*
X113312338Y-148121231D01*
X113213230Y-148084266D01*
X113050923Y-148023729D01*
X113050919Y-148023728D01*
X113050916Y-148023727D01*
X112778299Y-147964422D01*
X112500001Y-147944518D01*
X112499999Y-147944518D01*
X112221700Y-147964422D01*
X111949083Y-148023727D01*
X111949078Y-148023728D01*
X111949077Y-148023729D01*
X111885875Y-148047301D01*
X111687661Y-148121231D01*
X111687657Y-148121233D01*
X111442792Y-148254940D01*
X111442784Y-148254945D01*
X111219439Y-148422138D01*
X111219421Y-148422154D01*
X111022154Y-148619421D01*
X111022138Y-148619439D01*
X110854945Y-148842784D01*
X110854940Y-148842792D01*
X110721233Y-149087657D01*
X110721231Y-149087661D01*
X110623727Y-149349083D01*
X110568739Y-149601858D01*
X110535254Y-149663181D01*
X110473931Y-149696666D01*
X110447573Y-149699500D01*
X100824500Y-149699500D01*
X100757461Y-149679815D01*
X100711706Y-149627011D01*
X100700500Y-149575500D01*
X100700500Y-141079103D01*
X101376935Y-141079103D01*
X101397130Y-141258349D01*
X101397131Y-141258354D01*
X101456711Y-141428623D01*
X101552683Y-141581362D01*
X101552684Y-141581362D01*
X101680238Y-141708916D01*
X101725710Y-141737488D01*
X101820532Y-141797069D01*
X101832978Y-141804889D01*
X101868347Y-141817265D01*
X102003245Y-141864468D01*
X102003250Y-141864469D01*
X102182496Y-141884665D01*
X102182500Y-141884665D01*
X102182504Y-141884665D01*
X102361749Y-141864469D01*
X102361752Y-141864468D01*
X102361755Y-141864468D01*
X102532022Y-141804889D01*
X102684762Y-141708916D01*
X102738075Y-141655603D01*
X104134435Y-141655603D01*
X104154630Y-141834849D01*
X104154631Y-141834854D01*
X104214211Y-142005123D01*
X104304941Y-142149518D01*
X104310184Y-142157862D01*
X104437738Y-142285416D01*
X104523572Y-142339349D01*
X104582009Y-142376068D01*
X104590478Y-142381389D01*
X104760744Y-142440967D01*
X104760745Y-142440968D01*
X104760750Y-142440969D01*
X104939996Y-142461165D01*
X104940000Y-142461165D01*
X104940004Y-142461165D01*
X105119249Y-142440969D01*
X105119252Y-142440968D01*
X105119255Y-142440968D01*
X105289522Y-142381389D01*
X105442262Y-142285416D01*
X105569816Y-142157862D01*
X105665789Y-142005122D01*
X105725368Y-141834855D01*
X105727350Y-141817265D01*
X105745565Y-141655603D01*
X105745565Y-141655596D01*
X105725369Y-141476350D01*
X105725368Y-141476345D01*
X105716658Y-141451454D01*
X105665789Y-141306078D01*
X105644504Y-141272203D01*
X114244935Y-141272203D01*
X114265130Y-141451449D01*
X114265131Y-141451454D01*
X114324711Y-141621723D01*
X114397452Y-141737488D01*
X114420684Y-141774462D01*
X114548238Y-141902016D01*
X114609044Y-141940223D01*
X114673693Y-141980845D01*
X114700978Y-141997989D01*
X114857622Y-142052801D01*
X114871245Y-142057568D01*
X114871250Y-142057569D01*
X115050496Y-142077765D01*
X115050500Y-142077765D01*
X115050504Y-142077765D01*
X115229749Y-142057569D01*
X115229751Y-142057568D01*
X115229755Y-142057568D01*
X115229758Y-142057567D01*
X115233188Y-142056367D01*
X115235545Y-142056246D01*
X115236547Y-142056018D01*
X115236587Y-142056193D01*
X115302966Y-142052801D01*
X115363596Y-142087526D01*
X115395826Y-142149518D01*
X115397369Y-142159522D01*
X115417630Y-142339350D01*
X115417631Y-142339354D01*
X115477211Y-142509623D01*
X115573184Y-142662361D01*
X115573184Y-142662362D01*
X115700738Y-142789916D01*
X115853478Y-142885889D01*
X116023744Y-142945468D01*
X116023745Y-142945468D01*
X116023750Y-142945469D01*
X116202996Y-142965665D01*
X116203000Y-142965665D01*
X116203004Y-142965665D01*
X116382249Y-142945469D01*
X116382252Y-142945468D01*
X116382255Y-142945468D01*
X116552522Y-142885889D01*
X116705262Y-142789916D01*
X116832816Y-142662362D01*
X116928789Y-142509622D01*
X116988368Y-142339355D01*
X116988369Y-142339349D01*
X117008565Y-142160103D01*
X117008565Y-142160096D01*
X116988369Y-141980850D01*
X116988368Y-141980845D01*
X116974153Y-141940222D01*
X116928789Y-141810578D01*
X116925214Y-141804889D01*
X116832815Y-141657837D01*
X116705262Y-141530284D01*
X116552523Y-141434311D01*
X116382254Y-141374731D01*
X116382249Y-141374730D01*
X116203004Y-141354535D01*
X116202996Y-141354535D01*
X116023750Y-141374730D01*
X116023735Y-141374734D01*
X116020297Y-141375937D01*
X116017937Y-141376057D01*
X116016953Y-141376282D01*
X116016913Y-141376109D01*
X115950518Y-141379495D01*
X115889893Y-141344762D01*
X115857670Y-141282766D01*
X115856130Y-141272776D01*
X115835869Y-141092950D01*
X115835868Y-141092945D01*
X115807440Y-141011703D01*
X119354435Y-141011703D01*
X119374630Y-141190949D01*
X119374631Y-141190954D01*
X119434211Y-141361223D01*
X119506551Y-141476350D01*
X119530184Y-141513962D01*
X119657738Y-141641516D01*
X119810478Y-141737489D01*
X119916141Y-141774462D01*
X119980745Y-141797068D01*
X119980750Y-141797069D01*
X120159996Y-141817265D01*
X120160000Y-141817265D01*
X120160004Y-141817265D01*
X120339249Y-141797069D01*
X120339252Y-141797068D01*
X120339255Y-141797068D01*
X120509522Y-141737489D01*
X120662262Y-141641516D01*
X120713075Y-141590703D01*
X121825035Y-141590703D01*
X121845230Y-141769949D01*
X121845231Y-141769954D01*
X121904811Y-141940223D01*
X121977680Y-142056193D01*
X122000784Y-142092962D01*
X122128338Y-142220516D01*
X122281078Y-142316489D01*
X122451345Y-142376067D01*
X122451345Y-142376068D01*
X122451350Y-142376069D01*
X122630596Y-142396265D01*
X122630600Y-142396265D01*
X122630604Y-142396265D01*
X122809849Y-142376069D01*
X122809852Y-142376068D01*
X122809855Y-142376068D01*
X122980122Y-142316489D01*
X123132862Y-142220516D01*
X123260416Y-142092962D01*
X123356389Y-141940222D01*
X123415968Y-141769955D01*
X123419626Y-141737488D01*
X123436165Y-141590703D01*
X123436165Y-141590696D01*
X123415969Y-141411450D01*
X123415968Y-141411445D01*
X123403121Y-141374730D01*
X123356389Y-141241178D01*
X123260416Y-141088438D01*
X123132862Y-140960884D01*
X123072058Y-140922678D01*
X122980123Y-140864911D01*
X122809854Y-140805331D01*
X122809849Y-140805330D01*
X122630604Y-140785135D01*
X122630596Y-140785135D01*
X122451350Y-140805330D01*
X122451345Y-140805331D01*
X122281076Y-140864911D01*
X122128337Y-140960884D01*
X122000784Y-141088437D01*
X121904811Y-141241176D01*
X121845231Y-141411445D01*
X121845230Y-141411450D01*
X121825035Y-141590696D01*
X121825035Y-141590703D01*
X120713075Y-141590703D01*
X120789816Y-141513962D01*
X120885789Y-141361222D01*
X120945368Y-141190955D01*
X120945369Y-141190949D01*
X120965565Y-141011703D01*
X120965565Y-141011696D01*
X120945369Y-140832450D01*
X120945368Y-140832445D01*
X120935880Y-140805330D01*
X120885789Y-140662178D01*
X120789816Y-140509438D01*
X120662262Y-140381884D01*
X120662261Y-140381883D01*
X120509523Y-140285911D01*
X120339254Y-140226331D01*
X120339249Y-140226330D01*
X120160004Y-140206135D01*
X120159996Y-140206135D01*
X119980750Y-140226330D01*
X119980745Y-140226331D01*
X119810476Y-140285911D01*
X119657737Y-140381884D01*
X119530184Y-140509437D01*
X119434211Y-140662176D01*
X119374631Y-140832445D01*
X119374630Y-140832450D01*
X119354435Y-141011696D01*
X119354435Y-141011703D01*
X115807440Y-141011703D01*
X115776288Y-140922676D01*
X115719592Y-140832445D01*
X115680316Y-140769938D01*
X115552762Y-140642384D01*
X115552762Y-140642383D01*
X115400023Y-140546411D01*
X115229754Y-140486831D01*
X115229749Y-140486830D01*
X115050504Y-140466635D01*
X115050496Y-140466635D01*
X114871250Y-140486830D01*
X114871245Y-140486831D01*
X114700976Y-140546411D01*
X114548237Y-140642384D01*
X114420684Y-140769937D01*
X114324711Y-140922676D01*
X114265131Y-141092945D01*
X114265130Y-141092950D01*
X114244935Y-141272196D01*
X114244935Y-141272203D01*
X105644504Y-141272203D01*
X105569816Y-141153338D01*
X105442262Y-141025784D01*
X105419852Y-141011703D01*
X105289523Y-140929811D01*
X105119254Y-140870231D01*
X105119249Y-140870230D01*
X104940004Y-140850035D01*
X104939996Y-140850035D01*
X104760750Y-140870230D01*
X104760745Y-140870231D01*
X104590476Y-140929811D01*
X104437737Y-141025784D01*
X104310184Y-141153337D01*
X104214211Y-141306076D01*
X104154631Y-141476345D01*
X104154630Y-141476350D01*
X104134435Y-141655596D01*
X104134435Y-141655603D01*
X102738075Y-141655603D01*
X102812316Y-141581362D01*
X102908289Y-141428622D01*
X102967868Y-141258355D01*
X102967869Y-141258349D01*
X102988065Y-141079103D01*
X102988065Y-141079096D01*
X102967869Y-140899850D01*
X102967868Y-140899845D01*
X102927729Y-140785135D01*
X102908289Y-140729578D01*
X102812316Y-140576838D01*
X102684762Y-140449284D01*
X102577496Y-140381884D01*
X102532023Y-140353311D01*
X102361754Y-140293731D01*
X102361749Y-140293730D01*
X102182504Y-140273535D01*
X102182496Y-140273535D01*
X102003250Y-140293730D01*
X102003245Y-140293731D01*
X101832976Y-140353311D01*
X101680237Y-140449284D01*
X101552684Y-140576837D01*
X101456711Y-140729576D01*
X101397131Y-140899845D01*
X101397130Y-140899850D01*
X101376935Y-141079096D01*
X101376935Y-141079103D01*
X100700500Y-141079103D01*
X100700500Y-136011203D01*
X111962035Y-136011203D01*
X111982230Y-136190449D01*
X111982233Y-136190462D01*
X112041809Y-136360718D01*
X112041810Y-136360720D01*
X112041811Y-136360722D01*
X112061298Y-136391735D01*
X112080298Y-136458972D01*
X112061300Y-136523676D01*
X112058909Y-136527481D01*
X111999333Y-136697737D01*
X111999330Y-136697750D01*
X111979135Y-136876996D01*
X111979135Y-136877003D01*
X111999330Y-137056249D01*
X111999331Y-137056254D01*
X112058911Y-137226523D01*
X112154883Y-137379262D01*
X112154884Y-137379262D01*
X112282438Y-137506816D01*
X112435178Y-137602789D01*
X112605444Y-137662368D01*
X112605445Y-137662368D01*
X112605450Y-137662369D01*
X112784696Y-137682565D01*
X112784700Y-137682565D01*
X112784704Y-137682565D01*
X112963949Y-137662369D01*
X112963952Y-137662368D01*
X112963955Y-137662368D01*
X113134222Y-137602789D01*
X113286962Y-137506816D01*
X113414516Y-137379262D01*
X113510489Y-137226522D01*
X113570068Y-137056255D01*
X113590265Y-136877000D01*
X113570068Y-136697745D01*
X113570067Y-136697743D01*
X113570066Y-136697737D01*
X113510490Y-136527480D01*
X113491002Y-136496465D01*
X113472001Y-136429228D01*
X113491003Y-136364518D01*
X113493389Y-136360722D01*
X113552968Y-136190455D01*
X113554722Y-136174888D01*
X113573165Y-136011203D01*
X113573165Y-136011196D01*
X113552969Y-135831950D01*
X113552968Y-135831945D01*
X113493388Y-135661676D01*
X113397415Y-135508937D01*
X113269862Y-135381384D01*
X113117123Y-135285411D01*
X112946854Y-135225831D01*
X112946849Y-135225830D01*
X112767604Y-135205635D01*
X112767596Y-135205635D01*
X112588350Y-135225830D01*
X112588345Y-135225831D01*
X112418076Y-135285411D01*
X112265337Y-135381384D01*
X112137784Y-135508937D01*
X112041811Y-135661676D01*
X111982231Y-135831945D01*
X111982230Y-135831950D01*
X111962035Y-136011196D01*
X111962035Y-136011203D01*
X100700500Y-136011203D01*
X100700500Y-134814903D01*
X113402735Y-134814903D01*
X113422930Y-134994149D01*
X113422931Y-134994154D01*
X113482511Y-135164423D01*
X113578483Y-135317161D01*
X113578484Y-135317162D01*
X113706038Y-135444716D01*
X113858778Y-135540689D01*
X114029045Y-135600267D01*
X114029045Y-135600268D01*
X114029050Y-135600269D01*
X114208296Y-135620465D01*
X114208300Y-135620465D01*
X114208304Y-135620465D01*
X114387549Y-135600269D01*
X114387552Y-135600268D01*
X114387555Y-135600268D01*
X114557822Y-135540689D01*
X114710562Y-135444716D01*
X114838116Y-135317162D01*
X114934089Y-135164422D01*
X114993668Y-134994155D01*
X114994474Y-134987005D01*
X115013865Y-134814903D01*
X115013865Y-134814896D01*
X114993669Y-134635650D01*
X114993666Y-134635637D01*
X114934089Y-134465378D01*
X114931069Y-134459106D01*
X114933261Y-134458049D01*
X114917346Y-134401746D01*
X114937707Y-134334909D01*
X114953654Y-134315323D01*
X114972216Y-134296762D01*
X115068189Y-134144022D01*
X115127768Y-133973755D01*
X115147965Y-133794500D01*
X115137285Y-133699715D01*
X115127769Y-133615250D01*
X115127768Y-133615245D01*
X115068188Y-133444976D01*
X114972215Y-133292237D01*
X114844662Y-133164684D01*
X114693820Y-133069903D01*
X115450035Y-133069903D01*
X115470230Y-133249149D01*
X115470231Y-133249154D01*
X115529811Y-133419423D01*
X115625784Y-133572162D01*
X115753338Y-133699716D01*
X115843680Y-133756481D01*
X115904185Y-133794500D01*
X115906078Y-133795689D01*
X116076344Y-133855267D01*
X116076345Y-133855268D01*
X116076350Y-133855269D01*
X116255596Y-133875465D01*
X116255600Y-133875465D01*
X116255604Y-133875465D01*
X116434849Y-133855269D01*
X116434852Y-133855268D01*
X116434855Y-133855268D01*
X116605122Y-133795689D01*
X116757862Y-133699716D01*
X116885416Y-133572162D01*
X116981389Y-133419422D01*
X117040968Y-133249155D01*
X117061165Y-133069900D01*
X117054318Y-133009132D01*
X117040969Y-132890650D01*
X117040968Y-132890645D01*
X116981388Y-132720376D01*
X116885415Y-132567637D01*
X116757862Y-132440084D01*
X116605123Y-132344111D01*
X116434854Y-132284531D01*
X116434849Y-132284530D01*
X116255604Y-132264335D01*
X116255596Y-132264335D01*
X116076350Y-132284530D01*
X116076345Y-132284531D01*
X115906076Y-132344111D01*
X115753337Y-132440084D01*
X115625784Y-132567637D01*
X115529811Y-132720376D01*
X115470231Y-132890645D01*
X115470230Y-132890650D01*
X115450035Y-133069896D01*
X115450035Y-133069903D01*
X114693820Y-133069903D01*
X114691923Y-133068711D01*
X114521654Y-133009131D01*
X114521649Y-133009130D01*
X114342404Y-132988935D01*
X114342396Y-132988935D01*
X114163150Y-133009130D01*
X114163145Y-133009131D01*
X113992876Y-133068711D01*
X113840137Y-133164684D01*
X113712584Y-133292237D01*
X113616611Y-133444976D01*
X113557031Y-133615245D01*
X113557030Y-133615250D01*
X113536835Y-133794496D01*
X113536835Y-133794503D01*
X113557030Y-133973749D01*
X113557033Y-133973762D01*
X113616610Y-134144021D01*
X113619631Y-134150294D01*
X113617441Y-134151348D01*
X113633351Y-134207681D01*
X113612975Y-134274513D01*
X113597043Y-134294077D01*
X113578485Y-134312636D01*
X113482511Y-134465376D01*
X113422931Y-134635645D01*
X113422930Y-134635650D01*
X113402735Y-134814896D01*
X113402735Y-134814903D01*
X100700500Y-134814903D01*
X100700500Y-131566703D01*
X119354435Y-131566703D01*
X119374630Y-131745949D01*
X119374631Y-131745954D01*
X119434211Y-131916223D01*
X119530183Y-132068961D01*
X119530184Y-132068962D01*
X119657738Y-132196516D01*
X119748080Y-132253282D01*
X119797814Y-132284532D01*
X119810478Y-132292489D01*
X119958005Y-132344111D01*
X119980745Y-132352068D01*
X119980750Y-132352069D01*
X120159996Y-132372265D01*
X120160000Y-132372265D01*
X120160004Y-132372265D01*
X120339249Y-132352069D01*
X120339252Y-132352068D01*
X120339255Y-132352068D01*
X120509522Y-132292489D01*
X120662262Y-132196516D01*
X120789816Y-132068962D01*
X120885789Y-131916222D01*
X120945368Y-131745955D01*
X120965565Y-131566700D01*
X120945368Y-131387445D01*
X120885789Y-131217178D01*
X120789816Y-131064438D01*
X120662262Y-130936884D01*
X120662261Y-130936883D01*
X120509523Y-130840911D01*
X120339254Y-130781331D01*
X120339249Y-130781330D01*
X120160004Y-130761135D01*
X120159996Y-130761135D01*
X119980750Y-130781330D01*
X119980745Y-130781331D01*
X119810476Y-130840911D01*
X119657737Y-130936884D01*
X119530184Y-131064437D01*
X119434211Y-131217176D01*
X119374631Y-131387445D01*
X119374630Y-131387450D01*
X119354435Y-131566696D01*
X119354435Y-131566703D01*
X100700500Y-131566703D01*
X100700500Y-126864588D01*
X100720185Y-126797549D01*
X100772989Y-126751794D01*
X100842147Y-126741850D01*
X100905703Y-126770875D01*
X100921448Y-126787276D01*
X100925180Y-126791957D01*
X100925184Y-126791962D01*
X101052738Y-126919516D01*
X101205478Y-127015489D01*
X101375745Y-127075068D01*
X101375750Y-127075069D01*
X101554996Y-127095265D01*
X101555000Y-127095265D01*
X101555004Y-127095265D01*
X101734249Y-127075069D01*
X101734252Y-127075068D01*
X101734255Y-127075068D01*
X101904522Y-127015489D01*
X102057262Y-126919516D01*
X102184816Y-126791962D01*
X102258243Y-126675103D01*
X104144435Y-126675103D01*
X104164630Y-126854349D01*
X104164631Y-126854354D01*
X104224211Y-127024623D01*
X104255908Y-127075068D01*
X104320184Y-127177362D01*
X104447738Y-127304916D01*
X104600478Y-127400889D01*
X104770744Y-127460468D01*
X104770745Y-127460468D01*
X104770750Y-127460469D01*
X104949996Y-127480665D01*
X104950000Y-127480665D01*
X104950004Y-127480665D01*
X105129249Y-127460469D01*
X105129252Y-127460468D01*
X105129255Y-127460468D01*
X105299522Y-127400889D01*
X105452262Y-127304916D01*
X105579816Y-127177362D01*
X105675789Y-127024622D01*
X105735368Y-126854355D01*
X105741415Y-126800688D01*
X105755565Y-126675103D01*
X105755565Y-126675096D01*
X105735369Y-126495850D01*
X105735368Y-126495845D01*
X105675788Y-126325576D01*
X105579815Y-126172837D01*
X105481881Y-126074903D01*
X109224435Y-126074903D01*
X109244630Y-126254149D01*
X109244631Y-126254154D01*
X109304211Y-126424423D01*
X109400184Y-126577162D01*
X109527738Y-126704716D01*
X109602662Y-126751794D01*
X109675480Y-126797549D01*
X109680478Y-126800689D01*
X109833844Y-126854354D01*
X109850745Y-126860268D01*
X109850750Y-126860269D01*
X110029996Y-126880465D01*
X110030000Y-126880465D01*
X110030004Y-126880465D01*
X110209249Y-126860269D01*
X110209252Y-126860268D01*
X110209255Y-126860268D01*
X110379522Y-126800689D01*
X110532262Y-126704716D01*
X110659816Y-126577162D01*
X110755789Y-126424422D01*
X110815368Y-126254155D01*
X110824530Y-126172838D01*
X110825582Y-126163503D01*
X120624435Y-126163503D01*
X120644630Y-126342749D01*
X120644631Y-126342754D01*
X120704211Y-126513023D01*
X120744513Y-126577162D01*
X120800184Y-126665762D01*
X120927738Y-126793316D01*
X121018080Y-126850082D01*
X121066434Y-126880465D01*
X121080478Y-126889289D01*
X121166859Y-126919515D01*
X121250745Y-126948868D01*
X121250750Y-126948869D01*
X121429996Y-126969065D01*
X121430000Y-126969065D01*
X121430004Y-126969065D01*
X121609249Y-126948869D01*
X121609252Y-126948868D01*
X121609255Y-126948868D01*
X121779522Y-126889289D01*
X121932262Y-126793316D01*
X122059816Y-126665762D01*
X122155789Y-126513022D01*
X122215368Y-126342755D01*
X122215369Y-126342749D01*
X122235565Y-126163503D01*
X122235565Y-126163496D01*
X122215369Y-125984250D01*
X122215368Y-125984245D01*
X122184367Y-125895650D01*
X122155789Y-125813978D01*
X122146858Y-125799765D01*
X122059815Y-125661237D01*
X121932262Y-125533684D01*
X121779523Y-125437711D01*
X121609254Y-125378131D01*
X121609249Y-125378130D01*
X121430004Y-125357935D01*
X121429996Y-125357935D01*
X121250750Y-125378130D01*
X121250745Y-125378131D01*
X121080476Y-125437711D01*
X120927737Y-125533684D01*
X120800184Y-125661237D01*
X120704211Y-125813976D01*
X120644631Y-125984245D01*
X120644630Y-125984250D01*
X120624435Y-126163496D01*
X120624435Y-126163503D01*
X110825582Y-126163503D01*
X110835565Y-126074903D01*
X110835565Y-126074896D01*
X110815369Y-125895650D01*
X110815368Y-125895645D01*
X110755788Y-125725376D01*
X110659815Y-125572637D01*
X110532262Y-125445084D01*
X110379523Y-125349111D01*
X110209254Y-125289531D01*
X110209249Y-125289530D01*
X110030004Y-125269335D01*
X110029996Y-125269335D01*
X109850750Y-125289530D01*
X109850745Y-125289531D01*
X109680476Y-125349111D01*
X109527737Y-125445084D01*
X109400184Y-125572637D01*
X109304211Y-125725376D01*
X109244631Y-125895645D01*
X109244630Y-125895650D01*
X109224435Y-126074896D01*
X109224435Y-126074903D01*
X105481881Y-126074903D01*
X105452262Y-126045284D01*
X105299523Y-125949311D01*
X105129254Y-125889731D01*
X105129249Y-125889730D01*
X104950004Y-125869535D01*
X104949996Y-125869535D01*
X104770750Y-125889730D01*
X104770745Y-125889731D01*
X104600476Y-125949311D01*
X104447737Y-126045284D01*
X104320184Y-126172837D01*
X104224211Y-126325576D01*
X104164631Y-126495845D01*
X104164630Y-126495850D01*
X104144435Y-126675096D01*
X104144435Y-126675103D01*
X102258243Y-126675103D01*
X102280789Y-126639222D01*
X102340368Y-126468955D01*
X102345386Y-126424422D01*
X102360565Y-126289703D01*
X102360565Y-126289696D01*
X102340369Y-126110450D01*
X102340368Y-126110445D01*
X102296210Y-125984250D01*
X102280789Y-125940178D01*
X102184816Y-125787438D01*
X102057262Y-125659884D01*
X102057261Y-125659883D01*
X101904523Y-125563911D01*
X101734254Y-125504331D01*
X101734249Y-125504330D01*
X101555004Y-125484135D01*
X101554996Y-125484135D01*
X101375750Y-125504330D01*
X101375745Y-125504331D01*
X101205476Y-125563911D01*
X101052737Y-125659884D01*
X100925182Y-125787439D01*
X100921444Y-125792127D01*
X100864254Y-125832266D01*
X100794443Y-125835113D01*
X100734174Y-125799765D01*
X100702583Y-125737445D01*
X100700500Y-125714811D01*
X100700500Y-124549503D01*
X116633035Y-124549503D01*
X116653230Y-124728749D01*
X116653231Y-124728754D01*
X116712811Y-124899023D01*
X116808783Y-125051762D01*
X116808784Y-125051762D01*
X116936338Y-125179316D01*
X117089078Y-125275289D01*
X117259345Y-125334867D01*
X117259345Y-125334868D01*
X117259350Y-125334869D01*
X117438596Y-125355065D01*
X117438600Y-125355065D01*
X117438604Y-125355065D01*
X117617849Y-125334869D01*
X117617852Y-125334868D01*
X117617855Y-125334868D01*
X117788122Y-125275289D01*
X117940862Y-125179316D01*
X118068416Y-125051762D01*
X118164389Y-124899022D01*
X118223968Y-124728755D01*
X118244165Y-124549500D01*
X118223968Y-124370245D01*
X118164389Y-124199978D01*
X118068416Y-124047238D01*
X117940862Y-123919684D01*
X117788123Y-123823711D01*
X117617854Y-123764131D01*
X117617849Y-123764130D01*
X117438604Y-123743935D01*
X117438596Y-123743935D01*
X117259350Y-123764130D01*
X117259345Y-123764131D01*
X117089076Y-123823711D01*
X116936337Y-123919684D01*
X116808784Y-124047237D01*
X116712811Y-124199976D01*
X116653231Y-124370245D01*
X116653230Y-124370250D01*
X116633035Y-124549496D01*
X116633035Y-124549503D01*
X100700500Y-124549503D01*
X100700500Y-122227903D01*
X115735935Y-122227903D01*
X115756130Y-122407149D01*
X115756131Y-122407154D01*
X115815711Y-122577423D01*
X115911684Y-122730162D01*
X116039238Y-122857716D01*
X116191978Y-122953689D01*
X116362244Y-123013268D01*
X116362245Y-123013268D01*
X116362250Y-123013269D01*
X116541496Y-123033465D01*
X116541500Y-123033465D01*
X116541504Y-123033465D01*
X116720749Y-123013269D01*
X116720752Y-123013268D01*
X116720755Y-123013268D01*
X116891022Y-122953689D01*
X117043762Y-122857716D01*
X117171316Y-122730162D01*
X117267289Y-122577422D01*
X117326868Y-122407155D01*
X117347065Y-122227900D01*
X117326868Y-122048645D01*
X117267289Y-121878378D01*
X117171316Y-121725638D01*
X117043762Y-121598084D01*
X117043762Y-121598083D01*
X116891023Y-121502111D01*
X116720754Y-121442531D01*
X116720749Y-121442530D01*
X116541504Y-121422335D01*
X116541496Y-121422335D01*
X116362250Y-121442530D01*
X116362245Y-121442531D01*
X116191976Y-121502111D01*
X116039237Y-121598084D01*
X115911684Y-121725637D01*
X115815711Y-121878376D01*
X115756131Y-122048645D01*
X115756130Y-122048650D01*
X115735935Y-122227896D01*
X115735935Y-122227903D01*
X100700500Y-122227903D01*
X100700500Y-119268203D01*
X112681935Y-119268203D01*
X112702130Y-119447449D01*
X112702131Y-119447454D01*
X112761711Y-119617723D01*
X112857684Y-119770461D01*
X112857684Y-119770462D01*
X112985238Y-119898016D01*
X113137978Y-119993989D01*
X113308245Y-120053567D01*
X113308245Y-120053568D01*
X113308250Y-120053569D01*
X113487496Y-120073765D01*
X113487500Y-120073765D01*
X113487504Y-120073765D01*
X113666749Y-120053569D01*
X113666752Y-120053568D01*
X113666755Y-120053568D01*
X113837022Y-119993989D01*
X113989762Y-119898016D01*
X114117316Y-119770462D01*
X114213289Y-119617722D01*
X114272868Y-119447455D01*
X114293065Y-119268200D01*
X114272868Y-119088945D01*
X114213289Y-118918678D01*
X114117316Y-118765938D01*
X113989762Y-118638384D01*
X113989761Y-118638384D01*
X113837023Y-118542411D01*
X113666754Y-118482831D01*
X113666749Y-118482830D01*
X113487504Y-118462635D01*
X113487496Y-118462635D01*
X113308250Y-118482830D01*
X113308245Y-118482831D01*
X113137976Y-118542411D01*
X112985237Y-118638384D01*
X112857684Y-118765937D01*
X112761711Y-118918676D01*
X112702131Y-119088945D01*
X112702130Y-119088950D01*
X112681935Y-119268196D01*
X112681935Y-119268203D01*
X100700500Y-119268203D01*
X100700500Y-115741503D01*
X101584435Y-115741503D01*
X101604630Y-115920749D01*
X101604631Y-115920754D01*
X101664211Y-116091023D01*
X101760183Y-116243761D01*
X101760184Y-116243762D01*
X101887738Y-116371316D01*
X102040478Y-116467289D01*
X102210744Y-116526868D01*
X102210745Y-116526868D01*
X102210750Y-116526869D01*
X102389996Y-116547065D01*
X102390000Y-116547065D01*
X102390004Y-116547065D01*
X102569249Y-116526869D01*
X102569252Y-116526868D01*
X102569255Y-116526868D01*
X102739522Y-116467289D01*
X102892262Y-116371316D01*
X103019816Y-116243762D01*
X103115789Y-116091022D01*
X103175368Y-115920755D01*
X103177050Y-115905831D01*
X103195565Y-115741503D01*
X103195565Y-115741496D01*
X103175369Y-115562250D01*
X103175368Y-115562245D01*
X103148395Y-115485162D01*
X103115789Y-115391978D01*
X103093397Y-115356342D01*
X103045508Y-115280127D01*
X103019816Y-115239238D01*
X102892262Y-115111684D01*
X102892262Y-115111683D01*
X102739523Y-115015711D01*
X102645764Y-114982903D01*
X118510835Y-114982903D01*
X118531030Y-115162149D01*
X118531031Y-115162154D01*
X118590611Y-115332423D01*
X118646115Y-115420756D01*
X118686584Y-115485162D01*
X118814138Y-115612716D01*
X118966878Y-115708689D01*
X119060655Y-115741503D01*
X119137145Y-115768268D01*
X119137150Y-115768269D01*
X119316396Y-115788465D01*
X119316400Y-115788465D01*
X119316403Y-115788465D01*
X119402030Y-115778817D01*
X119470852Y-115790871D01*
X119522232Y-115838220D01*
X119539856Y-115905831D01*
X119539134Y-115915920D01*
X119519735Y-116088096D01*
X119519735Y-116088103D01*
X119539930Y-116267349D01*
X119539931Y-116267354D01*
X119599511Y-116437623D01*
X119695484Y-116590362D01*
X119823038Y-116717916D01*
X119975778Y-116813889D01*
X120146045Y-116873468D01*
X120146050Y-116873469D01*
X120325296Y-116893665D01*
X120325300Y-116893665D01*
X120325304Y-116893665D01*
X120504549Y-116873469D01*
X120504552Y-116873468D01*
X120504555Y-116873468D01*
X120674822Y-116813889D01*
X120827562Y-116717916D01*
X120955116Y-116590362D01*
X121051089Y-116437622D01*
X121110668Y-116267355D01*
X121121484Y-116171358D01*
X121148550Y-116106944D01*
X121206144Y-116067389D01*
X121275981Y-116065250D01*
X121310674Y-116080246D01*
X121446178Y-116165389D01*
X121616445Y-116224968D01*
X121616450Y-116224969D01*
X121795696Y-116245165D01*
X121795700Y-116245165D01*
X121795704Y-116245165D01*
X121974949Y-116224969D01*
X121974952Y-116224968D01*
X121974955Y-116224968D01*
X122145222Y-116165389D01*
X122297962Y-116069416D01*
X122425516Y-115941862D01*
X122521489Y-115789122D01*
X122581068Y-115618855D01*
X122587446Y-115562250D01*
X122601265Y-115439603D01*
X122601265Y-115439596D01*
X122581069Y-115260350D01*
X122581068Y-115260345D01*
X122573682Y-115239237D01*
X122521489Y-115090078D01*
X122425516Y-114937338D01*
X122297962Y-114809784D01*
X122288192Y-114803645D01*
X122145223Y-114713811D01*
X121974954Y-114654231D01*
X121974949Y-114654230D01*
X121795704Y-114634035D01*
X121795696Y-114634035D01*
X121616450Y-114654230D01*
X121616445Y-114654231D01*
X121446176Y-114713811D01*
X121293437Y-114809784D01*
X121165884Y-114937337D01*
X121069911Y-115090076D01*
X121010331Y-115260345D01*
X121010330Y-115260349D01*
X120999515Y-115356342D01*
X120972448Y-115420756D01*
X120914853Y-115460311D01*
X120845016Y-115462448D01*
X120810323Y-115447452D01*
X120674823Y-115362311D01*
X120504554Y-115302731D01*
X120504549Y-115302730D01*
X120325304Y-115282535D01*
X120325295Y-115282535D01*
X120239667Y-115292182D01*
X120170846Y-115280127D01*
X120119467Y-115232777D01*
X120101843Y-115165167D01*
X120102565Y-115155078D01*
X120107455Y-115111684D01*
X120121965Y-114982900D01*
X120116831Y-114937338D01*
X120101769Y-114803650D01*
X120101768Y-114803645D01*
X120042188Y-114633376D01*
X119946215Y-114480637D01*
X119944112Y-114478000D01*
X119943284Y-114475972D01*
X119942511Y-114474742D01*
X119942726Y-114474606D01*
X119917703Y-114413314D01*
X119930458Y-114344619D01*
X119978327Y-114293724D01*
X120027175Y-114277466D01*
X120062650Y-114273469D01*
X120062653Y-114273468D01*
X120062655Y-114273468D01*
X120232922Y-114213889D01*
X120385662Y-114117916D01*
X120513216Y-113990362D01*
X120609189Y-113837622D01*
X120668768Y-113667355D01*
X120688965Y-113488100D01*
X120672198Y-113339288D01*
X120684252Y-113270467D01*
X120731601Y-113219087D01*
X120799212Y-113201463D01*
X120861389Y-113220410D01*
X120950478Y-113276389D01*
X121120744Y-113335968D01*
X121120745Y-113335968D01*
X121120750Y-113335969D01*
X121299996Y-113356165D01*
X121300000Y-113356165D01*
X121300004Y-113356165D01*
X121479249Y-113335969D01*
X121479252Y-113335968D01*
X121479255Y-113335968D01*
X121649522Y-113276389D01*
X121802262Y-113180416D01*
X121929816Y-113052862D01*
X122025789Y-112900122D01*
X122085368Y-112729855D01*
X122085898Y-112725152D01*
X122105565Y-112550603D01*
X122105565Y-112550596D01*
X122085369Y-112371350D01*
X122085368Y-112371345D01*
X122025788Y-112201076D01*
X121935670Y-112057655D01*
X121929816Y-112048338D01*
X121802262Y-111920784D01*
X121746372Y-111885666D01*
X121649523Y-111824811D01*
X121479254Y-111765231D01*
X121479249Y-111765230D01*
X121300004Y-111745035D01*
X121299996Y-111745035D01*
X121120750Y-111765230D01*
X121120745Y-111765231D01*
X120950476Y-111824811D01*
X120883865Y-111866666D01*
X120816628Y-111885666D01*
X120749793Y-111865298D01*
X120704579Y-111812030D01*
X120694672Y-111775551D01*
X120693568Y-111765745D01*
X120633989Y-111595478D01*
X120538016Y-111442738D01*
X120410462Y-111315184D01*
X120257722Y-111219211D01*
X120257719Y-111219209D01*
X120224403Y-111207551D01*
X120167627Y-111166829D01*
X120141880Y-111101877D01*
X120155336Y-111033315D01*
X120199385Y-110985517D01*
X120331162Y-110902716D01*
X120458716Y-110775162D01*
X120554689Y-110622422D01*
X120614268Y-110452155D01*
X120634465Y-110272900D01*
X120631051Y-110242603D01*
X120614269Y-110093650D01*
X120614268Y-110093645D01*
X120594458Y-110037031D01*
X120554689Y-109923378D01*
X120458716Y-109770638D01*
X120331162Y-109643084D01*
X120282940Y-109612784D01*
X120178423Y-109547111D01*
X120008154Y-109487531D01*
X120008149Y-109487530D01*
X119828904Y-109467335D01*
X119828896Y-109467335D01*
X119649650Y-109487530D01*
X119649645Y-109487531D01*
X119479376Y-109547111D01*
X119326637Y-109643084D01*
X119199084Y-109770637D01*
X119103111Y-109923376D01*
X119043531Y-110093645D01*
X119043530Y-110093650D01*
X119023335Y-110272896D01*
X119023335Y-110272903D01*
X119043530Y-110452149D01*
X119043531Y-110452154D01*
X119103111Y-110622423D01*
X119116132Y-110643145D01*
X119199084Y-110775162D01*
X119326638Y-110902716D01*
X119403008Y-110950702D01*
X119479379Y-110998690D01*
X119512694Y-111010347D01*
X119569471Y-111051068D01*
X119595219Y-111116021D01*
X119581763Y-111184582D01*
X119537714Y-111232382D01*
X119405939Y-111315182D01*
X119278384Y-111442737D01*
X119182411Y-111595476D01*
X119122831Y-111765745D01*
X119122830Y-111765750D01*
X119102635Y-111944996D01*
X119102635Y-111945003D01*
X119122830Y-112124249D01*
X119122831Y-112124254D01*
X119182411Y-112294523D01*
X119264101Y-112424531D01*
X119278384Y-112447262D01*
X119405938Y-112574816D01*
X119452009Y-112603764D01*
X119498300Y-112656099D01*
X119508948Y-112725152D01*
X119480573Y-112789001D01*
X119452010Y-112813751D01*
X119381140Y-112858282D01*
X119381137Y-112858284D01*
X119253584Y-112985837D01*
X119157611Y-113138576D01*
X119098031Y-113308845D01*
X119098030Y-113308850D01*
X119077835Y-113488096D01*
X119077835Y-113488103D01*
X119098030Y-113667349D01*
X119098031Y-113667354D01*
X119157611Y-113837623D01*
X119253584Y-113990362D01*
X119255688Y-113993000D01*
X119256515Y-113995027D01*
X119257289Y-113996258D01*
X119257073Y-113996393D01*
X119282096Y-114057687D01*
X119269341Y-114126382D01*
X119221470Y-114177276D01*
X119172627Y-114193533D01*
X119137148Y-114197531D01*
X119137145Y-114197531D01*
X118966876Y-114257111D01*
X118814137Y-114353084D01*
X118686584Y-114480637D01*
X118590611Y-114633376D01*
X118531031Y-114803645D01*
X118531030Y-114803650D01*
X118510835Y-114982896D01*
X118510835Y-114982903D01*
X102645764Y-114982903D01*
X102569254Y-114956131D01*
X102569249Y-114956130D01*
X102390004Y-114935935D01*
X102389996Y-114935935D01*
X102210750Y-114956130D01*
X102210745Y-114956131D01*
X102040476Y-115015711D01*
X101887737Y-115111684D01*
X101760184Y-115239237D01*
X101664211Y-115391976D01*
X101604631Y-115562245D01*
X101604630Y-115562250D01*
X101584435Y-115741496D01*
X101584435Y-115741503D01*
X100700500Y-115741503D01*
X100700500Y-113209903D01*
X113008935Y-113209903D01*
X113029130Y-113389149D01*
X113029131Y-113389154D01*
X113088711Y-113559423D01*
X113156526Y-113667349D01*
X113184684Y-113712162D01*
X113312238Y-113839716D01*
X113464978Y-113935689D01*
X113628763Y-113993000D01*
X113635245Y-113995268D01*
X113635250Y-113995269D01*
X113814496Y-114015465D01*
X113814500Y-114015465D01*
X113814504Y-114015465D01*
X113993749Y-113995269D01*
X113993752Y-113995268D01*
X113993755Y-113995268D01*
X114164022Y-113935689D01*
X114316762Y-113839716D01*
X114444316Y-113712162D01*
X114540289Y-113559422D01*
X114599868Y-113389155D01*
X114603585Y-113356165D01*
X114620065Y-113209903D01*
X114620065Y-113209896D01*
X114599869Y-113030650D01*
X114599868Y-113030645D01*
X114540288Y-112860376D01*
X114458272Y-112729849D01*
X114444316Y-112707638D01*
X114316762Y-112580084D01*
X114308376Y-112574815D01*
X114164023Y-112484111D01*
X113993754Y-112424531D01*
X113993749Y-112424530D01*
X113814504Y-112404335D01*
X113814496Y-112404335D01*
X113635250Y-112424530D01*
X113635245Y-112424531D01*
X113464976Y-112484111D01*
X113312237Y-112580084D01*
X113184684Y-112707637D01*
X113088711Y-112860376D01*
X113029131Y-113030645D01*
X113029130Y-113030650D01*
X113008935Y-113209896D01*
X113008935Y-113209903D01*
X100700500Y-113209903D01*
X100700500Y-111878403D01*
X104124435Y-111878403D01*
X104144630Y-112057649D01*
X104144631Y-112057654D01*
X104204211Y-112227923D01*
X104246059Y-112294523D01*
X104300184Y-112380662D01*
X104427738Y-112508216D01*
X104518080Y-112564981D01*
X104579801Y-112603764D01*
X104580478Y-112604189D01*
X104728828Y-112656099D01*
X104750745Y-112663768D01*
X104750750Y-112663769D01*
X104929996Y-112683965D01*
X104930000Y-112683965D01*
X104930004Y-112683965D01*
X105109249Y-112663769D01*
X105109252Y-112663768D01*
X105109255Y-112663768D01*
X105279522Y-112604189D01*
X105432262Y-112508216D01*
X105559816Y-112380662D01*
X105655789Y-112227922D01*
X105715368Y-112057655D01*
X105716418Y-112048337D01*
X105735565Y-111878403D01*
X105735565Y-111878396D01*
X105715369Y-111699150D01*
X105715368Y-111699145D01*
X105679093Y-111595478D01*
X105655789Y-111528878D01*
X105559816Y-111376138D01*
X105432262Y-111248584D01*
X105385512Y-111219209D01*
X105279523Y-111152611D01*
X105109254Y-111093031D01*
X105109249Y-111093030D01*
X104930004Y-111072835D01*
X104929996Y-111072835D01*
X104750750Y-111093030D01*
X104750745Y-111093031D01*
X104580476Y-111152611D01*
X104427737Y-111248584D01*
X104300184Y-111376137D01*
X104204211Y-111528876D01*
X104144631Y-111699145D01*
X104144630Y-111699150D01*
X104124435Y-111878396D01*
X104124435Y-111878403D01*
X100700500Y-111878403D01*
X100700500Y-110242603D01*
X102876635Y-110242603D01*
X102896830Y-110421849D01*
X102896831Y-110421854D01*
X102956411Y-110592123D01*
X102988474Y-110643150D01*
X103052384Y-110744862D01*
X103179938Y-110872416D01*
X103332678Y-110968389D01*
X103427730Y-111001649D01*
X103502945Y-111027968D01*
X103502950Y-111027969D01*
X103682196Y-111048165D01*
X103682200Y-111048165D01*
X103682204Y-111048165D01*
X103861449Y-111027969D01*
X103861452Y-111027968D01*
X103861455Y-111027968D01*
X104031722Y-110968389D01*
X104184462Y-110872416D01*
X104234475Y-110822403D01*
X106440035Y-110822403D01*
X106460230Y-111001649D01*
X106460231Y-111001654D01*
X106519811Y-111171923D01*
X106567981Y-111248584D01*
X106615784Y-111324662D01*
X106743338Y-111452216D01*
X106833680Y-111508982D01*
X106865341Y-111528876D01*
X106896078Y-111548189D01*
X107031222Y-111595478D01*
X107066345Y-111607768D01*
X107066350Y-111607769D01*
X107245596Y-111627965D01*
X107245600Y-111627965D01*
X107245604Y-111627965D01*
X107424849Y-111607769D01*
X107424852Y-111607768D01*
X107424855Y-111607768D01*
X107595122Y-111548189D01*
X107747862Y-111452216D01*
X107875416Y-111324662D01*
X107971389Y-111171922D01*
X108030968Y-111001655D01*
X108031302Y-110998690D01*
X108051165Y-110822403D01*
X108051165Y-110822396D01*
X108030969Y-110643150D01*
X108030968Y-110643145D01*
X107971388Y-110472876D01*
X107875415Y-110320137D01*
X107747862Y-110192584D01*
X107595123Y-110096611D01*
X107424854Y-110037031D01*
X107424849Y-110037030D01*
X107245604Y-110016835D01*
X107245596Y-110016835D01*
X107066350Y-110037030D01*
X107066345Y-110037031D01*
X106896076Y-110096611D01*
X106743337Y-110192584D01*
X106615784Y-110320137D01*
X106519811Y-110472876D01*
X106460231Y-110643145D01*
X106460230Y-110643150D01*
X106440035Y-110822396D01*
X106440035Y-110822403D01*
X104234475Y-110822403D01*
X104312016Y-110744862D01*
X104407989Y-110592122D01*
X104467568Y-110421855D01*
X104484351Y-110272900D01*
X104487765Y-110242603D01*
X104487765Y-110242596D01*
X104467569Y-110063350D01*
X104467568Y-110063345D01*
X104418591Y-109923378D01*
X104407989Y-109893078D01*
X104312016Y-109740338D01*
X104184462Y-109612784D01*
X104095786Y-109557065D01*
X104031723Y-109516811D01*
X103861454Y-109457231D01*
X103861449Y-109457230D01*
X103682204Y-109437035D01*
X103682196Y-109437035D01*
X103502950Y-109457230D01*
X103502945Y-109457231D01*
X103332676Y-109516811D01*
X103179937Y-109612784D01*
X103052384Y-109740337D01*
X102956411Y-109893076D01*
X102896831Y-110063345D01*
X102896830Y-110063350D01*
X102876635Y-110242596D01*
X102876635Y-110242603D01*
X100700500Y-110242603D01*
X100700500Y-108751503D01*
X105596235Y-108751503D01*
X105616430Y-108930749D01*
X105616431Y-108930754D01*
X105676011Y-109101023D01*
X105771983Y-109253761D01*
X105771984Y-109253762D01*
X105899538Y-109381316D01*
X106052278Y-109477289D01*
X106222544Y-109536867D01*
X106222545Y-109536868D01*
X106222550Y-109536869D01*
X106401796Y-109557065D01*
X106401800Y-109557065D01*
X106401804Y-109557065D01*
X106581049Y-109536869D01*
X106581052Y-109536868D01*
X106581055Y-109536868D01*
X106751322Y-109477289D01*
X106904062Y-109381316D01*
X107016175Y-109269203D01*
X116362235Y-109269203D01*
X116382430Y-109448449D01*
X116382431Y-109448454D01*
X116442011Y-109618723D01*
X116518427Y-109740337D01*
X116537984Y-109771462D01*
X116665538Y-109899016D01*
X116818278Y-109994989D01*
X116938427Y-110037031D01*
X116988545Y-110054568D01*
X116988550Y-110054569D01*
X117167796Y-110074765D01*
X117167800Y-110074765D01*
X117167804Y-110074765D01*
X117347049Y-110054569D01*
X117347052Y-110054568D01*
X117347055Y-110054568D01*
X117517322Y-109994989D01*
X117670062Y-109899016D01*
X117797616Y-109771462D01*
X117893589Y-109618722D01*
X117953168Y-109448455D01*
X117973365Y-109269200D01*
X117954416Y-109101023D01*
X117953169Y-109089950D01*
X117953168Y-109089945D01*
X117897465Y-108930755D01*
X117893589Y-108919678D01*
X117797616Y-108766938D01*
X117670062Y-108639384D01*
X117670061Y-108639384D01*
X117517323Y-108543411D01*
X117347054Y-108483831D01*
X117347049Y-108483830D01*
X117167804Y-108463635D01*
X117167796Y-108463635D01*
X116988550Y-108483830D01*
X116988545Y-108483831D01*
X116818276Y-108543411D01*
X116665537Y-108639384D01*
X116537984Y-108766937D01*
X116442011Y-108919676D01*
X116382431Y-109089945D01*
X116382430Y-109089950D01*
X116362235Y-109269196D01*
X116362235Y-109269203D01*
X107016175Y-109269203D01*
X107031616Y-109253762D01*
X107127589Y-109101022D01*
X107187168Y-108930755D01*
X107188416Y-108919678D01*
X107207365Y-108751503D01*
X107207365Y-108751496D01*
X107187169Y-108572250D01*
X107187168Y-108572245D01*
X107127589Y-108401978D01*
X107031616Y-108249238D01*
X106904062Y-108121684D01*
X106904061Y-108121684D01*
X106751323Y-108025711D01*
X106581054Y-107966131D01*
X106581049Y-107966130D01*
X106401804Y-107945935D01*
X106401796Y-107945935D01*
X106222550Y-107966130D01*
X106222545Y-107966131D01*
X106052276Y-108025711D01*
X105899537Y-108121684D01*
X105771984Y-108249237D01*
X105676011Y-108401976D01*
X105616431Y-108572245D01*
X105616430Y-108572250D01*
X105596235Y-108751496D01*
X105596235Y-108751503D01*
X100700500Y-108751503D01*
X100700500Y-106224403D01*
X101237435Y-106224403D01*
X101257630Y-106403649D01*
X101257631Y-106403654D01*
X101317211Y-106573923D01*
X101386364Y-106683978D01*
X101413184Y-106726662D01*
X101540738Y-106854216D01*
X101693478Y-106950189D01*
X101727981Y-106962262D01*
X101863745Y-107009768D01*
X101863750Y-107009769D01*
X102042996Y-107029965D01*
X102043000Y-107029965D01*
X102043004Y-107029965D01*
X102222249Y-107009769D01*
X102222252Y-107009768D01*
X102222255Y-107009768D01*
X102392522Y-106950189D01*
X102545262Y-106854216D01*
X102672816Y-106726662D01*
X102768789Y-106573922D01*
X102828368Y-106403655D01*
X102830136Y-106387965D01*
X102842165Y-106281203D01*
X104032835Y-106281203D01*
X104053030Y-106460449D01*
X104053031Y-106460454D01*
X104112611Y-106630723D01*
X104146074Y-106683978D01*
X104208584Y-106783462D01*
X104336138Y-106911016D01*
X104488878Y-107006989D01*
X104564651Y-107033503D01*
X104659145Y-107066568D01*
X104659150Y-107066569D01*
X104838396Y-107086765D01*
X104838400Y-107086765D01*
X104838404Y-107086765D01*
X105017649Y-107066569D01*
X105017652Y-107066568D01*
X105017655Y-107066568D01*
X105187922Y-107006989D01*
X105340662Y-106911016D01*
X105468216Y-106783462D01*
X105564189Y-106630722D01*
X105623768Y-106460455D01*
X105623819Y-106460003D01*
X105643965Y-106281203D01*
X105643965Y-106281196D01*
X105623769Y-106101950D01*
X105623768Y-106101945D01*
X105617720Y-106084662D01*
X105564189Y-105931678D01*
X105468216Y-105778938D01*
X105340662Y-105651384D01*
X105337194Y-105649205D01*
X105187923Y-105555411D01*
X105017654Y-105495831D01*
X105017649Y-105495830D01*
X104838404Y-105475635D01*
X104838396Y-105475635D01*
X104659150Y-105495830D01*
X104659145Y-105495831D01*
X104488876Y-105555411D01*
X104336137Y-105651384D01*
X104208584Y-105778937D01*
X104112611Y-105931676D01*
X104053031Y-106101945D01*
X104053030Y-106101950D01*
X104032835Y-106281196D01*
X104032835Y-106281203D01*
X102842165Y-106281203D01*
X102848565Y-106224403D01*
X102848565Y-106224396D01*
X102828369Y-106045150D01*
X102828368Y-106045145D01*
X102797783Y-105957738D01*
X102768789Y-105874878D01*
X102672816Y-105722138D01*
X102545262Y-105594584D01*
X102482919Y-105555411D01*
X102392523Y-105498611D01*
X102222254Y-105439031D01*
X102222249Y-105439030D01*
X102043004Y-105418835D01*
X102042996Y-105418835D01*
X101863750Y-105439030D01*
X101863745Y-105439031D01*
X101693476Y-105498611D01*
X101540737Y-105594584D01*
X101413184Y-105722137D01*
X101317211Y-105874876D01*
X101257631Y-106045145D01*
X101257630Y-106045150D01*
X101237435Y-106224396D01*
X101237435Y-106224403D01*
X100700500Y-106224403D01*
X100700500Y-104100003D01*
X102494435Y-104100003D01*
X102514630Y-104279249D01*
X102514631Y-104279254D01*
X102574211Y-104449523D01*
X102670183Y-104602261D01*
X102670184Y-104602262D01*
X102797738Y-104729816D01*
X102853760Y-104765017D01*
X102904711Y-104797032D01*
X102950478Y-104825789D01*
X103120745Y-104885368D01*
X103120750Y-104885369D01*
X103299996Y-104905565D01*
X103300000Y-104905565D01*
X103300004Y-104905565D01*
X103479249Y-104885369D01*
X103479252Y-104885368D01*
X103479255Y-104885368D01*
X103649522Y-104825789D01*
X103775700Y-104746505D01*
X103841672Y-104727500D01*
X107073819Y-104727500D01*
X107140858Y-104747185D01*
X107161500Y-104763819D01*
X107915871Y-105518190D01*
X107949356Y-105579513D01*
X107944372Y-105649205D01*
X107902500Y-105705138D01*
X107837036Y-105729555D01*
X107787236Y-105722913D01*
X107649257Y-105674632D01*
X107649249Y-105674630D01*
X107470004Y-105654435D01*
X107469996Y-105654435D01*
X107290750Y-105674630D01*
X107290745Y-105674631D01*
X107120476Y-105734211D01*
X106967737Y-105830184D01*
X106840184Y-105957737D01*
X106744211Y-106110476D01*
X106684631Y-106280745D01*
X106684630Y-106280750D01*
X106664435Y-106459996D01*
X106664435Y-106460003D01*
X106684630Y-106639249D01*
X106684631Y-106639254D01*
X106744211Y-106809523D01*
X106772294Y-106854216D01*
X106840184Y-106962262D01*
X106967738Y-107089816D01*
X107120478Y-107185789D01*
X107290745Y-107245367D01*
X107290745Y-107245368D01*
X107290750Y-107245369D01*
X107469996Y-107265565D01*
X107470000Y-107265565D01*
X107470004Y-107265565D01*
X107649249Y-107245369D01*
X107649252Y-107245368D01*
X107649255Y-107245368D01*
X107819522Y-107185789D01*
X107972262Y-107089816D01*
X108028575Y-107033503D01*
X113844935Y-107033503D01*
X113865130Y-107212749D01*
X113865131Y-107212754D01*
X113924711Y-107383023D01*
X114020684Y-107535761D01*
X114020684Y-107535762D01*
X114148238Y-107663316D01*
X114300978Y-107759289D01*
X114471245Y-107818868D01*
X114471250Y-107818869D01*
X114650496Y-107839065D01*
X114650500Y-107839065D01*
X114650504Y-107839065D01*
X114829749Y-107818869D01*
X114829752Y-107818868D01*
X114829755Y-107818868D01*
X115000022Y-107759289D01*
X115152762Y-107663316D01*
X115280316Y-107535762D01*
X115376289Y-107383022D01*
X115435868Y-107212755D01*
X115435869Y-107212749D01*
X115456065Y-107033503D01*
X115456065Y-107033496D01*
X115435869Y-106854250D01*
X115435868Y-106854245D01*
X115376288Y-106683976D01*
X115280315Y-106531237D01*
X115152762Y-106403684D01*
X115000023Y-106307711D01*
X114829754Y-106248131D01*
X114829749Y-106248130D01*
X114650504Y-106227935D01*
X114650496Y-106227935D01*
X114471250Y-106248130D01*
X114471245Y-106248131D01*
X114300976Y-106307711D01*
X114148237Y-106403684D01*
X114020684Y-106531237D01*
X113924711Y-106683976D01*
X113865131Y-106854245D01*
X113865130Y-106854250D01*
X113844935Y-107033496D01*
X113844935Y-107033503D01*
X108028575Y-107033503D01*
X108099816Y-106962262D01*
X108195789Y-106809522D01*
X108255368Y-106639255D01*
X108255369Y-106639249D01*
X108275565Y-106460003D01*
X108275565Y-106459997D01*
X108267517Y-106388569D01*
X108279571Y-106319747D01*
X108326921Y-106268367D01*
X108394531Y-106250743D01*
X108456709Y-106269692D01*
X108517973Y-106308187D01*
X108517977Y-106308188D01*
X108517978Y-106308189D01*
X108551009Y-106319747D01*
X108688245Y-106367768D01*
X108688250Y-106367769D01*
X108867496Y-106387965D01*
X108867500Y-106387965D01*
X108867504Y-106387965D01*
X109046749Y-106367769D01*
X109046752Y-106367768D01*
X109046755Y-106367768D01*
X109217022Y-106308189D01*
X109369762Y-106212216D01*
X109497316Y-106084662D01*
X109593289Y-105931922D01*
X109652868Y-105761655D01*
X109655960Y-105734211D01*
X109673065Y-105582403D01*
X109673065Y-105582396D01*
X109652869Y-105403150D01*
X109652868Y-105403145D01*
X109593288Y-105232876D01*
X109497315Y-105080137D01*
X109422281Y-105005103D01*
X121146135Y-105005103D01*
X121166330Y-105184349D01*
X121166331Y-105184354D01*
X121225911Y-105354623D01*
X121314638Y-105495830D01*
X121321884Y-105507362D01*
X121449438Y-105634916D01*
X121539780Y-105691682D01*
X121561195Y-105705138D01*
X121602178Y-105730889D01*
X121739491Y-105778937D01*
X121772445Y-105790468D01*
X121772450Y-105790469D01*
X121951696Y-105810665D01*
X121951700Y-105810665D01*
X121951704Y-105810665D01*
X122130949Y-105790469D01*
X122130952Y-105790468D01*
X122130955Y-105790468D01*
X122301222Y-105730889D01*
X122453962Y-105634916D01*
X122581516Y-105507362D01*
X122677489Y-105354622D01*
X122737068Y-105184355D01*
X122737069Y-105184349D01*
X122757265Y-105005103D01*
X122757265Y-105005096D01*
X122737069Y-104825850D01*
X122737068Y-104825845D01*
X122703466Y-104729816D01*
X122677489Y-104655578D01*
X122581516Y-104502838D01*
X122453962Y-104375284D01*
X122434721Y-104363194D01*
X122301223Y-104279311D01*
X122130954Y-104219731D01*
X122130949Y-104219730D01*
X121951704Y-104199535D01*
X121951696Y-104199535D01*
X121772450Y-104219730D01*
X121772445Y-104219731D01*
X121602176Y-104279311D01*
X121449437Y-104375284D01*
X121321884Y-104502837D01*
X121225911Y-104655576D01*
X121166331Y-104825845D01*
X121166330Y-104825850D01*
X121146135Y-105005096D01*
X121146135Y-105005103D01*
X109422281Y-105005103D01*
X109369762Y-104952584D01*
X109217021Y-104856610D01*
X109046749Y-104797030D01*
X109002861Y-104792085D01*
X108938447Y-104765017D01*
X108929065Y-104756546D01*
X108641676Y-104469157D01*
X108608191Y-104407834D01*
X108613175Y-104338142D01*
X108624363Y-104315504D01*
X108684541Y-104219731D01*
X108701889Y-104192122D01*
X108761468Y-104021855D01*
X108768829Y-103956523D01*
X108781665Y-103842603D01*
X108781665Y-103842596D01*
X108761469Y-103663350D01*
X108761468Y-103663345D01*
X108761468Y-103663344D01*
X108748192Y-103625403D01*
X110175435Y-103625403D01*
X110195630Y-103804649D01*
X110195631Y-103804654D01*
X110255211Y-103974923D01*
X110351184Y-104127661D01*
X110351184Y-104127662D01*
X110478738Y-104255216D01*
X110516996Y-104279255D01*
X110621408Y-104344862D01*
X110631478Y-104351189D01*
X110749155Y-104392366D01*
X110801745Y-104410768D01*
X110801750Y-104410769D01*
X110980996Y-104430965D01*
X110981000Y-104430965D01*
X110981004Y-104430965D01*
X111160249Y-104410769D01*
X111160250Y-104410768D01*
X111160255Y-104410768D01*
X111222790Y-104388885D01*
X111292566Y-104385323D01*
X111353194Y-104420051D01*
X111369849Y-104444038D01*
X111370506Y-104443626D01*
X111407711Y-104502837D01*
X111470184Y-104602262D01*
X111597738Y-104729816D01*
X111653760Y-104765017D01*
X111704711Y-104797032D01*
X111750478Y-104825789D01*
X111920745Y-104885368D01*
X111920750Y-104885369D01*
X112099996Y-104905565D01*
X112100000Y-104905565D01*
X112100004Y-104905565D01*
X112279249Y-104885369D01*
X112279252Y-104885368D01*
X112279255Y-104885368D01*
X112449522Y-104825789D01*
X112602262Y-104729816D01*
X112729816Y-104602262D01*
X112825789Y-104449522D01*
X112829372Y-104439280D01*
X112870092Y-104382506D01*
X112935044Y-104356757D01*
X112987369Y-104363194D01*
X113070737Y-104392366D01*
X113070743Y-104392367D01*
X113070745Y-104392368D01*
X113070746Y-104392368D01*
X113070750Y-104392369D01*
X113249996Y-104412565D01*
X113250000Y-104412565D01*
X113250004Y-104412565D01*
X113429249Y-104392369D01*
X113429252Y-104392368D01*
X113429255Y-104392368D01*
X113599522Y-104332789D01*
X113752262Y-104236816D01*
X113879816Y-104109262D01*
X113975789Y-103956522D01*
X114035368Y-103786255D01*
X114039399Y-103750478D01*
X114055565Y-103607003D01*
X114055565Y-103606996D01*
X114035369Y-103427750D01*
X114035368Y-103427745D01*
X114016636Y-103374211D01*
X113975789Y-103257478D01*
X113879816Y-103104738D01*
X113752262Y-102977184D01*
X113752261Y-102977184D01*
X113599523Y-102881211D01*
X113429254Y-102821631D01*
X113429249Y-102821630D01*
X113250004Y-102801435D01*
X113249996Y-102801435D01*
X113070750Y-102821630D01*
X113070745Y-102821631D01*
X112900476Y-102881211D01*
X112747737Y-102977184D01*
X112620184Y-103104737D01*
X112524212Y-103257475D01*
X112524210Y-103257479D01*
X112520626Y-103267722D01*
X112479903Y-103324497D01*
X112414950Y-103350242D01*
X112362632Y-103343806D01*
X112279257Y-103314632D01*
X112279249Y-103314630D01*
X112100004Y-103294435D01*
X112099996Y-103294435D01*
X111920750Y-103314630D01*
X111920739Y-103314633D01*
X111858208Y-103336513D01*
X111788429Y-103340074D01*
X111727802Y-103305344D01*
X111711150Y-103281361D01*
X111710494Y-103281774D01*
X111610815Y-103123137D01*
X111483262Y-102995584D01*
X111330523Y-102899611D01*
X111160254Y-102840031D01*
X111160249Y-102840030D01*
X110981004Y-102819835D01*
X110980996Y-102819835D01*
X110801750Y-102840030D01*
X110801745Y-102840031D01*
X110631476Y-102899611D01*
X110478737Y-102995584D01*
X110351184Y-103123137D01*
X110255211Y-103275876D01*
X110195631Y-103446145D01*
X110195630Y-103446150D01*
X110175435Y-103625396D01*
X110175435Y-103625403D01*
X108748192Y-103625403D01*
X108701889Y-103493078D01*
X108605916Y-103340338D01*
X108478362Y-103212784D01*
X108478361Y-103212784D01*
X108325623Y-103116811D01*
X108155354Y-103057231D01*
X108155349Y-103057230D01*
X107976104Y-103037035D01*
X107976096Y-103037035D01*
X107796850Y-103057230D01*
X107796845Y-103057231D01*
X107626576Y-103116811D01*
X107473837Y-103212784D01*
X107346284Y-103340337D01*
X107325000Y-103374211D01*
X107299701Y-103414473D01*
X107247368Y-103460763D01*
X107194709Y-103472500D01*
X103841672Y-103472500D01*
X103775700Y-103453494D01*
X103649523Y-103374211D01*
X103479254Y-103314631D01*
X103479249Y-103314630D01*
X103300004Y-103294435D01*
X103299996Y-103294435D01*
X103120750Y-103314630D01*
X103120745Y-103314631D01*
X102950476Y-103374211D01*
X102797737Y-103470184D01*
X102670184Y-103597737D01*
X102574211Y-103750476D01*
X102514631Y-103920745D01*
X102514630Y-103920750D01*
X102494435Y-104099996D01*
X102494435Y-104100003D01*
X100700500Y-104100003D01*
X100700500Y-101500003D01*
X116870235Y-101500003D01*
X116890430Y-101679249D01*
X116890431Y-101679254D01*
X116950011Y-101849523D01*
X117045984Y-102002262D01*
X117173538Y-102129816D01*
X117326278Y-102225789D01*
X117496544Y-102285367D01*
X117496545Y-102285368D01*
X117496550Y-102285369D01*
X117675796Y-102305565D01*
X117675800Y-102305565D01*
X117675804Y-102305565D01*
X117855049Y-102285369D01*
X117855052Y-102285368D01*
X117855055Y-102285368D01*
X118025322Y-102225789D01*
X118178062Y-102129816D01*
X118305616Y-102002262D01*
X118401589Y-101849522D01*
X118461168Y-101679255D01*
X118481365Y-101500000D01*
X118465407Y-101358369D01*
X118461169Y-101320750D01*
X118461168Y-101320745D01*
X118453485Y-101298788D01*
X118401589Y-101150478D01*
X118305616Y-100997738D01*
X118178062Y-100870184D01*
X118143968Y-100848761D01*
X118025323Y-100774211D01*
X117855054Y-100714631D01*
X117855049Y-100714630D01*
X117675804Y-100694435D01*
X117675796Y-100694435D01*
X117496550Y-100714630D01*
X117496545Y-100714631D01*
X117326276Y-100774211D01*
X117173537Y-100870184D01*
X117045984Y-100997737D01*
X116950011Y-101150476D01*
X116890431Y-101320745D01*
X116890430Y-101320750D01*
X116870235Y-101499996D01*
X116870235Y-101500003D01*
X100700500Y-101500003D01*
X100700500Y-99155603D01*
X102962435Y-99155603D01*
X102982630Y-99334849D01*
X102982631Y-99334854D01*
X103042211Y-99505123D01*
X103134527Y-99652042D01*
X103138184Y-99657862D01*
X103265738Y-99785416D01*
X103418478Y-99881389D01*
X103520543Y-99917103D01*
X103588745Y-99940968D01*
X103588750Y-99940969D01*
X103767996Y-99961165D01*
X103768000Y-99961165D01*
X103768004Y-99961165D01*
X103947249Y-99940969D01*
X103947252Y-99940968D01*
X103947255Y-99940968D01*
X103947256Y-99940967D01*
X103947259Y-99940967D01*
X104015457Y-99917103D01*
X104024836Y-99913820D01*
X104094615Y-99910258D01*
X104155243Y-99944987D01*
X104187470Y-100006980D01*
X104181066Y-100076555D01*
X104170786Y-100096834D01*
X104091211Y-100223476D01*
X104031631Y-100393745D01*
X104031630Y-100393750D01*
X104011435Y-100572996D01*
X104011435Y-100573003D01*
X104031630Y-100752249D01*
X104031631Y-100752254D01*
X104091211Y-100922523D01*
X104138472Y-100997738D01*
X104187184Y-101075262D01*
X104314738Y-101202816D01*
X104467478Y-101298789D01*
X104530225Y-101320745D01*
X104637745Y-101358368D01*
X104637750Y-101358369D01*
X104816996Y-101378565D01*
X104817000Y-101378565D01*
X104817004Y-101378565D01*
X104996249Y-101358369D01*
X104996252Y-101358368D01*
X104996255Y-101358368D01*
X105166522Y-101298789D01*
X105319262Y-101202816D01*
X105446816Y-101075262D01*
X105542789Y-100922522D01*
X105602368Y-100752255D01*
X105602369Y-100752249D01*
X105622565Y-100573003D01*
X105622565Y-100572996D01*
X105602369Y-100393750D01*
X105602368Y-100393745D01*
X105542788Y-100223476D01*
X105511073Y-100173003D01*
X107368435Y-100173003D01*
X107388630Y-100352249D01*
X107388631Y-100352254D01*
X107448211Y-100522523D01*
X107535477Y-100661405D01*
X107544184Y-100675262D01*
X107671738Y-100802816D01*
X107824478Y-100898789D01*
X107913148Y-100929816D01*
X107994745Y-100958368D01*
X107994750Y-100958369D01*
X108173996Y-100978565D01*
X108174000Y-100978565D01*
X108174004Y-100978565D01*
X108353249Y-100958369D01*
X108353252Y-100958368D01*
X108353255Y-100958368D01*
X108523522Y-100898789D01*
X108676262Y-100802816D01*
X108803816Y-100675262D01*
X108803819Y-100675256D01*
X108807090Y-100671986D01*
X108868413Y-100638501D01*
X108935727Y-100642626D01*
X108936477Y-100642888D01*
X108936478Y-100642889D01*
X108955434Y-100649522D01*
X109106737Y-100702466D01*
X109106743Y-100702467D01*
X109106745Y-100702468D01*
X109106746Y-100702468D01*
X109106750Y-100702469D01*
X109285996Y-100722665D01*
X109286000Y-100722665D01*
X109286004Y-100722665D01*
X109465249Y-100702469D01*
X109465252Y-100702468D01*
X109465255Y-100702468D01*
X109635522Y-100642889D01*
X109788262Y-100546916D01*
X109915816Y-100419362D01*
X110011789Y-100266622D01*
X110071368Y-100096355D01*
X110073599Y-100076555D01*
X110091565Y-99917103D01*
X110091565Y-99917096D01*
X110081944Y-99831703D01*
X111713435Y-99831703D01*
X111733630Y-100010949D01*
X111733631Y-100010954D01*
X111793211Y-100181223D01*
X111819761Y-100223476D01*
X111889184Y-100333962D01*
X112016738Y-100461516D01*
X112107080Y-100518281D01*
X112152649Y-100546915D01*
X112169478Y-100557489D01*
X112268934Y-100592290D01*
X112339745Y-100617068D01*
X112339750Y-100617069D01*
X112518996Y-100637265D01*
X112519000Y-100637265D01*
X112519004Y-100637265D01*
X112698249Y-100617069D01*
X112698252Y-100617068D01*
X112698255Y-100617068D01*
X112868522Y-100557489D01*
X113021262Y-100461516D01*
X113148816Y-100333962D01*
X113244789Y-100181222D01*
X113304368Y-100010955D01*
X113311182Y-99950478D01*
X113324565Y-99831703D01*
X113324565Y-99831696D01*
X113304369Y-99652450D01*
X113304368Y-99652445D01*
X113252817Y-99505122D01*
X113244789Y-99482178D01*
X113148816Y-99329438D01*
X113021262Y-99201884D01*
X112985239Y-99179249D01*
X112868523Y-99105911D01*
X112698254Y-99046331D01*
X112698249Y-99046330D01*
X112519004Y-99026135D01*
X112518996Y-99026135D01*
X112339750Y-99046330D01*
X112339745Y-99046331D01*
X112169476Y-99105911D01*
X112016737Y-99201884D01*
X111889184Y-99329437D01*
X111793211Y-99482176D01*
X111733631Y-99652445D01*
X111733630Y-99652450D01*
X111713435Y-99831696D01*
X111713435Y-99831703D01*
X110081944Y-99831703D01*
X110071369Y-99737850D01*
X110071368Y-99737845D01*
X110041344Y-99652042D01*
X110011789Y-99567578D01*
X109915816Y-99414838D01*
X109788262Y-99287284D01*
X109652349Y-99201884D01*
X109635521Y-99191310D01*
X109533474Y-99155603D01*
X109521597Y-99151447D01*
X109464823Y-99110726D01*
X109439333Y-99048289D01*
X109425369Y-98924350D01*
X109425368Y-98924345D01*
X109416056Y-98897733D01*
X109365789Y-98754078D01*
X109352650Y-98733168D01*
X109326581Y-98691680D01*
X109269816Y-98601338D01*
X109142262Y-98473784D01*
X109096246Y-98444870D01*
X108989523Y-98377811D01*
X108819254Y-98318231D01*
X108819249Y-98318230D01*
X108640004Y-98298035D01*
X108639996Y-98298035D01*
X108460750Y-98318230D01*
X108460745Y-98318231D01*
X108290476Y-98377811D01*
X108137737Y-98473784D01*
X108010184Y-98601337D01*
X107914211Y-98754076D01*
X107854631Y-98924345D01*
X107854630Y-98924350D01*
X107834435Y-99103596D01*
X107834435Y-99103603D01*
X107854631Y-99282852D01*
X107863682Y-99308719D01*
X107867243Y-99378498D01*
X107832514Y-99439125D01*
X107812612Y-99454667D01*
X107671737Y-99543184D01*
X107544184Y-99670737D01*
X107448211Y-99823476D01*
X107388631Y-99993745D01*
X107388630Y-99993750D01*
X107368435Y-100172996D01*
X107368435Y-100173003D01*
X105511073Y-100173003D01*
X105503581Y-100161080D01*
X105446816Y-100070738D01*
X105352206Y-99976128D01*
X105318721Y-99914805D01*
X105323705Y-99845113D01*
X105365577Y-99789180D01*
X105431041Y-99764763D01*
X105480842Y-99771406D01*
X105520737Y-99785366D01*
X105520743Y-99785367D01*
X105520745Y-99785368D01*
X105520746Y-99785368D01*
X105520750Y-99785369D01*
X105699996Y-99805565D01*
X105700000Y-99805565D01*
X105700004Y-99805565D01*
X105879249Y-99785369D01*
X105879252Y-99785368D01*
X105879255Y-99785368D01*
X106049522Y-99725789D01*
X106202262Y-99629816D01*
X106329816Y-99502262D01*
X106425789Y-99349522D01*
X106485368Y-99179255D01*
X106488033Y-99155603D01*
X106505565Y-99000003D01*
X106505565Y-98999996D01*
X106485369Y-98820750D01*
X106485368Y-98820745D01*
X106462040Y-98754078D01*
X106425789Y-98650478D01*
X106329816Y-98497738D01*
X106202262Y-98370184D01*
X106169379Y-98349522D01*
X106049523Y-98274211D01*
X105879254Y-98214631D01*
X105879249Y-98214630D01*
X105700004Y-98194435D01*
X105699996Y-98194435D01*
X105520750Y-98214630D01*
X105520745Y-98214631D01*
X105350476Y-98274211D01*
X105197737Y-98370184D01*
X105070184Y-98497737D01*
X104974211Y-98650476D01*
X104914631Y-98820745D01*
X104914630Y-98820750D01*
X104894435Y-98999996D01*
X104894435Y-99000003D01*
X104914630Y-99179249D01*
X104914631Y-99179254D01*
X104974211Y-99349523D01*
X105070184Y-99502262D01*
X105164793Y-99596871D01*
X105198278Y-99658194D01*
X105193294Y-99727886D01*
X105151422Y-99783819D01*
X105085958Y-99808236D01*
X105036158Y-99801594D01*
X104996257Y-99787632D01*
X104996249Y-99787630D01*
X104817004Y-99767435D01*
X104816996Y-99767435D01*
X104637750Y-99787630D01*
X104637742Y-99787632D01*
X104560161Y-99814779D01*
X104490382Y-99818340D01*
X104429755Y-99783611D01*
X104397528Y-99721617D01*
X104403934Y-99652042D01*
X104414214Y-99631764D01*
X104445593Y-99581826D01*
X104493789Y-99505122D01*
X104553368Y-99334855D01*
X104553369Y-99334849D01*
X104573565Y-99155603D01*
X104573565Y-99155596D01*
X104553369Y-98976350D01*
X104553368Y-98976345D01*
X104513801Y-98863269D01*
X104493789Y-98806078D01*
X104397816Y-98653338D01*
X104270262Y-98525784D01*
X104224384Y-98496957D01*
X104117523Y-98429811D01*
X103947254Y-98370231D01*
X103947249Y-98370230D01*
X103768004Y-98350035D01*
X103767996Y-98350035D01*
X103588750Y-98370230D01*
X103588745Y-98370231D01*
X103418476Y-98429811D01*
X103265737Y-98525784D01*
X103138184Y-98653337D01*
X103042211Y-98806076D01*
X102982631Y-98976345D01*
X102982630Y-98976350D01*
X102962435Y-99155596D01*
X102962435Y-99155603D01*
X100700500Y-99155603D01*
X100700500Y-97232180D01*
X101345400Y-97232180D01*
X101384715Y-97442497D01*
X101461691Y-97641195D01*
X101462006Y-97642007D01*
X101462008Y-97642013D01*
X101572678Y-97820750D01*
X101574642Y-97823922D01*
X101718786Y-97982041D01*
X101889530Y-98110981D01*
X102026642Y-98179254D01*
X102081058Y-98206350D01*
X102081064Y-98206353D01*
X102247028Y-98253573D01*
X102286852Y-98264904D01*
X102446525Y-98279700D01*
X102446528Y-98279700D01*
X102553272Y-98279700D01*
X102553275Y-98279700D01*
X102712948Y-98264904D01*
X102810781Y-98237068D01*
X102918735Y-98206353D01*
X102918737Y-98206351D01*
X102918740Y-98206351D01*
X103110270Y-98110981D01*
X103281014Y-97982041D01*
X103425158Y-97823922D01*
X103537793Y-97642010D01*
X103615085Y-97442497D01*
X103654400Y-97232180D01*
X103654400Y-97221403D01*
X104239435Y-97221403D01*
X104259630Y-97400649D01*
X104259631Y-97400654D01*
X104319211Y-97570923D01*
X104413811Y-97721477D01*
X104415184Y-97723662D01*
X104542738Y-97851216D01*
X104559428Y-97861703D01*
X104683632Y-97939746D01*
X104695478Y-97947189D01*
X104828176Y-97993622D01*
X104865745Y-98006768D01*
X104865750Y-98006769D01*
X105044996Y-98026965D01*
X105045000Y-98026965D01*
X105045004Y-98026965D01*
X105224249Y-98006769D01*
X105224252Y-98006768D01*
X105224255Y-98006768D01*
X105394522Y-97947189D01*
X105547262Y-97851216D01*
X105674816Y-97723662D01*
X105724806Y-97644103D01*
X106338435Y-97644103D01*
X106358630Y-97823349D01*
X106358631Y-97823354D01*
X106418211Y-97993623D01*
X106498325Y-98121122D01*
X106514184Y-98146362D01*
X106641738Y-98273916D01*
X106716266Y-98320745D01*
X106762880Y-98350035D01*
X106794478Y-98369889D01*
X106964745Y-98429467D01*
X106964745Y-98429468D01*
X106964750Y-98429469D01*
X107143996Y-98449665D01*
X107144000Y-98449665D01*
X107144004Y-98449665D01*
X107323249Y-98429469D01*
X107323252Y-98429468D01*
X107323255Y-98429468D01*
X107493522Y-98369889D01*
X107646262Y-98273916D01*
X107773816Y-98146362D01*
X107869789Y-97993622D01*
X107929368Y-97823355D01*
X107930932Y-97809473D01*
X107949565Y-97644103D01*
X107949565Y-97644096D01*
X107929369Y-97464850D01*
X107929368Y-97464845D01*
X107906907Y-97400655D01*
X107869789Y-97294578D01*
X107773816Y-97141838D01*
X107773815Y-97141837D01*
X107769475Y-97136395D01*
X107771977Y-97134399D01*
X107745229Y-97085413D01*
X107750213Y-97015721D01*
X107792085Y-96959788D01*
X107825442Y-96942013D01*
X107873520Y-96925190D01*
X107884471Y-96918309D01*
X108016575Y-96835303D01*
X108598435Y-96835303D01*
X108618630Y-97014549D01*
X108618631Y-97014554D01*
X108678211Y-97184823D01*
X108731315Y-97269337D01*
X108774184Y-97337562D01*
X108901738Y-97465116D01*
X109054478Y-97561089D01*
X109160758Y-97598278D01*
X109224745Y-97620668D01*
X109224750Y-97620669D01*
X109403996Y-97640865D01*
X109404000Y-97640865D01*
X109404003Y-97640865D01*
X109508056Y-97629141D01*
X109576878Y-97641195D01*
X109628258Y-97688544D01*
X109645160Y-97738476D01*
X109649630Y-97778149D01*
X109709210Y-97948421D01*
X109776527Y-98055555D01*
X109805184Y-98101162D01*
X109932738Y-98228716D01*
X110023080Y-98285481D01*
X110075201Y-98318232D01*
X110085478Y-98324689D01*
X110237292Y-98377811D01*
X110255745Y-98384268D01*
X110255750Y-98384269D01*
X110434996Y-98404465D01*
X110435000Y-98404465D01*
X110435004Y-98404465D01*
X110614249Y-98384269D01*
X110614252Y-98384268D01*
X110614255Y-98384268D01*
X110784522Y-98324689D01*
X110937262Y-98228716D01*
X111064816Y-98101162D01*
X111088897Y-98062836D01*
X111141231Y-98016545D01*
X111210284Y-98005896D01*
X111274133Y-98034271D01*
X111310932Y-98087853D01*
X111359209Y-98225819D01*
X111359211Y-98225822D01*
X111455184Y-98378562D01*
X111582738Y-98506116D01*
X111652773Y-98550122D01*
X111734282Y-98601338D01*
X111735478Y-98602089D01*
X111873760Y-98650476D01*
X111905745Y-98661668D01*
X111905750Y-98661669D01*
X112084996Y-98681865D01*
X112085000Y-98681865D01*
X112085004Y-98681865D01*
X112264249Y-98661669D01*
X112264252Y-98661668D01*
X112264255Y-98661668D01*
X112434522Y-98602089D01*
X112587262Y-98506116D01*
X112714816Y-98378562D01*
X112810789Y-98225822D01*
X112870368Y-98055555D01*
X112872766Y-98034271D01*
X112890565Y-97876303D01*
X112890565Y-97876296D01*
X112870369Y-97697050D01*
X112870368Y-97697045D01*
X112864982Y-97681653D01*
X112810789Y-97526778D01*
X112810301Y-97526002D01*
X112757830Y-97442494D01*
X112714816Y-97374038D01*
X112587262Y-97246484D01*
X112566835Y-97233649D01*
X112434520Y-97150509D01*
X112398534Y-97137917D01*
X112341758Y-97097195D01*
X112316012Y-97032242D01*
X112322448Y-96979924D01*
X112341368Y-96925855D01*
X112341369Y-96925849D01*
X112361565Y-96746603D01*
X112361565Y-96746596D01*
X112341369Y-96567350D01*
X112341368Y-96567345D01*
X112334922Y-96548923D01*
X112281789Y-96397078D01*
X112271328Y-96380430D01*
X112220667Y-96299803D01*
X112647435Y-96299803D01*
X112667630Y-96479049D01*
X112667631Y-96479054D01*
X112727211Y-96649323D01*
X112817700Y-96793335D01*
X112823184Y-96802062D01*
X112950738Y-96929616D01*
X113071610Y-97005565D01*
X113103478Y-97025589D01*
X113280318Y-97087468D01*
X113279574Y-97089592D01*
X113331210Y-97118468D01*
X113364073Y-97180127D01*
X113365867Y-97191374D01*
X113370630Y-97233649D01*
X113430210Y-97403921D01*
X113506919Y-97526002D01*
X113526184Y-97556662D01*
X113653738Y-97684216D01*
X113716516Y-97723662D01*
X113792808Y-97771600D01*
X113806478Y-97780189D01*
X113931434Y-97823913D01*
X113976745Y-97839768D01*
X113976750Y-97839769D01*
X114155996Y-97859965D01*
X114156000Y-97859965D01*
X114156004Y-97859965D01*
X114307826Y-97842859D01*
X114376647Y-97854914D01*
X114428027Y-97902263D01*
X114444929Y-97952195D01*
X114464630Y-98127050D01*
X114464631Y-98127054D01*
X114524211Y-98297323D01*
X114607459Y-98429811D01*
X114620184Y-98450062D01*
X114747738Y-98577616D01*
X114900478Y-98673589D01*
X115049654Y-98725788D01*
X115070745Y-98733168D01*
X115070750Y-98733169D01*
X115249996Y-98753365D01*
X115250000Y-98753365D01*
X115250004Y-98753365D01*
X115429249Y-98733169D01*
X115429252Y-98733168D01*
X115429255Y-98733168D01*
X115599522Y-98673589D01*
X115752262Y-98577616D01*
X115879816Y-98450062D01*
X115975789Y-98297322D01*
X116035368Y-98127055D01*
X116035369Y-98127049D01*
X116049684Y-98000003D01*
X117394435Y-98000003D01*
X117414630Y-98179249D01*
X117414631Y-98179254D01*
X117474211Y-98349523D01*
X117552290Y-98473784D01*
X117570184Y-98502262D01*
X117697738Y-98629816D01*
X117850478Y-98725789D01*
X118020744Y-98785368D01*
X118020745Y-98785368D01*
X118020750Y-98785369D01*
X118199996Y-98805565D01*
X118200000Y-98805565D01*
X118200004Y-98805565D01*
X118379249Y-98785369D01*
X118379252Y-98785368D01*
X118379255Y-98785368D01*
X118549522Y-98725789D01*
X118702262Y-98629816D01*
X118829816Y-98502262D01*
X118865880Y-98444866D01*
X118918210Y-98398579D01*
X118987264Y-98387929D01*
X119051112Y-98416304D01*
X119089485Y-98474693D01*
X119094091Y-98496957D01*
X119114630Y-98679247D01*
X119114632Y-98679257D01*
X119134010Y-98734634D01*
X119137572Y-98804413D01*
X119104651Y-98863269D01*
X119070186Y-98897733D01*
X119070186Y-98897734D01*
X118974212Y-99050475D01*
X118974209Y-99050481D01*
X118973720Y-99051880D01*
X118973160Y-99052660D01*
X118971193Y-99056746D01*
X118970476Y-99056401D01*
X118932995Y-99108654D01*
X118868041Y-99134398D01*
X118842797Y-99134139D01*
X118768653Y-99125785D01*
X118768646Y-99125785D01*
X118589400Y-99145980D01*
X118589395Y-99145981D01*
X118419126Y-99205561D01*
X118266387Y-99301534D01*
X118138834Y-99429087D01*
X118042861Y-99581826D01*
X117983281Y-99752095D01*
X117983280Y-99752100D01*
X117963085Y-99931346D01*
X117963085Y-99931353D01*
X117983280Y-100110599D01*
X117983281Y-100110604D01*
X118042861Y-100280873D01*
X118087710Y-100352249D01*
X118138834Y-100433612D01*
X118266388Y-100561166D01*
X118315922Y-100592290D01*
X118407005Y-100649522D01*
X118419128Y-100657139D01*
X118470921Y-100675262D01*
X118589395Y-100716718D01*
X118589399Y-100716719D01*
X118686457Y-100727654D01*
X118762877Y-100736264D01*
X118827290Y-100763330D01*
X118853987Y-100793512D01*
X118857509Y-100799118D01*
X118857511Y-100799122D01*
X118953484Y-100951862D01*
X119081038Y-101079416D01*
X119233778Y-101175389D01*
X119312157Y-101202815D01*
X119404045Y-101234968D01*
X119404050Y-101234969D01*
X119583296Y-101255165D01*
X119583300Y-101255165D01*
X119583304Y-101255165D01*
X119762549Y-101234969D01*
X119762552Y-101234968D01*
X119762555Y-101234968D01*
X119932822Y-101175389D01*
X120085562Y-101079416D01*
X120213116Y-100951862D01*
X120277899Y-100848759D01*
X120330232Y-100802469D01*
X120399285Y-100791820D01*
X120463134Y-100820195D01*
X120470573Y-100827051D01*
X120573338Y-100929816D01*
X120608424Y-100951862D01*
X120681433Y-100997737D01*
X120726078Y-101025789D01*
X120867464Y-101075262D01*
X120896345Y-101085368D01*
X120896350Y-101085369D01*
X121075596Y-101105565D01*
X121075600Y-101105565D01*
X121075604Y-101105565D01*
X121254849Y-101085369D01*
X121254852Y-101085368D01*
X121254855Y-101085368D01*
X121425122Y-101025789D01*
X121577862Y-100929816D01*
X121705416Y-100802262D01*
X121801389Y-100649522D01*
X121860968Y-100479255D01*
X121866111Y-100433612D01*
X121881165Y-100300003D01*
X121881165Y-100299996D01*
X121860969Y-100120750D01*
X121860968Y-100120745D01*
X121801388Y-99950475D01*
X121767482Y-99896516D01*
X121748481Y-99829280D01*
X121768848Y-99762444D01*
X121806501Y-99725550D01*
X121958862Y-99629816D01*
X122086416Y-99502262D01*
X122182389Y-99349522D01*
X122241968Y-99179255D01*
X122244633Y-99155603D01*
X122262165Y-99000003D01*
X122262165Y-98999996D01*
X122241969Y-98820750D01*
X122241968Y-98820745D01*
X122218640Y-98754078D01*
X122182389Y-98650478D01*
X122086416Y-98497738D01*
X121958862Y-98370184D01*
X121925979Y-98349522D01*
X121806123Y-98274211D01*
X121635854Y-98214631D01*
X121635849Y-98214630D01*
X121456604Y-98194435D01*
X121456596Y-98194435D01*
X121386858Y-98202292D01*
X121318036Y-98190237D01*
X121266657Y-98142888D01*
X121249033Y-98075277D01*
X121255934Y-98038117D01*
X121286466Y-97950862D01*
X121286469Y-97950849D01*
X121306665Y-97771603D01*
X121306665Y-97771596D01*
X121286469Y-97592350D01*
X121286468Y-97592345D01*
X121263524Y-97526776D01*
X121226889Y-97422078D01*
X121213427Y-97400654D01*
X121130915Y-97269337D01*
X121003362Y-97141784D01*
X120850623Y-97045811D01*
X120840208Y-97042167D01*
X120783432Y-97001445D01*
X120757685Y-96936492D01*
X120757943Y-96911243D01*
X120766499Y-96835300D01*
X120767038Y-96830515D01*
X120794104Y-96766101D01*
X120851698Y-96726546D01*
X120921535Y-96724407D01*
X120977939Y-96756717D01*
X121051038Y-96829816D01*
X121059766Y-96835300D01*
X121202824Y-96925190D01*
X121203778Y-96925789D01*
X121316871Y-96965362D01*
X121374045Y-96985368D01*
X121374050Y-96985369D01*
X121533921Y-97003382D01*
X121598335Y-97030448D01*
X121637891Y-97088043D01*
X121643856Y-97119888D01*
X121651684Y-97264257D01*
X121651684Y-97264262D01*
X121701405Y-97443343D01*
X121701409Y-97443351D01*
X121788469Y-97607563D01*
X121885229Y-97721477D01*
X121908795Y-97749221D01*
X122056761Y-97861702D01*
X122056762Y-97861702D01*
X122056763Y-97861703D01*
X122225443Y-97939743D01*
X122225451Y-97939746D01*
X122264868Y-97948422D01*
X122406967Y-97979700D01*
X122406970Y-97979700D01*
X122546227Y-97979700D01*
X122546232Y-97979700D01*
X122684675Y-97964643D01*
X122860811Y-97905296D01*
X123020071Y-97809473D01*
X123155008Y-97681654D01*
X123259313Y-97527815D01*
X123284403Y-97464845D01*
X123328108Y-97355155D01*
X123328109Y-97355151D01*
X123358178Y-97171735D01*
X123348116Y-96986142D01*
X123348115Y-96986137D01*
X123298394Y-96807056D01*
X123298390Y-96807048D01*
X123251782Y-96719137D01*
X123211331Y-96642838D01*
X123211327Y-96642833D01*
X123209266Y-96639793D01*
X123208576Y-96637642D01*
X123208182Y-96636898D01*
X123208315Y-96636827D01*
X123187938Y-96573258D01*
X123205966Y-96505755D01*
X123245927Y-96465213D01*
X123302262Y-96429816D01*
X123429816Y-96302262D01*
X123525789Y-96149522D01*
X123585368Y-95979255D01*
X123586724Y-95967222D01*
X123605565Y-95800003D01*
X123605565Y-95799996D01*
X123585369Y-95620750D01*
X123585368Y-95620745D01*
X123548167Y-95514430D01*
X123525789Y-95450478D01*
X123518231Y-95438450D01*
X123450233Y-95330232D01*
X123429816Y-95297738D01*
X123302262Y-95170184D01*
X123302261Y-95170183D01*
X123149523Y-95074211D01*
X122979254Y-95014631D01*
X122979249Y-95014630D01*
X122800004Y-94994435D01*
X122799996Y-94994435D01*
X122620750Y-95014630D01*
X122620745Y-95014631D01*
X122450476Y-95074211D01*
X122297737Y-95170184D01*
X122170184Y-95297737D01*
X122170182Y-95297740D01*
X122080977Y-95439707D01*
X122028642Y-95485998D01*
X121959589Y-95496645D01*
X121910015Y-95478730D01*
X121902823Y-95474211D01*
X121732554Y-95414631D01*
X121732549Y-95414630D01*
X121553304Y-95394435D01*
X121553296Y-95394435D01*
X121374050Y-95414630D01*
X121374045Y-95414631D01*
X121203776Y-95474211D01*
X121051037Y-95570184D01*
X120923484Y-95697737D01*
X120827511Y-95850476D01*
X120767931Y-96020745D01*
X120767930Y-96020749D01*
X120755161Y-96134085D01*
X120728094Y-96198499D01*
X120670500Y-96238054D01*
X120600663Y-96240191D01*
X120544260Y-96207882D01*
X120471162Y-96134784D01*
X120318423Y-96038811D01*
X120148154Y-95979231D01*
X120148149Y-95979230D01*
X119968904Y-95959035D01*
X119968896Y-95959035D01*
X119789650Y-95979230D01*
X119789645Y-95979231D01*
X119619376Y-96038811D01*
X119466637Y-96134784D01*
X119339084Y-96262337D01*
X119243110Y-96415078D01*
X119202043Y-96532443D01*
X119187762Y-96573258D01*
X119185983Y-96578341D01*
X119145261Y-96635117D01*
X119080309Y-96660865D01*
X119055059Y-96660607D01*
X118926605Y-96646135D01*
X118926596Y-96646135D01*
X118747350Y-96666330D01*
X118747345Y-96666331D01*
X118577076Y-96725911D01*
X118424337Y-96821884D01*
X118296784Y-96949437D01*
X118200813Y-97102173D01*
X118192970Y-97124587D01*
X118152246Y-97181362D01*
X118089813Y-97206849D01*
X118020750Y-97214630D01*
X117850478Y-97274210D01*
X117697737Y-97370184D01*
X117570184Y-97497737D01*
X117474211Y-97650476D01*
X117414631Y-97820745D01*
X117414630Y-97820750D01*
X117394435Y-97999996D01*
X117394435Y-98000003D01*
X116049684Y-98000003D01*
X116055565Y-97947803D01*
X116055565Y-97947796D01*
X116035369Y-97768550D01*
X116035368Y-97768545D01*
X116005860Y-97684215D01*
X115975789Y-97598278D01*
X115879816Y-97445538D01*
X115752262Y-97317984D01*
X115715012Y-97294578D01*
X115599523Y-97222011D01*
X115431121Y-97163085D01*
X115374345Y-97122363D01*
X115348598Y-97057410D01*
X115362054Y-96988849D01*
X115375134Y-96968724D01*
X115377808Y-96965369D01*
X115377816Y-96965362D01*
X115459542Y-96835296D01*
X115477494Y-96806726D01*
X115478879Y-96807596D01*
X115519971Y-96762071D01*
X115587396Y-96743748D01*
X115654022Y-96764787D01*
X115672564Y-96780042D01*
X115676184Y-96783662D01*
X115803738Y-96911216D01*
X115864568Y-96949438D01*
X115952438Y-97004651D01*
X115956478Y-97007189D01*
X116126744Y-97066767D01*
X116126745Y-97066768D01*
X116126750Y-97066769D01*
X116305996Y-97086965D01*
X116306000Y-97086965D01*
X116306004Y-97086965D01*
X116485249Y-97066769D01*
X116485252Y-97066768D01*
X116485255Y-97066768D01*
X116655522Y-97007189D01*
X116808262Y-96911216D01*
X116935816Y-96783662D01*
X117031789Y-96630922D01*
X117091368Y-96460655D01*
X117091369Y-96460650D01*
X117093150Y-96444844D01*
X117120216Y-96380430D01*
X117177811Y-96340875D01*
X117247647Y-96338737D01*
X117257325Y-96341686D01*
X117432737Y-96403066D01*
X117432743Y-96403067D01*
X117432745Y-96403068D01*
X117432746Y-96403068D01*
X117432750Y-96403069D01*
X117611996Y-96423265D01*
X117612000Y-96423265D01*
X117612004Y-96423265D01*
X117791249Y-96403069D01*
X117791252Y-96403068D01*
X117791255Y-96403068D01*
X117961522Y-96343489D01*
X118114262Y-96247516D01*
X118241816Y-96119962D01*
X118337789Y-95967222D01*
X118397368Y-95796955D01*
X118397369Y-95796949D01*
X118417565Y-95617703D01*
X118417565Y-95617696D01*
X118397369Y-95438450D01*
X118397368Y-95438445D01*
X118389035Y-95414630D01*
X118337789Y-95268178D01*
X118241816Y-95115438D01*
X118114262Y-94987884D01*
X118106567Y-94983049D01*
X117961523Y-94891911D01*
X117791254Y-94832331D01*
X117791249Y-94832330D01*
X117612004Y-94812135D01*
X117611996Y-94812135D01*
X117432750Y-94832330D01*
X117432745Y-94832331D01*
X117262476Y-94891911D01*
X117109737Y-94987884D01*
X116982184Y-95115437D01*
X116886211Y-95268176D01*
X116826631Y-95438445D01*
X116826631Y-95438447D01*
X116824849Y-95454261D01*
X116797779Y-95518673D01*
X116740183Y-95558226D01*
X116670346Y-95560361D01*
X116660674Y-95557413D01*
X116485262Y-95496033D01*
X116485249Y-95496030D01*
X116306004Y-95475835D01*
X116305996Y-95475835D01*
X116126750Y-95496030D01*
X116126745Y-95496031D01*
X115956476Y-95555611D01*
X115803737Y-95651584D01*
X115676184Y-95779137D01*
X115576506Y-95937774D01*
X115575125Y-95936906D01*
X115534002Y-95982444D01*
X115466573Y-96000750D01*
X115399952Y-95979695D01*
X115381435Y-95964457D01*
X115250262Y-95833284D01*
X115097523Y-95737311D01*
X114927254Y-95677731D01*
X114927249Y-95677730D01*
X114748004Y-95657535D01*
X114747996Y-95657535D01*
X114568750Y-95677730D01*
X114568745Y-95677731D01*
X114398476Y-95737311D01*
X114250020Y-95830593D01*
X114182783Y-95849593D01*
X114115948Y-95829225D01*
X114087101Y-95802911D01*
X114082817Y-95797539D01*
X113955262Y-95669984D01*
X113802523Y-95574011D01*
X113632254Y-95514431D01*
X113632249Y-95514430D01*
X113453004Y-95494235D01*
X113452996Y-95494235D01*
X113273750Y-95514430D01*
X113273745Y-95514431D01*
X113103476Y-95574011D01*
X112950737Y-95669984D01*
X112823184Y-95797537D01*
X112727211Y-95950276D01*
X112667631Y-96120545D01*
X112667630Y-96120550D01*
X112647435Y-96299796D01*
X112647435Y-96299803D01*
X112220667Y-96299803D01*
X112220665Y-96299800D01*
X112185816Y-96244338D01*
X112058262Y-96116784D01*
X111982708Y-96069310D01*
X111905523Y-96020811D01*
X111735254Y-95961231D01*
X111735249Y-95961230D01*
X111556004Y-95941035D01*
X111555996Y-95941035D01*
X111376750Y-95961230D01*
X111376745Y-95961231D01*
X111206476Y-96020811D01*
X111053739Y-96116783D01*
X110950099Y-96220423D01*
X110888776Y-96253907D01*
X110819084Y-96248923D01*
X110763151Y-96207051D01*
X110738734Y-96141586D01*
X110739198Y-96118853D01*
X110739432Y-96116784D01*
X110739565Y-96115600D01*
X110739337Y-96113578D01*
X110719369Y-95936350D01*
X110719368Y-95936345D01*
X110671657Y-95799996D01*
X110659789Y-95766078D01*
X110641713Y-95737311D01*
X110589257Y-95653827D01*
X110563816Y-95613338D01*
X110436262Y-95485784D01*
X110416889Y-95473611D01*
X110283523Y-95389811D01*
X110113254Y-95330231D01*
X110113249Y-95330230D01*
X109934004Y-95310035D01*
X109933996Y-95310035D01*
X109754750Y-95330230D01*
X109754745Y-95330231D01*
X109584476Y-95389811D01*
X109431737Y-95485784D01*
X109304184Y-95613337D01*
X109208210Y-95766078D01*
X109148630Y-95936350D01*
X109140907Y-96004896D01*
X109113840Y-96069310D01*
X109058651Y-96108050D01*
X109054482Y-96109509D01*
X109054475Y-96109512D01*
X108901737Y-96205484D01*
X108774184Y-96333037D01*
X108678211Y-96485776D01*
X108618631Y-96656045D01*
X108618630Y-96656050D01*
X108598435Y-96835296D01*
X108598435Y-96835303D01*
X108016575Y-96835303D01*
X108026262Y-96829216D01*
X108153816Y-96701662D01*
X108249789Y-96548922D01*
X108309368Y-96378655D01*
X108309369Y-96378649D01*
X108329565Y-96199403D01*
X108329565Y-96199396D01*
X108309369Y-96020150D01*
X108309368Y-96020145D01*
X108288753Y-95961230D01*
X108249789Y-95849878D01*
X108237671Y-95830593D01*
X108153815Y-95697137D01*
X108026262Y-95569584D01*
X107873523Y-95473611D01*
X107703254Y-95414031D01*
X107703249Y-95414030D01*
X107524004Y-95393835D01*
X107523996Y-95393835D01*
X107344750Y-95414030D01*
X107344745Y-95414031D01*
X107174476Y-95473611D01*
X107021737Y-95569584D01*
X106894184Y-95697137D01*
X106798211Y-95849876D01*
X106738631Y-96020145D01*
X106738630Y-96020150D01*
X106718435Y-96199396D01*
X106718435Y-96199403D01*
X106738630Y-96378649D01*
X106738631Y-96378654D01*
X106798211Y-96548923D01*
X106894184Y-96701662D01*
X106898525Y-96707105D01*
X106896022Y-96709101D01*
X106922770Y-96758086D01*
X106917786Y-96827778D01*
X106875914Y-96883711D01*
X106842560Y-96901485D01*
X106794479Y-96918309D01*
X106641737Y-97014284D01*
X106514184Y-97141837D01*
X106418211Y-97294576D01*
X106358631Y-97464845D01*
X106358630Y-97464850D01*
X106338435Y-97644096D01*
X106338435Y-97644103D01*
X105724806Y-97644103D01*
X105770789Y-97570922D01*
X105830368Y-97400655D01*
X105833367Y-97374037D01*
X105850565Y-97221403D01*
X105850565Y-97221396D01*
X105830369Y-97042150D01*
X105830368Y-97042145D01*
X105789653Y-96925788D01*
X105770789Y-96871878D01*
X105747805Y-96835300D01*
X105715359Y-96783662D01*
X105674816Y-96719138D01*
X105547262Y-96591584D01*
X105526186Y-96578341D01*
X105394523Y-96495611D01*
X105224254Y-96436031D01*
X105224249Y-96436030D01*
X105045004Y-96415835D01*
X105044996Y-96415835D01*
X104865750Y-96436030D01*
X104865745Y-96436031D01*
X104695476Y-96495611D01*
X104542737Y-96591584D01*
X104415184Y-96719137D01*
X104319211Y-96871876D01*
X104259631Y-97042145D01*
X104259630Y-97042150D01*
X104239435Y-97221396D01*
X104239435Y-97221403D01*
X103654400Y-97221403D01*
X103654400Y-97018220D01*
X103615085Y-96807903D01*
X103537793Y-96608390D01*
X103527387Y-96591584D01*
X103425163Y-96426486D01*
X103425161Y-96426483D01*
X103425158Y-96426478D01*
X103281014Y-96268359D01*
X103110270Y-96139419D01*
X103064813Y-96116784D01*
X102918741Y-96044049D01*
X102918735Y-96044046D01*
X102712950Y-95985496D01*
X102712947Y-95985495D01*
X102590720Y-95974169D01*
X102553275Y-95970700D01*
X102446525Y-95970700D01*
X102411794Y-95973918D01*
X102286852Y-95985495D01*
X102286849Y-95985496D01*
X102081064Y-96044046D01*
X102081058Y-96044049D01*
X101889529Y-96139419D01*
X101726760Y-96262337D01*
X101718786Y-96268359D01*
X101574642Y-96426478D01*
X101574640Y-96426479D01*
X101574638Y-96426483D01*
X101574636Y-96426486D01*
X101462008Y-96608386D01*
X101462006Y-96608392D01*
X101451653Y-96635117D01*
X101384715Y-96807903D01*
X101345400Y-97018220D01*
X101345400Y-97232180D01*
X100700500Y-97232180D01*
X100700500Y-95034411D01*
X100720185Y-94967372D01*
X100736819Y-94946730D01*
X101546731Y-94136819D01*
X101608054Y-94103334D01*
X101634412Y-94100500D01*
X102143995Y-94100500D01*
X102235041Y-94082389D01*
X102279328Y-94073580D01*
X102406811Y-94020775D01*
X102521542Y-93944114D01*
X102619114Y-93846542D01*
X102695775Y-93731811D01*
X102748580Y-93604328D01*
X102762306Y-93535323D01*
X102775500Y-93468995D01*
X102775500Y-93369503D01*
X103239435Y-93369503D01*
X103259630Y-93548749D01*
X103259631Y-93548754D01*
X103319211Y-93719023D01*
X103399337Y-93846542D01*
X103415184Y-93871762D01*
X103542738Y-93999316D01*
X103695478Y-94095289D01*
X103814164Y-94136819D01*
X103865745Y-94154868D01*
X103865750Y-94154869D01*
X104044996Y-94175065D01*
X104045000Y-94175065D01*
X104045004Y-94175065D01*
X104224249Y-94154869D01*
X104224252Y-94154868D01*
X104224255Y-94154868D01*
X104394522Y-94095289D01*
X104547262Y-93999316D01*
X104674816Y-93871762D01*
X104770789Y-93719022D01*
X104830368Y-93548755D01*
X104830369Y-93548749D01*
X104850565Y-93369503D01*
X104850565Y-93369496D01*
X104830369Y-93190250D01*
X104830368Y-93190245D01*
X104820974Y-93163398D01*
X104770789Y-93019978D01*
X104765086Y-93010903D01*
X105179435Y-93010903D01*
X105199630Y-93190149D01*
X105199631Y-93190154D01*
X105259211Y-93360423D01*
X105347518Y-93500962D01*
X105355184Y-93513162D01*
X105482738Y-93640716D01*
X105570144Y-93695637D01*
X105634731Y-93736220D01*
X105635478Y-93736689D01*
X105770882Y-93784069D01*
X105805745Y-93796268D01*
X105805750Y-93796269D01*
X105984996Y-93816465D01*
X105985000Y-93816465D01*
X105985004Y-93816465D01*
X106164249Y-93796269D01*
X106164252Y-93796268D01*
X106164255Y-93796268D01*
X106334522Y-93736689D01*
X106487262Y-93640716D01*
X106614816Y-93513162D01*
X106710789Y-93360422D01*
X106770368Y-93190155D01*
X106771743Y-93177954D01*
X106790565Y-93010903D01*
X106790565Y-93010896D01*
X106789191Y-92998703D01*
X108232435Y-92998703D01*
X108252630Y-93177949D01*
X108252631Y-93177954D01*
X108312211Y-93348223D01*
X108388098Y-93468995D01*
X108408184Y-93500962D01*
X108535738Y-93628516D01*
X108557677Y-93642301D01*
X108670780Y-93713369D01*
X108688478Y-93724489D01*
X108858745Y-93784067D01*
X108858745Y-93784068D01*
X108858750Y-93784069D01*
X109037996Y-93804265D01*
X109038000Y-93804265D01*
X109038004Y-93804265D01*
X109217249Y-93784069D01*
X109217252Y-93784068D01*
X109217255Y-93784068D01*
X109387522Y-93724489D01*
X109540262Y-93628516D01*
X109667816Y-93500962D01*
X109763789Y-93348222D01*
X109798787Y-93248203D01*
X110829435Y-93248203D01*
X110849630Y-93427449D01*
X110849631Y-93427454D01*
X110909211Y-93597723D01*
X110994567Y-93733565D01*
X111005184Y-93750462D01*
X111132738Y-93878016D01*
X111285478Y-93973989D01*
X111419173Y-94020771D01*
X111455745Y-94033568D01*
X111455750Y-94033569D01*
X111634996Y-94053765D01*
X111635000Y-94053765D01*
X111635004Y-94053765D01*
X111814249Y-94033569D01*
X111814252Y-94033568D01*
X111814255Y-94033568D01*
X111984522Y-93973989D01*
X112137262Y-93878016D01*
X112264816Y-93750462D01*
X112360789Y-93597722D01*
X112420368Y-93427455D01*
X112421576Y-93416733D01*
X112440565Y-93248203D01*
X112440565Y-93248196D01*
X112420369Y-93068950D01*
X112420368Y-93068945D01*
X112371050Y-92928003D01*
X113319435Y-92928003D01*
X113339630Y-93107249D01*
X113339631Y-93107254D01*
X113399211Y-93277523D01*
X113458570Y-93371991D01*
X113495184Y-93430262D01*
X113622738Y-93557816D01*
X113775478Y-93653789D01*
X113864220Y-93684841D01*
X113945745Y-93713368D01*
X113945750Y-93713369D01*
X114124996Y-93733565D01*
X114125000Y-93733565D01*
X114125004Y-93733565D01*
X114304249Y-93713369D01*
X114304252Y-93713368D01*
X114304255Y-93713368D01*
X114474522Y-93653789D01*
X114627262Y-93557816D01*
X114677651Y-93507426D01*
X114738972Y-93473942D01*
X114808664Y-93478926D01*
X114864597Y-93520797D01*
X114882373Y-93554154D01*
X114905210Y-93619421D01*
X114976932Y-93733565D01*
X115001184Y-93772162D01*
X115128738Y-93899716D01*
X115281478Y-93995689D01*
X115389730Y-94033568D01*
X115451745Y-94055268D01*
X115451750Y-94055269D01*
X115630996Y-94075465D01*
X115631000Y-94075465D01*
X115631004Y-94075465D01*
X115810249Y-94055269D01*
X115810252Y-94055268D01*
X115810255Y-94055268D01*
X115980522Y-93995689D01*
X116133262Y-93899716D01*
X116260816Y-93772162D01*
X116356789Y-93619422D01*
X116416368Y-93449155D01*
X116420021Y-93416733D01*
X116436565Y-93269903D01*
X116436565Y-93269896D01*
X116416369Y-93090650D01*
X116416368Y-93090645D01*
X116401701Y-93048728D01*
X116356789Y-92920378D01*
X116260816Y-92767638D01*
X116133262Y-92640084D01*
X116098727Y-92618384D01*
X115980523Y-92544111D01*
X115810254Y-92484531D01*
X115810249Y-92484530D01*
X115631004Y-92464335D01*
X115630996Y-92464335D01*
X115451750Y-92484530D01*
X115451745Y-92484531D01*
X115281476Y-92544111D01*
X115128737Y-92640084D01*
X115078349Y-92690472D01*
X115017026Y-92723956D01*
X114947334Y-92718971D01*
X114891401Y-92677100D01*
X114873628Y-92643745D01*
X114850790Y-92578480D01*
X114850789Y-92578478D01*
X114754816Y-92425738D01*
X114627262Y-92298184D01*
X114627262Y-92298183D01*
X114474523Y-92202211D01*
X114304254Y-92142631D01*
X114304249Y-92142630D01*
X114125004Y-92122435D01*
X114124996Y-92122435D01*
X113945750Y-92142630D01*
X113945745Y-92142631D01*
X113775476Y-92202211D01*
X113622737Y-92298184D01*
X113495184Y-92425737D01*
X113399211Y-92578476D01*
X113339631Y-92748745D01*
X113339630Y-92748750D01*
X113319435Y-92927996D01*
X113319435Y-92928003D01*
X112371050Y-92928003D01*
X112368381Y-92920376D01*
X112360789Y-92898678D01*
X112264816Y-92745938D01*
X112137262Y-92618384D01*
X112137261Y-92618383D01*
X111984523Y-92522411D01*
X111814254Y-92462831D01*
X111814249Y-92462830D01*
X111635004Y-92442635D01*
X111634996Y-92442635D01*
X111455750Y-92462830D01*
X111455745Y-92462831D01*
X111285476Y-92522411D01*
X111132737Y-92618384D01*
X111005184Y-92745937D01*
X110909211Y-92898676D01*
X110849631Y-93068945D01*
X110849630Y-93068950D01*
X110829435Y-93248196D01*
X110829435Y-93248203D01*
X109798787Y-93248203D01*
X109823368Y-93177955D01*
X109827275Y-93143278D01*
X109843565Y-92998703D01*
X109843565Y-92998696D01*
X109823369Y-92819450D01*
X109823368Y-92819445D01*
X109805240Y-92767637D01*
X109763789Y-92649178D01*
X109667816Y-92496438D01*
X109540262Y-92368884D01*
X109427744Y-92298184D01*
X109387523Y-92272911D01*
X109217254Y-92213331D01*
X109217249Y-92213330D01*
X109038004Y-92193135D01*
X109037996Y-92193135D01*
X108858750Y-92213330D01*
X108858745Y-92213331D01*
X108688476Y-92272911D01*
X108535737Y-92368884D01*
X108408184Y-92496437D01*
X108312211Y-92649176D01*
X108252631Y-92819445D01*
X108252630Y-92819450D01*
X108232435Y-92998696D01*
X108232435Y-92998703D01*
X106789191Y-92998703D01*
X106770369Y-92831650D01*
X106770368Y-92831645D01*
X106747971Y-92767637D01*
X106710789Y-92661378D01*
X106699709Y-92643745D01*
X106614815Y-92508637D01*
X106487262Y-92381084D01*
X106334523Y-92285111D01*
X106164254Y-92225531D01*
X106164249Y-92225530D01*
X105985004Y-92205335D01*
X105984996Y-92205335D01*
X105805750Y-92225530D01*
X105805745Y-92225531D01*
X105635476Y-92285111D01*
X105482737Y-92381084D01*
X105355184Y-92508637D01*
X105259211Y-92661376D01*
X105199631Y-92831645D01*
X105199630Y-92831650D01*
X105179435Y-93010896D01*
X105179435Y-93010903D01*
X104765086Y-93010903D01*
X104765082Y-93010896D01*
X104694570Y-92898676D01*
X104674816Y-92867238D01*
X104547262Y-92739684D01*
X104522231Y-92723956D01*
X104394523Y-92643711D01*
X104224254Y-92584131D01*
X104224249Y-92584130D01*
X104045004Y-92563935D01*
X104044996Y-92563935D01*
X103865750Y-92584130D01*
X103865745Y-92584131D01*
X103695476Y-92643711D01*
X103542737Y-92739684D01*
X103415184Y-92867237D01*
X103319211Y-93019976D01*
X103259631Y-93190245D01*
X103259630Y-93190250D01*
X103239435Y-93369496D01*
X103239435Y-93369503D01*
X102775500Y-93369503D01*
X102775500Y-90224500D01*
X102795185Y-90157461D01*
X102847989Y-90111706D01*
X102899500Y-90100500D01*
X112477410Y-90100500D01*
X117700500Y-90100500D01*
X117767539Y-90120185D01*
G37*
%TD.AperFunction*%
%TD*%
M02*
