%TF.GenerationSoftware,KiCad,Pcbnew,7.0.5*%
%TF.CreationDate,2023-09-25T01:54:48-05:00*%
%TF.ProjectId,Chimera_0005_Stepper,4368696d-6572-4615-9f30-3030355f5374,rev?*%
%TF.SameCoordinates,Original*%
%TF.FileFunction,Copper,L1,Top*%
%TF.FilePolarity,Positive*%
%FSLAX46Y46*%
G04 Gerber Fmt 4.6, Leading zero omitted, Abs format (unit mm)*
G04 Created by KiCad (PCBNEW 7.0.5) date 2023-09-25 01:54:48*
%MOMM*%
%LPD*%
G01*
G04 APERTURE LIST*
G04 Aperture macros list*
%AMRoundRect*
0 Rectangle with rounded corners*
0 $1 Rounding radius*
0 $2 $3 $4 $5 $6 $7 $8 $9 X,Y pos of 4 corners*
0 Add a 4 corners polygon primitive as box body*
4,1,4,$2,$3,$4,$5,$6,$7,$8,$9,$2,$3,0*
0 Add four circle primitives for the rounded corners*
1,1,$1+$1,$2,$3*
1,1,$1+$1,$4,$5*
1,1,$1+$1,$6,$7*
1,1,$1+$1,$8,$9*
0 Add four rect primitives between the rounded corners*
20,1,$1+$1,$2,$3,$4,$5,0*
20,1,$1+$1,$4,$5,$6,$7,0*
20,1,$1+$1,$6,$7,$8,$9,0*
20,1,$1+$1,$8,$9,$2,$3,0*%
G04 Aperture macros list end*
%TA.AperFunction,ComponentPad*%
%ADD10C,2.600000*%
%TD*%
%TA.AperFunction,SMDPad,CuDef*%
%ADD11RoundRect,0.225000X-0.225000X-0.250000X0.225000X-0.250000X0.225000X0.250000X-0.225000X0.250000X0*%
%TD*%
%TA.AperFunction,SMDPad,CuDef*%
%ADD12R,1.335001X1.500000*%
%TD*%
%TA.AperFunction,SMDPad,CuDef*%
%ADD13RoundRect,0.200000X0.275000X-0.200000X0.275000X0.200000X-0.275000X0.200000X-0.275000X-0.200000X0*%
%TD*%
%TA.AperFunction,SMDPad,CuDef*%
%ADD14RoundRect,0.200000X-0.200000X-0.275000X0.200000X-0.275000X0.200000X0.275000X-0.200000X0.275000X0*%
%TD*%
%TA.AperFunction,SMDPad,CuDef*%
%ADD15R,0.350000X1.450000*%
%TD*%
%TA.AperFunction,SMDPad,CuDef*%
%ADD16O,1.731496X0.343002*%
%TD*%
%TA.AperFunction,SMDPad,CuDef*%
%ADD17R,3.100000X5.600000*%
%TD*%
%TA.AperFunction,SMDPad,CuDef*%
%ADD18RoundRect,0.200000X-0.275000X0.200000X-0.275000X-0.200000X0.275000X-0.200000X0.275000X0.200000X0*%
%TD*%
%TA.AperFunction,SMDPad,CuDef*%
%ADD19R,0.300000X1.550013*%
%TD*%
%TA.AperFunction,SMDPad,CuDef*%
%ADD20R,0.300000X1.524003*%
%TD*%
%TA.AperFunction,SMDPad,CuDef*%
%ADD21R,1.300000X2.800000*%
%TD*%
%TA.AperFunction,SMDPad,CuDef*%
%ADD22RoundRect,0.250000X-0.550000X1.500000X-0.550000X-1.500000X0.550000X-1.500000X0.550000X1.500000X0*%
%TD*%
%TA.AperFunction,SMDPad,CuDef*%
%ADD23RoundRect,0.225000X-0.250000X0.225000X-0.250000X-0.225000X0.250000X-0.225000X0.250000X0.225000X0*%
%TD*%
%TA.AperFunction,SMDPad,CuDef*%
%ADD24RoundRect,0.225000X0.250000X-0.225000X0.250000X0.225000X-0.250000X0.225000X-0.250000X-0.225000X0*%
%TD*%
%TA.AperFunction,ComponentPad*%
%ADD25C,3.600000*%
%TD*%
%TA.AperFunction,ConnectorPad*%
%ADD26C,6.400000*%
%TD*%
%TA.AperFunction,SMDPad,CuDef*%
%ADD27R,0.800000X0.800000*%
%TD*%
%TA.AperFunction,ViaPad*%
%ADD28C,0.600000*%
%TD*%
%TA.AperFunction,Conductor*%
%ADD29C,0.254000*%
%TD*%
%TA.AperFunction,Conductor*%
%ADD30C,0.500000*%
%TD*%
%TA.AperFunction,Conductor*%
%ADD31C,0.200000*%
%TD*%
%TA.AperFunction,Conductor*%
%ADD32C,0.152400*%
%TD*%
G04 APERTURE END LIST*
D10*
%TO.P,U3,6,6*%
%TO.N,+12V*%
X121400050Y-139700000D03*
%TO.P,U3,5,5*%
%TO.N,Motor_D*%
X116320040Y-139700000D03*
%TO.P,U3,4,4*%
%TO.N,Motor_C*%
X111240030Y-139700000D03*
%TO.P,U3,3,3*%
%TO.N,Motor_B*%
X106160020Y-139700000D03*
%TO.P,U3,2,2*%
%TO.N,Motor_A*%
X101080010Y-139700000D03*
%TO.P,U3,1,1*%
%TO.N,GND*%
X96000000Y-139700000D03*
%TD*%
D11*
%TO.P,C6,1*%
%TO.N,Net-(U1-CP1)*%
X107825000Y-100560000D03*
%TO.P,C6,2*%
%TO.N,Net-(U1-CP2)*%
X109375000Y-100560000D03*
%TD*%
D12*
%TO.P,F1,1,1*%
%TO.N,Net-(CN1-1-Pad3)*%
X116742494Y-86860000D03*
%TO.P,F1,2,2*%
%TO.N,+5V*%
X114457506Y-86860000D03*
%TD*%
D13*
%TO.P,R17,1*%
%TO.N,Net-(U1-MODE1)*%
X100987500Y-98585000D03*
%TO.P,R17,2*%
%TO.N,+3V3*%
X100987500Y-96935000D03*
%TD*%
%TO.P,R14,1*%
%TO.N,Net-(U1-DECAY)*%
X116600000Y-98585000D03*
%TO.P,R14,2*%
%TO.N,+3V3*%
X116600000Y-96935000D03*
%TD*%
D14*
%TO.P,R5,1*%
%TO.N,GND*%
X103100000Y-107900000D03*
%TO.P,R5,2*%
%TO.N,Net-(U1-ISENB)*%
X104750000Y-107900000D03*
%TD*%
D15*
%TO.P,U2,1,1*%
%TO.N,GND*%
X99450000Y-72835000D03*
%TO.P,U2,3,1*%
%TO.N,Net-(CN1-1-Pad74)*%
X99950000Y-72835000D03*
%TO.P,U2,5,1*%
%TO.N,Net-(CN1-1-Pad71)*%
X100450000Y-72835000D03*
%TO.P,U2,7,1*%
%TO.N,Net-(CN1-1-Pad69)*%
X100950000Y-72835000D03*
%TO.P,U2,9,1*%
%TO.N,Net-(CN1-1-Pad67)*%
X101450000Y-72835000D03*
%TO.P,U2,11,1*%
%TO.N,Net-(CN1-1-Pad66)*%
X101950000Y-72835000D03*
%TO.P,U2,13,13*%
%TO.N,Net-(CN1-20-Pad63)*%
X102450000Y-72835000D03*
%TO.P,U2,15,15*%
%TO.N,Net-(CN1-20-Pad61)*%
X102950000Y-72835000D03*
%TO.P,U2,17,17*%
%TO.N,Net-(CN1-20-Pad59)*%
X103450000Y-72835000D03*
%TO.P,U2,19,19*%
%TO.N,Fault*%
X103950000Y-72835000D03*
%TO.P,U2,21,20*%
%TO.N,Direction*%
X104450000Y-72835000D03*
%TO.P,U2,23,20*%
%TO.N,STEP_INC*%
X104950000Y-72835000D03*
%TO.P,U2,25,20*%
%TO.N,Net-(CN1-20-Pad51)*%
X105450000Y-72835000D03*
%TO.P,U2,27,20*%
%TO.N,Net-(CN1-20-Pad49)*%
X105950000Y-72835000D03*
%TO.P,U2,29,20*%
%TO.N,Net-(CN1-20-Pad47)*%
X106450000Y-72835000D03*
%TO.P,U2,31,20*%
%TO.N,Net-(CN1-20-Pad45)*%
X106950000Y-72835000D03*
%TO.P,U2,33,20*%
%TO.N,Net-(CN1-20-Pad43)*%
X107450000Y-72835000D03*
%TO.P,U2,35,20*%
%TO.N,Net-(CN1-20-Pad41)*%
X107950000Y-72835000D03*
%TO.P,U2,37,20*%
%TO.N,Net-(CN1-20-Pad39)*%
X108450000Y-72835000D03*
%TO.P,U2,39,20*%
%TO.N,Net-(CN1-20-Pad37)*%
X108950000Y-72835000D03*
%TO.P,U2,41,20*%
%TO.N,Net-(CN1-20-Pad35)*%
X109450000Y-72835000D03*
%TO.P,U2,43,20*%
%TO.N,Net-(CN1-20-Pad33)*%
X109950000Y-72835000D03*
%TO.P,U2,45,20*%
%TO.N,Net-(CN1-20-Pad31)*%
X110450000Y-72835000D03*
%TO.P,U2,47,20*%
%TO.N,Net-(CN1-20-Pad29)*%
X110950000Y-72835000D03*
%TO.P,U2,49,20*%
%TO.N,Net-(CN1-20-Pad27)*%
X111450000Y-72835000D03*
%TO.P,U2,51,20*%
%TO.N,Net-(CN1-20-Pad25)*%
X111950000Y-72835000D03*
%TO.P,U2,53,20*%
%TO.N,Net-(CN1-20-Pad23)*%
X112450000Y-72835000D03*
%TO.P,U2,55,20*%
%TO.N,Net-(CN1-20-Pad21)*%
X112950000Y-72835000D03*
%TO.P,U2,57,20*%
%TO.N,20*%
X113450000Y-72835000D03*
%TO.P,U2,67,1*%
%TO.N,10*%
X115950000Y-72835000D03*
%TO.P,U2,69,1*%
%TO.N,8*%
X116450000Y-72835000D03*
%TO.P,U2,71,1*%
%TO.N,6*%
X116950000Y-72835000D03*
%TO.P,U2,73,1*%
%TO.N,4*%
X117450000Y-72835000D03*
%TO.P,U2,75,1*%
%TO.N,GND*%
X117950000Y-72835000D03*
%TD*%
D13*
%TO.P,R7,1*%
%TO.N,Net-(U1-nHOME)*%
X116500000Y-103285000D03*
%TO.P,R7,2*%
%TO.N,+3V3*%
X116500000Y-101635000D03*
%TD*%
D16*
%TO.P,U1,1,CP1*%
%TO.N,Net-(U1-CP1)*%
X108634239Y-102634956D03*
%TO.P,U1,2,CP2*%
%TO.N,Net-(U1-CP2)*%
X108634239Y-103284943D03*
%TO.P,U1,3,VCP*%
%TO.N,Net-(U1-VCP)*%
X108634239Y-103934930D03*
%TO.P,U1,4,VMA*%
%TO.N,+12V*%
X108634239Y-104584917D03*
%TO.P,U1,5,AOUT1*%
%TO.N,Motor_D*%
X108634239Y-105234905D03*
%TO.P,U1,6,ISENA*%
%TO.N,Net-(U1-ISENA)*%
X108634239Y-105884892D03*
%TO.P,U1,7,AOUT2*%
%TO.N,Motor_A*%
X108634239Y-106535133D03*
%TO.P,U1,8,BOUT2*%
%TO.N,Motor_B*%
X108634239Y-107185121D03*
%TO.P,U1,9,ISENB*%
%TO.N,Net-(U1-ISENB)*%
X108634239Y-107835108D03*
%TO.P,U1,10,BOUT1*%
%TO.N,Motor_C*%
X108634239Y-108485095D03*
%TO.P,U1,11,VMB*%
%TO.N,+12V*%
X108634239Y-109135083D03*
%TO.P,U1,12,AVREF*%
%TO.N,Net-(U1-AVREF)*%
X108634239Y-109785070D03*
%TO.P,U1,13,BVREF*%
X108634239Y-110435057D03*
%TO.P,U1,14,GND*%
%TO.N,GND*%
X108634239Y-111085044D03*
%TO.P,U1,15,V3P3OUT*%
%TO.N,+3V3*%
X114365761Y-111085044D03*
%TO.P,U1,16,nRESET*%
%TO.N,Net-(U1-nRESET)*%
X114365761Y-110435057D03*
%TO.P,U1,17,nSLEEP*%
%TO.N,Net-(U1-nSLEEP)*%
X114365761Y-109785070D03*
%TO.P,U1,18,nFAULT*%
%TO.N,Fault*%
X114365761Y-109135083D03*
%TO.P,U1,19,DECAY*%
%TO.N,Net-(U1-DECAY)*%
X114365761Y-108485095D03*
%TO.P,U1,20,DIR*%
%TO.N,Direction*%
X114365761Y-107835108D03*
%TO.P,U1,21,NENBL*%
%TO.N,Net-(U1-NENBL)*%
X114365761Y-107185121D03*
%TO.P,U1,22,STEP*%
%TO.N,STEP_INC*%
X114365761Y-106535133D03*
%TO.P,U1,23,NC*%
%TO.N,unconnected-(U1-NC-Pad23)*%
X114365761Y-105884892D03*
%TO.P,U1,24,MODE0*%
%TO.N,Net-(U1-MODE0)*%
X114365761Y-105234905D03*
%TO.P,U1,25,MODE1*%
%TO.N,Net-(U1-MODE1)*%
X114365761Y-104584917D03*
%TO.P,U1,26,MODE2*%
%TO.N,Net-(U1-MODE2)*%
X114365761Y-103934930D03*
%TO.P,U1,27,nHOME*%
%TO.N,Net-(U1-nHOME)*%
X114365761Y-103284943D03*
%TO.P,U1,28,GND*%
%TO.N,GND*%
X114365761Y-102634956D03*
D17*
%TO.P,U1,29,EP*%
X111499873Y-106860000D03*
%TD*%
D18*
%TO.P,R3,1*%
%TO.N,Net-(U1-VCP)*%
X104600000Y-102335000D03*
%TO.P,R3,2*%
%TO.N,+12V*%
X104600000Y-103985000D03*
%TD*%
D19*
%TO.P,CN1,1,1*%
%TO.N,+3V3*%
X117949836Y-84060029D03*
%TO.P,CN1,2,1*%
%TO.N,GND*%
X117699900Y-76510117D03*
%TO.P,CN1,3,1*%
%TO.N,Net-(CN1-1-Pad3)*%
X117449964Y-84060029D03*
%TO.P,CN1,4,1*%
%TO.N,4*%
X117199773Y-76510117D03*
%TO.P,CN1,5,1*%
%TO.N,Net-(CN1-1-Pad5)*%
X116949836Y-84060029D03*
%TO.P,CN1,6,1*%
%TO.N,6*%
X116699900Y-76510117D03*
%TO.P,CN1,7,1*%
%TO.N,Net-(CN1-1-Pad7)*%
X116449964Y-84060029D03*
%TO.P,CN1,8,1*%
%TO.N,8*%
X116199773Y-76510117D03*
%TO.P,CN1,9,1*%
%TO.N,Net-(CN1-1-Pad9)*%
X115949836Y-84060029D03*
%TO.P,CN1,10,1*%
%TO.N,10*%
X115699900Y-76510117D03*
%TO.P,CN1,11,1*%
%TO.N,Net-(CN1-1-Pad11)*%
X115449964Y-84060029D03*
%TO.P,CN1,20,20*%
%TO.N,20*%
X113199773Y-76510117D03*
%TO.P,CN1,21,20*%
%TO.N,Net-(CN1-20-Pad21)*%
X112949836Y-84060029D03*
%TO.P,CN1,22,20*%
X112699900Y-76510117D03*
%TO.P,CN1,23,20*%
%TO.N,Net-(CN1-20-Pad23)*%
X112449964Y-84060029D03*
%TO.P,CN1,24,20*%
X112199773Y-76510117D03*
%TO.P,CN1,25,20*%
%TO.N,Net-(CN1-20-Pad25)*%
X111949836Y-84060029D03*
%TO.P,CN1,26,20*%
X111699900Y-76510117D03*
%TO.P,CN1,27,20*%
%TO.N,Net-(CN1-20-Pad27)*%
X111449964Y-84060029D03*
%TO.P,CN1,28,20*%
X111199773Y-76510117D03*
%TO.P,CN1,29,20*%
%TO.N,Net-(CN1-20-Pad29)*%
X110949836Y-84060029D03*
%TO.P,CN1,30,20*%
X110699900Y-76510117D03*
%TO.P,CN1,31,20*%
%TO.N,Net-(CN1-20-Pad31)*%
X110449964Y-84060029D03*
%TO.P,CN1,32,20*%
X110199773Y-76510117D03*
%TO.P,CN1,33,20*%
%TO.N,Net-(CN1-20-Pad33)*%
X109949836Y-84060029D03*
%TO.P,CN1,34,20*%
X109699900Y-76510117D03*
%TO.P,CN1,35,20*%
%TO.N,Net-(CN1-20-Pad35)*%
X109449964Y-84060029D03*
%TO.P,CN1,36,20*%
X109199773Y-76510117D03*
%TO.P,CN1,37,20*%
%TO.N,Net-(CN1-20-Pad37)*%
X108949836Y-84060029D03*
%TO.P,CN1,38,20*%
X108699900Y-76510117D03*
%TO.P,CN1,39,20*%
%TO.N,Net-(CN1-20-Pad39)*%
X108449964Y-84060029D03*
%TO.P,CN1,40,20*%
X108199773Y-76510117D03*
%TO.P,CN1,41,20*%
%TO.N,Net-(CN1-20-Pad41)*%
X107949836Y-84060029D03*
%TO.P,CN1,42,20*%
X107699900Y-76510371D03*
%TO.P,CN1,43,20*%
%TO.N,Net-(CN1-20-Pad43)*%
X107449964Y-84060029D03*
%TO.P,CN1,44,20*%
X107199773Y-76510371D03*
%TO.P,CN1,45,20*%
%TO.N,Net-(CN1-20-Pad45)*%
X106949836Y-84060029D03*
%TO.P,CN1,46,20*%
X106699900Y-76510371D03*
%TO.P,CN1,47,20*%
%TO.N,Net-(CN1-20-Pad47)*%
X106449964Y-84060029D03*
%TO.P,CN1,48,20*%
X106199773Y-76510371D03*
%TO.P,CN1,49,20*%
%TO.N,Net-(CN1-20-Pad49)*%
X105949836Y-84060029D03*
%TO.P,CN1,50,20*%
X105699900Y-76510371D03*
%TO.P,CN1,51,20*%
%TO.N,Net-(CN1-20-Pad51)*%
X105449964Y-84060029D03*
%TO.P,CN1,52,20*%
X105199773Y-76510371D03*
%TO.P,CN1,53,20*%
%TO.N,STEP_INC*%
X104949836Y-84060029D03*
%TO.P,CN1,54,20*%
X104699900Y-76510371D03*
%TO.P,CN1,55,20*%
%TO.N,Direction*%
X104449964Y-84060029D03*
%TO.P,CN1,56,20*%
X104199773Y-76510371D03*
%TO.P,CN1,57,20*%
%TO.N,Fault*%
X103949836Y-84060029D03*
%TO.P,CN1,58,20*%
X103699900Y-76510371D03*
D20*
%TO.P,CN1,59,20*%
%TO.N,Net-(CN1-20-Pad59)*%
X103449964Y-84060283D03*
%TO.P,CN1,60,20*%
X103199773Y-76510371D03*
%TO.P,CN1,61,20*%
%TO.N,Net-(CN1-20-Pad61)*%
X102949836Y-84060283D03*
%TO.P,CN1,62,20*%
X102699900Y-76510371D03*
%TO.P,CN1,63,20*%
%TO.N,Net-(CN1-20-Pad63)*%
X102449964Y-84060283D03*
%TO.P,CN1,64,20*%
X102199773Y-76510371D03*
%TO.P,CN1,65,20*%
%TO.N,Net-(CN1-1-Pad66)*%
X101949836Y-84060283D03*
%TO.P,CN1,66,1*%
X101699900Y-76510371D03*
D19*
%TO.P,CN1,67,1*%
%TO.N,Net-(CN1-1-Pad67)*%
X101449964Y-84060029D03*
%TO.P,CN1,68,1*%
X101199773Y-76510371D03*
%TO.P,CN1,69,1*%
%TO.N,Net-(CN1-1-Pad69)*%
X100949836Y-84060029D03*
%TO.P,CN1,70,1*%
X100699900Y-76510371D03*
%TO.P,CN1,71,1*%
%TO.N,Net-(CN1-1-Pad71)*%
X100449964Y-84060029D03*
%TO.P,CN1,72,1*%
X100199773Y-76510371D03*
%TO.P,CN1,73,1*%
%TO.N,Net-(CN1-1-Pad73)*%
X99949836Y-84060029D03*
%TO.P,CN1,74,1*%
%TO.N,Net-(CN1-1-Pad74)*%
X99699900Y-76510371D03*
%TO.P,CN1,75,1*%
%TO.N,GND*%
X99449964Y-84060029D03*
D21*
%TO.P,CN1,76*%
%TO.N,N/C*%
X98349887Y-83335111D03*
%TO.P,CN1,77*%
X119049913Y-83335111D03*
%TD*%
D18*
%TO.P,R1,1*%
%TO.N,+3V3*%
X119050000Y-86010000D03*
%TO.P,R1,2*%
%TO.N,Net-(LED2-+)*%
X119050000Y-87660000D03*
%TD*%
D22*
%TO.P,C5,1*%
%TO.N,+12V*%
X101200000Y-110860000D03*
%TO.P,C5,2*%
%TO.N,GND*%
X101200000Y-116260000D03*
%TD*%
D14*
%TO.P,R2,1*%
%TO.N,+5V*%
X113975000Y-89360000D03*
%TO.P,R2,2*%
%TO.N,Net-(LED1-+)*%
X115625000Y-89360000D03*
%TD*%
D23*
%TO.P,C3,1*%
%TO.N,+12V*%
X106300000Y-109585000D03*
%TO.P,C3,2*%
%TO.N,GND*%
X106300000Y-111135000D03*
%TD*%
D13*
%TO.P,R18,1*%
%TO.N,Net-(U1-MODE2)*%
X105000000Y-98685000D03*
%TO.P,R18,2*%
%TO.N,+3V3*%
X105000000Y-97035000D03*
%TD*%
D14*
%TO.P,R4,1*%
%TO.N,GND*%
X103075000Y-105700000D03*
%TO.P,R4,2*%
%TO.N,Net-(U1-ISENA)*%
X104725000Y-105700000D03*
%TD*%
D18*
%TO.P,R13,1*%
%TO.N,GND*%
X114700000Y-96935000D03*
%TO.P,R13,2*%
%TO.N,Net-(U1-DECAY)*%
X114700000Y-98585000D03*
%TD*%
D13*
%TO.P,R23,1*%
%TO.N,Net-(U1-nRESET)*%
X112800000Y-98585000D03*
%TO.P,R23,2*%
%TO.N,+3V3*%
X112800000Y-96935000D03*
%TD*%
D18*
%TO.P,R10,1*%
%TO.N,GND*%
X107100000Y-96935000D03*
%TO.P,R10,2*%
%TO.N,Net-(U1-MODE2)*%
X107100000Y-98585000D03*
%TD*%
D24*
%TO.P,C1,1*%
%TO.N,+12V*%
X106400000Y-103935000D03*
%TO.P,C1,2*%
%TO.N,Net-(U1-VCP)*%
X106400000Y-102385000D03*
%TD*%
D14*
%TO.P,R11,1*%
%TO.N,Net-(U1-MODE0)*%
X116375000Y-105260000D03*
%TO.P,R11,2*%
%TO.N,+3V3*%
X118025000Y-105260000D03*
%TD*%
D24*
%TO.P,C2,1*%
%TO.N,+12V*%
X102800000Y-103935000D03*
%TO.P,C2,2*%
%TO.N,GND*%
X102800000Y-102385000D03*
%TD*%
D18*
%TO.P,R9,1*%
%TO.N,GND*%
X102887500Y-96935000D03*
%TO.P,R9,2*%
%TO.N,Net-(U1-MODE1)*%
X102887500Y-98585000D03*
%TD*%
D25*
%TO.P,H1,1*%
%TO.N,N/C*%
X108700000Y-131560000D03*
D26*
X108700000Y-131560000D03*
%TD*%
D18*
%TO.P,R8,1*%
%TO.N,Net-(U1-AVREF)*%
X108600000Y-113035000D03*
%TO.P,R8,2*%
%TO.N,GND*%
X108600000Y-114685000D03*
%TD*%
D27*
%TO.P,LED1,1,-*%
%TO.N,GND*%
X118949467Y-89331571D03*
%TO.P,LED1,2,+*%
%TO.N,Net-(LED1-+)*%
X117350533Y-89338429D03*
%TD*%
D13*
%TO.P,R19,1*%
%TO.N,Net-(U1-nSLEEP)*%
X110900000Y-98585000D03*
%TO.P,R19,2*%
%TO.N,+3V3*%
X110900000Y-96935000D03*
%TD*%
D23*
%TO.P,C7,1*%
%TO.N,+3V3*%
X116400000Y-111085000D03*
%TO.P,C7,2*%
%TO.N,GND*%
X116400000Y-112635000D03*
%TD*%
D18*
%TO.P,R6,1*%
%TO.N,Net-(U1-AVREF)*%
X110300000Y-113035000D03*
%TO.P,R6,2*%
%TO.N,+3V3*%
X110300000Y-114685000D03*
%TD*%
D13*
%TO.P,R16,1*%
%TO.N,Net-(U1-NENBL)*%
X109000000Y-98585000D03*
%TO.P,R16,2*%
%TO.N,+3V3*%
X109000000Y-96935000D03*
%TD*%
D14*
%TO.P,R12,1*%
%TO.N,Fault*%
X116975000Y-108800000D03*
%TO.P,R12,2*%
%TO.N,+3V3*%
X118625000Y-108800000D03*
%TD*%
D27*
%TO.P,LED2,1,-*%
%TO.N,GND*%
X118949467Y-93131571D03*
%TO.P,LED2,2,+*%
%TO.N,Net-(LED2-+)*%
X117350533Y-93138429D03*
%TD*%
D28*
%TO.N,Net-(CN1-20-Pad47)*%
X106146500Y-77900000D03*
%TO.N,Motor_C*%
X110800000Y-120000000D03*
%TO.N,Motor_A*%
X107600000Y-122100000D03*
%TO.N,Net-(CN1-1-Pad11)*%
X115396000Y-82160000D03*
%TO.N,Net-(CN1-20-Pad21)*%
X113812000Y-77277700D03*
%TO.N,Net-(CN1-20-Pad23)*%
X112506000Y-77941400D03*
%TO.N,Net-(CN1-20-Pad25)*%
X111831000Y-74929900D03*
%TO.N,Net-(CN1-20-Pad27)*%
X111450000Y-79607800D03*
%TO.N,Net-(CN1-1-Pad66)*%
X101653500Y-79760000D03*
%TO.N,Net-(CN1-20-Pad33)*%
X109653000Y-77959800D03*
%TO.N,Net-(CN1-20-Pad35)*%
X109450000Y-85267000D03*
%TO.N,Net-(CN1-20-Pad37)*%
X108719000Y-81491700D03*
%TO.N,Net-(CN1-1-Pad5)*%
X117031000Y-80460000D03*
%TO.N,Net-(CN1-20-Pad39)*%
X108285000Y-79536300D03*
%TO.N,Net-(CN1-1-Pad69)*%
X101017000Y-82233000D03*
%TO.N,Net-(CN1-1-Pad71)*%
X100245000Y-75029500D03*
%TO.N,Net-(CN1-1-Pad73)*%
X99968000Y-80815600D03*
%TO.N,Net-(CN1-20-Pad41)*%
X107756000Y-78406600D03*
X108309000Y-85289000D03*
X107835000Y-74908200D03*
%TO.N,+3V3*%
X110300000Y-115660000D03*
X109000000Y-95960000D03*
X116600000Y-95960000D03*
X105000000Y-95960000D03*
X117400000Y-111500000D03*
X100987500Y-95960000D03*
X119500000Y-109200000D03*
X116500000Y-100760000D03*
X110900000Y-95960000D03*
X118900000Y-105260000D03*
X112800000Y-95960000D03*
X119300000Y-77560000D03*
%TO.N,Net-(CN1-20-Pad43)*%
X107151000Y-85300000D03*
%TO.N,Net-(CN1-20-Pad45)*%
X106600000Y-79760000D03*
%TO.N,Net-(CN1-20-Pad49)*%
X105646500Y-78681116D03*
%TO.N,Net-(CN1-20-Pad51)*%
X105238000Y-74658700D03*
X105483500Y-82360000D03*
%TO.N,Net-(CN1-20-Pad59)*%
X103344000Y-79304100D03*
%TO.N,Net-(CN1-20-Pad61)*%
X102950000Y-85258000D03*
%TO.N,Net-(CN1-1-Pad67)*%
X101245000Y-78881400D03*
%TO.N,Net-(CN1-1-Pad7)*%
X116451000Y-81289000D03*
%TO.N,Net-(CN1-20-Pad63)*%
X102185000Y-74670900D03*
%TO.N,Net-(CN1-1-Pad9)*%
X115543000Y-81167100D03*
%TO.N,GND*%
X100700000Y-107200000D03*
X115400000Y-112660000D03*
X105200000Y-114900000D03*
X102800000Y-117500000D03*
X102800000Y-101260000D03*
X110600000Y-104660000D03*
X102887500Y-95960000D03*
X112400000Y-109060000D03*
X101100000Y-108000000D03*
X112400000Y-106960000D03*
X105200000Y-115800000D03*
X101200000Y-118660000D03*
X111500000Y-108160000D03*
X110600000Y-109060000D03*
X110600000Y-106960000D03*
X99600000Y-118400000D03*
X112400000Y-104660000D03*
X114700000Y-95960000D03*
X105200000Y-114000000D03*
X101200000Y-105600000D03*
X102000000Y-105560000D03*
X102000000Y-108000000D03*
X118400000Y-76960000D03*
X99123000Y-76316200D03*
X99600000Y-117600000D03*
X108400000Y-115760000D03*
X107100000Y-95960000D03*
X105200000Y-113100000D03*
X113400000Y-101660000D03*
X111500000Y-105760000D03*
X105200000Y-112200000D03*
X100700000Y-106300000D03*
X106300000Y-112160000D03*
%TO.N,+5V*%
X113300000Y-86860000D03*
X113200000Y-89360000D03*
%TO.N,Net-(CN1-20-Pad29)*%
X110948000Y-78123100D03*
%TO.N,Net-(CN1-20-Pad31)*%
X110325000Y-74588000D03*
X110356000Y-78714400D03*
%TO.N,Net-(CN1-20-Pad47)*%
X106450000Y-86267100D03*
X106600000Y-82260000D03*
%TO.N,Net-(CN1-1-Pad3)*%
X118100000Y-80860000D03*
%TO.N,+12V*%
X104100000Y-110400000D03*
X104100000Y-119000000D03*
X104100000Y-109600000D03*
X104100000Y-118100000D03*
%TO.N,Net-(U1-MODE1)*%
X106400000Y-99860000D03*
X117400000Y-100060000D03*
%TO.N,Fault*%
X103724000Y-77859400D03*
%TO.N,Net-(U1-DECAY)*%
X118000000Y-106900000D03*
X115500000Y-100560000D03*
%TO.N,Net-(U1-NENBL)*%
X112400000Y-101160000D03*
X115735971Y-107208608D03*
%TO.N,Net-(U1-nSLEEP)*%
X119000000Y-110260000D03*
X115400000Y-101660000D03*
%TO.N,Net-(U1-nRESET)*%
X118100000Y-110760000D03*
X114700000Y-100960000D03*
%TO.N,Motor_D*%
X106300000Y-105160000D03*
%TO.N,Motor_A*%
X108200000Y-111860000D03*
X105600000Y-106600000D03*
%TO.N,Motor_B*%
X107100000Y-107300000D03*
%TO.N,Motor_C*%
X108700000Y-117860000D03*
X105900000Y-108300000D03*
%TO.N,STEP_INC*%
X104896500Y-81455501D03*
X105100000Y-87200000D03*
X116000000Y-106300000D03*
%TO.N,Direction*%
X104374000Y-82460000D03*
X112200000Y-93400000D03*
X118200000Y-98200000D03*
%TD*%
D29*
%TO.N,Net-(U1-AVREF)*%
X108634239Y-109785070D02*
X108634239Y-110435057D01*
%TO.N,Net-(CN1-20-Pad49)*%
X105700000Y-77424000D02*
X105700000Y-76730600D01*
X105578000Y-77545400D02*
X105700000Y-77424000D01*
X105578000Y-78612616D02*
X105578000Y-77545400D01*
X105646500Y-78681116D02*
X105578000Y-78612616D01*
X106037500Y-83714500D02*
X105950000Y-83802000D01*
X106037500Y-81897500D02*
X106037500Y-83714500D01*
X105933000Y-80893000D02*
X105933000Y-81793000D01*
X105604000Y-79102185D02*
X105604000Y-80564000D01*
X105646500Y-78681116D02*
X105646500Y-79059684D01*
X105604000Y-80564000D02*
X105933000Y-80893000D01*
X105646500Y-79059684D02*
X105604000Y-79102185D01*
X105933000Y-81793000D02*
X106037500Y-81897500D01*
%TO.N,Net-(CN1-20-Pad47)*%
X106200000Y-77953500D02*
X106146500Y-77900000D01*
X106200000Y-79045000D02*
X106200000Y-77953500D01*
X105985000Y-79260000D02*
X106200000Y-79045000D01*
X106400000Y-80475000D02*
X105985000Y-80060000D01*
X106400000Y-81360000D02*
X106400000Y-80475000D01*
X106600000Y-81560000D02*
X106400000Y-81360000D01*
X106600000Y-82260000D02*
X106600000Y-81560000D01*
X105985000Y-80060000D02*
X105985000Y-79260000D01*
X106199773Y-77846727D02*
X106146500Y-77900000D01*
X106199773Y-76510371D02*
X106199773Y-77846727D01*
%TO.N,Net-(CN1-20-Pad49)*%
X105950000Y-83802000D02*
X105950000Y-83995500D01*
%TO.N,Motor_C*%
X110800000Y-120000000D02*
X110800000Y-119960000D01*
D30*
X110800000Y-119960000D02*
X108700000Y-117860000D01*
D29*
%TO.N,Motor_A*%
X107640000Y-122060000D02*
X107600000Y-122100000D01*
D30*
X107640000Y-121300000D02*
X107640000Y-122060000D01*
%TO.N,+12V*%
X104100000Y-120700000D02*
X121400050Y-138000050D01*
X121400050Y-138000050D02*
X121400050Y-139700000D01*
X104100000Y-118100000D02*
X104100000Y-120700000D01*
D29*
%TO.N,Net-(CN1-1-Pad11)*%
X115396000Y-82160000D02*
X115396000Y-82975000D01*
X115396000Y-82975000D02*
X115450000Y-83029000D01*
X115450000Y-83029000D02*
X115450000Y-84060000D01*
%TO.N,Net-(CN1-20-Pad21)*%
X112700000Y-76510900D02*
X112700000Y-76510500D01*
D31*
X112700000Y-76511000D02*
X112700000Y-76510900D01*
D29*
X112950000Y-83544000D02*
X112950000Y-83802000D01*
D31*
X112700000Y-76510500D02*
X112700000Y-76510400D01*
D29*
X113031000Y-77638000D02*
X112700000Y-77307300D01*
X112700000Y-76510400D02*
X112700000Y-76510200D01*
D31*
X112950000Y-83995500D02*
X112950000Y-84060000D01*
D29*
X112700000Y-76511000D02*
X112700000Y-76510900D01*
X112700000Y-76510500D02*
X112700000Y-76510400D01*
X113062000Y-82917000D02*
X112950000Y-83029000D01*
D31*
X112950000Y-83931000D02*
X112950000Y-83995500D01*
X112950000Y-83931000D02*
X112950000Y-83995500D01*
D29*
X112950000Y-83931000D02*
X112950000Y-83995500D01*
X112700000Y-76510100D02*
X112700000Y-75721300D01*
X112700000Y-75721300D02*
X112950000Y-75471200D01*
X113062000Y-77638000D02*
X113031000Y-77638000D01*
D31*
X112700000Y-76510200D02*
X112700000Y-76510100D01*
D29*
X112700000Y-76514200D02*
X112700000Y-76512100D01*
D31*
X112700000Y-76510500D02*
X112700000Y-76510400D01*
D29*
X112700000Y-76510900D02*
X112700000Y-76510500D01*
D32*
X112700000Y-76510200D02*
X112699900Y-76510100D01*
D29*
X112950000Y-75471200D02*
X112950000Y-72835000D01*
X112950000Y-83286000D02*
X112950000Y-83544000D01*
X112700000Y-76512100D02*
X112700000Y-76512000D01*
X112700000Y-76512100D02*
X112700000Y-76512000D01*
X112700000Y-76511000D02*
X112700000Y-76510900D01*
X112700000Y-76510900D02*
X112700000Y-76510500D01*
X112700000Y-76514300D02*
X112700000Y-76514200D01*
X112700000Y-76510200D02*
X112700000Y-76510100D01*
X112700000Y-76510200D02*
X112700000Y-76510100D01*
D31*
X112700000Y-76510200D02*
X112700000Y-76510100D01*
D29*
X113062000Y-77638000D02*
X113062000Y-82917000D01*
X112700000Y-76510500D02*
X112700000Y-76510400D01*
X112950000Y-83286000D02*
X112950000Y-83544000D01*
D31*
X112700000Y-76510900D02*
X112700000Y-76510500D01*
D29*
X112700000Y-77307300D02*
X112700000Y-76514300D01*
X112700000Y-76511000D02*
X112700000Y-76510900D01*
X112700000Y-76510500D02*
X112700000Y-76510400D01*
X112700000Y-76512000D02*
X112700000Y-76511000D01*
D31*
X112700000Y-76510400D02*
X112700000Y-76510200D01*
D29*
X112700000Y-76514200D02*
X112700000Y-76512100D01*
X112950000Y-83802000D02*
X112950000Y-83931000D01*
X112700000Y-76512000D02*
X112700000Y-76511000D01*
X113812000Y-77277700D02*
X113452000Y-77638000D01*
D32*
X112949800Y-83995700D02*
X112949800Y-84060000D01*
D29*
X112700000Y-76514300D02*
X112700000Y-76514200D01*
X113452000Y-77638000D02*
X113062000Y-77638000D01*
X112700000Y-76512000D02*
X112700000Y-76511000D01*
X112700000Y-76510200D02*
X112700000Y-76510100D01*
X112700000Y-76510400D02*
X112700000Y-76510200D01*
D31*
X112700000Y-76510400D02*
X112700000Y-76510200D01*
D29*
X112950000Y-83029000D02*
X112950000Y-83286000D01*
X112700000Y-76512100D02*
X112700000Y-76512000D01*
X112700000Y-76510400D02*
X112700000Y-76510200D01*
D32*
X112950000Y-83995500D02*
X112949800Y-83995700D01*
D31*
X112950000Y-83802000D02*
X112950000Y-83931000D01*
X112950000Y-83995500D02*
X112950000Y-84060000D01*
D29*
X112950000Y-83995500D02*
X112950000Y-84060000D01*
%TO.N,Net-(CN1-20-Pad23)*%
X112460000Y-77941400D02*
X112506000Y-77941400D01*
D31*
X112200000Y-76493800D02*
X112200000Y-76510100D01*
X112200000Y-76731700D02*
X112200000Y-76731500D01*
X112200000Y-75952700D02*
X112200000Y-76444800D01*
D29*
X112450000Y-77951900D02*
X112460000Y-77941400D01*
X112200000Y-75460200D02*
X112450000Y-75210000D01*
X112200000Y-75952700D02*
X112200000Y-75952500D01*
D31*
X112200000Y-76731700D02*
X112200000Y-76731500D01*
D29*
X112450000Y-84060000D02*
X112450000Y-77951900D01*
D31*
X112200000Y-76731500D02*
X112200000Y-76510100D01*
D29*
X112200000Y-75952500D02*
X112200000Y-75460200D01*
X112200000Y-76953300D02*
X112200000Y-76953500D01*
X112200000Y-76731700D02*
X112200000Y-76953300D01*
X112200000Y-76510100D02*
X112200000Y-76731500D01*
D31*
X112200000Y-75952500D02*
X112200000Y-75952700D01*
D29*
X112460000Y-77690200D02*
X112460000Y-77941400D01*
X112200000Y-76731500D02*
X112200000Y-76731700D01*
X112450000Y-75210000D02*
X112450000Y-72835000D01*
D31*
X112200000Y-76731500D02*
X112200000Y-76510100D01*
D29*
X112200000Y-77429500D02*
X112460000Y-77690200D01*
X112200000Y-76953500D02*
X112200000Y-77429500D01*
X112200000Y-76493800D02*
X112200000Y-76510100D01*
D31*
X112200000Y-76477500D02*
X112200000Y-76493800D01*
X112200000Y-76953500D02*
X112200000Y-76953300D01*
X112200000Y-76953300D02*
X112200000Y-76731700D01*
D29*
X112200000Y-76444800D02*
X112200000Y-75952700D01*
D32*
X112199800Y-76494000D02*
X112199800Y-76510100D01*
X112200000Y-76493800D02*
X112199800Y-76494000D01*
D29*
X112200000Y-76477500D02*
X112200000Y-76493800D01*
D31*
X112200000Y-76444800D02*
X112200000Y-76477500D01*
%TO.N,Net-(CN1-20-Pad25)*%
X111700000Y-76475100D02*
X111700000Y-76492600D01*
D29*
X111950000Y-83931000D02*
X111950000Y-83995500D01*
X111950000Y-83286000D02*
X111950000Y-83544000D01*
D31*
X111950000Y-83802000D02*
X111950000Y-83931000D01*
D29*
X111700000Y-76475100D02*
X111700000Y-75977200D01*
X111700000Y-76981700D02*
X111700000Y-76981800D01*
D31*
X111700000Y-76745900D02*
X111700000Y-76745800D01*
D29*
X111700000Y-76981800D02*
X111700000Y-77471100D01*
D31*
X111700000Y-76981800D02*
X111700000Y-76981700D01*
X111700000Y-75977200D02*
X111700000Y-76475100D01*
D29*
X111950000Y-74811300D02*
X111831000Y-74929900D01*
X111831000Y-75347700D02*
X111831000Y-74929900D01*
D31*
X111950000Y-83931000D02*
X111950000Y-83995500D01*
X111950000Y-83995500D02*
X111950000Y-84060000D01*
D29*
X112006000Y-79377500D02*
X112006000Y-82973000D01*
X111950000Y-83286000D02*
X111950000Y-83544000D01*
D31*
X111700000Y-76745900D02*
X111700000Y-76745800D01*
D29*
X111950000Y-83995500D02*
X111950000Y-84060000D01*
X112006000Y-82973000D02*
X111950000Y-83029000D01*
X111700000Y-76745900D02*
X111700000Y-76981700D01*
X111700000Y-76492600D02*
X111700000Y-76501300D01*
X111950000Y-79321600D02*
X112006000Y-79377500D01*
D32*
X111699900Y-76501400D02*
X111699900Y-76510100D01*
D29*
X111700000Y-75479200D02*
X111831000Y-75347700D01*
D31*
X111700000Y-76492600D02*
X111700000Y-76501300D01*
D29*
X111950000Y-77721000D02*
X111950000Y-79321600D01*
X111700000Y-75977100D02*
X111700000Y-75479200D01*
D31*
X111700000Y-76745800D02*
X111700000Y-76510100D01*
D29*
X111700000Y-75977200D02*
X111700000Y-75977100D01*
X111700000Y-76745800D02*
X111700000Y-76745900D01*
X111700000Y-77471100D02*
X111950000Y-77721000D01*
D32*
X111950000Y-83995500D02*
X111949800Y-83995700D01*
D29*
X111950000Y-83544000D02*
X111950000Y-83802000D01*
D31*
X111950000Y-83995500D02*
X111950000Y-84060000D01*
X111950000Y-83931000D02*
X111950000Y-83995500D01*
X111700000Y-76501300D02*
X111700000Y-76510100D01*
D29*
X111700000Y-76501300D02*
X111700000Y-76510100D01*
D31*
X111700000Y-76745800D02*
X111700000Y-76510100D01*
D32*
X111949800Y-83995700D02*
X111949800Y-84060000D01*
D29*
X111950000Y-83029000D02*
X111950000Y-83286000D01*
X111950000Y-72835000D02*
X111950000Y-74811300D01*
X111700000Y-76510100D02*
X111700000Y-76745800D01*
D31*
X111700000Y-76981700D02*
X111700000Y-76745900D01*
D32*
X111700000Y-76501300D02*
X111699900Y-76501400D01*
D29*
X111950000Y-83802000D02*
X111950000Y-83931000D01*
D31*
X111700000Y-75977100D02*
X111700000Y-75977200D01*
D32*
%TO.N,Net-(CN1-20-Pad27)*%
X111200000Y-76510100D02*
X111199800Y-76510100D01*
D29*
X111200000Y-75479200D02*
X111264000Y-75415200D01*
X111506000Y-79551900D02*
X111506000Y-77847100D01*
X111200000Y-76510100D02*
X111200000Y-75479200D01*
X111450000Y-79607800D02*
X111506000Y-79551900D01*
X111450000Y-73815900D02*
X111450000Y-72835000D01*
X111450000Y-84060000D02*
X111450000Y-79607800D01*
X111264000Y-74002100D02*
X111450000Y-73815900D01*
X111264000Y-75415200D02*
X111264000Y-74002100D01*
X111506000Y-77847100D02*
X111200000Y-77541000D01*
X111200000Y-77541000D02*
X111200000Y-76510100D01*
%TO.N,Net-(CN1-1-Pad66)*%
X101700000Y-76758200D02*
X101700000Y-76634300D01*
D31*
X101700000Y-76634200D02*
X101700000Y-76572300D01*
D29*
X101700000Y-76572200D02*
X101700000Y-76541300D01*
X101700000Y-76541300D02*
X101700000Y-76510400D01*
X101700000Y-76758200D02*
X101700000Y-76634300D01*
D32*
X101700000Y-76541300D02*
X101699900Y-76541200D01*
D29*
X101700000Y-76541300D02*
X101700000Y-76510400D01*
X101700000Y-76634200D02*
X101700000Y-76572300D01*
X101950000Y-74120200D02*
X101950000Y-72835000D01*
X101700000Y-76510400D02*
X101700000Y-75492500D01*
X101700000Y-76572200D02*
X101700000Y-76541300D01*
X101700000Y-76572300D02*
X101700000Y-76572200D01*
D31*
X101700000Y-76572200D02*
X101700000Y-76541300D01*
X101700000Y-76634300D02*
X101700000Y-76634200D01*
D32*
X101950000Y-84060000D02*
X101949800Y-84060200D01*
D29*
X101700000Y-76572300D02*
X101700000Y-76572200D01*
X101700000Y-75492500D02*
X101630000Y-75422100D01*
X101700000Y-76758300D02*
X101700000Y-76758200D01*
X101700000Y-76634300D02*
X101700000Y-76634200D01*
X101799000Y-79614500D02*
X101799000Y-78619200D01*
X101700000Y-76634300D02*
X101700000Y-76634200D01*
D31*
X101700000Y-76572300D02*
X101700000Y-76572200D01*
D29*
X101700000Y-77006300D02*
X101700000Y-77006200D01*
X102008000Y-84002000D02*
X101950000Y-84060000D01*
D32*
X101949800Y-84060200D02*
X101949800Y-84060300D01*
D29*
X102008000Y-80114500D02*
X102008000Y-84002000D01*
X101630000Y-75422100D02*
X101630000Y-74440700D01*
X101653500Y-79760000D02*
X101799000Y-79614500D01*
X101700000Y-76572300D02*
X101700000Y-76572200D01*
X101630000Y-74440700D02*
X101950000Y-74120200D01*
X101700000Y-76634300D02*
X101700000Y-76634200D01*
X101700000Y-77006200D02*
X101700000Y-76758300D01*
X101700000Y-76758300D02*
X101700000Y-76758200D01*
X101700000Y-76634200D02*
X101700000Y-76572300D01*
X101700000Y-76541300D02*
X101700000Y-76510400D01*
X101700000Y-76572200D02*
X101700000Y-76541300D01*
X101799000Y-78619200D02*
X101700000Y-78520200D01*
X101700000Y-76634200D02*
X101700000Y-76572300D01*
D31*
X101700000Y-76541300D02*
X101700000Y-76510400D01*
X101700000Y-76541300D02*
X101700000Y-76510400D01*
X101700000Y-76572300D02*
X101700000Y-76572200D01*
D29*
X101653500Y-79760000D02*
X102008000Y-80114500D01*
D32*
X101699900Y-76541200D02*
X101699900Y-76510400D01*
D31*
X101700000Y-76572200D02*
X101700000Y-76541300D01*
D29*
X101700000Y-78520200D02*
X101700000Y-76634300D01*
%TO.N,Net-(CN1-20-Pad33)*%
X109950000Y-81597300D02*
X109950000Y-81597500D01*
X109734000Y-76475500D02*
X109717000Y-76492800D01*
X109717000Y-76492800D02*
X109708000Y-76501400D01*
X109708000Y-76501400D02*
X109704000Y-76505700D01*
X109700000Y-76509900D02*
X109700000Y-76510100D01*
X109717000Y-76492800D02*
X109708000Y-76501400D01*
X109734000Y-76475500D02*
X109717000Y-76492800D01*
D32*
X109949800Y-83239200D02*
X109949800Y-84060000D01*
D29*
X109700000Y-77959800D02*
X109762000Y-78022200D01*
X109950000Y-72835000D02*
X109950000Y-74176900D01*
X109769000Y-76440900D02*
X109734000Y-76475500D01*
D32*
X109950000Y-83239000D02*
X109949800Y-83239200D01*
D29*
X109700000Y-77959800D02*
X109653000Y-77959800D01*
X109708000Y-76501400D02*
X109704000Y-76505700D01*
D32*
X109702000Y-76507900D02*
X109699900Y-76510000D01*
D29*
X109762000Y-78022200D02*
X109762000Y-80589100D01*
X109950000Y-83239000D02*
X109950000Y-84060000D01*
X109717000Y-76492800D02*
X109700000Y-76509900D01*
X109700000Y-76510100D02*
X109700000Y-77959800D01*
X109702000Y-76507900D02*
X109700000Y-76510100D01*
X109950000Y-82418000D02*
X109950000Y-83239000D01*
X109762000Y-80589100D02*
X109950000Y-80776600D01*
X109950000Y-81597500D02*
X109950000Y-82418000D01*
X109704000Y-76505700D02*
X109702000Y-76507900D01*
X109950000Y-81597300D02*
X109950000Y-81597500D01*
X109950000Y-80776600D02*
X109950000Y-81597300D01*
X109704000Y-76505700D02*
X109702000Y-76507900D01*
D32*
X109699900Y-76510000D02*
X109699900Y-76510100D01*
D29*
X109950000Y-74176900D02*
X109769000Y-74357800D01*
X109702000Y-76507900D02*
X109700000Y-76510100D01*
X109950000Y-81597500D02*
X109950000Y-82418000D01*
X109769000Y-74357800D02*
X109769000Y-76440900D01*
D31*
%TO.N,Net-(CN1-20-Pad35)*%
X109200000Y-76525100D02*
X109200000Y-76517600D01*
D32*
X109200000Y-76517600D02*
X109199800Y-76517400D01*
D29*
X109096000Y-78191200D02*
X109379000Y-78474100D01*
X109096000Y-77645100D02*
X109096000Y-78191200D01*
X109200000Y-76540500D02*
X109200000Y-76525300D01*
X109379000Y-78474100D02*
X109379000Y-82958000D01*
X109200000Y-76571100D02*
X109200000Y-77055800D01*
X109450000Y-73815900D02*
X109450000Y-72835000D01*
D31*
X109200000Y-76071100D02*
X109200000Y-76510100D01*
D29*
X109200000Y-76525300D02*
X109200000Y-76525100D01*
X109379000Y-82958000D02*
X109450000Y-83029000D01*
X109200000Y-77055800D02*
X109200000Y-77056000D01*
X109200000Y-76525100D02*
X109200000Y-76517600D01*
D31*
X109200000Y-76070900D02*
X109200000Y-76071100D01*
X109200000Y-76571100D02*
X109200000Y-76540500D01*
X109200000Y-76525100D02*
X109200000Y-76517600D01*
X109200000Y-76525300D02*
X109200000Y-76525100D01*
X109200000Y-77056000D02*
X109200000Y-77055800D01*
D29*
X109200000Y-77541000D02*
X109096000Y-77645100D01*
D31*
X109200000Y-76540500D02*
X109200000Y-76525300D01*
D32*
X109199800Y-76517400D02*
X109199800Y-76510100D01*
D29*
X109200000Y-76071100D02*
X109200000Y-76070900D01*
D31*
X109200000Y-76517600D02*
X109200000Y-76510100D01*
D29*
X109200000Y-75601300D02*
X109386000Y-75414900D01*
D31*
X109200000Y-76517600D02*
X109200000Y-76510100D01*
X109200000Y-77055800D02*
X109200000Y-76571100D01*
D29*
X109200000Y-76070900D02*
X109200000Y-75601300D01*
D31*
X109200000Y-76525300D02*
X109200000Y-76525100D01*
D29*
X109386000Y-75414900D02*
X109386000Y-73879700D01*
X109200000Y-76510100D02*
X109200000Y-76071100D01*
X109386000Y-73879700D02*
X109450000Y-73815900D01*
X109450000Y-83029000D02*
X109450000Y-84060000D01*
X109200000Y-77056000D02*
X109200000Y-77541000D01*
X109200000Y-76517600D02*
X109200000Y-76510100D01*
X109450000Y-84060000D02*
X109450000Y-85267000D01*
%TO.N,Net-(CN1-20-Pad37)*%
X108700000Y-76625300D02*
X108700000Y-76625200D01*
D31*
X108700000Y-76517200D02*
X108700000Y-76510100D01*
X108950000Y-83903000D02*
X108950000Y-83981500D01*
D29*
X108700000Y-76524400D02*
X108700000Y-76524300D01*
D32*
X108950000Y-83981500D02*
X108949800Y-83981700D01*
D29*
X108700000Y-76524400D02*
X108700000Y-76524300D01*
X108700000Y-76538800D02*
X108700000Y-76538700D01*
X108700000Y-76524300D02*
X108700000Y-76517200D01*
X108700000Y-76517200D02*
X108700000Y-76510100D01*
D31*
X108950000Y-83745000D02*
X108950000Y-83902000D01*
D29*
X108700000Y-76567600D02*
X108700000Y-76567500D01*
X108950000Y-83429000D02*
X108950000Y-83744000D01*
X108700000Y-76567500D02*
X108700000Y-76538800D01*
D31*
X108700000Y-76524400D02*
X108700000Y-76524300D01*
D29*
X108700000Y-78961600D02*
X108700000Y-76625300D01*
X108700000Y-76538700D02*
X108700000Y-76524400D01*
D32*
X108949800Y-83981700D02*
X108949800Y-84060000D01*
D29*
X108700000Y-76538700D02*
X108700000Y-76524400D01*
X108950000Y-83114000D02*
X108950000Y-83429000D01*
X108882000Y-79143200D02*
X108700000Y-78961600D01*
X108700000Y-76538700D02*
X108700000Y-76524400D01*
X108700000Y-76567600D02*
X108700000Y-76567500D01*
D31*
X108950000Y-83903000D02*
X108950000Y-83981500D01*
D29*
X108700000Y-76625200D02*
X108700000Y-76567600D01*
X108882000Y-81328800D02*
X108882000Y-79143200D01*
D31*
X108950000Y-83744000D02*
X108950000Y-83745000D01*
D29*
X108950000Y-81723000D02*
X108950000Y-83114000D01*
X108700000Y-76517200D02*
X108700000Y-76510100D01*
X108700000Y-76524300D02*
X108700000Y-76517200D01*
D31*
X108700000Y-76524300D02*
X108700000Y-76517200D01*
D29*
X108719000Y-81491700D02*
X108950000Y-81723000D01*
X108950000Y-75229100D02*
X108950000Y-72835000D01*
X108700000Y-76538800D02*
X108700000Y-76538700D01*
X108700000Y-76567600D02*
X108700000Y-76567500D01*
X108700000Y-76524300D02*
X108700000Y-76517200D01*
X108700000Y-76538800D02*
X108700000Y-76538700D01*
D31*
X108700000Y-76538700D02*
X108700000Y-76524400D01*
D32*
X108699900Y-76517100D02*
X108699900Y-76510100D01*
D29*
X108950000Y-83744000D02*
X108950000Y-83745000D01*
D31*
X108950000Y-83902000D02*
X108950000Y-83903000D01*
D29*
X108950000Y-83114000D02*
X108950000Y-83429000D01*
D31*
X108700000Y-76524400D02*
X108700000Y-76524300D01*
X108700000Y-76538800D02*
X108700000Y-76538700D01*
X108700000Y-76524300D02*
X108700000Y-76517200D01*
X108950000Y-83902000D02*
X108950000Y-83903000D01*
D29*
X108700000Y-76524400D02*
X108700000Y-76524300D01*
X108700000Y-76510100D02*
X108700000Y-75479200D01*
X108950000Y-83981500D02*
X108950000Y-84060000D01*
X108950000Y-83902000D02*
X108950000Y-83903000D01*
X108719000Y-81491700D02*
X108882000Y-81328800D01*
D31*
X108700000Y-76517200D02*
X108700000Y-76510100D01*
D29*
X108700000Y-76625300D02*
X108700000Y-76625200D01*
D31*
X108950000Y-83981500D02*
X108950000Y-84060000D01*
X108950000Y-83981500D02*
X108950000Y-84060000D01*
D29*
X108950000Y-83745000D02*
X108950000Y-83902000D01*
X108700000Y-76625200D02*
X108700000Y-76567600D01*
X108700000Y-76517200D02*
X108700000Y-76510100D01*
X108700000Y-75479200D02*
X108950000Y-75229100D01*
X108700000Y-76567500D02*
X108700000Y-76538800D01*
D32*
X108700000Y-76517200D02*
X108699900Y-76517100D01*
D29*
X108700000Y-76567500D02*
X108700000Y-76538800D01*
X108950000Y-83903000D02*
X108950000Y-83981500D01*
D31*
%TO.N,Net-(CN1-1-Pad5)*%
X116950000Y-83931000D02*
X116950000Y-83995500D01*
D32*
X116950000Y-83995500D02*
X116949800Y-83995700D01*
D29*
X116950000Y-83995500D02*
X116950000Y-84060000D01*
X116950000Y-83931000D02*
X116950000Y-83995500D01*
D31*
X116950000Y-83931000D02*
X116950000Y-83995500D01*
X116950000Y-83802000D02*
X116950000Y-83931000D01*
X116950000Y-83995500D02*
X116950000Y-84060000D01*
D29*
X117031000Y-82948000D02*
X116950000Y-83029000D01*
X116950000Y-83802000D02*
X116950000Y-83931000D01*
X116950000Y-83286000D02*
X116950000Y-83544000D01*
X116950000Y-83286000D02*
X116950000Y-83544000D01*
D31*
X116950000Y-83995500D02*
X116950000Y-84060000D01*
D32*
X116949800Y-83995700D02*
X116949800Y-84060000D01*
D29*
X117031000Y-80460000D02*
X117031000Y-82948000D01*
X116950000Y-83544000D02*
X116950000Y-83802000D01*
X116950000Y-83029000D02*
X116950000Y-83286000D01*
%TO.N,Net-(CN1-20-Pad39)*%
X108200000Y-77380900D02*
X108200000Y-78064200D01*
X108200000Y-76510100D02*
X108200000Y-75967500D01*
X108200000Y-76556900D02*
X108200000Y-76556700D01*
X108200000Y-77380700D02*
X108200000Y-77380900D01*
D31*
X108200000Y-77380900D02*
X108200000Y-77380700D01*
X108200000Y-76533400D02*
X108200000Y-76510100D01*
D32*
X108200000Y-76533400D02*
X108199800Y-76533200D01*
D29*
X108200000Y-76697600D02*
X108200000Y-77380700D01*
D31*
X108200000Y-75967500D02*
X108200000Y-76510100D01*
X108200000Y-76556900D02*
X108200000Y-76556700D01*
D29*
X108312000Y-79509300D02*
X108285000Y-79536300D01*
D31*
X108200000Y-77380700D02*
X108200000Y-76697600D01*
D29*
X108200000Y-76556700D02*
X108200000Y-76533400D01*
D31*
X108200000Y-76556900D02*
X108200000Y-76556700D01*
D29*
X108200000Y-78064200D02*
X108312000Y-78176300D01*
X108200000Y-75967500D02*
X108200000Y-75967300D01*
X108200000Y-75967300D02*
X108200000Y-75331000D01*
X108450000Y-84060000D02*
X108450000Y-83029000D01*
X108450000Y-75080800D02*
X108450000Y-72835000D01*
X108200000Y-76603700D02*
X108200000Y-76556900D01*
D31*
X108200000Y-76533400D02*
X108200000Y-76510100D01*
D29*
X108312000Y-78176300D02*
X108312000Y-79509300D01*
X108450000Y-83029000D02*
X108163000Y-82742000D01*
X108163000Y-82742000D02*
X108163000Y-79658500D01*
D32*
X108199800Y-76533200D02*
X108199800Y-76510100D01*
D31*
X108200000Y-75967300D02*
X108200000Y-75967500D01*
X108200000Y-76603700D02*
X108200000Y-76556900D01*
D29*
X108200000Y-75331000D02*
X108450000Y-75080800D01*
D31*
X108200000Y-76556700D02*
X108200000Y-76533400D01*
X108200000Y-76697600D02*
X108200000Y-76603700D01*
X108200000Y-76556700D02*
X108200000Y-76533400D01*
D29*
X108200000Y-76533400D02*
X108200000Y-76510100D01*
X108163000Y-79658500D02*
X108285000Y-79536300D01*
D31*
%TO.N,Net-(CN1-1-Pad69)*%
X100950000Y-83832000D02*
X100950000Y-83946000D01*
D29*
X100689000Y-77552000D02*
X100689000Y-80214309D01*
D31*
X100950000Y-83832000D02*
X100950000Y-83946000D01*
D29*
X100950000Y-73815900D02*
X100801000Y-73964600D01*
X100903000Y-82186000D02*
X100950000Y-82233000D01*
D31*
X100950000Y-83946000D02*
X100950000Y-84060000D01*
D29*
X100950000Y-72835000D02*
X100950000Y-73815900D01*
X100950000Y-82233000D02*
X101017000Y-82233000D01*
X100950000Y-83832000D02*
X100950000Y-83946000D01*
X100950000Y-82690000D02*
X100950000Y-83146000D01*
X100903000Y-80428310D02*
X100903000Y-82186000D01*
X100801000Y-73964600D02*
X100801000Y-75378100D01*
X100801000Y-75378100D02*
X100700000Y-75479500D01*
X100950000Y-83146000D02*
X100950000Y-83603000D01*
D31*
X100950000Y-83946000D02*
X100950000Y-84060000D01*
D32*
X100949800Y-83946200D02*
X100949800Y-84060000D01*
D29*
X100689000Y-80214309D02*
X100903000Y-80428310D01*
X100700000Y-76510400D02*
X100700000Y-77541300D01*
X100950000Y-82233000D02*
X100950000Y-82690000D01*
X100700000Y-77541300D02*
X100689000Y-77552000D01*
X100950000Y-83946000D02*
X100950000Y-84060000D01*
D32*
X100950000Y-83946000D02*
X100949800Y-83946200D01*
D31*
X100950000Y-83603000D02*
X100950000Y-83832000D01*
D32*
X100700000Y-76510400D02*
X100699900Y-76510400D01*
D29*
X100700000Y-75479500D02*
X100700000Y-76510400D01*
X100950000Y-83603000D02*
X100950000Y-83832000D01*
X100950000Y-82690000D02*
X100950000Y-83146000D01*
%TO.N,Net-(CN1-1-Pad71)*%
X100200000Y-76574100D02*
X100200000Y-76573900D01*
X100522000Y-81048200D02*
X100522000Y-80586125D01*
D31*
X100200000Y-76574100D02*
X100200000Y-76573900D01*
D29*
X100200000Y-80264125D02*
X100200000Y-76638000D01*
X100200000Y-77021200D02*
X100200000Y-76765800D01*
D31*
X100200000Y-76637800D02*
X100200000Y-76574100D01*
D29*
X100200000Y-76765800D02*
X100200000Y-76765600D01*
X100200000Y-76638000D02*
X100200000Y-76637800D01*
X100200000Y-77021400D02*
X100200000Y-77021200D01*
D32*
X100199800Y-76541900D02*
X100199800Y-76510400D01*
D29*
X100418000Y-72866600D02*
X100418000Y-74856400D01*
X100200000Y-76638000D02*
X100200000Y-76637800D01*
X100200000Y-76574100D02*
X100200000Y-76573900D01*
X100200000Y-76542100D02*
X100200000Y-76510400D01*
D31*
X100200000Y-76573900D02*
X100200000Y-76542100D01*
X100200000Y-76574100D02*
X100200000Y-76573900D01*
D29*
X100200000Y-75479500D02*
X100245000Y-75434000D01*
X100450000Y-84060000D02*
X100450000Y-81120200D01*
X100200000Y-76765600D02*
X100200000Y-76638000D01*
X100200000Y-76510400D02*
X100200000Y-75479500D01*
X100200000Y-76637800D02*
X100200000Y-76574100D01*
D31*
X100200000Y-76638000D02*
X100200000Y-76637800D01*
D29*
X100200000Y-76573900D02*
X100200000Y-76542100D01*
D31*
X100200000Y-76542100D02*
X100200000Y-76510400D01*
D29*
X100200000Y-76542100D02*
X100200000Y-76510400D01*
X100200000Y-76574100D02*
X100200000Y-76573900D01*
D31*
X100200000Y-76542100D02*
X100200000Y-76510400D01*
D29*
X100450000Y-72835000D02*
X100418000Y-72866600D01*
D31*
X100200000Y-76573900D02*
X100200000Y-76542100D01*
D29*
X100200000Y-76638000D02*
X100200000Y-76637800D01*
X100200000Y-76573900D02*
X100200000Y-76542100D01*
D32*
X100200000Y-76542100D02*
X100199800Y-76541900D01*
D29*
X100450000Y-81120200D02*
X100522000Y-81048200D01*
X100418000Y-74856400D02*
X100245000Y-75029500D01*
X100200000Y-76637800D02*
X100200000Y-76574100D01*
X100200000Y-76637800D02*
X100200000Y-76574100D01*
X100200000Y-76765600D02*
X100200000Y-76638000D01*
X100200000Y-76573900D02*
X100200000Y-76542100D01*
X100522000Y-80586125D02*
X100200000Y-80264125D01*
X100200000Y-76765800D02*
X100200000Y-76765600D01*
X100245000Y-75434000D02*
X100245000Y-75029500D01*
X100200000Y-76542100D02*
X100200000Y-76510400D01*
D31*
%TO.N,Net-(CN1-1-Pad73)*%
X99950000Y-83995500D02*
X99950000Y-84060000D01*
X99950000Y-83931000D02*
X99950000Y-83995500D01*
D29*
X99950000Y-83995500D02*
X99950000Y-84060000D01*
D31*
X99950000Y-83995500D02*
X99950000Y-84060000D01*
D29*
X99950000Y-83029000D02*
X99950000Y-83286000D01*
X99950000Y-83931000D02*
X99950000Y-83995500D01*
X99968000Y-80815600D02*
X99968000Y-83010000D01*
D31*
X99950000Y-83802000D02*
X99950000Y-83931000D01*
D29*
X99950000Y-83286000D02*
X99950000Y-83544000D01*
D32*
X99950000Y-83995500D02*
X99949800Y-83995700D01*
D29*
X99950000Y-83286000D02*
X99950000Y-83544000D01*
X99950000Y-83544000D02*
X99950000Y-83802000D01*
X99968000Y-83010000D02*
X99950000Y-83029000D01*
D32*
X99949800Y-83995700D02*
X99949800Y-84060000D01*
D29*
X99950000Y-83802000D02*
X99950000Y-83931000D01*
D31*
X99950000Y-83931000D02*
X99950000Y-83995500D01*
D29*
%TO.N,Net-(CN1-20-Pad41)*%
X107950000Y-85091000D02*
X107950000Y-84834000D01*
X107950000Y-84189000D02*
X107950000Y-84124500D01*
D31*
X107700000Y-76970200D02*
X107700000Y-76740300D01*
X107700000Y-76740300D02*
X107700000Y-76510400D01*
D29*
X107700000Y-77430400D02*
X107700000Y-78350500D01*
X107700000Y-77430300D02*
X107700000Y-77430400D01*
X107700000Y-76970200D02*
X107700000Y-76970300D01*
D31*
X107950000Y-84189000D02*
X107950000Y-84124500D01*
X107950000Y-84189000D02*
X107950000Y-84124500D01*
X107700000Y-76740300D02*
X107700000Y-76510400D01*
D29*
X107700000Y-76970300D02*
X107700000Y-77430300D01*
X107700000Y-76510400D02*
X107700000Y-76740300D01*
D31*
X107700000Y-77430400D02*
X107700000Y-77430300D01*
X107700000Y-77430300D02*
X107700000Y-76970300D01*
D29*
X108309000Y-85289000D02*
X108111000Y-85091000D01*
X107950000Y-74793300D02*
X107835000Y-74908200D01*
X107950000Y-72835000D02*
X107950000Y-74793300D01*
X107950000Y-84834000D02*
X107950000Y-84576000D01*
D31*
X107950000Y-84124500D02*
X107950000Y-84060000D01*
D32*
X107699900Y-76740200D02*
X107699900Y-76510400D01*
X107700000Y-76740300D02*
X107699900Y-76740200D01*
D31*
X107950000Y-84318000D02*
X107950000Y-84189000D01*
D29*
X107700000Y-76740300D02*
X107700000Y-76970200D01*
D32*
X107950000Y-84124500D02*
X107949800Y-84124300D01*
D29*
X107700000Y-78350500D02*
X107756000Y-78406600D01*
X107950000Y-84834000D02*
X107950000Y-84576000D01*
X108111000Y-85091000D02*
X107950000Y-85091000D01*
X107950000Y-84124500D02*
X107950000Y-84060000D01*
D31*
X107700000Y-76970300D02*
X107700000Y-76970200D01*
D29*
X107950000Y-84576000D02*
X107950000Y-84318000D01*
D32*
X107949800Y-84124300D02*
X107949800Y-84060000D01*
D29*
X107950000Y-84318000D02*
X107950000Y-84189000D01*
D31*
X107700000Y-76970300D02*
X107700000Y-76970200D01*
X107700000Y-76970200D02*
X107700000Y-76740300D01*
X107950000Y-84124500D02*
X107950000Y-84060000D01*
D29*
%TO.N,+3V3*%
X117950000Y-84026000D02*
X117950000Y-84060000D01*
X117950000Y-83786000D02*
X117950000Y-83923000D01*
X119300000Y-77560000D02*
X119680900Y-77940900D01*
X116600000Y-96935000D02*
X116600000Y-95960000D01*
X116399956Y-111085044D02*
X116400000Y-111085000D01*
X118925000Y-109100000D02*
X119400000Y-109100000D01*
X117400000Y-111500000D02*
X116985000Y-111085000D01*
X117950000Y-83923000D02*
X117950000Y-83992000D01*
X116500000Y-101635000D02*
X116500000Y-100760000D01*
D31*
X117950000Y-84026000D02*
X117950000Y-84060000D01*
D29*
X117950000Y-84026000D02*
X117950000Y-85210000D01*
X110300000Y-114685000D02*
X110300000Y-115660000D01*
X117950000Y-85210000D02*
X118750000Y-86010000D01*
X117950000Y-83923000D02*
X117950000Y-83992000D01*
X117950000Y-83923000D02*
X117950000Y-83992000D01*
D31*
X117950000Y-83923000D02*
X117950000Y-83992000D01*
D29*
X117950000Y-83992000D02*
X117950000Y-84026000D01*
X119680900Y-77940900D02*
X119680900Y-80202100D01*
X114365761Y-111085044D02*
X116399956Y-111085044D01*
D32*
X117949800Y-84026200D02*
X117949800Y-84060000D01*
D29*
X117950000Y-83786000D02*
X117950000Y-83923000D01*
D31*
X117950000Y-83992000D02*
X117950000Y-84026000D01*
D29*
X118625000Y-108800000D02*
X118925000Y-109100000D01*
X119680900Y-80202100D02*
X117950000Y-81933000D01*
X116985000Y-111085000D02*
X116400000Y-111085000D01*
X110900000Y-96935000D02*
X110900000Y-95960000D01*
X117950000Y-83992000D02*
X117950000Y-84026000D01*
X112800000Y-96935000D02*
X112800000Y-95960000D01*
X100987500Y-96935000D02*
X100987500Y-95960000D01*
X118025000Y-105260000D02*
X118900000Y-105260000D01*
X109000000Y-96935000D02*
X109000000Y-95960000D01*
X105000000Y-97035000D02*
X105000000Y-96060000D01*
D31*
X117950000Y-83992000D02*
X117950000Y-84026000D01*
D29*
X117950000Y-81933000D02*
X117950000Y-83923000D01*
X117950000Y-84026000D02*
X117950000Y-84060000D01*
X118750000Y-86010000D02*
X119050000Y-86010000D01*
X117950000Y-83992000D02*
X117950000Y-84026000D01*
X119400000Y-109100000D02*
X119500000Y-109200000D01*
D31*
X117950000Y-84026000D02*
X117950000Y-84060000D01*
D32*
X117950000Y-84026000D02*
X117949800Y-84026200D01*
D29*
X117950000Y-83512000D02*
X117950000Y-83786000D01*
D31*
%TO.N,Net-(CN1-20-Pad43)*%
X107200000Y-76596100D02*
X107200000Y-76595900D01*
D32*
X107200000Y-76553100D02*
X107199800Y-76552900D01*
D29*
X107200000Y-76595900D02*
X107200000Y-76553100D01*
X107200000Y-75970100D02*
X107200000Y-74757400D01*
X107450000Y-74507200D02*
X107450000Y-72835000D01*
X107782000Y-82899815D02*
X107450000Y-83231815D01*
X107200000Y-76681800D02*
X107200000Y-76596100D01*
X107200000Y-77651000D02*
X107200000Y-80803400D01*
X107200000Y-76596100D02*
X107200000Y-76595900D01*
X107450000Y-83231815D02*
X107450000Y-85001000D01*
D31*
X107200000Y-76596100D02*
X107200000Y-76595900D01*
D29*
X107200000Y-80803400D02*
X107782000Y-81385400D01*
D31*
X107200000Y-76595900D02*
X107200000Y-76553100D01*
D29*
X107200000Y-75970300D02*
X107200000Y-75970100D01*
D31*
X107200000Y-76553100D02*
X107200000Y-76510400D01*
D32*
X107199800Y-76552900D02*
X107199800Y-76510400D01*
D29*
X107200000Y-74757400D02*
X107450000Y-74507200D01*
X107782000Y-81385400D02*
X107782000Y-82899815D01*
X107200000Y-76510400D02*
X107200000Y-75970300D01*
X107200000Y-76553100D02*
X107200000Y-76510400D01*
D31*
X107200000Y-75970100D02*
X107200000Y-75970300D01*
X107200000Y-76853500D02*
X107200000Y-76681800D01*
D29*
X107200000Y-77650800D02*
X107200000Y-77651000D01*
D31*
X107200000Y-76595900D02*
X107200000Y-76553100D01*
D29*
X107450000Y-85001000D02*
X107151000Y-85300000D01*
D31*
X107200000Y-77650800D02*
X107200000Y-76853500D01*
X107200000Y-76681800D02*
X107200000Y-76596100D01*
X107200000Y-75970300D02*
X107200000Y-76510400D01*
X107200000Y-76553100D02*
X107200000Y-76510400D01*
X107200000Y-77651000D02*
X107200000Y-77650800D01*
D29*
X107200000Y-76853500D02*
X107200000Y-77650800D01*
%TO.N,Net-(CN1-20-Pad45)*%
X106700000Y-76547100D02*
X106700000Y-76528700D01*
D32*
X106699900Y-76519400D02*
X106699900Y-76510400D01*
D31*
X106700000Y-76528700D02*
X106700000Y-76528600D01*
D29*
X106700000Y-76510400D02*
X106700000Y-75489000D01*
X106700000Y-76547200D02*
X106700000Y-76547100D01*
D31*
X106950000Y-83699000D02*
X106950000Y-83879500D01*
X106950000Y-83879500D02*
X106950000Y-84060000D01*
D29*
X106700000Y-75489000D02*
X106808000Y-75380700D01*
D32*
X106950000Y-83879500D02*
X106949800Y-83879700D01*
D29*
X106700000Y-76547100D02*
X106700000Y-76528700D01*
X107300000Y-82800023D02*
X106950000Y-83150023D01*
X106700000Y-76528600D02*
X106700000Y-76519500D01*
X106808000Y-74205200D02*
X106950000Y-74063400D01*
X106700000Y-76584200D02*
X106700000Y-76584100D01*
X106700000Y-76528600D02*
X106700000Y-76519500D01*
X106700000Y-76584100D02*
X106700000Y-76547200D01*
X106700000Y-76547200D02*
X106700000Y-76547100D01*
D31*
X106950000Y-83699000D02*
X106950000Y-83879500D01*
D29*
X106600000Y-79760000D02*
X106786000Y-79946000D01*
D31*
X106700000Y-76519500D02*
X106700000Y-76510400D01*
D29*
X106700000Y-76584100D02*
X106700000Y-76547200D01*
X106600000Y-79760000D02*
X106700000Y-79660000D01*
X106700000Y-76519500D02*
X106700000Y-76510400D01*
X106700000Y-76658200D02*
X106700000Y-76658100D01*
X106700000Y-76519500D02*
X106700000Y-76510400D01*
X106700000Y-76528700D02*
X106700000Y-76528600D01*
X106700000Y-76584200D02*
X106700000Y-76584100D01*
X106950000Y-83879500D02*
X106950000Y-84060000D01*
X106950000Y-74063400D02*
X106950000Y-72835000D01*
X106700000Y-76528600D02*
X106700000Y-76519500D01*
X106786000Y-81008100D02*
X107300000Y-81522100D01*
D31*
X106700000Y-76528600D02*
X106700000Y-76519500D01*
D29*
X106950000Y-83150023D02*
X106950000Y-83338000D01*
X106700000Y-76658100D02*
X106700000Y-76584200D01*
X106950000Y-83699000D02*
X106950000Y-83879500D01*
X106700000Y-79660000D02*
X106700000Y-76547200D01*
D31*
X106700000Y-76528700D02*
X106700000Y-76528600D01*
D29*
X106950000Y-83338000D02*
X106950000Y-83699000D01*
D31*
X106950000Y-83338000D02*
X106950000Y-83699000D01*
X106950000Y-83879500D02*
X106950000Y-84060000D01*
D29*
X107300000Y-81522100D02*
X107300000Y-82800023D01*
D32*
X106700000Y-76519500D02*
X106699900Y-76519400D01*
X106949800Y-83879700D02*
X106949800Y-84060000D01*
D31*
X106700000Y-76547100D02*
X106700000Y-76528700D01*
D29*
X106786000Y-79946000D02*
X106786000Y-81008100D01*
D31*
X106700000Y-76528600D02*
X106700000Y-76519500D01*
D29*
X106700000Y-76547100D02*
X106700000Y-76528700D01*
X106700000Y-76519500D02*
X106700000Y-76510400D01*
X106808000Y-75380700D02*
X106808000Y-74205200D01*
D31*
X106700000Y-76547200D02*
X106700000Y-76547100D01*
D29*
X106700000Y-76528700D02*
X106700000Y-76528600D01*
X106700000Y-76528700D02*
X106700000Y-76528600D01*
D31*
X106700000Y-76519500D02*
X106700000Y-76510400D01*
D29*
X106700000Y-76547200D02*
X106700000Y-76547100D01*
%TO.N,Net-(CN1-20-Pad49)*%
X105950000Y-83995500D02*
X105950000Y-84060000D01*
X105950000Y-73847300D02*
X105950000Y-72835000D01*
D31*
X105700000Y-76494200D02*
X105700000Y-76510400D01*
D29*
X105700000Y-76445700D02*
X105700000Y-75962700D01*
D31*
X105700000Y-76730500D02*
X105700000Y-76510400D01*
D29*
X105700000Y-75479500D02*
X105794000Y-75385000D01*
X105700000Y-76510400D02*
X105700000Y-76730500D01*
D31*
X105950000Y-83931000D02*
X105950000Y-83995500D01*
X105700000Y-75962600D02*
X105700000Y-75962700D01*
D32*
X105700000Y-76494200D02*
X105699900Y-76494300D01*
D29*
X105794000Y-75385000D02*
X105794000Y-74002900D01*
D31*
X105700000Y-76730600D02*
X105700000Y-76730500D01*
D32*
X105949800Y-83995700D02*
X105949800Y-84060000D01*
D31*
X105700000Y-76730600D02*
X105700000Y-76730500D01*
X105700000Y-76730500D02*
X105700000Y-76510400D01*
X105950000Y-83995500D02*
X105950000Y-84060000D01*
D29*
X105700000Y-76478100D02*
X105700000Y-76494200D01*
D31*
X105700000Y-76445700D02*
X105700000Y-76478100D01*
D29*
X105700000Y-75962700D02*
X105700000Y-75962600D01*
X105950000Y-83286000D02*
X105950000Y-83544000D01*
X105794000Y-74002900D02*
X105950000Y-73847300D01*
D32*
X105950000Y-83995500D02*
X105949800Y-83995700D01*
D31*
X105700000Y-75962700D02*
X105700000Y-76445700D01*
X105950000Y-83995500D02*
X105950000Y-84060000D01*
D29*
X105700000Y-76730500D02*
X105700000Y-76730600D01*
D31*
X105700000Y-76951000D02*
X105700000Y-76950900D01*
D32*
X105699900Y-76494300D02*
X105699900Y-76510400D01*
D31*
X105950000Y-83802000D02*
X105950000Y-83931000D01*
X105950000Y-83931000D02*
X105950000Y-83995500D01*
X105700000Y-76478100D02*
X105700000Y-76494200D01*
X105700000Y-76950900D02*
X105700000Y-76730600D01*
D29*
X105700000Y-76494200D02*
X105700000Y-76510400D01*
X105700000Y-75962600D02*
X105700000Y-75479500D01*
%TO.N,Net-(CN1-20-Pad51)*%
X105483500Y-82360000D02*
X105450000Y-82326500D01*
X105196000Y-76514600D02*
X105198000Y-76512500D01*
X105450000Y-84060000D02*
X105450000Y-81577100D01*
X105200000Y-76510700D02*
X105200000Y-76510400D01*
X105200000Y-76510400D02*
X105198000Y-76512500D01*
X105048000Y-78262900D02*
X105196000Y-78115600D01*
X105238000Y-74658700D02*
X105379000Y-74517800D01*
X105196000Y-78115600D02*
X105196000Y-76514600D01*
X105198000Y-76512500D02*
X105200000Y-76510700D01*
X105379000Y-74517800D02*
X105379000Y-73847200D01*
D32*
X105199800Y-76510400D02*
X105200000Y-76510400D01*
D29*
X105450000Y-81577100D02*
X105450000Y-81110000D01*
X105048000Y-80708000D02*
X105048000Y-78262900D01*
X105379000Y-73847200D02*
X105450000Y-73776600D01*
X105450000Y-82326500D02*
X105450000Y-81577100D01*
X105450000Y-81110000D02*
X105048000Y-80708000D01*
X105450000Y-73776600D02*
X105450000Y-72835000D01*
%TO.N,Net-(CN1-20-Pad59)*%
X103450000Y-74493600D02*
X103536000Y-74579400D01*
X103536000Y-75065900D02*
X103296000Y-75305800D01*
X103168000Y-77559700D02*
X103168000Y-79128800D01*
D32*
X103450000Y-84060000D02*
X103450000Y-84060300D01*
D29*
X103450000Y-84060000D02*
X103435000Y-84045000D01*
X103435000Y-84045000D02*
X103435000Y-79395200D01*
D31*
X103200000Y-76510400D02*
X103296000Y-76510400D01*
D29*
X103296000Y-77432200D02*
X103168000Y-77559700D01*
X103435000Y-79395200D02*
X103344000Y-79304100D01*
X103296000Y-75305800D02*
X103296000Y-76510400D01*
X103450000Y-72835000D02*
X103450000Y-74493600D01*
X103296000Y-76510400D02*
X103296000Y-77432200D01*
X103168000Y-79128800D02*
X103344000Y-79304100D01*
D32*
X103199800Y-76510400D02*
X103200000Y-76510400D01*
D29*
X103536000Y-74579400D02*
X103536000Y-75065900D01*
%TO.N,Net-(CN1-20-Pad61)*%
X102833000Y-73933000D02*
X102950000Y-73815900D01*
X102700000Y-76472600D02*
X102700000Y-76491500D01*
X102950000Y-84060000D02*
X102950000Y-84359500D01*
X102700000Y-76491500D02*
X102700000Y-77528300D01*
D31*
X102700000Y-76472500D02*
X102700000Y-76472600D01*
D29*
X102700000Y-77528300D02*
X102783000Y-77611300D01*
D31*
X102700000Y-76491500D02*
X102700000Y-76510400D01*
D29*
X102757000Y-75132300D02*
X102833000Y-75056400D01*
X102700000Y-76472500D02*
X102700000Y-76472600D01*
X102700000Y-76472500D02*
X102700000Y-76472600D01*
D31*
X102700000Y-76472600D02*
X102700000Y-76491500D01*
D29*
X102700000Y-76358900D02*
X102700000Y-76434600D01*
X102950000Y-84659000D02*
X102950000Y-85258000D01*
X102700000Y-76434700D02*
X102700000Y-76472500D01*
X102700000Y-76358900D02*
X102700000Y-76434600D01*
X102700000Y-76434700D02*
X102700000Y-76472500D01*
X102700000Y-76472600D02*
X102700000Y-76491500D01*
X102950000Y-84359500D02*
X102950000Y-84659000D01*
X102950000Y-73815900D02*
X102950000Y-72835000D01*
X102783000Y-79529500D02*
X102950000Y-79696500D01*
X102700000Y-76358800D02*
X102700000Y-75189400D01*
X102700000Y-76434600D02*
X102700000Y-76434700D01*
X102950000Y-80787200D02*
X102950000Y-81878000D01*
X102950000Y-79696500D02*
X102950000Y-83568000D01*
X102700000Y-76510400D02*
X102700000Y-77019200D01*
D31*
X102700000Y-76491500D02*
X102700000Y-76510400D01*
X102700000Y-76472600D02*
X102700000Y-76491500D01*
X102950000Y-84659000D02*
X102950000Y-84359500D01*
D29*
X102700000Y-76358800D02*
X102700000Y-76358900D01*
X102833000Y-75056400D02*
X102833000Y-73933000D01*
X102700000Y-76358800D02*
X102700000Y-76358900D01*
D32*
X102949800Y-84359300D02*
X102949800Y-84060300D01*
D29*
X102783000Y-77611300D02*
X102783000Y-79529500D01*
D31*
X102700000Y-76434600D02*
X102700000Y-76434700D01*
D29*
X102700000Y-76434600D02*
X102700000Y-76434700D01*
X102700000Y-77019200D02*
X102700000Y-77019300D01*
D31*
X102700000Y-76434700D02*
X102700000Y-76472500D01*
X102950000Y-83568000D02*
X102950000Y-84060000D01*
X102950000Y-84359500D02*
X102950000Y-84060000D01*
D29*
X102700000Y-75189400D02*
X102757000Y-75132300D01*
D31*
X102700000Y-76472500D02*
X102700000Y-76472600D01*
D32*
X102699900Y-76491600D02*
X102699900Y-76510400D01*
D29*
X102700000Y-76491500D02*
X102700000Y-76510400D01*
X102950000Y-83568000D02*
X102950000Y-84060000D01*
D32*
X102950000Y-84359500D02*
X102949800Y-84359300D01*
X102700000Y-76491500D02*
X102699900Y-76491600D01*
D29*
%TO.N,Net-(CN1-1-Pad67)*%
X101200000Y-77942300D02*
X101200000Y-77942500D01*
X101200000Y-74194300D02*
X101450000Y-73944100D01*
D31*
X101200000Y-76645000D02*
X101200000Y-76644800D01*
X101200000Y-76577600D02*
X101200000Y-76510400D01*
X101200000Y-77049000D02*
X101200000Y-76779600D01*
D29*
X101450000Y-84060000D02*
X101450000Y-83029000D01*
X101200000Y-77049000D02*
X101200000Y-77942300D01*
D31*
X101200000Y-76779600D02*
X101200000Y-76645000D01*
D29*
X101200000Y-78836100D02*
X101245000Y-78881400D01*
X101200000Y-76021000D02*
X101200000Y-76020800D01*
X101200000Y-76577600D02*
X101200000Y-76510400D01*
X101625000Y-82055000D02*
X101284000Y-81714000D01*
X101450000Y-73944100D02*
X101450000Y-72835000D01*
X101284000Y-81714000D02*
X101284000Y-80270495D01*
X101625000Y-82854000D02*
X101625000Y-82055000D01*
D32*
X101199800Y-76577400D02*
X101199800Y-76510400D01*
D29*
X101450000Y-83029000D02*
X101625000Y-82854000D01*
D31*
X101200000Y-76644800D02*
X101200000Y-76577600D01*
D29*
X101200000Y-76510400D02*
X101200000Y-76021000D01*
D31*
X101200000Y-76021000D02*
X101200000Y-76510400D01*
D29*
X101284000Y-80270495D02*
X101100000Y-80086495D01*
D32*
X101200000Y-76577600D02*
X101199800Y-76577400D01*
D29*
X101200000Y-76020800D02*
X101200000Y-74194300D01*
X101100000Y-80086495D02*
X101100000Y-79026400D01*
X101200000Y-76779600D02*
X101200000Y-76645000D01*
D31*
X101200000Y-76020800D02*
X101200000Y-76021000D01*
D29*
X101200000Y-76644800D02*
X101200000Y-76577600D01*
X101200000Y-77942500D02*
X101200000Y-78836100D01*
X101100000Y-79026400D02*
X101245000Y-78881400D01*
D31*
X101200000Y-76644800D02*
X101200000Y-76577600D01*
X101200000Y-77942300D02*
X101200000Y-77049000D01*
X101200000Y-76577600D02*
X101200000Y-76510400D01*
X101200000Y-76645000D02*
X101200000Y-76644800D01*
X101200000Y-77942500D02*
X101200000Y-77942300D01*
D29*
X101200000Y-76645000D02*
X101200000Y-76644800D01*
%TO.N,Net-(CN1-1-Pad7)*%
X116450000Y-84060000D02*
X116450000Y-81290200D01*
X116450000Y-81290200D02*
X116451000Y-81289000D01*
%TO.N,Net-(CN1-20-Pad63)*%
X102450000Y-83042000D02*
X102450000Y-84060000D01*
X102450000Y-74406300D02*
X102450000Y-72835000D01*
D32*
X102199800Y-76510400D02*
X102200000Y-76510400D01*
D29*
X102200000Y-78054700D02*
X102402000Y-78257400D01*
X102200000Y-74685300D02*
X102200000Y-76510400D01*
D32*
X102450000Y-84060000D02*
X102450000Y-84060300D01*
D29*
X102185000Y-74670900D02*
X102200000Y-74685300D01*
X102185000Y-74670900D02*
X102450000Y-74406300D01*
X102200000Y-76510400D02*
X102200000Y-78054700D01*
X102402000Y-78257400D02*
X102402000Y-82995000D01*
X102402000Y-82995000D02*
X102450000Y-83042000D01*
%TO.N,Net-(CN1-1-Pad74)*%
X99700000Y-76381600D02*
X99700000Y-76446000D01*
D31*
X99700000Y-76381500D02*
X99700000Y-76381600D01*
X99700000Y-76252700D02*
X99700000Y-76381500D01*
D29*
X99700000Y-75737300D02*
X99700000Y-75994900D01*
X99700000Y-75737200D02*
X99700000Y-75737300D01*
X99689000Y-74076500D02*
X99689000Y-75469000D01*
X99700000Y-76381500D02*
X99700000Y-76381600D01*
D31*
X99700000Y-76381600D02*
X99700000Y-76446000D01*
X99700000Y-76381600D02*
X99700000Y-76446000D01*
D29*
X99700000Y-75737200D02*
X99700000Y-75737300D01*
X99700000Y-75479500D02*
X99700000Y-75737200D01*
D32*
X99699900Y-76446100D02*
X99699900Y-76510400D01*
X99700000Y-76446000D02*
X99699900Y-76446100D01*
D29*
X99950000Y-73815900D02*
X99689000Y-74076500D01*
X99689000Y-75469000D02*
X99700000Y-75479500D01*
D31*
X99700000Y-76446000D02*
X99700000Y-76510400D01*
D29*
X99950000Y-72835000D02*
X99950000Y-73815900D01*
D31*
X99700000Y-76446000D02*
X99700000Y-76510400D01*
D29*
X99700000Y-75737300D02*
X99700000Y-75994900D01*
X99700000Y-76446000D02*
X99700000Y-76510400D01*
D31*
X99700000Y-76381500D02*
X99700000Y-76381600D01*
D29*
X99700000Y-75994900D02*
X99700000Y-76252600D01*
X99700000Y-76252600D02*
X99700000Y-76252700D01*
X99700000Y-76252700D02*
X99700000Y-76381500D01*
D31*
X99700000Y-76252600D02*
X99700000Y-76252700D01*
D29*
%TO.N,Net-(CN1-1-Pad9)*%
X115950000Y-83818000D02*
X115950000Y-83939000D01*
X115950000Y-83939000D02*
X115950000Y-84060000D01*
D32*
X115949800Y-83939200D02*
X115949800Y-84060000D01*
D29*
X115950000Y-83575000D02*
X115950000Y-83818000D01*
X115950000Y-83090000D02*
X115950000Y-83575000D01*
D31*
X115950000Y-83818000D02*
X115950000Y-83939000D01*
X115950000Y-83939000D02*
X115950000Y-84060000D01*
D29*
X115950000Y-82605000D02*
X115950000Y-83090000D01*
D31*
X115950000Y-83575000D02*
X115950000Y-83818000D01*
D29*
X115950000Y-81573900D02*
X115950000Y-82605000D01*
X115950000Y-82605000D02*
X115950000Y-83090000D01*
D32*
X115950000Y-83939000D02*
X115949800Y-83939200D01*
D31*
X115950000Y-83939000D02*
X115950000Y-84060000D01*
X115950000Y-83818000D02*
X115950000Y-83939000D01*
D29*
X115543000Y-81167100D02*
X115950000Y-81573900D01*
%TO.N,GND*%
X114700000Y-96935000D02*
X114700000Y-95960000D01*
X116400000Y-112635000D02*
X115425000Y-112635000D01*
X118950000Y-92993000D02*
X118950000Y-92994000D01*
D32*
X118950000Y-93063000D02*
X118949500Y-93063500D01*
D29*
X118400000Y-76960000D02*
X117950000Y-76510100D01*
X99308000Y-73918700D02*
X99450000Y-73777100D01*
X99450000Y-73777100D02*
X99450000Y-72835000D01*
X117825000Y-76510100D02*
X117762500Y-76510100D01*
X118950000Y-90625000D02*
X118950000Y-89332000D01*
D32*
X118950000Y-89168000D02*
X118949500Y-89168500D01*
D29*
X99156000Y-76316200D02*
X99296000Y-76176600D01*
X99450000Y-81596900D02*
X97285000Y-79432200D01*
X101200000Y-116260000D02*
X101200000Y-118660000D01*
X118950000Y-92575000D02*
X118950000Y-92854000D01*
D32*
X118949500Y-89168500D02*
X118949500Y-89331600D01*
D29*
X113700000Y-102560000D02*
X113700000Y-101960000D01*
X99450000Y-84060000D02*
X99450000Y-81596900D01*
X107100000Y-96935000D02*
X107100000Y-95960000D01*
D31*
X118950000Y-92993000D02*
X118950000Y-92994000D01*
D29*
X117950000Y-76510100D02*
X117825000Y-76510100D01*
X113774956Y-102634956D02*
X113700000Y-102560000D01*
X117762500Y-76510100D02*
X117700000Y-76510100D01*
X117825000Y-76510100D02*
X117762500Y-76510100D01*
X118950000Y-90625000D02*
X118950000Y-91864000D01*
X118950000Y-92994000D02*
X118950000Y-93063000D01*
X117762500Y-76510100D02*
X117700000Y-76510100D01*
X119172000Y-88946000D02*
X118950000Y-89168000D01*
X99308000Y-75551600D02*
X99308000Y-73918700D01*
X120061900Y-77341100D02*
X117950000Y-75229200D01*
X99296000Y-76176600D02*
X99296000Y-75564100D01*
D31*
X118950000Y-93063000D02*
X118950000Y-93132000D01*
D29*
X118950000Y-91864000D02*
X118950000Y-92575000D01*
X118950000Y-90625000D02*
X118950000Y-89332000D01*
D31*
X118950000Y-92994000D02*
X118950000Y-93063000D01*
D32*
X117700000Y-76510100D02*
X117699900Y-76510100D01*
D29*
X117700000Y-76510100D02*
X117700000Y-75479200D01*
D31*
X118950000Y-93063000D02*
X118950000Y-93132000D01*
D29*
X106349956Y-111085044D02*
X106300000Y-111135000D01*
X115425000Y-112635000D02*
X115400000Y-112660000D01*
D31*
X118950000Y-92994000D02*
X118950000Y-93063000D01*
X118950000Y-92854000D02*
X118950000Y-92993000D01*
D29*
X118950000Y-92854000D02*
X118950000Y-92993000D01*
D31*
X118950000Y-92993000D02*
X118950000Y-92994000D01*
D29*
X99156000Y-76316200D02*
X99123000Y-76316200D01*
D31*
X118950000Y-89168000D02*
X118950000Y-89332000D01*
D29*
X119172000Y-88676000D02*
X120061900Y-87786100D01*
X117700000Y-75479200D02*
X117950000Y-75229200D01*
X114365761Y-102634956D02*
X113774956Y-102634956D01*
X108400000Y-114685000D02*
X108400000Y-115760000D01*
X119172000Y-88676000D02*
X119172000Y-88946000D01*
X113700000Y-101960000D02*
X113400000Y-101660000D01*
X117950000Y-75229200D02*
X117950000Y-72835000D01*
X120061900Y-87786100D02*
X120061900Y-77341100D01*
X97285000Y-78187200D02*
X99156000Y-76316200D01*
X108634239Y-111085044D02*
X106349956Y-111085044D01*
X102800000Y-102385000D02*
X102800000Y-101260000D01*
D32*
X118949500Y-93063500D02*
X118949500Y-93131600D01*
D29*
X118950000Y-93063000D02*
X118950000Y-93132000D01*
X118950000Y-91864000D02*
X118950000Y-92575000D01*
X97285000Y-79432200D02*
X97285000Y-78187200D01*
X102887500Y-96935000D02*
X102887500Y-95960000D01*
X106300000Y-111135000D02*
X106300000Y-112160000D01*
X99296000Y-75564100D02*
X99308000Y-75551600D01*
D31*
%TO.N,Net-(LED1-+)*%
X117350000Y-89138000D02*
X117350000Y-89238000D01*
D29*
X117350000Y-89238000D02*
X117350000Y-89338000D01*
X117328962Y-89360000D02*
X117350533Y-89338429D01*
D32*
X117350500Y-89238500D02*
X117350500Y-89338400D01*
D31*
X117350000Y-89238000D02*
X117350000Y-89338000D01*
X117350000Y-89138000D02*
X117350000Y-89238000D01*
D29*
X117350000Y-89138000D02*
X117350000Y-89238000D01*
D31*
X117350000Y-89238000D02*
X117350000Y-89338000D01*
D29*
X115625000Y-89360000D02*
X117328962Y-89360000D01*
D32*
X117350000Y-89238000D02*
X117350500Y-89238500D01*
D30*
%TO.N,+5V*%
X114457506Y-86860000D02*
X114457506Y-87102494D01*
X113975000Y-87585000D02*
X113975000Y-89360000D01*
X113975000Y-89360000D02*
X113200000Y-89360000D01*
X114457506Y-87102494D02*
X113975000Y-87585000D01*
X114457506Y-86860000D02*
X113300000Y-86860000D01*
D31*
%TO.N,Net-(LED2-+)*%
X117350000Y-93097000D02*
X117350000Y-93138000D01*
D29*
X117350000Y-93097000D02*
X117350000Y-93138000D01*
D32*
X117350000Y-93097000D02*
X117350500Y-93097500D01*
D29*
X119050000Y-87660000D02*
X118200000Y-88510000D01*
X117350000Y-92974000D02*
X117350000Y-93056000D01*
D31*
X117350000Y-93056000D02*
X117350000Y-93097000D01*
D29*
X117350000Y-93056000D02*
X117350000Y-93097000D01*
X118200000Y-88510000D02*
X118200000Y-92124000D01*
D31*
X117350000Y-92974000D02*
X117350000Y-93056000D01*
X117350000Y-93097000D02*
X117350000Y-93138000D01*
D32*
X117350500Y-93097500D02*
X117350500Y-93138400D01*
D29*
X118200000Y-92124000D02*
X117350000Y-92974000D01*
D31*
X117350000Y-93056000D02*
X117350000Y-93097000D01*
D32*
%TO.N,Net-(CN1-20-Pad29)*%
X110950000Y-83995500D02*
X110949800Y-83995700D01*
D29*
X110950000Y-83802000D02*
X110950000Y-83931000D01*
D31*
X110700000Y-76501000D02*
X110700000Y-76501100D01*
D29*
X110700000Y-76491900D02*
X110700000Y-76501000D01*
X110700000Y-76473600D02*
X110700000Y-76491800D01*
D31*
X110700000Y-76501000D02*
X110700000Y-76501100D01*
D29*
X110950000Y-83029000D02*
X110950000Y-83286000D01*
X110700000Y-74999300D02*
X110700000Y-76436900D01*
D32*
X110700000Y-76505600D02*
X110699900Y-76505700D01*
D31*
X110700000Y-76491900D02*
X110700000Y-76501000D01*
D29*
X110700000Y-76473600D02*
X110700000Y-76491800D01*
X110700000Y-76436900D02*
X110700000Y-76437000D01*
X110700000Y-76491800D02*
X110700000Y-76491900D01*
X110700000Y-76473500D02*
X110700000Y-76473600D01*
X110700000Y-76501000D02*
X110700000Y-76501100D01*
D31*
X110950000Y-83931000D02*
X110950000Y-83995500D01*
D29*
X110894000Y-82973000D02*
X110950000Y-83029000D01*
D31*
X110700000Y-76501100D02*
X110700000Y-76505600D01*
D29*
X110700000Y-76491800D02*
X110700000Y-76491900D01*
X110950000Y-83995500D02*
X110950000Y-84060000D01*
X110950000Y-83286000D02*
X110950000Y-83544000D01*
X110700000Y-76501000D02*
X110700000Y-76501100D01*
X110948000Y-78123100D02*
X110948000Y-79323100D01*
X110700000Y-77874600D02*
X110948000Y-78123100D01*
X110700000Y-76491800D02*
X110700000Y-76491900D01*
X110700000Y-76473500D02*
X110700000Y-76473600D01*
X110881000Y-74818300D02*
X110700000Y-74999300D01*
D31*
X110700000Y-76505600D02*
X110700000Y-76510100D01*
D29*
X110700000Y-76510100D02*
X110700000Y-77874600D01*
X110700000Y-76501100D02*
X110700000Y-76505600D01*
X110950000Y-83286000D02*
X110950000Y-83544000D01*
D31*
X110950000Y-83995500D02*
X110950000Y-84060000D01*
D29*
X110700000Y-76505600D02*
X110700000Y-76510100D01*
X110881000Y-72904100D02*
X110881000Y-74818300D01*
D31*
X110950000Y-83995500D02*
X110950000Y-84060000D01*
D29*
X110700000Y-76491900D02*
X110700000Y-76501000D01*
X110700000Y-76491900D02*
X110700000Y-76501000D01*
X110700000Y-76505600D02*
X110700000Y-76510100D01*
X110700000Y-76501100D02*
X110700000Y-76505600D01*
D32*
X110949800Y-83995700D02*
X110949800Y-84060000D01*
D29*
X110950000Y-83544000D02*
X110950000Y-83802000D01*
X110700000Y-76437000D02*
X110700000Y-76473500D01*
X110700000Y-76505600D02*
X110700000Y-76510100D01*
D31*
X110700000Y-76491800D02*
X110700000Y-76491900D01*
D29*
X110700000Y-76501100D02*
X110700000Y-76505600D01*
D31*
X110700000Y-76501100D02*
X110700000Y-76505600D01*
D29*
X110700000Y-76473500D02*
X110700000Y-76473600D01*
D32*
X110699900Y-76505700D02*
X110699900Y-76510100D01*
D29*
X110700000Y-76473600D02*
X110700000Y-76491800D01*
X110700000Y-76501000D02*
X110700000Y-76501100D01*
X110700000Y-76436900D02*
X110700000Y-76437000D01*
X110950000Y-83931000D02*
X110950000Y-83995500D01*
X110948000Y-79323100D02*
X110894000Y-79377600D01*
D31*
X110950000Y-83802000D02*
X110950000Y-83931000D01*
X110700000Y-76505600D02*
X110700000Y-76510100D01*
D29*
X110894000Y-79377600D02*
X110894000Y-82973000D01*
X110950000Y-72835000D02*
X110881000Y-72904100D01*
D31*
X110950000Y-83931000D02*
X110950000Y-83995500D01*
D29*
X110700000Y-76437000D02*
X110700000Y-76473500D01*
D31*
%TO.N,Net-(CN1-20-Pad31)*%
X110200000Y-76638800D02*
X110200000Y-76638600D01*
D29*
X110209000Y-78567000D02*
X110209000Y-77549900D01*
X110450000Y-74463000D02*
X110450000Y-72835000D01*
X110450000Y-78808300D02*
X110450000Y-84060000D01*
X110200000Y-77283000D02*
X110200000Y-77025500D01*
X110200000Y-77541000D02*
X110200000Y-77283200D01*
X110356000Y-78714400D02*
X110209000Y-78567000D01*
X110200000Y-76638800D02*
X110200000Y-76638600D01*
X110200000Y-76574300D02*
X110200000Y-76510100D01*
D31*
X110200000Y-76638600D02*
X110200000Y-76574300D01*
D29*
X110200000Y-76638600D02*
X110200000Y-76574300D01*
X110200000Y-76767800D02*
X110200000Y-76767600D01*
X110200000Y-77025500D02*
X110200000Y-76767800D01*
D31*
X110200000Y-76767800D02*
X110200000Y-76767600D01*
X110200000Y-76767600D02*
X110200000Y-76638800D01*
D29*
X110200000Y-76767600D02*
X110200000Y-76638800D01*
X110200000Y-77283200D02*
X110200000Y-77283000D01*
D32*
X110200000Y-76574300D02*
X110199800Y-76574100D01*
D29*
X110200000Y-77283200D02*
X110200000Y-77283000D01*
X110209000Y-77549900D02*
X110200000Y-77541000D01*
D31*
X110200000Y-76638600D02*
X110200000Y-76574300D01*
X110200000Y-76638800D02*
X110200000Y-76638600D01*
X110200000Y-76574300D02*
X110200000Y-76510100D01*
D29*
X110325000Y-74588000D02*
X110450000Y-74463000D01*
D32*
X110199800Y-76574100D02*
X110199800Y-76510100D01*
D31*
X110200000Y-76574300D02*
X110200000Y-76510100D01*
D29*
X110200000Y-77283000D02*
X110200000Y-77025500D01*
X110356000Y-78714400D02*
X110450000Y-78808300D01*
%TO.N,4*%
X117200000Y-76795600D02*
X117200000Y-76795400D01*
X117200000Y-76545600D02*
X117200000Y-76545400D01*
X117200000Y-76652500D02*
X117200000Y-76581300D01*
X117200000Y-76545600D02*
X117200000Y-76545400D01*
D31*
X117200000Y-76545400D02*
X117200000Y-76527700D01*
D29*
X117200000Y-76545400D02*
X117200000Y-76527700D01*
D32*
X117200000Y-76527700D02*
X117199800Y-76527500D01*
D29*
X117200000Y-74864400D02*
X117450000Y-74614200D01*
X117200000Y-76795400D02*
X117200000Y-76652700D01*
X117200000Y-76581300D02*
X117200000Y-76581100D01*
X117200000Y-76510100D02*
X117200000Y-74864400D01*
X117200000Y-76652700D02*
X117200000Y-76652500D01*
X117450000Y-74614200D02*
X117450000Y-72835000D01*
D31*
X117200000Y-76527700D02*
X117200000Y-76510100D01*
D29*
X117200000Y-76581300D02*
X117200000Y-76581100D01*
D31*
X117200000Y-76545600D02*
X117200000Y-76545400D01*
D29*
X117200000Y-76545400D02*
X117200000Y-76527700D01*
D31*
X117200000Y-76581300D02*
X117200000Y-76581100D01*
D29*
X117200000Y-76527700D02*
X117200000Y-76510100D01*
X117200000Y-76581100D02*
X117200000Y-76545600D01*
X117200000Y-76795400D02*
X117200000Y-76652700D01*
D31*
X117200000Y-76581100D02*
X117200000Y-76545600D01*
X117200000Y-76545600D02*
X117200000Y-76545400D01*
D29*
X117200000Y-76581100D02*
X117200000Y-76545600D01*
X117200000Y-76652500D02*
X117200000Y-76581300D01*
X117200000Y-76652700D02*
X117200000Y-76652500D01*
D31*
X117200000Y-76545400D02*
X117200000Y-76527700D01*
D32*
X117199800Y-76527500D02*
X117199800Y-76510100D01*
D29*
X117200000Y-76527700D02*
X117200000Y-76510100D01*
X117200000Y-78726900D02*
X117200000Y-76795600D01*
X117200000Y-76527700D02*
X117200000Y-76510100D01*
X117200000Y-76545600D02*
X117200000Y-76545400D01*
X114800000Y-81126600D02*
X117200000Y-78726900D01*
X117200000Y-76545400D02*
X117200000Y-76527700D01*
X117200000Y-76652500D02*
X117200000Y-76581300D01*
X117200000Y-76795600D02*
X117200000Y-76795400D01*
X117200000Y-76652700D02*
X117200000Y-76652500D01*
X117200000Y-76581100D02*
X117200000Y-76545600D01*
X117200000Y-76581300D02*
X117200000Y-76581100D01*
D31*
X117200000Y-76527700D02*
X117200000Y-76510100D01*
D29*
X114800000Y-84860000D02*
X114800000Y-81126600D01*
%TO.N,6*%
X116700000Y-74864300D02*
X116817000Y-74747300D01*
D31*
X116700000Y-76246100D02*
X116700000Y-76246200D01*
D29*
X116700000Y-75982100D02*
X116700000Y-75982000D01*
D31*
X116700000Y-76622200D02*
X116700000Y-76510100D01*
D32*
X116699900Y-76622100D02*
X116699900Y-76510100D01*
D29*
X116817000Y-74626600D02*
X116950000Y-74493500D01*
D31*
X116700000Y-76246200D02*
X116700000Y-76510100D01*
D29*
X116700000Y-76246100D02*
X116700000Y-75982100D01*
X116700000Y-78687900D02*
X114400000Y-80987800D01*
D31*
X116700000Y-76246100D02*
X116700000Y-76246200D01*
D29*
X116817000Y-74747300D02*
X116817000Y-74626600D01*
D32*
X116700000Y-76622200D02*
X116699900Y-76622100D01*
D29*
X116700000Y-76510100D02*
X116700000Y-76246200D01*
X116700000Y-76958800D02*
X116700000Y-77823200D01*
X116700000Y-76734400D02*
X116700000Y-76622200D01*
X116700000Y-76246200D02*
X116700000Y-76246100D01*
D31*
X116700000Y-77823200D02*
X116700000Y-76958800D01*
D29*
X114400000Y-80987800D02*
X114400000Y-84760000D01*
X116950000Y-74493500D02*
X116950000Y-72835000D01*
D31*
X116700000Y-76734400D02*
X116700000Y-76622200D01*
D29*
X116700000Y-77823200D02*
X116700000Y-77823300D01*
D31*
X116700000Y-76246200D02*
X116700000Y-76510100D01*
D29*
X116700000Y-76622200D02*
X116700000Y-76510100D01*
D31*
X116700000Y-76958800D02*
X116700000Y-76734400D01*
X116700000Y-75982100D02*
X116700000Y-76246100D01*
X116700000Y-75982000D02*
X116700000Y-75982100D01*
X116700000Y-77823300D02*
X116700000Y-77823200D01*
D29*
X116700000Y-75982000D02*
X116700000Y-74864300D01*
X116700000Y-77823300D02*
X116700000Y-78687900D01*
%TO.N,8*%
X116200000Y-76646200D02*
X116200000Y-76510100D01*
D31*
X116200000Y-76121200D02*
X116200000Y-76121400D01*
X116200000Y-76315900D02*
X116200000Y-76510100D01*
D29*
X116200000Y-78649200D02*
X114000000Y-80849000D01*
D32*
X116200000Y-76646200D02*
X116199800Y-76646000D01*
D29*
X116319000Y-74706500D02*
X116434000Y-74591400D01*
D31*
X116200000Y-76315700D02*
X116200000Y-76315900D01*
D29*
X116200000Y-76782300D02*
X116200000Y-76646200D01*
D31*
X116200000Y-76315700D02*
X116200000Y-76315900D01*
X116200000Y-77851900D02*
X116200000Y-77851700D01*
D32*
X116199800Y-76646000D02*
X116199800Y-76510100D01*
D29*
X116434000Y-74591400D02*
X116434000Y-73831900D01*
X116200000Y-76121400D02*
X116200000Y-76121200D01*
D31*
X116200000Y-76121400D02*
X116200000Y-76315700D01*
D29*
X116200000Y-77851700D02*
X116200000Y-77851900D01*
D31*
X116200000Y-76646200D02*
X116200000Y-76510100D01*
X116200000Y-77851700D02*
X116200000Y-77054700D01*
D29*
X116319000Y-75341100D02*
X116319000Y-74706500D01*
D31*
X116200000Y-76782300D02*
X116200000Y-76646200D01*
D29*
X116434000Y-73831900D02*
X116450000Y-73815900D01*
D31*
X116200000Y-77054700D02*
X116200000Y-76782300D01*
D29*
X116200000Y-76121200D02*
X116200000Y-75460200D01*
D31*
X116200000Y-76315900D02*
X116200000Y-76510100D01*
D29*
X116200000Y-77851900D02*
X116200000Y-78649200D01*
X114000000Y-80849000D02*
X114000000Y-84660000D01*
X116450000Y-73815900D02*
X116450000Y-72835000D01*
X116200000Y-77054700D02*
X116200000Y-77851700D01*
X116200000Y-75460200D02*
X116319000Y-75341100D01*
X116200000Y-76315900D02*
X116200000Y-76315700D01*
X116200000Y-76315700D02*
X116200000Y-76121400D01*
X116200000Y-76510100D02*
X116200000Y-76315900D01*
%TO.N,10*%
X115700000Y-75260100D02*
X115938000Y-75022100D01*
X115950000Y-74536600D02*
X115950000Y-72835000D01*
X113619000Y-84560000D02*
X113619000Y-78591000D01*
X115700000Y-76510100D02*
X115700000Y-75260100D01*
X115938000Y-75022100D02*
X115938000Y-74548700D01*
X113619000Y-78591000D02*
X115700000Y-76510100D01*
X115938000Y-74548700D02*
X115950000Y-74536600D01*
D32*
X115699900Y-76510100D02*
X115700000Y-76510100D01*
D31*
%TO.N,20*%
X113200000Y-76322800D02*
X113200000Y-76416400D01*
D29*
X113200000Y-76135100D02*
X113200000Y-76322600D01*
X113200000Y-75947800D02*
X113200000Y-76135100D01*
D31*
X113200000Y-76463300D02*
X113200000Y-76510100D01*
D29*
X113200000Y-75760200D02*
X113200000Y-75947600D01*
X113450000Y-75510000D02*
X113200000Y-75760200D01*
D31*
X113200000Y-76416600D02*
X113200000Y-76463300D01*
X113200000Y-76463300D02*
X113200000Y-76510100D01*
D29*
X113200000Y-75947800D02*
X113200000Y-76135100D01*
X113200000Y-76322800D02*
X113200000Y-76416400D01*
D31*
X113200000Y-76416400D02*
X113200000Y-76416600D01*
X113200000Y-76416600D02*
X113200000Y-76463300D01*
D29*
X113200000Y-76416400D02*
X113200000Y-76416600D01*
D31*
X113200000Y-76416400D02*
X113200000Y-76416600D01*
D29*
X113200000Y-75947600D02*
X113200000Y-75947800D01*
D32*
X113200000Y-76463300D02*
X113199800Y-76463500D01*
D29*
X113200000Y-76416600D02*
X113200000Y-76463300D01*
X113200000Y-76463300D02*
X113200000Y-76510100D01*
X113450000Y-72835000D02*
X113450000Y-75510000D01*
X113200000Y-75947600D02*
X113200000Y-75947800D01*
D31*
X113200000Y-76322600D02*
X113200000Y-76322800D01*
D29*
X113200000Y-76322600D02*
X113200000Y-76322800D01*
D32*
X113199800Y-76463500D02*
X113199800Y-76510100D01*
D29*
%TO.N,Net-(CN1-20-Pad47)*%
X106427000Y-72858000D02*
X106427000Y-74047385D01*
X106450000Y-84060000D02*
X106450000Y-86267100D01*
X106450000Y-72835000D02*
X106427000Y-72858000D01*
X106199773Y-74274612D02*
X106199773Y-76510371D01*
X106427000Y-74047385D02*
X106199773Y-74274612D01*
%TO.N,Net-(CN1-1-Pad3)*%
X117449964Y-86152530D02*
X117449964Y-84060029D01*
X118100000Y-80860000D02*
X117450000Y-81510000D01*
X116742494Y-86860000D02*
X117449964Y-86152530D01*
X117450000Y-81510000D02*
X117450000Y-84060000D01*
%TO.N,Net-(U1-VCP)*%
X108634239Y-103934930D02*
X107655576Y-103934930D01*
X106400000Y-102679354D02*
X106400000Y-102385000D01*
X106400000Y-102385000D02*
X104650000Y-102385000D01*
X107655576Y-103934930D02*
X106400000Y-102679354D01*
X104650000Y-102385000D02*
X104600000Y-102335000D01*
%TO.N,+12V*%
X107764917Y-109135083D02*
X107315000Y-109585000D01*
X102850000Y-103985000D02*
X102800000Y-103935000D01*
X108634239Y-109135083D02*
X107764917Y-109135083D01*
X106350000Y-103985000D02*
X106400000Y-103935000D01*
X104600000Y-103985000D02*
X106350000Y-103985000D01*
X108634239Y-104584917D02*
X107049917Y-104584917D01*
X107049917Y-104584917D02*
X106400000Y-103935000D01*
X104600000Y-103985000D02*
X102850000Y-103985000D01*
X107315000Y-109585000D02*
X106300000Y-109585000D01*
%TO.N,Net-(U1-ISENA)*%
X104909892Y-105884892D02*
X104725000Y-105700000D01*
X108634239Y-105884892D02*
X104909892Y-105884892D01*
%TO.N,Net-(U1-ISENB)*%
X107468905Y-108031095D02*
X106731095Y-108031095D01*
X108634239Y-107835108D02*
X107664892Y-107835108D01*
X107664892Y-107835108D02*
X107468905Y-108031095D01*
X106731095Y-108031095D02*
X106300000Y-107600000D01*
X105050000Y-107600000D02*
X104750000Y-107900000D01*
X106300000Y-107600000D02*
X105050000Y-107600000D01*
%TO.N,Net-(U1-AVREF)*%
X108634239Y-110435057D02*
X109575057Y-110435057D01*
X109900000Y-110760000D02*
X109900000Y-112635000D01*
X108400000Y-113035000D02*
X110300000Y-113035000D01*
X109900000Y-112635000D02*
X110300000Y-113035000D01*
X109575057Y-110435057D02*
X109900000Y-110760000D01*
%TO.N,Net-(U1-nHOME)*%
X114365761Y-103284943D02*
X116499943Y-103284943D01*
X116499943Y-103284943D02*
X116500000Y-103285000D01*
%TO.N,Net-(U1-MODE1)*%
X115675083Y-104584917D02*
X114365761Y-104584917D01*
X104087500Y-99860000D02*
X106400000Y-99860000D01*
X117400000Y-100060000D02*
X117400000Y-103605291D01*
X117400000Y-103605291D02*
X116547291Y-104458000D01*
X102887500Y-98660000D02*
X104087500Y-99860000D01*
X116547291Y-104458000D02*
X115802000Y-104458000D01*
X102887500Y-98585000D02*
X102887500Y-98660000D01*
X100987500Y-98585000D02*
X102887500Y-98585000D01*
X115802000Y-104458000D02*
X115675083Y-104584917D01*
%TO.N,Net-(U1-MODE2)*%
X111800000Y-102200000D02*
X113534930Y-103934930D01*
X107100000Y-98585000D02*
X108273000Y-99758000D01*
X113534930Y-103934930D02*
X114365761Y-103934930D01*
X107000000Y-98685000D02*
X107100000Y-98585000D01*
X105000000Y-98685000D02*
X107000000Y-98685000D01*
X111800000Y-101660000D02*
X111800000Y-102200000D01*
X108273000Y-99758000D02*
X109898000Y-99758000D01*
X109898000Y-99758000D02*
X111800000Y-101660000D01*
%TO.N,Net-(U1-MODE0)*%
X116349905Y-105234905D02*
X116375000Y-105260000D01*
X114365761Y-105234905D02*
X116349905Y-105234905D01*
%TO.N,Fault*%
X116375000Y-108760000D02*
X116935000Y-108760000D01*
X103816000Y-80144000D02*
X103816000Y-80176000D01*
X103949836Y-87849836D02*
X103949836Y-84060029D01*
D31*
X103950000Y-83931000D02*
X103950000Y-83995500D01*
D29*
X103724000Y-76510400D02*
X103724000Y-77859400D01*
X103950000Y-83286000D02*
X103950000Y-83544000D01*
X103724000Y-75416200D02*
X103724000Y-76510400D01*
X118604709Y-107600000D02*
X117898000Y-108306709D01*
X115999917Y-109135083D02*
X114365761Y-109135083D01*
X103818000Y-82897000D02*
X103950000Y-83029000D01*
X118900000Y-107600000D02*
X118604709Y-107600000D01*
X116935000Y-108760000D02*
X116975000Y-108800000D01*
D31*
X103950000Y-83995500D02*
X103950000Y-84060000D01*
X103950000Y-83931000D02*
X103950000Y-83995500D01*
D29*
X117898000Y-108306709D02*
X117898000Y-108402000D01*
X118900000Y-107600000D02*
X120000000Y-106500000D01*
X103950000Y-83931000D02*
X103950000Y-83995500D01*
X103917000Y-75223700D02*
X103724000Y-75416200D01*
X116375000Y-108760000D02*
X115999917Y-109135083D01*
X103950000Y-83995500D02*
X103950000Y-84060000D01*
D31*
X103950000Y-83995500D02*
X103950000Y-84060000D01*
D29*
X103917000Y-73849100D02*
X103917000Y-75223700D01*
X110300000Y-94200000D02*
X103949836Y-87849836D01*
X103700000Y-76510400D02*
X103724000Y-76510400D01*
D31*
X103950000Y-83802000D02*
X103950000Y-83931000D01*
D29*
X120000000Y-106500000D02*
X120000000Y-96800000D01*
X103724000Y-77859400D02*
X103901000Y-78036400D01*
X103950000Y-73815900D02*
X103917000Y-73849100D01*
X117400000Y-94200000D02*
X110300000Y-94200000D01*
X103901000Y-78036400D02*
X103901000Y-80059000D01*
X120000000Y-96800000D02*
X117400000Y-94200000D01*
X114390678Y-109160000D02*
X114365761Y-109135083D01*
X103950000Y-72835000D02*
X103950000Y-73815900D01*
D32*
X103950000Y-83995500D02*
X103949800Y-83995700D01*
D29*
X117500000Y-108800000D02*
X116975000Y-108800000D01*
X103950000Y-83802000D02*
X103950000Y-83931000D01*
D32*
X103949800Y-83995700D02*
X103949800Y-84060000D01*
X103700000Y-76510400D02*
X103699900Y-76510400D01*
D29*
X103818000Y-80178000D02*
X103818000Y-82897000D01*
X117898000Y-108402000D02*
X117500000Y-108800000D01*
X103816000Y-80176000D02*
X103818000Y-80178000D01*
X103950000Y-83029000D02*
X103950000Y-83802000D01*
X103901000Y-80059000D02*
X103816000Y-80144000D01*
%TO.N,Net-(U1-DECAY)*%
X116194000Y-108306000D02*
X116186947Y-108306000D01*
X116502000Y-107998000D02*
X116194000Y-108306000D01*
X115500000Y-100560000D02*
X114700000Y-99760000D01*
X114700000Y-98585000D02*
X116600000Y-98585000D01*
X117559948Y-107998000D02*
X116502000Y-107998000D01*
X118000000Y-106900000D02*
X118000000Y-107557948D01*
X116007852Y-108485095D02*
X114365761Y-108485095D01*
X114700000Y-99760000D02*
X114700000Y-98585000D01*
X116186947Y-108306000D02*
X116007852Y-108485095D01*
X118000000Y-107557948D02*
X117559948Y-107998000D01*
%TO.N,Net-(U1-NENBL)*%
X112000000Y-101160000D02*
X112400000Y-101160000D01*
X115400076Y-107185121D02*
X114365761Y-107185121D01*
X109425000Y-98585000D02*
X111000000Y-100160000D01*
X115423563Y-107208608D02*
X115400076Y-107185121D01*
X109000000Y-98585000D02*
X109425000Y-98585000D01*
X115735971Y-107208608D02*
X115423563Y-107208608D01*
X111000000Y-100160000D02*
X112000000Y-101160000D01*
%TO.N,Net-(U1-nSLEEP)*%
X111412500Y-98585000D02*
X110900000Y-98585000D01*
X114365761Y-109785070D02*
X118525070Y-109785070D01*
X118525070Y-109785070D02*
X119000000Y-110260000D01*
X114487500Y-101660000D02*
X111412500Y-98585000D01*
X115400000Y-101660000D02*
X114487500Y-101660000D01*
%TO.N,Net-(U1-nRESET)*%
X112800000Y-99060000D02*
X114700000Y-100960000D01*
X117648000Y-110308000D02*
X118100000Y-110760000D01*
X115142507Y-110435057D02*
X115269564Y-110308000D01*
X112800000Y-98585000D02*
X112800000Y-99060000D01*
X116378646Y-110308000D02*
X117648000Y-110308000D01*
X115269564Y-110308000D02*
X116378646Y-110308000D01*
X114365761Y-110435057D02*
X115142507Y-110435057D01*
%TO.N,Net-(U1-CP1)*%
X108634239Y-102634956D02*
X107574956Y-102634956D01*
X107500000Y-102560000D02*
X107500000Y-100885000D01*
X107574956Y-102634956D02*
X107500000Y-102560000D01*
X107500000Y-100885000D02*
X107825000Y-100560000D01*
%TO.N,Net-(U1-CP2)*%
X109826987Y-102428470D02*
X109500000Y-102101483D01*
X109500000Y-102101483D02*
X109500000Y-100685000D01*
X109410985Y-103284943D02*
X109826987Y-102868941D01*
X108634239Y-103284943D02*
X109410985Y-103284943D01*
X109826987Y-102868941D02*
X109826987Y-102428470D01*
X109500000Y-100685000D02*
X109375000Y-100560000D01*
%TO.N,Motor_D*%
X106374905Y-105234905D02*
X106300000Y-105160000D01*
X108634239Y-105234905D02*
X106374905Y-105234905D01*
%TO.N,Motor_A*%
X105600000Y-106600000D02*
X105664867Y-106535133D01*
X108200000Y-111860000D02*
X107598000Y-112462000D01*
X107598000Y-119498000D02*
X107640000Y-119540000D01*
D30*
X107640000Y-119540000D02*
X107640000Y-121300000D01*
X107598000Y-112462000D02*
X107598000Y-119498000D01*
D29*
X105664867Y-106535133D02*
X108634239Y-106535133D01*
%TO.N,Motor_B*%
X107214879Y-107185121D02*
X108634239Y-107185121D01*
X107100000Y-107300000D02*
X107214879Y-107185121D01*
%TO.N,Motor_C*%
X106085095Y-108485095D02*
X108634239Y-108485095D01*
X105900000Y-108300000D02*
X106085095Y-108485095D01*
%TO.N,STEP_INC*%
X105100000Y-87200000D02*
X105100000Y-85803812D01*
D32*
X104949800Y-83995700D02*
X104949800Y-84060000D01*
D29*
X104950000Y-83802000D02*
X104950000Y-83931000D01*
X114365761Y-106535133D02*
X115764867Y-106535133D01*
X105100000Y-85803812D02*
X104950000Y-85653812D01*
X104930000Y-81489001D02*
X104930000Y-83009000D01*
X104700000Y-75479500D02*
X104700000Y-76510400D01*
X104896500Y-81455501D02*
X104665000Y-81224001D01*
X104950000Y-72835000D02*
X104950000Y-74161100D01*
X104950000Y-85653812D02*
X104950000Y-83995500D01*
X104700000Y-77541300D02*
X104700000Y-76510400D01*
X104930000Y-83009000D02*
X104950000Y-83029000D01*
D31*
X104950000Y-83995500D02*
X104950000Y-84060000D01*
D29*
X104665000Y-81224001D02*
X104665000Y-77575800D01*
X104950000Y-74161100D02*
X104683000Y-74428500D01*
X104950000Y-83931000D02*
X104950000Y-83995500D01*
X115764867Y-106535133D02*
X116000000Y-106300000D01*
D31*
X104950000Y-83995500D02*
X104950000Y-84060000D01*
D29*
X104950000Y-83029000D02*
X104950000Y-83802000D01*
D31*
X104950000Y-83931000D02*
X104950000Y-83995500D01*
D29*
X104950000Y-83995500D02*
X104950000Y-84060000D01*
D32*
X104950000Y-83995500D02*
X104949800Y-83995700D01*
D29*
X104683000Y-74428500D02*
X104683000Y-75462200D01*
X104950000Y-83286000D02*
X104950000Y-83544000D01*
X104665000Y-77575800D02*
X104700000Y-77541300D01*
D31*
X104950000Y-83802000D02*
X104950000Y-83931000D01*
D32*
X104700000Y-76510400D02*
X104699900Y-76510400D01*
D29*
X104896500Y-81455501D02*
X104930000Y-81489001D01*
D31*
X104950000Y-83931000D02*
X104950000Y-83995500D01*
D29*
X104683000Y-75462200D02*
X104700000Y-75479500D01*
%TO.N,Direction*%
X104200000Y-75479500D02*
X104200000Y-76510400D01*
X117156000Y-107544000D02*
X116313948Y-107544000D01*
X116022840Y-107835108D02*
X114365761Y-107835108D01*
X117300000Y-107400000D02*
X117156000Y-107544000D01*
X118200000Y-98200000D02*
X119546000Y-99546000D01*
X119546000Y-105800000D02*
X119284000Y-106062000D01*
X104450000Y-83029000D02*
X104450000Y-84060000D01*
X117727000Y-106273000D02*
X117300000Y-106700000D01*
X104449964Y-84060029D02*
X104449964Y-87707912D01*
X104200000Y-77541300D02*
X104200000Y-76510400D01*
X118973000Y-106273000D02*
X117727000Y-106273000D01*
X104282000Y-77624000D02*
X104200000Y-77541300D01*
X116313948Y-107544000D02*
X116022840Y-107835108D01*
X104300000Y-75379600D02*
X104200000Y-75479500D01*
X119000000Y-106300000D02*
X118973000Y-106273000D01*
X119284000Y-106062000D02*
X119238000Y-106062000D01*
X119238000Y-106062000D02*
X119000000Y-106300000D01*
X104374000Y-82953000D02*
X104450000Y-83029000D01*
X104450000Y-72835000D02*
X104450000Y-74119600D01*
D32*
X104200000Y-76510400D02*
X104199800Y-76510400D01*
D29*
X119546000Y-99546000D02*
X119546000Y-105800000D01*
X110142052Y-93400000D02*
X112200000Y-93400000D01*
X104374000Y-82460000D02*
X104282000Y-82368000D01*
X117300000Y-106700000D02*
X117300000Y-107400000D01*
X104374000Y-82460000D02*
X104374000Y-82953000D01*
X104450000Y-74119600D02*
X104300000Y-74269900D01*
X104282000Y-82368000D02*
X104282000Y-77624000D01*
X104300000Y-74269900D02*
X104300000Y-75379600D01*
X104449964Y-87707912D02*
X110142052Y-93400000D01*
%TD*%
%TA.AperFunction,Conductor*%
%TO.N,GND*%
G36*
X103543039Y-105179685D02*
G01*
X103588794Y-105232489D01*
X103600000Y-105284000D01*
X103600000Y-108336000D01*
X103580315Y-108403039D01*
X103527511Y-108448794D01*
X103476000Y-108460000D01*
X100424000Y-108460000D01*
X100356961Y-108440315D01*
X100311206Y-108387511D01*
X100300000Y-108336000D01*
X100300000Y-105284000D01*
X100319685Y-105216961D01*
X100372489Y-105171206D01*
X100424000Y-105160000D01*
X103476000Y-105160000D01*
X103543039Y-105179685D01*
G37*
%TD.AperFunction*%
%TD*%
%TA.AperFunction,Conductor*%
%TO.N,+12V*%
G36*
X106248904Y-103419685D02*
G01*
X106269546Y-103436319D01*
X106863681Y-104030454D01*
X106897166Y-104091777D01*
X106900000Y-104118135D01*
X106900000Y-104274240D01*
X106880315Y-104341279D01*
X106827511Y-104387034D01*
X106774254Y-104398228D01*
X106557316Y-104395173D01*
X106518108Y-104388227D01*
X106479252Y-104374631D01*
X106300004Y-104354435D01*
X106299996Y-104354435D01*
X106120751Y-104374630D01*
X106120741Y-104374632D01*
X106101937Y-104381212D01*
X106059241Y-104388157D01*
X99800000Y-104300000D01*
X99800000Y-109000000D01*
X105722212Y-109085829D01*
X105728227Y-109086211D01*
X105900000Y-109105565D01*
X105931873Y-109101973D01*
X105976588Y-109105088D01*
X106005823Y-109112595D01*
X106025953Y-109112595D01*
X106045352Y-109114122D01*
X106065228Y-109117270D01*
X106107874Y-109113238D01*
X106111774Y-109112870D01*
X106117612Y-109112595D01*
X106576000Y-109112595D01*
X106643039Y-109132280D01*
X106688794Y-109185084D01*
X106700000Y-109236595D01*
X106700000Y-109876000D01*
X106680315Y-109943039D01*
X106627511Y-109988794D01*
X106576000Y-110000000D01*
X105799999Y-110000000D01*
X102332927Y-112575540D01*
X102267373Y-112599716D01*
X102258983Y-112600000D01*
X98924000Y-112600000D01*
X98856961Y-112580315D01*
X98811206Y-112527511D01*
X98800000Y-112476000D01*
X98800000Y-103524000D01*
X98819685Y-103456961D01*
X98872489Y-103411206D01*
X98924000Y-103400000D01*
X106181865Y-103400000D01*
X106248904Y-103419685D01*
G37*
%TD.AperFunction*%
%TD*%
%TA.AperFunction,Conductor*%
%TO.N,GND*%
G36*
X103243039Y-101819685D02*
G01*
X103288794Y-101872489D01*
X103300000Y-101924000D01*
X103300000Y-102676000D01*
X103280315Y-102743039D01*
X103227511Y-102788794D01*
X103176000Y-102800000D01*
X98300000Y-102800000D01*
X98300000Y-113200000D01*
X102599999Y-113200000D01*
X102600000Y-113200000D01*
X105866787Y-110725160D01*
X105932110Y-110700369D01*
X105941665Y-110700000D01*
X106676000Y-110700000D01*
X106743039Y-110719685D01*
X106788794Y-110772489D01*
X106800000Y-110824000D01*
X106800000Y-114941921D01*
X106780315Y-115008960D01*
X106755383Y-115037180D01*
X104066899Y-117277582D01*
X104002796Y-117305378D01*
X104001401Y-117305543D01*
X103920750Y-117314630D01*
X103750478Y-117374210D01*
X103597737Y-117470184D01*
X103470184Y-117597737D01*
X103374212Y-117750475D01*
X103374211Y-117750476D01*
X103333991Y-117865418D01*
X103296333Y-117919721D01*
X102034489Y-118971259D01*
X101970386Y-118999055D01*
X101955106Y-119000000D01*
X97324000Y-119000000D01*
X97256961Y-118980315D01*
X97211206Y-118927511D01*
X97200000Y-118876000D01*
X97200000Y-101924000D01*
X97219685Y-101856961D01*
X97272489Y-101811206D01*
X97324000Y-101800000D01*
X103176000Y-101800000D01*
X103243039Y-101819685D01*
G37*
%TD.AperFunction*%
%TD*%
M02*
