%TF.GenerationSoftware,KiCad,Pcbnew,7.0.5*%
%TF.CreationDate,2023-09-25T01:54:48-05:00*%
%TF.ProjectId,Chimera_0005_Stepper,4368696d-6572-4615-9f30-3030355f5374,rev?*%
%TF.SameCoordinates,Original*%
%TF.FileFunction,Paste,Top*%
%TF.FilePolarity,Positive*%
%FSLAX46Y46*%
G04 Gerber Fmt 4.6, Leading zero omitted, Abs format (unit mm)*
G04 Created by KiCad (PCBNEW 7.0.5) date 2023-09-25 01:54:48*
%MOMM*%
%LPD*%
G01*
G04 APERTURE LIST*
G04 Aperture macros list*
%AMRoundRect*
0 Rectangle with rounded corners*
0 $1 Rounding radius*
0 $2 $3 $4 $5 $6 $7 $8 $9 X,Y pos of 4 corners*
0 Add a 4 corners polygon primitive as box body*
4,1,4,$2,$3,$4,$5,$6,$7,$8,$9,$2,$3,0*
0 Add four circle primitives for the rounded corners*
1,1,$1+$1,$2,$3*
1,1,$1+$1,$4,$5*
1,1,$1+$1,$6,$7*
1,1,$1+$1,$8,$9*
0 Add four rect primitives between the rounded corners*
20,1,$1+$1,$2,$3,$4,$5,0*
20,1,$1+$1,$4,$5,$6,$7,0*
20,1,$1+$1,$6,$7,$8,$9,0*
20,1,$1+$1,$8,$9,$2,$3,0*%
G04 Aperture macros list end*
%ADD10RoundRect,0.225000X-0.225000X-0.250000X0.225000X-0.250000X0.225000X0.250000X-0.225000X0.250000X0*%
%ADD11R,1.335001X1.500000*%
%ADD12RoundRect,0.200000X0.275000X-0.200000X0.275000X0.200000X-0.275000X0.200000X-0.275000X-0.200000X0*%
%ADD13RoundRect,0.200000X-0.200000X-0.275000X0.200000X-0.275000X0.200000X0.275000X-0.200000X0.275000X0*%
%ADD14O,1.731496X0.343002*%
%ADD15R,3.100000X5.600000*%
%ADD16RoundRect,0.200000X-0.275000X0.200000X-0.275000X-0.200000X0.275000X-0.200000X0.275000X0.200000X0*%
%ADD17R,0.300000X1.550013*%
%ADD18R,0.300000X1.524003*%
%ADD19R,1.300000X2.800000*%
%ADD20RoundRect,0.250000X-0.550000X1.500000X-0.550000X-1.500000X0.550000X-1.500000X0.550000X1.500000X0*%
%ADD21RoundRect,0.225000X-0.250000X0.225000X-0.250000X-0.225000X0.250000X-0.225000X0.250000X0.225000X0*%
%ADD22RoundRect,0.225000X0.250000X-0.225000X0.250000X0.225000X-0.250000X0.225000X-0.250000X-0.225000X0*%
%ADD23R,0.800000X0.800000*%
G04 APERTURE END LIST*
D10*
%TO.C,C6*%
X107825000Y-100560000D03*
X109375000Y-100560000D03*
%TD*%
D11*
%TO.C,F1*%
X116742494Y-86860000D03*
X114457506Y-86860000D03*
%TD*%
D12*
%TO.C,R17*%
X100987500Y-98585000D03*
X100987500Y-96935000D03*
%TD*%
%TO.C,R14*%
X116600000Y-98585000D03*
X116600000Y-96935000D03*
%TD*%
D13*
%TO.C,R5*%
X103100000Y-107900000D03*
X104750000Y-107900000D03*
%TD*%
D12*
%TO.C,R7*%
X116500000Y-103285000D03*
X116500000Y-101635000D03*
%TD*%
D14*
%TO.C,U1*%
X108634239Y-102634956D03*
X108634239Y-103284943D03*
X108634239Y-103934930D03*
X108634239Y-104584917D03*
X108634239Y-105234905D03*
X108634239Y-105884892D03*
X108634239Y-106535133D03*
X108634239Y-107185121D03*
X108634239Y-107835108D03*
X108634239Y-108485095D03*
X108634239Y-109135083D03*
X108634239Y-109785070D03*
X108634239Y-110435057D03*
X108634239Y-111085044D03*
X114365761Y-111085044D03*
X114365761Y-110435057D03*
X114365761Y-109785070D03*
X114365761Y-109135083D03*
X114365761Y-108485095D03*
X114365761Y-107835108D03*
X114365761Y-107185121D03*
X114365761Y-106535133D03*
X114365761Y-105884892D03*
X114365761Y-105234905D03*
X114365761Y-104584917D03*
X114365761Y-103934930D03*
X114365761Y-103284943D03*
X114365761Y-102634956D03*
D15*
X111499873Y-106860000D03*
%TD*%
D16*
%TO.C,R3*%
X104600000Y-102335000D03*
X104600000Y-103985000D03*
%TD*%
D17*
%TO.C,CN1*%
X117949836Y-84060029D03*
X117699900Y-76510117D03*
X117449964Y-84060029D03*
X117199773Y-76510117D03*
X116949836Y-84060029D03*
X116699900Y-76510117D03*
X116449964Y-84060029D03*
X116199773Y-76510117D03*
X115949836Y-84060029D03*
X115699900Y-76510117D03*
X115449964Y-84060029D03*
X113199773Y-76510117D03*
X112949836Y-84060029D03*
X112699900Y-76510117D03*
X112449964Y-84060029D03*
X112199773Y-76510117D03*
X111949836Y-84060029D03*
X111699900Y-76510117D03*
X111449964Y-84060029D03*
X111199773Y-76510117D03*
X110949836Y-84060029D03*
X110699900Y-76510117D03*
X110449964Y-84060029D03*
X110199773Y-76510117D03*
X109949836Y-84060029D03*
X109699900Y-76510117D03*
X109449964Y-84060029D03*
X109199773Y-76510117D03*
X108949836Y-84060029D03*
X108699900Y-76510117D03*
X108449964Y-84060029D03*
X108199773Y-76510117D03*
X107949836Y-84060029D03*
X107699900Y-76510371D03*
X107449964Y-84060029D03*
X107199773Y-76510371D03*
X106949836Y-84060029D03*
X106699900Y-76510371D03*
X106449964Y-84060029D03*
X106199773Y-76510371D03*
X105949836Y-84060029D03*
X105699900Y-76510371D03*
X105449964Y-84060029D03*
X105199773Y-76510371D03*
X104949836Y-84060029D03*
X104699900Y-76510371D03*
X104449964Y-84060029D03*
X104199773Y-76510371D03*
X103949836Y-84060029D03*
X103699900Y-76510371D03*
D18*
X103449964Y-84060283D03*
X103199773Y-76510371D03*
X102949836Y-84060283D03*
X102699900Y-76510371D03*
X102449964Y-84060283D03*
X102199773Y-76510371D03*
X101949836Y-84060283D03*
X101699900Y-76510371D03*
D17*
X101449964Y-84060029D03*
X101199773Y-76510371D03*
X100949836Y-84060029D03*
X100699900Y-76510371D03*
X100449964Y-84060029D03*
X100199773Y-76510371D03*
X99949836Y-84060029D03*
X99699900Y-76510371D03*
X99449964Y-84060029D03*
D19*
X98349887Y-83335111D03*
X119049913Y-83335111D03*
%TD*%
D16*
%TO.C,R1*%
X119050000Y-86010000D03*
X119050000Y-87660000D03*
%TD*%
D20*
%TO.C,C5*%
X101200000Y-110860000D03*
X101200000Y-116260000D03*
%TD*%
D13*
%TO.C,R2*%
X113975000Y-89360000D03*
X115625000Y-89360000D03*
%TD*%
D21*
%TO.C,C3*%
X106300000Y-109585000D03*
X106300000Y-111135000D03*
%TD*%
D12*
%TO.C,R18*%
X105000000Y-98685000D03*
X105000000Y-97035000D03*
%TD*%
D13*
%TO.C,R4*%
X103075000Y-105700000D03*
X104725000Y-105700000D03*
%TD*%
D16*
%TO.C,R13*%
X114700000Y-96935000D03*
X114700000Y-98585000D03*
%TD*%
D12*
%TO.C,R23*%
X112800000Y-98585000D03*
X112800000Y-96935000D03*
%TD*%
D16*
%TO.C,R10*%
X107100000Y-96935000D03*
X107100000Y-98585000D03*
%TD*%
D22*
%TO.C,C1*%
X106400000Y-103935000D03*
X106400000Y-102385000D03*
%TD*%
D13*
%TO.C,R11*%
X116375000Y-105260000D03*
X118025000Y-105260000D03*
%TD*%
D22*
%TO.C,C2*%
X102800000Y-103935000D03*
X102800000Y-102385000D03*
%TD*%
D16*
%TO.C,R9*%
X102887500Y-96935000D03*
X102887500Y-98585000D03*
%TD*%
%TO.C,R8*%
X108600000Y-113035000D03*
X108600000Y-114685000D03*
%TD*%
D23*
%TO.C,LED1*%
X118949467Y-89331571D03*
X117350533Y-89338429D03*
%TD*%
D12*
%TO.C,R19*%
X110900000Y-98585000D03*
X110900000Y-96935000D03*
%TD*%
D21*
%TO.C,C7*%
X116400000Y-111085000D03*
X116400000Y-112635000D03*
%TD*%
D16*
%TO.C,R6*%
X110300000Y-113035000D03*
X110300000Y-114685000D03*
%TD*%
D12*
%TO.C,R16*%
X109000000Y-98585000D03*
X109000000Y-96935000D03*
%TD*%
D13*
%TO.C,R12*%
X116975000Y-108800000D03*
X118625000Y-108800000D03*
%TD*%
D23*
%TO.C,LED2*%
X118949467Y-93131571D03*
X117350533Y-93138429D03*
%TD*%
M02*
