%TF.GenerationSoftware,KiCad,Pcbnew,7.0.5*%
%TF.CreationDate,2023-09-25T03:15:30-05:00*%
%TF.ProjectId,Chimera_Nimean,4368696d-6572-4615-9f4e-696d65616e2e,rev?*%
%TF.SameCoordinates,Original*%
%TF.FileFunction,Soldermask,Top*%
%TF.FilePolarity,Negative*%
%FSLAX46Y46*%
G04 Gerber Fmt 4.6, Leading zero omitted, Abs format (unit mm)*
G04 Created by KiCad (PCBNEW 7.0.5) date 2023-09-25 03:15:30*
%MOMM*%
%LPD*%
G01*
G04 APERTURE LIST*
G04 Aperture macros list*
%AMRoundRect*
0 Rectangle with rounded corners*
0 $1 Rounding radius*
0 $2 $3 $4 $5 $6 $7 $8 $9 X,Y pos of 4 corners*
0 Add a 4 corners polygon primitive as box body*
4,1,4,$2,$3,$4,$5,$6,$7,$8,$9,$2,$3,0*
0 Add four circle primitives for the rounded corners*
1,1,$1+$1,$2,$3*
1,1,$1+$1,$4,$5*
1,1,$1+$1,$6,$7*
1,1,$1+$1,$8,$9*
0 Add four rect primitives between the rounded corners*
20,1,$1+$1,$2,$3,$4,$5,0*
20,1,$1+$1,$4,$5,$6,$7,0*
20,1,$1+$1,$6,$7,$8,$9,0*
20,1,$1+$1,$8,$9,$2,$3,0*%
G04 Aperture macros list end*
%ADD10C,0.100000*%
%ADD11C,3.600000*%
%ADD12C,6.400000*%
%ADD13RoundRect,0.225000X0.250000X-0.225000X0.250000X0.225000X-0.250000X0.225000X-0.250000X-0.225000X0*%
%ADD14RoundRect,0.225000X-0.225000X-0.250000X0.225000X-0.250000X0.225000X0.250000X-0.225000X0.250000X0*%
%ADD15R,0.800000X0.800000*%
%ADD16R,1.500000X1.400000*%
%ADD17R,1.300000X2.800000*%
%ADD18R,0.300000X1.550013*%
%ADD19R,0.300000X1.524003*%
%ADD20C,1.200000*%
%ADD21C,1.800000*%
%ADD22R,1.500000X0.900000*%
%ADD23R,0.900000X1.500000*%
%ADD24R,0.900000X0.900000*%
%ADD25RoundRect,0.225000X0.225000X0.250000X-0.225000X0.250000X-0.225000X-0.250000X0.225000X-0.250000X0*%
%ADD26RoundRect,0.200000X-0.200000X-0.275000X0.200000X-0.275000X0.200000X0.275000X-0.200000X0.275000X0*%
%ADD27RoundRect,0.200000X0.275000X-0.200000X0.275000X0.200000X-0.275000X0.200000X-0.275000X-0.200000X0*%
G04 APERTURE END LIST*
%TO.C,U2*%
D10*
X148275000Y-130100000D02*
X145075000Y-130100000D01*
X145075000Y-128100000D01*
X148275000Y-128100000D01*
X148275000Y-130100000D01*
G36*
X148275000Y-130100000D02*
G01*
X145075000Y-130100000D01*
X145075000Y-128100000D01*
X148275000Y-128100000D01*
X148275000Y-130100000D01*
G37*
X164925000Y-130100000D02*
X149475000Y-130100000D01*
X149475000Y-128100000D01*
X164925000Y-128100000D01*
X164925000Y-130100000D01*
G36*
X164925000Y-130100000D02*
G01*
X149475000Y-130100000D01*
X149475000Y-128100000D01*
X164925000Y-128100000D01*
X164925000Y-130100000D01*
G37*
%TD*%
D11*
%TO.C,H1*%
X155000000Y-71000000D03*
D12*
X155000000Y-71000000D03*
%TD*%
D13*
%TO.C,C5*%
X148000000Y-112600000D03*
X148000000Y-111050000D03*
%TD*%
D14*
%TO.C,C2*%
X145625000Y-88200000D03*
X147175000Y-88200000D03*
%TD*%
D15*
%TO.C,LED1*%
X163196571Y-113000533D03*
X163203429Y-114599467D03*
%TD*%
D16*
%TO.C,SW2*%
X145000000Y-115799848D03*
X145000000Y-108200152D03*
%TD*%
D17*
%TO.C,CN1*%
X144650051Y-119224918D03*
X165350077Y-119224918D03*
D18*
X145750128Y-118500000D03*
X146000064Y-126049912D03*
X146250000Y-118500000D03*
X146500191Y-126049912D03*
X146750128Y-118500000D03*
X147000064Y-126049912D03*
X147250000Y-118500000D03*
X147500191Y-126049912D03*
X147750128Y-118500000D03*
X148000064Y-126049912D03*
X148250000Y-118500000D03*
X150500191Y-126049912D03*
X150750128Y-118500000D03*
X151000064Y-126049912D03*
X151250000Y-118500000D03*
X151500191Y-126049912D03*
X151750128Y-118500000D03*
X152000064Y-126049912D03*
X152250000Y-118500000D03*
X152500191Y-126049912D03*
X152750128Y-118500000D03*
X153000064Y-126049912D03*
X153250000Y-118500000D03*
X153500191Y-126049912D03*
X153750128Y-118500000D03*
X154000064Y-126049912D03*
X154250000Y-118500000D03*
X154500191Y-126049912D03*
X154750128Y-118500000D03*
X155000064Y-126049912D03*
X155250000Y-118500000D03*
X155500191Y-126049912D03*
X155750128Y-118500000D03*
X156000064Y-126049658D03*
X156250000Y-118500000D03*
X156500191Y-126049658D03*
X156750128Y-118500000D03*
X157000064Y-126049658D03*
X157250000Y-118500000D03*
X157500191Y-126049658D03*
X157750128Y-118500000D03*
X158000064Y-126049658D03*
X158250000Y-118500000D03*
X158500191Y-126049658D03*
X158750128Y-118500000D03*
X159000064Y-126049658D03*
X159250000Y-118500000D03*
X159500191Y-126049658D03*
X159750128Y-118500000D03*
X160000064Y-126049658D03*
X162250000Y-118500000D03*
X162500191Y-126049658D03*
X162750128Y-118500000D03*
X163000064Y-126049658D03*
X163250000Y-118500000D03*
X163500191Y-126049658D03*
X163750128Y-118500000D03*
X164000064Y-126049658D03*
X164250000Y-118500000D03*
D19*
X161750128Y-118499746D03*
X161250000Y-118499746D03*
X160750128Y-118499746D03*
X160250000Y-118499746D03*
X162000064Y-126049658D03*
X161500191Y-126049658D03*
X161000064Y-126049658D03*
X160500191Y-126049658D03*
D20*
X145000064Y-123774829D03*
D21*
X165000064Y-123774829D03*
%TD*%
D16*
%TO.C,SW1*%
X145000000Y-104199848D03*
X145000000Y-96600152D03*
%TD*%
D22*
%TO.C,U1*%
X148400406Y-91359982D03*
X148400406Y-92629985D03*
X148400406Y-93899987D03*
X148400406Y-95169990D03*
X148400406Y-96439992D03*
X148400406Y-97709995D03*
X148400406Y-98979997D03*
X148400406Y-100250000D03*
X148400406Y-101520002D03*
X148400406Y-102790005D03*
X148400406Y-104060007D03*
X148400406Y-105330010D03*
X148400406Y-106600013D03*
X148400406Y-107870015D03*
D23*
X150315316Y-109269304D03*
X151585319Y-109269304D03*
X152855321Y-109269304D03*
X154125324Y-109269304D03*
X155395326Y-109269304D03*
X156665329Y-109269304D03*
X157935331Y-109269304D03*
X159205334Y-109269304D03*
X160475336Y-109269304D03*
X161745339Y-109269304D03*
X163015341Y-109269304D03*
X164285344Y-109269304D03*
D22*
X166200000Y-107870015D03*
X166200000Y-106600013D03*
X166200000Y-105330010D03*
X166200000Y-104060007D03*
X166200000Y-102790005D03*
X166200000Y-101520002D03*
X166200000Y-100250000D03*
X166200000Y-98979997D03*
X166200000Y-97709995D03*
X166200000Y-96439992D03*
X166200000Y-95169990D03*
X166200000Y-93899987D03*
X166200000Y-92629985D03*
X166200000Y-91359982D03*
D24*
X155800711Y-99079566D03*
X154400660Y-99079566D03*
X157200762Y-99079566D03*
X157200762Y-97679515D03*
X155800711Y-97679515D03*
X154400660Y-97679515D03*
X154400660Y-100479616D03*
X155800711Y-100479616D03*
X157200762Y-100479616D03*
%TD*%
D25*
%TO.C,C3*%
X146575000Y-92400000D03*
X145025000Y-92400000D03*
%TD*%
D14*
%TO.C,C1*%
X145625000Y-89800000D03*
X147175000Y-89800000D03*
%TD*%
D26*
%TO.C,R1*%
X144975000Y-94000000D03*
X146625000Y-94000000D03*
%TD*%
D25*
%TO.C,C4*%
X146600000Y-106300000D03*
X145050000Y-106300000D03*
%TD*%
D27*
%TO.C,R2*%
X165200000Y-114650000D03*
X165200000Y-113000000D03*
%TD*%
M02*
