%TF.GenerationSoftware,KiCad,Pcbnew,7.0.5*%
%TF.CreationDate,2023-09-25T03:15:30-05:00*%
%TF.ProjectId,Chimera_Nimean,4368696d-6572-4615-9f4e-696d65616e2e,rev?*%
%TF.SameCoordinates,Original*%
%TF.FileFunction,Legend,Top*%
%TF.FilePolarity,Positive*%
%FSLAX46Y46*%
G04 Gerber Fmt 4.6, Leading zero omitted, Abs format (unit mm)*
G04 Created by KiCad (PCBNEW 7.0.5) date 2023-09-25 03:15:30*
%MOMM*%
%LPD*%
G01*
G04 APERTURE LIST*
G04 Aperture macros list*
%AMRoundRect*
0 Rectangle with rounded corners*
0 $1 Rounding radius*
0 $2 $3 $4 $5 $6 $7 $8 $9 X,Y pos of 4 corners*
0 Add a 4 corners polygon primitive as box body*
4,1,4,$2,$3,$4,$5,$6,$7,$8,$9,$2,$3,0*
0 Add four circle primitives for the rounded corners*
1,1,$1+$1,$2,$3*
1,1,$1+$1,$4,$5*
1,1,$1+$1,$6,$7*
1,1,$1+$1,$8,$9*
0 Add four rect primitives between the rounded corners*
20,1,$1+$1,$2,$3,$4,$5,0*
20,1,$1+$1,$4,$5,$6,$7,0*
20,1,$1+$1,$6,$7,$8,$9,0*
20,1,$1+$1,$8,$9,$2,$3,0*%
G04 Aperture macros list end*
%ADD10C,0.200000*%
%ADD11C,0.150000*%
%ADD12C,0.250000*%
%ADD13C,0.120000*%
%ADD14C,0.059995*%
%ADD15C,0.150013*%
%ADD16C,0.254001*%
%ADD17C,0.151994*%
%ADD18C,0.100000*%
%ADD19C,3.600000*%
%ADD20C,6.400000*%
%ADD21RoundRect,0.225000X0.250000X-0.225000X0.250000X0.225000X-0.250000X0.225000X-0.250000X-0.225000X0*%
%ADD22RoundRect,0.225000X-0.225000X-0.250000X0.225000X-0.250000X0.225000X0.250000X-0.225000X0.250000X0*%
%ADD23R,0.800000X0.800000*%
%ADD24R,1.500000X1.400000*%
%ADD25R,1.300000X2.800000*%
%ADD26R,0.300000X1.550013*%
%ADD27R,0.300000X1.524003*%
%ADD28C,1.200000*%
%ADD29C,1.800000*%
%ADD30R,1.500000X0.900000*%
%ADD31R,0.900000X1.500000*%
%ADD32R,0.900000X0.900000*%
%ADD33RoundRect,0.225000X0.225000X0.250000X-0.225000X0.250000X-0.225000X-0.250000X0.225000X-0.250000X0*%
%ADD34RoundRect,0.200000X-0.200000X-0.275000X0.200000X-0.275000X0.200000X0.275000X-0.200000X0.275000X0*%
%ADD35RoundRect,0.200000X0.275000X-0.200000X0.275000X0.200000X-0.275000X0.200000X-0.275000X-0.200000X0*%
G04 APERTURE END LIST*
D10*
X165742780Y-71769673D02*
X166742780Y-71769673D01*
X166742780Y-71769673D02*
X166028495Y-72103006D01*
X166028495Y-72103006D02*
X166742780Y-72436339D01*
X166742780Y-72436339D02*
X165742780Y-72436339D01*
X165838019Y-73483958D02*
X165790400Y-73436339D01*
X165790400Y-73436339D02*
X165742780Y-73293482D01*
X165742780Y-73293482D02*
X165742780Y-73198244D01*
X165742780Y-73198244D02*
X165790400Y-73055387D01*
X165790400Y-73055387D02*
X165885638Y-72960149D01*
X165885638Y-72960149D02*
X165980876Y-72912530D01*
X165980876Y-72912530D02*
X166171352Y-72864911D01*
X166171352Y-72864911D02*
X166314209Y-72864911D01*
X166314209Y-72864911D02*
X166504685Y-72912530D01*
X166504685Y-72912530D02*
X166599923Y-72960149D01*
X166599923Y-72960149D02*
X166695161Y-73055387D01*
X166695161Y-73055387D02*
X166742780Y-73198244D01*
X166742780Y-73198244D02*
X166742780Y-73293482D01*
X166742780Y-73293482D02*
X166695161Y-73436339D01*
X166695161Y-73436339D02*
X166647542Y-73483958D01*
X166742780Y-73912530D02*
X165933257Y-73912530D01*
X165933257Y-73912530D02*
X165838019Y-73960149D01*
X165838019Y-73960149D02*
X165790400Y-74007768D01*
X165790400Y-74007768D02*
X165742780Y-74103006D01*
X165742780Y-74103006D02*
X165742780Y-74293482D01*
X165742780Y-74293482D02*
X165790400Y-74388720D01*
X165790400Y-74388720D02*
X165838019Y-74436339D01*
X165838019Y-74436339D02*
X165933257Y-74483958D01*
X165933257Y-74483958D02*
X166742780Y-74483958D01*
X166123733Y-74960149D02*
X166123733Y-75722054D01*
X166742780Y-76388720D02*
X166742780Y-76483958D01*
X166742780Y-76483958D02*
X166695161Y-76579196D01*
X166695161Y-76579196D02*
X166647542Y-76626815D01*
X166647542Y-76626815D02*
X166552304Y-76674434D01*
X166552304Y-76674434D02*
X166361828Y-76722053D01*
X166361828Y-76722053D02*
X166123733Y-76722053D01*
X166123733Y-76722053D02*
X165933257Y-76674434D01*
X165933257Y-76674434D02*
X165838019Y-76626815D01*
X165838019Y-76626815D02*
X165790400Y-76579196D01*
X165790400Y-76579196D02*
X165742780Y-76483958D01*
X165742780Y-76483958D02*
X165742780Y-76388720D01*
X165742780Y-76388720D02*
X165790400Y-76293482D01*
X165790400Y-76293482D02*
X165838019Y-76245863D01*
X165838019Y-76245863D02*
X165933257Y-76198244D01*
X165933257Y-76198244D02*
X166123733Y-76150625D01*
X166123733Y-76150625D02*
X166361828Y-76150625D01*
X166361828Y-76150625D02*
X166552304Y-76198244D01*
X166552304Y-76198244D02*
X166647542Y-76245863D01*
X166647542Y-76245863D02*
X166695161Y-76293482D01*
X166695161Y-76293482D02*
X166742780Y-76388720D01*
X166742780Y-77341101D02*
X166742780Y-77436339D01*
X166742780Y-77436339D02*
X166695161Y-77531577D01*
X166695161Y-77531577D02*
X166647542Y-77579196D01*
X166647542Y-77579196D02*
X166552304Y-77626815D01*
X166552304Y-77626815D02*
X166361828Y-77674434D01*
X166361828Y-77674434D02*
X166123733Y-77674434D01*
X166123733Y-77674434D02*
X165933257Y-77626815D01*
X165933257Y-77626815D02*
X165838019Y-77579196D01*
X165838019Y-77579196D02*
X165790400Y-77531577D01*
X165790400Y-77531577D02*
X165742780Y-77436339D01*
X165742780Y-77436339D02*
X165742780Y-77341101D01*
X165742780Y-77341101D02*
X165790400Y-77245863D01*
X165790400Y-77245863D02*
X165838019Y-77198244D01*
X165838019Y-77198244D02*
X165933257Y-77150625D01*
X165933257Y-77150625D02*
X166123733Y-77103006D01*
X166123733Y-77103006D02*
X166361828Y-77103006D01*
X166361828Y-77103006D02*
X166552304Y-77150625D01*
X166552304Y-77150625D02*
X166647542Y-77198244D01*
X166647542Y-77198244D02*
X166695161Y-77245863D01*
X166695161Y-77245863D02*
X166742780Y-77341101D01*
X166742780Y-78293482D02*
X166742780Y-78388720D01*
X166742780Y-78388720D02*
X166695161Y-78483958D01*
X166695161Y-78483958D02*
X166647542Y-78531577D01*
X166647542Y-78531577D02*
X166552304Y-78579196D01*
X166552304Y-78579196D02*
X166361828Y-78626815D01*
X166361828Y-78626815D02*
X166123733Y-78626815D01*
X166123733Y-78626815D02*
X165933257Y-78579196D01*
X165933257Y-78579196D02*
X165838019Y-78531577D01*
X165838019Y-78531577D02*
X165790400Y-78483958D01*
X165790400Y-78483958D02*
X165742780Y-78388720D01*
X165742780Y-78388720D02*
X165742780Y-78293482D01*
X165742780Y-78293482D02*
X165790400Y-78198244D01*
X165790400Y-78198244D02*
X165838019Y-78150625D01*
X165838019Y-78150625D02*
X165933257Y-78103006D01*
X165933257Y-78103006D02*
X166123733Y-78055387D01*
X166123733Y-78055387D02*
X166361828Y-78055387D01*
X166361828Y-78055387D02*
X166552304Y-78103006D01*
X166552304Y-78103006D02*
X166647542Y-78150625D01*
X166647542Y-78150625D02*
X166695161Y-78198244D01*
X166695161Y-78198244D02*
X166742780Y-78293482D01*
X165742780Y-79579196D02*
X165742780Y-79007768D01*
X165742780Y-79293482D02*
X166742780Y-79293482D01*
X166742780Y-79293482D02*
X166599923Y-79198244D01*
X166599923Y-79198244D02*
X166504685Y-79103006D01*
X166504685Y-79103006D02*
X166457066Y-79007768D01*
X166123733Y-80007768D02*
X166123733Y-80769673D01*
X166742780Y-81436339D02*
X166742780Y-81531577D01*
X166742780Y-81531577D02*
X166695161Y-81626815D01*
X166695161Y-81626815D02*
X166647542Y-81674434D01*
X166647542Y-81674434D02*
X166552304Y-81722053D01*
X166552304Y-81722053D02*
X166361828Y-81769672D01*
X166361828Y-81769672D02*
X166123733Y-81769672D01*
X166123733Y-81769672D02*
X165933257Y-81722053D01*
X165933257Y-81722053D02*
X165838019Y-81674434D01*
X165838019Y-81674434D02*
X165790400Y-81626815D01*
X165790400Y-81626815D02*
X165742780Y-81531577D01*
X165742780Y-81531577D02*
X165742780Y-81436339D01*
X165742780Y-81436339D02*
X165790400Y-81341101D01*
X165790400Y-81341101D02*
X165838019Y-81293482D01*
X165838019Y-81293482D02*
X165933257Y-81245863D01*
X165933257Y-81245863D02*
X166123733Y-81198244D01*
X166123733Y-81198244D02*
X166361828Y-81198244D01*
X166361828Y-81198244D02*
X166552304Y-81245863D01*
X166552304Y-81245863D02*
X166647542Y-81293482D01*
X166647542Y-81293482D02*
X166695161Y-81341101D01*
X166695161Y-81341101D02*
X166742780Y-81436339D01*
X166742780Y-82388720D02*
X166742780Y-82483958D01*
X166742780Y-82483958D02*
X166695161Y-82579196D01*
X166695161Y-82579196D02*
X166647542Y-82626815D01*
X166647542Y-82626815D02*
X166552304Y-82674434D01*
X166552304Y-82674434D02*
X166361828Y-82722053D01*
X166361828Y-82722053D02*
X166123733Y-82722053D01*
X166123733Y-82722053D02*
X165933257Y-82674434D01*
X165933257Y-82674434D02*
X165838019Y-82626815D01*
X165838019Y-82626815D02*
X165790400Y-82579196D01*
X165790400Y-82579196D02*
X165742780Y-82483958D01*
X165742780Y-82483958D02*
X165742780Y-82388720D01*
X165742780Y-82388720D02*
X165790400Y-82293482D01*
X165790400Y-82293482D02*
X165838019Y-82245863D01*
X165838019Y-82245863D02*
X165933257Y-82198244D01*
X165933257Y-82198244D02*
X166123733Y-82150625D01*
X166123733Y-82150625D02*
X166361828Y-82150625D01*
X166361828Y-82150625D02*
X166552304Y-82198244D01*
X166552304Y-82198244D02*
X166647542Y-82245863D01*
X166647542Y-82245863D02*
X166695161Y-82293482D01*
X166695161Y-82293482D02*
X166742780Y-82388720D01*
X164132780Y-71769673D02*
X165132780Y-71769673D01*
X165132780Y-71769673D02*
X164132780Y-72341101D01*
X164132780Y-72341101D02*
X165132780Y-72341101D01*
X164180400Y-73198244D02*
X164132780Y-73103006D01*
X164132780Y-73103006D02*
X164132780Y-72912530D01*
X164132780Y-72912530D02*
X164180400Y-72817292D01*
X164180400Y-72817292D02*
X164275638Y-72769673D01*
X164275638Y-72769673D02*
X164656590Y-72769673D01*
X164656590Y-72769673D02*
X164751828Y-72817292D01*
X164751828Y-72817292D02*
X164799447Y-72912530D01*
X164799447Y-72912530D02*
X164799447Y-73103006D01*
X164799447Y-73103006D02*
X164751828Y-73198244D01*
X164751828Y-73198244D02*
X164656590Y-73245863D01*
X164656590Y-73245863D02*
X164561352Y-73245863D01*
X164561352Y-73245863D02*
X164466114Y-72769673D01*
X164132780Y-73674435D02*
X164799447Y-73674435D01*
X164704209Y-73674435D02*
X164751828Y-73722054D01*
X164751828Y-73722054D02*
X164799447Y-73817292D01*
X164799447Y-73817292D02*
X164799447Y-73960149D01*
X164799447Y-73960149D02*
X164751828Y-74055387D01*
X164751828Y-74055387D02*
X164656590Y-74103006D01*
X164656590Y-74103006D02*
X164132780Y-74103006D01*
X164656590Y-74103006D02*
X164751828Y-74150625D01*
X164751828Y-74150625D02*
X164799447Y-74245863D01*
X164799447Y-74245863D02*
X164799447Y-74388720D01*
X164799447Y-74388720D02*
X164751828Y-74483959D01*
X164751828Y-74483959D02*
X164656590Y-74531578D01*
X164656590Y-74531578D02*
X164132780Y-74531578D01*
X164180400Y-75388720D02*
X164132780Y-75293482D01*
X164132780Y-75293482D02*
X164132780Y-75103006D01*
X164132780Y-75103006D02*
X164180400Y-75007768D01*
X164180400Y-75007768D02*
X164275638Y-74960149D01*
X164275638Y-74960149D02*
X164656590Y-74960149D01*
X164656590Y-74960149D02*
X164751828Y-75007768D01*
X164751828Y-75007768D02*
X164799447Y-75103006D01*
X164799447Y-75103006D02*
X164799447Y-75293482D01*
X164799447Y-75293482D02*
X164751828Y-75388720D01*
X164751828Y-75388720D02*
X164656590Y-75436339D01*
X164656590Y-75436339D02*
X164561352Y-75436339D01*
X164561352Y-75436339D02*
X164466114Y-74960149D01*
X164132780Y-76293482D02*
X164656590Y-76293482D01*
X164656590Y-76293482D02*
X164751828Y-76245863D01*
X164751828Y-76245863D02*
X164799447Y-76150625D01*
X164799447Y-76150625D02*
X164799447Y-75960149D01*
X164799447Y-75960149D02*
X164751828Y-75864911D01*
X164180400Y-76293482D02*
X164132780Y-76198244D01*
X164132780Y-76198244D02*
X164132780Y-75960149D01*
X164132780Y-75960149D02*
X164180400Y-75864911D01*
X164180400Y-75864911D02*
X164275638Y-75817292D01*
X164275638Y-75817292D02*
X164370876Y-75817292D01*
X164370876Y-75817292D02*
X164466114Y-75864911D01*
X164466114Y-75864911D02*
X164513733Y-75960149D01*
X164513733Y-75960149D02*
X164513733Y-76198244D01*
X164513733Y-76198244D02*
X164561352Y-76293482D01*
X164799447Y-76769673D02*
X164132780Y-76769673D01*
X164704209Y-76769673D02*
X164751828Y-76817292D01*
X164751828Y-76817292D02*
X164799447Y-76912530D01*
X164799447Y-76912530D02*
X164799447Y-77055387D01*
X164799447Y-77055387D02*
X164751828Y-77150625D01*
X164751828Y-77150625D02*
X164656590Y-77198244D01*
X164656590Y-77198244D02*
X164132780Y-77198244D01*
D11*
%TO.C,H1*%
X154238095Y-67254819D02*
X154238095Y-66254819D01*
X154238095Y-66731009D02*
X154809523Y-66731009D01*
X154809523Y-67254819D02*
X154809523Y-66254819D01*
X155809523Y-67254819D02*
X155238095Y-67254819D01*
X155523809Y-67254819D02*
X155523809Y-66254819D01*
X155523809Y-66254819D02*
X155428571Y-66397676D01*
X155428571Y-66397676D02*
X155333333Y-66492914D01*
X155333333Y-66492914D02*
X155238095Y-66540533D01*
D12*
%TO.C,C5*%
X148354380Y-114566666D02*
X148402000Y-114614285D01*
X148402000Y-114614285D02*
X148449619Y-114757142D01*
X148449619Y-114757142D02*
X148449619Y-114852380D01*
X148449619Y-114852380D02*
X148402000Y-114995237D01*
X148402000Y-114995237D02*
X148306761Y-115090475D01*
X148306761Y-115090475D02*
X148211523Y-115138094D01*
X148211523Y-115138094D02*
X148021047Y-115185713D01*
X148021047Y-115185713D02*
X147878190Y-115185713D01*
X147878190Y-115185713D02*
X147687714Y-115138094D01*
X147687714Y-115138094D02*
X147592476Y-115090475D01*
X147592476Y-115090475D02*
X147497238Y-114995237D01*
X147497238Y-114995237D02*
X147449619Y-114852380D01*
X147449619Y-114852380D02*
X147449619Y-114757142D01*
X147449619Y-114757142D02*
X147497238Y-114614285D01*
X147497238Y-114614285D02*
X147544857Y-114566666D01*
X147449619Y-113661904D02*
X147449619Y-114138094D01*
X147449619Y-114138094D02*
X147925809Y-114185713D01*
X147925809Y-114185713D02*
X147878190Y-114138094D01*
X147878190Y-114138094D02*
X147830571Y-114042856D01*
X147830571Y-114042856D02*
X147830571Y-113804761D01*
X147830571Y-113804761D02*
X147878190Y-113709523D01*
X147878190Y-113709523D02*
X147925809Y-113661904D01*
X147925809Y-113661904D02*
X148021047Y-113614285D01*
X148021047Y-113614285D02*
X148259142Y-113614285D01*
X148259142Y-113614285D02*
X148354380Y-113661904D01*
X148354380Y-113661904D02*
X148402000Y-113709523D01*
X148402000Y-113709523D02*
X148449619Y-113804761D01*
X148449619Y-113804761D02*
X148449619Y-114042856D01*
X148449619Y-114042856D02*
X148402000Y-114138094D01*
X148402000Y-114138094D02*
X148354380Y-114185713D01*
%TO.C,C2*%
X144554380Y-87966666D02*
X144602000Y-88014285D01*
X144602000Y-88014285D02*
X144649619Y-88157142D01*
X144649619Y-88157142D02*
X144649619Y-88252380D01*
X144649619Y-88252380D02*
X144602000Y-88395237D01*
X144602000Y-88395237D02*
X144506761Y-88490475D01*
X144506761Y-88490475D02*
X144411523Y-88538094D01*
X144411523Y-88538094D02*
X144221047Y-88585713D01*
X144221047Y-88585713D02*
X144078190Y-88585713D01*
X144078190Y-88585713D02*
X143887714Y-88538094D01*
X143887714Y-88538094D02*
X143792476Y-88490475D01*
X143792476Y-88490475D02*
X143697238Y-88395237D01*
X143697238Y-88395237D02*
X143649619Y-88252380D01*
X143649619Y-88252380D02*
X143649619Y-88157142D01*
X143649619Y-88157142D02*
X143697238Y-88014285D01*
X143697238Y-88014285D02*
X143744857Y-87966666D01*
X143744857Y-87585713D02*
X143697238Y-87538094D01*
X143697238Y-87538094D02*
X143649619Y-87442856D01*
X143649619Y-87442856D02*
X143649619Y-87204761D01*
X143649619Y-87204761D02*
X143697238Y-87109523D01*
X143697238Y-87109523D02*
X143744857Y-87061904D01*
X143744857Y-87061904D02*
X143840095Y-87014285D01*
X143840095Y-87014285D02*
X143935333Y-87014285D01*
X143935333Y-87014285D02*
X144078190Y-87061904D01*
X144078190Y-87061904D02*
X144649619Y-87633332D01*
X144649619Y-87633332D02*
X144649619Y-87014285D01*
D10*
%TO.C,LED1*%
X162052219Y-114719047D02*
X162052219Y-115195237D01*
X162052219Y-115195237D02*
X161052219Y-115195237D01*
X161528409Y-114385713D02*
X161528409Y-114052380D01*
X162052219Y-113909523D02*
X162052219Y-114385713D01*
X162052219Y-114385713D02*
X161052219Y-114385713D01*
X161052219Y-114385713D02*
X161052219Y-113909523D01*
X162052219Y-113480951D02*
X161052219Y-113480951D01*
X161052219Y-113480951D02*
X161052219Y-113242856D01*
X161052219Y-113242856D02*
X161099838Y-113099999D01*
X161099838Y-113099999D02*
X161195076Y-113004761D01*
X161195076Y-113004761D02*
X161290314Y-112957142D01*
X161290314Y-112957142D02*
X161480790Y-112909523D01*
X161480790Y-112909523D02*
X161623647Y-112909523D01*
X161623647Y-112909523D02*
X161814123Y-112957142D01*
X161814123Y-112957142D02*
X161909361Y-113004761D01*
X161909361Y-113004761D02*
X162004600Y-113099999D01*
X162004600Y-113099999D02*
X162052219Y-113242856D01*
X162052219Y-113242856D02*
X162052219Y-113480951D01*
X162052219Y-111957142D02*
X162052219Y-112528570D01*
X162052219Y-112242856D02*
X161052219Y-112242856D01*
X161052219Y-112242856D02*
X161195076Y-112338094D01*
X161195076Y-112338094D02*
X161290314Y-112433332D01*
X161290314Y-112433332D02*
X161337933Y-112528570D01*
D12*
%TO.C,SW2*%
X147266667Y-116602000D02*
X147409524Y-116649619D01*
X147409524Y-116649619D02*
X147647619Y-116649619D01*
X147647619Y-116649619D02*
X147742857Y-116602000D01*
X147742857Y-116602000D02*
X147790476Y-116554380D01*
X147790476Y-116554380D02*
X147838095Y-116459142D01*
X147838095Y-116459142D02*
X147838095Y-116363904D01*
X147838095Y-116363904D02*
X147790476Y-116268666D01*
X147790476Y-116268666D02*
X147742857Y-116221047D01*
X147742857Y-116221047D02*
X147647619Y-116173428D01*
X147647619Y-116173428D02*
X147457143Y-116125809D01*
X147457143Y-116125809D02*
X147361905Y-116078190D01*
X147361905Y-116078190D02*
X147314286Y-116030571D01*
X147314286Y-116030571D02*
X147266667Y-115935333D01*
X147266667Y-115935333D02*
X147266667Y-115840095D01*
X147266667Y-115840095D02*
X147314286Y-115744857D01*
X147314286Y-115744857D02*
X147361905Y-115697238D01*
X147361905Y-115697238D02*
X147457143Y-115649619D01*
X147457143Y-115649619D02*
X147695238Y-115649619D01*
X147695238Y-115649619D02*
X147838095Y-115697238D01*
X148171429Y-115649619D02*
X148409524Y-116649619D01*
X148409524Y-116649619D02*
X148600000Y-115935333D01*
X148600000Y-115935333D02*
X148790476Y-116649619D01*
X148790476Y-116649619D02*
X149028572Y-115649619D01*
X149361905Y-115744857D02*
X149409524Y-115697238D01*
X149409524Y-115697238D02*
X149504762Y-115649619D01*
X149504762Y-115649619D02*
X149742857Y-115649619D01*
X149742857Y-115649619D02*
X149838095Y-115697238D01*
X149838095Y-115697238D02*
X149885714Y-115744857D01*
X149885714Y-115744857D02*
X149933333Y-115840095D01*
X149933333Y-115840095D02*
X149933333Y-115935333D01*
X149933333Y-115935333D02*
X149885714Y-116078190D01*
X149885714Y-116078190D02*
X149314286Y-116649619D01*
X149314286Y-116649619D02*
X149933333Y-116649619D01*
%TO.C,CN1*%
X153709523Y-116354380D02*
X153661904Y-116402000D01*
X153661904Y-116402000D02*
X153519047Y-116449619D01*
X153519047Y-116449619D02*
X153423809Y-116449619D01*
X153423809Y-116449619D02*
X153280952Y-116402000D01*
X153280952Y-116402000D02*
X153185714Y-116306761D01*
X153185714Y-116306761D02*
X153138095Y-116211523D01*
X153138095Y-116211523D02*
X153090476Y-116021047D01*
X153090476Y-116021047D02*
X153090476Y-115878190D01*
X153090476Y-115878190D02*
X153138095Y-115687714D01*
X153138095Y-115687714D02*
X153185714Y-115592476D01*
X153185714Y-115592476D02*
X153280952Y-115497238D01*
X153280952Y-115497238D02*
X153423809Y-115449619D01*
X153423809Y-115449619D02*
X153519047Y-115449619D01*
X153519047Y-115449619D02*
X153661904Y-115497238D01*
X153661904Y-115497238D02*
X153709523Y-115544857D01*
X154138095Y-116449619D02*
X154138095Y-115449619D01*
X154138095Y-115449619D02*
X154709523Y-116449619D01*
X154709523Y-116449619D02*
X154709523Y-115449619D01*
X155709523Y-116449619D02*
X155138095Y-116449619D01*
X155423809Y-116449619D02*
X155423809Y-115449619D01*
X155423809Y-115449619D02*
X155328571Y-115592476D01*
X155328571Y-115592476D02*
X155233333Y-115687714D01*
X155233333Y-115687714D02*
X155138095Y-115735333D01*
%TO.C,SW1*%
X143802000Y-96733332D02*
X143849619Y-96590475D01*
X143849619Y-96590475D02*
X143849619Y-96352380D01*
X143849619Y-96352380D02*
X143802000Y-96257142D01*
X143802000Y-96257142D02*
X143754380Y-96209523D01*
X143754380Y-96209523D02*
X143659142Y-96161904D01*
X143659142Y-96161904D02*
X143563904Y-96161904D01*
X143563904Y-96161904D02*
X143468666Y-96209523D01*
X143468666Y-96209523D02*
X143421047Y-96257142D01*
X143421047Y-96257142D02*
X143373428Y-96352380D01*
X143373428Y-96352380D02*
X143325809Y-96542856D01*
X143325809Y-96542856D02*
X143278190Y-96638094D01*
X143278190Y-96638094D02*
X143230571Y-96685713D01*
X143230571Y-96685713D02*
X143135333Y-96733332D01*
X143135333Y-96733332D02*
X143040095Y-96733332D01*
X143040095Y-96733332D02*
X142944857Y-96685713D01*
X142944857Y-96685713D02*
X142897238Y-96638094D01*
X142897238Y-96638094D02*
X142849619Y-96542856D01*
X142849619Y-96542856D02*
X142849619Y-96304761D01*
X142849619Y-96304761D02*
X142897238Y-96161904D01*
X142849619Y-95828570D02*
X143849619Y-95590475D01*
X143849619Y-95590475D02*
X143135333Y-95399999D01*
X143135333Y-95399999D02*
X143849619Y-95209523D01*
X143849619Y-95209523D02*
X142849619Y-94971428D01*
X143849619Y-94066666D02*
X143849619Y-94638094D01*
X143849619Y-94352380D02*
X142849619Y-94352380D01*
X142849619Y-94352380D02*
X142992476Y-94447618D01*
X142992476Y-94447618D02*
X143087714Y-94542856D01*
X143087714Y-94542856D02*
X143135333Y-94638094D01*
%TO.C,U1*%
X156538298Y-81318999D02*
X156538298Y-82128522D01*
X156538298Y-82128522D02*
X156585917Y-82223760D01*
X156585917Y-82223760D02*
X156633536Y-82271380D01*
X156633536Y-82271380D02*
X156728774Y-82318999D01*
X156728774Y-82318999D02*
X156919250Y-82318999D01*
X156919250Y-82318999D02*
X157014488Y-82271380D01*
X157014488Y-82271380D02*
X157062107Y-82223760D01*
X157062107Y-82223760D02*
X157109726Y-82128522D01*
X157109726Y-82128522D02*
X157109726Y-81318999D01*
X158109726Y-82318999D02*
X157538298Y-82318999D01*
X157824012Y-82318999D02*
X157824012Y-81318999D01*
X157824012Y-81318999D02*
X157728774Y-81461856D01*
X157728774Y-81461856D02*
X157633536Y-81557094D01*
X157633536Y-81557094D02*
X157538298Y-81604713D01*
%TO.C,C3*%
X143954380Y-92366666D02*
X144002000Y-92414285D01*
X144002000Y-92414285D02*
X144049619Y-92557142D01*
X144049619Y-92557142D02*
X144049619Y-92652380D01*
X144049619Y-92652380D02*
X144002000Y-92795237D01*
X144002000Y-92795237D02*
X143906761Y-92890475D01*
X143906761Y-92890475D02*
X143811523Y-92938094D01*
X143811523Y-92938094D02*
X143621047Y-92985713D01*
X143621047Y-92985713D02*
X143478190Y-92985713D01*
X143478190Y-92985713D02*
X143287714Y-92938094D01*
X143287714Y-92938094D02*
X143192476Y-92890475D01*
X143192476Y-92890475D02*
X143097238Y-92795237D01*
X143097238Y-92795237D02*
X143049619Y-92652380D01*
X143049619Y-92652380D02*
X143049619Y-92557142D01*
X143049619Y-92557142D02*
X143097238Y-92414285D01*
X143097238Y-92414285D02*
X143144857Y-92366666D01*
X143049619Y-92033332D02*
X143049619Y-91414285D01*
X143049619Y-91414285D02*
X143430571Y-91747618D01*
X143430571Y-91747618D02*
X143430571Y-91604761D01*
X143430571Y-91604761D02*
X143478190Y-91509523D01*
X143478190Y-91509523D02*
X143525809Y-91461904D01*
X143525809Y-91461904D02*
X143621047Y-91414285D01*
X143621047Y-91414285D02*
X143859142Y-91414285D01*
X143859142Y-91414285D02*
X143954380Y-91461904D01*
X143954380Y-91461904D02*
X144002000Y-91509523D01*
X144002000Y-91509523D02*
X144049619Y-91604761D01*
X144049619Y-91604761D02*
X144049619Y-91890475D01*
X144049619Y-91890475D02*
X144002000Y-91985713D01*
X144002000Y-91985713D02*
X143954380Y-92033332D01*
%TO.C,C1*%
X144554380Y-89966666D02*
X144602000Y-90014285D01*
X144602000Y-90014285D02*
X144649619Y-90157142D01*
X144649619Y-90157142D02*
X144649619Y-90252380D01*
X144649619Y-90252380D02*
X144602000Y-90395237D01*
X144602000Y-90395237D02*
X144506761Y-90490475D01*
X144506761Y-90490475D02*
X144411523Y-90538094D01*
X144411523Y-90538094D02*
X144221047Y-90585713D01*
X144221047Y-90585713D02*
X144078190Y-90585713D01*
X144078190Y-90585713D02*
X143887714Y-90538094D01*
X143887714Y-90538094D02*
X143792476Y-90490475D01*
X143792476Y-90490475D02*
X143697238Y-90395237D01*
X143697238Y-90395237D02*
X143649619Y-90252380D01*
X143649619Y-90252380D02*
X143649619Y-90157142D01*
X143649619Y-90157142D02*
X143697238Y-90014285D01*
X143697238Y-90014285D02*
X143744857Y-89966666D01*
X144649619Y-89014285D02*
X144649619Y-89585713D01*
X144649619Y-89299999D02*
X143649619Y-89299999D01*
X143649619Y-89299999D02*
X143792476Y-89395237D01*
X143792476Y-89395237D02*
X143887714Y-89490475D01*
X143887714Y-89490475D02*
X143935333Y-89585713D01*
%TO.C,R1*%
X147049619Y-95966666D02*
X146573428Y-96299999D01*
X147049619Y-96538094D02*
X146049619Y-96538094D01*
X146049619Y-96538094D02*
X146049619Y-96157142D01*
X146049619Y-96157142D02*
X146097238Y-96061904D01*
X146097238Y-96061904D02*
X146144857Y-96014285D01*
X146144857Y-96014285D02*
X146240095Y-95966666D01*
X146240095Y-95966666D02*
X146382952Y-95966666D01*
X146382952Y-95966666D02*
X146478190Y-96014285D01*
X146478190Y-96014285D02*
X146525809Y-96061904D01*
X146525809Y-96061904D02*
X146573428Y-96157142D01*
X146573428Y-96157142D02*
X146573428Y-96538094D01*
X147049619Y-95014285D02*
X147049619Y-95585713D01*
X147049619Y-95299999D02*
X146049619Y-95299999D01*
X146049619Y-95299999D02*
X146192476Y-95395237D01*
X146192476Y-95395237D02*
X146287714Y-95490475D01*
X146287714Y-95490475D02*
X146335333Y-95585713D01*
%TO.C,C4*%
X143954380Y-106366666D02*
X144002000Y-106414285D01*
X144002000Y-106414285D02*
X144049619Y-106557142D01*
X144049619Y-106557142D02*
X144049619Y-106652380D01*
X144049619Y-106652380D02*
X144002000Y-106795237D01*
X144002000Y-106795237D02*
X143906761Y-106890475D01*
X143906761Y-106890475D02*
X143811523Y-106938094D01*
X143811523Y-106938094D02*
X143621047Y-106985713D01*
X143621047Y-106985713D02*
X143478190Y-106985713D01*
X143478190Y-106985713D02*
X143287714Y-106938094D01*
X143287714Y-106938094D02*
X143192476Y-106890475D01*
X143192476Y-106890475D02*
X143097238Y-106795237D01*
X143097238Y-106795237D02*
X143049619Y-106652380D01*
X143049619Y-106652380D02*
X143049619Y-106557142D01*
X143049619Y-106557142D02*
X143097238Y-106414285D01*
X143097238Y-106414285D02*
X143144857Y-106366666D01*
X143382952Y-105509523D02*
X144049619Y-105509523D01*
X143002000Y-105747618D02*
X143716285Y-105985713D01*
X143716285Y-105985713D02*
X143716285Y-105366666D01*
D10*
%TO.C,R2*%
X165652219Y-111566666D02*
X165176028Y-111899999D01*
X165652219Y-112138094D02*
X164652219Y-112138094D01*
X164652219Y-112138094D02*
X164652219Y-111757142D01*
X164652219Y-111757142D02*
X164699838Y-111661904D01*
X164699838Y-111661904D02*
X164747457Y-111614285D01*
X164747457Y-111614285D02*
X164842695Y-111566666D01*
X164842695Y-111566666D02*
X164985552Y-111566666D01*
X164985552Y-111566666D02*
X165080790Y-111614285D01*
X165080790Y-111614285D02*
X165128409Y-111661904D01*
X165128409Y-111661904D02*
X165176028Y-111757142D01*
X165176028Y-111757142D02*
X165176028Y-112138094D01*
X164747457Y-111185713D02*
X164699838Y-111138094D01*
X164699838Y-111138094D02*
X164652219Y-111042856D01*
X164652219Y-111042856D02*
X164652219Y-110804761D01*
X164652219Y-110804761D02*
X164699838Y-110709523D01*
X164699838Y-110709523D02*
X164747457Y-110661904D01*
X164747457Y-110661904D02*
X164842695Y-110614285D01*
X164842695Y-110614285D02*
X164937933Y-110614285D01*
X164937933Y-110614285D02*
X165080790Y-110661904D01*
X165080790Y-110661904D02*
X165652219Y-111233332D01*
X165652219Y-111233332D02*
X165652219Y-110614285D01*
D13*
%TO.C,C5*%
X148510000Y-111965580D02*
X148510000Y-111684420D01*
X147490000Y-111965580D02*
X147490000Y-111684420D01*
%TO.C,C2*%
X146259420Y-88710000D02*
X146540580Y-88710000D01*
X146259420Y-87690000D02*
X146540580Y-87690000D01*
D14*
%TO.C,LED1*%
X163633452Y-114599467D02*
G75*
G03*
X163633452Y-114599467I-29972J0D01*
G01*
D15*
X163523520Y-113579578D02*
X163523520Y-113589535D01*
X163523520Y-113589535D02*
X163193472Y-113919583D01*
X162843485Y-113579578D02*
X162853467Y-113579578D01*
X162853467Y-113579578D02*
X163193472Y-113919583D01*
X162843485Y-113579578D02*
X163523520Y-113579578D01*
X162443409Y-113559538D02*
X162443409Y-112409525D01*
X163943536Y-113559538D02*
X163943536Y-112409525D01*
X162443510Y-112409525D02*
X163923444Y-112409525D01*
X163945847Y-113939548D02*
X163945847Y-114989662D01*
X163545771Y-115289611D02*
X163645796Y-115289611D01*
X163645796Y-115289611D02*
X163945847Y-114989662D01*
X162845822Y-115289611D02*
X163545771Y-115289611D01*
X162845822Y-115289611D02*
X162745669Y-115289611D01*
X162745669Y-115289611D02*
X162445720Y-114989662D01*
X162445720Y-113939548D02*
X162445720Y-114989662D01*
X163193472Y-113579578D02*
X163193472Y-113919583D01*
D14*
%TO.C,SW2*%
X146830048Y-116000000D02*
G75*
G03*
X146830048Y-116000000I-29997J0D01*
G01*
D16*
X145567945Y-112000000D02*
G75*
G03*
X145567945Y-112000000I-567945J0D01*
G01*
X146016002Y-112000000D02*
G75*
G03*
X146016002Y-112000000I-1016002J0D01*
G01*
X145567945Y-109967996D02*
G75*
G03*
X145567945Y-109967996I-567945J0D01*
G01*
X145567945Y-114032004D02*
G75*
G03*
X145567945Y-114032004I-567945J0D01*
G01*
X143200025Y-115100025D02*
X143200025Y-108900076D01*
X146800076Y-108900076D02*
X146800076Y-115100025D01*
X146270053Y-115048057D02*
X146778054Y-114540056D01*
X143730048Y-115048057D02*
X143222047Y-114540056D01*
X143222047Y-109460046D02*
X143730048Y-108952045D01*
X146778054Y-109460046D02*
X146270053Y-108952045D01*
X143200025Y-108900076D02*
X144018898Y-108900076D01*
X145981179Y-108900076D02*
X146800076Y-108900076D01*
X143200025Y-115100025D02*
X144018898Y-115100025D01*
X145981179Y-115100025D02*
X146800076Y-115100025D01*
D14*
%TO.C,CN1*%
X144130036Y-118174753D02*
G75*
G03*
X144130036Y-118174753I-29997J0D01*
G01*
D17*
X148345276Y-126034672D02*
X150155004Y-126034672D01*
X145650813Y-126034672D02*
X145655004Y-126034672D01*
X145650813Y-126034672D02*
X144098870Y-126034672D01*
X144098870Y-126034672D02*
X144098870Y-120804801D01*
X165899734Y-124297308D02*
X165899734Y-126034672D01*
X165899734Y-126034672D02*
X164340171Y-126034672D01*
X165900064Y-120805004D02*
X165900064Y-123252147D01*
D14*
%TO.C,SW1*%
X146830048Y-104400000D02*
G75*
G03*
X146830048Y-104400000I-29997J0D01*
G01*
D16*
X145567945Y-100400000D02*
G75*
G03*
X145567945Y-100400000I-567945J0D01*
G01*
X146016002Y-100400000D02*
G75*
G03*
X146016002Y-100400000I-1016002J0D01*
G01*
X145567945Y-98367996D02*
G75*
G03*
X145567945Y-98367996I-567945J0D01*
G01*
X145567945Y-102432004D02*
G75*
G03*
X145567945Y-102432004I-567945J0D01*
G01*
X143200025Y-103500025D02*
X143200025Y-97300076D01*
X146800076Y-97300076D02*
X146800076Y-103500025D01*
X146270053Y-103448057D02*
X146778054Y-102940056D01*
X143730048Y-103448057D02*
X143222047Y-102940056D01*
X143222047Y-97860046D02*
X143730048Y-97352045D01*
X146778054Y-97860046D02*
X146270053Y-97352045D01*
X143200025Y-97300076D02*
X144018898Y-97300076D01*
X145981179Y-97300076D02*
X146800076Y-97300076D01*
X143200025Y-103500025D02*
X144018898Y-103500025D01*
X145981179Y-103500025D02*
X146800076Y-103500025D01*
D14*
%TO.C,U1*%
X148330048Y-83869253D02*
G75*
G03*
X148330048Y-83869253I-29972J0D01*
G01*
D16*
X148300203Y-89049619D02*
X166300203Y-89049619D01*
X148300203Y-90678880D02*
X148300203Y-89269380D01*
X149634036Y-109369380D02*
X148300203Y-109369380D01*
X148300203Y-109369380D02*
X148300203Y-108551194D01*
X166300203Y-108551194D02*
X166300203Y-109369380D01*
X166300203Y-109369380D02*
X164966370Y-109369380D01*
X148300203Y-89319367D02*
X148300203Y-83869380D01*
X148300203Y-83869380D02*
X166300203Y-83869380D01*
X166300203Y-83869380D02*
X166300203Y-90678880D01*
D13*
%TO.C,C3*%
X145940580Y-91890000D02*
X145659420Y-91890000D01*
X145940580Y-92910000D02*
X145659420Y-92910000D01*
%TO.C,C1*%
X146259420Y-90310000D02*
X146540580Y-90310000D01*
X146259420Y-89290000D02*
X146540580Y-89290000D01*
%TO.C,R1*%
X145562742Y-94522500D02*
X146037258Y-94522500D01*
X145562742Y-93477500D02*
X146037258Y-93477500D01*
%TO.C,C4*%
X145965580Y-105790000D02*
X145684420Y-105790000D01*
X145965580Y-106810000D02*
X145684420Y-106810000D01*
%TO.C,R2*%
X165722500Y-114062258D02*
X165722500Y-113587742D01*
X164677500Y-114062258D02*
X164677500Y-113587742D01*
%TD*%
%LPC*%
%TO.C,U2*%
D18*
X148275000Y-130100000D02*
X145075000Y-130100000D01*
X145075000Y-128100000D01*
X148275000Y-128100000D01*
X148275000Y-130100000D01*
G36*
X148275000Y-130100000D02*
G01*
X145075000Y-130100000D01*
X145075000Y-128100000D01*
X148275000Y-128100000D01*
X148275000Y-130100000D01*
G37*
X164925000Y-130100000D02*
X149475000Y-130100000D01*
X149475000Y-128100000D01*
X164925000Y-128100000D01*
X164925000Y-130100000D01*
G36*
X164925000Y-130100000D02*
G01*
X149475000Y-130100000D01*
X149475000Y-128100000D01*
X164925000Y-128100000D01*
X164925000Y-130100000D01*
G37*
%TD*%
D19*
%TO.C,H1*%
X155000000Y-71000000D03*
D20*
X155000000Y-71000000D03*
%TD*%
D21*
%TO.C,C5*%
X148000000Y-112600000D03*
X148000000Y-111050000D03*
%TD*%
D22*
%TO.C,C2*%
X145625000Y-88200000D03*
X147175000Y-88200000D03*
%TD*%
D23*
%TO.C,LED1*%
X163196571Y-113000533D03*
X163203429Y-114599467D03*
%TD*%
D24*
%TO.C,SW2*%
X145000000Y-115799848D03*
X145000000Y-108200152D03*
%TD*%
D25*
%TO.C,CN1*%
X144650051Y-119224918D03*
X165350077Y-119224918D03*
D26*
X145750128Y-118500000D03*
X146000064Y-126049912D03*
X146250000Y-118500000D03*
X146500191Y-126049912D03*
X146750128Y-118500000D03*
X147000064Y-126049912D03*
X147250000Y-118500000D03*
X147500191Y-126049912D03*
X147750128Y-118500000D03*
X148000064Y-126049912D03*
X148250000Y-118500000D03*
X150500191Y-126049912D03*
X150750128Y-118500000D03*
X151000064Y-126049912D03*
X151250000Y-118500000D03*
X151500191Y-126049912D03*
X151750128Y-118500000D03*
X152000064Y-126049912D03*
X152250000Y-118500000D03*
X152500191Y-126049912D03*
X152750128Y-118500000D03*
X153000064Y-126049912D03*
X153250000Y-118500000D03*
X153500191Y-126049912D03*
X153750128Y-118500000D03*
X154000064Y-126049912D03*
X154250000Y-118500000D03*
X154500191Y-126049912D03*
X154750128Y-118500000D03*
X155000064Y-126049912D03*
X155250000Y-118500000D03*
X155500191Y-126049912D03*
X155750128Y-118500000D03*
X156000064Y-126049658D03*
X156250000Y-118500000D03*
X156500191Y-126049658D03*
X156750128Y-118500000D03*
X157000064Y-126049658D03*
X157250000Y-118500000D03*
X157500191Y-126049658D03*
X157750128Y-118500000D03*
X158000064Y-126049658D03*
X158250000Y-118500000D03*
X158500191Y-126049658D03*
X158750128Y-118500000D03*
X159000064Y-126049658D03*
X159250000Y-118500000D03*
X159500191Y-126049658D03*
X159750128Y-118500000D03*
X160000064Y-126049658D03*
X162250000Y-118500000D03*
X162500191Y-126049658D03*
X162750128Y-118500000D03*
X163000064Y-126049658D03*
X163250000Y-118500000D03*
X163500191Y-126049658D03*
X163750128Y-118500000D03*
X164000064Y-126049658D03*
X164250000Y-118500000D03*
D27*
X161750128Y-118499746D03*
X161250000Y-118499746D03*
X160750128Y-118499746D03*
X160250000Y-118499746D03*
X162000064Y-126049658D03*
X161500191Y-126049658D03*
X161000064Y-126049658D03*
X160500191Y-126049658D03*
D28*
X145000064Y-123774829D03*
D29*
X165000064Y-123774829D03*
%TD*%
D24*
%TO.C,SW1*%
X145000000Y-104199848D03*
X145000000Y-96600152D03*
%TD*%
D30*
%TO.C,U1*%
X148400406Y-91359982D03*
X148400406Y-92629985D03*
X148400406Y-93899987D03*
X148400406Y-95169990D03*
X148400406Y-96439992D03*
X148400406Y-97709995D03*
X148400406Y-98979997D03*
X148400406Y-100250000D03*
X148400406Y-101520002D03*
X148400406Y-102790005D03*
X148400406Y-104060007D03*
X148400406Y-105330010D03*
X148400406Y-106600013D03*
X148400406Y-107870015D03*
D31*
X150315316Y-109269304D03*
X151585319Y-109269304D03*
X152855321Y-109269304D03*
X154125324Y-109269304D03*
X155395326Y-109269304D03*
X156665329Y-109269304D03*
X157935331Y-109269304D03*
X159205334Y-109269304D03*
X160475336Y-109269304D03*
X161745339Y-109269304D03*
X163015341Y-109269304D03*
X164285344Y-109269304D03*
D30*
X166200000Y-107870015D03*
X166200000Y-106600013D03*
X166200000Y-105330010D03*
X166200000Y-104060007D03*
X166200000Y-102790005D03*
X166200000Y-101520002D03*
X166200000Y-100250000D03*
X166200000Y-98979997D03*
X166200000Y-97709995D03*
X166200000Y-96439992D03*
X166200000Y-95169990D03*
X166200000Y-93899987D03*
X166200000Y-92629985D03*
X166200000Y-91359982D03*
D32*
X155800711Y-99079566D03*
X154400660Y-99079566D03*
X157200762Y-99079566D03*
X157200762Y-97679515D03*
X155800711Y-97679515D03*
X154400660Y-97679515D03*
X154400660Y-100479616D03*
X155800711Y-100479616D03*
X157200762Y-100479616D03*
%TD*%
D33*
%TO.C,C3*%
X146575000Y-92400000D03*
X145025000Y-92400000D03*
%TD*%
D22*
%TO.C,C1*%
X145625000Y-89800000D03*
X147175000Y-89800000D03*
%TD*%
D34*
%TO.C,R1*%
X144975000Y-94000000D03*
X146625000Y-94000000D03*
%TD*%
D33*
%TO.C,C4*%
X146600000Y-106300000D03*
X145050000Y-106300000D03*
%TD*%
D35*
%TO.C,R2*%
X165200000Y-114650000D03*
X165200000Y-113000000D03*
%TD*%
%LPD*%
M02*
