%TF.GenerationSoftware,KiCad,Pcbnew,7.0.5*%
%TF.CreationDate,2023-09-25T03:15:30-05:00*%
%TF.ProjectId,Chimera_Nimean,4368696d-6572-4615-9f4e-696d65616e2e,rev?*%
%TF.SameCoordinates,Original*%
%TF.FileFunction,Copper,L2,Inr*%
%TF.FilePolarity,Positive*%
%FSLAX46Y46*%
G04 Gerber Fmt 4.6, Leading zero omitted, Abs format (unit mm)*
G04 Created by KiCad (PCBNEW 7.0.5) date 2023-09-25 03:15:30*
%MOMM*%
%LPD*%
G01*
G04 APERTURE LIST*
%TA.AperFunction,ComponentPad*%
%ADD10C,3.600000*%
%TD*%
%TA.AperFunction,ViaPad*%
%ADD11C,0.330000*%
%TD*%
%TA.AperFunction,Conductor*%
%ADD12C,0.127000*%
%TD*%
G04 APERTURE END LIST*
D10*
%TO.N,N/C*%
%TO.C,H1*%
X155000000Y-71000000D03*
%TD*%
D11*
%TO.N,GND*%
X164300000Y-116300000D03*
%TO.N,BOOT*%
X146400000Y-107800000D03*
%TO.N,Net-(CN1-1-Pad2)*%
X145250000Y-121750000D03*
%TO.N,Net-(CN1-1-Pad4)*%
X146000000Y-121750000D03*
%TO.N,Net-(CN1-1-Pad6)*%
X148000000Y-121750000D03*
%TO.N,Net-(CN1-1-Pad8)*%
X148000000Y-122500000D03*
%TO.N,Net-(CN1-1-Pad10)*%
X148000000Y-123250000D03*
%TO.N,Net-(CN1-20-Pad58)*%
X160500000Y-123500000D03*
%TO.N,Net-(CN1-20-Pad60)*%
X160500191Y-124250000D03*
%TO.N,Net-(CN1-20-Pad62)*%
X161000064Y-124750000D03*
%TO.N,Net-(CN1-20-Pad64)*%
X162200000Y-120600000D03*
%TO.N,Net-(CN1-1-Pad66)*%
X162900000Y-121300000D03*
%TO.N,Net-(CN1-1-Pad68)*%
X163600000Y-121900000D03*
%TO.N,Net-(CN1-1-Pad70)*%
X164250000Y-121500000D03*
%TO.N,Net-(CN1-1-Pad72)*%
X164750000Y-122000000D03*
%TO.N,Net-(CN1-1-Pad74)*%
X165500000Y-122250000D03*
%TO.N,Net-(CN1-1-Pad3)*%
X146250000Y-117250000D03*
%TO.N,Net-(CN1-1-Pad5)*%
X146750000Y-121000000D03*
%TO.N,Net-(CN1-1-Pad7)*%
X147250000Y-117250000D03*
%TO.N,Net-(CN1-1-Pad69)*%
X162750000Y-117000000D03*
%TO.N,Net-(CN1-1-Pad71)*%
X163700000Y-119750000D03*
%TO.N,Net-(CN1-1-Pad73)*%
X163750000Y-117000000D03*
%TO.N,GND*%
X153700000Y-98400000D03*
X144000000Y-92400000D03*
X156500000Y-101200000D03*
X155100000Y-101200000D03*
X155100000Y-96900000D03*
X143900000Y-106300000D03*
X156500000Y-96900000D03*
X145000000Y-95300000D03*
X153700000Y-99800000D03*
X157900000Y-99800000D03*
X148000000Y-109900000D03*
X157900000Y-98400000D03*
X164800000Y-91400000D03*
X156500000Y-98400000D03*
X155100000Y-99800000D03*
X155100000Y-98400000D03*
X146600000Y-90800000D03*
X156500000Y-99800000D03*
X147342873Y-91310718D03*
X163800000Y-115400000D03*
%TO.N,+3V3*%
X149500000Y-92600000D03*
X165200000Y-115600000D03*
X145750000Y-121000000D03*
X145625000Y-90675000D03*
X143900000Y-94000000D03*
%TO.N,IO4*%
X160800000Y-91900000D03*
X158250000Y-124000000D03*
%TO.N,IO5*%
X149600000Y-96400000D03*
X158000000Y-123250000D03*
%TO.N,IO1*%
X156250000Y-120000000D03*
X156300000Y-115900000D03*
X161100000Y-92700000D03*
%TO.N,IO6*%
X157750000Y-122500000D03*
X149600000Y-97800000D03*
%TO.N,IO2*%
X161100000Y-93900000D03*
X156750000Y-117250000D03*
%TO.N,IO7*%
X149600000Y-99000000D03*
X157500000Y-121750000D03*
%TO.N,TXD0*%
X161100000Y-95100000D03*
X157250000Y-119500000D03*
X157250000Y-116000000D03*
%TO.N,IO15*%
X157000000Y-121250000D03*
X149600000Y-100300000D03*
%TO.N,RXD0*%
X161800000Y-96400000D03*
X157750000Y-117250000D03*
%TO.N,IO16*%
X149600000Y-101500000D03*
X156500000Y-123500000D03*
%TO.N,IO42*%
X161900000Y-97800000D03*
X158600000Y-116300000D03*
X158250000Y-119750000D03*
%TO.N,IO17*%
X155000000Y-124800000D03*
X149600000Y-102800000D03*
%TO.N,IO41*%
X161900000Y-98900000D03*
X158750000Y-117000000D03*
%TO.N,IO18*%
X149600000Y-104100000D03*
X156000000Y-122400000D03*
%TO.N,IO40*%
X159800000Y-116200000D03*
X161900000Y-100200000D03*
X159250000Y-119750000D03*
%TO.N,IO8*%
X155200000Y-122400000D03*
X149600000Y-105300000D03*
%TO.N,IO39*%
X159750000Y-117000000D03*
X161900000Y-101500000D03*
%TO.N,IO19*%
X149600000Y-106600000D03*
X155173977Y-123573977D03*
%TO.N,IO38*%
X160800000Y-116200000D03*
X161900000Y-102900000D03*
X160250000Y-119500000D03*
%TO.N,IO20*%
X150000000Y-107800000D03*
X154762500Y-122987500D03*
%TO.N,IO37*%
X160750000Y-117000000D03*
X161900000Y-104100000D03*
%TO.N,IO45*%
X155750000Y-117250000D03*
%TO.N,IO36*%
X161800000Y-116100000D03*
X161250000Y-120500000D03*
X162200000Y-105400000D03*
%TO.N,IO48*%
X155250000Y-120000000D03*
%TO.N,IO35*%
X162600000Y-106700000D03*
X161750000Y-117000000D03*
%TO.N,IO47*%
X154750000Y-117250000D03*
%TO.N,BOOT*%
X162800000Y-116100000D03*
X163160605Y-120560605D03*
X163100000Y-107900000D03*
%TO.N,IO21*%
X154250000Y-120000000D03*
%TO.N,IO14*%
X153750000Y-117250000D03*
%TO.N,IO13*%
X153250000Y-119600000D03*
%TO.N,IO12*%
X152750000Y-117250000D03*
%TO.N,IO11*%
X152250000Y-120600000D03*
%TO.N,IO10*%
X151750000Y-117250000D03*
%TO.N,IO9*%
X151250000Y-120000000D03*
%TO.N,IO46*%
X150750000Y-117000000D03*
%TO.N,IO3*%
X150700000Y-110500000D03*
X148250000Y-117250000D03*
%TO.N,Net-(CN1-1-Pad9)*%
X147750000Y-121000000D03*
%TO.N,Net-(CN1-Pad20)*%
X149250000Y-124000000D03*
%TO.N,Net-(CN1-20-Pad22)*%
X149500000Y-123000000D03*
%TO.N,Net-(CN1-20-Pad24)*%
X149750000Y-122250000D03*
%TO.N,Net-(CN1-20-Pad26)*%
X150000000Y-121500000D03*
%TO.N,Net-(CN1-20-Pad28)*%
X150800000Y-121600000D03*
%TO.N,Net-(CN1-20-Pad52)*%
X158500000Y-124750000D03*
%TO.N,Net-(CN1-20-Pad54)*%
X159500000Y-122500000D03*
%TO.N,Net-(CN1-20-Pad56)*%
X160000000Y-123000000D03*
%TD*%
D12*
%TO.N,Net-(CN1-1-Pad66)*%
X163600000Y-120711645D02*
X163600000Y-120300000D01*
X163600000Y-120300000D02*
X163100000Y-119800000D01*
X163011645Y-121300000D02*
X163600000Y-120711645D01*
X162900000Y-121300000D02*
X163011645Y-121300000D01*
X163100000Y-119800000D02*
X163100000Y-119100000D01*
%TO.N,Net-(CN1-1-Pad68)*%
X163600000Y-121900000D02*
X163600000Y-121400000D01*
X164200000Y-120800000D02*
X164200000Y-119700000D01*
X163600000Y-121400000D02*
X164200000Y-120800000D01*
%TO.N,Net-(CN1-1-Pad2)*%
X143500000Y-118468420D02*
X143500000Y-117400000D01*
X145250000Y-120218420D02*
X143500000Y-118468420D01*
X145250000Y-121750000D02*
X145250000Y-120218420D01*
%TO.N,Net-(CN1-1-Pad4)*%
X146000000Y-121750000D02*
X146250000Y-121500000D01*
X146250000Y-120650000D02*
X143800000Y-118200000D01*
X146250000Y-121500000D02*
X146250000Y-120650000D01*
X143800000Y-118200000D02*
X143800000Y-117400000D01*
%TO.N,Net-(CN1-1-Pad6)*%
X147750000Y-120250000D02*
X146350000Y-120250000D01*
X146350000Y-120250000D02*
X144100000Y-118000000D01*
X144100000Y-118000000D02*
X144100000Y-117400000D01*
X148250000Y-120750000D02*
X147750000Y-120250000D01*
X148250000Y-121500000D02*
X148250000Y-120750000D01*
X148000000Y-121750000D02*
X148250000Y-121500000D01*
%TO.N,Net-(CN1-1-Pad8)*%
X145274000Y-117946370D02*
X145274000Y-117476000D01*
X148000000Y-122500000D02*
X148504000Y-121996000D01*
X147323630Y-119996000D02*
X145274000Y-117946370D01*
X148504000Y-120644790D02*
X147855210Y-119996000D01*
X147855210Y-119996000D02*
X147323630Y-119996000D01*
X148504000Y-121996000D02*
X148504000Y-120644790D01*
%TO.N,Net-(CN1-1-Pad10)*%
X147428840Y-119742000D02*
X145528000Y-117841160D01*
X145528000Y-117841160D02*
X145528000Y-117750000D01*
X147960420Y-119742000D02*
X147428840Y-119742000D01*
X148758000Y-122492000D02*
X148758000Y-120539580D01*
X148000000Y-123250000D02*
X148758000Y-122492000D01*
X148758000Y-120539580D02*
X147960420Y-119742000D01*
%TO.N,Net-(CN1-20-Pad58)*%
X161250000Y-119609210D02*
X161250000Y-119250000D01*
X160500000Y-121250000D02*
X160500000Y-120359210D01*
X160804605Y-120054605D02*
X161250000Y-119609210D01*
X160500000Y-120359210D02*
X160804605Y-120054605D01*
X160500000Y-123500000D02*
X160500000Y-121250000D01*
%TO.N,Net-(CN1-20-Pad60)*%
X160500191Y-124250000D02*
X160550000Y-124250000D01*
X161000000Y-121600000D02*
X161700000Y-120900000D01*
X161700000Y-120900000D02*
X161700000Y-119300000D01*
X161000000Y-123800000D02*
X161000000Y-121600000D01*
X160550000Y-124250000D02*
X161000000Y-123800000D01*
%TO.N,Net-(CN1-20-Pad62)*%
X161300000Y-124450064D02*
X161300000Y-122000000D01*
X162200000Y-121300000D02*
X162700000Y-120800000D01*
X161000064Y-124750000D02*
X161300000Y-124450064D01*
X162700000Y-120800000D02*
X162700000Y-119700000D01*
X162000000Y-121300000D02*
X162200000Y-121300000D01*
X161300000Y-122000000D02*
X162000000Y-121300000D01*
%TO.N,Net-(CN1-20-Pad64)*%
X162200000Y-120600000D02*
X162200000Y-119550000D01*
%TO.N,Net-(CN1-1-Pad70)*%
X164250000Y-121500000D02*
X164500000Y-121250000D01*
X164500000Y-121250000D02*
X164500000Y-119650000D01*
%TO.N,Net-(CN1-1-Pad72)*%
X164900000Y-121850000D02*
X164900000Y-121000000D01*
X164750000Y-122000000D02*
X164900000Y-121850000D01*
X164900000Y-121000000D02*
X164900000Y-119700000D01*
%TO.N,Net-(CN1-1-Pad74)*%
X165500000Y-122250000D02*
X165500000Y-119700000D01*
%TO.N,IO4*%
X158250000Y-124000000D02*
X158508000Y-123742000D01*
X158508000Y-120906790D02*
X157750000Y-120148790D01*
X159417605Y-101863975D02*
X159692000Y-101589580D01*
X157800000Y-104281580D02*
X159417605Y-102663975D01*
X159692000Y-97708000D02*
X161700000Y-95700000D01*
X159417605Y-102663975D02*
X159417605Y-101863975D01*
X158508000Y-123742000D02*
X158508000Y-120906790D01*
X157332500Y-116867500D02*
X157800000Y-116400000D01*
X161700000Y-92500000D02*
X161100000Y-91900000D01*
X161100000Y-91900000D02*
X160800000Y-91900000D01*
X159692000Y-101589580D02*
X159692000Y-97708000D01*
X157332500Y-118932500D02*
X157332500Y-116867500D01*
X161700000Y-95700000D02*
X161700000Y-92500000D01*
X157800000Y-116400000D02*
X157800000Y-104281580D01*
X157750000Y-119350000D02*
X157332500Y-118932500D01*
X157750000Y-120148790D02*
X157750000Y-119350000D01*
%TO.N,IO5*%
X156200000Y-119200000D02*
X156200000Y-117400000D01*
X156200000Y-116800000D02*
X155700000Y-116300000D01*
X158000000Y-123250000D02*
X158254000Y-122996000D01*
X156750000Y-119750000D02*
X156200000Y-119200000D01*
X155700000Y-116300000D02*
X152516000Y-113116000D01*
X156200000Y-117400000D02*
X156200000Y-116800000D01*
X152516000Y-112500000D02*
X152516000Y-99316000D01*
X158254000Y-122996000D02*
X158254000Y-121035580D01*
X157460420Y-120242000D02*
X157242000Y-120242000D01*
X152516000Y-99316000D02*
X149600000Y-96400000D01*
X157242000Y-120242000D02*
X156750000Y-119750000D01*
X158254000Y-121035580D02*
X157460420Y-120242000D01*
X152516000Y-113116000D02*
X152516000Y-112500000D01*
%TO.N,IO1*%
X156300000Y-115900000D02*
X156300000Y-104703950D01*
X158655605Y-95144395D02*
X161100000Y-92700000D01*
X156300000Y-104703950D02*
X158655605Y-102348345D01*
X158655605Y-102348345D02*
X158655605Y-95144395D01*
%TO.N,IO6*%
X152262000Y-113862000D02*
X152262000Y-113200000D01*
X158000000Y-122250000D02*
X158000000Y-121500000D01*
X155250000Y-117750000D02*
X155250000Y-116850000D01*
X152262000Y-113200000D02*
X152262000Y-100462000D01*
X154400000Y-116000000D02*
X152262000Y-113862000D01*
X157355210Y-120496000D02*
X157250000Y-120496000D01*
X155996000Y-120496000D02*
X155750000Y-120250000D01*
X157750000Y-122500000D02*
X158000000Y-122250000D01*
X152262000Y-100462000D02*
X149600000Y-97800000D01*
X157250000Y-120496000D02*
X155996000Y-120496000D01*
X158000000Y-121500000D02*
X158000000Y-121140790D01*
X155750000Y-118250000D02*
X155250000Y-117750000D01*
X158000000Y-121140790D02*
X157355210Y-120496000D01*
X155750000Y-120250000D02*
X155750000Y-118250000D01*
X155250000Y-116850000D02*
X154400000Y-116000000D01*
%TO.N,IO2*%
X158909605Y-102453555D02*
X158909605Y-101653555D01*
X159184000Y-101379160D02*
X159184000Y-95816000D01*
X156750000Y-104613160D02*
X158909605Y-102453555D01*
X159184000Y-95816000D02*
X161100000Y-93900000D01*
X156750000Y-117250000D02*
X156750000Y-104613160D01*
X158909605Y-101653555D02*
X159184000Y-101379160D01*
%TO.N,IO7*%
X154250000Y-116850000D02*
X152008000Y-114608000D01*
X157250000Y-120750000D02*
X155000000Y-120750000D01*
X154750000Y-120500000D02*
X154750000Y-118250000D01*
X152008000Y-114608000D02*
X152008000Y-101408000D01*
X157500000Y-121750000D02*
X157500000Y-121000000D01*
X154250000Y-117750000D02*
X154250000Y-116850000D01*
X154750000Y-118250000D02*
X154250000Y-117750000D01*
X157500000Y-121000000D02*
X157250000Y-120750000D01*
X152008000Y-101408000D02*
X149600000Y-99000000D01*
X155000000Y-120750000D02*
X154750000Y-120500000D01*
%TO.N,TXD0*%
X157250000Y-116000000D02*
X157300000Y-115950000D01*
X159438000Y-96762000D02*
X161100000Y-95100000D01*
X159438000Y-101484370D02*
X159438000Y-96762000D01*
X157300000Y-104422370D02*
X159163605Y-102558765D01*
X157300000Y-115950000D02*
X157300000Y-104422370D01*
X159163605Y-102558765D02*
X159163605Y-101758765D01*
X159163605Y-101758765D02*
X159438000Y-101484370D01*
%TO.N,IO15*%
X153250000Y-116996000D02*
X151754000Y-115500000D01*
X153750000Y-120150000D02*
X153750000Y-118250000D01*
X154604000Y-121004000D02*
X153750000Y-120150000D01*
X157000000Y-121250000D02*
X156754000Y-121004000D01*
X153250000Y-117750000D02*
X153250000Y-116996000D01*
X151754000Y-102454000D02*
X149600000Y-100300000D01*
X151754000Y-115500000D02*
X151754000Y-102454000D01*
X156754000Y-121004000D02*
X154604000Y-121004000D01*
X153750000Y-118250000D02*
X153250000Y-117750000D01*
%TO.N,RXD0*%
X159946000Y-101694790D02*
X159946000Y-98254000D01*
X158054000Y-116946000D02*
X158054000Y-104386790D01*
X158054000Y-104386790D02*
X159671605Y-102769185D01*
X159946000Y-98254000D02*
X161800000Y-96400000D01*
X159671605Y-102769185D02*
X159671605Y-101969185D01*
X157750000Y-117250000D02*
X158054000Y-116946000D01*
X159671605Y-101969185D02*
X159946000Y-101694790D01*
%TO.N,IO16*%
X156500000Y-123500000D02*
X156750000Y-123250000D01*
X156008000Y-121258000D02*
X154258000Y-121258000D01*
X152250000Y-118000000D02*
X152250000Y-116450000D01*
X151500000Y-103400000D02*
X149600000Y-101500000D01*
X152250000Y-116450000D02*
X151500000Y-115700000D01*
X152750000Y-118500000D02*
X152250000Y-118000000D01*
X152750000Y-119750000D02*
X152750000Y-118500000D01*
X151500000Y-115700000D02*
X151500000Y-103400000D01*
X156750000Y-122000000D02*
X156008000Y-121258000D01*
X154258000Y-121258000D02*
X152750000Y-119750000D01*
X156750000Y-123250000D02*
X156750000Y-122000000D01*
%TO.N,IO42*%
X158600000Y-116300000D02*
X158600000Y-104200000D01*
X159925605Y-102874395D02*
X159925605Y-102074395D01*
X160200000Y-101800000D02*
X160200000Y-99500000D01*
X160200000Y-99500000D02*
X161900000Y-97800000D01*
X158600000Y-104200000D02*
X159925605Y-102874395D01*
X159925605Y-102074395D02*
X160200000Y-101800000D01*
%TO.N,IO17*%
X156000000Y-123800000D02*
X156000000Y-123400000D01*
X150528000Y-116128000D02*
X150528000Y-111472000D01*
X151008000Y-109808000D02*
X151008000Y-104208000D01*
X156496000Y-122105210D02*
X155902790Y-121512000D01*
X155902790Y-121512000D02*
X154088000Y-121512000D01*
X151200000Y-110000000D02*
X151008000Y-109808000D01*
X156000000Y-123400000D02*
X156496000Y-122904000D01*
X151200000Y-116800000D02*
X150528000Y-116128000D01*
X150528000Y-111472000D02*
X151200000Y-110800000D01*
X151200000Y-118624000D02*
X151200000Y-116800000D01*
X155000000Y-124800000D02*
X156000000Y-123800000D01*
X151008000Y-104208000D02*
X149600000Y-102800000D01*
X156496000Y-122904000D02*
X156496000Y-122105210D01*
X154088000Y-121512000D02*
X151200000Y-118624000D01*
X151200000Y-110800000D02*
X151200000Y-110000000D01*
%TO.N,IO41*%
X160500000Y-100000000D02*
X161600000Y-98900000D01*
X159100000Y-104100000D02*
X160179605Y-103020395D01*
X158750000Y-117000000D02*
X159100000Y-116650000D01*
X160179605Y-102179605D02*
X160500000Y-101859210D01*
X159100000Y-116650000D02*
X159100000Y-104100000D01*
X160179605Y-103020395D02*
X160179605Y-102179605D01*
X161600000Y-98900000D02*
X161900000Y-98900000D01*
X160500000Y-101859210D02*
X160500000Y-100000000D01*
%TO.N,IO18*%
X156000000Y-122400000D02*
X155400000Y-121800000D01*
X150754000Y-108305210D02*
X150754000Y-107900000D01*
X150274000Y-108785210D02*
X150429605Y-108629605D01*
X150274000Y-116000000D02*
X150274000Y-108785210D01*
X150274000Y-118424000D02*
X150274000Y-117674000D01*
X150754000Y-107900000D02*
X150754000Y-105254000D01*
X151788815Y-119938815D02*
X150274000Y-118424000D01*
X150429605Y-108629605D02*
X150754000Y-108305210D01*
X150274000Y-117674000D02*
X150274000Y-116000000D01*
X150754000Y-105254000D02*
X149600000Y-104100000D01*
X151788815Y-120870395D02*
X151788815Y-119938815D01*
X155400000Y-121800000D02*
X152718420Y-121800000D01*
X152718420Y-121800000D02*
X151788815Y-120870395D01*
%TO.N,IO40*%
X160800000Y-100800000D02*
X161400000Y-100200000D01*
X161400000Y-100200000D02*
X161900000Y-100200000D01*
X160800000Y-102800000D02*
X160800000Y-100800000D01*
X159800000Y-103800000D02*
X160800000Y-102800000D01*
X159800000Y-116200000D02*
X159800000Y-103800000D01*
%TO.N,IO8*%
X150020000Y-108680000D02*
X150300000Y-108400000D01*
X150500000Y-108200000D02*
X150500000Y-107500000D01*
X150300000Y-108400000D02*
X150500000Y-108200000D01*
X150020000Y-118864740D02*
X150020000Y-117820000D01*
X155200000Y-122400000D02*
X152959210Y-122400000D01*
X150020000Y-117568790D02*
X150020000Y-116800000D01*
X150790000Y-120230790D02*
X150790000Y-119634740D01*
X150020000Y-110900000D02*
X150020000Y-108680000D01*
X150020000Y-117820000D02*
X150020000Y-117568790D01*
X150020000Y-116800000D02*
X150020000Y-111400000D01*
X150020000Y-111400000D02*
X150020000Y-110920000D01*
X150500000Y-107500000D02*
X150500000Y-106200000D01*
X152959210Y-122400000D02*
X150790000Y-120230790D01*
X150790000Y-119634740D02*
X150020000Y-118864740D01*
X150500000Y-106200000D02*
X149600000Y-105300000D01*
X150020000Y-110920000D02*
X150020000Y-110900000D01*
%TO.N,IO39*%
X160300000Y-116450000D02*
X160300000Y-103700000D01*
X161900000Y-102100000D02*
X161900000Y-101500000D01*
X159750000Y-117000000D02*
X160300000Y-116450000D01*
X160300000Y-103700000D02*
X161900000Y-102100000D01*
%TO.N,IO19*%
X155173977Y-123573977D02*
X153373977Y-123573977D01*
X150282000Y-119845160D02*
X149512000Y-119075160D01*
X153373977Y-123573977D02*
X150282000Y-120482000D01*
X149512000Y-106788000D02*
X149600000Y-106700000D01*
X149600000Y-106700000D02*
X149600000Y-106600000D01*
X150282000Y-120482000D02*
X150282000Y-119845160D01*
X149512000Y-117750000D02*
X149512000Y-106788000D01*
X149512000Y-119075160D02*
X149512000Y-117750000D01*
%TO.N,IO38*%
X160800000Y-104000000D02*
X161900000Y-102900000D01*
X160800000Y-116200000D02*
X160800000Y-104000000D01*
%TO.N,IO20*%
X153187500Y-122987500D02*
X150536000Y-120336000D01*
X149766000Y-118969950D02*
X149766000Y-118000000D01*
X149766000Y-118000000D02*
X149766000Y-108034000D01*
X150536000Y-119739950D02*
X149766000Y-118969950D01*
X149766000Y-108034000D02*
X150000000Y-107800000D01*
X150536000Y-120336000D02*
X150536000Y-119739950D01*
X154762500Y-122987500D02*
X153187500Y-122987500D01*
%TO.N,IO37*%
X161300000Y-115000000D02*
X161300000Y-104700000D01*
X161300000Y-116450000D02*
X161300000Y-115000000D01*
X161300000Y-104700000D02*
X161900000Y-104100000D01*
X160750000Y-117000000D02*
X161300000Y-116450000D01*
%TO.N,IO36*%
X161800000Y-116100000D02*
X161800000Y-105700000D01*
X161800000Y-105700000D02*
X162100000Y-105400000D01*
X162100000Y-105400000D02*
X162200000Y-105400000D01*
%TO.N,IO35*%
X162300000Y-115200000D02*
X162300000Y-107000000D01*
X162300000Y-107000000D02*
X162600000Y-106700000D01*
X161750000Y-117000000D02*
X162300000Y-116450000D01*
X162300000Y-116450000D02*
X162300000Y-115200000D01*
%TO.N,BOOT*%
X162800000Y-108200000D02*
X163000000Y-108000000D01*
X163000000Y-108000000D02*
X163100000Y-107900000D01*
X162800000Y-116100000D02*
X162800000Y-108200000D01*
%TO.N,Net-(CN1-Pad20)*%
X147534050Y-119488000D02*
X146750000Y-118703950D01*
X149012000Y-123762000D02*
X149012000Y-120434370D01*
X148065630Y-119488000D02*
X147534050Y-119488000D01*
X146750000Y-118703950D02*
X146750000Y-116750000D01*
X149012000Y-120434370D02*
X148065630Y-119488000D01*
X149250000Y-124000000D02*
X149012000Y-123762000D01*
%TO.N,Net-(CN1-20-Pad22)*%
X149266000Y-120266000D02*
X148234000Y-119234000D01*
X147960420Y-119234000D02*
X147750000Y-119023580D01*
X147750000Y-119023580D02*
X147750000Y-116500000D01*
X149266000Y-122766000D02*
X149266000Y-120266000D01*
X149500000Y-123000000D02*
X149266000Y-122766000D01*
X148234000Y-119234000D02*
X147960420Y-119234000D01*
%TO.N,Net-(CN1-20-Pad24)*%
X149520000Y-122020000D02*
X149520000Y-120160790D01*
X149520000Y-120160790D02*
X148750000Y-119390790D01*
X149750000Y-122250000D02*
X149520000Y-122020000D01*
X148750000Y-119390790D02*
X148750000Y-117000000D01*
%TO.N,Net-(CN1-20-Pad26)*%
X149004000Y-119285580D02*
X149004000Y-117250000D01*
X150000000Y-121500000D02*
X149774000Y-121274000D01*
X149774000Y-120055580D02*
X149004000Y-119285580D01*
X149774000Y-121274000D02*
X149774000Y-120055580D01*
%TO.N,Net-(CN1-20-Pad28)*%
X150028000Y-119950370D02*
X149258000Y-119180370D01*
X150800000Y-121600000D02*
X150028000Y-120828000D01*
X149258000Y-119180370D02*
X149258000Y-117500000D01*
X150028000Y-120828000D02*
X150028000Y-119950370D01*
%TO.N,Net-(CN1-20-Pad52)*%
X158500000Y-124750000D02*
X158762000Y-124488000D01*
X158762000Y-122750000D02*
X158762000Y-119762000D01*
X158762000Y-119762000D02*
X158750000Y-119750000D01*
X158762000Y-124488000D02*
X158762000Y-122750000D01*
%TO.N,Net-(CN1-20-Pad54)*%
X159500000Y-122500000D02*
X159500000Y-120250000D01*
X159750000Y-120000000D02*
X159750000Y-119750000D01*
X159500000Y-120250000D02*
X159750000Y-120000000D01*
%TO.N,Net-(CN1-20-Pad56)*%
X160000000Y-123000000D02*
X160000000Y-120500000D01*
X160000000Y-120500000D02*
X160750000Y-119750000D01*
%TD*%
%TA.AperFunction,Conductor*%
%TO.N,GND*%
G36*
X145123410Y-90019685D02*
G01*
X145169165Y-90072489D01*
X145179109Y-90141647D01*
X145150084Y-90205203D01*
X145138599Y-90216815D01*
X145123207Y-90230450D01*
X145123205Y-90230453D01*
X145031402Y-90363453D01*
X145031401Y-90363454D01*
X144974091Y-90514565D01*
X144954612Y-90674999D01*
X144954612Y-90675000D01*
X144974091Y-90835434D01*
X145031400Y-90986545D01*
X145031401Y-90986545D01*
X145123207Y-91119549D01*
X145244176Y-91226719D01*
X145387277Y-91301824D01*
X145544194Y-91340500D01*
X145705806Y-91340500D01*
X145862723Y-91301824D01*
X146005824Y-91226719D01*
X146126793Y-91119549D01*
X146218599Y-90986545D01*
X146275908Y-90835434D01*
X146295388Y-90675000D01*
X146275908Y-90514566D01*
X146218599Y-90363455D01*
X146126793Y-90230451D01*
X146111400Y-90216814D01*
X146074275Y-90157625D01*
X146075043Y-90087759D01*
X146113461Y-90029400D01*
X146177332Y-90001076D01*
X146193629Y-90000000D01*
X167175500Y-90000000D01*
X167242539Y-90019685D01*
X167288294Y-90072489D01*
X167299500Y-90124000D01*
X167299500Y-125775500D01*
X167279815Y-125842539D01*
X167227011Y-125888294D01*
X167175500Y-125899500D01*
X165356005Y-125899500D01*
X165220677Y-125926418D01*
X165220667Y-125926421D01*
X165093195Y-125979221D01*
X165093182Y-125979228D01*
X164978458Y-126055885D01*
X164978454Y-126055888D01*
X164880888Y-126153454D01*
X164880885Y-126153458D01*
X164804228Y-126268182D01*
X164804221Y-126268195D01*
X164751421Y-126395667D01*
X164751418Y-126395677D01*
X164724500Y-126531004D01*
X164724500Y-129775500D01*
X164704815Y-129842539D01*
X164652011Y-129888294D01*
X164600500Y-129899500D01*
X149799500Y-129899500D01*
X149732461Y-129879815D01*
X149686706Y-129827011D01*
X149675500Y-129775500D01*
X149675500Y-127115864D01*
X149640514Y-126951269D01*
X149640512Y-126951264D01*
X149616832Y-126898078D01*
X149572072Y-126797546D01*
X149473164Y-126661411D01*
X149348114Y-126548815D01*
X149202386Y-126464679D01*
X149202380Y-126464676D01*
X149042353Y-126412681D01*
X149042350Y-126412680D01*
X148875000Y-126395091D01*
X148707650Y-126412680D01*
X148707647Y-126412680D01*
X148707646Y-126412681D01*
X148547619Y-126464676D01*
X148547613Y-126464679D01*
X148401887Y-126548814D01*
X148276837Y-126661409D01*
X148177927Y-126797546D01*
X148109487Y-126951264D01*
X148109485Y-126951269D01*
X148074500Y-127115864D01*
X148074500Y-129775500D01*
X148054815Y-129842539D01*
X148002011Y-129888294D01*
X147950500Y-129899500D01*
X145399500Y-129899500D01*
X145332461Y-129879815D01*
X145286706Y-129827011D01*
X145275500Y-129775500D01*
X145275500Y-126531004D01*
X145248581Y-126395677D01*
X145248580Y-126395676D01*
X145248580Y-126395672D01*
X145209159Y-126300500D01*
X145195778Y-126268195D01*
X145195771Y-126268182D01*
X145119114Y-126153458D01*
X145119111Y-126153454D01*
X145021545Y-126055888D01*
X145021541Y-126055885D01*
X144906817Y-125979228D01*
X144906804Y-125979221D01*
X144779332Y-125926421D01*
X144779322Y-125926418D01*
X144643995Y-125899500D01*
X144643993Y-125899500D01*
X144597590Y-125899500D01*
X144022590Y-125899500D01*
X142824500Y-125899500D01*
X142757461Y-125879815D01*
X142711706Y-125827011D01*
X142700500Y-125775500D01*
X142700500Y-123728296D01*
X144141786Y-123728296D01*
X144151848Y-123913886D01*
X144151848Y-123913891D01*
X144201569Y-124092972D01*
X144201573Y-124092980D01*
X144288633Y-124257192D01*
X144372097Y-124355453D01*
X144408959Y-124398850D01*
X144556925Y-124511331D01*
X144556926Y-124511331D01*
X144556927Y-124511332D01*
X144725607Y-124589372D01*
X144725615Y-124589375D01*
X144780684Y-124601496D01*
X144907131Y-124629329D01*
X144907134Y-124629329D01*
X145046391Y-124629329D01*
X145046396Y-124629329D01*
X145184839Y-124614272D01*
X145360975Y-124554925D01*
X145520235Y-124459102D01*
X145655172Y-124331283D01*
X145759477Y-124177444D01*
X145764236Y-124165500D01*
X145828272Y-124004784D01*
X145828273Y-124004780D01*
X145858342Y-123821364D01*
X145848280Y-123635771D01*
X145831433Y-123575092D01*
X145798558Y-123456685D01*
X145798554Y-123456677D01*
X145711494Y-123292465D01*
X145591169Y-123150808D01*
X145580279Y-123142530D01*
X145443203Y-123038327D01*
X145443201Y-123038326D01*
X145443200Y-123038325D01*
X145274520Y-122960285D01*
X145274512Y-122960282D01*
X145092997Y-122920329D01*
X144953732Y-122920329D01*
X144953730Y-122920329D01*
X144815290Y-122935385D01*
X144815287Y-122935386D01*
X144639147Y-122994735D01*
X144479891Y-123090557D01*
X144479890Y-123090558D01*
X144344954Y-123218375D01*
X144240649Y-123372216D01*
X144240648Y-123372218D01*
X144171855Y-123544873D01*
X144154204Y-123652544D01*
X144147318Y-123694553D01*
X144141786Y-123728296D01*
X142700500Y-123728296D01*
X142700500Y-118608459D01*
X142720185Y-118541420D01*
X142772989Y-118495665D01*
X142842147Y-118485721D01*
X142905703Y-118514746D01*
X142943477Y-118573524D01*
X142947438Y-118592270D01*
X142949570Y-118608459D01*
X142950517Y-118615653D01*
X142950517Y-118615654D01*
X143007347Y-118752854D01*
X143060345Y-118821923D01*
X143097749Y-118870669D01*
X143124103Y-118890891D01*
X143130208Y-118896245D01*
X144649681Y-120415718D01*
X144683166Y-120477041D01*
X144686000Y-120503399D01*
X144686000Y-121356933D01*
X144666315Y-121423972D01*
X144664051Y-121427372D01*
X144656401Y-121438454D01*
X144599091Y-121589565D01*
X144579612Y-121749999D01*
X144579612Y-121750000D01*
X144599091Y-121910434D01*
X144627441Y-121985185D01*
X144656401Y-122061545D01*
X144748207Y-122194549D01*
X144869176Y-122301719D01*
X145012277Y-122376824D01*
X145169194Y-122415500D01*
X145330806Y-122415500D01*
X145487723Y-122376824D01*
X145567376Y-122335018D01*
X145635882Y-122321293D01*
X145682621Y-122335017D01*
X145762277Y-122376824D01*
X145919194Y-122415500D01*
X146080806Y-122415500D01*
X146237723Y-122376824D01*
X146380824Y-122301719D01*
X146501793Y-122194549D01*
X146593599Y-122061545D01*
X146649270Y-121914751D01*
X146666827Y-121883252D01*
X146742653Y-121784433D01*
X146763497Y-121734109D01*
X146807336Y-121679709D01*
X146848379Y-121661168D01*
X146987723Y-121626824D01*
X147130824Y-121551719D01*
X147135811Y-121547300D01*
X147199037Y-121517575D01*
X147268301Y-121526752D01*
X147321609Y-121571918D01*
X147342035Y-121638735D01*
X147341139Y-121655055D01*
X147329612Y-121749998D01*
X147329612Y-121750000D01*
X147349091Y-121910434D01*
X147406399Y-122061541D01*
X147409462Y-122067376D01*
X147423185Y-122135885D01*
X147409462Y-122182624D01*
X147406399Y-122188458D01*
X147349091Y-122339565D01*
X147329612Y-122499999D01*
X147329612Y-122500000D01*
X147349091Y-122660434D01*
X147406399Y-122811541D01*
X147409462Y-122817376D01*
X147423185Y-122885885D01*
X147409462Y-122932624D01*
X147406399Y-122938458D01*
X147349091Y-123089565D01*
X147329612Y-123249999D01*
X147329612Y-123250000D01*
X147349091Y-123410434D01*
X147373460Y-123474688D01*
X147406401Y-123561545D01*
X147498207Y-123694549D01*
X147619176Y-123801719D01*
X147762277Y-123876824D01*
X147919194Y-123915500D01*
X148080806Y-123915500D01*
X148237723Y-123876824D01*
X148291120Y-123848798D01*
X148359629Y-123835073D01*
X148424682Y-123860566D01*
X148463307Y-123911142D01*
X148519346Y-124046431D01*
X148519349Y-124046436D01*
X148534844Y-124066630D01*
X148580438Y-124126051D01*
X148598003Y-124157564D01*
X148622620Y-124222473D01*
X148648850Y-124291636D01*
X148656402Y-124311547D01*
X148733811Y-124423693D01*
X148748207Y-124444549D01*
X148869176Y-124551719D01*
X149012277Y-124626824D01*
X149169194Y-124665500D01*
X149330806Y-124665500D01*
X149487723Y-124626824D01*
X149630824Y-124551719D01*
X149751793Y-124444549D01*
X149843599Y-124311545D01*
X149900908Y-124160434D01*
X149920388Y-124000000D01*
X149920257Y-123998925D01*
X149900908Y-123839566D01*
X149885113Y-123797918D01*
X149844494Y-123690816D01*
X149839128Y-123621158D01*
X149872275Y-123559651D01*
X149878210Y-123554034D01*
X149880821Y-123551720D01*
X149880824Y-123551719D01*
X150001793Y-123444549D01*
X150093599Y-123311545D01*
X150150908Y-123160434D01*
X150170388Y-123000000D01*
X150152652Y-122853932D01*
X150164112Y-122785011D01*
X150193522Y-122746172D01*
X150251792Y-122694550D01*
X150271844Y-122665500D01*
X150343599Y-122561545D01*
X150400908Y-122410434D01*
X150410372Y-122332487D01*
X150437993Y-122268310D01*
X150495927Y-122229253D01*
X150563141Y-122227037D01*
X150719194Y-122265500D01*
X150880806Y-122265500D01*
X151037723Y-122226824D01*
X151082510Y-122203317D01*
X151151017Y-122189592D01*
X151216070Y-122215084D01*
X151227816Y-122225433D01*
X152946149Y-123943766D01*
X152951500Y-123949867D01*
X152971727Y-123976227D01*
X153001308Y-123998925D01*
X153001309Y-123998926D01*
X153042369Y-124030431D01*
X153089542Y-124066629D01*
X153089543Y-124066629D01*
X153089544Y-124066630D01*
X153153139Y-124092972D01*
X153226743Y-124123460D01*
X153373976Y-124142845D01*
X153373977Y-124142845D01*
X153406919Y-124138507D01*
X153415020Y-124137977D01*
X154416723Y-124137977D01*
X154483762Y-124157662D01*
X154529517Y-124210466D01*
X154539461Y-124279624D01*
X154510436Y-124343180D01*
X154498953Y-124354790D01*
X154498209Y-124355448D01*
X154498205Y-124355453D01*
X154406402Y-124488453D01*
X154406401Y-124488454D01*
X154349091Y-124639565D01*
X154329612Y-124799999D01*
X154329612Y-124800000D01*
X154349091Y-124960434D01*
X154387439Y-125061547D01*
X154406401Y-125111545D01*
X154498207Y-125244549D01*
X154619176Y-125351719D01*
X154762277Y-125426824D01*
X154919194Y-125465500D01*
X155080806Y-125465500D01*
X155237723Y-125426824D01*
X155380824Y-125351719D01*
X155501793Y-125244549D01*
X155593599Y-125111545D01*
X155649856Y-124963205D01*
X155678113Y-124919502D01*
X156369803Y-124227812D01*
X156375888Y-124222476D01*
X156402250Y-124202250D01*
X156402250Y-124202249D01*
X156402682Y-124201819D01*
X156403134Y-124201571D01*
X156408701Y-124197301D01*
X156409366Y-124198168D01*
X156464005Y-124168334D01*
X156490363Y-124165500D01*
X156580806Y-124165500D01*
X156737723Y-124126824D01*
X156880824Y-124051719D01*
X157001793Y-123944549D01*
X157093599Y-123811545D01*
X157149270Y-123664751D01*
X157166827Y-123633252D01*
X157215328Y-123570042D01*
X157271754Y-123528843D01*
X157341500Y-123524688D01*
X157402421Y-123558901D01*
X157415750Y-123575090D01*
X157498207Y-123694549D01*
X157498209Y-123694551D01*
X157498211Y-123694553D01*
X157556478Y-123746173D01*
X157593605Y-123805362D01*
X157597347Y-123853934D01*
X157579612Y-123999999D01*
X157579612Y-124000000D01*
X157599091Y-124160434D01*
X157648853Y-124291642D01*
X157656401Y-124311545D01*
X157748207Y-124444549D01*
X157748209Y-124444551D01*
X157748211Y-124444553D01*
X157806478Y-124496173D01*
X157843605Y-124555362D01*
X157847347Y-124603934D01*
X157829612Y-124749999D01*
X157829612Y-124750000D01*
X157849091Y-124910434D01*
X157869107Y-124963210D01*
X157906401Y-125061545D01*
X157998207Y-125194549D01*
X158119176Y-125301719D01*
X158262277Y-125376824D01*
X158419194Y-125415500D01*
X158580806Y-125415500D01*
X158737723Y-125376824D01*
X158880824Y-125301719D01*
X159001793Y-125194549D01*
X159093599Y-125061545D01*
X159146540Y-124921950D01*
X159164106Y-124890437D01*
X159164248Y-124890250D01*
X159164250Y-124890250D01*
X159219024Y-124818867D01*
X159254653Y-124772433D01*
X159311483Y-124635234D01*
X159330867Y-124488000D01*
X159326530Y-124455063D01*
X159326000Y-124446963D01*
X159326000Y-123567503D01*
X159345685Y-123500464D01*
X159398489Y-123454709D01*
X159467647Y-123444765D01*
X159531203Y-123473790D01*
X159532105Y-123474580D01*
X159619176Y-123551719D01*
X159762277Y-123626824D01*
X159780792Y-123631387D01*
X159841172Y-123666540D01*
X159867059Y-123707811D01*
X159906401Y-123811545D01*
X159906405Y-123811551D01*
X159909557Y-123817557D01*
X159923280Y-123886066D01*
X159909560Y-123932798D01*
X159906594Y-123938450D01*
X159849282Y-124089565D01*
X159829803Y-124249999D01*
X159829803Y-124250000D01*
X159849282Y-124410434D01*
X159901424Y-124547918D01*
X159906592Y-124561545D01*
X159998398Y-124694549D01*
X160119367Y-124801719D01*
X160215768Y-124852314D01*
X160262468Y-124876824D01*
X160280844Y-124881353D01*
X160341224Y-124916509D01*
X160367111Y-124957778D01*
X160369171Y-124963210D01*
X160406465Y-125061545D01*
X160498271Y-125194549D01*
X160619240Y-125301719D01*
X160762341Y-125376824D01*
X160919258Y-125415500D01*
X161080870Y-125415500D01*
X161237787Y-125376824D01*
X161380888Y-125301719D01*
X161501857Y-125194549D01*
X161593663Y-125061545D01*
X161648518Y-124916903D01*
X161688976Y-124862499D01*
X161702250Y-124852314D01*
X161724949Y-124822732D01*
X161792654Y-124734497D01*
X161849483Y-124597297D01*
X161850018Y-124593238D01*
X161850502Y-124589566D01*
X161855778Y-124549484D01*
X161868868Y-124450064D01*
X161868868Y-124450063D01*
X161864531Y-124417122D01*
X161864000Y-124409020D01*
X161864000Y-122284978D01*
X161883685Y-122217939D01*
X161900319Y-122197297D01*
X162037788Y-122059828D01*
X162203346Y-121894269D01*
X162264667Y-121860786D01*
X162274823Y-121859016D01*
X162347234Y-121849483D01*
X162391036Y-121831338D01*
X162460504Y-121823869D01*
X162512029Y-121848871D01*
X162513004Y-121847459D01*
X162519173Y-121851717D01*
X162519174Y-121851717D01*
X162519176Y-121851719D01*
X162662277Y-121926824D01*
X162819194Y-121965500D01*
X162828545Y-121965500D01*
X162895584Y-121985185D01*
X162941339Y-122037989D01*
X162948943Y-122059828D01*
X162949093Y-122060438D01*
X162977707Y-122135885D01*
X163006401Y-122211545D01*
X163098207Y-122344549D01*
X163219176Y-122451719D01*
X163362277Y-122526824D01*
X163519194Y-122565500D01*
X163680806Y-122565500D01*
X163837723Y-122526824D01*
X163980824Y-122451719D01*
X164045050Y-122394818D01*
X164108281Y-122365099D01*
X164177544Y-122374281D01*
X164229325Y-122417194D01*
X164248207Y-122444549D01*
X164369176Y-122551719D01*
X164387898Y-122561545D01*
X164396474Y-122566046D01*
X164446687Y-122614631D01*
X164462662Y-122682650D01*
X164439327Y-122748508D01*
X164394127Y-122786840D01*
X164389694Y-122789047D01*
X164261461Y-122885885D01*
X164218950Y-122917988D01*
X164074806Y-123076107D01*
X164074804Y-123076108D01*
X164074802Y-123076112D01*
X164074800Y-123076115D01*
X163962172Y-123258015D01*
X163962170Y-123258021D01*
X163948826Y-123292467D01*
X163884879Y-123457532D01*
X163845564Y-123667849D01*
X163845564Y-123881809D01*
X163884879Y-124092126D01*
X163962170Y-124291636D01*
X163962172Y-124291642D01*
X164074800Y-124473542D01*
X164074806Y-124473551D01*
X164218950Y-124631670D01*
X164389694Y-124760610D01*
X164472253Y-124801719D01*
X164581222Y-124855979D01*
X164581228Y-124855982D01*
X164757129Y-124906029D01*
X164787016Y-124914533D01*
X164946689Y-124929329D01*
X164946692Y-124929329D01*
X165053436Y-124929329D01*
X165053439Y-124929329D01*
X165213112Y-124914533D01*
X165301064Y-124889508D01*
X165418899Y-124855982D01*
X165418901Y-124855980D01*
X165418904Y-124855980D01*
X165610434Y-124760610D01*
X165781178Y-124631670D01*
X165925322Y-124473551D01*
X166037957Y-124291639D01*
X166115249Y-124092126D01*
X166154564Y-123881809D01*
X166154564Y-123667849D01*
X166115249Y-123457532D01*
X166037957Y-123258019D01*
X166032991Y-123249999D01*
X165925327Y-123076115D01*
X165925325Y-123076112D01*
X165925322Y-123076107D01*
X165849935Y-122993411D01*
X165819320Y-122930608D01*
X165827518Y-122861221D01*
X165871928Y-122807281D01*
X165878279Y-122803475D01*
X165880819Y-122801722D01*
X165880820Y-122801721D01*
X165880824Y-122801719D01*
X166001793Y-122694549D01*
X166093599Y-122561545D01*
X166150908Y-122410434D01*
X166170388Y-122250000D01*
X166166149Y-122215084D01*
X166150908Y-122089565D01*
X166111321Y-121985185D01*
X166093599Y-121938455D01*
X166085948Y-121927371D01*
X166064067Y-121861017D01*
X166064000Y-121856933D01*
X166064000Y-119663038D01*
X166063999Y-119663024D01*
X166063265Y-119657451D01*
X166049483Y-119552766D01*
X165992653Y-119415567D01*
X165992652Y-119415566D01*
X165992652Y-119415565D01*
X165902252Y-119297751D01*
X165784435Y-119207347D01*
X165682416Y-119165090D01*
X165647234Y-119150517D01*
X165526889Y-119134673D01*
X165500001Y-119131133D01*
X165499999Y-119131133D01*
X165352766Y-119150517D01*
X165352762Y-119150518D01*
X165247452Y-119194139D01*
X165177983Y-119201608D01*
X165152548Y-119194139D01*
X165047237Y-119150518D01*
X165047235Y-119150517D01*
X165047234Y-119150517D01*
X164926889Y-119134673D01*
X164900001Y-119131133D01*
X164899999Y-119131133D01*
X164797224Y-119144663D01*
X164733587Y-119136285D01*
X164647237Y-119100518D01*
X164647235Y-119100517D01*
X164647234Y-119100517D01*
X164525575Y-119084500D01*
X164500001Y-119081133D01*
X164499999Y-119081133D01*
X164352766Y-119100517D01*
X164290529Y-119126296D01*
X164226894Y-119134673D01*
X164200003Y-119131133D01*
X164199999Y-119131133D01*
X164173111Y-119134673D01*
X164052766Y-119150517D01*
X164052765Y-119150517D01*
X164044709Y-119151578D01*
X164044346Y-119148821D01*
X163988032Y-119147472D01*
X163968185Y-119139164D01*
X163937723Y-119123176D01*
X163937722Y-119123175D01*
X163937721Y-119123175D01*
X163780806Y-119084500D01*
X163775571Y-119084500D01*
X163708532Y-119064815D01*
X163662777Y-119012011D01*
X163652632Y-118976686D01*
X163651896Y-118971097D01*
X163649483Y-118952766D01*
X163592653Y-118815567D01*
X163592652Y-118815566D01*
X163592652Y-118815565D01*
X163502252Y-118697751D01*
X163384435Y-118607347D01*
X163302778Y-118573524D01*
X163247234Y-118550517D01*
X163173616Y-118540825D01*
X163100001Y-118531133D01*
X163099999Y-118531133D01*
X162952766Y-118550517D01*
X162952765Y-118550517D01*
X162815565Y-118607347D01*
X162697750Y-118697750D01*
X162607347Y-118815565D01*
X162551317Y-118950834D01*
X162507476Y-119005237D01*
X162441181Y-119027302D01*
X162389305Y-119017943D01*
X162358629Y-119005237D01*
X162347234Y-119000517D01*
X162327702Y-118997945D01*
X162213359Y-118982891D01*
X162149462Y-118954624D01*
X162131169Y-118935439D01*
X162131052Y-118935287D01*
X162102250Y-118897750D01*
X162102248Y-118897749D01*
X162102248Y-118897748D01*
X161984435Y-118807347D01*
X161915833Y-118778932D01*
X161847234Y-118750517D01*
X161718868Y-118733617D01*
X161700001Y-118731133D01*
X161699998Y-118731133D01*
X161559284Y-118749658D01*
X161495647Y-118741280D01*
X161397237Y-118700518D01*
X161397235Y-118700517D01*
X161397234Y-118700517D01*
X161323616Y-118690825D01*
X161250001Y-118681133D01*
X161249999Y-118681133D01*
X161102766Y-118700517D01*
X161102765Y-118700517D01*
X160965565Y-118757347D01*
X160847749Y-118847750D01*
X160793986Y-118917816D01*
X160737558Y-118959018D01*
X160667812Y-118963173D01*
X160638305Y-118950166D01*
X160637466Y-118951767D01*
X160487722Y-118873175D01*
X160330806Y-118834500D01*
X160169194Y-118834500D01*
X160012277Y-118873175D01*
X159869177Y-118948280D01*
X159748207Y-119055450D01*
X159748203Y-119055455D01*
X159707023Y-119115114D01*
X159652740Y-119159104D01*
X159583291Y-119166762D01*
X159547349Y-119154470D01*
X159487722Y-119123175D01*
X159330806Y-119084500D01*
X159169194Y-119084500D01*
X159012274Y-119123176D01*
X159012270Y-119123178D01*
X158906215Y-119178839D01*
X158837707Y-119192563D01*
X158832407Y-119191981D01*
X158750003Y-119181133D01*
X158749997Y-119181133D01*
X158667591Y-119191981D01*
X158598556Y-119181215D01*
X158593782Y-119178839D01*
X158487722Y-119123175D01*
X158330806Y-119084500D01*
X158318331Y-119084500D01*
X158251292Y-119064815D01*
X158219955Y-119035986D01*
X158206110Y-119017943D01*
X158152250Y-118947750D01*
X158133176Y-118933114D01*
X158125890Y-118927523D01*
X158119786Y-118922170D01*
X157932819Y-118735202D01*
X157899334Y-118673879D01*
X157896500Y-118647521D01*
X157896500Y-117996456D01*
X157916185Y-117929417D01*
X157968989Y-117883662D01*
X157980739Y-117879570D01*
X157980707Y-117879485D01*
X157987719Y-117876825D01*
X157987719Y-117876824D01*
X157987723Y-117876824D01*
X158130824Y-117801719D01*
X158251793Y-117694549D01*
X158292976Y-117634883D01*
X158347255Y-117590896D01*
X158416704Y-117583236D01*
X158452649Y-117595529D01*
X158512277Y-117626824D01*
X158669194Y-117665500D01*
X158830806Y-117665500D01*
X158987723Y-117626824D01*
X159130824Y-117551719D01*
X159167773Y-117518984D01*
X159231005Y-117489264D01*
X159300269Y-117498446D01*
X159332225Y-117518983D01*
X159369176Y-117551719D01*
X159512277Y-117626824D01*
X159669194Y-117665500D01*
X159830806Y-117665500D01*
X159987723Y-117626824D01*
X160130824Y-117551719D01*
X160167773Y-117518984D01*
X160231005Y-117489264D01*
X160300269Y-117498446D01*
X160332225Y-117518983D01*
X160369176Y-117551719D01*
X160512277Y-117626824D01*
X160669194Y-117665500D01*
X160830806Y-117665500D01*
X160987723Y-117626824D01*
X161130824Y-117551719D01*
X161167773Y-117518984D01*
X161231005Y-117489264D01*
X161300269Y-117498446D01*
X161332225Y-117518983D01*
X161369176Y-117551719D01*
X161512277Y-117626824D01*
X161669194Y-117665500D01*
X161830806Y-117665500D01*
X161987723Y-117626824D01*
X162130824Y-117551719D01*
X162167773Y-117518984D01*
X162231005Y-117489264D01*
X162300269Y-117498446D01*
X162332225Y-117518983D01*
X162369176Y-117551719D01*
X162512277Y-117626824D01*
X162669194Y-117665500D01*
X162830806Y-117665500D01*
X162987723Y-117626824D01*
X163130824Y-117551719D01*
X163167773Y-117518984D01*
X163231005Y-117489264D01*
X163300269Y-117498446D01*
X163332225Y-117518983D01*
X163369176Y-117551719D01*
X163512277Y-117626824D01*
X163669194Y-117665500D01*
X163830806Y-117665500D01*
X163987723Y-117626824D01*
X164130824Y-117551719D01*
X164251793Y-117444549D01*
X164343599Y-117311545D01*
X164400908Y-117160434D01*
X164420388Y-117000000D01*
X164400908Y-116839566D01*
X164387969Y-116805450D01*
X164379173Y-116782256D01*
X164343599Y-116688455D01*
X164251793Y-116555451D01*
X164130824Y-116448281D01*
X164093323Y-116428599D01*
X163987722Y-116373175D01*
X163830806Y-116334500D01*
X163669194Y-116334500D01*
X163669190Y-116334500D01*
X163609325Y-116349255D01*
X163539523Y-116346185D01*
X163482462Y-116305865D01*
X163456257Y-116241095D01*
X163456555Y-116213918D01*
X163470388Y-116100000D01*
X163450908Y-115939566D01*
X163440281Y-115911546D01*
X163429173Y-115882256D01*
X163393599Y-115788455D01*
X163385948Y-115777371D01*
X163364067Y-115711017D01*
X163364000Y-115706933D01*
X163364000Y-115600000D01*
X164529612Y-115600000D01*
X164549091Y-115760434D01*
X164606400Y-115911544D01*
X164606401Y-115911545D01*
X164698207Y-116044549D01*
X164819176Y-116151719D01*
X164962277Y-116226824D01*
X165119194Y-116265500D01*
X165280806Y-116265500D01*
X165437723Y-116226824D01*
X165580824Y-116151719D01*
X165701793Y-116044549D01*
X165793599Y-115911545D01*
X165850908Y-115760434D01*
X165870388Y-115600000D01*
X165850908Y-115439566D01*
X165793599Y-115288455D01*
X165701793Y-115155451D01*
X165580824Y-115048281D01*
X165567276Y-115041171D01*
X165437722Y-114973175D01*
X165280806Y-114934500D01*
X165119194Y-114934500D01*
X164962277Y-114973175D01*
X164819177Y-115048280D01*
X164698207Y-115155450D01*
X164698205Y-115155453D01*
X164606402Y-115288453D01*
X164606401Y-115288454D01*
X164549091Y-115439565D01*
X164529612Y-115599999D01*
X164529612Y-115600000D01*
X163364000Y-115600000D01*
X163364000Y-108587993D01*
X163383685Y-108520954D01*
X163430375Y-108478196D01*
X163480824Y-108451719D01*
X163601793Y-108344549D01*
X163693599Y-108211545D01*
X163750908Y-108060434D01*
X163770388Y-107900000D01*
X163750908Y-107739566D01*
X163693599Y-107588455D01*
X163601793Y-107455451D01*
X163480824Y-107348281D01*
X163467276Y-107341171D01*
X163337722Y-107273175D01*
X163265321Y-107255330D01*
X163234643Y-107247769D01*
X163174264Y-107212614D01*
X163142475Y-107150395D01*
X163149371Y-107080866D01*
X163162267Y-107056936D01*
X163193599Y-107011545D01*
X163250908Y-106860434D01*
X163270388Y-106700000D01*
X163250908Y-106539566D01*
X163193599Y-106388455D01*
X163101793Y-106255451D01*
X162980824Y-106148281D01*
X162837723Y-106073176D01*
X162837722Y-106073175D01*
X162837721Y-106073175D01*
X162758880Y-106053743D01*
X162698499Y-106018587D01*
X162666711Y-105956367D01*
X162673607Y-105886839D01*
X162698487Y-105851641D01*
X162696819Y-105850163D01*
X162701785Y-105844555D01*
X162701793Y-105844549D01*
X162793599Y-105711545D01*
X162850908Y-105560434D01*
X162870388Y-105400000D01*
X162850908Y-105239566D01*
X162793599Y-105088455D01*
X162701793Y-104955451D01*
X162580824Y-104848281D01*
X162437723Y-104773176D01*
X162437111Y-104773025D01*
X162436711Y-104772792D01*
X162430707Y-104770515D01*
X162431085Y-104769516D01*
X162376733Y-104737869D01*
X162344945Y-104675650D01*
X162351841Y-104606121D01*
X162384562Y-104559813D01*
X162401793Y-104544549D01*
X162493599Y-104411545D01*
X162550908Y-104260434D01*
X162570388Y-104100000D01*
X162550908Y-103939566D01*
X162493599Y-103788455D01*
X162401793Y-103655451D01*
X162331091Y-103592814D01*
X162293965Y-103533624D01*
X162294733Y-103463759D01*
X162331091Y-103407185D01*
X162401793Y-103344549D01*
X162493599Y-103211545D01*
X162550908Y-103060434D01*
X162570388Y-102900000D01*
X162550908Y-102739566D01*
X162493599Y-102588455D01*
X162416033Y-102476082D01*
X162394151Y-102409729D01*
X162403522Y-102358194D01*
X162449483Y-102247234D01*
X162468868Y-102100000D01*
X162464530Y-102067056D01*
X162464000Y-102058956D01*
X162464000Y-101893067D01*
X162483685Y-101826028D01*
X162485951Y-101822625D01*
X162493598Y-101811546D01*
X162493597Y-101811546D01*
X162493599Y-101811545D01*
X162550908Y-101660434D01*
X162570388Y-101500000D01*
X162550908Y-101339566D01*
X162493599Y-101188455D01*
X162401793Y-101055451D01*
X162280824Y-100948281D01*
X162280822Y-100948280D01*
X162275209Y-100943307D01*
X162277294Y-100940953D01*
X162242300Y-100897783D01*
X162234631Y-100828336D01*
X162265726Y-100765767D01*
X162275638Y-100757177D01*
X162275209Y-100756693D01*
X162280822Y-100751719D01*
X162280824Y-100751719D01*
X162401793Y-100644549D01*
X162493599Y-100511545D01*
X162550908Y-100360434D01*
X162570388Y-100200000D01*
X162550908Y-100039566D01*
X162493599Y-99888455D01*
X162401793Y-99755451D01*
X162280824Y-99648281D01*
X162280822Y-99648280D01*
X162275209Y-99643307D01*
X162277294Y-99640953D01*
X162242300Y-99597783D01*
X162234631Y-99528336D01*
X162265726Y-99465767D01*
X162275638Y-99457177D01*
X162275209Y-99456693D01*
X162280822Y-99451719D01*
X162280824Y-99451719D01*
X162401793Y-99344549D01*
X162493599Y-99211545D01*
X162550908Y-99060434D01*
X162570388Y-98900000D01*
X162569302Y-98891051D01*
X162550908Y-98739565D01*
X162529173Y-98682255D01*
X162493599Y-98588455D01*
X162401793Y-98455451D01*
X162401790Y-98455448D01*
X162401789Y-98455447D01*
X162387531Y-98442816D01*
X162350404Y-98383627D01*
X162351170Y-98313762D01*
X162387531Y-98257184D01*
X162401793Y-98244549D01*
X162493599Y-98111545D01*
X162550908Y-97960434D01*
X162570388Y-97800000D01*
X162550908Y-97639566D01*
X162493599Y-97488455D01*
X162401793Y-97355451D01*
X162280824Y-97248281D01*
X162157497Y-97183554D01*
X162107285Y-97134970D01*
X162091310Y-97066951D01*
X162114645Y-97001093D01*
X162157499Y-96963961D01*
X162161748Y-96961730D01*
X162180824Y-96951719D01*
X162301793Y-96844549D01*
X162393599Y-96711545D01*
X162450908Y-96560434D01*
X162470388Y-96400000D01*
X162450908Y-96239566D01*
X162449854Y-96236788D01*
X162429173Y-96182256D01*
X162393599Y-96088455D01*
X162301793Y-95955451D01*
X162301790Y-95955448D01*
X162301788Y-95955446D01*
X162291498Y-95946330D01*
X162254371Y-95887141D01*
X162250786Y-95837333D01*
X162256450Y-95794318D01*
X162268868Y-95700000D01*
X162264530Y-95667056D01*
X162264000Y-95658956D01*
X162264000Y-92541034D01*
X162264531Y-92532932D01*
X162268867Y-92500001D01*
X162268867Y-92499997D01*
X162263851Y-92461905D01*
X162249483Y-92352766D01*
X162192653Y-92215567D01*
X162192652Y-92215566D01*
X162192652Y-92215565D01*
X162159007Y-92171718D01*
X162102249Y-92097749D01*
X162075889Y-92077522D01*
X162069785Y-92072169D01*
X161897615Y-91899999D01*
X161527817Y-91530200D01*
X161522477Y-91524110D01*
X161502250Y-91497750D01*
X161447127Y-91455453D01*
X161384434Y-91407347D01*
X161247234Y-91350517D01*
X161186163Y-91342476D01*
X161144725Y-91329334D01*
X161037725Y-91273176D01*
X160880806Y-91234500D01*
X160719194Y-91234500D01*
X160562277Y-91273175D01*
X160419177Y-91348280D01*
X160298207Y-91455450D01*
X160298205Y-91455453D01*
X160206402Y-91588453D01*
X160206401Y-91588454D01*
X160149091Y-91739565D01*
X160129612Y-91899999D01*
X160129612Y-91900000D01*
X160149091Y-92060434D01*
X160206400Y-92211544D01*
X160206401Y-92211545D01*
X160298207Y-92344549D01*
X160298209Y-92344551D01*
X160298211Y-92344553D01*
X160390297Y-92426134D01*
X160427424Y-92485323D01*
X160426656Y-92555189D01*
X160395751Y-92606630D01*
X158285816Y-94716566D01*
X158279713Y-94721918D01*
X158253353Y-94742145D01*
X158219464Y-94786310D01*
X158219448Y-94786333D01*
X158162952Y-94859961D01*
X158106122Y-94997160D01*
X158106122Y-94997161D01*
X158086738Y-95144395D01*
X158091074Y-95177328D01*
X158091605Y-95185429D01*
X158091605Y-102063364D01*
X158071920Y-102130403D01*
X158055286Y-102151045D01*
X155930211Y-104276121D01*
X155924108Y-104281473D01*
X155897748Y-104301700D01*
X155863859Y-104345865D01*
X155863843Y-104345888D01*
X155807347Y-104419516D01*
X155750517Y-104556715D01*
X155750517Y-104556716D01*
X155731133Y-104703950D01*
X155735469Y-104736883D01*
X155736000Y-104744984D01*
X155736000Y-115239020D01*
X155716315Y-115306059D01*
X155663511Y-115351814D01*
X155594353Y-115361758D01*
X155530797Y-115332733D01*
X155524319Y-115326701D01*
X153116319Y-112918701D01*
X153082834Y-112857378D01*
X153080000Y-112831020D01*
X153080000Y-99357041D01*
X153080531Y-99348939D01*
X153081109Y-99344549D01*
X153084868Y-99316000D01*
X153084281Y-99311545D01*
X153065483Y-99168766D01*
X153008652Y-99031565D01*
X152938477Y-98940111D01*
X152918250Y-98913750D01*
X152891890Y-98893523D01*
X152885789Y-98888172D01*
X150278115Y-96280498D01*
X150249854Y-96236788D01*
X150193599Y-96088455D01*
X150101793Y-95955451D01*
X149980824Y-95848281D01*
X149878006Y-95794318D01*
X149837722Y-95773175D01*
X149680806Y-95734500D01*
X149519194Y-95734500D01*
X149362277Y-95773175D01*
X149219177Y-95848280D01*
X149098207Y-95955450D01*
X149098205Y-95955453D01*
X149006402Y-96088453D01*
X149006401Y-96088454D01*
X148949091Y-96239565D01*
X148929612Y-96399999D01*
X148929612Y-96400000D01*
X148949091Y-96560434D01*
X149006400Y-96711545D01*
X149006401Y-96711545D01*
X149098207Y-96844549D01*
X149219176Y-96951719D01*
X149292502Y-96990203D01*
X149342714Y-97038788D01*
X149358689Y-97106807D01*
X149335354Y-97172665D01*
X149292503Y-97209796D01*
X149263074Y-97225241D01*
X149219175Y-97248281D01*
X149098207Y-97355450D01*
X149098205Y-97355453D01*
X149006402Y-97488453D01*
X149006401Y-97488454D01*
X148949091Y-97639565D01*
X148929612Y-97799999D01*
X148929612Y-97800000D01*
X148949091Y-97960434D01*
X149006401Y-98111545D01*
X149006402Y-98111546D01*
X149098205Y-98244546D01*
X149098207Y-98244549D01*
X149168908Y-98307185D01*
X149206034Y-98366375D01*
X149205266Y-98436240D01*
X149168908Y-98492815D01*
X149098207Y-98555450D01*
X149098205Y-98555453D01*
X149006402Y-98688453D01*
X149006401Y-98688454D01*
X148949091Y-98839565D01*
X148929612Y-98999999D01*
X148929612Y-99000000D01*
X148949091Y-99160434D01*
X148968476Y-99211546D01*
X149006401Y-99311545D01*
X149098207Y-99444549D01*
X149219176Y-99551719D01*
X149219177Y-99551719D01*
X149224791Y-99556693D01*
X149222714Y-99559037D01*
X149257730Y-99602292D01*
X149265354Y-99671744D01*
X149234218Y-99734293D01*
X149224367Y-99742828D01*
X149224791Y-99743307D01*
X149098207Y-99855450D01*
X149098205Y-99855453D01*
X149006402Y-99988453D01*
X149006401Y-99988454D01*
X148949091Y-100139565D01*
X148929612Y-100299999D01*
X148929612Y-100300000D01*
X148949091Y-100460434D01*
X148968476Y-100511546D01*
X149006401Y-100611545D01*
X149098207Y-100744549D01*
X149098209Y-100744551D01*
X149098211Y-100744553D01*
X149168907Y-100807184D01*
X149206034Y-100866373D01*
X149205266Y-100936238D01*
X149168908Y-100992813D01*
X149098212Y-101055445D01*
X149098205Y-101055453D01*
X149006402Y-101188453D01*
X149006401Y-101188454D01*
X148949091Y-101339565D01*
X148929612Y-101499999D01*
X148929612Y-101500000D01*
X148949091Y-101660434D01*
X149006400Y-101811544D01*
X149006401Y-101811545D01*
X149098207Y-101944549D01*
X149219176Y-102051719D01*
X149219177Y-102051719D01*
X149224791Y-102056693D01*
X149222714Y-102059037D01*
X149257730Y-102102292D01*
X149265354Y-102171744D01*
X149234218Y-102234293D01*
X149224367Y-102242828D01*
X149224791Y-102243307D01*
X149098207Y-102355450D01*
X149098205Y-102355453D01*
X149006402Y-102488453D01*
X149006401Y-102488454D01*
X148949091Y-102639565D01*
X148929612Y-102799999D01*
X148929612Y-102800000D01*
X148949091Y-102960434D01*
X148987017Y-103060434D01*
X149006401Y-103111545D01*
X149098207Y-103244549D01*
X149219176Y-103351719D01*
X149219177Y-103351719D01*
X149224791Y-103356693D01*
X149222714Y-103359037D01*
X149257730Y-103402292D01*
X149265354Y-103471744D01*
X149234218Y-103534293D01*
X149224367Y-103542828D01*
X149224791Y-103543307D01*
X149098207Y-103655450D01*
X149098205Y-103655453D01*
X149006402Y-103788453D01*
X149006401Y-103788454D01*
X148949091Y-103939565D01*
X148929612Y-104099999D01*
X148929612Y-104100000D01*
X148949091Y-104260434D01*
X149006401Y-104411545D01*
X149006402Y-104411546D01*
X149098205Y-104544546D01*
X149098207Y-104544549D01*
X149168908Y-104607185D01*
X149206034Y-104666375D01*
X149205266Y-104736240D01*
X149168908Y-104792815D01*
X149098207Y-104855450D01*
X149098205Y-104855453D01*
X149006402Y-104988453D01*
X149006401Y-104988454D01*
X148949091Y-105139565D01*
X148929612Y-105299999D01*
X148929612Y-105300000D01*
X148949091Y-105460434D01*
X148987017Y-105560434D01*
X149006401Y-105611545D01*
X149098207Y-105744549D01*
X149219176Y-105851719D01*
X149219177Y-105851719D01*
X149224791Y-105856693D01*
X149222714Y-105859037D01*
X149257730Y-105902292D01*
X149265354Y-105971744D01*
X149234218Y-106034293D01*
X149224367Y-106042828D01*
X149224791Y-106043307D01*
X149098207Y-106155450D01*
X149098205Y-106155453D01*
X149006402Y-106288453D01*
X149006401Y-106288454D01*
X148949092Y-106439565D01*
X148929612Y-106599999D01*
X148946083Y-106735652D01*
X148945926Y-106766783D01*
X148943133Y-106787998D01*
X148943133Y-106788000D01*
X148947469Y-106820933D01*
X148948000Y-106829034D01*
X148948000Y-116315805D01*
X148928315Y-116382844D01*
X148875511Y-116428599D01*
X148807815Y-116438744D01*
X148750002Y-116431133D01*
X148749999Y-116431133D01*
X148602766Y-116450517D01*
X148602762Y-116450518D01*
X148476668Y-116502748D01*
X148407199Y-116510217D01*
X148344720Y-116478942D01*
X148309068Y-116418853D01*
X148306277Y-116404372D01*
X148299483Y-116352767D01*
X148299483Y-116352766D01*
X148242653Y-116215567D01*
X148242652Y-116215566D01*
X148242652Y-116215565D01*
X148152252Y-116097751D01*
X148034435Y-116007347D01*
X147965833Y-115978932D01*
X147897234Y-115950517D01*
X147814054Y-115939566D01*
X147750001Y-115931133D01*
X147749999Y-115931133D01*
X147602766Y-115950517D01*
X147602765Y-115950517D01*
X147465565Y-116007347D01*
X147347750Y-116097750D01*
X147257346Y-116215566D01*
X147252293Y-116227767D01*
X147208451Y-116282170D01*
X147142156Y-116304233D01*
X147074457Y-116286952D01*
X147062247Y-116278688D01*
X147034435Y-116257347D01*
X146933568Y-116215567D01*
X146897234Y-116200517D01*
X146823616Y-116190825D01*
X146750001Y-116181133D01*
X146749999Y-116181133D01*
X146602766Y-116200517D01*
X146602765Y-116200517D01*
X146465565Y-116257347D01*
X146347750Y-116347750D01*
X146257347Y-116465566D01*
X146236503Y-116515888D01*
X146192661Y-116570292D01*
X146151617Y-116588832D01*
X146012278Y-116623175D01*
X145869177Y-116698280D01*
X145748207Y-116805450D01*
X145748205Y-116805453D01*
X145667445Y-116922454D01*
X145613162Y-116966445D01*
X145543713Y-116974104D01*
X145517944Y-116966575D01*
X145421234Y-116926517D01*
X145347616Y-116916825D01*
X145274001Y-116907133D01*
X145273999Y-116907133D01*
X145126766Y-116926517D01*
X145126765Y-116926517D01*
X144989565Y-116983347D01*
X144871751Y-117073748D01*
X144809994Y-117154233D01*
X144753566Y-117195435D01*
X144683820Y-117199590D01*
X144622899Y-117165377D01*
X144597057Y-117126200D01*
X144592653Y-117115567D01*
X144592651Y-117115564D01*
X144502252Y-116997751D01*
X144384435Y-116907347D01*
X144315833Y-116878932D01*
X144247234Y-116850517D01*
X144164054Y-116839566D01*
X144100001Y-116831133D01*
X144099998Y-116831133D01*
X143966184Y-116848750D01*
X143933813Y-116848750D01*
X143800001Y-116831133D01*
X143799998Y-116831133D01*
X143666184Y-116848750D01*
X143633813Y-116848750D01*
X143500001Y-116831133D01*
X143499999Y-116831133D01*
X143352766Y-116850517D01*
X143352765Y-116850517D01*
X143215565Y-116907347D01*
X143097750Y-116997750D01*
X143007347Y-117115565D01*
X142950517Y-117252765D01*
X142950517Y-117252767D01*
X142947439Y-117276146D01*
X142919172Y-117340043D01*
X142860847Y-117378513D01*
X142790983Y-117379344D01*
X142731759Y-117342271D01*
X142701981Y-117279065D01*
X142700500Y-117259960D01*
X142700500Y-107800000D01*
X145729612Y-107800000D01*
X145749091Y-107960434D01*
X145787017Y-108060434D01*
X145806401Y-108111545D01*
X145898207Y-108244549D01*
X146019176Y-108351719D01*
X146162277Y-108426824D01*
X146319194Y-108465500D01*
X146480806Y-108465500D01*
X146637723Y-108426824D01*
X146780824Y-108351719D01*
X146901793Y-108244549D01*
X146993599Y-108111545D01*
X147050908Y-107960434D01*
X147070388Y-107800000D01*
X147050908Y-107639566D01*
X146993599Y-107488455D01*
X146901793Y-107355451D01*
X146780824Y-107248281D01*
X146766884Y-107240965D01*
X146637722Y-107173175D01*
X146480806Y-107134500D01*
X146319194Y-107134500D01*
X146162277Y-107173175D01*
X146019177Y-107248280D01*
X145898207Y-107355450D01*
X145898205Y-107355453D01*
X145806402Y-107488453D01*
X145806401Y-107488454D01*
X145749091Y-107639565D01*
X145729612Y-107799999D01*
X145729612Y-107800000D01*
X142700500Y-107800000D01*
X142700500Y-94000000D01*
X143229612Y-94000000D01*
X143249091Y-94160434D01*
X143306401Y-94311544D01*
X143306401Y-94311545D01*
X143398207Y-94444549D01*
X143519176Y-94551719D01*
X143662277Y-94626824D01*
X143819194Y-94665500D01*
X143980806Y-94665500D01*
X144137723Y-94626824D01*
X144280824Y-94551719D01*
X144401793Y-94444549D01*
X144493599Y-94311545D01*
X144550908Y-94160434D01*
X144570388Y-94000000D01*
X144550908Y-93839566D01*
X144493599Y-93688455D01*
X144401793Y-93555451D01*
X144280824Y-93448281D01*
X144267276Y-93441171D01*
X144137722Y-93373175D01*
X143980806Y-93334500D01*
X143819194Y-93334500D01*
X143662277Y-93373175D01*
X143519177Y-93448280D01*
X143398207Y-93555450D01*
X143398205Y-93555453D01*
X143306402Y-93688453D01*
X143306401Y-93688454D01*
X143249091Y-93839565D01*
X143229612Y-93999999D01*
X143229612Y-94000000D01*
X142700500Y-94000000D01*
X142700500Y-92600000D01*
X148829612Y-92600000D01*
X148849091Y-92760434D01*
X148906401Y-92911544D01*
X148906401Y-92911545D01*
X148998207Y-93044549D01*
X149119176Y-93151719D01*
X149262277Y-93226824D01*
X149419194Y-93265500D01*
X149580806Y-93265500D01*
X149737723Y-93226824D01*
X149880824Y-93151719D01*
X150001793Y-93044549D01*
X150093599Y-92911545D01*
X150150908Y-92760434D01*
X150170388Y-92600000D01*
X150150908Y-92439566D01*
X150093599Y-92288455D01*
X150001793Y-92155451D01*
X149880824Y-92048281D01*
X149867276Y-92041170D01*
X149737722Y-91973175D01*
X149580806Y-91934500D01*
X149419194Y-91934500D01*
X149262277Y-91973175D01*
X149119177Y-92048280D01*
X148998207Y-92155450D01*
X148998205Y-92155453D01*
X148906402Y-92288453D01*
X148906401Y-92288454D01*
X148849091Y-92439565D01*
X148829612Y-92599999D01*
X148829612Y-92600000D01*
X142700500Y-92600000D01*
X142700500Y-90124000D01*
X142720185Y-90056961D01*
X142772989Y-90011206D01*
X142824500Y-90000000D01*
X145056371Y-90000000D01*
X145123410Y-90019685D01*
G37*
%TD.AperFunction*%
%TD*%
M02*
