M48
; DRILL file {KiCad 7.0.5} date Mon Sep 25 03:15:30 2023
; FORMAT={-:-/ absolute / inch / decimal}
; #@! TF.CreationDate,2023-09-25T03:15:30-05:00
; #@! TF.GenerationSoftware,Kicad,Pcbnew,7.0.5
; #@! TF.FileFunction,Plated,1,4,PTH
FMAT,2
INCH
; #@! TA.AperFunction,Plated,PTH,ViaDrill
T1C0.0079
; #@! TA.AperFunction,Plated,PTH,ComponentDrill
T2C0.1260
%
G90
G05
T1
X5.6654Y-3.7008
X5.6654Y-4.185
X5.6693Y-3.6378
X5.7087Y-3.752
X5.7185Y-4.7933
X5.7333Y-3.5699
X5.7382Y-4.7638
X5.748Y-4.7933
X5.7579Y-4.6161
X5.7638Y-4.2441
X5.7717Y-3.5748
X5.7776Y-4.7638
X5.7972Y-4.6161
X5.8009Y-3.5949
X5.8169Y-4.7638
X5.8268Y-4.3268
X5.8268Y-4.7933
X5.8268Y-4.8228
X5.8268Y-4.8524
X5.8366Y-4.6161
X5.876Y-4.8819
X5.8858Y-3.6457
X5.8858Y-4.8425
X5.8898Y-3.7953
X5.8898Y-3.8504
X5.8898Y-3.8976
X5.8898Y-3.9488
X5.8898Y-3.9961
X5.8898Y-4.0472
X5.8898Y-4.0984
X5.8898Y-4.1457
X5.8898Y-4.1969
X5.8957Y-4.813
X5.9055Y-4.2441
X5.9055Y-4.7835
X5.9331Y-4.3504
X5.935Y-4.6063
X5.937Y-4.7874
X5.9547Y-4.7244
X5.9744Y-4.6161
X5.9941Y-4.748
X6.0138Y-4.6161
X6.0335Y-4.7087
X6.0512Y-3.874
X6.0512Y-3.9291
X6.0531Y-4.6161
X6.0728Y-4.7244
X6.0925Y-4.6161
X6.093Y-4.842
X6.1024Y-4.9134
X6.1063Y-3.815
X6.1063Y-3.874
X6.1063Y-3.9291
X6.1063Y-3.9843
X6.1092Y-4.8651
X6.1102Y-4.8189
X6.1122Y-4.7244
X6.1319Y-4.6161
X6.1417Y-4.8189
X6.1516Y-4.7244
X6.1535Y-4.563
X6.1614Y-3.815
X6.1614Y-3.874
X6.1614Y-3.9291
X6.1614Y-3.9843
X6.1614Y-4.8622
X6.1713Y-4.6161
X6.1811Y-4.7736
X6.1909Y-4.5669
X6.1909Y-4.7047
X6.2008Y-4.7933
X6.2106Y-4.6161
X6.2106Y-4.8228
X6.2165Y-3.874
X6.2165Y-3.9291
X6.2205Y-4.8524
X6.2303Y-4.7146
X6.2303Y-4.8819
X6.2402Y-4.9114
X6.2441Y-4.5787
X6.25Y-4.6063
X6.2697Y-4.7146
X6.2795Y-4.8228
X6.2894Y-4.6063
X6.2913Y-4.5748
X6.2992Y-4.8425
X6.3091Y-4.7047
X6.3189Y-4.8622
X6.3189Y-4.8917
X6.3287Y-4.6063
X6.3307Y-3.6181
X6.3307Y-4.5748
X6.3386Y-4.9114
X6.3425Y-3.6496
X6.3425Y-3.6969
X6.3425Y-3.7441
X6.3484Y-4.7441
X6.3681Y-4.6063
X6.3701Y-3.7953
X6.3701Y-4.5709
X6.374Y-3.8504
X6.374Y-3.8937
X6.374Y-3.9449
X6.374Y-3.9961
X6.374Y-4.0512
X6.374Y-4.0984
X6.3858Y-4.1496
X6.3858Y-4.748
X6.4016Y-4.2008
X6.4075Y-4.6063
X6.4094Y-4.5709
X6.4134Y-4.7756
X6.4213Y-4.248
X6.4236Y-4.7465
X6.4409Y-4.7992
X6.4449Y-4.7146
X6.4469Y-4.6063
X6.4488Y-4.5433
X6.4665Y-4.7835
X6.4685Y-4.5787
X6.4862Y-4.8031
X6.4882Y-3.5984
X6.5039Y-4.5512
X6.5157Y-4.813
T2
X6.1024Y-2.7953
T0
M30
