%TF.GenerationSoftware,KiCad,Pcbnew,7.0.5*%
%TF.CreationDate,2023-09-25T03:15:30-05:00*%
%TF.ProjectId,Chimera_Nimean,4368696d-6572-4615-9f4e-696d65616e2e,rev?*%
%TF.SameCoordinates,Original*%
%TF.FileFunction,Copper,L1,Top*%
%TF.FilePolarity,Positive*%
%FSLAX46Y46*%
G04 Gerber Fmt 4.6, Leading zero omitted, Abs format (unit mm)*
G04 Created by KiCad (PCBNEW 7.0.5) date 2023-09-25 03:15:30*
%MOMM*%
%LPD*%
G01*
G04 APERTURE LIST*
G04 Aperture macros list*
%AMRoundRect*
0 Rectangle with rounded corners*
0 $1 Rounding radius*
0 $2 $3 $4 $5 $6 $7 $8 $9 X,Y pos of 4 corners*
0 Add a 4 corners polygon primitive as box body*
4,1,4,$2,$3,$4,$5,$6,$7,$8,$9,$2,$3,0*
0 Add four circle primitives for the rounded corners*
1,1,$1+$1,$2,$3*
1,1,$1+$1,$4,$5*
1,1,$1+$1,$6,$7*
1,1,$1+$1,$8,$9*
0 Add four rect primitives between the rounded corners*
20,1,$1+$1,$2,$3,$4,$5,0*
20,1,$1+$1,$4,$5,$6,$7,0*
20,1,$1+$1,$6,$7,$8,$9,0*
20,1,$1+$1,$8,$9,$2,$3,0*%
G04 Aperture macros list end*
%TA.AperFunction,ComponentPad*%
%ADD10C,3.600000*%
%TD*%
%TA.AperFunction,ConnectorPad*%
%ADD11C,6.400000*%
%TD*%
%TA.AperFunction,SMDPad,CuDef*%
%ADD12RoundRect,0.225000X0.250000X-0.225000X0.250000X0.225000X-0.250000X0.225000X-0.250000X-0.225000X0*%
%TD*%
%TA.AperFunction,SMDPad,CuDef*%
%ADD13RoundRect,0.225000X-0.225000X-0.250000X0.225000X-0.250000X0.225000X0.250000X-0.225000X0.250000X0*%
%TD*%
%TA.AperFunction,SMDPad,CuDef*%
%ADD14R,0.800000X0.800000*%
%TD*%
%TA.AperFunction,SMDPad,CuDef*%
%ADD15R,0.350000X1.450000*%
%TD*%
%TA.AperFunction,SMDPad,CuDef*%
%ADD16R,1.500000X1.400000*%
%TD*%
%TA.AperFunction,SMDPad,CuDef*%
%ADD17R,1.300000X2.800000*%
%TD*%
%TA.AperFunction,SMDPad,CuDef*%
%ADD18R,0.300000X1.550013*%
%TD*%
%TA.AperFunction,SMDPad,CuDef*%
%ADD19R,0.300000X1.524003*%
%TD*%
%TA.AperFunction,SMDPad,CuDef*%
%ADD20R,1.500000X0.900000*%
%TD*%
%TA.AperFunction,SMDPad,CuDef*%
%ADD21R,0.900000X1.500000*%
%TD*%
%TA.AperFunction,SMDPad,CuDef*%
%ADD22R,0.900000X0.900000*%
%TD*%
%TA.AperFunction,SMDPad,CuDef*%
%ADD23RoundRect,0.225000X0.225000X0.250000X-0.225000X0.250000X-0.225000X-0.250000X0.225000X-0.250000X0*%
%TD*%
%TA.AperFunction,SMDPad,CuDef*%
%ADD24RoundRect,0.200000X-0.200000X-0.275000X0.200000X-0.275000X0.200000X0.275000X-0.200000X0.275000X0*%
%TD*%
%TA.AperFunction,SMDPad,CuDef*%
%ADD25RoundRect,0.200000X0.275000X-0.200000X0.275000X0.200000X-0.275000X0.200000X-0.275000X-0.200000X0*%
%TD*%
%TA.AperFunction,ViaPad*%
%ADD26C,0.330000*%
%TD*%
%TA.AperFunction,Conductor*%
%ADD27C,0.127000*%
%TD*%
G04 APERTURE END LIST*
D10*
%TO.P,H1,1*%
%TO.N,N/C*%
X155000000Y-71000000D03*
D11*
X155000000Y-71000000D03*
%TD*%
D12*
%TO.P,C5,1*%
%TO.N,EN*%
X148000000Y-112600000D03*
%TO.P,C5,2*%
%TO.N,GND*%
X148000000Y-111050000D03*
%TD*%
D13*
%TO.P,C2,1*%
%TO.N,+3V3*%
X145625000Y-88200000D03*
%TO.P,C2,2*%
%TO.N,GND*%
X147175000Y-88200000D03*
%TD*%
D14*
%TO.P,LED1,2,+*%
%TO.N,Net-(LED1-+)*%
X163196571Y-113000533D03*
%TO.P,LED1,1,-*%
%TO.N,GND*%
X163203429Y-114599467D03*
%TD*%
D15*
%TO.P,U2,1,1*%
%TO.N,GND*%
X164250000Y-128825000D03*
%TO.P,U2,3,1*%
%TO.N,Net-(CN1-1-Pad74)*%
X163750000Y-128825000D03*
%TO.P,U2,5,1*%
%TO.N,Net-(CN1-1-Pad72)*%
X163250000Y-128825000D03*
%TO.P,U2,7,1*%
%TO.N,Net-(CN1-1-Pad70)*%
X162750000Y-128825000D03*
%TO.P,U2,9,1*%
%TO.N,Net-(CN1-1-Pad68)*%
X162250000Y-128825000D03*
%TO.P,U2,11,1*%
%TO.N,Net-(CN1-1-Pad66)*%
X161750000Y-128825000D03*
%TO.P,U2,13,13*%
%TO.N,Net-(CN1-20-Pad64)*%
X161250000Y-128825000D03*
%TO.P,U2,15,15*%
%TO.N,Net-(CN1-20-Pad62)*%
X160750000Y-128825000D03*
%TO.P,U2,17,17*%
%TO.N,Net-(CN1-20-Pad60)*%
X160250000Y-128825000D03*
%TO.P,U2,19,19*%
%TO.N,Net-(CN1-20-Pad58)*%
X159750000Y-128825000D03*
%TO.P,U2,21,20*%
%TO.N,Net-(CN1-20-Pad56)*%
X159250000Y-128825000D03*
%TO.P,U2,23,20*%
%TO.N,Net-(CN1-20-Pad54)*%
X158750000Y-128825000D03*
%TO.P,U2,25,20*%
%TO.N,Net-(CN1-20-Pad52)*%
X158250000Y-128825000D03*
%TO.P,U2,27,20*%
%TO.N,IO4*%
X157750000Y-128825000D03*
%TO.P,U2,29,20*%
%TO.N,IO5*%
X157250000Y-128825000D03*
%TO.P,U2,31,20*%
%TO.N,IO6*%
X156750000Y-128825000D03*
%TO.P,U2,33,20*%
%TO.N,IO7*%
X156250000Y-128825000D03*
%TO.P,U2,35,20*%
%TO.N,IO15*%
X155750000Y-128825000D03*
%TO.P,U2,37,20*%
%TO.N,IO16*%
X155250000Y-128825000D03*
%TO.P,U2,39,20*%
%TO.N,IO17*%
X154750000Y-128825000D03*
%TO.P,U2,41,20*%
%TO.N,IO18*%
X154250000Y-128825000D03*
%TO.P,U2,43,20*%
%TO.N,IO8*%
X153750000Y-128825000D03*
%TO.P,U2,45,20*%
%TO.N,IO19*%
X153250000Y-128825000D03*
%TO.P,U2,47,20*%
%TO.N,IO20*%
X152750000Y-128825000D03*
%TO.P,U2,49,20*%
%TO.N,Net-(CN1-20-Pad28)*%
X152250000Y-128825000D03*
%TO.P,U2,51,20*%
%TO.N,Net-(CN1-20-Pad26)*%
X151750000Y-128825000D03*
%TO.P,U2,53,20*%
%TO.N,Net-(CN1-20-Pad24)*%
X151250000Y-128825000D03*
%TO.P,U2,55,20*%
%TO.N,Net-(CN1-20-Pad22)*%
X150750000Y-128825000D03*
%TO.P,U2,57,20*%
%TO.N,Net-(CN1-Pad20)*%
X150250000Y-128825000D03*
%TO.P,U2,67,1*%
%TO.N,Net-(CN1-1-Pad10)*%
X147750000Y-128825000D03*
%TO.P,U2,69,1*%
%TO.N,Net-(CN1-1-Pad8)*%
X147250000Y-128825000D03*
%TO.P,U2,71,1*%
%TO.N,Net-(CN1-1-Pad6)*%
X146750000Y-128825000D03*
%TO.P,U2,73,1*%
%TO.N,Net-(CN1-1-Pad4)*%
X146250000Y-128825000D03*
%TO.P,U2,75,1*%
%TO.N,Net-(CN1-1-Pad2)*%
X145750000Y-128825000D03*
%TD*%
D16*
%TO.P,SW2,1,1*%
%TO.N,EN*%
X145000000Y-115799848D03*
%TO.P,SW2,2,2*%
%TO.N,GND*%
X145000000Y-108200152D03*
%TD*%
D17*
%TO.P,CN1,77*%
%TO.N,N/C*%
X144650051Y-119224918D03*
%TO.P,CN1,76*%
X165350077Y-119224918D03*
D18*
%TO.P,CN1,1,1*%
%TO.N,+3V3*%
X145750128Y-118500000D03*
%TO.P,CN1,2,1*%
%TO.N,Net-(CN1-1-Pad2)*%
X146000064Y-126049912D03*
%TO.P,CN1,3,1*%
%TO.N,Net-(CN1-1-Pad3)*%
X146250000Y-118500000D03*
%TO.P,CN1,4,1*%
%TO.N,Net-(CN1-1-Pad4)*%
X146500191Y-126049912D03*
%TO.P,CN1,5,1*%
%TO.N,Net-(CN1-1-Pad5)*%
X146750128Y-118500000D03*
%TO.P,CN1,6,1*%
%TO.N,Net-(CN1-1-Pad6)*%
X147000064Y-126049912D03*
%TO.P,CN1,7,1*%
%TO.N,Net-(CN1-1-Pad7)*%
X147250000Y-118500000D03*
%TO.P,CN1,8,1*%
%TO.N,Net-(CN1-1-Pad8)*%
X147500191Y-126049912D03*
%TO.P,CN1,9,1*%
%TO.N,Net-(CN1-1-Pad9)*%
X147750128Y-118500000D03*
%TO.P,CN1,10,1*%
%TO.N,Net-(CN1-1-Pad10)*%
X148000064Y-126049912D03*
%TO.P,CN1,11,1*%
%TO.N,IO3*%
X148250000Y-118500000D03*
%TO.P,CN1,20,20*%
%TO.N,Net-(CN1-Pad20)*%
X150500191Y-126049912D03*
%TO.P,CN1,21,20*%
%TO.N,IO46*%
X150750128Y-118500000D03*
%TO.P,CN1,22,20*%
%TO.N,Net-(CN1-20-Pad22)*%
X151000064Y-126049912D03*
%TO.P,CN1,23,20*%
%TO.N,IO9*%
X151250000Y-118500000D03*
%TO.P,CN1,24,20*%
%TO.N,Net-(CN1-20-Pad24)*%
X151500191Y-126049912D03*
%TO.P,CN1,25,20*%
%TO.N,IO10*%
X151750128Y-118500000D03*
%TO.P,CN1,26,20*%
%TO.N,Net-(CN1-20-Pad26)*%
X152000064Y-126049912D03*
%TO.P,CN1,27,20*%
%TO.N,IO11*%
X152250000Y-118500000D03*
%TO.P,CN1,28,20*%
%TO.N,Net-(CN1-20-Pad28)*%
X152500191Y-126049912D03*
%TO.P,CN1,29,20*%
%TO.N,IO12*%
X152750128Y-118500000D03*
%TO.P,CN1,30,20*%
%TO.N,IO20*%
X153000064Y-126049912D03*
%TO.P,CN1,31,20*%
%TO.N,IO13*%
X153250000Y-118500000D03*
%TO.P,CN1,32,20*%
%TO.N,IO19*%
X153500191Y-126049912D03*
%TO.P,CN1,33,20*%
%TO.N,IO14*%
X153750128Y-118500000D03*
%TO.P,CN1,34,20*%
%TO.N,IO8*%
X154000064Y-126049912D03*
%TO.P,CN1,35,20*%
%TO.N,IO21*%
X154250000Y-118500000D03*
%TO.P,CN1,36,20*%
%TO.N,IO18*%
X154500191Y-126049912D03*
%TO.P,CN1,37,20*%
%TO.N,IO47*%
X154750128Y-118500000D03*
%TO.P,CN1,38,20*%
%TO.N,IO17*%
X155000064Y-126049912D03*
%TO.P,CN1,39,20*%
%TO.N,IO48*%
X155250000Y-118500000D03*
%TO.P,CN1,40,20*%
%TO.N,IO16*%
X155500191Y-126049912D03*
%TO.P,CN1,41,20*%
%TO.N,IO45*%
X155750128Y-118500000D03*
%TO.P,CN1,42,20*%
%TO.N,IO15*%
X156000064Y-126049658D03*
%TO.P,CN1,43,20*%
%TO.N,IO1*%
X156250000Y-118500000D03*
%TO.P,CN1,44,20*%
%TO.N,IO7*%
X156500191Y-126049658D03*
%TO.P,CN1,45,20*%
%TO.N,IO2*%
X156750128Y-118500000D03*
%TO.P,CN1,46,20*%
%TO.N,IO6*%
X157000064Y-126049658D03*
%TO.P,CN1,47,20*%
%TO.N,TXD0*%
X157250000Y-118500000D03*
%TO.P,CN1,48,20*%
%TO.N,IO5*%
X157500191Y-126049658D03*
%TO.P,CN1,49,20*%
%TO.N,RXD0*%
X157750128Y-118500000D03*
%TO.P,CN1,50,20*%
%TO.N,IO4*%
X158000064Y-126049658D03*
%TO.P,CN1,51,20*%
%TO.N,IO42*%
X158250000Y-118500000D03*
%TO.P,CN1,52,20*%
%TO.N,Net-(CN1-20-Pad52)*%
X158500191Y-126049658D03*
%TO.P,CN1,53,20*%
%TO.N,IO41*%
X158750128Y-118500000D03*
%TO.P,CN1,54,20*%
%TO.N,Net-(CN1-20-Pad54)*%
X159000064Y-126049658D03*
%TO.P,CN1,55,20*%
%TO.N,IO40*%
X159250000Y-118500000D03*
%TO.P,CN1,56,20*%
%TO.N,Net-(CN1-20-Pad56)*%
X159500191Y-126049658D03*
%TO.P,CN1,57,20*%
%TO.N,IO39*%
X159750128Y-118500000D03*
%TO.P,CN1,58,20*%
%TO.N,Net-(CN1-20-Pad58)*%
X160000064Y-126049658D03*
%TO.P,CN1,67,1*%
%TO.N,BOOT*%
X162250000Y-118500000D03*
%TO.P,CN1,68,1*%
%TO.N,Net-(CN1-1-Pad68)*%
X162500191Y-126049658D03*
%TO.P,CN1,69,1*%
%TO.N,Net-(CN1-1-Pad69)*%
X162750128Y-118500000D03*
%TO.P,CN1,70,1*%
%TO.N,Net-(CN1-1-Pad70)*%
X163000064Y-126049658D03*
%TO.P,CN1,71,1*%
%TO.N,Net-(CN1-1-Pad71)*%
X163250000Y-118500000D03*
%TO.P,CN1,72,1*%
%TO.N,Net-(CN1-1-Pad72)*%
X163500191Y-126049658D03*
%TO.P,CN1,73,1*%
%TO.N,Net-(CN1-1-Pad73)*%
X163750128Y-118500000D03*
%TO.P,CN1,74,1*%
%TO.N,Net-(CN1-1-Pad74)*%
X164000064Y-126049658D03*
%TO.P,CN1,75,1*%
%TO.N,GND*%
X164250000Y-118500000D03*
D19*
%TO.P,CN1,65,20*%
%TO.N,IO35*%
X161750128Y-118499746D03*
%TO.P,CN1,63,20*%
%TO.N,IO36*%
X161250000Y-118499746D03*
%TO.P,CN1,61,20*%
%TO.N,IO37*%
X160750128Y-118499746D03*
%TO.P,CN1,59,20*%
%TO.N,IO38*%
X160250000Y-118499746D03*
%TO.P,CN1,66,1*%
%TO.N,Net-(CN1-1-Pad66)*%
X162000064Y-126049658D03*
%TO.P,CN1,64,20*%
%TO.N,Net-(CN1-20-Pad64)*%
X161500191Y-126049658D03*
%TO.P,CN1,62,20*%
%TO.N,Net-(CN1-20-Pad62)*%
X161000064Y-126049658D03*
%TO.P,CN1,60,20*%
%TO.N,Net-(CN1-20-Pad60)*%
X160500191Y-126049658D03*
%TD*%
D16*
%TO.P,SW1,1,1*%
%TO.N,BOOT*%
X145000000Y-104199848D03*
%TO.P,SW1,2,2*%
%TO.N,GND*%
X145000000Y-96600152D03*
%TD*%
D20*
%TO.P,U1,1,GND*%
%TO.N,GND*%
X148400406Y-91359982D03*
%TO.P,U1,2,3V3*%
%TO.N,+3V3*%
X148400406Y-92629985D03*
%TO.P,U1,3,EN*%
%TO.N,EN*%
X148400406Y-93899987D03*
%TO.P,U1,4,IO4*%
%TO.N,IO4*%
X148400406Y-95169990D03*
%TO.P,U1,5,IO5*%
%TO.N,IO5*%
X148400406Y-96439992D03*
%TO.P,U1,6,IO6*%
%TO.N,IO6*%
X148400406Y-97709995D03*
%TO.P,U1,7,IO7*%
%TO.N,IO7*%
X148400406Y-98979997D03*
%TO.P,U1,8,IO15*%
%TO.N,IO15*%
X148400406Y-100250000D03*
%TO.P,U1,9,IO16*%
%TO.N,IO16*%
X148400406Y-101520002D03*
%TO.P,U1,10,IO17*%
%TO.N,IO17*%
X148400406Y-102790005D03*
%TO.P,U1,11,IO18*%
%TO.N,IO18*%
X148400406Y-104060007D03*
%TO.P,U1,12,IO8*%
%TO.N,IO8*%
X148400406Y-105330010D03*
%TO.P,U1,13,IO19*%
%TO.N,IO19*%
X148400406Y-106600013D03*
%TO.P,U1,14,IO20*%
%TO.N,IO20*%
X148400406Y-107870015D03*
D21*
%TO.P,U1,15,IO3*%
%TO.N,IO3*%
X150315316Y-109269304D03*
%TO.P,U1,16,IO46*%
%TO.N,IO46*%
X151585319Y-109269304D03*
%TO.P,U1,17,IO9*%
%TO.N,IO9*%
X152855321Y-109269304D03*
%TO.P,U1,18,IO10*%
%TO.N,IO10*%
X154125324Y-109269304D03*
%TO.P,U1,19,IO11*%
%TO.N,IO11*%
X155395326Y-109269304D03*
%TO.P,U1,20,IO12*%
%TO.N,IO12*%
X156665329Y-109269304D03*
%TO.P,U1,21,IO13*%
%TO.N,IO13*%
X157935331Y-109269304D03*
%TO.P,U1,22,IO14*%
%TO.N,IO14*%
X159205334Y-109269304D03*
%TO.P,U1,23,IO21*%
%TO.N,IO21*%
X160475336Y-109269304D03*
%TO.P,U1,24,IO47*%
%TO.N,IO47*%
X161745339Y-109269304D03*
%TO.P,U1,25,IO48*%
%TO.N,IO48*%
X163015341Y-109269304D03*
%TO.P,U1,26,IO45*%
%TO.N,IO45*%
X164285344Y-109269304D03*
D20*
%TO.P,U1,27,IO0*%
%TO.N,BOOT*%
X166200000Y-107870015D03*
%TO.P,U1,28,IO35*%
%TO.N,IO35*%
X166200000Y-106600013D03*
%TO.P,U1,29,IO36*%
%TO.N,IO36*%
X166200000Y-105330010D03*
%TO.P,U1,30,IO37*%
%TO.N,IO37*%
X166200000Y-104060007D03*
%TO.P,U1,31,IO38*%
%TO.N,IO38*%
X166200000Y-102790005D03*
%TO.P,U1,32,IO39*%
%TO.N,IO39*%
X166200000Y-101520002D03*
%TO.P,U1,33,IO40*%
%TO.N,IO40*%
X166200000Y-100250000D03*
%TO.P,U1,34,IO41*%
%TO.N,IO41*%
X166200000Y-98979997D03*
%TO.P,U1,35,IO42*%
%TO.N,IO42*%
X166200000Y-97709995D03*
%TO.P,U1,36,RXD0*%
%TO.N,RXD0*%
X166200000Y-96439992D03*
%TO.P,U1,37,TXD0*%
%TO.N,TXD0*%
X166200000Y-95169990D03*
%TO.P,U1,38,IO2*%
%TO.N,IO2*%
X166200000Y-93899987D03*
%TO.P,U1,39,IO1*%
%TO.N,IO1*%
X166200000Y-92629985D03*
%TO.P,U1,40,GND*%
%TO.N,GND*%
X166200000Y-91359982D03*
D22*
%TO.P,U1,41,EP*%
X155800711Y-99079566D03*
X154400660Y-99079566D03*
X157200762Y-99079566D03*
X157200762Y-97679515D03*
X155800711Y-97679515D03*
X154400660Y-97679515D03*
X154400660Y-100479616D03*
X155800711Y-100479616D03*
X157200762Y-100479616D03*
%TD*%
D23*
%TO.P,C3,1*%
%TO.N,EN*%
X146575000Y-92400000D03*
%TO.P,C3,2*%
%TO.N,GND*%
X145025000Y-92400000D03*
%TD*%
D13*
%TO.P,C1,1*%
%TO.N,+3V3*%
X145625000Y-89800000D03*
%TO.P,C1,2*%
%TO.N,GND*%
X147175000Y-89800000D03*
%TD*%
D24*
%TO.P,R1,1*%
%TO.N,+3V3*%
X144975000Y-94000000D03*
%TO.P,R1,2*%
%TO.N,EN*%
X146625000Y-94000000D03*
%TD*%
D23*
%TO.P,C4,1*%
%TO.N,BOOT*%
X146600000Y-106300000D03*
%TO.P,C4,2*%
%TO.N,GND*%
X145050000Y-106300000D03*
%TD*%
D25*
%TO.P,R2,1*%
%TO.N,+3V3*%
X165200000Y-114650000D03*
%TO.P,R2,2*%
%TO.N,Net-(LED1-+)*%
X165200000Y-113000000D03*
%TD*%
D26*
%TO.N,GND*%
X164300000Y-116300000D03*
%TO.N,BOOT*%
X146400000Y-107800000D03*
%TO.N,Net-(CN1-1-Pad2)*%
X145250000Y-121750000D03*
%TO.N,Net-(CN1-1-Pad4)*%
X146000000Y-121750000D03*
%TO.N,Net-(CN1-1-Pad6)*%
X148000000Y-121750000D03*
%TO.N,Net-(CN1-1-Pad8)*%
X148000000Y-122500000D03*
%TO.N,Net-(CN1-1-Pad10)*%
X148000000Y-123250000D03*
%TO.N,Net-(CN1-20-Pad58)*%
X160500000Y-123500000D03*
%TO.N,Net-(CN1-20-Pad60)*%
X160500191Y-124250000D03*
%TO.N,Net-(CN1-20-Pad62)*%
X161000064Y-124750000D03*
%TO.N,Net-(CN1-20-Pad64)*%
X162200000Y-120600000D03*
%TO.N,Net-(CN1-1-Pad66)*%
X162900000Y-121300000D03*
%TO.N,Net-(CN1-1-Pad68)*%
X163600000Y-121900000D03*
%TO.N,Net-(CN1-1-Pad70)*%
X164250000Y-121500000D03*
%TO.N,Net-(CN1-1-Pad72)*%
X164750000Y-122000000D03*
%TO.N,Net-(CN1-1-Pad74)*%
X165500000Y-122250000D03*
%TO.N,Net-(CN1-1-Pad3)*%
X146250000Y-117250000D03*
%TO.N,Net-(CN1-1-Pad5)*%
X146750000Y-121000000D03*
%TO.N,Net-(CN1-1-Pad7)*%
X147250000Y-117250000D03*
%TO.N,Net-(CN1-1-Pad69)*%
X162750000Y-117000000D03*
%TO.N,Net-(CN1-1-Pad71)*%
X163700000Y-119750000D03*
%TO.N,Net-(CN1-1-Pad73)*%
X163750000Y-117000000D03*
%TO.N,GND*%
X153700000Y-98400000D03*
X144000000Y-92400000D03*
X156500000Y-101200000D03*
X155100000Y-101200000D03*
X155100000Y-96900000D03*
X143900000Y-106300000D03*
X156500000Y-96900000D03*
X145000000Y-95300000D03*
X153700000Y-99800000D03*
X157900000Y-99800000D03*
X148000000Y-109900000D03*
X157900000Y-98400000D03*
X164800000Y-91400000D03*
X156500000Y-98400000D03*
X155100000Y-99800000D03*
X155100000Y-98400000D03*
X146600000Y-90800000D03*
X156500000Y-99800000D03*
X147342873Y-91310718D03*
X163800000Y-115400000D03*
%TO.N,+3V3*%
X149500000Y-92600000D03*
X165200000Y-115600000D03*
X145750000Y-121000000D03*
X145625000Y-90675000D03*
X143900000Y-94000000D03*
%TO.N,IO4*%
X160800000Y-91900000D03*
X158250000Y-124000000D03*
%TO.N,IO5*%
X149600000Y-96400000D03*
X158000000Y-123250000D03*
%TO.N,IO1*%
X156250000Y-120000000D03*
X156300000Y-115900000D03*
X161100000Y-92700000D03*
%TO.N,IO6*%
X157750000Y-122500000D03*
X149600000Y-97800000D03*
%TO.N,IO2*%
X161100000Y-93900000D03*
X156750000Y-117250000D03*
%TO.N,IO7*%
X149600000Y-99000000D03*
X157500000Y-121750000D03*
%TO.N,TXD0*%
X161100000Y-95100000D03*
X157250000Y-119500000D03*
X157250000Y-116000000D03*
%TO.N,IO15*%
X157000000Y-121250000D03*
X149600000Y-100300000D03*
%TO.N,RXD0*%
X161800000Y-96400000D03*
X157750000Y-117250000D03*
%TO.N,IO16*%
X149600000Y-101500000D03*
X156500000Y-123500000D03*
%TO.N,IO42*%
X161900000Y-97800000D03*
X158600000Y-116300000D03*
X158250000Y-119750000D03*
%TO.N,IO17*%
X155000000Y-124800000D03*
X149600000Y-102800000D03*
%TO.N,IO41*%
X161900000Y-98900000D03*
X158750000Y-117000000D03*
%TO.N,IO18*%
X149600000Y-104100000D03*
X156000000Y-122400000D03*
%TO.N,IO40*%
X159800000Y-116200000D03*
X161900000Y-100200000D03*
X159250000Y-119750000D03*
%TO.N,IO8*%
X155200000Y-122400000D03*
X149600000Y-105300000D03*
%TO.N,IO39*%
X159750000Y-117000000D03*
X161900000Y-101500000D03*
%TO.N,IO19*%
X149600000Y-106600000D03*
X155173977Y-123573977D03*
%TO.N,IO38*%
X160800000Y-116200000D03*
X161900000Y-102900000D03*
X160250000Y-119500000D03*
%TO.N,IO20*%
X150000000Y-107800000D03*
X154762500Y-122987500D03*
%TO.N,IO37*%
X160750000Y-117000000D03*
X161900000Y-104100000D03*
%TO.N,IO45*%
X155750000Y-117250000D03*
%TO.N,IO36*%
X161800000Y-116100000D03*
X161250000Y-120500000D03*
X162200000Y-105400000D03*
%TO.N,IO48*%
X155250000Y-120000000D03*
%TO.N,IO35*%
X162600000Y-106700000D03*
X161750000Y-117000000D03*
%TO.N,IO47*%
X154750000Y-117250000D03*
%TO.N,BOOT*%
X162800000Y-116100000D03*
X163160605Y-120560605D03*
X163100000Y-107900000D03*
%TO.N,IO21*%
X154250000Y-120000000D03*
%TO.N,IO14*%
X153750000Y-117250000D03*
%TO.N,IO13*%
X153250000Y-119600000D03*
%TO.N,IO12*%
X152750000Y-117250000D03*
%TO.N,IO11*%
X152250000Y-120600000D03*
%TO.N,IO10*%
X151750000Y-117250000D03*
%TO.N,IO9*%
X151250000Y-120000000D03*
%TO.N,IO46*%
X150750000Y-117000000D03*
%TO.N,IO3*%
X150700000Y-110500000D03*
X148250000Y-117250000D03*
%TO.N,Net-(CN1-1-Pad9)*%
X147750000Y-121000000D03*
%TO.N,Net-(CN1-Pad20)*%
X149250000Y-124000000D03*
%TO.N,Net-(CN1-20-Pad22)*%
X149500000Y-123000000D03*
%TO.N,Net-(CN1-20-Pad24)*%
X149750000Y-122250000D03*
%TO.N,Net-(CN1-20-Pad26)*%
X150000000Y-121500000D03*
%TO.N,Net-(CN1-20-Pad28)*%
X150800000Y-121600000D03*
%TO.N,Net-(CN1-20-Pad52)*%
X158500000Y-124750000D03*
%TO.N,Net-(CN1-20-Pad54)*%
X159500000Y-122500000D03*
%TO.N,Net-(CN1-20-Pad56)*%
X160000000Y-123000000D03*
%TD*%
D27*
%TO.N,GND*%
X164250000Y-116250000D02*
X164250000Y-115850000D01*
X164300000Y-116300000D02*
X164250000Y-116250000D01*
X164250000Y-116350000D02*
X164300000Y-116300000D01*
X164250000Y-118500000D02*
X164250000Y-116350000D01*
X164250000Y-115850000D02*
X163800000Y-115400000D01*
X163400000Y-115400000D02*
X163800000Y-115400000D01*
X163203429Y-115203429D02*
X163400000Y-115400000D01*
X163203429Y-114599467D02*
X163203429Y-115203429D01*
%TO.N,Net-(CN1-1-Pad66)*%
X162000064Y-124745873D02*
X162000064Y-126049658D01*
X161754191Y-124500000D02*
X162000064Y-124745873D01*
X161754191Y-122355019D02*
X161754191Y-124500000D01*
X162809210Y-121300000D02*
X161754191Y-122355019D01*
X162900000Y-121300000D02*
X162809210Y-121300000D01*
%TO.N,Net-(CN1-1-Pad68)*%
X162500191Y-123393352D02*
X162500191Y-126049658D01*
X163600000Y-122293543D02*
X162500191Y-123393352D01*
X163600000Y-121900000D02*
X163600000Y-122293543D01*
%TO.N,GND*%
X164250000Y-120555841D02*
X164250000Y-118500000D01*
X164509577Y-120815418D02*
X164250000Y-120555841D01*
X165315418Y-120815418D02*
X164509577Y-120815418D01*
X167000000Y-122500000D02*
X165315418Y-120815418D01*
X167000000Y-123800000D02*
X167000000Y-122500000D01*
X165700000Y-125100000D02*
X167000000Y-123800000D01*
X165000000Y-125100000D02*
X165700000Y-125100000D01*
X164400000Y-127100000D02*
X164400000Y-125700000D01*
X164254064Y-127245936D02*
X164400000Y-127100000D01*
X164400000Y-125700000D02*
X165000000Y-125100000D01*
X164254064Y-127805146D02*
X164254064Y-127245936D01*
X164250000Y-128800000D02*
X164250000Y-127809210D01*
X164250000Y-127809210D02*
X164254064Y-127805146D01*
%TO.N,Net-(CN1-Pad20)*%
X150500191Y-127249809D02*
X150500191Y-126049912D01*
X150250000Y-128800000D02*
X150250000Y-127500000D01*
X150250000Y-127500000D02*
X150500191Y-127249809D01*
%TO.N,Net-(CN1-20-Pad22)*%
X151000064Y-127499936D02*
X151000064Y-126049912D01*
X150750000Y-127750000D02*
X151000064Y-127499936D01*
X150750000Y-128800000D02*
X150750000Y-127750000D01*
%TO.N,Net-(CN1-20-Pad24)*%
X151500191Y-127749809D02*
X151500191Y-126049912D01*
X151250000Y-128000000D02*
X151500191Y-127749809D01*
X151250000Y-128800000D02*
X151250000Y-128000000D01*
%TO.N,Net-(CN1-20-Pad26)*%
X152000064Y-127749936D02*
X152000064Y-126049912D01*
X151750000Y-128000000D02*
X152000064Y-127749936D01*
X151750000Y-128800000D02*
X151750000Y-128000000D01*
%TO.N,Net-(CN1-20-Pad28)*%
X152500191Y-127749809D02*
X152500191Y-126049912D01*
X152250000Y-128000000D02*
X152500191Y-127749809D01*
X152250000Y-128800000D02*
X152250000Y-128000000D01*
%TO.N,IO20*%
X152750000Y-128000000D02*
X153000064Y-127749936D01*
X152750000Y-128800000D02*
X152750000Y-128000000D01*
X153000064Y-127749936D02*
X153000064Y-126049912D01*
%TO.N,IO19*%
X153500191Y-127699809D02*
X153500191Y-126049912D01*
X153250000Y-127950000D02*
X153500191Y-127699809D01*
X153250000Y-128800000D02*
X153250000Y-127950000D01*
%TO.N,IO8*%
X154000064Y-127699936D02*
X154000064Y-126049912D01*
X153750000Y-127950000D02*
X154000064Y-127699936D01*
X153750000Y-128800000D02*
X153750000Y-127950000D01*
%TO.N,IO18*%
X154500191Y-127699809D02*
X154500191Y-126049912D01*
X154250000Y-127950000D02*
X154500191Y-127699809D01*
X154250000Y-128800000D02*
X154250000Y-127950000D01*
%TO.N,IO17*%
X154750000Y-127950000D02*
X155000064Y-127699936D01*
X155000064Y-127699936D02*
X155000064Y-126049912D01*
X154750000Y-128800000D02*
X154750000Y-127950000D01*
%TO.N,IO16*%
X155250000Y-127950000D02*
X155500191Y-127699809D01*
X155500191Y-127699809D02*
X155500191Y-126049912D01*
X155250000Y-128800000D02*
X155250000Y-127950000D01*
%TO.N,IO15*%
X156000064Y-127699936D02*
X156000064Y-126049658D01*
X155750000Y-127950000D02*
X156000064Y-127699936D01*
X155750000Y-128800000D02*
X155750000Y-127950000D01*
%TO.N,IO7*%
X156500191Y-127699809D02*
X156500191Y-126049658D01*
X156250000Y-127950000D02*
X156500191Y-127699809D01*
X156250000Y-128800000D02*
X156250000Y-127950000D01*
%TO.N,IO6*%
X157000064Y-127684436D02*
X157000064Y-126049658D01*
X156750000Y-127934500D02*
X157000064Y-127684436D01*
X156750000Y-128800000D02*
X156750000Y-127934500D01*
%TO.N,IO5*%
X157500191Y-127699809D02*
X157500191Y-126049658D01*
X157250000Y-127950000D02*
X157500191Y-127699809D01*
X157250000Y-128800000D02*
X157250000Y-127950000D01*
%TO.N,IO4*%
X157750000Y-127950000D02*
X158000064Y-127699936D01*
X158000064Y-127699936D02*
X158000064Y-126049658D01*
X157750000Y-128800000D02*
X157750000Y-127950000D01*
%TO.N,Net-(CN1-20-Pad52)*%
X158500191Y-127699809D02*
X158500191Y-126049658D01*
X158250000Y-127950000D02*
X158500191Y-127699809D01*
X158250000Y-128800000D02*
X158250000Y-127950000D01*
%TO.N,Net-(CN1-20-Pad54)*%
X159000064Y-127699936D02*
X159000064Y-126049658D01*
X158750000Y-127950000D02*
X159000064Y-127699936D01*
X158750000Y-128800000D02*
X158750000Y-127950000D01*
%TO.N,Net-(CN1-20-Pad56)*%
X159250000Y-127950000D02*
X159500191Y-127699809D01*
X159500191Y-127699809D02*
X159500191Y-126049658D01*
X159250000Y-128800000D02*
X159250000Y-127950000D01*
%TO.N,Net-(CN1-20-Pad58)*%
X160000064Y-127711436D02*
X160000064Y-126049658D01*
X159750000Y-127961500D02*
X160000064Y-127711436D01*
X159750000Y-128800000D02*
X159750000Y-127961500D01*
%TO.N,Net-(CN1-20-Pad60)*%
X160250000Y-127950000D02*
X160500191Y-127699809D01*
X160500191Y-127699809D02*
X160500191Y-126049658D01*
X160250000Y-128800000D02*
X160250000Y-127950000D01*
%TO.N,Net-(CN1-20-Pad62)*%
X161000064Y-127699936D02*
X161000064Y-126049658D01*
X160750000Y-127950000D02*
X161000064Y-127699936D01*
X160750000Y-128800000D02*
X160750000Y-127950000D01*
%TO.N,Net-(CN1-20-Pad64)*%
X161500191Y-127699809D02*
X161500191Y-126049658D01*
X161250000Y-127950000D02*
X161500191Y-127699809D01*
X161250000Y-128800000D02*
X161250000Y-127950000D01*
%TO.N,Net-(CN1-1-Pad66)*%
X162000064Y-127699936D02*
X162000064Y-126049658D01*
X161750000Y-127950000D02*
X162000064Y-127699936D01*
X161750000Y-128800000D02*
X161750000Y-127950000D01*
%TO.N,Net-(CN1-1-Pad68)*%
X162500191Y-127699809D02*
X162500191Y-126049658D01*
X162250000Y-128800000D02*
X162250000Y-127950000D01*
X162250000Y-127950000D02*
X162500191Y-127699809D01*
%TO.N,Net-(CN1-1-Pad70)*%
X163000064Y-127699936D02*
X163000064Y-126049658D01*
X162750000Y-127950000D02*
X163000064Y-127699936D01*
X162750000Y-128800000D02*
X162750000Y-127950000D01*
%TO.N,Net-(CN1-1-Pad72)*%
X163500191Y-127699809D02*
X163500191Y-126049658D01*
X163250000Y-127950000D02*
X163500191Y-127699809D01*
X163250000Y-128800000D02*
X163250000Y-127950000D01*
%TO.N,Net-(CN1-1-Pad74)*%
X164000064Y-127699936D02*
X164000064Y-126049658D01*
X163750000Y-127950000D02*
X164000064Y-127699936D01*
X163750000Y-128800000D02*
X163750000Y-127950000D01*
%TO.N,Net-(CN1-1-Pad4)*%
X146500191Y-127499809D02*
X146500191Y-126049912D01*
X146250000Y-127750000D02*
X146500191Y-127499809D01*
X146250000Y-128800000D02*
X146250000Y-127750000D01*
%TO.N,Net-(CN1-1-Pad6)*%
X147000064Y-127499936D02*
X147000064Y-126049912D01*
X146750000Y-127750000D02*
X147000064Y-127499936D01*
X146750000Y-128800000D02*
X146750000Y-127750000D01*
%TO.N,Net-(CN1-1-Pad8)*%
X147500191Y-127499809D02*
X147500191Y-126049912D01*
X147250000Y-127750000D02*
X147500191Y-127499809D01*
X147250000Y-128800000D02*
X147250000Y-127750000D01*
%TO.N,Net-(CN1-1-Pad10)*%
X148000064Y-127599936D02*
X148000064Y-126049912D01*
X147750000Y-127850000D02*
X148000064Y-127599936D01*
X147750000Y-128800000D02*
X147750000Y-127850000D01*
%TO.N,Net-(CN1-1-Pad2)*%
X145750000Y-127750000D02*
X146000064Y-127499936D01*
X145750000Y-128750000D02*
X145750000Y-127750000D01*
X146000064Y-127499936D02*
X146000064Y-126049912D01*
%TO.N,BOOT*%
X146600000Y-107600000D02*
X146400000Y-107800000D01*
X146600000Y-106300000D02*
X146600000Y-107600000D01*
%TO.N,EN*%
X147400000Y-94775000D02*
X146625000Y-94000000D01*
X147100000Y-107400000D02*
X147400000Y-107100000D01*
X147100000Y-112300000D02*
X147100000Y-107400000D01*
X147400000Y-107100000D02*
X147400000Y-94775000D01*
X147400000Y-112600000D02*
X147100000Y-112300000D01*
X148000000Y-112600000D02*
X147400000Y-112600000D01*
%TO.N,Net-(CN1-1-Pad2)*%
X146000064Y-126049912D02*
X146000064Y-122500064D01*
X146000064Y-122500064D02*
X145250000Y-121750000D01*
%TO.N,Net-(CN1-1-Pad4)*%
X146500191Y-122250191D02*
X146000000Y-121750000D01*
X146500191Y-126049912D02*
X146500191Y-122250191D01*
%TO.N,Net-(CN1-1-Pad6)*%
X147000064Y-122749936D02*
X148000000Y-121750000D01*
X147000064Y-126049912D02*
X147000064Y-122749936D01*
%TO.N,Net-(CN1-1-Pad8)*%
X147500191Y-126049912D02*
X147500191Y-122999809D01*
X147500191Y-122999809D02*
X148000000Y-122500000D01*
%TO.N,Net-(CN1-1-Pad10)*%
X148000064Y-126049912D02*
X148000064Y-123250064D01*
X148000064Y-123250064D02*
X148000000Y-123250000D01*
%TO.N,Net-(CN1-20-Pad58)*%
X160500000Y-123500000D02*
X160000064Y-123999936D01*
X160000064Y-123999936D02*
X160000064Y-126049658D01*
%TO.N,Net-(CN1-20-Pad60)*%
X160500191Y-124250000D02*
X160500191Y-126049658D01*
%TO.N,Net-(CN1-20-Pad62)*%
X161000064Y-124750000D02*
X161000064Y-126049658D01*
%TO.N,Net-(CN1-20-Pad64)*%
X161500191Y-121299809D02*
X161500191Y-126049658D01*
X162200000Y-120600000D02*
X161500191Y-121299809D01*
%TO.N,Net-(CN1-1-Pad70)*%
X164250000Y-122002753D02*
X164250000Y-121500000D01*
X163000064Y-126049658D02*
X163000064Y-123252689D01*
X163000064Y-123252689D02*
X164250000Y-122002753D01*
%TO.N,Net-(CN1-1-Pad72)*%
X163500191Y-126049658D02*
X163500191Y-123111772D01*
X164055982Y-122555981D02*
X164611963Y-122000000D01*
X163500191Y-123111772D02*
X164055982Y-122555981D01*
X164611963Y-122000000D02*
X164750000Y-122000000D01*
%TO.N,Net-(CN1-1-Pad74)*%
X165250000Y-122500000D02*
X164500000Y-122500000D01*
X164000064Y-124496634D02*
X164000064Y-126049658D01*
X164500000Y-122500000D02*
X163782564Y-123217436D01*
X163782564Y-124279134D02*
X164000064Y-124496634D01*
X165500000Y-122250000D02*
X165250000Y-122500000D01*
X163782564Y-123217436D02*
X163782564Y-124279134D01*
%TO.N,Net-(CN1-1-Pad3)*%
X146250000Y-117250000D02*
X146250000Y-118500000D01*
%TO.N,Net-(CN1-1-Pad5)*%
X146750128Y-120999872D02*
X146750128Y-118500000D01*
X146750000Y-121000000D02*
X146750128Y-120999872D01*
%TO.N,Net-(CN1-1-Pad7)*%
X147250000Y-118500000D02*
X147250000Y-117250000D01*
%TO.N,Net-(CN1-1-Pad69)*%
X162750000Y-117000000D02*
X162750128Y-117000128D01*
X162750128Y-117000128D02*
X162750128Y-118500000D01*
%TO.N,Net-(CN1-1-Pad71)*%
X163250000Y-119300000D02*
X163250000Y-118500000D01*
X163700000Y-119750000D02*
X163250000Y-119300000D01*
%TO.N,Net-(CN1-1-Pad73)*%
X163750000Y-117000000D02*
X163750128Y-117000128D01*
X163750128Y-117000128D02*
X163750128Y-118500000D01*
%TO.N,GND*%
X146600000Y-90400000D02*
X147175000Y-89825000D01*
X157200762Y-99079566D02*
X157200762Y-99100762D01*
X155800711Y-97679515D02*
X155800711Y-97700711D01*
X145000000Y-108200152D02*
X145000000Y-106350000D01*
X147175000Y-89800000D02*
X147175000Y-88200000D01*
X148400406Y-91359982D02*
X147359982Y-91359982D01*
X147310718Y-91310718D02*
X147342873Y-91310718D01*
X144000000Y-106300000D02*
X143900000Y-106300000D01*
X145000000Y-106350000D02*
X145050000Y-106300000D01*
X157200762Y-100479616D02*
X157200762Y-100499238D01*
X154400660Y-97679515D02*
X154400660Y-97699340D01*
X155800711Y-99079566D02*
X155800711Y-99100711D01*
X154400660Y-99079566D02*
X154400660Y-99100660D01*
X155800711Y-97679515D02*
X155800711Y-97699289D01*
X155800711Y-100479616D02*
X155800711Y-100499289D01*
X154400660Y-97679515D02*
X154400660Y-97599340D01*
X147175000Y-89825000D02*
X147175000Y-89800000D01*
X148000000Y-111050000D02*
X148000000Y-109900000D01*
X147359982Y-91359982D02*
X147310718Y-91310718D01*
X155800711Y-97679515D02*
X155800711Y-97599289D01*
X164840018Y-91359982D02*
X164800000Y-91400000D01*
X154400660Y-99079566D02*
X154400660Y-99099340D01*
X166200000Y-91359982D02*
X164840018Y-91359982D01*
X145000000Y-96600152D02*
X145000000Y-95300000D01*
X145025000Y-92400000D02*
X144000000Y-92400000D01*
X146600000Y-90800000D02*
X146600000Y-90400000D01*
X145050000Y-106300000D02*
X144000000Y-106300000D01*
X157200762Y-97679515D02*
X157200762Y-97700762D01*
%TO.N,+3V3*%
X149470015Y-92629985D02*
X148400406Y-92629985D01*
X145750000Y-121000000D02*
X145750128Y-120999872D01*
X149500000Y-92600000D02*
X149470015Y-92629985D01*
X144975000Y-94000000D02*
X143900000Y-94000000D01*
X145625000Y-89800000D02*
X145625000Y-90675000D01*
X165200000Y-114650000D02*
X165200000Y-115600000D01*
X145750128Y-120999872D02*
X145750128Y-118500000D01*
X145625000Y-89800000D02*
X145625000Y-88200000D01*
X145600000Y-90700000D02*
X145625000Y-90675000D01*
%TO.N,EN*%
X146625000Y-92450000D02*
X146575000Y-92400000D01*
X146725013Y-93899987D02*
X148400406Y-93899987D01*
X146625000Y-94000000D02*
X146725013Y-93899987D01*
X146625000Y-94000000D02*
X146625000Y-92450000D01*
%TO.N,BOOT*%
X146099848Y-104199848D02*
X145000000Y-104199848D01*
X146600000Y-106300000D02*
X146600000Y-104700000D01*
X146600000Y-104700000D02*
X146099848Y-104199848D01*
%TO.N,EN*%
X145000000Y-115799848D02*
X145000000Y-114900000D01*
X147300000Y-112600000D02*
X148000000Y-112600000D01*
X145000000Y-114900000D02*
X147300000Y-112600000D01*
%TO.N,IO4*%
X148400406Y-95169990D02*
X149730010Y-95169990D01*
X149730010Y-95169990D02*
X153000000Y-91900000D01*
X158000064Y-124249936D02*
X158250000Y-124000000D01*
X158000064Y-126049658D02*
X158000064Y-124249936D01*
X153000000Y-91900000D02*
X160800000Y-91900000D01*
%TO.N,IO5*%
X157500191Y-124327439D02*
X157762000Y-124065630D01*
X157762000Y-123750000D02*
X157762000Y-123488000D01*
X149600000Y-96400000D02*
X148440398Y-96400000D01*
X157762000Y-123488000D02*
X158000000Y-123250000D01*
X148440398Y-96400000D02*
X148400406Y-96439992D01*
X157762000Y-124065630D02*
X157762000Y-123750000D01*
X157500191Y-126049658D02*
X157500191Y-124327439D01*
%TO.N,IO1*%
X156250000Y-115950000D02*
X156250000Y-118500000D01*
X161170015Y-92629985D02*
X166200000Y-92629985D01*
X156300000Y-115900000D02*
X156250000Y-115950000D01*
X156250000Y-120000000D02*
X156250000Y-118500000D01*
X161100000Y-92700000D02*
X161170015Y-92629985D01*
%TO.N,IO6*%
X157000064Y-124468356D02*
X157508000Y-123960420D01*
X157508000Y-123250000D02*
X157508000Y-122742000D01*
X157508000Y-123960420D02*
X157508000Y-123750000D01*
X157000064Y-126049658D02*
X157000064Y-124468356D01*
X157508000Y-123750000D02*
X157508000Y-123250000D01*
X149600000Y-97800000D02*
X148490411Y-97800000D01*
X157508000Y-122742000D02*
X157750000Y-122500000D01*
X148490411Y-97800000D02*
X148400406Y-97709995D01*
%TO.N,IO2*%
X156750128Y-118500000D02*
X156750128Y-117250128D01*
X161100013Y-93899987D02*
X161100000Y-93900000D01*
X166200000Y-93899987D02*
X161100013Y-93899987D01*
X156750128Y-117250128D02*
X156750000Y-117250000D01*
%TO.N,IO7*%
X156500191Y-124609019D02*
X157004000Y-124105210D01*
X148400406Y-98979997D02*
X149579997Y-98979997D01*
X149579997Y-98979997D02*
X149600000Y-99000000D01*
X157004000Y-124105210D02*
X157254000Y-123855210D01*
X157254000Y-123855210D02*
X157254000Y-123000000D01*
X157254000Y-121996000D02*
X157500000Y-121750000D01*
X157254000Y-123000000D02*
X157254000Y-121996000D01*
X156500191Y-126049658D02*
X156500191Y-124609019D01*
%TO.N,TXD0*%
X161100000Y-95100000D02*
X161169990Y-95169990D01*
X157250000Y-118500000D02*
X157250000Y-119500000D01*
X157250000Y-116000000D02*
X157250000Y-118500000D01*
X161169990Y-95169990D02*
X166200000Y-95169990D01*
%TO.N,IO15*%
X148450406Y-100300000D02*
X148400406Y-100250000D01*
X149600000Y-100300000D02*
X148450406Y-100300000D01*
X156000064Y-126049658D02*
X156000064Y-124749936D01*
X156000064Y-124749936D02*
X157000000Y-123750000D01*
X157000000Y-123750000D02*
X157000000Y-121250000D01*
%TO.N,RXD0*%
X157750000Y-117250000D02*
X157750000Y-118499872D01*
X161839992Y-96439992D02*
X166200000Y-96439992D01*
X157750000Y-118499872D02*
X157750128Y-118500000D01*
X161800000Y-96400000D02*
X161839992Y-96439992D01*
%TO.N,IO16*%
X149600000Y-101500000D02*
X148420408Y-101500000D01*
X155500191Y-125330025D02*
X155746064Y-125084152D01*
X155746064Y-125084152D02*
X155746064Y-124644726D01*
X156500000Y-123890790D02*
X156500000Y-123500000D01*
X148420408Y-101500000D02*
X148400406Y-101520002D01*
X155746064Y-124644726D02*
X156500000Y-123890790D01*
X155500191Y-126049912D02*
X155500191Y-125330025D01*
%TO.N,IO42*%
X158250000Y-116550000D02*
X158500000Y-116300000D01*
X161990005Y-97709995D02*
X166200000Y-97709995D01*
X161900000Y-97800000D02*
X161990005Y-97709995D01*
X158500000Y-116300000D02*
X158600000Y-116300000D01*
X158250000Y-118500000D02*
X158250000Y-116550000D01*
X158250000Y-119750000D02*
X158250000Y-118500000D01*
%TO.N,IO17*%
X148410401Y-102800000D02*
X148400406Y-102790005D01*
X149600000Y-102800000D02*
X148410401Y-102800000D01*
X155000000Y-124800000D02*
X155000064Y-124800064D01*
X155000064Y-124800064D02*
X155000064Y-126049912D01*
%TO.N,IO41*%
X158750000Y-117000000D02*
X158750128Y-117000128D01*
X161900000Y-98900000D02*
X161979997Y-98979997D01*
X158750128Y-117000128D02*
X158750128Y-118500000D01*
X161979997Y-98979997D02*
X166200000Y-98979997D01*
%TO.N,IO18*%
X148440399Y-104100000D02*
X148400406Y-104060007D01*
X156000000Y-124000000D02*
X155734064Y-124265936D01*
X154500191Y-124699809D02*
X154500191Y-126049912D01*
X149600000Y-104100000D02*
X148440399Y-104100000D01*
X155734064Y-124265936D02*
X154934064Y-124265936D01*
X156000000Y-122400000D02*
X156000000Y-124000000D01*
X154934064Y-124265936D02*
X154500191Y-124699809D01*
%TO.N,IO40*%
X161950000Y-100250000D02*
X166200000Y-100250000D01*
X159250000Y-118500000D02*
X159250000Y-116750000D01*
X159250000Y-116750000D02*
X159800000Y-116200000D01*
X161900000Y-100200000D02*
X161950000Y-100250000D01*
X159250000Y-119750000D02*
X159250000Y-118500000D01*
%TO.N,IO8*%
X155588064Y-124011936D02*
X154788064Y-124011936D01*
X155746000Y-122946000D02*
X155746000Y-123854000D01*
X154000064Y-124799936D02*
X154000064Y-126049912D01*
X155746000Y-123854000D02*
X155588064Y-124011936D01*
X155200000Y-122400000D02*
X155746000Y-122946000D01*
X154788064Y-124011936D02*
X154000064Y-124799936D01*
X148430416Y-105300000D02*
X148400406Y-105330010D01*
X149600000Y-105300000D02*
X148430416Y-105300000D01*
%TO.N,IO39*%
X161900000Y-101500000D02*
X161920002Y-101520002D01*
X159750128Y-117000128D02*
X159750128Y-118500000D01*
X159750000Y-117000000D02*
X159750128Y-117000128D01*
X161920002Y-101520002D02*
X166200000Y-101520002D01*
%TO.N,IO19*%
X153500191Y-124699809D02*
X153500191Y-126049912D01*
X154626023Y-123573977D02*
X153500191Y-124699809D01*
X149600000Y-106600000D02*
X148400419Y-106600000D01*
X155173977Y-123573977D02*
X154626023Y-123573977D01*
X148400419Y-106600000D02*
X148400406Y-106600013D01*
%TO.N,IO38*%
X160250000Y-118499746D02*
X160250000Y-116750000D01*
X160250000Y-119500000D02*
X160250000Y-118499746D01*
X162009995Y-102790005D02*
X161900000Y-102900000D01*
X160250000Y-116750000D02*
X160800000Y-116200000D01*
X166200000Y-102790005D02*
X162009995Y-102790005D01*
%TO.N,IO20*%
X153000064Y-124749936D02*
X153000064Y-126049912D01*
X150000000Y-107800000D02*
X149929985Y-107870015D01*
X149929985Y-107870015D02*
X148400406Y-107870015D01*
X154762500Y-122987500D02*
X153000064Y-124749936D01*
%TO.N,IO37*%
X161939993Y-104060007D02*
X166200000Y-104060007D01*
X161900000Y-104100000D02*
X161939993Y-104060007D01*
X160750128Y-117000128D02*
X160750128Y-118499746D01*
X160750000Y-117000000D02*
X160750128Y-117000128D01*
%TO.N,IO45*%
X164285344Y-110314656D02*
X164285344Y-109269304D01*
X162608448Y-111254000D02*
X163262448Y-110600000D01*
X157165000Y-112635000D02*
X159352344Y-112635000D01*
X160733344Y-111254000D02*
X162608448Y-111254000D01*
X155750000Y-117250000D02*
X155750000Y-114050000D01*
X159352344Y-112635000D02*
X160733344Y-111254000D01*
X155750000Y-114050000D02*
X157165000Y-112635000D01*
X163262448Y-110600000D02*
X164000000Y-110600000D01*
X155750000Y-118499872D02*
X155750128Y-118500000D01*
X155750000Y-117250000D02*
X155750000Y-118499872D01*
X164000000Y-110600000D02*
X164285344Y-110314656D01*
%TO.N,IO36*%
X161250000Y-118499746D02*
X161250000Y-116650000D01*
X162200000Y-105400000D02*
X162269990Y-105330010D01*
X161250000Y-120500000D02*
X161250000Y-118499746D01*
X161250000Y-116650000D02*
X161800000Y-116100000D01*
X162269990Y-105330010D02*
X166200000Y-105330010D01*
%TO.N,IO48*%
X157004240Y-112308000D02*
X159216896Y-112308000D01*
X155250000Y-118500000D02*
X155250000Y-114062240D01*
X155250000Y-114062240D02*
X157004240Y-112308000D01*
X162473000Y-110927000D02*
X163015341Y-110384659D01*
X163015341Y-110384659D02*
X163015341Y-109269304D01*
X159216896Y-112308000D02*
X160597896Y-110927000D01*
X155250000Y-120000000D02*
X155250000Y-118500000D01*
X160597896Y-110927000D02*
X162473000Y-110927000D01*
%TO.N,IO35*%
X161750000Y-117000000D02*
X161750128Y-117000128D01*
X162699987Y-106600013D02*
X166200000Y-106600013D01*
X161750128Y-117000128D02*
X161750128Y-118499746D01*
X162600000Y-106700000D02*
X162699987Y-106600013D01*
%TO.N,IO47*%
X154923000Y-115791470D02*
X154923000Y-113926792D01*
X154750000Y-115964470D02*
X154923000Y-115791470D01*
X161459210Y-110600000D02*
X161745339Y-110313871D01*
X154923000Y-113926792D02*
X156868792Y-111981000D01*
X154750000Y-118499872D02*
X154750128Y-118500000D01*
X159081448Y-111981000D02*
X160462448Y-110600000D01*
X154750000Y-117250000D02*
X154750000Y-118499872D01*
X160462448Y-110600000D02*
X161459210Y-110600000D01*
X161745339Y-110313871D02*
X161745339Y-109269304D01*
X154750000Y-117250000D02*
X154750000Y-115964470D01*
X156868792Y-111981000D02*
X159081448Y-111981000D01*
%TO.N,BOOT*%
X163100000Y-107900000D02*
X163129985Y-107870015D01*
X162250000Y-118500000D02*
X162250000Y-116650000D01*
X163160605Y-120560605D02*
X163160605Y-120460605D01*
X163160605Y-120460605D02*
X162250000Y-119550000D01*
X163129985Y-107870015D02*
X166200000Y-107870015D01*
X162250000Y-119550000D02*
X162250000Y-118500000D01*
X162250000Y-116650000D02*
X162800000Y-116100000D01*
%TO.N,IO21*%
X154250000Y-118500000D02*
X154250000Y-114137344D01*
X160475336Y-110124664D02*
X160475336Y-109269304D01*
X154250000Y-114137344D02*
X156733344Y-111654000D01*
X156733344Y-111654000D02*
X158946000Y-111654000D01*
X158946000Y-111654000D02*
X160475336Y-110124664D01*
X154250000Y-120000000D02*
X154250000Y-118500000D01*
%TO.N,IO14*%
X159205334Y-110384488D02*
X159205334Y-109269304D01*
X153750000Y-114174896D02*
X156597896Y-111327000D01*
X153750000Y-117250000D02*
X153750000Y-114174896D01*
X158262822Y-111327000D02*
X159205334Y-110384488D01*
X153750000Y-118499872D02*
X153750128Y-118500000D01*
X153750000Y-117250000D02*
X153750000Y-118499872D01*
X156597896Y-111327000D02*
X158262822Y-111327000D01*
%TO.N,IO13*%
X153250000Y-114212448D02*
X156462448Y-111000000D01*
X157717196Y-111000000D02*
X157935331Y-110781865D01*
X153250000Y-119600000D02*
X153250000Y-118500000D01*
X156462448Y-111000000D02*
X157717196Y-111000000D01*
X157935331Y-110781865D02*
X157935331Y-109269304D01*
X153250000Y-118500000D02*
X153250000Y-114212448D01*
%TO.N,IO12*%
X152750000Y-117250000D02*
X152750000Y-118499872D01*
X156665329Y-110334671D02*
X156665329Y-109269304D01*
X152750000Y-114250000D02*
X156665329Y-110334671D01*
X152750000Y-118499872D02*
X152750128Y-118500000D01*
X152750000Y-117250000D02*
X152750000Y-114250000D01*
%TO.N,IO11*%
X152250000Y-118500000D02*
X152250000Y-113750000D01*
X155395326Y-110604674D02*
X155395326Y-109269304D01*
X152250000Y-118500000D02*
X152250000Y-120600000D01*
X152250000Y-113750000D02*
X155395326Y-110604674D01*
%TO.N,IO10*%
X151750000Y-117250000D02*
X151750000Y-113250000D01*
X154125324Y-110874676D02*
X154125324Y-109269304D01*
X151750000Y-117250000D02*
X151750000Y-118499872D01*
X151750000Y-113250000D02*
X154125324Y-110874676D01*
X151750000Y-118499872D02*
X151750128Y-118500000D01*
%TO.N,IO9*%
X152855321Y-110144679D02*
X152855321Y-109269304D01*
X151250000Y-118500000D02*
X151250000Y-111750000D01*
X151250000Y-120000000D02*
X151250000Y-118500000D01*
X151250000Y-111750000D02*
X152855321Y-110144679D01*
%TO.N,IO46*%
X150750000Y-117000000D02*
X150750000Y-111250000D01*
X150750000Y-117000000D02*
X150750000Y-118499872D01*
X150750000Y-111250000D02*
X151585319Y-110414681D01*
X151585319Y-110414681D02*
X151585319Y-109269304D01*
X150750000Y-118499872D02*
X150750128Y-118500000D01*
%TO.N,IO3*%
X150700000Y-110500000D02*
X150700000Y-109653988D01*
X150700000Y-109653988D02*
X150315316Y-109269304D01*
X148250000Y-117250000D02*
X148250000Y-118500000D01*
%TO.N,Net-(CN1-1-Pad9)*%
X147750128Y-118500000D02*
X147750128Y-120999872D01*
X147750128Y-120999872D02*
X147750000Y-121000000D01*
%TO.N,Net-(CN1-Pad20)*%
X150500191Y-125250191D02*
X150500191Y-126049912D01*
X149250000Y-124000000D02*
X150500191Y-125250191D01*
%TO.N,Net-(CN1-20-Pad22)*%
X149500000Y-123000000D02*
X151000064Y-124500064D01*
X151000064Y-124500064D02*
X151000064Y-126049912D01*
%TO.N,Net-(CN1-20-Pad24)*%
X149750000Y-122250000D02*
X151500191Y-124000191D01*
X151500191Y-124000191D02*
X151500191Y-126049912D01*
%TO.N,Net-(CN1-20-Pad26)*%
X152000064Y-123800064D02*
X152000064Y-126049912D01*
X150000000Y-121800000D02*
X152000064Y-123800064D01*
X150000000Y-121500000D02*
X150000000Y-121800000D01*
%TO.N,Net-(CN1-20-Pad28)*%
X152500191Y-123300191D02*
X152500191Y-126049912D01*
X150800000Y-121600000D02*
X152500191Y-123300191D01*
%TO.N,Net-(CN1-20-Pad52)*%
X158500191Y-124750191D02*
X158500000Y-124750000D01*
X158500191Y-126049658D02*
X158500191Y-124750191D01*
%TO.N,Net-(CN1-20-Pad54)*%
X159000064Y-122999936D02*
X159000064Y-126049658D01*
X159500000Y-122500000D02*
X159000064Y-122999936D01*
%TO.N,Net-(CN1-20-Pad56)*%
X160000000Y-123000000D02*
X159500191Y-123499809D01*
X159500191Y-123499809D02*
X159500191Y-126049658D01*
%TO.N,Net-(LED1-+)*%
X165199467Y-113000533D02*
X165200000Y-113000000D01*
X163196571Y-113000533D02*
X165199467Y-113000533D01*
%TD*%
%TA.AperFunction,Conductor*%
%TO.N,GND*%
G36*
X158143039Y-96219685D02*
G01*
X158188794Y-96272489D01*
X158200000Y-96324000D01*
X158200000Y-101576000D01*
X158180315Y-101643039D01*
X158127511Y-101688794D01*
X158076000Y-101700000D01*
X153524000Y-101700000D01*
X153456961Y-101680315D01*
X153411206Y-101627511D01*
X153400000Y-101576000D01*
X153400000Y-96324000D01*
X153419685Y-96256961D01*
X153472489Y-96211206D01*
X153524000Y-96200000D01*
X158076000Y-96200000D01*
X158143039Y-96219685D01*
G37*
%TD.AperFunction*%
%TD*%
M02*
