%TF.GenerationSoftware,KiCad,Pcbnew,7.0.5*%
%TF.CreationDate,2023-09-25T03:15:30-05:00*%
%TF.ProjectId,Chimera_Nimean,4368696d-6572-4615-9f4e-696d65616e2e,rev?*%
%TF.SameCoordinates,Original*%
%TF.FileFunction,Copper,L4,Bot*%
%TF.FilePolarity,Positive*%
%FSLAX46Y46*%
G04 Gerber Fmt 4.6, Leading zero omitted, Abs format (unit mm)*
G04 Created by KiCad (PCBNEW 7.0.5) date 2023-09-25 03:15:30*
%MOMM*%
%LPD*%
G01*
G04 APERTURE LIST*
%TA.AperFunction,ConnectorPad*%
%ADD10C,6.400000*%
%TD*%
%TA.AperFunction,ComponentPad*%
%ADD11C,3.600000*%
%TD*%
%TA.AperFunction,SMDPad,CuDef*%
%ADD12R,0.350000X1.950000*%
%TD*%
%TA.AperFunction,ViaPad*%
%ADD13C,0.330000*%
%TD*%
%TA.AperFunction,Conductor*%
%ADD14C,0.127000*%
%TD*%
G04 APERTURE END LIST*
D10*
%TO.P,H1,1*%
%TO.N,N/C*%
X155000000Y-71000000D03*
D11*
X155000000Y-71000000D03*
%TD*%
D12*
%TO.P,U2,2,1*%
%TO.N,Net-(CN1-1-Pad73)*%
X164000000Y-128575000D03*
%TO.P,U2,4,1*%
%TO.N,Net-(CN1-1-Pad71)*%
X163500000Y-128575000D03*
%TO.P,U2,6,1*%
%TO.N,Net-(CN1-1-Pad69)*%
X163000000Y-128575000D03*
%TO.P,U2,8,1*%
%TO.N,BOOT*%
X162500000Y-128575000D03*
%TO.P,U2,10,1*%
%TO.N,IO35*%
X162000000Y-128575000D03*
%TO.P,U2,12,12*%
%TO.N,IO36*%
X161500000Y-128575000D03*
%TO.P,U2,14,14*%
%TO.N,IO37*%
X161000000Y-128575000D03*
%TO.P,U2,16,16*%
%TO.N,IO38*%
X160500000Y-128575000D03*
%TO.P,U2,18,18*%
%TO.N,IO39*%
X160000000Y-128575000D03*
%TO.P,U2,20,20*%
%TO.N,IO40*%
X159500000Y-128575000D03*
%TO.P,U2,22,20*%
%TO.N,IO41*%
X159000000Y-128575000D03*
%TO.P,U2,24,20*%
%TO.N,IO42*%
X158500000Y-128575000D03*
%TO.P,U2,26,20*%
%TO.N,RXD0*%
X158000000Y-128575000D03*
%TO.P,U2,28,20*%
%TO.N,TXD0*%
X157500000Y-128575000D03*
%TO.P,U2,30,20*%
%TO.N,IO2*%
X157000000Y-128575000D03*
%TO.P,U2,32,20*%
%TO.N,IO1*%
X156500000Y-128575000D03*
%TO.P,U2,34,20*%
%TO.N,IO45*%
X156000000Y-128575000D03*
%TO.P,U2,36,20*%
%TO.N,IO48*%
X155500000Y-128575000D03*
%TO.P,U2,38,20*%
%TO.N,IO47*%
X155000000Y-128575000D03*
%TO.P,U2,40,20*%
%TO.N,IO21*%
X154500000Y-128575000D03*
%TO.P,U2,42,20*%
%TO.N,IO14*%
X154000000Y-128575000D03*
%TO.P,U2,44,20*%
%TO.N,IO13*%
X153500000Y-128575000D03*
%TO.P,U2,46,20*%
%TO.N,IO12*%
X153000000Y-128575000D03*
%TO.P,U2,48,20*%
%TO.N,IO11*%
X152500000Y-128575000D03*
%TO.P,U2,50,20*%
%TO.N,IO10*%
X152000000Y-128575000D03*
%TO.P,U2,52,20*%
%TO.N,IO9*%
X151500000Y-128575000D03*
%TO.P,U2,54,20*%
%TO.N,IO46*%
X151000000Y-128575000D03*
%TO.P,U2,56,20*%
%TO.N,IO3*%
X150500000Y-128575000D03*
%TO.P,U2,58,20*%
%TO.N,Net-(CN1-1-Pad9)*%
X150000000Y-128575000D03*
%TO.P,U2,68,1*%
%TO.N,Net-(CN1-1-Pad7)*%
X147500000Y-128575000D03*
%TO.P,U2,70,1*%
%TO.N,Net-(CN1-1-Pad5)*%
X147000000Y-128575000D03*
%TO.P,U2,72,1*%
%TO.N,Net-(CN1-1-Pad3)*%
X146500000Y-128575000D03*
%TO.P,U2,74,1*%
%TO.N,+3V3*%
X146000000Y-128575000D03*
%TD*%
D13*
%TO.N,GND*%
X164300000Y-116300000D03*
%TO.N,BOOT*%
X146400000Y-107800000D03*
%TO.N,Net-(CN1-1-Pad2)*%
X145250000Y-121750000D03*
%TO.N,Net-(CN1-1-Pad4)*%
X146000000Y-121750000D03*
%TO.N,Net-(CN1-1-Pad6)*%
X148000000Y-121750000D03*
%TO.N,Net-(CN1-1-Pad8)*%
X148000000Y-122500000D03*
%TO.N,Net-(CN1-1-Pad10)*%
X148000000Y-123250000D03*
%TO.N,Net-(CN1-20-Pad58)*%
X160500000Y-123500000D03*
%TO.N,Net-(CN1-20-Pad60)*%
X160500191Y-124250000D03*
%TO.N,Net-(CN1-20-Pad62)*%
X161000064Y-124750000D03*
%TO.N,Net-(CN1-20-Pad64)*%
X162200000Y-120600000D03*
%TO.N,Net-(CN1-1-Pad66)*%
X162900000Y-121300000D03*
%TO.N,Net-(CN1-1-Pad68)*%
X163600000Y-121900000D03*
%TO.N,Net-(CN1-1-Pad70)*%
X164250000Y-121500000D03*
%TO.N,Net-(CN1-1-Pad72)*%
X164750000Y-122000000D03*
%TO.N,Net-(CN1-1-Pad74)*%
X165500000Y-122250000D03*
%TO.N,Net-(CN1-1-Pad3)*%
X146250000Y-117250000D03*
%TO.N,Net-(CN1-1-Pad5)*%
X146750000Y-121000000D03*
%TO.N,Net-(CN1-1-Pad7)*%
X147250000Y-117250000D03*
%TO.N,Net-(CN1-1-Pad69)*%
X162750000Y-117000000D03*
%TO.N,Net-(CN1-1-Pad71)*%
X163700000Y-119750000D03*
%TO.N,Net-(CN1-1-Pad73)*%
X163750000Y-117000000D03*
%TO.N,GND*%
X153700000Y-98400000D03*
X144000000Y-92400000D03*
X156500000Y-101200000D03*
X155100000Y-101200000D03*
X155100000Y-96900000D03*
X143900000Y-106300000D03*
X156500000Y-96900000D03*
X145000000Y-95300000D03*
X153700000Y-99800000D03*
X157900000Y-99800000D03*
X148000000Y-109900000D03*
X157900000Y-98400000D03*
X164800000Y-91400000D03*
X156500000Y-98400000D03*
X155100000Y-99800000D03*
X155100000Y-98400000D03*
X146600000Y-90800000D03*
X156500000Y-99800000D03*
X147342873Y-91310718D03*
X163800000Y-115400000D03*
%TO.N,+3V3*%
X149500000Y-92600000D03*
X165200000Y-115600000D03*
X145750000Y-121000000D03*
X145625000Y-90675000D03*
X143900000Y-94000000D03*
%TO.N,IO4*%
X160800000Y-91900000D03*
X158250000Y-124000000D03*
%TO.N,IO5*%
X149600000Y-96400000D03*
X158000000Y-123250000D03*
%TO.N,IO1*%
X156250000Y-120000000D03*
X156300000Y-115900000D03*
X161100000Y-92700000D03*
%TO.N,IO6*%
X157750000Y-122500000D03*
X149600000Y-97800000D03*
%TO.N,IO2*%
X161100000Y-93900000D03*
X156750000Y-117250000D03*
%TO.N,IO7*%
X149600000Y-99000000D03*
X157500000Y-121750000D03*
%TO.N,TXD0*%
X161100000Y-95100000D03*
X157250000Y-119500000D03*
X157250000Y-116000000D03*
%TO.N,IO15*%
X157000000Y-121250000D03*
X149600000Y-100300000D03*
%TO.N,RXD0*%
X161800000Y-96400000D03*
X157750000Y-117250000D03*
%TO.N,IO16*%
X149600000Y-101500000D03*
X156500000Y-123500000D03*
%TO.N,IO42*%
X161900000Y-97800000D03*
X158600000Y-116300000D03*
X158250000Y-119750000D03*
%TO.N,IO17*%
X155000000Y-124800000D03*
X149600000Y-102800000D03*
%TO.N,IO41*%
X161900000Y-98900000D03*
X158750000Y-117000000D03*
%TO.N,IO18*%
X149600000Y-104100000D03*
X156000000Y-122400000D03*
%TO.N,IO40*%
X159800000Y-116200000D03*
X161900000Y-100200000D03*
X159250000Y-119750000D03*
%TO.N,IO8*%
X155200000Y-122400000D03*
X149600000Y-105300000D03*
%TO.N,IO39*%
X159750000Y-117000000D03*
X161900000Y-101500000D03*
%TO.N,IO19*%
X149600000Y-106600000D03*
X155173977Y-123573977D03*
%TO.N,IO38*%
X160800000Y-116200000D03*
X161900000Y-102900000D03*
X160250000Y-119500000D03*
%TO.N,IO20*%
X150000000Y-107800000D03*
X154762500Y-122987500D03*
%TO.N,IO37*%
X160750000Y-117000000D03*
X161900000Y-104100000D03*
%TO.N,IO45*%
X155750000Y-117250000D03*
%TO.N,IO36*%
X161800000Y-116100000D03*
X161250000Y-120500000D03*
X162200000Y-105400000D03*
%TO.N,IO48*%
X155250000Y-120000000D03*
%TO.N,IO35*%
X162600000Y-106700000D03*
X161750000Y-117000000D03*
%TO.N,IO47*%
X154750000Y-117250000D03*
%TO.N,BOOT*%
X162800000Y-116100000D03*
X163160605Y-120560605D03*
X163100000Y-107900000D03*
%TO.N,IO21*%
X154250000Y-120000000D03*
%TO.N,IO14*%
X153750000Y-117250000D03*
%TO.N,IO13*%
X153250000Y-119600000D03*
%TO.N,IO12*%
X152750000Y-117250000D03*
%TO.N,IO11*%
X152250000Y-120600000D03*
%TO.N,IO10*%
X151750000Y-117250000D03*
%TO.N,IO9*%
X151250000Y-120000000D03*
%TO.N,IO46*%
X150750000Y-117000000D03*
%TO.N,IO3*%
X150700000Y-110500000D03*
X148250000Y-117250000D03*
%TO.N,Net-(CN1-1-Pad9)*%
X147750000Y-121000000D03*
%TO.N,Net-(CN1-Pad20)*%
X149250000Y-124000000D03*
%TO.N,Net-(CN1-20-Pad22)*%
X149500000Y-123000000D03*
%TO.N,Net-(CN1-20-Pad24)*%
X149750000Y-122250000D03*
%TO.N,Net-(CN1-20-Pad26)*%
X150000000Y-121500000D03*
%TO.N,Net-(CN1-20-Pad28)*%
X150800000Y-121600000D03*
%TO.N,Net-(CN1-20-Pad52)*%
X158500000Y-124750000D03*
%TO.N,Net-(CN1-20-Pad54)*%
X159500000Y-122500000D03*
%TO.N,Net-(CN1-20-Pad56)*%
X160000000Y-123000000D03*
%TD*%
D14*
%TO.N,Net-(CN1-1-Pad9)*%
X150000000Y-126964420D02*
X150000000Y-129475000D01*
X147504000Y-124468420D02*
X150000000Y-126964420D01*
X147504000Y-121246000D02*
X147504000Y-124468420D01*
X147750000Y-121000000D02*
X147504000Y-121246000D01*
%TO.N,IO3*%
X148250000Y-120500000D02*
X148250000Y-117250000D01*
X148500000Y-120750000D02*
X148250000Y-120500000D01*
X148500000Y-125105210D02*
X148500000Y-120750000D01*
X150194790Y-126054000D02*
X149448790Y-126054000D01*
X150500000Y-126359210D02*
X150194790Y-126054000D01*
X150500000Y-129475000D02*
X150500000Y-126359210D01*
X149448790Y-126054000D02*
X148500000Y-125105210D01*
%TO.N,IO46*%
X150996000Y-126496000D02*
X150996000Y-126855210D01*
X150300000Y-125800000D02*
X150996000Y-126496000D01*
X149554000Y-125800000D02*
X150300000Y-125800000D01*
X148754000Y-118996000D02*
X148754000Y-125000000D01*
X150996000Y-126855210D02*
X151000000Y-126859210D01*
X151000000Y-126859210D02*
X151000000Y-129475000D01*
X150750000Y-117000000D02*
X148754000Y-118996000D01*
X148754000Y-125000000D02*
X149554000Y-125800000D01*
%TO.N,Net-(CN1-1-Pad73)*%
X167000000Y-124700000D02*
X167000000Y-120250000D01*
X164992000Y-125508000D02*
X166192000Y-125508000D01*
X164600000Y-125900000D02*
X164992000Y-125508000D01*
X164000000Y-126777630D02*
X164600000Y-126177630D01*
X164600000Y-126177630D02*
X164600000Y-125900000D01*
X164000000Y-129475000D02*
X164000000Y-126777630D01*
X166192000Y-125508000D02*
X167000000Y-124700000D01*
X167000000Y-120250000D02*
X163750000Y-117000000D01*
%TO.N,Net-(CN1-1-Pad71)*%
X163500000Y-126918420D02*
X163500000Y-129475000D01*
X164684815Y-125254000D02*
X164308000Y-125630815D01*
X164308000Y-126110420D02*
X163500000Y-126918420D01*
X166064420Y-125254000D02*
X164684815Y-125254000D01*
X166746000Y-124572420D02*
X166064420Y-125254000D01*
X166746000Y-120996000D02*
X166746000Y-124572420D01*
X165500000Y-119750000D02*
X166746000Y-120996000D01*
X164308000Y-125630815D02*
X164308000Y-126110420D01*
X163700000Y-119750000D02*
X165500000Y-119750000D01*
%TO.N,Net-(CN1-1-Pad69)*%
X162750000Y-119450000D02*
X162750000Y-117000000D01*
X163606605Y-120306605D02*
X162750000Y-119450000D01*
X165697395Y-120306605D02*
X163606605Y-120306605D01*
X165600000Y-125000000D02*
X166492000Y-124108000D01*
X164054000Y-125525605D02*
X164579605Y-125000000D01*
X166492000Y-124108000D02*
X166492000Y-121101210D01*
X164054000Y-126005210D02*
X164054000Y-125525605D01*
X166492000Y-121101210D02*
X165697395Y-120306605D01*
X163000000Y-127059210D02*
X164054000Y-126005210D01*
X163000000Y-129475000D02*
X163000000Y-127059210D01*
X164579605Y-125000000D02*
X165600000Y-125000000D01*
%TO.N,BOOT*%
X163400000Y-120800000D02*
X163160605Y-120560605D01*
X163400000Y-121390435D02*
X163400000Y-120800000D01*
X163182500Y-121607935D02*
X163400000Y-121390435D01*
X163754000Y-125254000D02*
X163754000Y-122676370D01*
X163800000Y-125300000D02*
X163754000Y-125254000D01*
X163800000Y-125900000D02*
X163800000Y-125300000D01*
X162500000Y-127200000D02*
X163800000Y-125900000D01*
X163754000Y-122676370D02*
X163182500Y-122104870D01*
X162500000Y-129475000D02*
X162500000Y-127200000D01*
X163182500Y-122104870D02*
X163182500Y-121607935D01*
%TO.N,IO35*%
X161700000Y-117050000D02*
X161750000Y-117000000D01*
X161700000Y-120981580D02*
X161700000Y-117050000D01*
X163500000Y-122781580D02*
X161700000Y-120981580D01*
X162000000Y-127259210D02*
X163500000Y-125759210D01*
X162000000Y-129475000D02*
X162000000Y-127259210D01*
X163500000Y-125759210D02*
X163500000Y-122781580D01*
%TO.N,IO36*%
X163246000Y-122886790D02*
X161250000Y-120890790D01*
X163246000Y-125654000D02*
X163246000Y-122886790D01*
X161500000Y-129475000D02*
X161500000Y-127400000D01*
X161500000Y-127400000D02*
X163246000Y-125654000D01*
X161250000Y-120890790D02*
X161250000Y-120500000D01*
%TO.N,IO37*%
X162992000Y-122992000D02*
X160750000Y-120750000D01*
X162992000Y-125503759D02*
X162992000Y-122992000D01*
X161804259Y-126691500D02*
X162992000Y-125503759D01*
X160750000Y-120750000D02*
X160750000Y-117000000D01*
X161108500Y-126691500D02*
X161804259Y-126691500D01*
X161000000Y-126800000D02*
X161108500Y-126691500D01*
X161000000Y-129475000D02*
X161000000Y-126800000D01*
%TO.N,IO38*%
X160500000Y-126800000D02*
X160500000Y-129475000D01*
X160862500Y-126437500D02*
X160500000Y-126800000D01*
X161699049Y-126437500D02*
X160862500Y-126437500D01*
X162738000Y-125398549D02*
X161699049Y-126437500D01*
X162738000Y-123097210D02*
X162738000Y-125398549D01*
X160250000Y-120609210D02*
X162738000Y-123097210D01*
X160250000Y-119500000D02*
X160250000Y-120609210D01*
%TO.N,IO39*%
X159750000Y-120468420D02*
X159750000Y-117000000D01*
X162484000Y-123202420D02*
X159750000Y-120468420D01*
X160000000Y-126800000D02*
X160616500Y-126183500D01*
X160000000Y-129475000D02*
X160000000Y-126800000D01*
X160616500Y-126183500D02*
X161593839Y-126183500D01*
X161593839Y-126183500D02*
X162484000Y-125293339D01*
X162484000Y-125293339D02*
X162484000Y-123202420D01*
%TO.N,IO40*%
X162230000Y-123307630D02*
X159250000Y-120327630D01*
X162230000Y-125188129D02*
X162230000Y-123307630D01*
X159250000Y-120327630D02*
X159250000Y-119750000D01*
X161488629Y-125929500D02*
X162230000Y-125188129D01*
X160448130Y-125929500D02*
X161488629Y-125929500D01*
X159500000Y-126877630D02*
X160448130Y-125929500D01*
X159500000Y-129475000D02*
X159500000Y-126877630D01*
%TO.N,IO41*%
X158750000Y-120186840D02*
X158750000Y-117000000D01*
X161976000Y-123412840D02*
X158750000Y-120186840D01*
X161976000Y-125082919D02*
X161976000Y-123412840D01*
X160342920Y-125675500D02*
X161383419Y-125675500D01*
X159000000Y-127018420D02*
X160342920Y-125675500D01*
X161383419Y-125675500D02*
X161976000Y-125082919D01*
X159000000Y-129475000D02*
X159000000Y-127018420D01*
%TO.N,IO42*%
X161722000Y-124977709D02*
X161722000Y-123518050D01*
X160237710Y-125421500D02*
X161278209Y-125421500D01*
X161722000Y-123518050D02*
X158250000Y-120046050D01*
X158500000Y-127159210D02*
X160237710Y-125421500D01*
X161278209Y-125421500D02*
X161722000Y-124977709D01*
X158500000Y-129475000D02*
X158500000Y-127159210D01*
X158250000Y-120046050D02*
X158250000Y-119750000D01*
%TO.N,RXD0*%
X161468000Y-124872499D02*
X161468000Y-123623260D01*
X161172999Y-125167500D02*
X161468000Y-124872499D01*
X160132500Y-125167500D02*
X161172999Y-125167500D01*
X158000000Y-127300000D02*
X160132500Y-125167500D01*
X158000000Y-129475000D02*
X158000000Y-127300000D01*
X161468000Y-123623260D02*
X157750000Y-119905260D01*
X157750000Y-119905260D02*
X157750000Y-117250000D01*
%TO.N,IO45*%
X155750000Y-120250000D02*
X155750000Y-117250000D01*
X155250000Y-120750000D02*
X155750000Y-120250000D01*
X155864630Y-127162000D02*
X155567260Y-127162000D01*
X156000000Y-127297370D02*
X155864630Y-127162000D01*
X154936840Y-120750000D02*
X155250000Y-120750000D01*
X156000000Y-129475000D02*
X156000000Y-127297370D01*
X155567260Y-127162000D02*
X153536000Y-125130740D01*
X153536000Y-125130740D02*
X153536000Y-122150840D01*
X153536000Y-122150840D02*
X154936840Y-120750000D01*
%TO.N,IO1*%
X156250000Y-120109210D02*
X156250000Y-120000000D01*
X155336185Y-121023025D02*
X156250000Y-120109210D01*
X155023025Y-121023025D02*
X155336185Y-121023025D01*
X155672470Y-126908000D02*
X153790000Y-125025530D01*
X156108000Y-126908000D02*
X155672470Y-126908000D01*
X153790000Y-122256050D02*
X155023025Y-121023025D01*
X156500000Y-129475000D02*
X156500000Y-127300000D01*
X156500000Y-127300000D02*
X156108000Y-126908000D01*
X153790000Y-125025530D02*
X153790000Y-122256050D01*
%TO.N,IO2*%
X157000000Y-126900000D02*
X157000000Y-129475000D01*
X156754000Y-126654000D02*
X157000000Y-126900000D01*
X155777680Y-126654000D02*
X156754000Y-126654000D01*
X154044000Y-122361260D02*
X154044000Y-124920320D01*
X154044000Y-124920320D02*
X155777680Y-126654000D01*
X155077630Y-121327630D02*
X154044000Y-122361260D01*
X155390790Y-121327630D02*
X155077630Y-121327630D01*
X156250000Y-120750000D02*
X155968420Y-120750000D01*
X156750000Y-120250000D02*
X156250000Y-120750000D01*
X156750000Y-117250000D02*
X156750000Y-120250000D01*
X155968420Y-120750000D02*
X155390790Y-121327630D01*
%TO.N,TXD0*%
X157500000Y-126800000D02*
X157500000Y-129475000D01*
X157100000Y-126400000D02*
X157500000Y-126800000D01*
X155882890Y-126400000D02*
X157100000Y-126400000D01*
X155164470Y-121600000D02*
X154298000Y-122466470D01*
X154298000Y-124815110D02*
X155882890Y-126400000D01*
X156000000Y-121250000D02*
X155650000Y-121600000D01*
X156109210Y-121250000D02*
X156000000Y-121250000D01*
X154298000Y-122466470D02*
X154298000Y-124815110D01*
X155650000Y-121600000D02*
X155164470Y-121600000D01*
X157250000Y-120109210D02*
X156109210Y-121250000D01*
X157250000Y-119500000D02*
X157250000Y-120109210D01*
%TO.N,BOOT*%
X162582500Y-107382500D02*
X163100000Y-107900000D01*
X146817500Y-107382500D02*
X162582500Y-107382500D01*
X146400000Y-107800000D02*
X146817500Y-107382500D01*
%TO.N,Net-(CN1-1-Pad3)*%
X146742000Y-125258000D02*
X146742000Y-121742000D01*
X146500000Y-125500000D02*
X146742000Y-125258000D01*
X146250000Y-121250000D02*
X146250000Y-117250000D01*
X146500000Y-129475000D02*
X146500000Y-125500000D01*
X146742000Y-121742000D02*
X146250000Y-121250000D01*
%TO.N,Net-(CN1-1-Pad5)*%
X146996000Y-125488000D02*
X146996000Y-121246000D01*
X147000000Y-129475000D02*
X147000000Y-125492000D01*
X147000000Y-125492000D02*
X146996000Y-125488000D01*
X146996000Y-121246000D02*
X146750000Y-121000000D01*
%TO.N,Net-(CN1-1-Pad7)*%
X147250000Y-125382790D02*
X147500000Y-125632790D01*
X147250000Y-117250000D02*
X147250000Y-125382790D01*
X147500000Y-125632790D02*
X147500000Y-129475000D01*
%TO.N,+3V3*%
X146000000Y-123250000D02*
X144750000Y-122000000D01*
X146000000Y-129475000D02*
X146000000Y-123250000D01*
X145000000Y-121000000D02*
X145750000Y-121000000D01*
X144750000Y-121250000D02*
X145000000Y-121000000D01*
X144750000Y-122000000D02*
X144750000Y-121250000D01*
%TO.N,IO48*%
X154648025Y-126601975D02*
X153282000Y-125235950D01*
X153663815Y-121663815D02*
X155250000Y-120077630D01*
X155500000Y-127453950D02*
X154648025Y-126601975D01*
X155250000Y-120077630D02*
X155250000Y-120000000D01*
X153282000Y-125235950D02*
X153282000Y-125000000D01*
X153282000Y-125000000D02*
X153282000Y-124250000D01*
X153282000Y-122750000D02*
X153282000Y-122045630D01*
X155500000Y-129475000D02*
X155500000Y-127453950D01*
X153282000Y-122045630D02*
X153663815Y-121663815D01*
X153282000Y-124250000D02*
X153282000Y-122750000D01*
%TO.N,IO47*%
X153028000Y-125341160D02*
X153028000Y-124250000D01*
X154750000Y-118500000D02*
X154750000Y-117250000D01*
X154093420Y-126406580D02*
X153028000Y-125341160D01*
X155000000Y-129475000D02*
X155000000Y-127313160D01*
X153028000Y-121940420D02*
X153609210Y-121359210D01*
X154750000Y-120218420D02*
X154750000Y-118500000D01*
X153028000Y-124250000D02*
X153028000Y-121940420D01*
X155000000Y-127313160D02*
X154093420Y-126406580D01*
X153609210Y-121359210D02*
X154750000Y-120218420D01*
%TO.N,IO21*%
X154500000Y-129475000D02*
X154500000Y-127172370D01*
X152774000Y-124750000D02*
X152774000Y-121835210D01*
X154500000Y-127172370D02*
X153288815Y-125961185D01*
X154250000Y-120359210D02*
X154250000Y-120000000D01*
X152774000Y-125446370D02*
X152774000Y-124750000D01*
X152929605Y-121679605D02*
X154250000Y-120359210D01*
X152774000Y-121835210D02*
X152929605Y-121679605D01*
X153288815Y-125961185D02*
X152774000Y-125446370D01*
%TO.N,IO14*%
X152520000Y-121730000D02*
X153750000Y-120500000D01*
X154000000Y-129475000D02*
X154025000Y-129475000D01*
X154025000Y-129475000D02*
X154134500Y-129365500D01*
X154134500Y-129365500D02*
X154134500Y-127166080D01*
X153750000Y-120500000D02*
X153750000Y-117250000D01*
X152520000Y-125551580D02*
X152520000Y-121730000D01*
X154134500Y-127166080D02*
X152520000Y-125551580D01*
%TO.N,IO13*%
X153250000Y-119600000D02*
X153250000Y-120581630D01*
X152266000Y-125656790D02*
X153500000Y-126890790D01*
X153250000Y-120581630D02*
X152266000Y-121565630D01*
X153500000Y-126890790D02*
X153500000Y-129475000D01*
X152266000Y-121565630D02*
X152266000Y-125656790D01*
%TO.N,IO12*%
X152012000Y-125762000D02*
X152012000Y-125500000D01*
X152750000Y-126500000D02*
X152012000Y-125762000D01*
X152750000Y-120000000D02*
X152750000Y-117250000D01*
X153000000Y-129475000D02*
X153000000Y-126750000D01*
X152361210Y-121111210D02*
X152750000Y-120722420D01*
X153000000Y-126750000D02*
X152750000Y-126500000D01*
X152012000Y-121460420D02*
X152361210Y-121111210D01*
X152750000Y-120722420D02*
X152750000Y-120000000D01*
X152012000Y-125500000D02*
X152012000Y-121460420D01*
%TO.N,IO11*%
X152634500Y-126876500D02*
X152634500Y-129365500D01*
X151758000Y-121355210D02*
X151758000Y-126000000D01*
X152634500Y-129365500D02*
X152525000Y-129475000D01*
X152250000Y-120863210D02*
X151758000Y-121355210D01*
X151758000Y-126000000D02*
X152634500Y-126876500D01*
X152250000Y-120600000D02*
X152250000Y-120863210D01*
X152525000Y-129475000D02*
X152500000Y-129475000D01*
%TO.N,IO10*%
X152000000Y-126996000D02*
X151504000Y-126500000D01*
X151750000Y-120750000D02*
X151750000Y-117250000D01*
X152000000Y-129475000D02*
X152000000Y-126996000D01*
X151504000Y-120996000D02*
X151750000Y-120750000D01*
X151504000Y-126500000D02*
X151504000Y-121250000D01*
X151504000Y-121250000D02*
X151504000Y-120996000D01*
%TO.N,IO9*%
X151250000Y-126750000D02*
X151500000Y-127000000D01*
X151250000Y-120000000D02*
X151250000Y-126750000D01*
X151500000Y-127000000D02*
X151500000Y-129475000D01*
%TD*%
M02*
