G04 EAGLE Gerber RS-274X export*
G75*
%MOMM*%
%FSLAX34Y34*%
%LPD*%
%INCopper Layer 14*%
%IPPOS*%
%AMOC8*
5,1,8,0,0,1.08239X$1,22.5*%
G01*
%ADD10C,2.199994*%
%ADD11C,0.500000*%
%ADD12C,0.000000*%
%ADD13C,0.200000*%
%ADD14C,0.152400*%
%ADD15C,0.756400*%


D10*
X137128Y137128D03*
X137128Y0D03*
X0Y0D03*
X0Y137128D03*
D11*
X53858Y189187D03*
X46406Y189128D03*
X61310Y189247D03*
X61191Y204151D03*
X61251Y196699D03*
X46287Y204032D03*
X46346Y196580D03*
X53798Y196639D03*
X53739Y204092D03*
X68762Y189307D03*
X68702Y196759D03*
X76155Y196818D03*
X76214Y189366D03*
X76095Y204270D03*
X68643Y204211D03*
X83666Y189426D03*
X83607Y196878D03*
X91059Y196938D03*
X91118Y189486D03*
X90999Y204390D03*
X83547Y204330D03*
X113622Y162586D03*
X106172Y162586D03*
X106234Y155194D03*
X106295Y147801D03*
X113745Y147801D03*
X121195Y147801D03*
X113684Y155194D03*
X121072Y162586D03*
X121134Y155194D03*
X128584Y155194D03*
X128522Y162586D03*
X135972Y162586D03*
X15932Y147801D03*
X908Y162586D03*
X8420Y155194D03*
X23381Y147801D03*
X30832Y147801D03*
X23320Y155194D03*
X15870Y155194D03*
X15808Y162586D03*
X8358Y162586D03*
X23258Y162586D03*
X30708Y162586D03*
X30770Y155194D03*
X-10672Y15932D03*
X-25457Y908D03*
X-18065Y8420D03*
X-10672Y23381D03*
X-10672Y30832D03*
X-18065Y23320D03*
X-18065Y15870D03*
X-25457Y15808D03*
X-25457Y8358D03*
X-25457Y23258D03*
X-25457Y30708D03*
X-18065Y30770D03*
X-18065Y38220D03*
X-25457Y38158D03*
X-25457Y45608D03*
X-18065Y45670D03*
X-18065Y53120D03*
X-25457Y53058D03*
X-25457Y60508D03*
X-18065Y60570D03*
X-18065Y68020D03*
X-25457Y67958D03*
X-25457Y75408D03*
X-18065Y75470D03*
X-25457Y135972D03*
X-25457Y128522D03*
X-18065Y128584D03*
X-18065Y121134D03*
X-25457Y121072D03*
X-18065Y113684D03*
X-10672Y121195D03*
X-10672Y113745D03*
X-10672Y106295D03*
X-18065Y106234D03*
X-25457Y106172D03*
X-25457Y98722D03*
X-18065Y98784D03*
X-18065Y91334D03*
X-25457Y91272D03*
X-25457Y83822D03*
X-18065Y83884D03*
X-25457Y113622D03*
X147801Y121195D03*
X162586Y136219D03*
X155194Y128707D03*
X147801Y113745D03*
X147801Y106295D03*
X155194Y113807D03*
X155194Y121257D03*
X162586Y121319D03*
X162586Y128769D03*
X162586Y113869D03*
X162586Y106419D03*
X155194Y106357D03*
X155194Y98907D03*
X162586Y98969D03*
X162586Y91519D03*
X155194Y91457D03*
X155194Y84007D03*
X162586Y84069D03*
X162586Y76619D03*
X155194Y76557D03*
X155194Y69107D03*
X162586Y69169D03*
X162586Y61719D03*
X155194Y61657D03*
X162586Y1155D03*
X162586Y8605D03*
X155194Y8543D03*
X155194Y15993D03*
X162586Y16055D03*
X155194Y23443D03*
X147801Y15932D03*
X147801Y23381D03*
X147801Y30832D03*
X155194Y30893D03*
X162586Y30955D03*
X162586Y38405D03*
X155194Y38343D03*
X155194Y45793D03*
X162586Y45855D03*
X162586Y53305D03*
X155194Y53243D03*
X162586Y23505D03*
X23505Y-25457D03*
X30955Y-25457D03*
X30893Y-18065D03*
X30832Y-10672D03*
X23381Y-10672D03*
X15932Y-10672D03*
X23443Y-18065D03*
X16055Y-25457D03*
X15993Y-18065D03*
X8543Y-18065D03*
X8605Y-25457D03*
X1155Y-25457D03*
X106357Y-18065D03*
X106419Y-25457D03*
X113869Y-25457D03*
X128769Y-25457D03*
X121319Y-25457D03*
X121257Y-18065D03*
X113807Y-18065D03*
X106295Y-10672D03*
X113745Y-10672D03*
X128707Y-18065D03*
X136219Y-25457D03*
X121195Y-10672D03*
D12*
X95258Y167785D02*
X94944Y169365D01*
X95258Y167785D02*
X96153Y166445D01*
X97493Y165550D01*
X99073Y165236D01*
X137128Y165236D01*
X137269Y165264D01*
X141531Y164928D01*
X145826Y163897D01*
X149906Y162207D01*
X153672Y159899D01*
X157031Y157031D01*
X159899Y153672D01*
X162207Y149906D01*
X163897Y145826D01*
X164928Y141531D01*
X165264Y137269D01*
X165236Y137128D01*
X165236Y0D01*
X165264Y-140D01*
X164928Y-4402D01*
X163897Y-8697D01*
X162207Y-12778D01*
X159899Y-16543D01*
X157031Y-19902D01*
X153672Y-22770D01*
X149906Y-25078D01*
X145826Y-26768D01*
X141531Y-27800D01*
X137269Y-28135D01*
X137128Y-28107D01*
X0Y-28107D01*
X-140Y-28135D01*
X-4402Y-27800D01*
X-8697Y-26768D01*
X-12778Y-25078D01*
X-16543Y-22770D01*
X-19902Y-19902D01*
X-22770Y-16543D01*
X-25078Y-12778D01*
X-26768Y-8697D01*
X-27800Y-4402D01*
X-28135Y-140D01*
X-28107Y0D01*
X-28107Y137128D01*
X-28135Y137269D01*
X-27800Y141531D01*
X-26768Y145826D01*
X-25078Y149906D01*
X-22770Y153672D01*
X-19902Y157031D01*
X-16543Y159899D01*
X-12778Y162207D01*
X-8697Y163897D01*
X-4402Y164928D01*
X-140Y165264D01*
X0Y165236D01*
X38054Y165236D01*
X39634Y165550D01*
X40974Y166445D01*
X41869Y167785D01*
X42183Y169365D01*
X42183Y207250D01*
X94944Y207250D01*
X94944Y169365D01*
X68563Y182533D02*
X64273Y182533D01*
X62322Y182145D01*
X60668Y181040D01*
X57595Y177967D01*
X56490Y176313D01*
X56102Y174362D01*
X56102Y153239D01*
X55668Y152805D01*
X52044Y152268D01*
X44085Y150274D01*
X36361Y147510D01*
X28944Y144003D01*
X21907Y139785D01*
X15318Y134898D01*
X9239Y129388D01*
X3729Y123309D01*
X-1156Y116719D01*
X-5374Y109683D01*
X-8882Y102266D01*
X-11645Y94541D01*
X-13639Y86583D01*
X91412Y152816D02*
X93066Y153501D01*
X89461Y149896D02*
X89461Y148336D01*
X88544Y147255D01*
X84352Y148305D01*
X76431Y149480D01*
X72378Y150886D02*
X73063Y152540D01*
X73063Y154331D01*
X71927Y162435D02*
X72378Y162886D01*
X71927Y168435D02*
X72378Y168886D01*
X73063Y170540D01*
X73063Y172331D01*
X72378Y173984D01*
X72314Y174049D01*
X73273Y175484D01*
X73661Y177435D01*
X73273Y179386D01*
X72168Y181040D01*
X70514Y182145D01*
X68563Y182533D01*
X66626Y175828D02*
X66778Y175685D01*
X66626Y175828D02*
X66463Y175955D01*
X66289Y176068D01*
X66104Y176165D01*
X65909Y176248D01*
X65703Y176315D01*
X65486Y176368D01*
X65259Y176405D01*
X65021Y176428D01*
X64772Y176435D01*
X64772Y178435D01*
X65021Y178443D01*
X65259Y178465D01*
X65486Y178503D01*
X65703Y178555D01*
X65909Y178623D01*
X66104Y178705D01*
X66289Y178803D01*
X66463Y178915D02*
X66626Y179043D01*
X66778Y179185D01*
X66778Y175685D01*
D13*
X80902Y68947D02*
X80924Y68735D01*
X80902Y68947D02*
X80865Y69155D01*
X80814Y69361D01*
X80748Y69563D01*
X80669Y69760D01*
X80575Y69951D01*
X80469Y70134D01*
X80351Y70310D01*
X80220Y70477D01*
X80078Y70635D01*
X79925Y70782D01*
X79763Y70919D01*
X79591Y71044D01*
X79411Y71156D01*
X79224Y71256D01*
X79030Y71342D01*
X78831Y71415D01*
X78627Y71473D01*
X78419Y71517D01*
X78209Y71547D01*
X77998Y71561D01*
X77890Y71563D01*
X70241Y51874D02*
X69092Y51788D01*
X70241Y51874D02*
X71381Y52041D01*
X72506Y52286D01*
X73611Y52609D01*
X74692Y53008D01*
X75741Y53482D01*
X76756Y54028D01*
X77729Y54643D01*
X78657Y55325D01*
X79536Y56069D01*
X80360Y56873D01*
X81127Y57733D01*
X81831Y58644D01*
X82470Y59602D01*
X84887Y69509D02*
X84761Y70654D01*
X84555Y71787D01*
X84271Y72903D01*
X83910Y73997D01*
X83473Y75063D01*
X82963Y76095D01*
X82382Y77090D01*
X81733Y78041D01*
X81020Y78945D01*
X80245Y79797D01*
X79412Y80593D01*
X78526Y81329D01*
X77591Y82001D01*
X76611Y82606D01*
X75592Y83142D01*
X74537Y83605D01*
X73453Y83993D01*
X72344Y84305D01*
X71217Y84539D01*
X70075Y84694D01*
X68926Y84768D01*
X67775Y84762D01*
X66328Y88663D02*
X65050Y88477D01*
X60161Y86861D02*
X59024Y86249D01*
X57932Y85559D01*
X56891Y84795D01*
X55906Y83960D01*
X54982Y83058D01*
X54123Y82094D01*
X53333Y81072D01*
X52616Y79998D01*
X51976Y78877D01*
X51416Y77713D01*
X54243Y58312D02*
X55112Y57356D01*
X56045Y56464D01*
X57039Y55639D01*
X58087Y54885D01*
X59186Y54207D02*
X60329Y53606D01*
X61511Y53087D02*
X62727Y52651D01*
X63970Y52302D01*
X65234Y52040D01*
X66513Y51866D01*
X67802Y51783D01*
X69092Y51788D01*
X76812Y-7763D02*
X82096Y-6993D01*
X87313Y-5857D01*
X92438Y-4359D01*
X97447Y-2508D01*
X102314Y-312D01*
X107016Y2217D01*
X111530Y5070D01*
X115834Y8230D01*
X119907Y11683D01*
X123729Y15411D01*
X127282Y19397D01*
X130548Y23622D01*
X133512Y28063D01*
X86327Y-1980D02*
X81382Y-3057D01*
X86327Y-1980D02*
X91184Y-561D01*
X95930Y1192D01*
X100543Y3274D01*
X104999Y5672D01*
X109277Y8375D01*
X113356Y11370D01*
X117216Y14642D01*
X120838Y18176D01*
X124206Y21954D01*
X127301Y25957D01*
X130109Y30166D01*
X132617Y34562D01*
X134813Y39121D01*
X136685Y43822D01*
X138225Y48643D01*
X139424Y53559D01*
X140278Y58547D01*
X140781Y63582D01*
X140932Y68640D01*
X140730Y73697D01*
X140176Y78727D01*
X139272Y83706D01*
X138023Y88610D01*
X136435Y93415D01*
X134516Y98097D01*
X132275Y102634D01*
X129722Y107004D01*
X126872Y111184D01*
X123736Y115156D01*
X120331Y118900D01*
X116673Y122397D01*
X112781Y125630D01*
X108672Y128584D01*
X104367Y131244D01*
X99887Y133597D01*
X95254Y135632D01*
X90490Y137339D01*
X85618Y138709D01*
X80663Y139736D01*
X75649Y140415D01*
X70599Y140743D01*
X65539Y140717D01*
X58184Y148112D02*
X52779Y147213D01*
X47450Y145940D01*
X42223Y144297D02*
X37123Y142294D01*
X32175Y139940D01*
X27404Y137247D01*
X22832Y134227D01*
X18481Y130896D01*
X14374Y127269D01*
X10530Y123365D01*
X6967Y119202D01*
X3703Y114801D01*
X755Y110183D01*
X-1863Y105370D01*
X-4140Y100386D01*
X-7Y31686D02*
X2850Y27011D01*
X6027Y22547D01*
X9508Y18316D01*
X13276Y14338D01*
X17312Y10632D01*
X36832Y124243D02*
X40673Y126310D01*
X36832Y124243D02*
X33144Y121913D01*
X29628Y119331D01*
X26300Y116510D01*
X15185Y103128D02*
X13023Y99339D01*
X11130Y95408D01*
X9516Y91355D01*
X8189Y87199D01*
X7155Y82961D01*
X6419Y78662D01*
X5985Y74321D01*
X5854Y69960D01*
X6028Y65601D01*
X6506Y61265D01*
X7285Y56973D01*
X8362Y52745D01*
X9731Y48603D01*
X11385Y44567D01*
X13317Y40656D01*
X15518Y36889D01*
X17975Y33284D01*
X20678Y29860D01*
X23613Y26633D01*
X26767Y23618D01*
X30123Y20831D01*
X33665Y18285D01*
X37376Y15992D01*
X41238Y13963D01*
X45232Y12209D01*
X49339Y10737D01*
X53538Y9556D01*
X57810Y8670D01*
X62133Y8085D01*
X66486Y7802D01*
X70848Y7824D01*
X70849Y7823D01*
X71168Y-168D02*
X75936Y188D01*
X80667Y877D01*
X85339Y1895D01*
X89928Y3236D02*
X94413Y4894D01*
X98771Y6860D01*
X102981Y9126D01*
X107023Y11680D01*
X110877Y14510D01*
X114524Y17601D01*
X117947Y20940D01*
X121128Y24509D01*
X124053Y28292D01*
X126706Y32269D01*
X129076Y36422D01*
X131150Y40729D01*
X132919Y45171D01*
X134374Y49726D01*
X135507Y54371D01*
X136313Y59083D01*
X136789Y63841D01*
X136932Y68620D01*
X136741Y73397D01*
X136217Y78150D01*
X135364Y82854D01*
X134184Y87488D01*
X132683Y92027D01*
X130870Y96451D01*
X128752Y100738D01*
X126341Y104866D01*
X123647Y108817D01*
X120685Y112570D02*
X117468Y116106D01*
X114012Y119410D01*
X110334Y122465D01*
X106452Y125256D01*
X102384Y127769D01*
X98151Y129993D01*
X93774Y131915D01*
X89273Y133528D01*
X84670Y134823D01*
X79989Y135793D01*
X75251Y136435D01*
X70479Y136744D01*
X65698Y136720D01*
X74184Y16091D02*
X70529Y15817D01*
X74184Y16091D02*
X77810Y16619D01*
X81390Y17400D01*
X84908Y18427D01*
X88345Y19698D01*
X91685Y21205D01*
X94912Y22942D01*
X98009Y24899D01*
X100963Y27068D01*
X103758Y29438D01*
X106382Y31996D01*
X108820Y34732D01*
X111061Y37631D01*
X113095Y40679D01*
X114911Y43861D01*
X116501Y47163D01*
X117857Y50568D01*
X118972Y54058D01*
X119840Y57618D01*
X120458Y61230D01*
X120823Y64876D01*
X120932Y68539D01*
X120786Y72201D01*
X120385Y75843D01*
X119731Y79449D01*
X118826Y83000D01*
X117676Y86479D01*
X116286Y89870D01*
X114663Y93155D01*
X112815Y96320D02*
X110751Y99347D01*
X108480Y102223D02*
X106015Y104934D01*
X103366Y107466D01*
X100547Y109808D01*
X97572Y111947D01*
X94454Y113873D01*
X91210Y115577D01*
X87855Y117051D01*
X84405Y118287D01*
X80878Y119279D01*
X77290Y120023D01*
X73658Y120515D01*
X70002Y120752D01*
X66337Y120733D01*
X75060Y8139D02*
X70849Y7823D01*
X75060Y8139D02*
X79239Y8748D01*
X83365Y9646D01*
X87419Y10831D01*
X91380Y12295D01*
X109142Y23519D02*
X112165Y26468D01*
X114975Y29620D01*
X121995Y40141D02*
X123827Y43946D01*
X125389Y47869D01*
X126674Y51891D01*
X127675Y55994D01*
X128387Y60156D01*
X128808Y64358D01*
X128934Y68579D01*
X128765Y72799D01*
X128303Y76996D01*
X127549Y81151D01*
X126506Y85243D01*
X125181Y89253D01*
X123580Y93160D01*
X114584Y107396D02*
X111743Y110520D01*
X108691Y113438D01*
X105442Y116137D01*
X102013Y118601D01*
X98421Y120821D01*
X94683Y122785D01*
X90816Y124483D01*
X86841Y125908D01*
X82776Y127051D01*
X78641Y127909D01*
X74456Y128475D01*
X70242Y128749D01*
X66019Y128727D01*
X66018Y128727D01*
X71994Y35971D02*
X69731Y35801D01*
X71994Y35971D02*
X74238Y36298D01*
X76455Y36781D01*
X78632Y37417D01*
X80760Y38204D01*
X96081Y51192D02*
X97206Y53162D01*
X98190Y55206D01*
X99029Y57314D01*
X99719Y59475D01*
X100257Y61679D01*
X100639Y63915D01*
X100865Y66172D01*
X100933Y68439D01*
X100842Y70706D01*
X100594Y72961D01*
X100189Y75193D01*
X99629Y77391D01*
X98917Y79545D01*
X93224Y89291D02*
X91698Y90969D01*
X90058Y92537D01*
X88313Y93986D01*
X86471Y95310D01*
X84541Y96503D01*
X82533Y97558D01*
X80456Y98470D01*
X78320Y99235D01*
X76137Y99849D01*
X73916Y100310D01*
X71668Y100614D01*
X69404Y100761D01*
X67136Y100749D01*
X71555Y39947D02*
X69571Y39798D01*
X71555Y39947D02*
X73524Y40234D01*
X75467Y40657D01*
X77377Y41215D01*
X79242Y41905D01*
X93664Y55023D02*
X94527Y56815D01*
X95263Y58663D01*
X95868Y60558D01*
X96340Y62490D01*
X96675Y64451D01*
X96873Y66430D01*
X96933Y68419D01*
X96853Y70407D01*
X96635Y72384D01*
X96280Y74341D01*
X95789Y76269D01*
X95165Y78158D01*
X94411Y79998D01*
X93529Y81782D01*
X80798Y93953D02*
X78976Y94753D01*
X77104Y95424D01*
X75189Y95963D01*
X73241Y96367D01*
X71270Y96634D01*
X69285Y96762D01*
X67295Y96752D01*
X73308Y24044D02*
X70210Y23811D01*
X73308Y24044D02*
X76381Y24491D01*
X79416Y25153D01*
X82398Y26024D01*
X85311Y27101D01*
X107830Y47583D02*
X109177Y50381D01*
X110326Y53267D01*
X111271Y56226D01*
X112007Y59243D01*
X112531Y62305D01*
X112841Y65396D01*
X112809Y71604D02*
X112469Y74692D01*
X111914Y77748D01*
X111148Y80758D01*
X110173Y83707D01*
X108995Y86581D01*
X107619Y89366D01*
X106053Y92048D01*
X104303Y94614D01*
X102378Y97052D02*
X100288Y99350D01*
X98043Y101496D01*
X95654Y103481D01*
X93132Y105294D01*
X90489Y106926D01*
X87739Y108371D01*
X84895Y109620D01*
X81971Y110668D01*
X72869Y28019D02*
X70050Y27807D01*
X72869Y28019D02*
X75667Y28426D01*
X78429Y29028D01*
X104288Y49442D02*
X105515Y51989D01*
X107420Y57308D02*
X108090Y60054D01*
X108567Y62841D01*
X108849Y65653D01*
X108933Y68479D01*
X108820Y71304D01*
X108511Y74114D01*
X108006Y76895D01*
X107308Y79634D01*
X106421Y82319D01*
X105349Y84934D01*
X104097Y87469D01*
X102671Y89910D01*
X101079Y92245D01*
X99327Y94464D02*
X97425Y96555D01*
X95382Y98509D02*
X93207Y100315D01*
X90912Y101965D01*
X88507Y103451D01*
X86004Y104766D01*
X83416Y105903D01*
X80755Y106856D01*
X72464Y108575D02*
X69643Y108757D01*
X66816Y108743D01*
X77442Y32904D02*
X74953Y32362D01*
X77442Y32904D02*
X79888Y33619D01*
X82277Y34502D01*
X84600Y35550D01*
X86843Y36757D01*
X88997Y38118D01*
X91050Y39626D01*
X92994Y41273D01*
X94817Y43053D01*
X96513Y44954D01*
X98071Y46970D01*
X99485Y49089D01*
X100748Y51302D01*
X101853Y53597D01*
X102796Y55964D01*
X94563Y93762D02*
X92721Y95523D01*
X90761Y97150D01*
X88693Y98637D01*
X86525Y99977D01*
X84270Y101161D01*
X66766Y84687D02*
X65765Y84541D01*
X64776Y84325D01*
X63804Y84041D01*
X62855Y83691D01*
X61933Y83274D01*
X61042Y82795D01*
X60186Y82254D01*
X59370Y81655D01*
X58598Y81001D01*
X57874Y80294D01*
X57200Y79538D01*
X56581Y78738D01*
X56019Y77896D01*
X55518Y77017D01*
X55079Y76105D01*
X54704Y75165D02*
X54397Y74201D01*
X54157Y73218D01*
X53986Y72220D01*
X54437Y66208D02*
X54754Y65247D01*
X55138Y64310D01*
X57294Y60898D02*
X57975Y60150D01*
X58707Y59450D01*
X59485Y58804D01*
X60307Y58213D01*
X61168Y57681D02*
X62064Y57210D01*
X62990Y56804D01*
X63943Y56462D01*
X64918Y56188D01*
X65908Y55983D01*
X66911Y55847D01*
X67921Y55781D01*
X68932Y55785D01*
X65889Y92639D02*
X67455Y92756D01*
X65889Y92639D02*
X64335Y92413D01*
X62801Y92078D01*
X61293Y91638D01*
X59820Y91093D01*
X58389Y90447D01*
X57006Y89703D01*
X55678Y88864D01*
X54412Y87935D01*
X53214Y86919D01*
X52090Y85823D02*
X51045Y84650D01*
X50084Y83408D01*
X49213Y82102D01*
X48435Y80738D01*
X47753Y79323D01*
X47172Y77864D01*
X46694Y76368D01*
X46322Y74842D01*
X46057Y73294D01*
X45901Y71731D01*
X45854Y70161D01*
X45916Y68592D01*
X46088Y67031D01*
X46369Y65486D01*
X46756Y63964D01*
X47249Y62473D01*
X47845Y61020D01*
X48540Y59612D01*
X49332Y58256D01*
X50217Y56958D01*
X52247Y54564D02*
X53382Y53478D01*
X54590Y52475D01*
X55865Y51558D01*
X61508Y48841D02*
X63020Y48416D01*
X64557Y48097D01*
X66114Y47886D01*
X67681Y47785D01*
X69251Y47792D01*
X63620Y96348D02*
X65451Y96614D01*
X63620Y96348D02*
X61813Y95954D01*
X60038Y95435D01*
X58303Y94794D01*
X56617Y94033D01*
X54988Y93156D01*
X53424Y92168D01*
X51933Y91073D01*
X50523Y89877D01*
X49199Y88586D01*
X47968Y87205D01*
X46836Y85742D01*
X45810Y84203D01*
X44893Y82597D01*
X44090Y80930D01*
X43406Y79212D01*
X42843Y77450D01*
X42405Y75653D01*
X42093Y73829D01*
X41909Y71989D01*
X41854Y70140D01*
X41928Y68292D01*
X42130Y66453D01*
X42460Y64633D01*
X42917Y62841D01*
X43497Y61085D01*
X44199Y59373D01*
X45018Y57715D01*
X45951Y56117D01*
X46993Y54589D01*
X48139Y53138D02*
X49384Y51769D01*
X50721Y50491D01*
X52143Y49309D01*
X53645Y48230D01*
X55219Y47257D01*
X56856Y46397D01*
X58550Y45653D01*
X60291Y45029D01*
X62072Y44528D01*
X63883Y44153D01*
X65716Y43905D01*
X67562Y43785D01*
X69411Y43794D01*
X65013Y100590D02*
X67136Y100749D01*
X65013Y100590D02*
X62907Y100283D01*
X60827Y99830D01*
X58783Y99233D01*
X56787Y98495D01*
X54846Y97619D01*
X52971Y96610D01*
X51172Y95473D01*
X49456Y94213D01*
X47832Y92837D01*
X46308Y91350D01*
X44891Y89761D01*
X43589Y88077D01*
X42408Y86306D01*
X41352Y84457D01*
X40429Y82538D01*
X39641Y80561D01*
X38994Y78532D01*
X38489Y76464D01*
X38130Y74366D01*
X37918Y72248D01*
X37854Y70120D01*
X37939Y67993D01*
X38173Y65876D01*
X38553Y63782D01*
X39078Y61719D01*
X39746Y59697D01*
X40554Y57728D01*
X41497Y55819D01*
X42570Y53981D01*
X43770Y52222D01*
X45089Y50551D02*
X46521Y48976D01*
X48060Y47505D01*
X49698Y46144D01*
X51426Y44902D01*
X53237Y43783D01*
X55122Y42793D01*
X57071Y41937D01*
X59076Y41219D01*
X61125Y40642D01*
X63209Y40210D01*
X65319Y39924D01*
X67444Y39787D01*
X69571Y39798D01*
X64575Y104566D02*
X66976Y104746D01*
X64575Y104566D02*
X62192Y104219D01*
X59839Y103707D01*
X57528Y103032D01*
X55269Y102196D01*
X53074Y101206D01*
X50954Y100065D01*
X48918Y98779D01*
X46977Y97353D01*
X45140Y95796D01*
X43416Y94115D01*
X41814Y92317D01*
X40341Y90412D01*
X39005Y88409D01*
X37811Y86318D01*
X36767Y84148D01*
X34166Y74904D02*
X33926Y72508D01*
X33854Y70101D01*
X33950Y67695D01*
X34214Y65302D01*
X34644Y62932D01*
X35238Y60599D01*
X35994Y58312D01*
X36907Y56084D01*
X37974Y53925D01*
X39188Y51846D01*
X40545Y49856D01*
X42037Y47966D01*
X43657Y46185D02*
X45398Y44521D01*
X47250Y42982D01*
X49205Y41577D01*
X51254Y40311D01*
X53385Y39191D01*
X55590Y38222D01*
X57857Y37410D01*
X60175Y36758D01*
X62533Y36269D01*
X64919Y35946D02*
X67322Y35790D01*
X69730Y35802D01*
X69731Y35801D01*
X64137Y108542D02*
X66816Y108743D01*
X64137Y108542D02*
X61477Y108155D01*
X58852Y107583D01*
X56272Y106830D01*
X53752Y105898D01*
X51302Y104792D01*
X48936Y103519D01*
X46664Y102083D01*
X44499Y100493D01*
X42448Y98755D01*
X40525Y96879D01*
X38737Y94873D01*
X37093Y92747D01*
X35602Y90512D01*
X34270Y88178D01*
X33104Y85757D01*
X32110Y83260D01*
X31292Y80700D01*
X30655Y78090D01*
X29854Y70081D02*
X29961Y67396D01*
X30256Y64725D01*
X30736Y62081D01*
X31399Y59477D01*
X32242Y56925D01*
X33261Y54439D01*
X34452Y52029D01*
X35807Y49709D01*
X37320Y47489D01*
X38986Y45379D02*
X40794Y43391D01*
X42736Y41534D01*
X44803Y39818D01*
X46985Y38249D01*
X49271Y36836D01*
X51650Y35587D01*
X54111Y34506D01*
X56640Y33600D01*
X59227Y32872D01*
X61859Y32326D01*
X64522Y31966D01*
X67203Y31792D01*
X69890Y31805D01*
X69891Y31804D01*
X63699Y112517D02*
X66657Y112739D01*
X63699Y112517D02*
X60764Y112090D01*
X57865Y111459D01*
X55018Y110627D01*
X52235Y109598D01*
X49532Y108378D01*
X46919Y106972D01*
X44412Y105387D01*
X42020Y103632D01*
X39758Y101713D01*
X37634Y99642D01*
X35661Y97428D01*
X33846Y95081D01*
X32200Y92613D01*
X30729Y90037D01*
X29442Y87364D01*
X28345Y84608D02*
X27442Y81782D01*
X26739Y78900D01*
X26239Y75976D01*
X25944Y73025D01*
X25974Y67095D02*
X26298Y64147D01*
X26828Y61228D01*
X27560Y58353D01*
X28491Y55537D01*
X29616Y52792D01*
X30930Y50132D01*
X32426Y47571D01*
X34097Y45120D02*
X35935Y42791D01*
X37932Y40597D01*
X40076Y38547D01*
X42358Y36652D02*
X44766Y34920D01*
X47290Y33361D01*
X52632Y30789D02*
X55425Y29788D01*
X58280Y28985D01*
X61185Y28382D01*
X64125Y27984D01*
X67085Y27792D01*
X70050Y27807D01*
X63261Y116494D02*
X66497Y116736D01*
X63261Y116494D02*
X60049Y116026D01*
X56878Y115335D01*
X53762Y114425D01*
X50718Y113299D01*
X47760Y111964D01*
X44902Y110426D01*
X42158Y108692D01*
X39542Y106771D01*
X37066Y104672D01*
X34743Y102406D01*
X32583Y99983D01*
X30598Y97416D01*
X28796Y94716D01*
X27188Y91897D01*
X25780Y88972D01*
X24579Y85957D01*
X23592Y82865D01*
X22822Y79712D01*
X22275Y76513D01*
X21952Y73283D01*
X21855Y70039D01*
X21984Y66796D01*
X22340Y63570D01*
X22920Y60376D01*
X23721Y57231D01*
X24739Y54150D01*
X25970Y51146D01*
X27408Y48236D02*
X29045Y45434D01*
X30873Y42752D01*
X32884Y40205D02*
X35068Y37804D01*
X37414Y35561D01*
X39911Y33487D02*
X42547Y31593D01*
X45308Y29886D01*
X48181Y28377D01*
X57332Y25099D02*
X60511Y24440D01*
X63727Y24004D01*
X66966Y23794D01*
X70210Y23811D01*
X61947Y128422D02*
X66018Y128727D01*
X61947Y128422D02*
X57906Y127833D01*
X53916Y126964D01*
X49997Y125819D01*
X46167Y124403D01*
X42445Y122724D01*
X38850Y120789D01*
X35398Y118607D01*
X32107Y116191D01*
X28992Y113550D01*
X26069Y110699D01*
X23352Y107651D01*
X20855Y104421D01*
X18588Y101024D01*
X16565Y97478D01*
X14793Y93799D01*
X13283Y90005D01*
X12040Y86116D01*
X11073Y82149D01*
X10384Y78124D01*
X9977Y74061D01*
X9855Y69980D01*
X10019Y65900D01*
X10466Y61841D01*
X11195Y57824D01*
X12203Y53867D01*
X15033Y46211D02*
X16841Y42551D01*
X18901Y39025D01*
X21201Y35651D01*
X23731Y32446D01*
X26478Y29426D02*
X29430Y26604D01*
X32571Y23995D01*
X35886Y21612D01*
X39360Y19466D01*
X54488Y13442D02*
X58486Y12613D01*
X62533Y12065D01*
X66607Y11801D01*
X70689Y11820D01*
X62384Y124446D02*
X66177Y124730D01*
X62384Y124446D02*
X58620Y123898D01*
X54903Y123088D01*
X51251Y122021D01*
X47683Y120702D01*
X44216Y119137D01*
X40866Y117335D01*
X18454Y92190D02*
X17046Y88656D01*
X15889Y85032D01*
X14988Y81336D01*
X14346Y77587D01*
X13967Y73801D01*
X13854Y69999D01*
X14006Y66198D01*
X14422Y62417D01*
X15102Y58674D01*
X16040Y54988D01*
X17234Y51376D01*
X18677Y47856D01*
X20362Y44445D01*
X22280Y41160D01*
X24423Y38017D01*
X26780Y35032D01*
X29340Y32217D01*
X32090Y29589D02*
X35016Y27158D01*
X38105Y24938D01*
X41341Y22938D01*
X44709Y21169D01*
X48192Y19639D01*
X51773Y18356D01*
X55435Y17326D01*
X59160Y16554D01*
X62929Y16043D01*
X66725Y15797D01*
X70529Y15816D01*
X70529Y15817D01*
X62822Y120470D02*
X66337Y120733D01*
X62822Y120470D02*
X59334Y119962D01*
X55890Y119212D01*
X52507Y118223D01*
X49201Y117001D01*
X42884Y113880D02*
X39904Y111997D01*
X37063Y109911D01*
X34374Y107632D01*
X31851Y105171D01*
X29505Y102540D01*
X27349Y99751D01*
X25393Y96819D01*
X23646Y93758D01*
X22117Y90581D01*
X20813Y87307D01*
X19740Y83949D01*
X18904Y80525D01*
X18310Y77050D01*
X17959Y73543D01*
X17854Y70020D01*
X17994Y66497D01*
X18380Y62994D01*
X19010Y59526D01*
X19880Y56110D01*
X20986Y52763D01*
X22323Y49502D01*
X23884Y46341D01*
X25662Y43297D01*
X27647Y40385D01*
X29832Y37618D01*
X32203Y35011D01*
X34751Y32575D02*
X37463Y30323D01*
X40325Y28265D01*
X43323Y26412D01*
X46444Y24773D01*
X49671Y23356D01*
X52989Y22167D01*
X56383Y21212D01*
X59834Y20497D01*
X63327Y20024D01*
X66844Y19796D01*
X70369Y19813D01*
X70370Y19814D01*
X60194Y144326D02*
X65379Y144714D01*
X60194Y144326D02*
X55048Y143576D01*
X49967Y142469D01*
X44976Y141011D01*
X40098Y139208D01*
X35359Y137069D01*
X30779Y134605D01*
X26383Y131827D01*
X22192Y128749D01*
X18226Y125387D01*
X14503Y121756D01*
X11043Y117874D01*
X7862Y113760D01*
X4976Y109435D01*
X2399Y104918D01*
X143Y100233D01*
X-1780Y95402D01*
X-3362Y90448D01*
X-4595Y85397D01*
X-5472Y80271D01*
X-5989Y75097D01*
X-6145Y69899D01*
X-5937Y64703D01*
X-5368Y59535D01*
X-4439Y54418D01*
X-3156Y49379D01*
X-1524Y44441D01*
X447Y39630D01*
X2750Y34968D01*
X5373Y30477D01*
X8302Y26181D01*
X11524Y22099D01*
X27004Y8301D02*
X31428Y5568D01*
X36031Y3150D01*
X40792Y1058D01*
X45688Y-694D01*
X50693Y-2102D01*
X55785Y-3158D01*
X60938Y-3856D01*
X66127Y-4193D01*
X71327Y-4166D01*
X71328Y-4165D01*
X60632Y140349D02*
X65539Y140717D01*
X60632Y140349D02*
X55763Y139640D01*
X50955Y138593D01*
X46231Y137213D01*
X41616Y135506D01*
X37130Y133482D01*
X32798Y131150D01*
X28637Y128521D01*
X24671Y125609D01*
X20917Y122427D01*
X17395Y118991D01*
X14121Y115318D01*
X11111Y111425D01*
X8379Y107332D01*
X5941Y103057D01*
X3806Y98624D01*
X1985Y94052D01*
X488Y89365D01*
X-677Y84584D01*
X-1507Y79734D01*
X-1997Y74837D01*
X-2144Y69919D01*
X-1947Y65002D01*
X-1408Y60110D01*
X-529Y55269D01*
X684Y50500D01*
X2228Y45828D01*
X4094Y41275D01*
X6274Y36863D01*
X8756Y32614D01*
X11528Y28548D01*
X14577Y24686D02*
X17888Y21045D01*
X21445Y17645D01*
X25230Y14501D01*
X29226Y11628D01*
X33412Y9042D01*
X37769Y6753D01*
X42274Y4775D01*
X46906Y3115D01*
X51643Y1782D01*
X56462Y784D01*
X61338Y123D01*
X66249Y-194D01*
X71168Y-168D01*
X61070Y136373D02*
X65698Y136720D01*
X61070Y136373D02*
X56477Y135704D01*
X51941Y134716D01*
X47486Y133415D01*
X43132Y131805D01*
X38901Y129896D01*
X34814Y127696D01*
X30890Y125217D01*
X27149Y122470D01*
X23608Y119468D01*
X20285Y116227D01*
X17197Y112762D01*
X14358Y109090D01*
X11782Y105229D01*
X9481Y101198D01*
X7467Y97016D01*
X5750Y92703D01*
X4338Y88282D01*
X3238Y83772D01*
X2455Y79197D01*
X1993Y74578D01*
X1854Y69939D01*
X2040Y65301D01*
X2548Y60687D01*
X3377Y56120D01*
X4522Y51622D01*
X5979Y47215D01*
X7739Y42920D01*
X9795Y38759D01*
X12136Y34751D01*
X14751Y30916D01*
X17627Y27272D02*
X20750Y23839D01*
X24105Y20631D01*
X27676Y17665D01*
X31445Y14956D01*
X35393Y12516D01*
X39503Y10358D01*
X43753Y8491D01*
X48122Y6926D01*
X52590Y5669D01*
X57135Y4726D01*
X61735Y4104D01*
X66367Y3803D01*
X71008Y3826D01*
X69411Y43794D02*
X71117Y43922D01*
X72809Y44169D01*
X74480Y44533D01*
X76121Y45012D01*
X77725Y45605D01*
X79284Y46309D01*
X80790Y47119D01*
X82236Y48033D01*
X83614Y49045D01*
X84919Y50151D01*
X86143Y51345D01*
X87281Y52621D01*
X88327Y53974D01*
X89276Y55397D01*
X90124Y56882D01*
X90865Y58423D01*
X91498Y60011D01*
X92018Y61640D01*
X92424Y63302D01*
X92712Y64987D01*
X92882Y66689D01*
X92934Y68398D01*
X92865Y70107D01*
X92678Y71807D01*
X92373Y73490D01*
X91951Y75147D01*
X91414Y76770D01*
X90765Y78353D01*
X90008Y79886D01*
X89146Y81363D01*
X88182Y82776D01*
X87123Y84118D02*
X85972Y85383D01*
X84736Y86565D01*
X83420Y87657D01*
X82032Y88656D01*
X80577Y89555D01*
X79063Y90350D01*
X77497Y91038D01*
X75887Y91615D01*
X74241Y92078D01*
X72567Y92425D01*
X70872Y92654D01*
X69165Y92765D01*
X67455Y92756D01*
X70679Y47898D02*
X69252Y47791D01*
X70679Y47898D02*
X72095Y48105D01*
X73493Y48409D01*
X74867Y48810D01*
X76209Y49306D01*
X77513Y49895D01*
X78773Y50573D01*
X79983Y51337D01*
X81136Y52184D01*
X82228Y53110D01*
X83252Y54109D01*
X84204Y55177D01*
X85080Y56309D01*
X85874Y57499D01*
X86583Y58742D01*
X87204Y60031D01*
X87733Y61360D01*
X88168Y62724D01*
X88508Y64114D01*
X88749Y65524D01*
X88892Y66948D01*
X88935Y68378D01*
X88877Y69808D01*
X88721Y71230D01*
X88465Y72638D01*
X88112Y74024D01*
X87663Y75383D01*
X87120Y76707D01*
X86487Y77990D01*
X85765Y79226D01*
X84959Y80408D01*
X84072Y81531D02*
X83110Y82590D01*
X82075Y83578D01*
X80975Y84493D01*
X79813Y85328D01*
X78595Y86080D01*
X77329Y86746D01*
X76019Y87321D01*
X74672Y87804D01*
X73294Y88191D01*
X71893Y88482D01*
X70475Y88674D01*
X69047Y88767D01*
X67616Y88759D01*
X67615Y88759D01*
X69803Y55851D02*
X68932Y55785D01*
X69803Y55851D02*
X70666Y55976D01*
X71518Y56162D01*
X72356Y56407D01*
X73174Y56709D01*
X73969Y57068D01*
X74738Y57482D01*
X75475Y57948D01*
X76178Y58464D01*
X76844Y59028D01*
X77468Y59637D01*
X78049Y60289D01*
X78583Y60979D01*
X79067Y61705D01*
X79499Y62462D01*
X79878Y63249D01*
X80201Y64059D01*
X80466Y64890D01*
X80673Y65738D01*
X80820Y66598D01*
X80907Y67466D01*
X80933Y68338D01*
X80931Y68523D01*
X73746Y20068D02*
X70370Y19814D01*
X73746Y20068D02*
X77096Y20555D01*
X80404Y21276D01*
X83653Y22225D01*
X86828Y23399D01*
X89914Y24791D01*
X92895Y26396D02*
X95757Y28204D01*
X98485Y30207D01*
X101068Y32396D01*
X103491Y34760D01*
X105743Y37287D01*
X107814Y39965D01*
X109693Y42781D01*
X111371Y45722D01*
X112840Y48772D01*
X114092Y51917D01*
X115122Y55141D01*
X115924Y58430D01*
X116495Y61767D01*
X116832Y65135D01*
X116933Y68519D01*
X116798Y71902D01*
X116428Y75266D01*
X115823Y78597D01*
X114988Y81878D01*
X113925Y85092D01*
X112641Y88224D01*
X111142Y91259D01*
X109435Y94182D01*
X107528Y96979D01*
X105430Y99637D01*
X103152Y102141D01*
X100706Y104480D01*
X98101Y106643D01*
X95353Y108619D01*
X92473Y110399D01*
X89476Y111973D01*
X86377Y113334D01*
X83190Y114476D01*
X79931Y115393D01*
X76616Y116080D01*
X73262Y116534D01*
X69884Y116753D01*
X66498Y116736D01*
X66497Y116736D01*
X75498Y4163D02*
X71008Y3826D01*
X75498Y4163D02*
X79953Y4812D01*
X84352Y5770D01*
X88673Y7033D01*
X92896Y8594D01*
X97000Y10446D02*
X100964Y12579D01*
X104770Y14984D01*
X108399Y17649D01*
X111833Y20560D01*
X115056Y23703D01*
X118051Y27064D01*
X120805Y30626D01*
X123304Y34371D01*
X125535Y38281D01*
X127488Y42337D01*
X129154Y46520D01*
X130524Y50808D01*
X131591Y55182D01*
X132351Y59620D01*
X132799Y64099D01*
X132933Y68600D01*
X132753Y73098D01*
X132260Y77573D01*
X131456Y82003D01*
X130345Y86366D01*
X128932Y90640D01*
X127225Y94806D01*
X125231Y98842D01*
X122960Y102730D01*
X120424Y106450D01*
X117635Y109983D01*
X114605Y113314D01*
X111351Y116425D01*
X107888Y119301D01*
X104232Y121929D01*
X100402Y124296D01*
X96417Y126389D01*
X92295Y128200D01*
X88056Y129718D01*
X83723Y130938D01*
X79314Y131851D01*
X74853Y132455D01*
X70360Y132747D01*
X65858Y132724D01*
X74622Y12115D02*
X70689Y11820D01*
X74622Y12115D02*
X78524Y12684D01*
X82378Y13523D01*
X86163Y14629D01*
X89862Y15997D01*
X93457Y17619D02*
X96929Y19488D01*
X100263Y21594D01*
X103442Y23928D01*
X106450Y26478D01*
X109273Y29232D01*
X111897Y32176D01*
X114309Y35296D01*
X116498Y38577D01*
X118453Y42002D01*
X120164Y45555D01*
X121623Y49219D01*
X122822Y52976D01*
X123757Y56807D01*
X124422Y60694D01*
X124815Y64618D01*
X124933Y68560D01*
X124775Y72500D01*
X124343Y76420D01*
X123639Y80300D01*
X122666Y84122D01*
X121428Y87866D01*
X119932Y91515D01*
X118186Y95051D01*
X116197Y98457D01*
X113975Y101715D01*
X111532Y104810D01*
X108878Y107728D01*
X106027Y110453D01*
X99792Y115274D02*
X96437Y117348D01*
X92945Y119181D01*
X89335Y120767D01*
X85622Y122097D01*
X81826Y123165D01*
X77964Y123966D01*
X74056Y124495D01*
X70121Y124750D01*
X66177Y124730D01*
X74563Y71563D02*
X76200Y71563D01*
X77890Y71563D01*
D14*
X76200Y71563D02*
X70000Y76000D01*
D12*
X-13639Y86583D02*
X-14843Y78468D01*
X-15245Y70273D01*
X-14843Y62079D01*
X-13639Y53964D01*
X-11645Y46005D01*
X-8882Y38281D01*
X-5374Y30864D01*
X-1156Y23827D01*
X3729Y17238D01*
X9239Y11159D01*
X15318Y5649D01*
X21907Y762D01*
X28944Y-3454D01*
X36361Y-6962D01*
X44085Y-9725D01*
X52044Y-11719D01*
X60159Y-12923D01*
X68353Y-13325D01*
X71130Y-13189D01*
X71487Y-13260D01*
X71690Y-13220D01*
X72080Y-13142D01*
X76431Y-12928D01*
X84352Y-11753D01*
X92120Y-9808D01*
X99660Y-7110D01*
X106898Y-3686D01*
X113767Y429D01*
X120199Y5199D01*
X126132Y10576D01*
X131510Y16510D01*
X136280Y22941D01*
X140397Y29810D01*
X143820Y37049D01*
X146518Y44588D01*
X148464Y52356D01*
X149639Y60277D01*
X150032Y68275D01*
X149639Y76273D01*
X148464Y84194D01*
X146518Y91962D01*
X143820Y99501D01*
X140397Y106740D01*
X136280Y113609D01*
X131510Y120040D01*
X126132Y125974D01*
X120199Y131351D01*
X113767Y136122D01*
X106898Y140238D01*
X99660Y143662D01*
X97540Y144420D01*
X97211Y145887D01*
X97776Y146452D01*
X98461Y148106D01*
X98461Y149896D01*
X97776Y151550D01*
X96510Y152816D01*
X94856Y153501D01*
X93066Y153501D01*
X91412Y152816D02*
X90146Y151550D01*
X89461Y149896D01*
X76431Y149480D02*
X72793Y149659D01*
X72336Y150844D01*
X72378Y150886D01*
X73063Y154331D02*
X72378Y155984D01*
X71927Y156435D01*
X72378Y156886D01*
X73063Y158540D01*
X73063Y160330D01*
X72378Y161984D01*
X71927Y162435D01*
X72378Y162886D02*
X73063Y164540D01*
X73063Y166331D01*
X72378Y167984D01*
X71927Y168435D01*
X66289Y178803D02*
X66463Y178915D01*
D13*
X80924Y68735D02*
X80931Y68523D01*
X83041Y60603D02*
X82470Y59602D01*
X83041Y60603D02*
X83541Y61640D01*
X83967Y62710D01*
X84317Y63807D01*
X84590Y64926D01*
X84784Y66061D01*
X84899Y67207D01*
X84933Y68359D01*
X84887Y69509D01*
X67615Y88759D02*
X66328Y88663D01*
X65050Y88477D02*
X63788Y88202D01*
X62549Y87840D01*
X61338Y87392D01*
X60161Y86861D01*
X51416Y77713D02*
X50938Y76514D01*
X50546Y75284D01*
X50240Y74029D01*
X50022Y72757D01*
X49893Y71472D01*
X49855Y70181D01*
X49906Y68891D01*
X50048Y67607D01*
X50279Y66337D01*
X50597Y65085D01*
X51002Y63859D01*
X51492Y62665D01*
X52064Y61507D01*
X52715Y60392D01*
X53443Y59325D01*
X54243Y58312D01*
X58087Y54885D02*
X59186Y54207D01*
X60329Y53606D02*
X61511Y53087D01*
X71487Y-8162D02*
X76812Y-7763D01*
X133512Y28063D02*
X136158Y32701D01*
X138475Y37512D01*
X140450Y42472D01*
X142075Y47559D01*
X143341Y52746D01*
X144242Y58010D01*
X144773Y63323D01*
X144932Y68660D01*
X144719Y73995D01*
X144134Y79303D01*
X143181Y84556D01*
X141863Y89731D01*
X140187Y94801D01*
X138162Y99741D01*
X135798Y104529D01*
X133104Y109140D01*
X130097Y113551D01*
X126788Y117742D01*
X123195Y121693D01*
X119336Y125383D01*
X115228Y128794D01*
X110892Y131911D01*
X106350Y134718D01*
X101623Y137201D01*
X96734Y139348D01*
X91707Y141149D01*
X86567Y142595D01*
X81339Y143679D01*
X76047Y144395D01*
X70719Y144741D01*
X65379Y144714D01*
X76375Y-3787D02*
X71328Y-4165D01*
X76375Y-3787D02*
X81382Y-3057D01*
X42223Y144297D02*
X47450Y145940D01*
X-4140Y100386D02*
X-6065Y95256D01*
X-7626Y90004D01*
X-8817Y84656D01*
X-9632Y79237D01*
X-10068Y73776D01*
X-10121Y68297D01*
X-9792Y62827D01*
X-9082Y57394D01*
X-7995Y52024D01*
X-6536Y46742D01*
X-4712Y41575D01*
X-2532Y36549D01*
X-7Y31686D01*
X17312Y10632D02*
X21597Y7217D01*
X26109Y4109D01*
X30828Y1323D01*
X35729Y-1125D01*
X40789Y-3227D01*
X45983Y-4971D01*
X51287Y-6348D01*
X56673Y-7352D01*
X62116Y-7978D01*
X67590Y-8222D01*
X71487Y-8162D01*
X61508Y132398D02*
X65858Y132724D01*
X61508Y132398D02*
X57191Y131769D01*
X52929Y130841D01*
X48742Y129617D01*
X44650Y128105D01*
X40673Y126310D01*
X26300Y116510D02*
X23177Y113464D01*
X20275Y110208D01*
X17606Y106756D01*
X15185Y103128D01*
X85339Y1895D02*
X89928Y3236D01*
X123647Y108817D02*
X120685Y112570D01*
X112815Y96320D02*
X114663Y93155D01*
X110751Y99347D02*
X108480Y102223D01*
X95229Y14032D02*
X91380Y12295D01*
X95229Y14032D02*
X98947Y16033D01*
X102517Y18289D01*
X105921Y20788D01*
X109142Y23519D01*
X114975Y29620D02*
X117558Y32961D01*
X119902Y36473D01*
X121995Y40141D01*
X123580Y93160D02*
X121710Y96946D01*
X119580Y100593D01*
X117201Y104082D01*
X114584Y107396D01*
X82828Y39137D02*
X80760Y38204D01*
X82828Y39137D02*
X84825Y40212D01*
X86743Y41424D01*
X88571Y42766D01*
X90302Y44233D01*
X91925Y45817D01*
X93435Y47511D01*
X94822Y49305D01*
X96081Y51192D01*
X98917Y79545D02*
X98056Y81644D01*
X97052Y83678D01*
X95908Y85636D01*
X94630Y87511D01*
X93224Y89291D01*
X81056Y42723D02*
X79242Y41905D01*
X81056Y42723D02*
X82807Y43666D01*
X84489Y44729D01*
X86092Y45906D01*
X87610Y47192D01*
X89034Y48581D01*
X90357Y50066D01*
X91574Y51640D01*
X92678Y53295D01*
X93664Y55023D01*
X93529Y81782D02*
X92526Y83499D01*
X91405Y85143D01*
X90173Y86704D01*
X88834Y88176D01*
X87397Y89551D01*
X85866Y90822D01*
X84251Y91983D01*
X82559Y93028D01*
X80798Y93953D01*
X88142Y28378D02*
X85311Y27101D01*
X88142Y28378D02*
X90877Y29850D01*
X93503Y31509D01*
X96007Y33348D01*
X98376Y35357D01*
X100600Y37525D01*
X102666Y39844D01*
X104566Y42301D01*
X106290Y44885D01*
X107830Y47583D01*
X112841Y65396D02*
X112933Y68501D01*
X112809Y71604D01*
X104303Y94614D02*
X102378Y97052D01*
X81971Y110668D02*
X78981Y111509D01*
X75940Y112139D01*
X72862Y112556D01*
X69762Y112757D01*
X66657Y112739D01*
X81142Y29821D02*
X78429Y29028D01*
X81142Y29821D02*
X83794Y30801D01*
X86370Y31964D01*
X88860Y33303D01*
X91250Y34814D01*
X93528Y36487D01*
X95684Y38314D01*
X97708Y40288D01*
X99589Y42399D01*
X101318Y44635D01*
X102887Y46986D01*
X104288Y49442D01*
X105515Y51989D02*
X106560Y54615D01*
X107420Y57308D01*
X101079Y92245D02*
X99327Y94464D01*
X97425Y96555D02*
X95382Y98509D01*
X80755Y106856D02*
X78033Y107621D01*
X75266Y108195D01*
X72464Y108575D01*
X72432Y31995D02*
X69891Y31804D01*
X72432Y31995D02*
X74953Y32362D01*
X102796Y55964D02*
X103571Y58391D01*
X104175Y60866D01*
X104604Y63377D01*
X104858Y65912D01*
X104934Y68459D01*
X104832Y71004D01*
X104553Y73537D01*
X104098Y76043D01*
X103469Y78512D01*
X102670Y80931D01*
X101704Y83289D01*
X100576Y85573D01*
X99291Y87773D01*
X97856Y89878D01*
X96277Y91877D01*
X94563Y93762D01*
X84270Y101161D02*
X81937Y102186D01*
X79539Y103045D01*
X77086Y103735D01*
X74592Y104252D01*
X72067Y104594D01*
X69525Y104759D01*
X66977Y104746D01*
X66976Y104746D01*
X67775Y84762D02*
X66766Y84687D01*
X55079Y76105D02*
X54704Y75165D01*
X53986Y72220D02*
X53885Y71213D01*
X53855Y70201D01*
X53896Y69190D01*
X54006Y68184D01*
X54187Y67188D01*
X54437Y66208D01*
X55138Y64310D02*
X55586Y63403D01*
X56097Y62529D01*
X56667Y61693D01*
X57294Y60898D01*
X60307Y58213D02*
X61168Y57681D01*
X52090Y85823D02*
X53214Y86919D01*
X50217Y56958D02*
X51190Y55725D01*
X52247Y54564D01*
X55865Y51558D02*
X57201Y50733D01*
X58592Y50002D01*
X60030Y49371D01*
X61508Y48841D01*
X69251Y47792D02*
X69252Y47791D01*
X65451Y96614D02*
X67295Y96752D01*
X46993Y54589D02*
X48139Y53138D01*
X45089Y50551D02*
X43770Y52222D01*
X35876Y81911D02*
X36767Y84148D01*
X35876Y81911D02*
X35143Y79617D01*
X34572Y77278D01*
X34166Y74904D01*
X42037Y47966D02*
X43657Y46185D01*
X62533Y36269D02*
X64919Y35946D01*
X30202Y75441D02*
X30655Y78090D01*
X30202Y75441D02*
X29934Y72767D01*
X29854Y70081D01*
X37320Y47489D02*
X38986Y45379D01*
X28345Y84608D02*
X29442Y87364D01*
X25944Y73025D02*
X25855Y70060D01*
X25974Y67095D01*
X32426Y47571D02*
X34097Y45120D01*
X40076Y38547D02*
X42358Y36652D01*
X47290Y33361D02*
X49916Y31981D01*
X52632Y30789D01*
X27408Y48236D02*
X25970Y51146D01*
X30873Y42752D02*
X32884Y40205D01*
X37414Y35561D02*
X39911Y33487D01*
X48181Y28377D02*
X51153Y27072D01*
X54208Y25977D01*
X57332Y25099D01*
X13484Y49990D02*
X12203Y53867D01*
X13484Y49990D02*
X15033Y46211D01*
X23731Y32446D02*
X26478Y29426D01*
X39360Y19466D02*
X42975Y17567D01*
X46713Y15925D01*
X50557Y14548D01*
X54488Y13442D01*
X37650Y115303D02*
X40866Y117335D01*
X37650Y115303D02*
X34584Y113051D01*
X31682Y110591D01*
X28959Y107935D01*
X26428Y105095D01*
X24101Y102086D01*
X21990Y98921D01*
X20104Y95617D01*
X18454Y92190D01*
X29340Y32217D02*
X32090Y29589D01*
X45988Y115551D02*
X49201Y117001D01*
X45988Y115551D02*
X42884Y113880D01*
X32203Y35011D02*
X34751Y32575D01*
X15023Y18252D02*
X11524Y22099D01*
X15023Y18252D02*
X18782Y14659D01*
X22782Y11337D01*
X27004Y8301D01*
X14577Y24686D02*
X11528Y28548D01*
X14751Y30916D02*
X17627Y27272D01*
X88182Y82776D02*
X87123Y84118D01*
X84072Y81531D02*
X84959Y80408D01*
X92895Y26396D02*
X89914Y24791D01*
X97000Y10446D02*
X92896Y8594D01*
X89862Y15997D02*
X93457Y17619D01*
X106027Y110453D02*
X102994Y112973D01*
X99792Y115274D01*
X61200Y151128D02*
X58184Y148112D01*
X61200Y151128D02*
X61200Y174362D01*
X64273Y177435D01*
D14*
X69500Y177500D01*
D15*
X68500Y177500D03*
X68500Y153000D03*
X93500Y149500D03*
X73500Y65000D03*
X71500Y74300D03*
X61000Y73000D03*
X-12700Y152400D03*
X0Y152400D03*
X12700Y152400D03*
X0Y139700D03*
X-12700Y139700D03*
X-12700Y127000D03*
X-12700Y-12700D03*
X-12700Y0D03*
X-12700Y12700D03*
X0Y0D03*
X0Y-12700D03*
X12700Y-12700D03*
X152400Y-12700D03*
X139700Y-12700D03*
X127000Y-12700D03*
X139700Y0D03*
X152400Y0D03*
X152400Y12700D03*
X152400Y152400D03*
X152400Y139700D03*
X152400Y127000D03*
X139700Y139700D03*
X139700Y152400D03*
X127000Y152400D03*
X50800Y190500D03*
X63500Y190500D03*
X88900Y190500D03*
X76200Y190500D03*
X50800Y203200D03*
X63500Y203200D03*
X88900Y203200D03*
X76200Y203200D03*
M02*
