G04 EAGLE Gerber RS-274X export*
G75*
%MOMM*%
%FSLAX34Y34*%
%LPD*%
%INSilkscreen Bottom*%
%IPPOS*%
%AMOC8*
5,1,8,0,0,1.08239X$1,22.5*%
G01*
%ADD10C,0.000000*%
%ADD11C,0.200000*%


D10*
X74838Y-13755D02*
X75091Y-13755D01*
X75286Y-13774D01*
X75462Y-13794D01*
X75599Y-13794D01*
X75677Y-13813D01*
X75716Y-13813D01*
X75852Y-13852D01*
X75930Y-13872D01*
X75989Y-13911D01*
X76008Y-13911D01*
X76067Y-13970D01*
X76086Y-14048D01*
X76106Y-14106D01*
X76106Y-16193D01*
X76067Y-16252D01*
X76008Y-16388D01*
X75930Y-16486D01*
X75891Y-16525D01*
X75579Y-16857D01*
X75306Y-17169D01*
X75033Y-17442D01*
X74779Y-17715D01*
X74565Y-17949D01*
X74350Y-18183D01*
X74155Y-18378D01*
X73999Y-18554D01*
X73843Y-18729D01*
X73706Y-18866D01*
X73609Y-18983D01*
X73511Y-19061D01*
X73453Y-19139D01*
X73394Y-19197D01*
X73375Y-19217D01*
X73355Y-19236D01*
X73667Y-19568D01*
X73940Y-19861D01*
X74214Y-20134D01*
X74467Y-20407D01*
X74682Y-20641D01*
X74896Y-20855D01*
X75091Y-21051D01*
X75247Y-21226D01*
X75404Y-21382D01*
X75540Y-21519D01*
X75638Y-21636D01*
X75891Y-21889D01*
X75969Y-21948D01*
X76008Y-22006D01*
X76086Y-22143D01*
X76106Y-22221D01*
X76106Y-24250D01*
X76086Y-24347D01*
X76047Y-24425D01*
X75969Y-24464D01*
X75911Y-24503D01*
X75755Y-24542D01*
X75286Y-24542D01*
X75033Y-24523D01*
X74604Y-24523D01*
X74428Y-24503D01*
X74272Y-24503D01*
X73940Y-24484D01*
X73414Y-24484D01*
X73219Y-24464D01*
X72790Y-24464D01*
X72711Y-24425D01*
X72575Y-24367D01*
X72497Y-24289D01*
X72458Y-24269D01*
X72458Y-24250D01*
X72224Y-23899D01*
X71951Y-23548D01*
X71678Y-23196D01*
X71424Y-22865D01*
X71190Y-22572D01*
X71092Y-22455D01*
X71014Y-22358D01*
X70936Y-22260D01*
X70878Y-22201D01*
X70858Y-22163D01*
X70839Y-22143D01*
X70449Y-22592D01*
X70098Y-23001D01*
X69805Y-23372D01*
X69571Y-23665D01*
X69376Y-23918D01*
X69239Y-24094D01*
X69142Y-24211D01*
X69122Y-24250D01*
X69044Y-24328D01*
X68966Y-24386D01*
X68830Y-24464D01*
X68732Y-24484D01*
X68069Y-24484D01*
X67854Y-24503D01*
X67347Y-24503D01*
X67035Y-24523D01*
X66762Y-24523D01*
X66528Y-24542D01*
X66001Y-24542D01*
X65865Y-24523D01*
X65767Y-24503D01*
X65708Y-24445D01*
X65669Y-24406D01*
X65611Y-24289D01*
X65611Y-22260D01*
X65630Y-22201D01*
X65669Y-22143D01*
X65728Y-22045D01*
X65806Y-21948D01*
X66001Y-21714D01*
X66235Y-21460D01*
X66469Y-21226D01*
X66664Y-21012D01*
X66742Y-20934D01*
X66802Y-20875D01*
X66840Y-20836D01*
X66859Y-20816D01*
X67445Y-20270D01*
X67698Y-20017D01*
X67952Y-19783D01*
X68147Y-19588D01*
X68303Y-19451D01*
X68400Y-19353D01*
X68439Y-19315D01*
X68127Y-18983D01*
X67815Y-18671D01*
X67542Y-18378D01*
X67289Y-18105D01*
X67054Y-17851D01*
X66840Y-17637D01*
X66664Y-17422D01*
X66196Y-16954D01*
X66099Y-16837D01*
X66001Y-16739D01*
X65942Y-16661D01*
X65884Y-16603D01*
X65865Y-16583D01*
X65845Y-16564D01*
X65767Y-16466D01*
X65728Y-16388D01*
X65650Y-16252D01*
X65630Y-16174D01*
X65630Y-15491D01*
X65611Y-15354D01*
X65611Y-14125D01*
X65630Y-14067D01*
X65689Y-13989D01*
X65767Y-13950D01*
X65884Y-13892D01*
X66021Y-13872D01*
X66177Y-13833D01*
X66508Y-13794D01*
X66820Y-13755D01*
X66976Y-13755D01*
X67113Y-13735D01*
X67679Y-13735D01*
X67932Y-13755D01*
X68147Y-13755D01*
X68322Y-13774D01*
X68439Y-13794D01*
X68537Y-13794D01*
X68596Y-13813D01*
X68615Y-13813D01*
X68810Y-13872D01*
X68947Y-13970D01*
X69025Y-14048D01*
X69044Y-14087D01*
X69317Y-14438D01*
X69571Y-14750D01*
X69785Y-15023D01*
X69980Y-15277D01*
X70156Y-15491D01*
X70312Y-15686D01*
X70429Y-15842D01*
X70546Y-15979D01*
X70644Y-16096D01*
X70702Y-16174D01*
X70819Y-16310D01*
X70858Y-16369D01*
X70878Y-16388D01*
X71268Y-15842D01*
X71619Y-15374D01*
X71892Y-14964D01*
X72126Y-14633D01*
X72321Y-14379D01*
X72458Y-14184D01*
X72536Y-14067D01*
X72556Y-14048D01*
X72556Y-14028D01*
X72750Y-13930D01*
X72887Y-13852D01*
X72965Y-13813D01*
X72985Y-13813D01*
X73199Y-13794D01*
X73414Y-13774D01*
X73648Y-13755D01*
X73863Y-13755D01*
X74038Y-13735D01*
X74584Y-13735D01*
X74838Y-13755D01*
X60500Y-13794D02*
X60012Y-13755D01*
X60500Y-13794D02*
X60968Y-13872D01*
X61378Y-13970D01*
X61768Y-14087D01*
X62119Y-14204D01*
X62431Y-14340D01*
X62704Y-14478D01*
X62958Y-14613D01*
X63172Y-14750D01*
X63348Y-14867D01*
X63504Y-14984D01*
X63621Y-15081D01*
X63758Y-15218D01*
X63875Y-15315D01*
X63933Y-15413D01*
X63953Y-15452D01*
X63953Y-15472D01*
X63933Y-15608D01*
X63875Y-15784D01*
X63777Y-15998D01*
X63680Y-16232D01*
X63563Y-16447D01*
X63485Y-16623D01*
X63407Y-16739D01*
X63387Y-16759D01*
X63387Y-16779D01*
X63290Y-16974D01*
X63094Y-17286D01*
X63017Y-17403D01*
X62880Y-17598D01*
X62782Y-17754D01*
X62685Y-17851D01*
X62626Y-17890D01*
X62607Y-17929D01*
X62587Y-17929D01*
X62275Y-17734D01*
X62002Y-17559D01*
X61885Y-17481D01*
X61807Y-17422D01*
X61749Y-17403D01*
X61729Y-17383D01*
X61358Y-17208D01*
X60988Y-17071D01*
X60637Y-16974D01*
X60344Y-16915D01*
X60071Y-16876D01*
X59876Y-16837D01*
X59700Y-16837D01*
X59408Y-16857D01*
X59115Y-16896D01*
X58881Y-16935D01*
X58647Y-17013D01*
X58471Y-17071D01*
X58335Y-17110D01*
X58257Y-17149D01*
X58218Y-17169D01*
X57945Y-17325D01*
X57730Y-17500D01*
X57574Y-17676D01*
X57457Y-17871D01*
X57359Y-18027D01*
X57320Y-18163D01*
X57281Y-18242D01*
X57281Y-18281D01*
X57769Y-18320D01*
X58218Y-18359D01*
X58627Y-18398D01*
X59018Y-18417D01*
X59369Y-18456D01*
X59700Y-18495D01*
X59993Y-18515D01*
X60246Y-18534D01*
X60481Y-18554D01*
X60676Y-18573D01*
X60851Y-18593D01*
X60988Y-18612D01*
X61105Y-18612D01*
X61183Y-18632D01*
X61241Y-18632D01*
X61631Y-18671D01*
X61963Y-18710D01*
X62275Y-18729D01*
X62529Y-18768D01*
X62743Y-18788D01*
X62938Y-18807D01*
X63094Y-18807D01*
X63231Y-18827D01*
X63329Y-18846D01*
X63465Y-18846D01*
X63504Y-18866D01*
X63563Y-18866D01*
X63699Y-18905D01*
X63816Y-18963D01*
X63992Y-19139D01*
X64128Y-19353D01*
X64206Y-19588D01*
X64265Y-19802D01*
X64284Y-19997D01*
X64304Y-20075D01*
X64304Y-20173D01*
X64284Y-20582D01*
X64245Y-20953D01*
X64167Y-21324D01*
X64070Y-21675D01*
X63953Y-22006D01*
X63816Y-22319D01*
X63680Y-22611D01*
X63543Y-22884D01*
X63407Y-23118D01*
X63270Y-23313D01*
X63133Y-23509D01*
X63017Y-23665D01*
X62919Y-23782D01*
X62841Y-23860D01*
X62802Y-23918D01*
X62782Y-23938D01*
X62490Y-24211D01*
X62197Y-24464D01*
X61885Y-24679D01*
X61573Y-24854D01*
X61261Y-25011D01*
X60968Y-25128D01*
X60676Y-25245D01*
X60383Y-25323D01*
X60129Y-25381D01*
X59876Y-25440D01*
X59661Y-25479D01*
X59486Y-25498D01*
X59330Y-25498D01*
X59213Y-25518D01*
X59115Y-25518D01*
X58647Y-25498D01*
X58198Y-25440D01*
X57769Y-25362D01*
X57379Y-25245D01*
X57008Y-25128D01*
X56677Y-24972D01*
X56364Y-24816D01*
X56091Y-24659D01*
X55838Y-24503D01*
X55604Y-24347D01*
X55428Y-24191D01*
X55272Y-24074D01*
X55135Y-23957D01*
X54999Y-23821D01*
X54980Y-23801D01*
X54706Y-23489D01*
X54492Y-23138D01*
X54277Y-22787D01*
X54121Y-22436D01*
X53965Y-22084D01*
X53848Y-21733D01*
X53751Y-21382D01*
X53673Y-21051D01*
X53594Y-20739D01*
X53555Y-20465D01*
X53516Y-20193D01*
X53497Y-19978D01*
X53497Y-19802D01*
X53477Y-19666D01*
X53477Y-19548D01*
X53497Y-19061D01*
X53555Y-18612D01*
X53634Y-18163D01*
X53751Y-17754D01*
X53868Y-17383D01*
X54024Y-17032D01*
X54160Y-16701D01*
X54336Y-16427D01*
X54492Y-16154D01*
X54648Y-15920D01*
X54784Y-15725D01*
X54902Y-15569D01*
X55018Y-15452D01*
X55096Y-15354D01*
X55155Y-15296D01*
X55175Y-15277D01*
X55487Y-15003D01*
X55818Y-14769D01*
X56169Y-14555D01*
X56540Y-14379D01*
X56891Y-14243D01*
X57242Y-14106D01*
X57593Y-14008D01*
X57945Y-13930D01*
X58257Y-13872D01*
X58549Y-13813D01*
X58803Y-13774D01*
X59037Y-13755D01*
X59232Y-13755D01*
X59369Y-13735D01*
X59486Y-13735D01*
X60012Y-13755D01*
X43802Y-13755D02*
X43353Y-13755D01*
X43802Y-13755D02*
X43938Y-13774D01*
X44016Y-13774D01*
X44114Y-13794D01*
X44192Y-13813D01*
X44231Y-13872D01*
X44270Y-13911D01*
X44309Y-13989D01*
X44309Y-14711D01*
X44289Y-15081D01*
X44289Y-15452D01*
X44270Y-15764D01*
X44270Y-16037D01*
X44250Y-16135D01*
X44250Y-16271D01*
X44231Y-16564D01*
X44211Y-16817D01*
X44211Y-17071D01*
X44192Y-17286D01*
X44172Y-17500D01*
X44172Y-17676D01*
X44153Y-17988D01*
X44153Y-18222D01*
X44133Y-18378D01*
X44133Y-18515D01*
X44114Y-19041D01*
X44114Y-19510D01*
X44095Y-19919D01*
X44075Y-20251D01*
X44075Y-20524D01*
X44056Y-20719D01*
X44056Y-20875D01*
X44348Y-20855D01*
X44660Y-20836D01*
X44972Y-20816D01*
X45284Y-20816D01*
X45558Y-20797D01*
X45987Y-20797D01*
X46084Y-20816D01*
X46162Y-20836D01*
X46201Y-20875D01*
X46240Y-20934D01*
X46279Y-21031D01*
X46279Y-22670D01*
X46260Y-23040D01*
X46260Y-23625D01*
X46240Y-23860D01*
X46240Y-24250D01*
X46221Y-24328D01*
X46182Y-24406D01*
X46084Y-24464D01*
X45967Y-24503D01*
X45304Y-24503D01*
X45148Y-24484D01*
X44680Y-24484D01*
X44485Y-24464D01*
X43938Y-24464D01*
X43899Y-24718D01*
X43880Y-24933D01*
X43860Y-25030D01*
X43860Y-25167D01*
X43880Y-25576D01*
X43919Y-25908D01*
X43977Y-26181D01*
X44056Y-26396D01*
X44133Y-26552D01*
X44192Y-26670D01*
X44231Y-26727D01*
X44250Y-26747D01*
X44368Y-26825D01*
X44524Y-26903D01*
X44699Y-26961D01*
X45089Y-27039D01*
X45245Y-27059D01*
X45343Y-27078D01*
X45382Y-27078D01*
X45655Y-27117D01*
X45850Y-27176D01*
X45987Y-27234D01*
X46084Y-27293D01*
X46143Y-27351D01*
X46162Y-27390D01*
X46182Y-27410D01*
X46182Y-27430D01*
X46162Y-27625D01*
X46143Y-27859D01*
X46123Y-27937D01*
X46104Y-28015D01*
X46084Y-28073D01*
X46084Y-28093D01*
X46045Y-28268D01*
X46006Y-28405D01*
X45987Y-28502D01*
X45967Y-28580D01*
X45948Y-28639D01*
X45948Y-28697D01*
X45889Y-29068D01*
X45831Y-29400D01*
X45772Y-29653D01*
X45733Y-29868D01*
X45714Y-30024D01*
X45694Y-30141D01*
X45675Y-30200D01*
X45675Y-30219D01*
X45616Y-30297D01*
X45518Y-30336D01*
X45440Y-30356D01*
X45401Y-30356D01*
X44797Y-30336D01*
X44231Y-30277D01*
X43704Y-30200D01*
X43236Y-30082D01*
X42788Y-29946D01*
X42397Y-29809D01*
X42046Y-29634D01*
X41734Y-29478D01*
X41441Y-29322D01*
X41207Y-29166D01*
X41012Y-29010D01*
X40856Y-28873D01*
X40720Y-28756D01*
X40564Y-28600D01*
X40427Y-28424D01*
X40310Y-28229D01*
X40115Y-27781D01*
X39998Y-27312D01*
X39900Y-26844D01*
X39842Y-26435D01*
X39822Y-26239D01*
X39822Y-26083D01*
X39803Y-25947D01*
X39803Y-25557D01*
X39822Y-25342D01*
X39822Y-25108D01*
X39842Y-24874D01*
X39842Y-24679D01*
X39861Y-24523D01*
X39861Y-24367D01*
X39569Y-24347D01*
X39315Y-24328D01*
X39218Y-24328D01*
X39140Y-24308D01*
X39081Y-24308D01*
X38945Y-24269D01*
X38827Y-24191D01*
X38750Y-24113D01*
X38711Y-24035D01*
X38671Y-23938D01*
X38652Y-23879D01*
X38652Y-22845D01*
X38671Y-22572D01*
X38671Y-22299D01*
X38691Y-22065D01*
X38691Y-21850D01*
X38711Y-21675D01*
X38711Y-21343D01*
X38730Y-21226D01*
X38730Y-21129D01*
X38750Y-21031D01*
X38750Y-20934D01*
X38769Y-20875D01*
X38808Y-20836D01*
X38925Y-20797D01*
X39042Y-20778D01*
X39335Y-20778D01*
X39452Y-20797D01*
X39588Y-20797D01*
X39744Y-20778D01*
X39842Y-20739D01*
X39920Y-20701D01*
X39978Y-20641D01*
X40018Y-20563D01*
X40037Y-20524D01*
X40037Y-14243D01*
X40057Y-14125D01*
X40096Y-14008D01*
X40154Y-13930D01*
X40232Y-13872D01*
X40349Y-13813D01*
X40388Y-13794D01*
X40486Y-13794D01*
X40583Y-13774D01*
X40837Y-13755D01*
X41110Y-13755D01*
X41383Y-13735D01*
X43197Y-13735D01*
X43353Y-13755D01*
X94735Y-13755D02*
X95145Y-13755D01*
X95281Y-13774D01*
X95379Y-13774D01*
X95515Y-13794D01*
X95613Y-13833D01*
X95672Y-13892D01*
X95730Y-13930D01*
X95769Y-14048D01*
X95769Y-14360D01*
X95750Y-14672D01*
X95730Y-14808D01*
X95730Y-14925D01*
X95710Y-15003D01*
X95710Y-15023D01*
X95691Y-15257D01*
X95691Y-15628D01*
X95672Y-15764D01*
X95672Y-16935D01*
X95652Y-17149D01*
X95652Y-17832D01*
X95632Y-18124D01*
X95632Y-18963D01*
X95652Y-19275D01*
X95691Y-19529D01*
X95730Y-19724D01*
X95808Y-19880D01*
X95867Y-19997D01*
X95906Y-20075D01*
X95945Y-20114D01*
X95964Y-20134D01*
X96120Y-20231D01*
X96315Y-20309D01*
X96510Y-20348D01*
X96725Y-20387D01*
X96939Y-20407D01*
X97096Y-20426D01*
X97447Y-20426D01*
X97642Y-20407D01*
X97739Y-20407D01*
X97817Y-20387D01*
X97876Y-20387D01*
X98149Y-20368D01*
X98500Y-20368D01*
X98656Y-20387D01*
X98773Y-20447D01*
X98851Y-20504D01*
X98910Y-20602D01*
X98949Y-20680D01*
X98968Y-20739D01*
X98968Y-21343D01*
X98949Y-21480D01*
X98949Y-22689D01*
X98968Y-22826D01*
X98988Y-23138D01*
X98988Y-23274D01*
X99007Y-23392D01*
X99007Y-23489D01*
X99027Y-23704D01*
X99046Y-23879D01*
X99066Y-24035D01*
X99085Y-24172D01*
X99085Y-24406D01*
X99066Y-24503D01*
X98988Y-24581D01*
X98890Y-24620D01*
X98773Y-24659D01*
X98637Y-24679D01*
X98539Y-24698D01*
X98441Y-24698D01*
X98071Y-24679D01*
X97700Y-24601D01*
X97369Y-24503D01*
X97037Y-24406D01*
X96764Y-24289D01*
X96569Y-24191D01*
X96491Y-24152D01*
X96432Y-24113D01*
X96393Y-24094D01*
X96374Y-24094D01*
X96218Y-23996D01*
X96062Y-23918D01*
X95828Y-23782D01*
X95672Y-23684D01*
X95554Y-23606D01*
X95496Y-23567D01*
X95457Y-23528D01*
X95437Y-23509D01*
X95379Y-23548D01*
X95340Y-23645D01*
X95301Y-23762D01*
X95281Y-23899D01*
X95262Y-24016D01*
X95242Y-24133D01*
X95242Y-24230D01*
X95223Y-24464D01*
X95184Y-24640D01*
X95145Y-24757D01*
X95106Y-24854D01*
X95067Y-24893D01*
X95028Y-24913D01*
X95008Y-24933D01*
X94950Y-24933D01*
X94891Y-24913D01*
X94794Y-24893D01*
X94677Y-24874D01*
X94540Y-24854D01*
X94384Y-24816D01*
X94033Y-24757D01*
X93701Y-24698D01*
X93545Y-24659D01*
X93409Y-24640D01*
X93311Y-24620D01*
X93214Y-24601D01*
X93155Y-24581D01*
X93136Y-24581D01*
X92726Y-24523D01*
X92355Y-24464D01*
X92043Y-24406D01*
X91790Y-24367D01*
X91594Y-24347D01*
X91438Y-24328D01*
X91360Y-24308D01*
X91321Y-24308D01*
X91224Y-24250D01*
X91186Y-24191D01*
X91165Y-24113D01*
X91165Y-24094D01*
X91186Y-23996D01*
X91186Y-23938D01*
X91263Y-23606D01*
X91341Y-23255D01*
X91458Y-22533D01*
X91556Y-21792D01*
X91594Y-21441D01*
X91614Y-21109D01*
X91634Y-20797D01*
X91653Y-20504D01*
X91653Y-20231D01*
X91672Y-20017D01*
X91672Y-17871D01*
X91653Y-17481D01*
X91653Y-14165D01*
X91672Y-14067D01*
X91712Y-13970D01*
X91829Y-13872D01*
X91946Y-13813D01*
X91985Y-13794D01*
X92004Y-13794D01*
X92277Y-13774D01*
X92550Y-13755D01*
X92843Y-13755D01*
X93116Y-13735D01*
X94462Y-13735D01*
X94735Y-13755D01*
X82933Y-13794D02*
X82680Y-13755D01*
X82933Y-13794D02*
X83187Y-13852D01*
X83440Y-13930D01*
X83909Y-14145D01*
X84299Y-14379D01*
X84474Y-14496D01*
X84650Y-14594D01*
X84787Y-14711D01*
X84903Y-14808D01*
X85001Y-14886D01*
X85118Y-15003D01*
X85217Y-15081D01*
X85294Y-15140D01*
X85333Y-15179D01*
X85352Y-15179D01*
X85391Y-15159D01*
X85411Y-15081D01*
X85450Y-14984D01*
X85469Y-14867D01*
X85489Y-14730D01*
X85489Y-14633D01*
X85508Y-14555D01*
X85508Y-14535D01*
X85547Y-14321D01*
X85586Y-14165D01*
X85645Y-14048D01*
X85703Y-13970D01*
X85762Y-13930D01*
X85801Y-13911D01*
X85820Y-13892D01*
X86484Y-13892D01*
X87088Y-13911D01*
X87634Y-13930D01*
X87869Y-13930D01*
X88103Y-13950D01*
X88473Y-13950D01*
X88649Y-13970D01*
X88766Y-13970D01*
X88883Y-13989D01*
X89020Y-13989D01*
X89156Y-14008D01*
X89254Y-14067D01*
X89312Y-14145D01*
X89371Y-14243D01*
X89390Y-14321D01*
X89410Y-14399D01*
X89410Y-14828D01*
X89390Y-15237D01*
X89371Y-15667D01*
X89351Y-16076D01*
X89332Y-16447D01*
X89312Y-16623D01*
X89312Y-16876D01*
X89293Y-16954D01*
X89293Y-17032D01*
X89273Y-17344D01*
X89254Y-17637D01*
X89254Y-17910D01*
X89234Y-18163D01*
X89234Y-18398D01*
X89215Y-18612D01*
X89215Y-18983D01*
X89195Y-19119D01*
X89195Y-19627D01*
X89215Y-20465D01*
X89254Y-21265D01*
X89293Y-21636D01*
X89312Y-21987D01*
X89351Y-22338D01*
X89390Y-22631D01*
X89429Y-22923D01*
X89468Y-23177D01*
X89488Y-23392D01*
X89527Y-23587D01*
X89546Y-23743D01*
X89566Y-23840D01*
X89585Y-23918D01*
X89585Y-23938D01*
X89605Y-24055D01*
X89605Y-24172D01*
X89585Y-24250D01*
X89527Y-24308D01*
X89468Y-24347D01*
X89449Y-24367D01*
X89234Y-24425D01*
X89000Y-24484D01*
X88727Y-24542D01*
X88454Y-24601D01*
X88220Y-24659D01*
X88005Y-24698D01*
X87947Y-24718D01*
X87888Y-24738D01*
X87830Y-24738D01*
X87440Y-24816D01*
X87088Y-24874D01*
X86815Y-24913D01*
X86601Y-24952D01*
X86445Y-24952D01*
X86328Y-24972D01*
X86249Y-24972D01*
X86191Y-24952D01*
X86132Y-24893D01*
X86074Y-24796D01*
X86035Y-24698D01*
X85996Y-24601D01*
X85957Y-24503D01*
X85937Y-24445D01*
X85937Y-24425D01*
X85898Y-24250D01*
X85840Y-24113D01*
X85801Y-24035D01*
X85781Y-23957D01*
X85762Y-23918D01*
X85742Y-23899D01*
X85723Y-23899D01*
X85645Y-23918D01*
X85625Y-23938D01*
X85430Y-24152D01*
X85217Y-24347D01*
X85001Y-24523D01*
X84767Y-24659D01*
X84533Y-24777D01*
X84299Y-24874D01*
X83850Y-25030D01*
X83460Y-25128D01*
X83284Y-25147D01*
X83128Y-25167D01*
X83011Y-25186D01*
X82836Y-25186D01*
X82368Y-25167D01*
X81938Y-25108D01*
X81509Y-25030D01*
X81139Y-24933D01*
X80768Y-24796D01*
X80436Y-24659D01*
X80144Y-24503D01*
X79871Y-24367D01*
X79637Y-24211D01*
X79422Y-24055D01*
X79227Y-23918D01*
X79090Y-23782D01*
X78973Y-23684D01*
X78817Y-23528D01*
X78564Y-23216D01*
X78349Y-22904D01*
X78174Y-22553D01*
X77998Y-22201D01*
X77861Y-21850D01*
X77764Y-21499D01*
X77666Y-21168D01*
X77588Y-20836D01*
X77530Y-20524D01*
X77491Y-20251D01*
X77452Y-19997D01*
X77432Y-19763D01*
X77432Y-19588D01*
X77413Y-19451D01*
X77413Y-19334D01*
X77432Y-18924D01*
X77471Y-18515D01*
X77530Y-18144D01*
X77627Y-17773D01*
X77725Y-17442D01*
X77842Y-17110D01*
X77978Y-16817D01*
X78095Y-16564D01*
X78232Y-16310D01*
X78349Y-16096D01*
X78466Y-15920D01*
X78564Y-15764D01*
X78661Y-15628D01*
X78720Y-15550D01*
X78759Y-15491D01*
X78778Y-15472D01*
X79051Y-15159D01*
X79344Y-14906D01*
X79656Y-14672D01*
X79949Y-14478D01*
X80261Y-14301D01*
X80553Y-14165D01*
X80846Y-14048D01*
X81139Y-13950D01*
X81392Y-13872D01*
X81646Y-13833D01*
X81860Y-13794D01*
X82036Y-13755D01*
X82192Y-13755D01*
X82309Y-13735D01*
X82407Y-13735D01*
X82680Y-13755D01*
X50903Y-13755D02*
X50571Y-13755D01*
X50903Y-13755D02*
X51156Y-13774D01*
X51332Y-13794D01*
X51468Y-13794D01*
X51546Y-13813D01*
X51566Y-13813D01*
X51663Y-13852D01*
X51722Y-13892D01*
X51800Y-13989D01*
X51839Y-14067D01*
X51839Y-14672D01*
X51819Y-14808D01*
X51819Y-15003D01*
X51800Y-15218D01*
X51780Y-15394D01*
X51780Y-15550D01*
X51761Y-15667D01*
X51761Y-16935D01*
X51741Y-17305D01*
X51741Y-21324D01*
X51761Y-22065D01*
X51800Y-23548D01*
X51819Y-24269D01*
X51839Y-24991D01*
X51878Y-25674D01*
X51897Y-26318D01*
X51936Y-26922D01*
X51956Y-27488D01*
X51975Y-27976D01*
X51995Y-28210D01*
X52014Y-28405D01*
X52014Y-28580D01*
X52034Y-28756D01*
X52034Y-29010D01*
X52053Y-29107D01*
X52053Y-29478D01*
X52014Y-29556D01*
X51936Y-29614D01*
X51839Y-29653D01*
X47762Y-29653D01*
X47664Y-29634D01*
X47586Y-29614D01*
X47508Y-29536D01*
X47469Y-29439D01*
X47469Y-29341D01*
X47489Y-29283D01*
X47508Y-29244D01*
X47508Y-29224D01*
X47586Y-28522D01*
X47645Y-27781D01*
X47703Y-27078D01*
X47723Y-26727D01*
X47742Y-26396D01*
X47742Y-26083D01*
X47762Y-25810D01*
X47762Y-25557D01*
X47781Y-25342D01*
X47781Y-24933D01*
X47762Y-20621D01*
X47762Y-18749D01*
X47742Y-18515D01*
X47742Y-14125D01*
X47762Y-14048D01*
X47781Y-13970D01*
X47879Y-13872D01*
X47957Y-13833D01*
X47996Y-13813D01*
X48074Y-13794D01*
X48171Y-13794D01*
X48425Y-13774D01*
X48718Y-13755D01*
X49010Y-13755D01*
X49283Y-13735D01*
X50200Y-13735D01*
X50571Y-13755D01*
X57398Y-20426D02*
X57652Y-20426D01*
X57398Y-20426D02*
X57281Y-20447D01*
X57203Y-20485D01*
X57145Y-20524D01*
X57106Y-20582D01*
X57067Y-20701D01*
X57067Y-20739D01*
X57086Y-20992D01*
X57145Y-21246D01*
X57203Y-21460D01*
X57301Y-21655D01*
X57379Y-21811D01*
X57437Y-21928D01*
X57496Y-22006D01*
X57515Y-22026D01*
X57691Y-22221D01*
X57886Y-22358D01*
X58081Y-22475D01*
X58257Y-22533D01*
X58413Y-22572D01*
X58549Y-22611D01*
X58666Y-22611D01*
X58920Y-22592D01*
X59134Y-22533D01*
X59349Y-22436D01*
X59525Y-22358D01*
X59661Y-22260D01*
X59759Y-22163D01*
X59837Y-22104D01*
X59856Y-22084D01*
X60032Y-21889D01*
X60149Y-21675D01*
X60246Y-21480D01*
X60305Y-21285D01*
X60344Y-21129D01*
X60363Y-20992D01*
X60363Y-20875D01*
X60344Y-20836D01*
X60305Y-20797D01*
X60188Y-20719D01*
X60051Y-20701D01*
X60012Y-20680D01*
X59993Y-20680D01*
X59369Y-20602D01*
X59095Y-20563D01*
X58842Y-20543D01*
X58608Y-20504D01*
X58393Y-20485D01*
X58198Y-20465D01*
X58023Y-20465D01*
X57886Y-20447D01*
X57750Y-20447D01*
X57652Y-20426D01*
X83402Y-17325D02*
X83440Y-17325D01*
X83402Y-17325D02*
X83070Y-17344D01*
X82777Y-17422D01*
X82524Y-17520D01*
X82309Y-17656D01*
X82134Y-17773D01*
X81997Y-17871D01*
X81899Y-17949D01*
X81880Y-17968D01*
X81665Y-18222D01*
X81529Y-18495D01*
X81412Y-18768D01*
X81334Y-19002D01*
X81295Y-19217D01*
X81275Y-19393D01*
X81256Y-19510D01*
X81256Y-19548D01*
X81275Y-19900D01*
X81353Y-20212D01*
X81451Y-20485D01*
X81548Y-20719D01*
X81665Y-20895D01*
X81743Y-21031D01*
X81821Y-21129D01*
X81841Y-21148D01*
X82075Y-21363D01*
X82329Y-21519D01*
X82602Y-21616D01*
X82836Y-21694D01*
X83070Y-21733D01*
X83245Y-21772D01*
X83402Y-21772D01*
X83753Y-21753D01*
X84065Y-21675D01*
X84338Y-21577D01*
X84552Y-21460D01*
X84747Y-21343D01*
X84865Y-21246D01*
X84963Y-21168D01*
X84982Y-21148D01*
X85177Y-20895D01*
X85333Y-20641D01*
X85430Y-20368D01*
X85508Y-20114D01*
X85547Y-19900D01*
X85586Y-19705D01*
X85586Y-19548D01*
X85567Y-19197D01*
X85489Y-18905D01*
X85391Y-18632D01*
X85294Y-18398D01*
X85177Y-18203D01*
X85079Y-18066D01*
X85001Y-17988D01*
X84982Y-17949D01*
X84747Y-17734D01*
X84474Y-17598D01*
X84221Y-17481D01*
X83967Y-17403D01*
X83733Y-17364D01*
X83558Y-17344D01*
X83440Y-17325D01*
D11*
X47665Y176127D02*
X41184Y176127D01*
X63315Y176127D02*
X73280Y176127D01*
X41184Y176127D02*
X41184Y208219D01*
X95527Y208219D01*
X95527Y176127D01*
X89047Y176127D01*
M02*
