G04 EAGLE Gerber RS-274X export*
G75*
%MOMM*%
%FSLAX34Y34*%
%LPD*%
%IN*%
%IPPOS*%
%AMOC8*
5,1,8,0,0,1.08239X$1,22.5*%
G01*
%ADD10C,0.254000*%


D10*
X-32236Y0D02*
X-32158Y-2248D01*
X-31923Y-4486D01*
X-31532Y-6702D01*
X-30988Y-8885D01*
X-30292Y-11025D01*
X-29449Y-13111D01*
X-28463Y-15134D01*
X-27338Y-17082D01*
X-26080Y-18948D01*
X-24694Y-20721D01*
X-23189Y-22393D01*
X-21570Y-23956D01*
X-19847Y-25403D01*
X-18026Y-26725D01*
X-16118Y-27917D01*
X-14131Y-28974D01*
X-12076Y-29889D01*
X-9961Y-30659D01*
X-7798Y-31279D01*
X-5597Y-31747D01*
X-3369Y-32060D01*
X-1124Y-32217D01*
X0Y-32236D01*
X137128Y-32236D01*
X139377Y-32158D01*
X141615Y-31923D01*
X143831Y-31532D01*
X146014Y-30988D01*
X148154Y-30292D01*
X150240Y-29449D01*
X152263Y-28463D01*
X154211Y-27338D01*
X156077Y-26080D01*
X157850Y-24694D01*
X159522Y-23189D01*
X161085Y-21570D01*
X162532Y-19847D01*
X163854Y-18026D01*
X165046Y-16118D01*
X166103Y-14131D01*
X167018Y-12076D01*
X167788Y-9961D01*
X168408Y-7798D01*
X168876Y-5597D01*
X169189Y-3369D01*
X169346Y-1124D01*
X169365Y0D01*
X169365Y137128D01*
X169287Y139377D01*
X169052Y141615D01*
X168661Y143831D01*
X168117Y146014D01*
X167421Y148154D01*
X166578Y150240D01*
X165592Y152263D01*
X164467Y154211D01*
X163209Y156077D01*
X161823Y157850D01*
X160318Y159522D01*
X158699Y161085D01*
X156976Y162532D01*
X155155Y163854D01*
X153247Y165046D01*
X151260Y166103D01*
X149205Y167018D01*
X147090Y167788D01*
X144927Y168408D01*
X142726Y168876D01*
X140498Y169189D01*
X138253Y169346D01*
X137128Y169365D01*
X99073Y169365D01*
X99073Y211379D01*
X38054Y211379D01*
X38054Y169365D01*
X0Y169365D01*
X-2248Y169287D01*
X-4486Y169052D01*
X-6702Y168661D01*
X-8885Y168117D01*
X-11025Y167421D01*
X-13111Y166578D01*
X-15134Y165592D01*
X-17082Y164467D01*
X-18948Y163209D01*
X-20721Y161823D01*
X-22393Y160318D01*
X-23956Y158699D01*
X-25403Y156976D01*
X-26725Y155155D01*
X-27917Y153247D01*
X-28974Y151260D01*
X-29889Y149205D01*
X-30659Y147090D01*
X-31279Y144927D01*
X-31747Y142726D01*
X-32060Y140498D01*
X-32217Y138253D01*
X-32236Y137128D01*
X-32236Y0D01*
M02*
