M48
;GenerationSoftware,Autodesk,EAGLE,9.6.2*%
;CreationDate,2023-09-27T14:08:47Z*%
FMAT,2
ICI,OFF
METRIC,TZ,000.000
T1C0.350
%
G90
M71
T1
X6850Y17750
X6850Y15300
X9350Y14950
X7350Y6500
X7150Y7430
X6100Y7300
X-1270Y15240
X0Y15240
X1270Y15240
X0Y13970
X-1270Y13970
X-1270Y12700
X-1270Y-1270
X-1270Y0
X-1270Y1270
X0Y0
X0Y-1270
X1270Y-1270
X15240Y-1270
X13970Y-1270
X12700Y-1270
X13970Y0
X15240Y0
X15240Y1270
X15240Y15240
X15240Y13970
X15240Y12700
X13970Y13970
X13970Y15240
X12700Y15240
X5080Y19050
X6350Y19050
X8890Y19050
X7620Y19050
X5080Y20320
X6350Y20320
X8890Y20320
X7620Y20320
M30