%TF.GenerationSoftware,KiCad,Pcbnew,7.0.5*%
%TF.CreationDate,2023-08-28T16:34:51-05:00*%
%TF.ProjectId,Chimera_0003_Hydra,4368696d-6572-4615-9f30-3030335f4879,rev?*%
%TF.SameCoordinates,Original*%
%TF.FileFunction,Copper,L4,Bot*%
%TF.FilePolarity,Positive*%
%FSLAX46Y46*%
G04 Gerber Fmt 4.6, Leading zero omitted, Abs format (unit mm)*
G04 Created by KiCad (PCBNEW 7.0.5) date 2023-08-28 16:34:51*
%MOMM*%
%LPD*%
G01*
G04 APERTURE LIST*
%TA.AperFunction,SMDPad,CuDef*%
%ADD10R,0.350000X1.950000*%
%TD*%
%TA.AperFunction,ConnectorPad*%
%ADD11C,6.400000*%
%TD*%
%TA.AperFunction,ComponentPad*%
%ADD12C,3.600000*%
%TD*%
%TA.AperFunction,ViaPad*%
%ADD13C,0.450000*%
%TD*%
%TA.AperFunction,Conductor*%
%ADD14C,0.127000*%
%TD*%
G04 APERTURE END LIST*
D10*
%TO.P,U2,2,1*%
%TO.N,Net-(CN1-1-Pad73)*%
X103500000Y-91425000D03*
%TO.P,U2,4,1*%
%TO.N,Net-(CN1-1-Pad71)*%
X104000000Y-91425000D03*
%TO.P,U2,6,1*%
%TO.N,Net-(CN1-1-Pad69)*%
X104500000Y-91425000D03*
%TO.P,U2,8,1*%
%TO.N,Net-(CN1-1-Pad67)*%
X105000000Y-91425000D03*
%TO.P,U2,10,1*%
%TO.N,Net-(CN1-1-Pad66)*%
X105500000Y-91425000D03*
%TO.P,U2,12,12*%
%TO.N,Net-(CN1-20-Pad63)*%
X106000000Y-91425000D03*
%TO.P,U2,14,14*%
%TO.N,Net-(CN1-20-Pad61)*%
X106500000Y-91425000D03*
%TO.P,U2,16,16*%
%TO.N,Net-(CN1-20-Pad59)*%
X107000000Y-91425000D03*
%TO.P,U2,18,18*%
%TO.N,Net-(CN1-20-Pad57)*%
X107500000Y-91425000D03*
%TO.P,U2,20,20*%
%TO.N,Net-(CN1-20-Pad55)*%
X108000000Y-91425000D03*
%TO.P,U2,22,20*%
%TO.N,Net-(CN1-20-Pad53)*%
X108500000Y-91425000D03*
%TO.P,U2,24,20*%
%TO.N,Net-(CN1-20-Pad51)*%
X109000000Y-91425000D03*
%TO.P,U2,26,20*%
%TO.N,Net-(CN1-20-Pad49)*%
X109500000Y-91425000D03*
%TO.P,U2,28,20*%
%TO.N,Net-(CN1-20-Pad47)*%
X110000000Y-91425000D03*
%TO.P,U2,30,20*%
%TO.N,Net-(CN1-20-Pad45)*%
X110500000Y-91425000D03*
%TO.P,U2,32,20*%
%TO.N,Net-(CN1-20-Pad43)*%
X111000000Y-91425000D03*
%TO.P,U2,34,20*%
%TO.N,Net-(CN1-20-Pad41)*%
X111500000Y-91425000D03*
%TO.P,U2,36,20*%
%TO.N,Net-(CN1-20-Pad39)*%
X112000000Y-91425000D03*
%TO.P,U2,38,20*%
%TO.N,Net-(CN1-20-Pad37)*%
X112500000Y-91425000D03*
%TO.P,U2,40,20*%
%TO.N,Net-(CN1-20-Pad35)*%
X113000000Y-91425000D03*
%TO.P,U2,42,20*%
%TO.N,Net-(CN1-20-Pad33)*%
X113500000Y-91425000D03*
%TO.P,U2,44,20*%
%TO.N,Net-(CN1-20-Pad31)*%
X114000000Y-91425000D03*
%TO.P,U2,46,20*%
%TO.N,Net-(CN1-20-Pad29)*%
X114500000Y-91425000D03*
%TO.P,U2,48,20*%
%TO.N,Net-(CN1-20-Pad27)*%
X115000000Y-91425000D03*
%TO.P,U2,50,20*%
%TO.N,Net-(CN1-20-Pad25)*%
X115500000Y-91425000D03*
%TO.P,U2,52,20*%
%TO.N,Net-(CN1-20-Pad23)*%
X116000000Y-91425000D03*
%TO.P,U2,54,20*%
%TO.N,Net-(CN1-20-Pad21)*%
X116500000Y-91425000D03*
%TO.P,U2,56,20*%
%TO.N,Net-(CN1-1-Pad11)*%
X117000000Y-91425000D03*
%TO.P,U2,58,20*%
%TO.N,Net-(CN1-1-Pad9)*%
X117500000Y-91425000D03*
%TO.P,U2,68,1*%
%TO.N,Net-(CN1-1-Pad7)*%
X120000000Y-91425000D03*
%TO.P,U2,70,1*%
%TO.N,Net-(CN1-1-Pad5)*%
X120500000Y-91425000D03*
%TO.P,U2,72,1*%
%TO.N,+5V*%
X121000000Y-91425000D03*
%TO.P,U2,74,1*%
%TO.N,+3V3*%
X121500000Y-91425000D03*
%TD*%
D11*
%TO.P,H2,1*%
%TO.N,N/C*%
X112500000Y-149900000D03*
D12*
X112500000Y-149900000D03*
%TD*%
D13*
%TO.N,Net-(CN1-1-Pad11)*%
X119250000Y-103650000D03*
X114700000Y-113400000D03*
%TO.N,Net-(CN1-20-Pad21)*%
X116750000Y-103650000D03*
%TO.N,Net-(CN1-20-Pad23)*%
X116400000Y-116600000D03*
X116250000Y-100900000D03*
X123588400Y-120749500D03*
%TO.N,Net-(CN1-20-Pad25)*%
X102270100Y-124978900D03*
X115750000Y-103650000D03*
%TO.N,Net-(CN1-20-Pad27)*%
X104906000Y-125100000D03*
X115400000Y-115600000D03*
X115250000Y-100900000D03*
%TO.N,Net-(CN1-1-Pad66)*%
X105750000Y-103900000D03*
%TO.N,Net-(CN1-20-Pad33)*%
X113750000Y-103650000D03*
%TO.N,Net-(CN1-20-Pad35)*%
X117600000Y-130400000D03*
X113250000Y-100900000D03*
X113430900Y-126585300D03*
%TO.N,Net-(CN1-20-Pad37)*%
X119298800Y-126707700D03*
X112750000Y-103650000D03*
X112745900Y-122410100D03*
%TO.N,Net-(CN1-1-Pad5)*%
X108347000Y-121100000D03*
X120750000Y-100900000D03*
%TO.N,Net-(CN1-20-Pad39)*%
X122710000Y-126274200D03*
X112250000Y-100900000D03*
X112388500Y-120368500D03*
%TO.N,Net-(CN1-1-Pad69)*%
X104750000Y-103900000D03*
%TO.N,Net-(CN1-1-Pad71)*%
X104000000Y-100900000D03*
%TO.N,Net-(CN1-1-Pad73)*%
X122710000Y-135958400D03*
X103750000Y-103900000D03*
%TO.N,Net-(CN1-20-Pad41)*%
X111750000Y-103650000D03*
X102280000Y-112115300D03*
%TO.N,+3V3*%
X121750000Y-100900000D03*
X118700000Y-111300000D03*
X103700000Y-124400000D03*
%TO.N,Net-(CN1-20-Pad43)*%
X111250000Y-100900000D03*
X104820000Y-110300000D03*
%TO.N,Net-(CN1-20-Pad45)*%
X110750000Y-103650000D03*
X108080200Y-106420600D03*
%TO.N,Net-(CN1-20-Pad47)*%
X110250000Y-101400000D03*
%TO.N,Net-(CN1-20-Pad49)*%
X109750000Y-103650000D03*
%TO.N,Net-(CN1-20-Pad51)*%
X109250000Y-101150000D03*
X107200000Y-106400000D03*
%TO.N,Net-(CN1-20-Pad53)*%
X108750000Y-103900000D03*
X104820000Y-106605500D03*
%TO.N,Net-(CN1-20-Pad55)*%
X102280000Y-106598700D03*
X108250000Y-101150000D03*
%TO.N,Net-(CN1-20-Pad57)*%
X107750000Y-103900000D03*
X111000000Y-120000000D03*
X122710000Y-121009100D03*
%TO.N,Net-(CN1-20-Pad59)*%
X116684900Y-111100000D03*
X109300000Y-111300000D03*
X107250000Y-101400000D03*
%TO.N,Net-(CN1-20-Pad61)*%
X108400000Y-111100000D03*
X115990000Y-111900000D03*
X106750000Y-103900000D03*
%TO.N,Net-(CN1-1-Pad67)*%
X105250000Y-100339000D03*
%TO.N,Net-(CN1-1-Pad7)*%
X120250000Y-103650000D03*
X112031100Y-117247000D03*
%TO.N,Net-(CN1-20-Pad63)*%
X113200000Y-115800000D03*
X106250000Y-100400000D03*
X107002300Y-110313700D03*
%TO.N,Net-(CN1-1-Pad9)*%
X119802500Y-104500000D03*
X112800000Y-114900000D03*
X119750000Y-100900000D03*
%TO.N,GND*%
X104900000Y-135800000D03*
X122500000Y-111600000D03*
X102800000Y-103900000D03*
X122100000Y-94800000D03*
X123622000Y-108325000D03*
%TO.N,+5V*%
X118022000Y-105825000D03*
X111700000Y-113900000D03*
X106100000Y-131800000D03*
X121250000Y-103650000D03*
X110100000Y-110400000D03*
%TO.N,Net-(CN1-20-Pad29)*%
X114750000Y-103650000D03*
X105199500Y-111206400D03*
%TO.N,Net-(CN1-20-Pad31)*%
X109160550Y-121060550D03*
X114944800Y-118700000D03*
X114250000Y-100900000D03*
%TO.N,4*%
X107460000Y-130500000D03*
X120500000Y-107300000D03*
%TO.N,6*%
X111582100Y-106869100D03*
X118500000Y-100300100D03*
%TO.N,8*%
X117026400Y-119546100D03*
X115700000Y-130500000D03*
%TO.N,20*%
X117780300Y-97004200D03*
X118026200Y-99117800D03*
%TD*%
D14*
%TO.N,Net-(CN1-20-Pad63)*%
X107002300Y-110902300D02*
X107002300Y-110313700D01*
X111900000Y-115800000D02*
X107002300Y-110902300D01*
X113200000Y-115800000D02*
X111900000Y-115800000D01*
%TO.N,Net-(CN1-1-Pad9)*%
X114110600Y-114900000D02*
X112800000Y-114900000D01*
X119800000Y-104502500D02*
X119800000Y-109210600D01*
X119802500Y-104500000D02*
X119800000Y-104502500D01*
X119800000Y-109210600D02*
X114110600Y-114900000D01*
%TO.N,Net-(CN1-20-Pad59)*%
X116384900Y-111400000D02*
X116684900Y-111100000D01*
X109300000Y-111300000D02*
X109400000Y-111400000D01*
X109400000Y-111400000D02*
X116384900Y-111400000D01*
%TO.N,Net-(CN1-20-Pad51)*%
X107200000Y-106400000D02*
X109250000Y-104350000D01*
X109250000Y-104350000D02*
X109250000Y-101150000D01*
%TO.N,Net-(CN1-20-Pad53)*%
X105994500Y-106605500D02*
X104820000Y-106605500D01*
X108750000Y-103900000D02*
X108700000Y-103900000D01*
X108700000Y-103900000D02*
X105994500Y-106605500D01*
%TO.N,Net-(CN1-20-Pad55)*%
X106080700Y-106019300D02*
X102859400Y-106019300D01*
X107784500Y-104315500D02*
X106080700Y-106019300D01*
X108250000Y-103987606D02*
X107922106Y-104315500D01*
X107922106Y-104315500D02*
X107784500Y-104315500D01*
X102859400Y-106019300D02*
X102280000Y-106598700D01*
X108250000Y-101150000D02*
X108250000Y-103987606D01*
%TO.N,Net-(CN1-1-Pad11)*%
X117000000Y-91425000D02*
X117000000Y-93650000D01*
X114700000Y-113400000D02*
X115248700Y-113400000D01*
X117000000Y-93650000D02*
X119200000Y-95850000D01*
X115248700Y-113400000D02*
X119250000Y-109398700D01*
X119250000Y-109398700D02*
X119250000Y-103650000D01*
X119200000Y-95850000D02*
X119200000Y-100350000D01*
X119200000Y-100350000D02*
X119250000Y-100400000D01*
X119250000Y-100400000D02*
X119250000Y-103650000D01*
%TO.N,Net-(CN1-20-Pad21)*%
X118946000Y-100455210D02*
X118946000Y-96100000D01*
X116500000Y-93654000D02*
X116500000Y-91425000D01*
X118996000Y-101404000D02*
X118996000Y-100505210D01*
X116750000Y-103650000D02*
X118996000Y-101404000D01*
X118946000Y-96100000D02*
X116500000Y-93654000D01*
X118996000Y-100505210D02*
X118946000Y-100455210D01*
%TO.N,Net-(CN1-20-Pad23)*%
X116000000Y-93900000D02*
X116000000Y-91425000D01*
X116400000Y-116600000D02*
X119438900Y-116600000D01*
X115554000Y-99594790D02*
X115554000Y-94346000D01*
X116004000Y-100654000D02*
X116004000Y-100044790D01*
X115554000Y-94346000D02*
X116000000Y-93900000D01*
X116004000Y-100044790D02*
X115554000Y-99594790D01*
X119438900Y-116600000D02*
X123588400Y-120749500D01*
X116250000Y-100900000D02*
X116004000Y-100654000D01*
%TO.N,Net-(CN1-20-Pad25)*%
X113570700Y-105829300D02*
X110870700Y-105829300D01*
X115750000Y-103650000D02*
X113570700Y-105829300D01*
X115750000Y-100150000D02*
X115750000Y-103650000D01*
X115500000Y-93904000D02*
X115300000Y-94104000D01*
X105617000Y-121632000D02*
X102270100Y-124978900D01*
X115300000Y-94104000D02*
X115300000Y-99700000D01*
X115300000Y-99700000D02*
X115750000Y-100150000D01*
X105617000Y-111083000D02*
X105617000Y-121632000D01*
X110870700Y-105829300D02*
X105617000Y-111083000D01*
X115500000Y-91425000D02*
X115500000Y-93904000D01*
%TO.N,Net-(CN1-20-Pad27)*%
X114866000Y-91534500D02*
X114975000Y-91425000D01*
X115250000Y-100037000D02*
X115004000Y-99791000D01*
X115084900Y-115600000D02*
X115400000Y-115600000D01*
X115004000Y-99791000D02*
X115004000Y-99294590D01*
X115004000Y-99294590D02*
X114900000Y-99190590D01*
X115250000Y-100900000D02*
X115250000Y-100037000D01*
X114900000Y-94057500D02*
X114866000Y-94023500D01*
X104906000Y-125100000D02*
X104906000Y-123494000D01*
X114866000Y-94023500D02*
X114866000Y-91534500D01*
X110404600Y-117995400D02*
X112689500Y-117995400D01*
X112689500Y-117995400D02*
X115084900Y-115600000D01*
X114975000Y-91425000D02*
X115000000Y-91425000D01*
X114900000Y-99190590D02*
X114900000Y-94057500D01*
X104906000Y-123494000D02*
X110404600Y-117995400D01*
%TO.N,Net-(CN1-1-Pad66)*%
X105750000Y-99868400D02*
X105750000Y-103900000D01*
X105500000Y-91425000D02*
X105500000Y-99618400D01*
X105500000Y-99618400D02*
X105750000Y-99868400D01*
%TO.N,Net-(CN1-20-Pad33)*%
X113554000Y-93921900D02*
X113554000Y-100204000D01*
X113475000Y-91425000D02*
X113366000Y-91534500D01*
X113554000Y-100204000D02*
X113750000Y-100400000D01*
X113750000Y-100400000D02*
X113750000Y-103650000D01*
X113500000Y-91425000D02*
X113475000Y-91425000D01*
X113366000Y-93733900D02*
X113554000Y-93921900D01*
X113366000Y-91534500D02*
X113366000Y-93733900D01*
%TO.N,Net-(CN1-20-Pad35)*%
X117600000Y-129674900D02*
X114510400Y-126585300D01*
X117600000Y-130400000D02*
X117600000Y-129674900D01*
X114510400Y-126585300D02*
X113430900Y-126585300D01*
X113300000Y-100491000D02*
X113250000Y-100541000D01*
X113300000Y-94027172D02*
X113300000Y-100491000D01*
X113250000Y-100541000D02*
X113250000Y-100900000D01*
X113000000Y-91425000D02*
X113000000Y-93727172D01*
X113000000Y-93727172D02*
X113300000Y-94027172D01*
%TO.N,Net-(CN1-20-Pad37)*%
X117043500Y-126707700D02*
X112745900Y-122410100D01*
X112806800Y-93893200D02*
X112800000Y-93900000D01*
X112800000Y-93900000D02*
X112800000Y-98449800D01*
X112750000Y-98450000D02*
X112750000Y-103650000D01*
X112800000Y-98449800D02*
X112799800Y-98450000D01*
X112500000Y-93586800D02*
X112806800Y-93893200D01*
X112500000Y-91425000D02*
X112500000Y-93586800D01*
X112799800Y-98450000D02*
X112750000Y-98450000D01*
X119298800Y-126707700D02*
X117043500Y-126707700D01*
%TO.N,Net-(CN1-1-Pad5)*%
X121004900Y-107057400D02*
X120750000Y-106802500D01*
X120504000Y-100654000D02*
X120504000Y-95412000D01*
X108347000Y-121100000D02*
X108347000Y-124036735D01*
X120500000Y-95408000D02*
X120500000Y-91425000D01*
X118474635Y-131100000D02*
X124005900Y-125568735D01*
X121004900Y-107402665D02*
X121004900Y-107057400D01*
X124005900Y-125568735D02*
X124005900Y-120576565D01*
X118586635Y-113713365D02*
X121030900Y-111269100D01*
X121030900Y-107428665D02*
X121004900Y-107402665D01*
X115410265Y-131100000D02*
X118474635Y-131100000D01*
X108347000Y-124036735D02*
X115410265Y-131100000D01*
X120750000Y-100900000D02*
X120504000Y-100654000D01*
X121030900Y-111269100D02*
X121030900Y-107428665D01*
X120750000Y-106802500D02*
X120750000Y-100900000D01*
X118586635Y-115157300D02*
X118586635Y-113713365D01*
X124005900Y-120576565D02*
X118586635Y-115157300D01*
X120504000Y-95412000D02*
X120500000Y-95408000D01*
%TO.N,Net-(CN1-20-Pad39)*%
X118294200Y-126274200D02*
X112388500Y-120368500D01*
X112000000Y-93446100D02*
X112200000Y-93646077D01*
X122710000Y-126274200D02*
X118294200Y-126274200D01*
X112000000Y-91425000D02*
X112000000Y-93446100D01*
X112200000Y-97472200D02*
X112250000Y-97522200D01*
X112250000Y-97522200D02*
X112250000Y-100900000D01*
X112200000Y-93646077D02*
X112200000Y-97472200D01*
%TO.N,Net-(CN1-1-Pad69)*%
X104700000Y-100600000D02*
X104750000Y-100650000D01*
X104500000Y-91425000D02*
X104500000Y-94700000D01*
X104750000Y-100650000D02*
X104750000Y-103900000D01*
X104500000Y-94700000D02*
X104700000Y-94900000D01*
X104700000Y-94900000D02*
X104700000Y-100600000D01*
%TO.N,Net-(CN1-1-Pad71)*%
X104446000Y-95005210D02*
X104000000Y-94559210D01*
X104000000Y-100900000D02*
X104446000Y-100454000D01*
X104446000Y-100454000D02*
X104446000Y-95005210D01*
X104000000Y-94559210D02*
X104000000Y-91425000D01*
%TO.N,Net-(CN1-1-Pad73)*%
X101700000Y-105950000D02*
X103750000Y-103900000D01*
X122710000Y-135958400D02*
X112258400Y-135958400D01*
X103250000Y-103400000D02*
X103750000Y-103900000D01*
X104192000Y-99817000D02*
X103250000Y-100759000D01*
X103250000Y-100759000D02*
X103250000Y-103400000D01*
X103500000Y-91425000D02*
X103500000Y-94418420D01*
X112258400Y-135958400D02*
X101700000Y-125400000D01*
X103500000Y-94418420D02*
X104192000Y-95110420D01*
X104192000Y-95110420D02*
X104192000Y-99817000D01*
X101700000Y-125400000D02*
X101700000Y-105950000D01*
%TO.N,Net-(CN1-20-Pad41)*%
X111750000Y-103650000D02*
X111750000Y-104050000D01*
X103684700Y-112115300D02*
X102280000Y-112115300D01*
X111500000Y-91425000D02*
X111500000Y-97649600D01*
X111750000Y-104050000D02*
X103684700Y-112115300D01*
X111750000Y-100650000D02*
X111750000Y-103650000D01*
X111700000Y-100600000D02*
X111750000Y-100650000D01*
X111700000Y-97849600D02*
X111700000Y-100600000D01*
X111500000Y-97649600D02*
X111700000Y-97849600D01*
%TO.N,+3V3*%
X121500000Y-97650000D02*
X121500000Y-91425000D01*
X114828900Y-115265565D02*
X114828900Y-115057200D01*
X103700000Y-124400000D02*
X103700000Y-124057200D01*
X110015800Y-117741400D02*
X112521400Y-117741400D01*
X114828900Y-115057200D02*
X118586100Y-111300000D01*
X103700000Y-124057200D02*
X110015800Y-117741400D01*
X118586100Y-111300000D02*
X118700000Y-111300000D01*
X114768900Y-115325565D02*
X114828900Y-115265565D01*
X112521400Y-117741400D02*
X114768900Y-115493900D01*
X121750000Y-100900000D02*
X121750000Y-97899900D01*
X114768900Y-115493900D02*
X114768900Y-115325565D01*
X121750000Y-97899900D02*
X121500000Y-97650000D01*
%TO.N,Net-(CN1-20-Pad43)*%
X111200000Y-96672000D02*
X111200000Y-100741000D01*
X111250000Y-103870000D02*
X111250000Y-100900000D01*
X111000000Y-91425000D02*
X111000000Y-96472000D01*
X111000000Y-96472000D02*
X111200000Y-96672000D01*
X104820000Y-110300000D02*
X111250000Y-103870000D01*
X111250000Y-100791000D02*
X111250000Y-100900000D01*
X111200000Y-100741000D02*
X111250000Y-100791000D01*
%TO.N,Net-(CN1-20-Pad45)*%
X110750000Y-103650000D02*
X108080200Y-106319800D01*
X110750000Y-103650000D02*
X110750000Y-100650000D01*
X110500000Y-93023700D02*
X110500000Y-91425000D01*
X108080200Y-106319800D02*
X108080200Y-106420600D01*
X110700000Y-93223700D02*
X110500000Y-93023700D01*
X110700000Y-100600000D02*
X110700000Y-93223700D01*
X110750000Y-100650000D02*
X110700000Y-100600000D01*
%TO.N,Net-(CN1-20-Pad47)*%
X110250000Y-101400000D02*
X110250000Y-100620500D01*
X110250000Y-100620500D02*
X110000000Y-100370500D01*
X110000000Y-100370500D02*
X110000000Y-91425000D01*
%TO.N,Net-(CN1-20-Pad49)*%
X109500000Y-91425000D02*
X109500000Y-100400000D01*
X109500000Y-100400000D02*
X109750000Y-100650000D01*
X109750000Y-100650000D02*
X109750000Y-103650000D01*
%TO.N,Net-(CN1-20-Pad51)*%
X109000000Y-100604000D02*
X109250000Y-100854000D01*
X109000000Y-91425000D02*
X109000000Y-100604000D01*
X109250000Y-100854000D02*
X109250000Y-101150000D01*
%TO.N,Net-(CN1-20-Pad53)*%
X108500000Y-91425000D02*
X108500000Y-100463000D01*
X108500000Y-100463000D02*
X108750000Y-100713000D01*
X108750000Y-100713000D02*
X108750000Y-103900000D01*
%TO.N,Net-(CN1-20-Pad55)*%
X108250000Y-100572000D02*
X108250000Y-101150000D01*
X108000000Y-91425000D02*
X108000000Y-100322000D01*
X108000000Y-100322000D02*
X108250000Y-100572000D01*
%TO.N,Net-(CN1-20-Pad57)*%
X111000000Y-120000000D02*
X111871400Y-119128600D01*
X120829500Y-119128600D02*
X122710000Y-121009100D01*
X107500000Y-91425000D02*
X107500000Y-100182000D01*
X107500000Y-100182000D02*
X107750000Y-100432000D01*
X111871400Y-119128600D02*
X120829500Y-119128600D01*
X107750000Y-100432000D02*
X107750000Y-103900000D01*
%TO.N,Net-(CN1-20-Pad59)*%
X107250000Y-101400000D02*
X107250000Y-100291000D01*
X107250000Y-100291000D02*
X107000000Y-100041000D01*
X107000000Y-100041000D02*
X107000000Y-91425000D01*
%TO.N,Net-(CN1-20-Pad61)*%
X109453100Y-112153100D02*
X115736900Y-112153100D01*
X106500000Y-91425000D02*
X106500000Y-99900000D01*
X106500000Y-99900000D02*
X106750000Y-100150000D01*
X115736900Y-112153100D02*
X115990000Y-111900000D01*
X106750000Y-100150000D02*
X106750000Y-103900000D01*
X108400000Y-111100000D02*
X109453100Y-112153100D01*
%TO.N,Net-(CN1-1-Pad67)*%
X105000000Y-92977600D02*
X105000000Y-91425000D01*
X105250000Y-100339000D02*
X105200000Y-100289000D01*
X105200000Y-93177600D02*
X105000000Y-92977600D01*
X105200000Y-100289000D02*
X105200000Y-93177600D01*
%TO.N,Net-(CN1-1-Pad7)*%
X120217500Y-103682500D02*
X120217500Y-104682500D01*
X120217500Y-104682500D02*
X120054000Y-104846000D01*
X114492300Y-114880200D02*
X114492300Y-115408600D01*
X120250000Y-103650000D02*
X120217500Y-103682500D01*
X112653900Y-117247000D02*
X112031100Y-117247000D01*
X120250000Y-103650000D02*
X120250000Y-95517200D01*
X114492300Y-115408600D02*
X112653900Y-117247000D01*
X120250000Y-95517200D02*
X120000000Y-95267200D01*
X120000000Y-95267200D02*
X120000000Y-91425000D01*
X120054000Y-104846000D02*
X120054000Y-109318500D01*
X120054000Y-109318500D02*
X114492300Y-114880200D01*
%TO.N,Net-(CN1-20-Pad63)*%
X106000000Y-99759000D02*
X106250000Y-100009000D01*
X106000000Y-91425000D02*
X106000000Y-99759000D01*
X106250000Y-100009000D02*
X106250000Y-100400000D01*
%TO.N,Net-(CN1-1-Pad9)*%
X117500000Y-93650000D02*
X117500000Y-91425000D01*
X119750000Y-100900000D02*
X119996000Y-100654000D01*
X119996000Y-100654000D02*
X119996000Y-96146000D01*
X119996000Y-96146000D02*
X117500000Y-93650000D01*
%TO.N,+5V*%
X120758000Y-99158000D02*
X121250000Y-99650000D01*
X109700000Y-113200000D02*
X111200000Y-113200000D01*
X120758000Y-95642000D02*
X120758000Y-99158000D01*
X111200000Y-113200000D02*
X111700000Y-113700000D01*
X107867802Y-109923988D02*
X107867802Y-111367802D01*
X107867802Y-111367802D02*
X109700000Y-113200000D01*
X121000000Y-95400000D02*
X120758000Y-95642000D01*
X111700000Y-113700000D02*
X111700000Y-113900000D01*
X121000000Y-91425000D02*
X121000000Y-95400000D01*
X109623988Y-109923988D02*
X107867802Y-109923988D01*
X121250000Y-99650000D02*
X121250000Y-103650000D01*
X110100000Y-110400000D02*
X109623988Y-109923988D01*
%TO.N,Net-(CN1-20-Pad29)*%
X114500000Y-99149800D02*
X114750000Y-99399800D01*
X114750000Y-99399800D02*
X114750000Y-103650000D01*
X110800000Y-105500000D02*
X112900000Y-105500000D01*
X114500000Y-91425000D02*
X114500000Y-99149800D01*
X105199500Y-111100500D02*
X110800000Y-105500000D01*
X105199500Y-111206400D02*
X105199500Y-111100500D01*
X112900000Y-105500000D02*
X114750000Y-103650000D01*
%TO.N,Net-(CN1-20-Pad31)*%
X114000000Y-100068000D02*
X114000000Y-91425000D01*
X114866800Y-118778000D02*
X114944800Y-118700000D01*
X114250000Y-100900000D02*
X114250000Y-100318000D01*
X111443100Y-118778000D02*
X114866800Y-118778000D01*
X114250000Y-100318000D02*
X114000000Y-100068000D01*
X109160550Y-121060550D02*
X111443100Y-118778000D01*
%TO.N,4*%
X120613400Y-107413400D02*
X120613400Y-111327390D01*
X107460000Y-121299210D02*
X107460000Y-130500000D01*
X120613400Y-111327390D02*
X113691390Y-118249400D01*
X120500000Y-107300000D02*
X120613400Y-107413400D01*
X113691390Y-118249400D02*
X110509810Y-118249400D01*
X110509810Y-118249400D02*
X107460000Y-121299210D01*
%TO.N,6*%
X116250000Y-102433800D02*
X116250000Y-103816400D01*
X118500000Y-100300100D02*
X118383700Y-100300100D01*
X118383700Y-100300100D02*
X116250000Y-102433800D01*
X113197300Y-106869100D02*
X111582100Y-106869100D01*
X116250000Y-103816400D02*
X113197300Y-106869100D01*
%TO.N,8*%
X115700000Y-130500000D02*
X115400700Y-130500000D01*
X112253900Y-119546100D02*
X117026400Y-119546100D01*
X111800000Y-126899300D02*
X111800000Y-120000000D01*
X111800000Y-120000000D02*
X112253900Y-119546100D01*
X115400700Y-130500000D02*
X111800000Y-126899300D01*
%TO.N,20*%
X117780300Y-98871900D02*
X118026200Y-99117800D01*
X117780300Y-97004200D02*
X117780300Y-98871900D01*
%TD*%
M02*
