M48
; DRILL file {KiCad 7.0.5} date Mon Aug 28 16:34:51 2023
; FORMAT={-:-/ absolute / inch / decimal}
; #@! TF.CreationDate,2023-08-28T16:34:51-05:00
; #@! TF.GenerationSoftware,Kicad,Pcbnew,7.0.5
; #@! TF.FileFunction,Plated,1,4,PTH
FMAT,2
INCH
; #@! TA.AperFunction,Plated,PTH,ViaDrill
T1C0.0118
; #@! TA.AperFunction,Plated,PTH,ComponentDrill
T2C0.1260
%
G90
G05
T1
X4.0264Y-4.9204
X4.0268Y-4.1968
X4.0268Y-4.414
X4.0472Y-4.0906
X4.0827Y-4.8976
X4.0846Y-4.0906
X4.0945Y-3.9724
X4.124Y-4.0906
X4.1268Y-4.1971
X4.1268Y-4.3425
X4.1299Y-5.3465
X4.1302Y-4.9252
X4.1417Y-4.3782
X4.1437Y-3.9504
X4.1634Y-4.0906
X4.1772Y-5.189
X4.1831Y-3.9528
X4.2028Y-4.0906
X4.2127Y-4.3431
X4.2205Y-4.189
X4.2224Y-3.9921
X4.2307Y-5.1378
X4.2421Y-4.0906
X4.2551Y-4.1898
X4.2618Y-3.9823
X4.2656Y-4.7677
X4.2677Y-4.374
X4.2815Y-4.0906
X4.2977Y-4.7662
X4.3012Y-3.9823
X4.3031Y-4.3819
X4.3209Y-4.0807
X4.3346Y-4.3465
X4.3406Y-3.9921
X4.3602Y-4.0807
X4.3701Y-4.7244
X4.3799Y-3.9724
X4.393Y-4.2074
X4.3976Y-4.4843
X4.3996Y-4.0807
X4.4107Y-4.616
X4.4193Y-3.9724
X4.4247Y-4.7389
X4.4388Y-4.8193
X4.439Y-4.0807
X4.4409Y-4.5236
X4.4567Y-4.5591
X4.4587Y-3.9724
X4.4658Y-4.9837
X4.4783Y-4.0807
X4.498Y-3.9724
X4.5157Y-4.4646
X4.5177Y-4.0807
X4.5254Y-4.6732
X4.5374Y-3.9724
X4.5433Y-4.5512
X4.5551Y-5.1378
X4.5571Y-4.0807
X4.5665Y-4.4055
X4.5768Y-3.9724
X4.5827Y-4.5906
X4.5939Y-4.374
X4.5965Y-4.0807
X4.6073Y-4.7065
X4.6299Y-5.1339
X4.637Y-3.8191
X4.6465Y-4.1663
X4.6467Y-3.9023
X4.6654Y-3.9488
X4.6732Y-4.3819
X4.6949Y-4.0807
X4.6968Y-4.9885
X4.7146Y-3.9724
X4.7166Y-4.1142
X4.7343Y-4.0807
X4.7441Y-4.2244
X4.7539Y-3.9724
X4.7736Y-4.0807
X4.7933Y-3.9724
X4.8071Y-3.7323
X4.8228Y-4.3937
X4.8311Y-4.7641
X4.8311Y-4.9714
X4.8311Y-5.3527
X4.8657Y-4.7539
X4.867Y-4.2648
T2
X4.4291Y-5.9016
T0
M30
