%TF.GenerationSoftware,KiCad,Pcbnew,7.0.5*%
%TF.CreationDate,2023-08-28T16:34:51-05:00*%
%TF.ProjectId,Chimera_0003_Hydra,4368696d-6572-4615-9f30-3030335f4879,rev?*%
%TF.SameCoordinates,Original*%
%TF.FileFunction,Copper,L2,Inr*%
%TF.FilePolarity,Positive*%
%FSLAX46Y46*%
G04 Gerber Fmt 4.6, Leading zero omitted, Abs format (unit mm)*
G04 Created by KiCad (PCBNEW 7.0.5) date 2023-08-28 16:34:51*
%MOMM*%
%LPD*%
G01*
G04 APERTURE LIST*
%TA.AperFunction,ComponentPad*%
%ADD10C,3.600000*%
%TD*%
%TA.AperFunction,ViaPad*%
%ADD11C,0.450000*%
%TD*%
%TA.AperFunction,Conductor*%
%ADD12C,0.127000*%
%TD*%
G04 APERTURE END LIST*
D10*
%TO.N,N/C*%
%TO.C,H2*%
X112500000Y-149900000D03*
%TD*%
D11*
%TO.N,Net-(CN1-1-Pad11)*%
X119250000Y-103650000D03*
X114700000Y-113400000D03*
%TO.N,Net-(CN1-20-Pad21)*%
X116750000Y-103650000D03*
%TO.N,Net-(CN1-20-Pad23)*%
X116400000Y-116600000D03*
X116250000Y-100900000D03*
X123588400Y-120749500D03*
%TO.N,Net-(CN1-20-Pad25)*%
X102270100Y-124978900D03*
X115750000Y-103650000D03*
%TO.N,Net-(CN1-20-Pad27)*%
X104906000Y-125100000D03*
X115400000Y-115600000D03*
X115250000Y-100900000D03*
%TO.N,Net-(CN1-1-Pad66)*%
X105750000Y-103900000D03*
%TO.N,Net-(CN1-20-Pad33)*%
X113750000Y-103650000D03*
%TO.N,Net-(CN1-20-Pad35)*%
X117600000Y-130400000D03*
X113250000Y-100900000D03*
X113430900Y-126585300D03*
%TO.N,Net-(CN1-20-Pad37)*%
X119298800Y-126707700D03*
X112750000Y-103650000D03*
X112745900Y-122410100D03*
%TO.N,Net-(CN1-1-Pad5)*%
X108347000Y-121100000D03*
X120750000Y-100900000D03*
%TO.N,Net-(CN1-20-Pad39)*%
X122710000Y-126274200D03*
X112250000Y-100900000D03*
X112388500Y-120368500D03*
%TO.N,Net-(CN1-1-Pad69)*%
X104750000Y-103900000D03*
%TO.N,Net-(CN1-1-Pad71)*%
X104000000Y-100900000D03*
%TO.N,Net-(CN1-1-Pad73)*%
X122710000Y-135958400D03*
X103750000Y-103900000D03*
%TO.N,Net-(CN1-20-Pad41)*%
X111750000Y-103650000D03*
X102280000Y-112115300D03*
%TO.N,+3V3*%
X121750000Y-100900000D03*
X118700000Y-111300000D03*
X103700000Y-124400000D03*
%TO.N,Net-(CN1-20-Pad43)*%
X111250000Y-100900000D03*
X104820000Y-110300000D03*
%TO.N,Net-(CN1-20-Pad45)*%
X110750000Y-103650000D03*
X108080200Y-106420600D03*
%TO.N,Net-(CN1-20-Pad47)*%
X110250000Y-101400000D03*
%TO.N,Net-(CN1-20-Pad49)*%
X109750000Y-103650000D03*
%TO.N,Net-(CN1-20-Pad51)*%
X109250000Y-101150000D03*
X107200000Y-106400000D03*
%TO.N,Net-(CN1-20-Pad53)*%
X108750000Y-103900000D03*
X104820000Y-106605500D03*
%TO.N,Net-(CN1-20-Pad55)*%
X102280000Y-106598700D03*
X108250000Y-101150000D03*
%TO.N,Net-(CN1-20-Pad57)*%
X107750000Y-103900000D03*
X111000000Y-120000000D03*
X122710000Y-121009100D03*
%TO.N,Net-(CN1-20-Pad59)*%
X116684900Y-111100000D03*
X109300000Y-111300000D03*
X107250000Y-101400000D03*
%TO.N,Net-(CN1-20-Pad61)*%
X108400000Y-111100000D03*
X115990000Y-111900000D03*
X106750000Y-103900000D03*
%TO.N,Net-(CN1-1-Pad67)*%
X105250000Y-100339000D03*
%TO.N,Net-(CN1-1-Pad7)*%
X120250000Y-103650000D03*
X112031100Y-117247000D03*
%TO.N,Net-(CN1-20-Pad63)*%
X113200000Y-115800000D03*
X106250000Y-100400000D03*
X107002300Y-110313700D03*
%TO.N,Net-(CN1-1-Pad9)*%
X119802500Y-104500000D03*
X112800000Y-114900000D03*
X119750000Y-100900000D03*
%TO.N,GND*%
X104900000Y-135800000D03*
X122500000Y-111600000D03*
X102800000Y-103900000D03*
X122100000Y-94800000D03*
X123622000Y-108325000D03*
%TO.N,+5V*%
X118022000Y-105825000D03*
X111700000Y-113900000D03*
X106100000Y-131800000D03*
X121250000Y-103650000D03*
X110100000Y-110400000D03*
%TO.N,Net-(CN1-20-Pad29)*%
X114750000Y-103650000D03*
X105199500Y-111206400D03*
%TO.N,Net-(CN1-20-Pad31)*%
X109160550Y-121060550D03*
X114944800Y-118700000D03*
X114250000Y-100900000D03*
%TO.N,4*%
X107460000Y-130500000D03*
X120500000Y-107300000D03*
%TO.N,6*%
X111582100Y-106869100D03*
X118500000Y-100300100D03*
%TO.N,8*%
X117026400Y-119546100D03*
X115700000Y-130500000D03*
%TO.N,20*%
X117780300Y-97004200D03*
X118026200Y-99117800D03*
%TD*%
D12*
%TO.N,+5V*%
X114547000Y-109300000D02*
X111200000Y-109300000D01*
X111200000Y-109300000D02*
X110100000Y-110400000D01*
X118022000Y-105825000D02*
X114547000Y-109300000D01*
%TD*%
%TA.AperFunction,Conductor*%
%TO.N,GND*%
G36*
X117767539Y-90120185D02*
G01*
X117813294Y-90172989D01*
X117824500Y-90224500D01*
X117824500Y-92760118D01*
X117824500Y-92800000D01*
X117824500Y-92884136D01*
X117859486Y-93048731D01*
X117927928Y-93202455D01*
X118026836Y-93338589D01*
X118026837Y-93338590D01*
X118026838Y-93338591D01*
X118026840Y-93338594D01*
X118102907Y-93407084D01*
X118151886Y-93451185D01*
X118297614Y-93535321D01*
X118297616Y-93535321D01*
X118297619Y-93535323D01*
X118353464Y-93553467D01*
X118457650Y-93587320D01*
X118625000Y-93604909D01*
X118792350Y-93587320D01*
X118952386Y-93535321D01*
X119098114Y-93451185D01*
X119199254Y-93360118D01*
X119223159Y-93338594D01*
X119223159Y-93338592D01*
X119223164Y-93338589D01*
X119322072Y-93202455D01*
X119390514Y-93048731D01*
X119425500Y-92884136D01*
X119425500Y-92800000D01*
X119425500Y-92760118D01*
X119425500Y-92735456D01*
X119425499Y-92735450D01*
X119425500Y-90224500D01*
X119445185Y-90157460D01*
X119497989Y-90111706D01*
X119549500Y-90100500D01*
X122100500Y-90100500D01*
X122167539Y-90120185D01*
X122213294Y-90172989D01*
X122224500Y-90224500D01*
X122224500Y-93360118D01*
X122224500Y-93400000D01*
X122224500Y-93468993D01*
X122224500Y-93468995D01*
X122224499Y-93468995D01*
X122251418Y-93604322D01*
X122251421Y-93604332D01*
X122304221Y-93731804D01*
X122304228Y-93731817D01*
X122380885Y-93846541D01*
X122380888Y-93846545D01*
X122478454Y-93944111D01*
X122478458Y-93944114D01*
X122593182Y-94020771D01*
X122593195Y-94020778D01*
X122720667Y-94073578D01*
X122720672Y-94073580D01*
X122720676Y-94073580D01*
X122720677Y-94073581D01*
X122856004Y-94100500D01*
X122856007Y-94100500D01*
X122902410Y-94100500D01*
X123365589Y-94100500D01*
X123432628Y-94120185D01*
X123453270Y-94136819D01*
X124263181Y-94946730D01*
X124296666Y-95008053D01*
X124299500Y-95034411D01*
X124299500Y-120135225D01*
X124279815Y-120202264D01*
X124227011Y-120248019D01*
X124157853Y-120257963D01*
X124094297Y-120228938D01*
X124087820Y-120222907D01*
X124043605Y-120178693D01*
X124043604Y-120178692D01*
X123905174Y-120091710D01*
X123750855Y-120037712D01*
X123588404Y-120019409D01*
X123588396Y-120019409D01*
X123425944Y-120037712D01*
X123271625Y-120091710D01*
X123133197Y-120178691D01*
X123032830Y-120279058D01*
X122971507Y-120312542D01*
X122904195Y-120308418D01*
X122872458Y-120297313D01*
X122710004Y-120279009D01*
X122709996Y-120279009D01*
X122547544Y-120297312D01*
X122393225Y-120351310D01*
X122254795Y-120438292D01*
X122139192Y-120553895D01*
X122052210Y-120692325D01*
X121998212Y-120846644D01*
X121979909Y-121009096D01*
X121979909Y-121009103D01*
X121998212Y-121171555D01*
X122052210Y-121325874D01*
X122137296Y-121461286D01*
X122139192Y-121464304D01*
X122254796Y-121579908D01*
X122393225Y-121666889D01*
X122547539Y-121720886D01*
X122547542Y-121720886D01*
X122547544Y-121720887D01*
X122709996Y-121739191D01*
X122710000Y-121739191D01*
X122710004Y-121739191D01*
X122872455Y-121720887D01*
X122872456Y-121720886D01*
X122872461Y-121720886D01*
X123026775Y-121666889D01*
X123165204Y-121579908D01*
X123265570Y-121479542D01*
X123326893Y-121446057D01*
X123394206Y-121450182D01*
X123425942Y-121461287D01*
X123588396Y-121479591D01*
X123588400Y-121479591D01*
X123588404Y-121479591D01*
X123750855Y-121461287D01*
X123750856Y-121461286D01*
X123750861Y-121461286D01*
X123905175Y-121407289D01*
X124043604Y-121320308D01*
X124087818Y-121276093D01*
X124149142Y-121242608D01*
X124218834Y-121247592D01*
X124274767Y-121289464D01*
X124299184Y-121354928D01*
X124299500Y-121363774D01*
X124299500Y-149575500D01*
X124279815Y-149642539D01*
X124227011Y-149688294D01*
X124175500Y-149699500D01*
X114907452Y-149699500D01*
X114840413Y-149679815D01*
X114794658Y-149627011D01*
X114785835Y-149599692D01*
X114771121Y-149525723D01*
X114726880Y-149303309D01*
X114629945Y-149017748D01*
X114496566Y-148747282D01*
X114329025Y-148496539D01*
X114130189Y-148269810D01*
X113903459Y-148070973D01*
X113652720Y-147903435D01*
X113652713Y-147903431D01*
X113382268Y-147770062D01*
X113382247Y-147770053D01*
X113096698Y-147673122D01*
X113096692Y-147673120D01*
X113096691Y-147673120D01*
X113096689Y-147673119D01*
X113096683Y-147673118D01*
X112800930Y-147614288D01*
X112800921Y-147614287D01*
X112800920Y-147614287D01*
X112500000Y-147594564D01*
X112499999Y-147594564D01*
X112349540Y-147604425D01*
X112199080Y-147614287D01*
X112199079Y-147614287D01*
X112199069Y-147614288D01*
X111903316Y-147673118D01*
X111903301Y-147673122D01*
X111617752Y-147770053D01*
X111617731Y-147770062D01*
X111347286Y-147903431D01*
X111347279Y-147903435D01*
X111096540Y-148070973D01*
X110869810Y-148269810D01*
X110670973Y-148496540D01*
X110503435Y-148747279D01*
X110503431Y-148747286D01*
X110370062Y-149017731D01*
X110370053Y-149017752D01*
X110273122Y-149303301D01*
X110273119Y-149303313D01*
X110214165Y-149599692D01*
X110181780Y-149661603D01*
X110121064Y-149696177D01*
X110092548Y-149699500D01*
X100824500Y-149699500D01*
X100757461Y-149679815D01*
X100711706Y-149627011D01*
X100700500Y-149575500D01*
X100700500Y-135958403D01*
X121979909Y-135958403D01*
X121998212Y-136120855D01*
X122052210Y-136275174D01*
X122052211Y-136275175D01*
X122139192Y-136413604D01*
X122254796Y-136529208D01*
X122393225Y-136616189D01*
X122547539Y-136670186D01*
X122547542Y-136670186D01*
X122547544Y-136670187D01*
X122709996Y-136688491D01*
X122710000Y-136688491D01*
X122710004Y-136688491D01*
X122872455Y-136670187D01*
X122872456Y-136670186D01*
X122872461Y-136670186D01*
X123026775Y-136616189D01*
X123165204Y-136529208D01*
X123280808Y-136413604D01*
X123367789Y-136275175D01*
X123421786Y-136120861D01*
X123440091Y-135958400D01*
X123421786Y-135795939D01*
X123367789Y-135641625D01*
X123280808Y-135503196D01*
X123165204Y-135387592D01*
X123165204Y-135387591D01*
X123026774Y-135300610D01*
X122872455Y-135246612D01*
X122710004Y-135228309D01*
X122709996Y-135228309D01*
X122547544Y-135246612D01*
X122393225Y-135300610D01*
X122254795Y-135387592D01*
X122139192Y-135503195D01*
X122052210Y-135641625D01*
X121998212Y-135795944D01*
X121979909Y-135958396D01*
X121979909Y-135958403D01*
X100700500Y-135958403D01*
X100700500Y-131800003D01*
X105369909Y-131800003D01*
X105388212Y-131962455D01*
X105442210Y-132116774D01*
X105442211Y-132116775D01*
X105529192Y-132255204D01*
X105644796Y-132370808D01*
X105783225Y-132457789D01*
X105937539Y-132511786D01*
X105937542Y-132511786D01*
X105937544Y-132511787D01*
X106099996Y-132530091D01*
X106100000Y-132530091D01*
X106100004Y-132530091D01*
X106262455Y-132511787D01*
X106262456Y-132511786D01*
X106262461Y-132511786D01*
X106416775Y-132457789D01*
X106555204Y-132370808D01*
X106670808Y-132255204D01*
X106757789Y-132116775D01*
X106811786Y-131962461D01*
X106830091Y-131800000D01*
X106811786Y-131637539D01*
X106757789Y-131483225D01*
X106670808Y-131344796D01*
X106555204Y-131229192D01*
X106527503Y-131211786D01*
X106416774Y-131142210D01*
X106262455Y-131088212D01*
X106100004Y-131069909D01*
X106099996Y-131069909D01*
X105937544Y-131088212D01*
X105783225Y-131142210D01*
X105644795Y-131229192D01*
X105529192Y-131344795D01*
X105442210Y-131483225D01*
X105388212Y-131637544D01*
X105369909Y-131799996D01*
X105369909Y-131800003D01*
X100700500Y-131800003D01*
X100700500Y-130500003D01*
X106729909Y-130500003D01*
X106748212Y-130662455D01*
X106802210Y-130816774D01*
X106889192Y-130955203D01*
X106889192Y-130955204D01*
X107004796Y-131070808D01*
X107143225Y-131157789D01*
X107297539Y-131211786D01*
X107297542Y-131211786D01*
X107297544Y-131211787D01*
X107459996Y-131230091D01*
X107460000Y-131230091D01*
X107460004Y-131230091D01*
X107622455Y-131211787D01*
X107622456Y-131211786D01*
X107622461Y-131211786D01*
X107776775Y-131157789D01*
X107915204Y-131070808D01*
X108030808Y-130955204D01*
X108117789Y-130816775D01*
X108171786Y-130662461D01*
X108171787Y-130662455D01*
X108190091Y-130500003D01*
X114969909Y-130500003D01*
X114988212Y-130662455D01*
X115042210Y-130816774D01*
X115129192Y-130955204D01*
X115244796Y-131070808D01*
X115383225Y-131157789D01*
X115537539Y-131211786D01*
X115537542Y-131211786D01*
X115537544Y-131211787D01*
X115699996Y-131230091D01*
X115700000Y-131230091D01*
X115700004Y-131230091D01*
X115862455Y-131211787D01*
X115862456Y-131211786D01*
X115862461Y-131211786D01*
X116016775Y-131157789D01*
X116155204Y-131070808D01*
X116270808Y-130955204D01*
X116357789Y-130816775D01*
X116411786Y-130662461D01*
X116411787Y-130662455D01*
X116430091Y-130500003D01*
X116430091Y-130499996D01*
X116418824Y-130400003D01*
X116869909Y-130400003D01*
X116888212Y-130562455D01*
X116942210Y-130716774D01*
X116942211Y-130716775D01*
X117029192Y-130855204D01*
X117144796Y-130970808D01*
X117283225Y-131057789D01*
X117437539Y-131111786D01*
X117437542Y-131111786D01*
X117437544Y-131111787D01*
X117599996Y-131130091D01*
X117600000Y-131130091D01*
X117600004Y-131130091D01*
X117762455Y-131111787D01*
X117762456Y-131111786D01*
X117762461Y-131111786D01*
X117916775Y-131057789D01*
X118055204Y-130970808D01*
X118170808Y-130855204D01*
X118257789Y-130716775D01*
X118311786Y-130562461D01*
X118311787Y-130562455D01*
X118330091Y-130400003D01*
X118330091Y-130399996D01*
X118311787Y-130237544D01*
X118311786Y-130237542D01*
X118311786Y-130237539D01*
X118257789Y-130083225D01*
X118170808Y-129944796D01*
X118055204Y-129829192D01*
X117960856Y-129769909D01*
X117916774Y-129742210D01*
X117762455Y-129688212D01*
X117600004Y-129669909D01*
X117599996Y-129669909D01*
X117437544Y-129688212D01*
X117283225Y-129742210D01*
X117144795Y-129829192D01*
X117029192Y-129944795D01*
X116942210Y-130083225D01*
X116888212Y-130237544D01*
X116869909Y-130399996D01*
X116869909Y-130400003D01*
X116418824Y-130400003D01*
X116411787Y-130337544D01*
X116411786Y-130337542D01*
X116411786Y-130337539D01*
X116357789Y-130183225D01*
X116270808Y-130044796D01*
X116155204Y-129929192D01*
X116155204Y-129929191D01*
X116016774Y-129842210D01*
X115862455Y-129788212D01*
X115700004Y-129769909D01*
X115699996Y-129769909D01*
X115537544Y-129788212D01*
X115383225Y-129842210D01*
X115244795Y-129929192D01*
X115129192Y-130044795D01*
X115042210Y-130183225D01*
X114988212Y-130337544D01*
X114969909Y-130499996D01*
X114969909Y-130500003D01*
X108190091Y-130500003D01*
X108190091Y-130499996D01*
X108171787Y-130337544D01*
X108171786Y-130337542D01*
X108171786Y-130337539D01*
X108117789Y-130183225D01*
X108030808Y-130044796D01*
X107915204Y-129929192D01*
X107915204Y-129929191D01*
X107776774Y-129842210D01*
X107622455Y-129788212D01*
X107460004Y-129769909D01*
X107459996Y-129769909D01*
X107297544Y-129788212D01*
X107143225Y-129842210D01*
X107004795Y-129929192D01*
X106889192Y-130044795D01*
X106802210Y-130183225D01*
X106748212Y-130337544D01*
X106729909Y-130499996D01*
X106729909Y-130500003D01*
X100700500Y-130500003D01*
X100700500Y-126585303D01*
X112700809Y-126585303D01*
X112719112Y-126747755D01*
X112773110Y-126902074D01*
X112837338Y-127004291D01*
X112860092Y-127040504D01*
X112975696Y-127156108D01*
X113114125Y-127243089D01*
X113268439Y-127297086D01*
X113268442Y-127297086D01*
X113268444Y-127297087D01*
X113430896Y-127315391D01*
X113430900Y-127315391D01*
X113430904Y-127315391D01*
X113593355Y-127297087D01*
X113593356Y-127297086D01*
X113593361Y-127297086D01*
X113747675Y-127243089D01*
X113886104Y-127156108D01*
X114001708Y-127040504D01*
X114088689Y-126902075D01*
X114142686Y-126747761D01*
X114142687Y-126747755D01*
X114147200Y-126707703D01*
X118568709Y-126707703D01*
X118587012Y-126870155D01*
X118641010Y-127024474D01*
X118723721Y-127156107D01*
X118727992Y-127162904D01*
X118843596Y-127278508D01*
X118982025Y-127365489D01*
X119136339Y-127419486D01*
X119136342Y-127419486D01*
X119136344Y-127419487D01*
X119298796Y-127437791D01*
X119298800Y-127437791D01*
X119298804Y-127437791D01*
X119461255Y-127419487D01*
X119461256Y-127419486D01*
X119461261Y-127419486D01*
X119615575Y-127365489D01*
X119754004Y-127278508D01*
X119869608Y-127162904D01*
X119956589Y-127024475D01*
X120010586Y-126870161D01*
X120013420Y-126845008D01*
X120028891Y-126707703D01*
X120028891Y-126707696D01*
X120010587Y-126545244D01*
X120010586Y-126545242D01*
X120010586Y-126545239D01*
X119956589Y-126390925D01*
X119883247Y-126274203D01*
X121979909Y-126274203D01*
X121998212Y-126436655D01*
X122052210Y-126590974D01*
X122052211Y-126590975D01*
X122139192Y-126729404D01*
X122254796Y-126845008D01*
X122393225Y-126931989D01*
X122547539Y-126985986D01*
X122547542Y-126985986D01*
X122547544Y-126985987D01*
X122709996Y-127004291D01*
X122710000Y-127004291D01*
X122710004Y-127004291D01*
X122872455Y-126985987D01*
X122872456Y-126985986D01*
X122872461Y-126985986D01*
X123026775Y-126931989D01*
X123165204Y-126845008D01*
X123280808Y-126729404D01*
X123367789Y-126590975D01*
X123421786Y-126436661D01*
X123423343Y-126422844D01*
X123440091Y-126274203D01*
X123440091Y-126274196D01*
X123421787Y-126111744D01*
X123421786Y-126111742D01*
X123421786Y-126111739D01*
X123367789Y-125957425D01*
X123280808Y-125818996D01*
X123165204Y-125703392D01*
X123113347Y-125670808D01*
X123026774Y-125616410D01*
X122872455Y-125562412D01*
X122710004Y-125544109D01*
X122709996Y-125544109D01*
X122547544Y-125562412D01*
X122393225Y-125616410D01*
X122254795Y-125703392D01*
X122139192Y-125818995D01*
X122052210Y-125957425D01*
X121998212Y-126111744D01*
X121979909Y-126274196D01*
X121979909Y-126274203D01*
X119883247Y-126274203D01*
X119869608Y-126252496D01*
X119754004Y-126136892D01*
X119713981Y-126111744D01*
X119615574Y-126049910D01*
X119461255Y-125995912D01*
X119298804Y-125977609D01*
X119298796Y-125977609D01*
X119136344Y-125995912D01*
X118982025Y-126049910D01*
X118843595Y-126136892D01*
X118727992Y-126252495D01*
X118641010Y-126390925D01*
X118587012Y-126545244D01*
X118568709Y-126707696D01*
X118568709Y-126707703D01*
X114147200Y-126707703D01*
X114160991Y-126585303D01*
X114160991Y-126585296D01*
X114142687Y-126422844D01*
X114142686Y-126422842D01*
X114142686Y-126422839D01*
X114088689Y-126268525D01*
X114001708Y-126130096D01*
X113886104Y-126014492D01*
X113886103Y-126014491D01*
X113747674Y-125927510D01*
X113593355Y-125873512D01*
X113430904Y-125855209D01*
X113430896Y-125855209D01*
X113268444Y-125873512D01*
X113114125Y-125927510D01*
X112975695Y-126014492D01*
X112860092Y-126130095D01*
X112773110Y-126268525D01*
X112719112Y-126422844D01*
X112700809Y-126585296D01*
X112700809Y-126585303D01*
X100700500Y-126585303D01*
X100700500Y-124978903D01*
X101540009Y-124978903D01*
X101558312Y-125141355D01*
X101612310Y-125295674D01*
X101612311Y-125295675D01*
X101699292Y-125434104D01*
X101814896Y-125549708D01*
X101953325Y-125636689D01*
X102107639Y-125690686D01*
X102107642Y-125690686D01*
X102107644Y-125690687D01*
X102270096Y-125708991D01*
X102270100Y-125708991D01*
X102270104Y-125708991D01*
X102432555Y-125690687D01*
X102432556Y-125690686D01*
X102432561Y-125690686D01*
X102586875Y-125636689D01*
X102725304Y-125549708D01*
X102840908Y-125434104D01*
X102927889Y-125295675D01*
X102981886Y-125141361D01*
X102996950Y-125007659D01*
X103024016Y-124943247D01*
X103081610Y-124903692D01*
X103151447Y-124901553D01*
X103207851Y-124933863D01*
X103244796Y-124970808D01*
X103383225Y-125057789D01*
X103537539Y-125111786D01*
X103537542Y-125111786D01*
X103537544Y-125111787D01*
X103699996Y-125130091D01*
X103700000Y-125130091D01*
X103700004Y-125130091D01*
X103862454Y-125111787D01*
X103862454Y-125111786D01*
X103862461Y-125111786D01*
X104016775Y-125057789D01*
X104016775Y-125057788D01*
X104018532Y-125057174D01*
X104088310Y-125053613D01*
X104148938Y-125088342D01*
X104181165Y-125150335D01*
X104182706Y-125160332D01*
X104194212Y-125262455D01*
X104248210Y-125416774D01*
X104331738Y-125549707D01*
X104335192Y-125555204D01*
X104450796Y-125670808D01*
X104589225Y-125757789D01*
X104743539Y-125811786D01*
X104743542Y-125811786D01*
X104743544Y-125811787D01*
X104905996Y-125830091D01*
X104906000Y-125830091D01*
X104906004Y-125830091D01*
X105068455Y-125811787D01*
X105068456Y-125811786D01*
X105068461Y-125811786D01*
X105222775Y-125757789D01*
X105361204Y-125670808D01*
X105476808Y-125555204D01*
X105563789Y-125416775D01*
X105617786Y-125262461D01*
X105617787Y-125262455D01*
X105636091Y-125100003D01*
X105636091Y-125099996D01*
X105617787Y-124937544D01*
X105617786Y-124937542D01*
X105617786Y-124937539D01*
X105563789Y-124783225D01*
X105476808Y-124644796D01*
X105361204Y-124529192D01*
X105352456Y-124523695D01*
X105222774Y-124442210D01*
X105068455Y-124388212D01*
X104906004Y-124369909D01*
X104905996Y-124369909D01*
X104743544Y-124388212D01*
X104587467Y-124442825D01*
X104517688Y-124446386D01*
X104457061Y-124411657D01*
X104424834Y-124349663D01*
X104423293Y-124339666D01*
X104411787Y-124237544D01*
X104411786Y-124237542D01*
X104411786Y-124237539D01*
X104357789Y-124083225D01*
X104270808Y-123944796D01*
X104155204Y-123829192D01*
X104016774Y-123742210D01*
X103862455Y-123688212D01*
X103700004Y-123669909D01*
X103699996Y-123669909D01*
X103537544Y-123688212D01*
X103383225Y-123742210D01*
X103244795Y-123829192D01*
X103129192Y-123944795D01*
X103042210Y-124083225D01*
X102988212Y-124237544D01*
X102973149Y-124371239D01*
X102946083Y-124435653D01*
X102888488Y-124475208D01*
X102818651Y-124477345D01*
X102762248Y-124445036D01*
X102725304Y-124408092D01*
X102586874Y-124321110D01*
X102432555Y-124267112D01*
X102270104Y-124248809D01*
X102270096Y-124248809D01*
X102107644Y-124267112D01*
X101953325Y-124321110D01*
X101814895Y-124408092D01*
X101699292Y-124523695D01*
X101612310Y-124662125D01*
X101558312Y-124816444D01*
X101540009Y-124978896D01*
X101540009Y-124978903D01*
X100700500Y-124978903D01*
X100700500Y-122410103D01*
X112015809Y-122410103D01*
X112034112Y-122572555D01*
X112088110Y-122726874D01*
X112088111Y-122726875D01*
X112175092Y-122865304D01*
X112290696Y-122980908D01*
X112429125Y-123067889D01*
X112583439Y-123121886D01*
X112583442Y-123121886D01*
X112583444Y-123121887D01*
X112745896Y-123140191D01*
X112745900Y-123140191D01*
X112745904Y-123140191D01*
X112908355Y-123121887D01*
X112908356Y-123121886D01*
X112908361Y-123121886D01*
X113062675Y-123067889D01*
X113201104Y-122980908D01*
X113316708Y-122865304D01*
X113403689Y-122726875D01*
X113457686Y-122572561D01*
X113475991Y-122410100D01*
X113457686Y-122247639D01*
X113403689Y-122093325D01*
X113316708Y-121954896D01*
X113201104Y-121839292D01*
X113123677Y-121790641D01*
X113062674Y-121752310D01*
X112908355Y-121698312D01*
X112745904Y-121680009D01*
X112745896Y-121680009D01*
X112583444Y-121698312D01*
X112429125Y-121752310D01*
X112290695Y-121839292D01*
X112175092Y-121954895D01*
X112088110Y-122093325D01*
X112034112Y-122247644D01*
X112015809Y-122410096D01*
X112015809Y-122410103D01*
X100700500Y-122410103D01*
X100700500Y-121100003D01*
X107616909Y-121100003D01*
X107635212Y-121262455D01*
X107689210Y-121416774D01*
X107728650Y-121479542D01*
X107776192Y-121555204D01*
X107891796Y-121670808D01*
X108030225Y-121757789D01*
X108184539Y-121811786D01*
X108184542Y-121811786D01*
X108184544Y-121811787D01*
X108346996Y-121830091D01*
X108347000Y-121830091D01*
X108347004Y-121830091D01*
X108509455Y-121811787D01*
X108509456Y-121811786D01*
X108509461Y-121811786D01*
X108663775Y-121757789D01*
X108719389Y-121722844D01*
X108786623Y-121703844D01*
X108839162Y-121716118D01*
X108843774Y-121718338D01*
X108843775Y-121718339D01*
X108998089Y-121772336D01*
X108998092Y-121772336D01*
X108998094Y-121772337D01*
X109160546Y-121790641D01*
X109160550Y-121790641D01*
X109160554Y-121790641D01*
X109323005Y-121772337D01*
X109323006Y-121772336D01*
X109323011Y-121772336D01*
X109477325Y-121718339D01*
X109615754Y-121631358D01*
X109731358Y-121515754D01*
X109818339Y-121377325D01*
X109872336Y-121223011D01*
X109886196Y-121100000D01*
X109890641Y-121060553D01*
X109890641Y-121060546D01*
X109872337Y-120898094D01*
X109872336Y-120898092D01*
X109872336Y-120898089D01*
X109818339Y-120743775D01*
X109731358Y-120605346D01*
X109615754Y-120489742D01*
X109563176Y-120456705D01*
X109477324Y-120402760D01*
X109323005Y-120348762D01*
X109160554Y-120330459D01*
X109160546Y-120330459D01*
X108998094Y-120348762D01*
X108843774Y-120402761D01*
X108788158Y-120437706D01*
X108720921Y-120456705D01*
X108668386Y-120444431D01*
X108663776Y-120442211D01*
X108509455Y-120388212D01*
X108347004Y-120369909D01*
X108346996Y-120369909D01*
X108184544Y-120388212D01*
X108030225Y-120442210D01*
X107891795Y-120529192D01*
X107776192Y-120644795D01*
X107689210Y-120783225D01*
X107635212Y-120937544D01*
X107616909Y-121099996D01*
X107616909Y-121100003D01*
X100700500Y-121100003D01*
X100700500Y-120000003D01*
X110269909Y-120000003D01*
X110288212Y-120162455D01*
X110288213Y-120162460D01*
X110288214Y-120162461D01*
X110293894Y-120178693D01*
X110342210Y-120316774D01*
X110374712Y-120368500D01*
X110429192Y-120455204D01*
X110544796Y-120570808D01*
X110683225Y-120657789D01*
X110837539Y-120711786D01*
X110837542Y-120711786D01*
X110837544Y-120711787D01*
X110999996Y-120730091D01*
X111000000Y-120730091D01*
X111000004Y-120730091D01*
X111162455Y-120711787D01*
X111162456Y-120711786D01*
X111162461Y-120711786D01*
X111316775Y-120657789D01*
X111455204Y-120570808D01*
X111490081Y-120535930D01*
X111551401Y-120502446D01*
X111621093Y-120507430D01*
X111677027Y-120549300D01*
X111694802Y-120582657D01*
X111730709Y-120685272D01*
X111730711Y-120685275D01*
X111817692Y-120823704D01*
X111933296Y-120939308D01*
X112071725Y-121026289D01*
X112226039Y-121080286D01*
X112226042Y-121080286D01*
X112226044Y-121080287D01*
X112388496Y-121098591D01*
X112388500Y-121098591D01*
X112388504Y-121098591D01*
X112550955Y-121080287D01*
X112550956Y-121080286D01*
X112550961Y-121080286D01*
X112705275Y-121026289D01*
X112843704Y-120939308D01*
X112959308Y-120823704D01*
X113046289Y-120685275D01*
X113100286Y-120530961D01*
X113100287Y-120530955D01*
X113118591Y-120368503D01*
X113118591Y-120368496D01*
X113100287Y-120206044D01*
X113100286Y-120206042D01*
X113100286Y-120206039D01*
X113046289Y-120051725D01*
X112959308Y-119913296D01*
X112843704Y-119797692D01*
X112824843Y-119785841D01*
X112705274Y-119710710D01*
X112550955Y-119656712D01*
X112388504Y-119638409D01*
X112388496Y-119638409D01*
X112226044Y-119656712D01*
X112071725Y-119710710D01*
X111933295Y-119797692D01*
X111898418Y-119832569D01*
X111837095Y-119866054D01*
X111767403Y-119861068D01*
X111711470Y-119819196D01*
X111693696Y-119785841D01*
X111657789Y-119683225D01*
X111571629Y-119546103D01*
X116296309Y-119546103D01*
X116314612Y-119708555D01*
X116368610Y-119862874D01*
X116454770Y-119999996D01*
X116455592Y-120001304D01*
X116571196Y-120116908D01*
X116709625Y-120203889D01*
X116863939Y-120257886D01*
X116863942Y-120257886D01*
X116863944Y-120257887D01*
X117026396Y-120276191D01*
X117026400Y-120276191D01*
X117026404Y-120276191D01*
X117188855Y-120257887D01*
X117188856Y-120257886D01*
X117188861Y-120257886D01*
X117343175Y-120203889D01*
X117481604Y-120116908D01*
X117597208Y-120001304D01*
X117684189Y-119862875D01*
X117738186Y-119708561D01*
X117744028Y-119656712D01*
X117756491Y-119546103D01*
X117756491Y-119546096D01*
X117738187Y-119383644D01*
X117738186Y-119383642D01*
X117738186Y-119383639D01*
X117684189Y-119229325D01*
X117597208Y-119090896D01*
X117481604Y-118975292D01*
X117481604Y-118975291D01*
X117343174Y-118888310D01*
X117188855Y-118834312D01*
X117026404Y-118816009D01*
X117026396Y-118816009D01*
X116863944Y-118834312D01*
X116709625Y-118888310D01*
X116571195Y-118975292D01*
X116455592Y-119090895D01*
X116368610Y-119229325D01*
X116314612Y-119383644D01*
X116296309Y-119546096D01*
X116296309Y-119546103D01*
X111571629Y-119546103D01*
X111571627Y-119546100D01*
X111570808Y-119544796D01*
X111455204Y-119429192D01*
X111382707Y-119383639D01*
X111316774Y-119342210D01*
X111162455Y-119288212D01*
X111000004Y-119269909D01*
X110999996Y-119269909D01*
X110837544Y-119288212D01*
X110683225Y-119342210D01*
X110544795Y-119429192D01*
X110429192Y-119544795D01*
X110342210Y-119683225D01*
X110288212Y-119837544D01*
X110269909Y-119999996D01*
X110269909Y-120000003D01*
X100700500Y-120000003D01*
X100700500Y-118700003D01*
X114214709Y-118700003D01*
X114233012Y-118862455D01*
X114287010Y-119016774D01*
X114287011Y-119016775D01*
X114373992Y-119155204D01*
X114489596Y-119270808D01*
X114628025Y-119357789D01*
X114782339Y-119411786D01*
X114782342Y-119411786D01*
X114782344Y-119411787D01*
X114944796Y-119430091D01*
X114944800Y-119430091D01*
X114944804Y-119430091D01*
X115107255Y-119411787D01*
X115107256Y-119411786D01*
X115107261Y-119411786D01*
X115261575Y-119357789D01*
X115400004Y-119270808D01*
X115515608Y-119155204D01*
X115602589Y-119016775D01*
X115656586Y-118862461D01*
X115656587Y-118862455D01*
X115674891Y-118700003D01*
X115674891Y-118699996D01*
X115656587Y-118537544D01*
X115656586Y-118537542D01*
X115656586Y-118537539D01*
X115602589Y-118383225D01*
X115515608Y-118244796D01*
X115400004Y-118129192D01*
X115261574Y-118042210D01*
X115107255Y-117988212D01*
X114944804Y-117969909D01*
X114944796Y-117969909D01*
X114782344Y-117988212D01*
X114628025Y-118042210D01*
X114489595Y-118129192D01*
X114373992Y-118244795D01*
X114287010Y-118383225D01*
X114233012Y-118537544D01*
X114214709Y-118699996D01*
X114214709Y-118700003D01*
X100700500Y-118700003D01*
X100700500Y-117247003D01*
X111301009Y-117247003D01*
X111319312Y-117409455D01*
X111373310Y-117563774D01*
X111373311Y-117563775D01*
X111460292Y-117702204D01*
X111575896Y-117817808D01*
X111714325Y-117904789D01*
X111868639Y-117958786D01*
X111868642Y-117958786D01*
X111868644Y-117958787D01*
X112031096Y-117977091D01*
X112031100Y-117977091D01*
X112031104Y-117977091D01*
X112193555Y-117958787D01*
X112193556Y-117958786D01*
X112193561Y-117958786D01*
X112347875Y-117904789D01*
X112486304Y-117817808D01*
X112601908Y-117702204D01*
X112688889Y-117563775D01*
X112742886Y-117409461D01*
X112751829Y-117330091D01*
X112761191Y-117247003D01*
X112761191Y-117246996D01*
X112742887Y-117084544D01*
X112742886Y-117084542D01*
X112742886Y-117084539D01*
X112688889Y-116930225D01*
X112601908Y-116791796D01*
X112486304Y-116676192D01*
X112347874Y-116589210D01*
X112193555Y-116535212D01*
X112031104Y-116516909D01*
X112031096Y-116516909D01*
X111868644Y-116535212D01*
X111714325Y-116589210D01*
X111575895Y-116676192D01*
X111460292Y-116791795D01*
X111373310Y-116930225D01*
X111319312Y-117084544D01*
X111301009Y-117246996D01*
X111301009Y-117247003D01*
X100700500Y-117247003D01*
X100700500Y-113900003D01*
X110969909Y-113900003D01*
X110988212Y-114062455D01*
X111042210Y-114216774D01*
X111129192Y-114355204D01*
X111244796Y-114470808D01*
X111383225Y-114557789D01*
X111537539Y-114611786D01*
X111537542Y-114611786D01*
X111537544Y-114611787D01*
X111699996Y-114630091D01*
X111700000Y-114630091D01*
X111700004Y-114630091D01*
X111862453Y-114611787D01*
X111862453Y-114611786D01*
X111862461Y-114611786D01*
X111927234Y-114589120D01*
X111997010Y-114585560D01*
X112057638Y-114620289D01*
X112089865Y-114682282D01*
X112089077Y-114733756D01*
X112088212Y-114737542D01*
X112069909Y-114899996D01*
X112069909Y-114900003D01*
X112088212Y-115062455D01*
X112142210Y-115216774D01*
X112142211Y-115216775D01*
X112229192Y-115355204D01*
X112344796Y-115470808D01*
X112430304Y-115524536D01*
X112476594Y-115576869D01*
X112487551Y-115643412D01*
X112469909Y-115799996D01*
X112469909Y-115800003D01*
X112488212Y-115962455D01*
X112542210Y-116116774D01*
X112576162Y-116170808D01*
X112629192Y-116255204D01*
X112744796Y-116370808D01*
X112883225Y-116457789D01*
X113037539Y-116511786D01*
X113037542Y-116511786D01*
X113037544Y-116511787D01*
X113199996Y-116530091D01*
X113200000Y-116530091D01*
X113200004Y-116530091D01*
X113362455Y-116511787D01*
X113362456Y-116511786D01*
X113362461Y-116511786D01*
X113516775Y-116457789D01*
X113655204Y-116370808D01*
X113770808Y-116255204D01*
X113857789Y-116116775D01*
X113911786Y-115962461D01*
X113920152Y-115888212D01*
X113930091Y-115800003D01*
X113930091Y-115799996D01*
X113911787Y-115637544D01*
X113911786Y-115637542D01*
X113911786Y-115637539D01*
X113898652Y-115600003D01*
X114669909Y-115600003D01*
X114688212Y-115762455D01*
X114742210Y-115916774D01*
X114829192Y-116055204D01*
X114944796Y-116170808D01*
X115083225Y-116257789D01*
X115237539Y-116311786D01*
X115237542Y-116311786D01*
X115237544Y-116311787D01*
X115399996Y-116330091D01*
X115400000Y-116330091D01*
X115400003Y-116330091D01*
X115549667Y-116313228D01*
X115618489Y-116325282D01*
X115669869Y-116372632D01*
X115687493Y-116440242D01*
X115686771Y-116450331D01*
X115669909Y-116599995D01*
X115669909Y-116600003D01*
X115688212Y-116762455D01*
X115742210Y-116916774D01*
X115742211Y-116916775D01*
X115829192Y-117055204D01*
X115944796Y-117170808D01*
X116083225Y-117257789D01*
X116237539Y-117311786D01*
X116237542Y-117311786D01*
X116237544Y-117311787D01*
X116399996Y-117330091D01*
X116400000Y-117330091D01*
X116400004Y-117330091D01*
X116562455Y-117311787D01*
X116562456Y-117311786D01*
X116562461Y-117311786D01*
X116716775Y-117257789D01*
X116855204Y-117170808D01*
X116970808Y-117055204D01*
X117057789Y-116916775D01*
X117111786Y-116762461D01*
X117111787Y-116762455D01*
X117130091Y-116600003D01*
X117130091Y-116599996D01*
X117111787Y-116437544D01*
X117111786Y-116437542D01*
X117111786Y-116437539D01*
X117057789Y-116283225D01*
X116970808Y-116144796D01*
X116855204Y-116029192D01*
X116748993Y-115962455D01*
X116716774Y-115942210D01*
X116562455Y-115888212D01*
X116400004Y-115869909D01*
X116399996Y-115869909D01*
X116250331Y-115886771D01*
X116181509Y-115874716D01*
X116130130Y-115827367D01*
X116112506Y-115759756D01*
X116113228Y-115749667D01*
X116130091Y-115600002D01*
X116130091Y-115599996D01*
X116111787Y-115437544D01*
X116111786Y-115437542D01*
X116111786Y-115437539D01*
X116057789Y-115283225D01*
X115970808Y-115144796D01*
X115855204Y-115029192D01*
X115716774Y-114942210D01*
X115562455Y-114888212D01*
X115400004Y-114869909D01*
X115399996Y-114869909D01*
X115237544Y-114888212D01*
X115083225Y-114942210D01*
X114944795Y-115029192D01*
X114829192Y-115144795D01*
X114742210Y-115283225D01*
X114688212Y-115437544D01*
X114669909Y-115599996D01*
X114669909Y-115600003D01*
X113898652Y-115600003D01*
X113857789Y-115483225D01*
X113770808Y-115344796D01*
X113655204Y-115229192D01*
X113635441Y-115216774D01*
X113569695Y-115175462D01*
X113523404Y-115123127D01*
X113512448Y-115056585D01*
X113530091Y-114900002D01*
X113530091Y-114899996D01*
X113511787Y-114737544D01*
X113511786Y-114737542D01*
X113511786Y-114737539D01*
X113457789Y-114583225D01*
X113370808Y-114444796D01*
X113255204Y-114329192D01*
X113116774Y-114242210D01*
X112962455Y-114188212D01*
X112800004Y-114169909D01*
X112799996Y-114169909D01*
X112637543Y-114188212D01*
X112572766Y-114210878D01*
X112502987Y-114214439D01*
X112442360Y-114179709D01*
X112410134Y-114117715D01*
X112410925Y-114066230D01*
X112411782Y-114062471D01*
X112411786Y-114062461D01*
X112430091Y-113900000D01*
X112411786Y-113737539D01*
X112357789Y-113583225D01*
X112270808Y-113444796D01*
X112226015Y-113400003D01*
X113969909Y-113400003D01*
X113988212Y-113562455D01*
X114042210Y-113716774D01*
X114042211Y-113716775D01*
X114129192Y-113855204D01*
X114244796Y-113970808D01*
X114383225Y-114057789D01*
X114537539Y-114111786D01*
X114537542Y-114111786D01*
X114537544Y-114111787D01*
X114699996Y-114130091D01*
X114700000Y-114130091D01*
X114700004Y-114130091D01*
X114862455Y-114111787D01*
X114862456Y-114111786D01*
X114862461Y-114111786D01*
X115016775Y-114057789D01*
X115155204Y-113970808D01*
X115270808Y-113855204D01*
X115357789Y-113716775D01*
X115411786Y-113562461D01*
X115430091Y-113400000D01*
X115412312Y-113242211D01*
X115411787Y-113237544D01*
X115411786Y-113237542D01*
X115411786Y-113237539D01*
X115357789Y-113083225D01*
X115270808Y-112944796D01*
X115155204Y-112829192D01*
X115065917Y-112773089D01*
X115016774Y-112742210D01*
X114862455Y-112688212D01*
X114700004Y-112669909D01*
X114699996Y-112669909D01*
X114537544Y-112688212D01*
X114383225Y-112742210D01*
X114244795Y-112829192D01*
X114129192Y-112944795D01*
X114042210Y-113083225D01*
X113988212Y-113237544D01*
X113969909Y-113399996D01*
X113969909Y-113400003D01*
X112226015Y-113400003D01*
X112155204Y-113329192D01*
X112016774Y-113242210D01*
X111862455Y-113188212D01*
X111700004Y-113169909D01*
X111699996Y-113169909D01*
X111537544Y-113188212D01*
X111383225Y-113242210D01*
X111244795Y-113329192D01*
X111129192Y-113444795D01*
X111042210Y-113583225D01*
X110988212Y-113737544D01*
X110969909Y-113899996D01*
X110969909Y-113900003D01*
X100700500Y-113900003D01*
X100700500Y-112115303D01*
X101549909Y-112115303D01*
X101568212Y-112277755D01*
X101622210Y-112432074D01*
X101701203Y-112557789D01*
X101709192Y-112570504D01*
X101824796Y-112686108D01*
X101963225Y-112773089D01*
X102117539Y-112827086D01*
X102117542Y-112827086D01*
X102117544Y-112827087D01*
X102279996Y-112845391D01*
X102280000Y-112845391D01*
X102280004Y-112845391D01*
X102442455Y-112827087D01*
X102442456Y-112827086D01*
X102442461Y-112827086D01*
X102596775Y-112773089D01*
X102735204Y-112686108D01*
X102850808Y-112570504D01*
X102937789Y-112432075D01*
X102991786Y-112277761D01*
X102991787Y-112277755D01*
X103010091Y-112115303D01*
X103010091Y-112115296D01*
X102991787Y-111952844D01*
X102991786Y-111952842D01*
X102991786Y-111952839D01*
X102937789Y-111798525D01*
X102850808Y-111660096D01*
X102735204Y-111544492D01*
X102604653Y-111462461D01*
X102596774Y-111457510D01*
X102442455Y-111403512D01*
X102280004Y-111385209D01*
X102279996Y-111385209D01*
X102117544Y-111403512D01*
X101963225Y-111457510D01*
X101824795Y-111544492D01*
X101709192Y-111660095D01*
X101622210Y-111798525D01*
X101568212Y-111952844D01*
X101549909Y-112115296D01*
X101549909Y-112115303D01*
X100700500Y-112115303D01*
X100700500Y-110300003D01*
X104089909Y-110300003D01*
X104108212Y-110462455D01*
X104162210Y-110616774D01*
X104246673Y-110751195D01*
X104249192Y-110755204D01*
X104364796Y-110870808D01*
X104432360Y-110913261D01*
X104478650Y-110965594D01*
X104489299Y-111034648D01*
X104487863Y-111042604D01*
X104469409Y-111206396D01*
X104469409Y-111206403D01*
X104487712Y-111368855D01*
X104541710Y-111523174D01*
X104541711Y-111523175D01*
X104628692Y-111661604D01*
X104744296Y-111777208D01*
X104882725Y-111864189D01*
X105037039Y-111918186D01*
X105037042Y-111918186D01*
X105037044Y-111918187D01*
X105199496Y-111936491D01*
X105199500Y-111936491D01*
X105199504Y-111936491D01*
X105361955Y-111918187D01*
X105361956Y-111918186D01*
X105361961Y-111918186D01*
X105516275Y-111864189D01*
X105654704Y-111777208D01*
X105770308Y-111661604D01*
X105857289Y-111523175D01*
X105911286Y-111368861D01*
X105915756Y-111329192D01*
X105929591Y-111206403D01*
X105929591Y-111206396D01*
X105911287Y-111043944D01*
X105911286Y-111043942D01*
X105911286Y-111043939D01*
X105857289Y-110889625D01*
X105770308Y-110751196D01*
X105654704Y-110635592D01*
X105587139Y-110593138D01*
X105540849Y-110540804D01*
X105530201Y-110471751D01*
X105531635Y-110463800D01*
X105548547Y-110313703D01*
X106272209Y-110313703D01*
X106290512Y-110476155D01*
X106344510Y-110630474D01*
X106398735Y-110716772D01*
X106431492Y-110768904D01*
X106547096Y-110884508D01*
X106685525Y-110971489D01*
X106839839Y-111025486D01*
X106839842Y-111025486D01*
X106839844Y-111025487D01*
X107002296Y-111043791D01*
X107002300Y-111043791D01*
X107002304Y-111043791D01*
X107164755Y-111025487D01*
X107164756Y-111025486D01*
X107164761Y-111025486D01*
X107319075Y-110971489D01*
X107457504Y-110884508D01*
X107473664Y-110868347D01*
X107534984Y-110834862D01*
X107604676Y-110839845D01*
X107660610Y-110881715D01*
X107685029Y-110947179D01*
X107684565Y-110969911D01*
X107669909Y-111099995D01*
X107669909Y-111100003D01*
X107688212Y-111262455D01*
X107742210Y-111416774D01*
X107809066Y-111523174D01*
X107829192Y-111555204D01*
X107944796Y-111670808D01*
X108083225Y-111757789D01*
X108237539Y-111811786D01*
X108237542Y-111811786D01*
X108237544Y-111811787D01*
X108399996Y-111830091D01*
X108400000Y-111830091D01*
X108400004Y-111830091D01*
X108562457Y-111811787D01*
X108562459Y-111811786D01*
X108562461Y-111811786D01*
X108654345Y-111779633D01*
X108724124Y-111776072D01*
X108782981Y-111808993D01*
X108844796Y-111870808D01*
X108983225Y-111957789D01*
X109137539Y-112011786D01*
X109137542Y-112011786D01*
X109137544Y-112011787D01*
X109299996Y-112030091D01*
X109300000Y-112030091D01*
X109300004Y-112030091D01*
X109462455Y-112011787D01*
X109462456Y-112011786D01*
X109462461Y-112011786D01*
X109616775Y-111957789D01*
X109708741Y-111900003D01*
X115259909Y-111900003D01*
X115278212Y-112062455D01*
X115332210Y-112216774D01*
X115332211Y-112216775D01*
X115419192Y-112355204D01*
X115534796Y-112470808D01*
X115673225Y-112557789D01*
X115827539Y-112611786D01*
X115827542Y-112611786D01*
X115827544Y-112611787D01*
X115989996Y-112630091D01*
X115990000Y-112630091D01*
X115990004Y-112630091D01*
X116152455Y-112611787D01*
X116152456Y-112611786D01*
X116152461Y-112611786D01*
X116306775Y-112557789D01*
X116445204Y-112470808D01*
X116560808Y-112355204D01*
X116647789Y-112216775D01*
X116701786Y-112062461D01*
X116705434Y-112030091D01*
X116717450Y-111923441D01*
X116744516Y-111859027D01*
X116802111Y-111819472D01*
X116826782Y-111814104D01*
X116847361Y-111811786D01*
X117001675Y-111757789D01*
X117140104Y-111670808D01*
X117255708Y-111555204D01*
X117342689Y-111416775D01*
X117383549Y-111300003D01*
X117969909Y-111300003D01*
X117988212Y-111462455D01*
X118042210Y-111616774D01*
X118076162Y-111670808D01*
X118129192Y-111755204D01*
X118244796Y-111870808D01*
X118383225Y-111957789D01*
X118537539Y-112011786D01*
X118537542Y-112011786D01*
X118537544Y-112011787D01*
X118699996Y-112030091D01*
X118700000Y-112030091D01*
X118700004Y-112030091D01*
X118862455Y-112011787D01*
X118862456Y-112011786D01*
X118862461Y-112011786D01*
X119016775Y-111957789D01*
X119155204Y-111870808D01*
X119270808Y-111755204D01*
X119357789Y-111616775D01*
X119411786Y-111462461D01*
X119412344Y-111457510D01*
X119430091Y-111300003D01*
X119430091Y-111299996D01*
X119411787Y-111137544D01*
X119411786Y-111137542D01*
X119411786Y-111137539D01*
X119357789Y-110983225D01*
X119270808Y-110844796D01*
X119155204Y-110729192D01*
X119135438Y-110716772D01*
X119016774Y-110642210D01*
X118862455Y-110588212D01*
X118700004Y-110569909D01*
X118699996Y-110569909D01*
X118537544Y-110588212D01*
X118383225Y-110642210D01*
X118244795Y-110729192D01*
X118129192Y-110844795D01*
X118042210Y-110983225D01*
X117988212Y-111137544D01*
X117969909Y-111299996D01*
X117969909Y-111300003D01*
X117383549Y-111300003D01*
X117396686Y-111262461D01*
X117398968Y-111242210D01*
X117414991Y-111100003D01*
X117414991Y-111099996D01*
X117396687Y-110937544D01*
X117396686Y-110937542D01*
X117396686Y-110937539D01*
X117342689Y-110783225D01*
X117255708Y-110644796D01*
X117140104Y-110529192D01*
X117055706Y-110476161D01*
X117001674Y-110442210D01*
X116847355Y-110388212D01*
X116684904Y-110369909D01*
X116684896Y-110369909D01*
X116522444Y-110388212D01*
X116368125Y-110442210D01*
X116229695Y-110529192D01*
X116114092Y-110644795D01*
X116027110Y-110783225D01*
X115973112Y-110937544D01*
X115957449Y-111076559D01*
X115930382Y-111140973D01*
X115872787Y-111180528D01*
X115848118Y-111185895D01*
X115827539Y-111188214D01*
X115673225Y-111242210D01*
X115534795Y-111329192D01*
X115419192Y-111444795D01*
X115332210Y-111583225D01*
X115278212Y-111737544D01*
X115259909Y-111899996D01*
X115259909Y-111900003D01*
X109708741Y-111900003D01*
X109755204Y-111870808D01*
X109870808Y-111755204D01*
X109957789Y-111616775D01*
X110011786Y-111462461D01*
X110012344Y-111457510D01*
X110030091Y-111300003D01*
X110030091Y-111299997D01*
X110025947Y-111263219D01*
X110038001Y-111194397D01*
X110085350Y-111143017D01*
X110135283Y-111126115D01*
X110212472Y-111117418D01*
X110262454Y-111111787D01*
X110262454Y-111111786D01*
X110262461Y-111111786D01*
X110416775Y-111057789D01*
X110555204Y-110970808D01*
X110670808Y-110855204D01*
X110757789Y-110716775D01*
X110792781Y-110616774D01*
X110811784Y-110562468D01*
X110811785Y-110562463D01*
X110811786Y-110562461D01*
X110816658Y-110519214D01*
X110843723Y-110454804D01*
X110852187Y-110445428D01*
X111397297Y-109900319D01*
X111458621Y-109866834D01*
X111484979Y-109864000D01*
X114505966Y-109864000D01*
X114514063Y-109864530D01*
X114547000Y-109868867D01*
X114547001Y-109868867D01*
X114562442Y-109866834D01*
X114694234Y-109849483D01*
X114831433Y-109792653D01*
X114919668Y-109724949D01*
X114919668Y-109724948D01*
X114942606Y-109707348D01*
X114942606Y-109707347D01*
X114949250Y-109702250D01*
X114969476Y-109675888D01*
X114974819Y-109669796D01*
X117344611Y-107300003D01*
X119769909Y-107300003D01*
X119788212Y-107462455D01*
X119842210Y-107616774D01*
X119842211Y-107616775D01*
X119929192Y-107755204D01*
X120044796Y-107870808D01*
X120183225Y-107957789D01*
X120337539Y-108011786D01*
X120337542Y-108011786D01*
X120337544Y-108011787D01*
X120499996Y-108030091D01*
X120500000Y-108030091D01*
X120500004Y-108030091D01*
X120662455Y-108011787D01*
X120662456Y-108011786D01*
X120662461Y-108011786D01*
X120816775Y-107957789D01*
X120955204Y-107870808D01*
X121070808Y-107755204D01*
X121157789Y-107616775D01*
X121211786Y-107462461D01*
X121214327Y-107439908D01*
X121230091Y-107300003D01*
X121230091Y-107299996D01*
X121211787Y-107137544D01*
X121211786Y-107137542D01*
X121211786Y-107137539D01*
X121157789Y-106983225D01*
X121070808Y-106844796D01*
X120955204Y-106729192D01*
X120919311Y-106706639D01*
X120816774Y-106642210D01*
X120662455Y-106588212D01*
X120500004Y-106569909D01*
X120499996Y-106569909D01*
X120337544Y-106588212D01*
X120183225Y-106642210D01*
X120044795Y-106729192D01*
X119929192Y-106844795D01*
X119842210Y-106983225D01*
X119788212Y-107137544D01*
X119769909Y-107299996D01*
X119769909Y-107300003D01*
X117344611Y-107300003D01*
X118067419Y-106577195D01*
X118128740Y-106543712D01*
X118141199Y-106541660D01*
X118184461Y-106536786D01*
X118184465Y-106536784D01*
X118184468Y-106536784D01*
X118338772Y-106482790D01*
X118338771Y-106482790D01*
X118338775Y-106482789D01*
X118477204Y-106395808D01*
X118592808Y-106280204D01*
X118679789Y-106141775D01*
X118733786Y-105987461D01*
X118736272Y-105965396D01*
X118752091Y-105825003D01*
X118752091Y-105824996D01*
X118733787Y-105662544D01*
X118733786Y-105662542D01*
X118733786Y-105662539D01*
X118679789Y-105508225D01*
X118592808Y-105369796D01*
X118477204Y-105254192D01*
X118409717Y-105211787D01*
X118338774Y-105167210D01*
X118184455Y-105113212D01*
X118022004Y-105094909D01*
X118021996Y-105094909D01*
X117859544Y-105113212D01*
X117705225Y-105167210D01*
X117566795Y-105254192D01*
X117451192Y-105369795D01*
X117364210Y-105508225D01*
X117310212Y-105662544D01*
X117305340Y-105705785D01*
X117278272Y-105770199D01*
X117269801Y-105779581D01*
X114349702Y-108699681D01*
X114288379Y-108733166D01*
X114262021Y-108736000D01*
X111241034Y-108736000D01*
X111232936Y-108735469D01*
X111200000Y-108731133D01*
X111199999Y-108731133D01*
X111184558Y-108733166D01*
X111163032Y-108736000D01*
X111052766Y-108750517D01*
X111052765Y-108750517D01*
X110915565Y-108807347D01*
X110797751Y-108897748D01*
X110777522Y-108924110D01*
X110772171Y-108930211D01*
X110054580Y-109647801D01*
X109993257Y-109681286D01*
X109980785Y-109683340D01*
X109937544Y-109688212D01*
X109783225Y-109742210D01*
X109644795Y-109829192D01*
X109529192Y-109944795D01*
X109442210Y-110083225D01*
X109388212Y-110237544D01*
X109369909Y-110399996D01*
X109369909Y-110399997D01*
X109374053Y-110436783D01*
X109361997Y-110505604D01*
X109314647Y-110556983D01*
X109264716Y-110573884D01*
X109137542Y-110588212D01*
X109045651Y-110620366D01*
X108975872Y-110623927D01*
X108917017Y-110591005D01*
X108855204Y-110529192D01*
X108716774Y-110442210D01*
X108562455Y-110388212D01*
X108400004Y-110369909D01*
X108399996Y-110369909D01*
X108237544Y-110388212D01*
X108083225Y-110442210D01*
X107944795Y-110529192D01*
X107944793Y-110529193D01*
X107928633Y-110545354D01*
X107867309Y-110578838D01*
X107797618Y-110573852D01*
X107741685Y-110531979D01*
X107717270Y-110466514D01*
X107717734Y-110443787D01*
X107732391Y-110313702D01*
X107732391Y-110313696D01*
X107714087Y-110151244D01*
X107714086Y-110151242D01*
X107714086Y-110151239D01*
X107660089Y-109996925D01*
X107573108Y-109858496D01*
X107457504Y-109742892D01*
X107428948Y-109724949D01*
X107319074Y-109655910D01*
X107164755Y-109601912D01*
X107002304Y-109583609D01*
X107002296Y-109583609D01*
X106839844Y-109601912D01*
X106685525Y-109655910D01*
X106547095Y-109742892D01*
X106431492Y-109858495D01*
X106344510Y-109996925D01*
X106290512Y-110151244D01*
X106272209Y-110313696D01*
X106272209Y-110313703D01*
X105548547Y-110313703D01*
X105550091Y-110300003D01*
X105550091Y-110299996D01*
X105531787Y-110137544D01*
X105531786Y-110137542D01*
X105531786Y-110137539D01*
X105477789Y-109983225D01*
X105390808Y-109844796D01*
X105275204Y-109729192D01*
X105209985Y-109688212D01*
X105136774Y-109642210D01*
X104982455Y-109588212D01*
X104820004Y-109569909D01*
X104819996Y-109569909D01*
X104657544Y-109588212D01*
X104503225Y-109642210D01*
X104364795Y-109729192D01*
X104249192Y-109844795D01*
X104162210Y-109983225D01*
X104108212Y-110137544D01*
X104089909Y-110299996D01*
X104089909Y-110300003D01*
X100700500Y-110300003D01*
X100700500Y-106598703D01*
X101549909Y-106598703D01*
X101568212Y-106761155D01*
X101622210Y-106915474D01*
X101656979Y-106970808D01*
X101709192Y-107053904D01*
X101824796Y-107169508D01*
X101963225Y-107256489D01*
X102117539Y-107310486D01*
X102117542Y-107310486D01*
X102117544Y-107310487D01*
X102279996Y-107328791D01*
X102280000Y-107328791D01*
X102280004Y-107328791D01*
X102442455Y-107310487D01*
X102442456Y-107310486D01*
X102442461Y-107310486D01*
X102596775Y-107256489D01*
X102735204Y-107169508D01*
X102850808Y-107053904D01*
X102937789Y-106915475D01*
X102991786Y-106761161D01*
X102996787Y-106716775D01*
X103009325Y-106605503D01*
X104089909Y-106605503D01*
X104108212Y-106767955D01*
X104162210Y-106922274D01*
X104230876Y-107031555D01*
X104249192Y-107060704D01*
X104364796Y-107176308D01*
X104503225Y-107263289D01*
X104657539Y-107317286D01*
X104657542Y-107317286D01*
X104657544Y-107317287D01*
X104819996Y-107335591D01*
X104820000Y-107335591D01*
X104820004Y-107335591D01*
X104982455Y-107317287D01*
X104982456Y-107317286D01*
X104982461Y-107317286D01*
X105136775Y-107263289D01*
X105275204Y-107176308D01*
X105390808Y-107060704D01*
X105477789Y-106922275D01*
X105531786Y-106767961D01*
X105531787Y-106767955D01*
X105550091Y-106605503D01*
X105550091Y-106605496D01*
X105531787Y-106443044D01*
X105531786Y-106443042D01*
X105531786Y-106443039D01*
X105516727Y-106400003D01*
X106469909Y-106400003D01*
X106488212Y-106562455D01*
X106542210Y-106716774D01*
X106574373Y-106767961D01*
X106629192Y-106855204D01*
X106744796Y-106970808D01*
X106883225Y-107057789D01*
X107037539Y-107111786D01*
X107037542Y-107111786D01*
X107037544Y-107111787D01*
X107199996Y-107130091D01*
X107200000Y-107130091D01*
X107200004Y-107130091D01*
X107362457Y-107111787D01*
X107362459Y-107111786D01*
X107362461Y-107111786D01*
X107516775Y-107057789D01*
X107557736Y-107032050D01*
X107624969Y-107013051D01*
X107689678Y-107032051D01*
X107763424Y-107078388D01*
X107763425Y-107078389D01*
X107917739Y-107132386D01*
X107917742Y-107132386D01*
X107917744Y-107132387D01*
X108080196Y-107150691D01*
X108080200Y-107150691D01*
X108080204Y-107150691D01*
X108242655Y-107132387D01*
X108242656Y-107132386D01*
X108242661Y-107132386D01*
X108396975Y-107078389D01*
X108535404Y-106991408D01*
X108651008Y-106875804D01*
X108655219Y-106869103D01*
X110852009Y-106869103D01*
X110870312Y-107031555D01*
X110870313Y-107031560D01*
X110870314Y-107031561D01*
X110870486Y-107032052D01*
X110924310Y-107185874D01*
X110996018Y-107299996D01*
X111011292Y-107324304D01*
X111126896Y-107439908D01*
X111265325Y-107526889D01*
X111419639Y-107580886D01*
X111419642Y-107580886D01*
X111419644Y-107580887D01*
X111582096Y-107599191D01*
X111582100Y-107599191D01*
X111582104Y-107599191D01*
X111744555Y-107580887D01*
X111744556Y-107580886D01*
X111744561Y-107580886D01*
X111898875Y-107526889D01*
X112037304Y-107439908D01*
X112152908Y-107324304D01*
X112239889Y-107185875D01*
X112293886Y-107031561D01*
X112298410Y-106991408D01*
X112312191Y-106869103D01*
X112312191Y-106869096D01*
X112293887Y-106706644D01*
X112293886Y-106706642D01*
X112293886Y-106706639D01*
X112239889Y-106552325D01*
X112152908Y-106413896D01*
X112037304Y-106298292D01*
X111973401Y-106258139D01*
X111898874Y-106211310D01*
X111744555Y-106157312D01*
X111582104Y-106139009D01*
X111582096Y-106139009D01*
X111419644Y-106157312D01*
X111265325Y-106211310D01*
X111126895Y-106298292D01*
X111011292Y-106413895D01*
X110924310Y-106552325D01*
X110870312Y-106706644D01*
X110852009Y-106869096D01*
X110852009Y-106869103D01*
X108655219Y-106869103D01*
X108737989Y-106737375D01*
X108791986Y-106583061D01*
X108797200Y-106536785D01*
X108810291Y-106420603D01*
X108810291Y-106420596D01*
X108791987Y-106258144D01*
X108791986Y-106258142D01*
X108791986Y-106258139D01*
X108737989Y-106103825D01*
X108651008Y-105965396D01*
X108535404Y-105849792D01*
X108504201Y-105830186D01*
X108396974Y-105762810D01*
X108242655Y-105708812D01*
X108080204Y-105690509D01*
X108080196Y-105690509D01*
X107917744Y-105708812D01*
X107763424Y-105762810D01*
X107722464Y-105788548D01*
X107655227Y-105807548D01*
X107590520Y-105788548D01*
X107516774Y-105742210D01*
X107362455Y-105688212D01*
X107200004Y-105669909D01*
X107199996Y-105669909D01*
X107037544Y-105688212D01*
X106883225Y-105742210D01*
X106744795Y-105829192D01*
X106629192Y-105944795D01*
X106542210Y-106083225D01*
X106488212Y-106237544D01*
X106469909Y-106399996D01*
X106469909Y-106400003D01*
X105516727Y-106400003D01*
X105477789Y-106288725D01*
X105390808Y-106150296D01*
X105275204Y-106034692D01*
X105200027Y-105987455D01*
X105136774Y-105947710D01*
X104982455Y-105893712D01*
X104820004Y-105875409D01*
X104819996Y-105875409D01*
X104657544Y-105893712D01*
X104503225Y-105947710D01*
X104364795Y-106034692D01*
X104249192Y-106150295D01*
X104162210Y-106288725D01*
X104108212Y-106443044D01*
X104089909Y-106605496D01*
X104089909Y-106605503D01*
X103009325Y-106605503D01*
X103010091Y-106598703D01*
X103010091Y-106598696D01*
X102991787Y-106436244D01*
X102991786Y-106436242D01*
X102991786Y-106436239D01*
X102937789Y-106281925D01*
X102850808Y-106143496D01*
X102735204Y-106027892D01*
X102635741Y-105965395D01*
X102596774Y-105940910D01*
X102442455Y-105886912D01*
X102280004Y-105868609D01*
X102279996Y-105868609D01*
X102117544Y-105886912D01*
X101963225Y-105940910D01*
X101824795Y-106027892D01*
X101709192Y-106143495D01*
X101622210Y-106281925D01*
X101568212Y-106436244D01*
X101549909Y-106598696D01*
X101549909Y-106598703D01*
X100700500Y-106598703D01*
X100700500Y-103900003D01*
X103019909Y-103900003D01*
X103038212Y-104062455D01*
X103092210Y-104216774D01*
X103092211Y-104216775D01*
X103179192Y-104355204D01*
X103294796Y-104470808D01*
X103433225Y-104557789D01*
X103587539Y-104611786D01*
X103587542Y-104611786D01*
X103587544Y-104611787D01*
X103749996Y-104630091D01*
X103750000Y-104630091D01*
X103750004Y-104630091D01*
X103912455Y-104611787D01*
X103912456Y-104611786D01*
X103912461Y-104611786D01*
X104066775Y-104557789D01*
X104184027Y-104484114D01*
X104251265Y-104465114D01*
X104315972Y-104484114D01*
X104341259Y-104500003D01*
X104433225Y-104557789D01*
X104587539Y-104611786D01*
X104587542Y-104611786D01*
X104587544Y-104611787D01*
X104749996Y-104630091D01*
X104750000Y-104630091D01*
X104750004Y-104630091D01*
X104912455Y-104611787D01*
X104912456Y-104611786D01*
X104912461Y-104611786D01*
X105066775Y-104557789D01*
X105184027Y-104484114D01*
X105251265Y-104465114D01*
X105315972Y-104484114D01*
X105341259Y-104500003D01*
X105433225Y-104557789D01*
X105587539Y-104611786D01*
X105587542Y-104611786D01*
X105587544Y-104611787D01*
X105749996Y-104630091D01*
X105750000Y-104630091D01*
X105750004Y-104630091D01*
X105912455Y-104611787D01*
X105912456Y-104611786D01*
X105912461Y-104611786D01*
X106066775Y-104557789D01*
X106184027Y-104484114D01*
X106251265Y-104465114D01*
X106315972Y-104484114D01*
X106341259Y-104500003D01*
X106433225Y-104557789D01*
X106587539Y-104611786D01*
X106587542Y-104611786D01*
X106587544Y-104611787D01*
X106749996Y-104630091D01*
X106750000Y-104630091D01*
X106750004Y-104630091D01*
X106912455Y-104611787D01*
X106912456Y-104611786D01*
X106912461Y-104611786D01*
X107066775Y-104557789D01*
X107184026Y-104484114D01*
X107251263Y-104465114D01*
X107315971Y-104484114D01*
X107433223Y-104557788D01*
X107433225Y-104557789D01*
X107587539Y-104611786D01*
X107587542Y-104611786D01*
X107587544Y-104611787D01*
X107749996Y-104630091D01*
X107750000Y-104630091D01*
X107750004Y-104630091D01*
X107912455Y-104611787D01*
X107912456Y-104611786D01*
X107912461Y-104611786D01*
X108066775Y-104557789D01*
X108184027Y-104484114D01*
X108251265Y-104465114D01*
X108315972Y-104484114D01*
X108341259Y-104500003D01*
X108433225Y-104557789D01*
X108587539Y-104611786D01*
X108587542Y-104611786D01*
X108587544Y-104611787D01*
X108749996Y-104630091D01*
X108750000Y-104630091D01*
X108750004Y-104630091D01*
X108912455Y-104611787D01*
X108912456Y-104611786D01*
X108912461Y-104611786D01*
X109066775Y-104557789D01*
X109205204Y-104470808D01*
X109320808Y-104355204D01*
X109320808Y-104355203D01*
X109325732Y-104350280D01*
X109326845Y-104351393D01*
X109377207Y-104316033D01*
X109447018Y-104313171D01*
X109457936Y-104316435D01*
X109587539Y-104361786D01*
X109587543Y-104361786D01*
X109587545Y-104361787D01*
X109749996Y-104380091D01*
X109750000Y-104380091D01*
X109750004Y-104380091D01*
X109912455Y-104361787D01*
X109912456Y-104361786D01*
X109912461Y-104361786D01*
X110066775Y-104307789D01*
X110184028Y-104234113D01*
X110251264Y-104215113D01*
X110315971Y-104234113D01*
X110433225Y-104307789D01*
X110587539Y-104361786D01*
X110587542Y-104361786D01*
X110587544Y-104361787D01*
X110749996Y-104380091D01*
X110750000Y-104380091D01*
X110750004Y-104380091D01*
X110912455Y-104361787D01*
X110912456Y-104361786D01*
X110912461Y-104361786D01*
X111066775Y-104307789D01*
X111184029Y-104234113D01*
X111251262Y-104215113D01*
X111315970Y-104234112D01*
X111433225Y-104307789D01*
X111587539Y-104361786D01*
X111587542Y-104361786D01*
X111587544Y-104361787D01*
X111749996Y-104380091D01*
X111750000Y-104380091D01*
X111750004Y-104380091D01*
X111912455Y-104361787D01*
X111912456Y-104361786D01*
X111912461Y-104361786D01*
X112066775Y-104307789D01*
X112184028Y-104234113D01*
X112251264Y-104215113D01*
X112315971Y-104234113D01*
X112433225Y-104307789D01*
X112587539Y-104361786D01*
X112587542Y-104361786D01*
X112587544Y-104361787D01*
X112749996Y-104380091D01*
X112750000Y-104380091D01*
X112750004Y-104380091D01*
X112912455Y-104361787D01*
X112912456Y-104361786D01*
X112912461Y-104361786D01*
X113066775Y-104307789D01*
X113184028Y-104234113D01*
X113251264Y-104215113D01*
X113315971Y-104234113D01*
X113433225Y-104307789D01*
X113587539Y-104361786D01*
X113587542Y-104361786D01*
X113587544Y-104361787D01*
X113749996Y-104380091D01*
X113750000Y-104380091D01*
X113750004Y-104380091D01*
X113912455Y-104361787D01*
X113912456Y-104361786D01*
X113912461Y-104361786D01*
X114066775Y-104307789D01*
X114184029Y-104234113D01*
X114251262Y-104215113D01*
X114315970Y-104234112D01*
X114433225Y-104307789D01*
X114587539Y-104361786D01*
X114587542Y-104361786D01*
X114587544Y-104361787D01*
X114749996Y-104380091D01*
X114750000Y-104380091D01*
X114750004Y-104380091D01*
X114912455Y-104361787D01*
X114912456Y-104361786D01*
X114912461Y-104361786D01*
X115066775Y-104307789D01*
X115184028Y-104234113D01*
X115251264Y-104215113D01*
X115315971Y-104234113D01*
X115433225Y-104307789D01*
X115587539Y-104361786D01*
X115587542Y-104361786D01*
X115587544Y-104361787D01*
X115749996Y-104380091D01*
X115750000Y-104380091D01*
X115750004Y-104380091D01*
X115912455Y-104361787D01*
X115912456Y-104361786D01*
X115912461Y-104361786D01*
X116066775Y-104307789D01*
X116184028Y-104234113D01*
X116251264Y-104215113D01*
X116315971Y-104234113D01*
X116433225Y-104307789D01*
X116587539Y-104361786D01*
X116587542Y-104361786D01*
X116587544Y-104361787D01*
X116749996Y-104380091D01*
X116750000Y-104380091D01*
X116750004Y-104380091D01*
X116912455Y-104361787D01*
X116912456Y-104361786D01*
X116912461Y-104361786D01*
X117066775Y-104307789D01*
X117205204Y-104220808D01*
X117320808Y-104105204D01*
X117407789Y-103966775D01*
X117461786Y-103812461D01*
X117480091Y-103650003D01*
X118519909Y-103650003D01*
X118538212Y-103812455D01*
X118592210Y-103966774D01*
X118592211Y-103966775D01*
X118679192Y-104105204D01*
X118794796Y-104220808D01*
X118864010Y-104264298D01*
X118933226Y-104307790D01*
X118957939Y-104316437D01*
X118994626Y-104329274D01*
X119051403Y-104369995D01*
X119077151Y-104434947D01*
X119076893Y-104460199D01*
X119072409Y-104499997D01*
X119072409Y-104500003D01*
X119090712Y-104662455D01*
X119144710Y-104816774D01*
X119144711Y-104816775D01*
X119231692Y-104955204D01*
X119347296Y-105070808D01*
X119485725Y-105157789D01*
X119640039Y-105211786D01*
X119640042Y-105211786D01*
X119640044Y-105211787D01*
X119802496Y-105230091D01*
X119802500Y-105230091D01*
X119802504Y-105230091D01*
X119964955Y-105211787D01*
X119964956Y-105211786D01*
X119964961Y-105211786D01*
X120119275Y-105157789D01*
X120257704Y-105070808D01*
X120373308Y-104955204D01*
X120460289Y-104816775D01*
X120514286Y-104662461D01*
X120514287Y-104662455D01*
X120532591Y-104500003D01*
X120532591Y-104499997D01*
X120523350Y-104417981D01*
X120535404Y-104349159D01*
X120580597Y-104299103D01*
X120684030Y-104234112D01*
X120751264Y-104215113D01*
X120815971Y-104234113D01*
X120933225Y-104307789D01*
X121087539Y-104361786D01*
X121087542Y-104361786D01*
X121087544Y-104361787D01*
X121249996Y-104380091D01*
X121250000Y-104380091D01*
X121250004Y-104380091D01*
X121412455Y-104361787D01*
X121412456Y-104361786D01*
X121412461Y-104361786D01*
X121566775Y-104307789D01*
X121705204Y-104220808D01*
X121820808Y-104105204D01*
X121907789Y-103966775D01*
X121961786Y-103812461D01*
X121980091Y-103650000D01*
X121972567Y-103583225D01*
X121961787Y-103487544D01*
X121961786Y-103487542D01*
X121961786Y-103487539D01*
X121907789Y-103333225D01*
X121820808Y-103194796D01*
X121705204Y-103079192D01*
X121684026Y-103065885D01*
X121566774Y-102992210D01*
X121412455Y-102938212D01*
X121250004Y-102919909D01*
X121249996Y-102919909D01*
X121087544Y-102938212D01*
X120933225Y-102992210D01*
X120815971Y-103065886D01*
X120748734Y-103084886D01*
X120684026Y-103065885D01*
X120566776Y-102992211D01*
X120412455Y-102938212D01*
X120250004Y-102919909D01*
X120249996Y-102919909D01*
X120087544Y-102938212D01*
X119933225Y-102992210D01*
X119815972Y-103065886D01*
X119748735Y-103084886D01*
X119684028Y-103065886D01*
X119566774Y-102992210D01*
X119412455Y-102938212D01*
X119250004Y-102919909D01*
X119249996Y-102919909D01*
X119087544Y-102938212D01*
X118933225Y-102992210D01*
X118794795Y-103079192D01*
X118679192Y-103194795D01*
X118592210Y-103333225D01*
X118538212Y-103487544D01*
X118519909Y-103649996D01*
X118519909Y-103650003D01*
X117480091Y-103650003D01*
X117480091Y-103650000D01*
X117472567Y-103583225D01*
X117461787Y-103487544D01*
X117461786Y-103487542D01*
X117461786Y-103487539D01*
X117407789Y-103333225D01*
X117320808Y-103194796D01*
X117205204Y-103079192D01*
X117184026Y-103065885D01*
X117066774Y-102992210D01*
X116912455Y-102938212D01*
X116750004Y-102919909D01*
X116749996Y-102919909D01*
X116587544Y-102938212D01*
X116433225Y-102992210D01*
X116315972Y-103065886D01*
X116248735Y-103084886D01*
X116184028Y-103065886D01*
X116066774Y-102992210D01*
X115912455Y-102938212D01*
X115750004Y-102919909D01*
X115749996Y-102919909D01*
X115587544Y-102938212D01*
X115433225Y-102992210D01*
X115315971Y-103065886D01*
X115248734Y-103084886D01*
X115184026Y-103065885D01*
X115066776Y-102992211D01*
X114912455Y-102938212D01*
X114750004Y-102919909D01*
X114749996Y-102919909D01*
X114587544Y-102938212D01*
X114433225Y-102992210D01*
X114315972Y-103065886D01*
X114248735Y-103084886D01*
X114184028Y-103065886D01*
X114066774Y-102992210D01*
X113912455Y-102938212D01*
X113750004Y-102919909D01*
X113749996Y-102919909D01*
X113587544Y-102938212D01*
X113433225Y-102992210D01*
X113315972Y-103065886D01*
X113248735Y-103084886D01*
X113184028Y-103065886D01*
X113066774Y-102992210D01*
X112912455Y-102938212D01*
X112750004Y-102919909D01*
X112749996Y-102919909D01*
X112587544Y-102938212D01*
X112433225Y-102992210D01*
X112315972Y-103065886D01*
X112248735Y-103084886D01*
X112184028Y-103065886D01*
X112066774Y-102992210D01*
X111912455Y-102938212D01*
X111750004Y-102919909D01*
X111749996Y-102919909D01*
X111587544Y-102938212D01*
X111433225Y-102992210D01*
X111315971Y-103065886D01*
X111248734Y-103084886D01*
X111184026Y-103065885D01*
X111066776Y-102992211D01*
X110912455Y-102938212D01*
X110750004Y-102919909D01*
X110749996Y-102919909D01*
X110587544Y-102938212D01*
X110433225Y-102992210D01*
X110315971Y-103065886D01*
X110248734Y-103084886D01*
X110184026Y-103065885D01*
X110066776Y-102992211D01*
X109912455Y-102938212D01*
X109750004Y-102919909D01*
X109749996Y-102919909D01*
X109587544Y-102938212D01*
X109433225Y-102992210D01*
X109294795Y-103079192D01*
X109174268Y-103199720D01*
X109173157Y-103198609D01*
X109122763Y-103233976D01*
X109052952Y-103236821D01*
X109042059Y-103233562D01*
X108912455Y-103188212D01*
X108750004Y-103169909D01*
X108749996Y-103169909D01*
X108587544Y-103188212D01*
X108433225Y-103242210D01*
X108315972Y-103315886D01*
X108248735Y-103334886D01*
X108184028Y-103315886D01*
X108066774Y-103242210D01*
X107912455Y-103188212D01*
X107750004Y-103169909D01*
X107749996Y-103169909D01*
X107587544Y-103188212D01*
X107433225Y-103242210D01*
X107315972Y-103315886D01*
X107248735Y-103334886D01*
X107184028Y-103315886D01*
X107066774Y-103242210D01*
X106912455Y-103188212D01*
X106750004Y-103169909D01*
X106749996Y-103169909D01*
X106587544Y-103188212D01*
X106433225Y-103242210D01*
X106315972Y-103315886D01*
X106248735Y-103334886D01*
X106184028Y-103315886D01*
X106066774Y-103242210D01*
X105912455Y-103188212D01*
X105750004Y-103169909D01*
X105749996Y-103169909D01*
X105587544Y-103188212D01*
X105433225Y-103242210D01*
X105315972Y-103315886D01*
X105248735Y-103334886D01*
X105184028Y-103315886D01*
X105066774Y-103242210D01*
X104912455Y-103188212D01*
X104750004Y-103169909D01*
X104749996Y-103169909D01*
X104587544Y-103188212D01*
X104433225Y-103242210D01*
X104315972Y-103315886D01*
X104248735Y-103334886D01*
X104184028Y-103315886D01*
X104066774Y-103242210D01*
X103912455Y-103188212D01*
X103750004Y-103169909D01*
X103749996Y-103169909D01*
X103587544Y-103188212D01*
X103433225Y-103242210D01*
X103294795Y-103329192D01*
X103179192Y-103444795D01*
X103092210Y-103583225D01*
X103038212Y-103737544D01*
X103019909Y-103899996D01*
X103019909Y-103900003D01*
X100700500Y-103900003D01*
X100700500Y-100900003D01*
X103269909Y-100900003D01*
X103288212Y-101062455D01*
X103342210Y-101216774D01*
X103429192Y-101355204D01*
X103544796Y-101470808D01*
X103683225Y-101557789D01*
X103837539Y-101611786D01*
X103837542Y-101611786D01*
X103837544Y-101611787D01*
X103999996Y-101630091D01*
X104000000Y-101630091D01*
X104000004Y-101630091D01*
X104162455Y-101611787D01*
X104162456Y-101611786D01*
X104162461Y-101611786D01*
X104316775Y-101557789D01*
X104455204Y-101470808D01*
X104570808Y-101355204D01*
X104657789Y-101216775D01*
X104711786Y-101062461D01*
X104711787Y-101062455D01*
X104711788Y-101062452D01*
X104713338Y-101055665D01*
X104715884Y-101056246D01*
X104738307Y-101002883D01*
X104795901Y-100963327D01*
X104865738Y-100961188D01*
X104900435Y-100976186D01*
X104933223Y-100996788D01*
X104933225Y-100996789D01*
X105087539Y-101050786D01*
X105087542Y-101050786D01*
X105087544Y-101050787D01*
X105249996Y-101069091D01*
X105250000Y-101069091D01*
X105250004Y-101069091D01*
X105412455Y-101050787D01*
X105412456Y-101050786D01*
X105412461Y-101050786D01*
X105566775Y-100996789D01*
X105639035Y-100951384D01*
X105706268Y-100932385D01*
X105773103Y-100952752D01*
X105792692Y-100968704D01*
X105794796Y-100970808D01*
X105933225Y-101057789D01*
X106087539Y-101111786D01*
X106087542Y-101111786D01*
X106087544Y-101111787D01*
X106249996Y-101130091D01*
X106250000Y-101130091D01*
X106250003Y-101130091D01*
X106399667Y-101113228D01*
X106468489Y-101125282D01*
X106519869Y-101172632D01*
X106537493Y-101240242D01*
X106536771Y-101250331D01*
X106519909Y-101399995D01*
X106519909Y-101400003D01*
X106538212Y-101562455D01*
X106592210Y-101716774D01*
X106592211Y-101716775D01*
X106679192Y-101855204D01*
X106794796Y-101970808D01*
X106933225Y-102057789D01*
X107087539Y-102111786D01*
X107087542Y-102111786D01*
X107087544Y-102111787D01*
X107249996Y-102130091D01*
X107250000Y-102130091D01*
X107250004Y-102130091D01*
X107412455Y-102111787D01*
X107412456Y-102111786D01*
X107412461Y-102111786D01*
X107566775Y-102057789D01*
X107705204Y-101970808D01*
X107820808Y-101855204D01*
X107820808Y-101855203D01*
X107825732Y-101850280D01*
X107826845Y-101851393D01*
X107877207Y-101816033D01*
X107947018Y-101813171D01*
X107957936Y-101816435D01*
X108087539Y-101861786D01*
X108087543Y-101861786D01*
X108087545Y-101861787D01*
X108249996Y-101880091D01*
X108250000Y-101880091D01*
X108250004Y-101880091D01*
X108412455Y-101861787D01*
X108412456Y-101861786D01*
X108412461Y-101861786D01*
X108566775Y-101807789D01*
X108684028Y-101734113D01*
X108751264Y-101715113D01*
X108815971Y-101734113D01*
X108933225Y-101807789D01*
X109087539Y-101861786D01*
X109087542Y-101861786D01*
X109087544Y-101861787D01*
X109249996Y-101880091D01*
X109250000Y-101880091D01*
X109250004Y-101880091D01*
X109412457Y-101861787D01*
X109412459Y-101861786D01*
X109412461Y-101861786D01*
X109542057Y-101816437D01*
X109611836Y-101812876D01*
X109672463Y-101847604D01*
X109678586Y-101854598D01*
X109679191Y-101855203D01*
X109679192Y-101855204D01*
X109794796Y-101970808D01*
X109933225Y-102057789D01*
X110087539Y-102111786D01*
X110087542Y-102111786D01*
X110087544Y-102111787D01*
X110249996Y-102130091D01*
X110250000Y-102130091D01*
X110250004Y-102130091D01*
X110412455Y-102111787D01*
X110412456Y-102111786D01*
X110412461Y-102111786D01*
X110566775Y-102057789D01*
X110705204Y-101970808D01*
X110820808Y-101855204D01*
X110907789Y-101716775D01*
X110919172Y-101684242D01*
X110959891Y-101627469D01*
X111024843Y-101601720D01*
X111077168Y-101608157D01*
X111087542Y-101611787D01*
X111249996Y-101630091D01*
X111250000Y-101630091D01*
X111250004Y-101630091D01*
X111412455Y-101611787D01*
X111412456Y-101611786D01*
X111412461Y-101611786D01*
X111566775Y-101557789D01*
X111684027Y-101484114D01*
X111751265Y-101465114D01*
X111815972Y-101484114D01*
X111933225Y-101557789D01*
X112087539Y-101611786D01*
X112087542Y-101611786D01*
X112087544Y-101611787D01*
X112249996Y-101630091D01*
X112250000Y-101630091D01*
X112250004Y-101630091D01*
X112412455Y-101611787D01*
X112412456Y-101611786D01*
X112412461Y-101611786D01*
X112566775Y-101557789D01*
X112684027Y-101484114D01*
X112751265Y-101465114D01*
X112815972Y-101484114D01*
X112933225Y-101557789D01*
X113087539Y-101611786D01*
X113087542Y-101611786D01*
X113087544Y-101611787D01*
X113249996Y-101630091D01*
X113250000Y-101630091D01*
X113250004Y-101630091D01*
X113412455Y-101611787D01*
X113412456Y-101611786D01*
X113412461Y-101611786D01*
X113566775Y-101557789D01*
X113684027Y-101484114D01*
X113751265Y-101465114D01*
X113815972Y-101484114D01*
X113933225Y-101557789D01*
X114087539Y-101611786D01*
X114087542Y-101611786D01*
X114087544Y-101611787D01*
X114249996Y-101630091D01*
X114250000Y-101630091D01*
X114250004Y-101630091D01*
X114412455Y-101611787D01*
X114412456Y-101611786D01*
X114412461Y-101611786D01*
X114566775Y-101557789D01*
X114684027Y-101484114D01*
X114751265Y-101465114D01*
X114815972Y-101484114D01*
X114933225Y-101557789D01*
X115087539Y-101611786D01*
X115087542Y-101611786D01*
X115087544Y-101611787D01*
X115249996Y-101630091D01*
X115250000Y-101630091D01*
X115250004Y-101630091D01*
X115412455Y-101611787D01*
X115412456Y-101611786D01*
X115412461Y-101611786D01*
X115566775Y-101557789D01*
X115684027Y-101484114D01*
X115751265Y-101465114D01*
X115815972Y-101484114D01*
X115933225Y-101557789D01*
X116087539Y-101611786D01*
X116087542Y-101611786D01*
X116087544Y-101611787D01*
X116249996Y-101630091D01*
X116250000Y-101630091D01*
X116250004Y-101630091D01*
X116412455Y-101611787D01*
X116412456Y-101611786D01*
X116412461Y-101611786D01*
X116566775Y-101557789D01*
X116705204Y-101470808D01*
X116820808Y-101355204D01*
X116907789Y-101216775D01*
X116961786Y-101062461D01*
X116961787Y-101062452D01*
X116980091Y-100900003D01*
X116980091Y-100899996D01*
X116961787Y-100737544D01*
X116961786Y-100737542D01*
X116961786Y-100737539D01*
X116907789Y-100583225D01*
X116820808Y-100444796D01*
X116705204Y-100329192D01*
X116658898Y-100300096D01*
X116566774Y-100242210D01*
X116412455Y-100188212D01*
X116250004Y-100169909D01*
X116249996Y-100169909D01*
X116087544Y-100188212D01*
X115933225Y-100242210D01*
X115815971Y-100315886D01*
X115748734Y-100334886D01*
X115684026Y-100315885D01*
X115566776Y-100242211D01*
X115412455Y-100188212D01*
X115250004Y-100169909D01*
X115249996Y-100169909D01*
X115087544Y-100188212D01*
X114933225Y-100242210D01*
X114815972Y-100315886D01*
X114748735Y-100334886D01*
X114684028Y-100315886D01*
X114566774Y-100242210D01*
X114412455Y-100188212D01*
X114250004Y-100169909D01*
X114249996Y-100169909D01*
X114087544Y-100188212D01*
X113933225Y-100242210D01*
X113815972Y-100315886D01*
X113748735Y-100334886D01*
X113684028Y-100315886D01*
X113566774Y-100242210D01*
X113412455Y-100188212D01*
X113250004Y-100169909D01*
X113249996Y-100169909D01*
X113087544Y-100188212D01*
X112933225Y-100242210D01*
X112815971Y-100315886D01*
X112748734Y-100334886D01*
X112684026Y-100315885D01*
X112566776Y-100242211D01*
X112412455Y-100188212D01*
X112250004Y-100169909D01*
X112249996Y-100169909D01*
X112087544Y-100188212D01*
X111933225Y-100242210D01*
X111815972Y-100315886D01*
X111748735Y-100334886D01*
X111684028Y-100315886D01*
X111566774Y-100242210D01*
X111412455Y-100188212D01*
X111250004Y-100169909D01*
X111249996Y-100169909D01*
X111087544Y-100188212D01*
X110933225Y-100242210D01*
X110794795Y-100329192D01*
X110679192Y-100444795D01*
X110592212Y-100583222D01*
X110580827Y-100615758D01*
X110540104Y-100672533D01*
X110475151Y-100698279D01*
X110422831Y-100691842D01*
X110412460Y-100688213D01*
X110250004Y-100669909D01*
X110249996Y-100669909D01*
X110087544Y-100688212D01*
X109957941Y-100733562D01*
X109888162Y-100737123D01*
X109827535Y-100702394D01*
X109821403Y-100695391D01*
X109705204Y-100579192D01*
X109566774Y-100492210D01*
X109412455Y-100438212D01*
X109250004Y-100419909D01*
X109249996Y-100419909D01*
X109087544Y-100438212D01*
X108933225Y-100492210D01*
X108815971Y-100565886D01*
X108748734Y-100584886D01*
X108684026Y-100565885D01*
X108566776Y-100492211D01*
X108412455Y-100438212D01*
X108250004Y-100419909D01*
X108249996Y-100419909D01*
X108087544Y-100438212D01*
X107933225Y-100492210D01*
X107794795Y-100579192D01*
X107674268Y-100699720D01*
X107673157Y-100698609D01*
X107622763Y-100733976D01*
X107552952Y-100736821D01*
X107542059Y-100733562D01*
X107412455Y-100688212D01*
X107250004Y-100669909D01*
X107249996Y-100669909D01*
X107100331Y-100686771D01*
X107031509Y-100674716D01*
X106980130Y-100627367D01*
X106962506Y-100559756D01*
X106963228Y-100549667D01*
X106980091Y-100400002D01*
X106980091Y-100399996D01*
X106961787Y-100237544D01*
X106961786Y-100237542D01*
X106961786Y-100237539D01*
X106907789Y-100083225D01*
X106820808Y-99944796D01*
X106705204Y-99829192D01*
X106705203Y-99829192D01*
X106566774Y-99742210D01*
X106412455Y-99688212D01*
X106250004Y-99669909D01*
X106249996Y-99669909D01*
X106087544Y-99688212D01*
X105933225Y-99742210D01*
X105860966Y-99787614D01*
X105793729Y-99806614D01*
X105726894Y-99786246D01*
X105707313Y-99770301D01*
X105705204Y-99768192D01*
X105566774Y-99681210D01*
X105412455Y-99627212D01*
X105250004Y-99608909D01*
X105249996Y-99608909D01*
X105087544Y-99627212D01*
X104933225Y-99681210D01*
X104794795Y-99768192D01*
X104679192Y-99883795D01*
X104592210Y-100022225D01*
X104538211Y-100176547D01*
X104536662Y-100183335D01*
X104534125Y-100182755D01*
X104511651Y-100236167D01*
X104454035Y-100275692D01*
X104384197Y-100277794D01*
X104349565Y-100262814D01*
X104316774Y-100242210D01*
X104162455Y-100188212D01*
X104000004Y-100169909D01*
X103999996Y-100169909D01*
X103837544Y-100188212D01*
X103683225Y-100242210D01*
X103544795Y-100329192D01*
X103429192Y-100444795D01*
X103342210Y-100583225D01*
X103288212Y-100737544D01*
X103269909Y-100899996D01*
X103269909Y-100900003D01*
X100700500Y-100900003D01*
X100700500Y-99117803D01*
X117296109Y-99117803D01*
X117314412Y-99280255D01*
X117368410Y-99434574D01*
X117455392Y-99573003D01*
X117455392Y-99573004D01*
X117570996Y-99688608D01*
X117697653Y-99768192D01*
X117709425Y-99775589D01*
X117778513Y-99799764D01*
X117835289Y-99840486D01*
X117861037Y-99905438D01*
X117847581Y-99974000D01*
X117842563Y-99982762D01*
X117842212Y-99983320D01*
X117788212Y-100137644D01*
X117769909Y-100300096D01*
X117769909Y-100300103D01*
X117788212Y-100462555D01*
X117842210Y-100616874D01*
X117915791Y-100733976D01*
X117929192Y-100755304D01*
X118044796Y-100870908D01*
X118183225Y-100957889D01*
X118337539Y-101011886D01*
X118337542Y-101011886D01*
X118337544Y-101011887D01*
X118499996Y-101030191D01*
X118500000Y-101030191D01*
X118500004Y-101030191D01*
X118662455Y-101011887D01*
X118662456Y-101011886D01*
X118662461Y-101011886D01*
X118816775Y-100957889D01*
X118845471Y-100939857D01*
X118912707Y-100920857D01*
X118979542Y-100941224D01*
X119024757Y-100994491D01*
X119034664Y-101030965D01*
X119038212Y-101062455D01*
X119092210Y-101216774D01*
X119179191Y-101355204D01*
X119179192Y-101355204D01*
X119294796Y-101470808D01*
X119433225Y-101557789D01*
X119587539Y-101611786D01*
X119587542Y-101611786D01*
X119587544Y-101611787D01*
X119749996Y-101630091D01*
X119750000Y-101630091D01*
X119750004Y-101630091D01*
X119912455Y-101611787D01*
X119912456Y-101611786D01*
X119912461Y-101611786D01*
X120066775Y-101557789D01*
X120184027Y-101484114D01*
X120251265Y-101465114D01*
X120315972Y-101484114D01*
X120433225Y-101557789D01*
X120587539Y-101611786D01*
X120587542Y-101611786D01*
X120587544Y-101611787D01*
X120749996Y-101630091D01*
X120750000Y-101630091D01*
X120750004Y-101630091D01*
X120912455Y-101611787D01*
X120912456Y-101611786D01*
X120912461Y-101611786D01*
X121066775Y-101557789D01*
X121184027Y-101484114D01*
X121251265Y-101465114D01*
X121315972Y-101484114D01*
X121433225Y-101557789D01*
X121587539Y-101611786D01*
X121587542Y-101611786D01*
X121587544Y-101611787D01*
X121749996Y-101630091D01*
X121750000Y-101630091D01*
X121750004Y-101630091D01*
X121912455Y-101611787D01*
X121912456Y-101611786D01*
X121912461Y-101611786D01*
X122066775Y-101557789D01*
X122205204Y-101470808D01*
X122320808Y-101355204D01*
X122407789Y-101216775D01*
X122461786Y-101062461D01*
X122461787Y-101062452D01*
X122480091Y-100900003D01*
X122480091Y-100899996D01*
X122461787Y-100737544D01*
X122461786Y-100737542D01*
X122461786Y-100737539D01*
X122407789Y-100583225D01*
X122320808Y-100444796D01*
X122205204Y-100329192D01*
X122158898Y-100300096D01*
X122066774Y-100242210D01*
X121912455Y-100188212D01*
X121750004Y-100169909D01*
X121749996Y-100169909D01*
X121587544Y-100188212D01*
X121433225Y-100242210D01*
X121315971Y-100315886D01*
X121248734Y-100334886D01*
X121184026Y-100315885D01*
X121066776Y-100242211D01*
X120912455Y-100188212D01*
X120750004Y-100169909D01*
X120749996Y-100169909D01*
X120587544Y-100188212D01*
X120433225Y-100242210D01*
X120315972Y-100315886D01*
X120248735Y-100334886D01*
X120184028Y-100315886D01*
X120066774Y-100242210D01*
X119912455Y-100188212D01*
X119750004Y-100169909D01*
X119749996Y-100169909D01*
X119587544Y-100188212D01*
X119433223Y-100242211D01*
X119404525Y-100260243D01*
X119337288Y-100279242D01*
X119270453Y-100258873D01*
X119225240Y-100205604D01*
X119215335Y-100169131D01*
X119211787Y-100137644D01*
X119211786Y-100137642D01*
X119211786Y-100137639D01*
X119157789Y-99983325D01*
X119070808Y-99844896D01*
X118955204Y-99729292D01*
X118816775Y-99642311D01*
X118747683Y-99618134D01*
X118690908Y-99577413D01*
X118665161Y-99512460D01*
X118678617Y-99443898D01*
X118683646Y-99435120D01*
X118683989Y-99434575D01*
X118737986Y-99280261D01*
X118756291Y-99117800D01*
X118737986Y-98955339D01*
X118683989Y-98801025D01*
X118597008Y-98662596D01*
X118481404Y-98546992D01*
X118342974Y-98460010D01*
X118188655Y-98406012D01*
X118026204Y-98387709D01*
X118026196Y-98387709D01*
X117863744Y-98406012D01*
X117709425Y-98460010D01*
X117570995Y-98546992D01*
X117455392Y-98662595D01*
X117368410Y-98801025D01*
X117314412Y-98955344D01*
X117296109Y-99117796D01*
X117296109Y-99117803D01*
X100700500Y-99117803D01*
X100700500Y-97072601D01*
X101395646Y-97072601D01*
X101405645Y-97282527D01*
X101455196Y-97486778D01*
X101455198Y-97486782D01*
X101542498Y-97677943D01*
X101542501Y-97677948D01*
X101542502Y-97677950D01*
X101542504Y-97677953D01*
X101605527Y-97766456D01*
X101664415Y-97849153D01*
X101664420Y-97849159D01*
X101816520Y-97994185D01*
X101911478Y-98055211D01*
X101993328Y-98107813D01*
X102188443Y-98185925D01*
X102291628Y-98205812D01*
X102394814Y-98225700D01*
X102394815Y-98225700D01*
X102552319Y-98225700D01*
X102552325Y-98225700D01*
X102709118Y-98210728D01*
X102910775Y-98151516D01*
X103097582Y-98055211D01*
X103262786Y-97925292D01*
X103400419Y-97766456D01*
X103407025Y-97755015D01*
X103505501Y-97584449D01*
X103505500Y-97584449D01*
X103505504Y-97584444D01*
X103574244Y-97385833D01*
X103604154Y-97177802D01*
X103595885Y-97004203D01*
X117050209Y-97004203D01*
X117068512Y-97166655D01*
X117122510Y-97320974D01*
X117122511Y-97320975D01*
X117209492Y-97459404D01*
X117325096Y-97575008D01*
X117463525Y-97661989D01*
X117617839Y-97715986D01*
X117617842Y-97715986D01*
X117617844Y-97715987D01*
X117780296Y-97734291D01*
X117780300Y-97734291D01*
X117780304Y-97734291D01*
X117942755Y-97715987D01*
X117942756Y-97715986D01*
X117942761Y-97715986D01*
X118097075Y-97661989D01*
X118235504Y-97575008D01*
X118351108Y-97459404D01*
X118438089Y-97320975D01*
X118492086Y-97166661D01*
X118492087Y-97166655D01*
X118496758Y-97125203D01*
X121694335Y-97125203D01*
X121714530Y-97304449D01*
X121714531Y-97304454D01*
X121774111Y-97474723D01*
X121837124Y-97575007D01*
X121870084Y-97627462D01*
X121997638Y-97755016D01*
X122015840Y-97766453D01*
X122147465Y-97849159D01*
X122150378Y-97850989D01*
X122320644Y-97910567D01*
X122320645Y-97910568D01*
X122320650Y-97910569D01*
X122411146Y-97920765D01*
X122454940Y-97925699D01*
X122454943Y-97925700D01*
X122454946Y-97925700D01*
X122544857Y-97925700D01*
X122544858Y-97925699D01*
X122612004Y-97918134D01*
X122679149Y-97910569D01*
X122679152Y-97910568D01*
X122679155Y-97910568D01*
X122849422Y-97850989D01*
X123002162Y-97755016D01*
X123129716Y-97627462D01*
X123225689Y-97474722D01*
X123285268Y-97304455D01*
X123285269Y-97304449D01*
X123305465Y-97125203D01*
X123305465Y-97125196D01*
X123285269Y-96945950D01*
X123285268Y-96945945D01*
X123256793Y-96864568D01*
X123225689Y-96775678D01*
X123129716Y-96622938D01*
X123002162Y-96495384D01*
X122983955Y-96483944D01*
X122849423Y-96399411D01*
X122679154Y-96339831D01*
X122679149Y-96339830D01*
X122544860Y-96324700D01*
X122544854Y-96324700D01*
X122454946Y-96324700D01*
X122454939Y-96324700D01*
X122320650Y-96339830D01*
X122320645Y-96339831D01*
X122150376Y-96399411D01*
X121997637Y-96495384D01*
X121870084Y-96622937D01*
X121774111Y-96775676D01*
X121714531Y-96945945D01*
X121714530Y-96945950D01*
X121694335Y-97125196D01*
X121694335Y-97125203D01*
X118496758Y-97125203D01*
X118510391Y-97004203D01*
X118510391Y-97004196D01*
X118492087Y-96841744D01*
X118492086Y-96841742D01*
X118492086Y-96841739D01*
X118438089Y-96687425D01*
X118351108Y-96548996D01*
X118235504Y-96433392D01*
X118097074Y-96346410D01*
X117942755Y-96292412D01*
X117780304Y-96274109D01*
X117780296Y-96274109D01*
X117617844Y-96292412D01*
X117463525Y-96346410D01*
X117325095Y-96433392D01*
X117209492Y-96548995D01*
X117122510Y-96687425D01*
X117068512Y-96841744D01*
X117050209Y-97004196D01*
X117050209Y-97004203D01*
X103595885Y-97004203D01*
X103594154Y-96967870D01*
X103544604Y-96763624D01*
X103509805Y-96687425D01*
X103457301Y-96572456D01*
X103457298Y-96572451D01*
X103457297Y-96572450D01*
X103457296Y-96572447D01*
X103335386Y-96401248D01*
X103335384Y-96401246D01*
X103335379Y-96401240D01*
X103183279Y-96256214D01*
X103006474Y-96142588D01*
X102811355Y-96064474D01*
X102604986Y-96024700D01*
X102604985Y-96024700D01*
X102447475Y-96024700D01*
X102290681Y-96039672D01*
X102290682Y-96039672D01*
X102290678Y-96039673D01*
X102089027Y-96098883D01*
X101902213Y-96195191D01*
X101737016Y-96325105D01*
X101737012Y-96325109D01*
X101599378Y-96483946D01*
X101494298Y-96665950D01*
X101425556Y-96864565D01*
X101425556Y-96864567D01*
X101410704Y-96967870D01*
X101395646Y-97072601D01*
X100700500Y-97072601D01*
X100700500Y-95034411D01*
X100720185Y-94967372D01*
X100736819Y-94946730D01*
X101546731Y-94136819D01*
X101608054Y-94103334D01*
X101634412Y-94100500D01*
X102143995Y-94100500D01*
X102235041Y-94082389D01*
X102279328Y-94073580D01*
X102406811Y-94020775D01*
X102521542Y-93944114D01*
X102619114Y-93846542D01*
X102695775Y-93731811D01*
X102748580Y-93604328D01*
X102762306Y-93535323D01*
X102775500Y-93468995D01*
X102775500Y-90224500D01*
X102795185Y-90157461D01*
X102847989Y-90111706D01*
X102899500Y-90100500D01*
X112477410Y-90100500D01*
X117700500Y-90100500D01*
X117767539Y-90120185D01*
G37*
%TD.AperFunction*%
%TD*%
M02*
