%TF.GenerationSoftware,KiCad,Pcbnew,7.0.5*%
%TF.CreationDate,2023-08-28T16:34:51-05:00*%
%TF.ProjectId,Chimera_0003_Hydra,4368696d-6572-4615-9f30-3030335f4879,rev?*%
%TF.SameCoordinates,Original*%
%TF.FileFunction,Copper,L1,Top*%
%TF.FilePolarity,Positive*%
%FSLAX46Y46*%
G04 Gerber Fmt 4.6, Leading zero omitted, Abs format (unit mm)*
G04 Created by KiCad (PCBNEW 7.0.5) date 2023-08-28 16:34:51*
%MOMM*%
%LPD*%
G01*
G04 APERTURE LIST*
G04 Aperture macros list*
%AMRoundRect*
0 Rectangle with rounded corners*
0 $1 Rounding radius*
0 $2 $3 $4 $5 $6 $7 $8 $9 X,Y pos of 4 corners*
0 Add a 4 corners polygon primitive as box body*
4,1,4,$2,$3,$4,$5,$6,$7,$8,$9,$2,$3,0*
0 Add four circle primitives for the rounded corners*
1,1,$1+$1,$2,$3*
1,1,$1+$1,$4,$5*
1,1,$1+$1,$6,$7*
1,1,$1+$1,$8,$9*
0 Add four rect primitives between the rounded corners*
20,1,$1+$1,$2,$3,$4,$5,0*
20,1,$1+$1,$4,$5,$6,$7,0*
20,1,$1+$1,$6,$7,$8,$9,0*
20,1,$1+$1,$8,$9,$2,$3,0*%
G04 Aperture macros list end*
%TA.AperFunction,SMDPad,CuDef*%
%ADD10R,1.270003X2.800000*%
%TD*%
%TA.AperFunction,SMDPad,CuDef*%
%ADD11R,0.350000X1.450000*%
%TD*%
%TA.AperFunction,SMDPad,CuDef*%
%ADD12R,1.300000X2.800000*%
%TD*%
%TA.AperFunction,SMDPad,CuDef*%
%ADD13R,0.300000X1.550013*%
%TD*%
%TA.AperFunction,SMDPad,CuDef*%
%ADD14R,0.300000X1.524003*%
%TD*%
%TA.AperFunction,SMDPad,CuDef*%
%ADD15RoundRect,0.200000X-0.275000X0.200000X-0.275000X-0.200000X0.275000X-0.200000X0.275000X0.200000X0*%
%TD*%
%TA.AperFunction,SMDPad,CuDef*%
%ADD16R,0.800000X0.800000*%
%TD*%
%TA.AperFunction,ComponentPad*%
%ADD17C,3.600000*%
%TD*%
%TA.AperFunction,ConnectorPad*%
%ADD18C,6.400000*%
%TD*%
%TA.AperFunction,ViaPad*%
%ADD19C,0.450000*%
%TD*%
%TA.AperFunction,Conductor*%
%ADD20C,0.127000*%
%TD*%
G04 APERTURE END LIST*
D10*
%TO.P,X3,6,6*%
%TO.N,Net-(CN1-1-Pad67)*%
X107480011Y-122999796D03*
%TO.P,X3,5,5*%
%TO.N,Net-(CN1-20-Pad29)*%
X107480011Y-128600000D03*
%TO.P,X3,4,4*%
%TO.N,Net-(CN1-1-Pad69)*%
X104940005Y-122999796D03*
%TO.P,X3,3,3*%
%TO.N,Net-(CN1-20-Pad27)*%
X104940005Y-128600000D03*
%TO.P,X3,2,2*%
%TO.N,Net-(CN1-1-Pad71)*%
X102400000Y-122999796D03*
%TO.P,X3,1,1*%
%TO.N,Net-(CN1-20-Pad25)*%
X102400000Y-128600000D03*
%TO.P,X3,7,7*%
%TO.N,Net-(CN1-20-Pad31)*%
X110020016Y-128600000D03*
%TO.P,X3,8,8*%
%TO.N,Net-(CN1-1-Pad66)*%
X110020016Y-123005892D03*
%TD*%
%TO.P,X2,6,6*%
%TO.N,20*%
X120170003Y-137899898D03*
%TO.P,X2,5,5*%
%TO.N,Net-(CN1-20-Pad21)*%
X120170003Y-143500102D03*
%TO.P,X2,4,4*%
%TO.N,10*%
X117629997Y-137899898D03*
%TO.P,X2,3,3*%
%TO.N,Net-(CN1-1-Pad11)*%
X117629997Y-143500102D03*
%TO.P,X2,2,2*%
%TO.N,8*%
X115089992Y-137899898D03*
%TO.P,X2,1,1*%
%TO.N,Net-(CN1-1-Pad9)*%
X115089992Y-143500102D03*
%TO.P,X2,7,7*%
%TO.N,Net-(CN1-20-Pad23)*%
X122710008Y-143500102D03*
%TO.P,X2,8,8*%
%TO.N,Net-(CN1-1-Pad73)*%
X122710008Y-137905994D03*
%TD*%
D11*
%TO.P,U2,1,1*%
%TO.N,GND*%
X103250000Y-91175000D03*
%TO.P,U2,3,1*%
%TO.N,Net-(CN1-1-Pad74)*%
X103750000Y-91175000D03*
%TO.P,U2,5,1*%
%TO.N,Net-(CN1-1-Pad71)*%
X104250000Y-91175000D03*
%TO.P,U2,7,1*%
%TO.N,Net-(CN1-1-Pad69)*%
X104750000Y-91175000D03*
%TO.P,U2,9,1*%
%TO.N,Net-(CN1-1-Pad67)*%
X105250000Y-91175000D03*
%TO.P,U2,11,1*%
%TO.N,Net-(CN1-1-Pad66)*%
X105750000Y-91175000D03*
%TO.P,U2,13,13*%
%TO.N,Net-(CN1-20-Pad63)*%
X106250000Y-91175000D03*
%TO.P,U2,15,15*%
%TO.N,Net-(CN1-20-Pad61)*%
X106750000Y-91175000D03*
%TO.P,U2,17,17*%
%TO.N,Net-(CN1-20-Pad59)*%
X107250000Y-91175000D03*
%TO.P,U2,19,19*%
%TO.N,Net-(CN1-20-Pad57)*%
X107750000Y-91175000D03*
%TO.P,U2,21,20*%
%TO.N,Net-(CN1-20-Pad55)*%
X108250000Y-91175000D03*
%TO.P,U2,23,20*%
%TO.N,Net-(CN1-20-Pad53)*%
X108750000Y-91175000D03*
%TO.P,U2,25,20*%
%TO.N,Net-(CN1-20-Pad51)*%
X109250000Y-91175000D03*
%TO.P,U2,27,20*%
%TO.N,Net-(CN1-20-Pad49)*%
X109750000Y-91175000D03*
%TO.P,U2,29,20*%
%TO.N,Net-(CN1-20-Pad47)*%
X110250000Y-91175000D03*
%TO.P,U2,31,20*%
%TO.N,Net-(CN1-20-Pad45)*%
X110750000Y-91175000D03*
%TO.P,U2,33,20*%
%TO.N,Net-(CN1-20-Pad43)*%
X111250000Y-91175000D03*
%TO.P,U2,35,20*%
%TO.N,Net-(CN1-20-Pad41)*%
X111750000Y-91175000D03*
%TO.P,U2,37,20*%
%TO.N,Net-(CN1-20-Pad39)*%
X112250000Y-91175000D03*
%TO.P,U2,39,20*%
%TO.N,Net-(CN1-20-Pad37)*%
X112750000Y-91175000D03*
%TO.P,U2,41,20*%
%TO.N,Net-(CN1-20-Pad35)*%
X113250000Y-91175000D03*
%TO.P,U2,43,20*%
%TO.N,Net-(CN1-20-Pad33)*%
X113750000Y-91175000D03*
%TO.P,U2,45,20*%
%TO.N,Net-(CN1-20-Pad31)*%
X114250000Y-91175000D03*
%TO.P,U2,47,20*%
%TO.N,Net-(CN1-20-Pad29)*%
X114750000Y-91175000D03*
%TO.P,U2,49,20*%
%TO.N,Net-(CN1-20-Pad27)*%
X115250000Y-91175000D03*
%TO.P,U2,51,20*%
%TO.N,Net-(CN1-20-Pad25)*%
X115750000Y-91175000D03*
%TO.P,U2,53,20*%
%TO.N,Net-(CN1-20-Pad23)*%
X116250000Y-91175000D03*
%TO.P,U2,55,20*%
%TO.N,Net-(CN1-20-Pad21)*%
X116750000Y-91175000D03*
%TO.P,U2,57,20*%
%TO.N,20*%
X117250000Y-91175000D03*
%TO.P,U2,67,1*%
%TO.N,10*%
X119750000Y-91175000D03*
%TO.P,U2,69,1*%
%TO.N,8*%
X120250000Y-91175000D03*
%TO.P,U2,71,1*%
%TO.N,6*%
X120750000Y-91175000D03*
%TO.P,U2,73,1*%
%TO.N,4*%
X121250000Y-91175000D03*
%TO.P,U2,75,1*%
%TO.N,GND*%
X121750000Y-91175000D03*
%TD*%
D12*
%TO.P,CN1,77*%
%TO.N,N/C*%
X122849913Y-101675111D03*
%TO.P,CN1,76*%
X102149887Y-101675111D03*
D13*
%TO.P,CN1,1,1*%
%TO.N,+3V3*%
X121749836Y-102400029D03*
%TO.P,CN1,2,1*%
%TO.N,GND*%
X121499900Y-94850117D03*
%TO.P,CN1,3,1*%
%TO.N,+5V*%
X121249964Y-102400029D03*
%TO.P,CN1,4,1*%
%TO.N,4*%
X120999773Y-94850117D03*
%TO.P,CN1,5,1*%
%TO.N,Net-(CN1-1-Pad5)*%
X120749836Y-102400029D03*
%TO.P,CN1,6,1*%
%TO.N,6*%
X120499900Y-94850117D03*
%TO.P,CN1,7,1*%
%TO.N,Net-(CN1-1-Pad7)*%
X120249964Y-102400029D03*
%TO.P,CN1,8,1*%
%TO.N,8*%
X119999773Y-94850117D03*
%TO.P,CN1,9,1*%
%TO.N,Net-(CN1-1-Pad9)*%
X119749836Y-102400029D03*
%TO.P,CN1,10,1*%
%TO.N,10*%
X119499900Y-94850117D03*
%TO.P,CN1,11,1*%
%TO.N,Net-(CN1-1-Pad11)*%
X119249964Y-102400029D03*
%TO.P,CN1,20,20*%
%TO.N,20*%
X116999773Y-94850117D03*
%TO.P,CN1,21,20*%
%TO.N,Net-(CN1-20-Pad21)*%
X116749836Y-102400029D03*
%TO.P,CN1,22,20*%
X116499900Y-94850117D03*
%TO.P,CN1,23,20*%
%TO.N,Net-(CN1-20-Pad23)*%
X116249964Y-102400029D03*
%TO.P,CN1,24,20*%
X115999773Y-94850117D03*
%TO.P,CN1,25,20*%
%TO.N,Net-(CN1-20-Pad25)*%
X115749836Y-102400029D03*
%TO.P,CN1,26,20*%
X115499900Y-94850117D03*
%TO.P,CN1,27,20*%
%TO.N,Net-(CN1-20-Pad27)*%
X115249964Y-102400029D03*
%TO.P,CN1,28,20*%
X114999773Y-94850117D03*
%TO.P,CN1,29,20*%
%TO.N,Net-(CN1-20-Pad29)*%
X114749836Y-102400029D03*
%TO.P,CN1,30,20*%
X114499900Y-94850117D03*
%TO.P,CN1,31,20*%
%TO.N,Net-(CN1-20-Pad31)*%
X114249964Y-102400029D03*
%TO.P,CN1,32,20*%
X113999773Y-94850117D03*
%TO.P,CN1,33,20*%
%TO.N,Net-(CN1-20-Pad33)*%
X113749836Y-102400029D03*
%TO.P,CN1,34,20*%
X113499900Y-94850117D03*
%TO.P,CN1,35,20*%
%TO.N,Net-(CN1-20-Pad35)*%
X113249964Y-102400029D03*
%TO.P,CN1,36,20*%
X112999773Y-94850117D03*
%TO.P,CN1,37,20*%
%TO.N,Net-(CN1-20-Pad37)*%
X112749836Y-102400029D03*
%TO.P,CN1,38,20*%
X112499900Y-94850117D03*
%TO.P,CN1,39,20*%
%TO.N,Net-(CN1-20-Pad39)*%
X112249964Y-102400029D03*
%TO.P,CN1,40,20*%
X111999773Y-94850117D03*
%TO.P,CN1,41,20*%
%TO.N,Net-(CN1-20-Pad41)*%
X111749836Y-102400029D03*
%TO.P,CN1,42,20*%
X111499900Y-94850371D03*
%TO.P,CN1,43,20*%
%TO.N,Net-(CN1-20-Pad43)*%
X111249964Y-102400029D03*
%TO.P,CN1,44,20*%
X110999773Y-94850371D03*
%TO.P,CN1,45,20*%
%TO.N,Net-(CN1-20-Pad45)*%
X110749836Y-102400029D03*
%TO.P,CN1,46,20*%
X110499900Y-94850371D03*
%TO.P,CN1,47,20*%
%TO.N,Net-(CN1-20-Pad47)*%
X110249964Y-102400029D03*
%TO.P,CN1,48,20*%
X109999773Y-94850371D03*
%TO.P,CN1,49,20*%
%TO.N,Net-(CN1-20-Pad49)*%
X109749836Y-102400029D03*
%TO.P,CN1,50,20*%
X109499900Y-94850371D03*
%TO.P,CN1,51,20*%
%TO.N,Net-(CN1-20-Pad51)*%
X109249964Y-102400029D03*
%TO.P,CN1,52,20*%
X108999773Y-94850371D03*
%TO.P,CN1,53,20*%
%TO.N,Net-(CN1-20-Pad53)*%
X108749836Y-102400029D03*
%TO.P,CN1,54,20*%
X108499900Y-94850371D03*
%TO.P,CN1,55,20*%
%TO.N,Net-(CN1-20-Pad55)*%
X108249964Y-102400029D03*
%TO.P,CN1,56,20*%
X107999773Y-94850371D03*
%TO.P,CN1,57,20*%
%TO.N,Net-(CN1-20-Pad57)*%
X107749836Y-102400029D03*
%TO.P,CN1,58,20*%
X107499900Y-94850371D03*
%TO.P,CN1,67,1*%
%TO.N,Net-(CN1-1-Pad67)*%
X105249964Y-102400029D03*
%TO.P,CN1,68,1*%
X104999773Y-94850371D03*
%TO.P,CN1,69,1*%
%TO.N,Net-(CN1-1-Pad69)*%
X104749836Y-102400029D03*
%TO.P,CN1,70,1*%
X104499900Y-94850371D03*
%TO.P,CN1,71,1*%
%TO.N,Net-(CN1-1-Pad71)*%
X104249964Y-102400029D03*
%TO.P,CN1,72,1*%
X103999773Y-94850371D03*
%TO.P,CN1,73,1*%
%TO.N,Net-(CN1-1-Pad73)*%
X103749836Y-102400029D03*
%TO.P,CN1,74,1*%
%TO.N,Net-(CN1-1-Pad74)*%
X103499900Y-94850371D03*
%TO.P,CN1,75,1*%
%TO.N,GND*%
X103249964Y-102400029D03*
D14*
%TO.P,CN1,65,20*%
%TO.N,Net-(CN1-1-Pad66)*%
X105749836Y-102400283D03*
%TO.P,CN1,63,20*%
%TO.N,Net-(CN1-20-Pad63)*%
X106249964Y-102400283D03*
%TO.P,CN1,61,20*%
%TO.N,Net-(CN1-20-Pad61)*%
X106749836Y-102400283D03*
%TO.P,CN1,59,20*%
%TO.N,Net-(CN1-20-Pad59)*%
X107249964Y-102400283D03*
%TO.P,CN1,66,1*%
%TO.N,Net-(CN1-1-Pad66)*%
X105499900Y-94850371D03*
%TO.P,CN1,64,20*%
%TO.N,Net-(CN1-20-Pad63)*%
X105999773Y-94850371D03*
%TO.P,CN1,62,20*%
%TO.N,Net-(CN1-20-Pad61)*%
X106499900Y-94850371D03*
%TO.P,CN1,60,20*%
%TO.N,Net-(CN1-20-Pad59)*%
X106999773Y-94850371D03*
%TD*%
D15*
%TO.P,R1,1*%
%TO.N,+3V3*%
X117772500Y-111175000D03*
%TO.P,R1,2*%
%TO.N,Net-(LED2-+)*%
X117772500Y-112825000D03*
%TD*%
%TO.P,R2,1*%
%TO.N,+5V*%
X118022500Y-106675000D03*
%TO.P,R2,2*%
%TO.N,Net-(LED1-+)*%
X118022500Y-108325000D03*
%TD*%
D10*
%TO.P,X4,6,6*%
%TO.N,Net-(CN1-20-Pad59)*%
X120180011Y-122999796D03*
%TO.P,X4,5,5*%
%TO.N,Net-(CN1-20-Pad37)*%
X120180011Y-128600000D03*
%TO.P,X4,4,4*%
%TO.N,Net-(CN1-20-Pad61)*%
X117640005Y-122999796D03*
%TO.P,X4,3,3*%
%TO.N,Net-(CN1-20-Pad35)*%
X117640005Y-128600000D03*
%TO.P,X4,2,2*%
%TO.N,Net-(CN1-20-Pad63)*%
X115100000Y-122999796D03*
%TO.P,X4,1,1*%
%TO.N,Net-(CN1-20-Pad33)*%
X115100000Y-128600000D03*
%TO.P,X4,7,7*%
%TO.N,Net-(CN1-20-Pad39)*%
X122720016Y-128600000D03*
%TO.P,X4,8,8*%
%TO.N,Net-(CN1-20-Pad57)*%
X122720016Y-123005892D03*
%TD*%
%TO.P,X5,6,6*%
%TO.N,Net-(CN1-20-Pad51)*%
X107480011Y-108299796D03*
%TO.P,X5,5,5*%
%TO.N,Net-(CN1-20-Pad45)*%
X107480011Y-113900000D03*
%TO.P,X5,4,4*%
%TO.N,Net-(CN1-20-Pad53)*%
X104940005Y-108299796D03*
%TO.P,X5,3,3*%
%TO.N,Net-(CN1-20-Pad43)*%
X104940005Y-113900000D03*
%TO.P,X5,2,2*%
%TO.N,Net-(CN1-20-Pad55)*%
X102400000Y-108299796D03*
%TO.P,X5,1,1*%
%TO.N,Net-(CN1-20-Pad41)*%
X102400000Y-113900000D03*
%TO.P,X5,7,7*%
%TO.N,Net-(CN1-20-Pad47)*%
X110020016Y-113900000D03*
%TO.P,X5,8,8*%
%TO.N,Net-(CN1-20-Pad49)*%
X110020016Y-108305892D03*
%TD*%
D16*
%TO.P,LED1,2,+*%
%TO.N,Net-(LED1-+)*%
X120872533Y-108325029D03*
%TO.P,LED1,1,-*%
%TO.N,GND*%
X122471467Y-108318171D03*
%TD*%
D17*
%TO.P,H2,1*%
%TO.N,N/C*%
X112500000Y-149900000D03*
D18*
X112500000Y-149900000D03*
%TD*%
D10*
%TO.P,X1,6,6*%
%TO.N,4*%
X107460003Y-137899798D03*
%TO.P,X1,5,5*%
%TO.N,Net-(CN1-1-Pad5)*%
X107460003Y-143500002D03*
%TO.P,X1,4,4*%
%TO.N,GND*%
X104919997Y-137899798D03*
%TO.P,X1,3,3*%
%TO.N,+5V*%
X104919997Y-143500002D03*
%TO.P,X1,2,2*%
%TO.N,GND*%
X102379992Y-137899798D03*
%TO.P,X1,1,1*%
%TO.N,+3V3*%
X102379992Y-143500002D03*
%TO.P,X1,7,7*%
%TO.N,Net-(CN1-1-Pad7)*%
X110000008Y-143500002D03*
%TO.P,X1,8,8*%
%TO.N,6*%
X110000008Y-137905894D03*
%TD*%
D16*
%TO.P,LED2,2,+*%
%TO.N,Net-(LED2-+)*%
X120872533Y-112575029D03*
%TO.P,LED2,1,-*%
%TO.N,GND*%
X122471467Y-112568171D03*
%TD*%
D19*
%TO.N,Net-(CN1-1-Pad11)*%
X119250000Y-103650000D03*
X114700000Y-113400000D03*
%TO.N,Net-(CN1-20-Pad21)*%
X116750000Y-103650000D03*
%TO.N,Net-(CN1-20-Pad23)*%
X116400000Y-116600000D03*
X116250000Y-100900000D03*
X123588400Y-120749500D03*
%TO.N,Net-(CN1-20-Pad25)*%
X102270100Y-124978900D03*
X115750000Y-103650000D03*
%TO.N,Net-(CN1-20-Pad27)*%
X104906000Y-125100000D03*
X115400000Y-115600000D03*
X115250000Y-100900000D03*
%TO.N,Net-(CN1-1-Pad66)*%
X105750000Y-103900000D03*
%TO.N,Net-(CN1-20-Pad33)*%
X113750000Y-103650000D03*
%TO.N,Net-(CN1-20-Pad35)*%
X117600000Y-130400000D03*
X113250000Y-100900000D03*
X113430900Y-126585300D03*
%TO.N,Net-(CN1-20-Pad37)*%
X119298800Y-126707700D03*
X112750000Y-103650000D03*
X112745900Y-122410100D03*
%TO.N,Net-(CN1-1-Pad5)*%
X108347000Y-121100000D03*
X120750000Y-100900000D03*
%TO.N,Net-(CN1-20-Pad39)*%
X122710000Y-126274200D03*
X112250000Y-100900000D03*
X112388500Y-120368500D03*
%TO.N,Net-(CN1-1-Pad69)*%
X104750000Y-103900000D03*
%TO.N,Net-(CN1-1-Pad71)*%
X104000000Y-100900000D03*
%TO.N,Net-(CN1-1-Pad73)*%
X122710000Y-135958400D03*
X103750000Y-103900000D03*
%TO.N,Net-(CN1-20-Pad41)*%
X111750000Y-103650000D03*
X102280000Y-112115300D03*
%TO.N,+3V3*%
X121750000Y-100900000D03*
X118700000Y-111300000D03*
X103700000Y-124400000D03*
%TO.N,Net-(CN1-20-Pad43)*%
X111250000Y-100900000D03*
X104820000Y-110300000D03*
%TO.N,Net-(CN1-20-Pad45)*%
X110750000Y-103650000D03*
X108080200Y-106420600D03*
%TO.N,Net-(CN1-20-Pad47)*%
X110250000Y-101400000D03*
%TO.N,Net-(CN1-20-Pad49)*%
X109750000Y-103650000D03*
%TO.N,Net-(CN1-20-Pad51)*%
X109250000Y-101150000D03*
X107200000Y-106400000D03*
%TO.N,Net-(CN1-20-Pad53)*%
X108750000Y-103900000D03*
X104820000Y-106605500D03*
%TO.N,Net-(CN1-20-Pad55)*%
X102280000Y-106598700D03*
X108250000Y-101150000D03*
%TO.N,Net-(CN1-20-Pad57)*%
X107750000Y-103900000D03*
X111000000Y-120000000D03*
X122710000Y-121009100D03*
%TO.N,Net-(CN1-20-Pad59)*%
X116684900Y-111100000D03*
X109300000Y-111300000D03*
X107250000Y-101400000D03*
%TO.N,Net-(CN1-20-Pad61)*%
X108400000Y-111100000D03*
X115990000Y-111900000D03*
X106750000Y-103900000D03*
%TO.N,Net-(CN1-1-Pad67)*%
X105250000Y-100339000D03*
%TO.N,Net-(CN1-1-Pad7)*%
X120250000Y-103650000D03*
X112031100Y-117247000D03*
%TO.N,Net-(CN1-20-Pad63)*%
X113200000Y-115800000D03*
X106250000Y-100400000D03*
X107002300Y-110313700D03*
%TO.N,Net-(CN1-1-Pad9)*%
X119802500Y-104500000D03*
X112800000Y-114900000D03*
X119750000Y-100900000D03*
%TO.N,GND*%
X104900000Y-135800000D03*
X122500000Y-111600000D03*
X102800000Y-103900000D03*
X122100000Y-94800000D03*
X123622000Y-108325000D03*
%TO.N,+5V*%
X118022000Y-105825000D03*
X111700000Y-113900000D03*
X106100000Y-131800000D03*
X121250000Y-103650000D03*
X110100000Y-110400000D03*
%TO.N,Net-(CN1-20-Pad29)*%
X114750000Y-103650000D03*
X105199500Y-111206400D03*
%TO.N,Net-(CN1-20-Pad31)*%
X109160550Y-121060550D03*
X114944800Y-118700000D03*
X114250000Y-100900000D03*
%TO.N,4*%
X107460000Y-130500000D03*
X120500000Y-107300000D03*
%TO.N,6*%
X111582100Y-106869100D03*
X118500000Y-100300100D03*
%TO.N,8*%
X117026400Y-119546100D03*
X115700000Y-130500000D03*
%TO.N,20*%
X117780300Y-97004200D03*
X118026200Y-99117800D03*
%TD*%
D20*
%TO.N,Net-(CN1-20-Pad63)*%
X115090000Y-121107500D02*
X115090000Y-122699900D01*
X114111700Y-120129200D02*
X115090000Y-121107500D01*
X113200000Y-115800000D02*
X114111700Y-116711700D01*
X114111700Y-116711700D02*
X114111700Y-120129200D01*
%TO.N,Net-(CN1-1-Pad9)*%
X119750000Y-104447500D02*
X119750000Y-102320900D01*
X119802500Y-104500000D02*
X119750000Y-104447500D01*
%TO.N,Net-(CN1-20-Pad59)*%
X107250000Y-104250000D02*
X107250000Y-101400000D01*
X108940515Y-110940515D02*
X108940515Y-105940515D01*
X109300000Y-111300000D02*
X108940515Y-110940515D01*
X108940515Y-105940515D02*
X107250000Y-104250000D01*
%TO.N,Net-(CN1-20-Pad57)*%
X109194515Y-105344515D02*
X107750000Y-103900000D01*
X109194515Y-110203680D02*
X109194515Y-105344515D01*
X109072600Y-112527400D02*
X109900000Y-111700000D01*
X109900000Y-111700000D02*
X109900000Y-110909165D01*
X109900000Y-110909165D02*
X109194515Y-110203680D01*
X109072600Y-118072600D02*
X109072600Y-112527400D01*
X111000000Y-120000000D02*
X109072600Y-118072600D01*
%TO.N,Net-(CN1-20-Pad51)*%
X107360000Y-108299800D02*
X107360000Y-106560000D01*
X107360000Y-106560000D02*
X107200000Y-106400000D01*
%TO.N,Net-(CN1-20-Pad61)*%
X108686515Y-110813485D02*
X108400000Y-111100000D01*
X108686515Y-106286515D02*
X108686515Y-110813485D01*
X106750000Y-104350000D02*
X108686515Y-106286515D01*
X106750000Y-103900000D02*
X106750000Y-104350000D01*
%TO.N,Net-(CN1-20-Pad59)*%
X120170000Y-117304700D02*
X120170000Y-122699900D01*
X116554200Y-111230700D02*
X116554200Y-113688900D01*
X116684900Y-111100000D02*
X116554200Y-111230700D01*
X116554200Y-113688900D02*
X120170000Y-117304700D01*
%TO.N,8*%
X117000000Y-119519700D02*
X117026400Y-119546100D01*
X117000000Y-118000000D02*
X117000000Y-119519700D01*
X117325500Y-117674500D02*
X117000000Y-118000000D01*
X117325500Y-115184000D02*
X117325500Y-117674500D01*
X116040900Y-113899400D02*
X117325500Y-115184000D01*
X116040900Y-112709400D02*
X116040900Y-113899400D01*
X115529605Y-112198105D02*
X116040900Y-112709400D01*
X115529605Y-111529605D02*
X115529605Y-112198105D01*
X117772200Y-104845600D02*
X116554200Y-106063600D01*
X117562700Y-98734000D02*
X117562700Y-104636100D01*
X116554200Y-106063600D02*
X116554200Y-110505010D01*
X119999800Y-96296900D02*
X117562700Y-98734000D01*
X117562700Y-104636100D02*
X117772200Y-104845600D01*
X119999800Y-93563800D02*
X119999800Y-96296900D01*
X120000000Y-93563600D02*
X119999800Y-93563800D01*
X116554200Y-110505010D02*
X115529605Y-111529605D01*
%TO.N,Net-(CN1-1-Pad11)*%
X114700000Y-113400000D02*
X114700000Y-114006100D01*
X115900000Y-115206100D02*
X115900000Y-120642300D01*
X116247700Y-120990000D02*
X116247700Y-140525400D01*
X116247700Y-140525400D02*
X117630000Y-141907700D01*
X115900000Y-120642300D02*
X116247700Y-120990000D01*
X114700000Y-114006100D02*
X115900000Y-115206100D01*
X117630000Y-141907700D02*
X117630000Y-143500100D01*
X119250000Y-103650000D02*
X119250000Y-102400000D01*
%TO.N,Net-(CN1-20-Pad21)*%
X115000000Y-111200000D02*
X115000000Y-112392300D01*
X116749800Y-102229200D02*
X116749800Y-102400000D01*
X116817500Y-117382500D02*
X116200000Y-118000000D01*
X116750000Y-102229000D02*
X116749800Y-102229200D01*
X116750000Y-102229000D02*
X116750000Y-103650000D01*
X116750000Y-103650000D02*
X116750000Y-104150000D01*
X116500000Y-94650000D02*
X116500000Y-95899900D01*
X116750000Y-93150000D02*
X116500000Y-93400100D01*
X116750000Y-91175000D02*
X116750000Y-93150000D01*
X119321700Y-141907700D02*
X120170000Y-141907700D01*
X115529100Y-112921400D02*
X115529100Y-114111400D01*
X116500000Y-95899900D02*
X116750000Y-96150000D01*
X115800000Y-110400000D02*
X115000000Y-111200000D01*
X117000000Y-139900000D02*
X117314000Y-139900000D01*
X116200000Y-118000000D02*
X116200000Y-120474500D01*
X116042400Y-104857600D02*
X116042400Y-109557600D01*
X120170000Y-141907700D02*
X120170000Y-143500100D01*
X116500000Y-93400100D02*
X116500000Y-94650000D01*
X116200000Y-120474500D02*
X116503600Y-120778100D01*
X115800000Y-109800000D02*
X115800000Y-110400000D01*
X116750000Y-96150000D02*
X116750000Y-102229000D01*
X116503600Y-139403600D02*
X117000000Y-139900000D01*
X116503600Y-120778100D02*
X116503600Y-139403600D01*
X116500000Y-94650000D02*
X116499900Y-94650100D01*
X116499900Y-94650100D02*
X116499900Y-94850100D01*
X116817500Y-115399800D02*
X116817500Y-117382500D01*
X116042400Y-109557600D02*
X115800000Y-109800000D01*
X117314000Y-139900000D02*
X119321700Y-141907700D01*
X115529100Y-114111400D02*
X116817500Y-115399800D01*
X115000000Y-112392300D02*
X115529100Y-112921400D01*
X116750000Y-104150000D02*
X116042400Y-104857600D01*
%TO.N,Net-(CN1-20-Pad23)*%
X115273200Y-114217400D02*
X115273200Y-113027400D01*
X116250000Y-92900000D02*
X116000000Y-93150200D01*
X116400000Y-116600000D02*
X116400000Y-115344200D01*
X116250000Y-104150000D02*
X116250000Y-100900000D01*
X116250000Y-96150000D02*
X116250000Y-100900000D01*
X116000000Y-94525000D02*
X115999800Y-94525200D01*
X115600000Y-104800000D02*
X116250000Y-104150000D01*
X115600000Y-109400000D02*
X115600000Y-104800000D01*
X116000000Y-94525000D02*
X116000000Y-95899800D01*
X115546000Y-109454000D02*
X115600000Y-109400000D01*
X114746000Y-112500200D02*
X114746000Y-110954000D01*
X122710000Y-141907700D02*
X123588400Y-141029300D01*
X115546000Y-110154000D02*
X115546000Y-109454000D01*
X114746000Y-110954000D02*
X115546000Y-110154000D01*
X123588400Y-141029300D02*
X123588400Y-120749500D01*
X116400000Y-115344200D02*
X115273200Y-114217400D01*
X116000000Y-93150200D02*
X116000000Y-94525000D01*
X115273200Y-113027400D02*
X114746000Y-112500200D01*
X115999800Y-94525200D02*
X115999800Y-94850100D01*
X116250000Y-91175000D02*
X116250000Y-92900000D01*
X122710000Y-143500100D02*
X122710000Y-141907700D01*
X116000000Y-95899800D02*
X116250000Y-96150000D01*
%TO.N,Net-(CN1-20-Pad25)*%
X102190000Y-125059000D02*
X102270100Y-124978900D01*
X115750000Y-102229000D02*
X115749800Y-102229200D01*
X102190000Y-128600100D02*
X102190000Y-125059000D01*
X115499900Y-94512600D02*
X115499900Y-94850100D01*
X115500000Y-94512500D02*
X115500000Y-95874900D01*
X115500000Y-94512500D02*
X115499900Y-94512600D01*
X115750000Y-102229000D02*
X115750000Y-103650000D01*
X115750000Y-92900000D02*
X115500000Y-93150100D01*
X115500000Y-95874900D02*
X115750000Y-96124900D01*
X115500000Y-93150100D02*
X115500000Y-94512500D01*
X115750000Y-96124900D02*
X115750000Y-102229000D01*
X115749800Y-102229200D02*
X115749800Y-102400000D01*
X115750000Y-91175000D02*
X115750000Y-92900000D01*
%TO.N,Net-(CN1-20-Pad27)*%
X114999800Y-94525200D02*
X114999800Y-94850100D01*
X115400000Y-115233700D02*
X114258000Y-114091700D01*
X115250000Y-96150000D02*
X115000000Y-95899800D01*
X115000000Y-95899800D02*
X115000000Y-94525000D01*
X115000000Y-94525000D02*
X115000000Y-93150200D01*
X104906000Y-126831700D02*
X104730000Y-127007700D01*
X104730000Y-127007700D02*
X104730000Y-128600100D01*
X114258000Y-114091700D02*
X114258000Y-110739700D01*
X115400000Y-115600000D02*
X115400000Y-115233700D01*
X104906000Y-125100000D02*
X104906000Y-126831700D01*
X115000000Y-93150200D02*
X115250000Y-92900000D01*
X114258000Y-110739700D02*
X115250000Y-109747700D01*
X115250000Y-109747700D02*
X115250000Y-100900000D01*
X115000000Y-94525000D02*
X114999800Y-94525200D01*
X115250000Y-100900000D02*
X115250000Y-96150000D01*
X115250000Y-92900000D02*
X115250000Y-91175000D01*
%TO.N,Net-(CN1-1-Pad66)*%
X106186700Y-110088535D02*
X106600000Y-110501835D01*
X106600000Y-117800000D02*
X109810000Y-121010000D01*
X105750000Y-92027000D02*
X105500000Y-92277100D01*
X105749800Y-102104200D02*
X105749800Y-102400300D01*
X106186700Y-105548400D02*
X106186700Y-110088535D01*
X105750000Y-102104000D02*
X105749800Y-102104200D01*
X106600000Y-110501835D02*
X106600000Y-117800000D01*
X105499900Y-95588400D02*
X105499900Y-94850400D01*
X105500000Y-95588500D02*
X105500000Y-98900000D01*
X105500000Y-98900000D02*
X105750000Y-99149900D01*
X105750000Y-99149900D02*
X105750000Y-102104000D01*
X105750000Y-105111700D02*
X106186700Y-105548400D01*
X105750000Y-91175000D02*
X105750000Y-92027000D01*
X105500000Y-92277100D02*
X105500000Y-95588500D01*
X105750000Y-103900000D02*
X105750000Y-105111700D01*
X105500000Y-95588500D02*
X105499900Y-95588400D01*
X109810000Y-121010000D02*
X109810000Y-123006000D01*
X105750000Y-102104000D02*
X105750000Y-103900000D01*
%TO.N,Net-(CN1-20-Pad33)*%
X115090000Y-126707700D02*
X115993700Y-125804000D01*
X113750000Y-91175000D02*
X113750000Y-92027000D01*
X113750000Y-96100100D02*
X113750000Y-102229000D01*
X113749800Y-102229200D02*
X113749800Y-102400000D01*
X115090000Y-128300100D02*
X115090000Y-126707700D01*
X115993700Y-121117300D02*
X114471100Y-119594700D01*
X113499900Y-94063600D02*
X113499900Y-94850100D01*
X113750000Y-92027000D02*
X113500000Y-92277100D01*
X113500000Y-94063500D02*
X113500000Y-95850000D01*
X113500000Y-94063500D02*
X113499900Y-94063600D01*
X114471100Y-115028700D02*
X113750000Y-114307600D01*
X113750000Y-102229000D02*
X113749800Y-102229200D01*
X113750000Y-114307600D02*
X113750000Y-103650000D01*
X113750000Y-102229000D02*
X113750000Y-103650000D01*
X114471100Y-119594700D02*
X114471100Y-115028700D01*
X113500000Y-92277100D02*
X113500000Y-94063500D01*
X113500000Y-95850000D02*
X113750000Y-96100100D01*
X115993700Y-125804000D02*
X115993700Y-121117300D01*
%TO.N,Net-(CN1-20-Pad35)*%
X113000000Y-92277200D02*
X113000000Y-94101100D01*
X113250000Y-113658855D02*
X113250000Y-100900000D01*
X117600000Y-130400000D02*
X117630000Y-130370000D01*
X117630000Y-130370000D02*
X117630000Y-128300100D01*
X112008000Y-115915045D02*
X112008000Y-114900855D01*
X112999800Y-94101300D02*
X112999800Y-94850100D01*
X113060000Y-116967045D02*
X112008000Y-115915045D01*
X113250000Y-92027000D02*
X113000000Y-92277200D01*
X113000000Y-95925000D02*
X113250000Y-96175200D01*
X113060000Y-120499200D02*
X113060000Y-116967045D01*
X113250000Y-91175000D02*
X113250000Y-92027000D01*
X113250000Y-96175200D02*
X113250000Y-100900000D01*
X113430900Y-120870100D02*
X113060000Y-120499200D01*
X113430900Y-126585300D02*
X113430900Y-120870100D01*
X113000000Y-94101100D02*
X112999800Y-94101300D01*
X113000000Y-94101100D02*
X113000000Y-95925000D01*
X112008000Y-114900855D02*
X113250000Y-113658855D01*
%TO.N,Net-(CN1-20-Pad37)*%
X112806000Y-117072255D02*
X112806000Y-122350000D01*
X112500000Y-92277100D02*
X112500000Y-94138500D01*
X111754000Y-116020255D02*
X112806000Y-117072255D01*
X112750000Y-103650000D02*
X112750000Y-104150000D01*
X112750000Y-102229000D02*
X112749800Y-102229200D01*
X112750000Y-104150000D02*
X112371500Y-104528500D01*
X112371500Y-104528500D02*
X112371500Y-114178145D01*
X111754000Y-114795645D02*
X111754000Y-116020255D01*
X112499900Y-94138600D02*
X112499900Y-94850100D01*
X112750000Y-96249900D02*
X112750000Y-102229000D01*
X112500000Y-94138500D02*
X112499900Y-94138600D01*
X112749800Y-102229200D02*
X112749800Y-102400000D01*
X112371500Y-114178145D02*
X111754000Y-114795645D01*
X112750000Y-91175000D02*
X112750000Y-92027000D01*
X120170000Y-126707700D02*
X119298800Y-126707700D01*
X112806000Y-122350000D02*
X112745900Y-122410100D01*
X112500000Y-94138500D02*
X112500000Y-95999900D01*
X112750000Y-102229000D02*
X112750000Y-103650000D01*
X112500000Y-95999900D02*
X112750000Y-96249900D01*
X120170000Y-128300100D02*
X120170000Y-126707700D01*
X112750000Y-92027000D02*
X112500000Y-92277100D01*
%TO.N,Net-(CN1-1-Pad5)*%
X120750000Y-100900000D02*
X120750000Y-102320900D01*
X107460000Y-141907600D02*
X107460000Y-143500000D01*
X108347000Y-141020600D02*
X107460000Y-141907600D01*
X108347000Y-121100000D02*
X108347000Y-141020600D01*
X120750000Y-102320900D02*
X120749800Y-102321100D01*
X120749800Y-102321100D02*
X120749800Y-102400000D01*
%TO.N,Net-(CN1-20-Pad39)*%
X112250000Y-104150000D02*
X112117500Y-104282500D01*
X111500000Y-116125465D02*
X112448600Y-117074065D01*
X112000000Y-92277200D02*
X112000000Y-94143300D01*
X111500000Y-114690435D02*
X111500000Y-116125465D01*
X112250000Y-100900000D02*
X112250000Y-104150000D01*
X112250000Y-92027000D02*
X112000000Y-92277200D01*
X112250000Y-91175000D02*
X112250000Y-92027000D01*
X112448600Y-120308400D02*
X112388500Y-120368500D01*
X112000000Y-94143300D02*
X112000000Y-96009400D01*
X112000000Y-94143300D02*
X111999800Y-94143500D01*
X122710000Y-128300100D02*
X122710000Y-126274200D01*
X112250000Y-96259600D02*
X112250000Y-100900000D01*
X112000000Y-96009400D02*
X112250000Y-96259600D01*
X112117500Y-104282500D02*
X112117500Y-114072935D01*
X112117500Y-114072935D02*
X111500000Y-114690435D01*
X112448600Y-117074065D02*
X112448600Y-120308400D01*
X111999800Y-94143500D02*
X111999800Y-94850100D01*
%TO.N,Net-(CN1-1-Pad69)*%
X103992600Y-120670100D02*
X103992600Y-106246400D01*
X104749800Y-102299700D02*
X104749800Y-102400000D01*
X104499900Y-96362900D02*
X104499900Y-94850400D01*
X104500000Y-92277100D02*
X104500000Y-96363000D01*
X104750000Y-91175000D02*
X104750000Y-92027000D01*
X104500000Y-96363000D02*
X104499900Y-96362900D01*
X104750000Y-102299500D02*
X104750000Y-103900000D01*
X103992600Y-106246400D02*
X104750000Y-105489000D01*
X104750000Y-100699000D02*
X104750000Y-102299500D01*
X104750000Y-92027000D02*
X104500000Y-92277100D01*
X104750000Y-105489000D02*
X104750000Y-103900000D01*
X104500000Y-100449000D02*
X104750000Y-100699000D01*
X104730000Y-122999900D02*
X104730000Y-121407500D01*
X104730000Y-121407500D02*
X103992600Y-120670100D01*
X104750000Y-102299500D02*
X104749800Y-102299700D01*
X104500000Y-96363000D02*
X104500000Y-100449000D01*
%TO.N,Net-(CN1-1-Pad71)*%
X104250000Y-91175000D02*
X104250000Y-92027000D01*
X102190000Y-122999900D02*
X102190000Y-121407500D01*
X103404400Y-106146700D02*
X104250000Y-105301100D01*
X104000000Y-92277200D02*
X104000000Y-94590200D01*
X104250000Y-101357000D02*
X104250000Y-102400000D01*
X104000000Y-94590200D02*
X103999800Y-94590400D01*
X103999800Y-94590400D02*
X103999800Y-94850400D01*
X104000000Y-94590200D02*
X104000000Y-100900000D01*
X102190000Y-121407500D02*
X103404400Y-120193100D01*
X103404400Y-120193100D02*
X103404400Y-106146700D01*
X104250000Y-92027000D02*
X104000000Y-92277200D01*
X104250000Y-105301100D02*
X104250000Y-102400000D01*
X104000000Y-100900000D02*
X104000000Y-101107000D01*
X104000000Y-101107000D02*
X104250000Y-101357000D01*
%TO.N,Net-(CN1-1-Pad73)*%
X103750000Y-103150000D02*
X103750000Y-102400000D01*
X103750000Y-103900000D02*
X103750000Y-103150000D01*
X103750000Y-103150000D02*
X103749800Y-103149800D01*
X103749800Y-103149800D02*
X103749800Y-102400000D01*
X122710000Y-137906000D02*
X122710000Y-135958400D01*
%TO.N,Net-(CN1-20-Pad41)*%
X111750000Y-102229000D02*
X111750000Y-96400000D01*
X102280000Y-112307600D02*
X102280000Y-112115300D01*
X111750000Y-102229000D02*
X111749800Y-102229200D01*
X111500000Y-94213600D02*
X111499900Y-94213700D01*
X111750000Y-96400000D02*
X111500000Y-96150100D01*
X111500000Y-94213600D02*
X111500000Y-92277100D01*
X111750000Y-92027000D02*
X111750000Y-91175000D01*
X111750000Y-103650000D02*
X111750000Y-102229000D01*
X111749800Y-102229200D02*
X111749800Y-102400000D01*
X111500000Y-96150100D02*
X111500000Y-94213600D01*
X111500000Y-92277100D02*
X111750000Y-92027000D01*
X111499900Y-94213700D02*
X111499900Y-94850400D01*
X102280000Y-113900000D02*
X102280000Y-112307600D01*
%TO.N,+3V3*%
X117772000Y-110650000D02*
X119708900Y-110650000D01*
X117772000Y-110825000D02*
X117772500Y-110825500D01*
X102380000Y-141907600D02*
X102380000Y-143500000D01*
X101552600Y-141080200D02*
X102380000Y-141907600D01*
X119708900Y-110650000D02*
X121750000Y-108608900D01*
X121750000Y-100900000D02*
X121750000Y-102320900D01*
X118575000Y-111175000D02*
X118700000Y-111300000D01*
X101552600Y-131863401D02*
X101552600Y-141080200D01*
X117772500Y-111175000D02*
X118575000Y-111175000D01*
X117772000Y-110650000D02*
X117772000Y-110825000D01*
X121750000Y-102320900D02*
X121750000Y-104150000D01*
X121749800Y-102321100D02*
X121749800Y-102400000D01*
X117772000Y-110825000D02*
X117772000Y-111175000D01*
X103700000Y-129716001D02*
X101552600Y-131863401D01*
X121750000Y-108608900D02*
X121750000Y-104150000D01*
X103700000Y-124400000D02*
X103700000Y-129716001D01*
X121750000Y-102320900D02*
X121749800Y-102321100D01*
X117772500Y-110825500D02*
X117772500Y-111175000D01*
%TO.N,Net-(CN1-20-Pad43)*%
X111250000Y-92027000D02*
X111000000Y-92277200D01*
X111000000Y-92277200D02*
X111000000Y-94284100D01*
X111000000Y-94284100D02*
X110999800Y-94284300D01*
X111250000Y-91175000D02*
X111250000Y-92027000D01*
X111000000Y-96291000D02*
X111250000Y-96541200D01*
X104700000Y-110420000D02*
X104700000Y-113780000D01*
X110999800Y-94284300D02*
X110999800Y-94850400D01*
X111000000Y-94284100D02*
X111000000Y-96291000D01*
X111250000Y-100900000D02*
X111250000Y-102400000D01*
X104700000Y-113780000D02*
X104820000Y-113900000D01*
X104820000Y-110300000D02*
X104700000Y-110420000D01*
X111250000Y-96541200D02*
X111250000Y-100900000D01*
%TO.N,Net-(CN1-20-Pad45)*%
X110500000Y-96431600D02*
X110750000Y-96681600D01*
X110750000Y-102479000D02*
X110750000Y-103650000D01*
X110750000Y-91175000D02*
X110750000Y-92027000D01*
X110500000Y-94354300D02*
X110499900Y-94354400D01*
X110500000Y-94354300D02*
X110500000Y-96431600D01*
X110750000Y-102479000D02*
X110749800Y-102478800D01*
X110499900Y-94354400D02*
X110499900Y-94850400D01*
X108400000Y-106740400D02*
X108080200Y-106420600D01*
X110750000Y-92027000D02*
X110500000Y-92277100D01*
X110500000Y-92277100D02*
X110500000Y-94354300D01*
X110750000Y-96681600D02*
X110750000Y-102479000D01*
X110749800Y-102478800D02*
X110749800Y-102400000D01*
X107360000Y-111205800D02*
X108400000Y-110165800D01*
X107360000Y-113900000D02*
X107360000Y-111205800D01*
X108400000Y-110165800D02*
X108400000Y-106740400D01*
%TO.N,Net-(CN1-20-Pad47)*%
X109999800Y-94425100D02*
X109999800Y-94850400D01*
X110250000Y-91175000D02*
X110250000Y-92027000D01*
X110250000Y-92027000D02*
X110000000Y-92277200D01*
X110250000Y-104150000D02*
X111000000Y-104900000D01*
X110250000Y-96822800D02*
X110250000Y-101400000D01*
X110000000Y-92277200D02*
X110000000Y-94424900D01*
X110250000Y-101400000D02*
X110250000Y-104150000D01*
X110000000Y-94424900D02*
X109999800Y-94425100D01*
X110000000Y-96572600D02*
X110250000Y-96822800D01*
X110000000Y-94424900D02*
X110000000Y-96572600D01*
X111000000Y-111207600D02*
X109900000Y-112307600D01*
X111000000Y-104900000D02*
X111000000Y-111207600D01*
X109900000Y-112307600D02*
X109900000Y-113900000D01*
%TO.N,Net-(CN1-20-Pad49)*%
X109500000Y-94463600D02*
X109499900Y-94463700D01*
X109746000Y-102396000D02*
X109749800Y-102399800D01*
X109500000Y-92277100D02*
X109500000Y-94463600D01*
X109749800Y-102399800D02*
X109749800Y-102400000D01*
X109750000Y-102400000D02*
X109750000Y-103650000D01*
X109750000Y-106563500D02*
X109900000Y-106713500D01*
X109900000Y-108305900D02*
X109900000Y-106713500D01*
X109750000Y-91175000D02*
X109750000Y-92027000D01*
X109746000Y-96895900D02*
X109746000Y-102396000D01*
X109750000Y-92027000D02*
X109500000Y-92277100D01*
X109500000Y-94463600D02*
X109500000Y-96650100D01*
X109499900Y-94463700D02*
X109499900Y-94850400D01*
X109500000Y-96650100D02*
X109746000Y-96895900D01*
X109750000Y-103650000D02*
X109750000Y-106563500D01*
X109749800Y-102399800D02*
X109750000Y-102400000D01*
%TO.N,Net-(CN1-20-Pad51)*%
X109250000Y-97150000D02*
X109250000Y-101150000D01*
X109000000Y-96900000D02*
X109250000Y-97150000D01*
X108999800Y-94588800D02*
X108999800Y-94850400D01*
X109000000Y-94588600D02*
X109000000Y-96900000D01*
X109250000Y-101150000D02*
X109250000Y-102400000D01*
X109000000Y-92277200D02*
X109000000Y-94588600D01*
X109000000Y-94588600D02*
X108999800Y-94588800D01*
X109250000Y-92027000D02*
X109000000Y-92277200D01*
X109250000Y-91175000D02*
X109250000Y-92027000D01*
%TO.N,Net-(CN1-20-Pad53)*%
X108500000Y-95088600D02*
X108499900Y-95088500D01*
X108750000Y-102479000D02*
X108750000Y-98150000D01*
X108750000Y-103900000D02*
X108750000Y-102479000D01*
X108499900Y-95088500D02*
X108499900Y-94850400D01*
X108750000Y-98150000D02*
X108500000Y-97900100D01*
X108750000Y-92027000D02*
X108750000Y-91175000D01*
X108500000Y-95088600D02*
X108500000Y-92277100D01*
X108750000Y-102479000D02*
X108749800Y-102478800D01*
X104820000Y-108299800D02*
X104820000Y-106707400D01*
X108500000Y-92277100D02*
X108750000Y-92027000D01*
X108749800Y-102478800D02*
X108749800Y-102400000D01*
X104820000Y-106707400D02*
X104820000Y-106605500D01*
X108500000Y-97900100D02*
X108500000Y-95088600D01*
%TO.N,Net-(CN1-20-Pad55)*%
X102280000Y-108299800D02*
X102280000Y-106707400D01*
X108250000Y-98150000D02*
X108000000Y-97899800D01*
X108000000Y-97899800D02*
X108000000Y-95088500D01*
X108250000Y-101150000D02*
X108250000Y-102400000D01*
X108000000Y-92277200D02*
X108250000Y-92027000D01*
X108250000Y-92027000D02*
X108250000Y-91175000D01*
X108250000Y-101150000D02*
X108250000Y-98150000D01*
X108000000Y-95088500D02*
X108000000Y-92277200D01*
X108000000Y-95088500D02*
X107999800Y-95088300D01*
X102280000Y-106707400D02*
X102280000Y-106598700D01*
X107999800Y-95088300D02*
X107999800Y-94850400D01*
%TO.N,Net-(CN1-20-Pad57)*%
X107500000Y-95213500D02*
X107500000Y-92277100D01*
X107750000Y-102400000D02*
X107749800Y-102399800D01*
X107500000Y-92277100D02*
X107750000Y-92027000D01*
X107750000Y-103900000D02*
X107750000Y-102400000D01*
X107749800Y-102399800D02*
X107749800Y-102400000D01*
X107499900Y-95213400D02*
X107499900Y-94850400D01*
X107500000Y-98150000D02*
X107500000Y-95213500D01*
X107746000Y-98395800D02*
X107500000Y-98150000D01*
X107750000Y-92027000D02*
X107750000Y-91175000D01*
X107749800Y-102399800D02*
X107746000Y-102396000D01*
X122710000Y-122706000D02*
X122710000Y-121009100D01*
X107500000Y-95213500D02*
X107499900Y-95213400D01*
X107746000Y-102396000D02*
X107746000Y-98395800D01*
%TO.N,Net-(CN1-20-Pad59)*%
X107000000Y-95338600D02*
X106999800Y-95338400D01*
X107000000Y-92277200D02*
X107250000Y-92027000D01*
X107250000Y-92027000D02*
X107250000Y-91175000D01*
X107000000Y-98400000D02*
X107000000Y-95338600D01*
X106999800Y-95338400D02*
X106999800Y-94850400D01*
X107250000Y-98650000D02*
X107000000Y-98400000D01*
X107250000Y-101400000D02*
X107250000Y-98650000D01*
X107000000Y-95338600D02*
X107000000Y-92277200D01*
%TO.N,Net-(CN1-20-Pad61)*%
X117630000Y-115126600D02*
X117630000Y-122699900D01*
X106500000Y-95463500D02*
X106500000Y-92277100D01*
X106500000Y-95463500D02*
X106499900Y-95463400D01*
X106500000Y-98650000D02*
X106500000Y-95463500D01*
X116296800Y-112206800D02*
X116296800Y-113793400D01*
X106750000Y-92027000D02*
X106750000Y-91175000D01*
X106750000Y-102604000D02*
X106749800Y-102603800D01*
X115990000Y-111900000D02*
X116296800Y-112206800D01*
X106750000Y-98899900D02*
X106500000Y-98650000D01*
X106750000Y-103900000D02*
X106750000Y-102604000D01*
X106749800Y-102603800D02*
X106749800Y-102400300D01*
X106500000Y-92277100D02*
X106750000Y-92027000D01*
X106499900Y-95463400D02*
X106499900Y-94850400D01*
X106750000Y-102604000D02*
X106750000Y-98899900D01*
X116296800Y-113793400D02*
X117630000Y-115126600D01*
%TO.N,Net-(CN1-1-Pad67)*%
X105930800Y-110191845D02*
X106300000Y-110561045D01*
X105000000Y-95838600D02*
X105000000Y-99400000D01*
X106300000Y-120437500D02*
X107270000Y-121407500D01*
X105930800Y-105654500D02*
X105930800Y-110191845D01*
X105000000Y-92277200D02*
X105000000Y-95838600D01*
X107270000Y-121407500D02*
X107270000Y-122999900D01*
X105250000Y-92027000D02*
X105000000Y-92277200D01*
X105250000Y-91175000D02*
X105250000Y-92027000D01*
X105000000Y-95838600D02*
X104999800Y-95838400D01*
X105250000Y-100339000D02*
X105250000Y-104973700D01*
X105250000Y-99650000D02*
X105250000Y-100339000D01*
X105000000Y-99400000D02*
X105250000Y-99650000D01*
X105250000Y-104973700D02*
X105930800Y-105654500D01*
X104999800Y-95838400D02*
X104999800Y-94850400D01*
X106300000Y-110561045D02*
X106300000Y-120437500D01*
%TO.N,Net-(CN1-1-Pad7)*%
X111754000Y-140153600D02*
X111754000Y-117524100D01*
X120249964Y-103649964D02*
X120250000Y-103650000D01*
X110000000Y-141907600D02*
X111754000Y-140153600D01*
X120249964Y-102400029D02*
X120249964Y-103649964D01*
X110000000Y-143500000D02*
X110000000Y-141907600D01*
X111754000Y-117524100D02*
X112031100Y-117247000D01*
%TO.N,Net-(CN1-20-Pad63)*%
X106000000Y-92277200D02*
X106000000Y-95463500D01*
X105999800Y-95463300D02*
X105999800Y-94850400D01*
X106532600Y-109844000D02*
X107002300Y-110313700D01*
X106442600Y-104942600D02*
X106442600Y-109671900D01*
X106250000Y-100400000D02*
X106250000Y-104750000D01*
X106250000Y-91175000D02*
X106250000Y-92027000D01*
X106000000Y-95463500D02*
X105999800Y-95463300D01*
X106250000Y-92027000D02*
X106000000Y-92277200D01*
X106442600Y-109671900D02*
X106532600Y-109761900D01*
X106000000Y-95463500D02*
X106000000Y-98649800D01*
X106250000Y-104750000D02*
X106442600Y-104942600D01*
X106532600Y-109761900D02*
X106532600Y-109844000D01*
X106000000Y-98649800D02*
X106250000Y-98900000D01*
X106250000Y-98900000D02*
X106250000Y-100400000D01*
%TO.N,Net-(CN1-1-Pad74)*%
X103500000Y-94215000D02*
X103500000Y-94850300D01*
X103750000Y-91175000D02*
X103750000Y-92027000D01*
X103500000Y-94215000D02*
X103499900Y-94215100D01*
X103499900Y-94215100D02*
X103499900Y-94850400D01*
X103500000Y-92277100D02*
X103500000Y-94215000D01*
X103750000Y-92027000D02*
X103500000Y-92277100D01*
%TO.N,Net-(CN1-1-Pad9)*%
X112400000Y-115300000D02*
X112400000Y-115947835D01*
X113848400Y-120928390D02*
X113848400Y-142258500D01*
X119750000Y-100900000D02*
X119750000Y-102320900D01*
X113848400Y-142258500D02*
X115090000Y-143500100D01*
X112400000Y-115947835D02*
X113314000Y-116861835D01*
X119749800Y-102321100D02*
X119749800Y-102400000D01*
X112800000Y-114900000D02*
X112400000Y-115300000D01*
X113314000Y-116861835D02*
X113314000Y-120393990D01*
X113314000Y-120393990D02*
X113848400Y-120928390D01*
X119750000Y-102320900D02*
X119749800Y-102321100D01*
%TO.N,GND*%
X101000000Y-96650000D02*
X101000000Y-97650000D01*
X121499900Y-93818500D02*
X121499900Y-94850100D01*
X121500000Y-93818400D02*
X121499900Y-93818500D01*
X104920000Y-136307400D02*
X104920000Y-135820000D01*
X121500000Y-94850100D02*
X122050000Y-94850100D01*
X121750000Y-91175000D02*
X121750000Y-92150000D01*
X123616000Y-108318000D02*
X123622000Y-108325000D01*
X102380000Y-137899800D02*
X102380000Y-136307400D01*
X102000000Y-95650000D02*
X101000000Y-96650000D01*
X121750000Y-92150000D02*
X121500000Y-92400100D01*
X102380000Y-136307400D02*
X104920000Y-136307400D01*
X103250000Y-99900000D02*
X103250000Y-102400000D01*
X122471467Y-111628533D02*
X122500000Y-111600000D01*
X102000000Y-94900000D02*
X102000000Y-95650000D01*
X103246000Y-93654100D02*
X102000000Y-94900000D01*
X103250000Y-102400000D02*
X103250000Y-103450000D01*
X104920000Y-137899800D02*
X104920000Y-136307400D01*
X122471700Y-108318000D02*
X123616000Y-108318000D01*
X121500000Y-92400100D02*
X121500000Y-93818400D01*
X103250000Y-91175000D02*
X103246000Y-91179100D01*
X103250000Y-103450000D02*
X102800000Y-103900000D01*
X104920000Y-135820000D02*
X104900000Y-135800000D01*
X103246000Y-91179100D02*
X103246000Y-93654100D01*
X121500000Y-93818400D02*
X121500000Y-94850100D01*
X122050000Y-94850100D02*
X122100000Y-94800000D01*
X101000000Y-97650000D02*
X103250000Y-99900000D01*
X122471467Y-112568171D02*
X122471467Y-111628533D01*
%TO.N,Net-(LED1-+)*%
X120872000Y-108325000D02*
X118022500Y-108325000D01*
X120872000Y-108325000D02*
X120872500Y-108325000D01*
%TO.N,+5V*%
X118022500Y-106250500D02*
X118022500Y-106675000D01*
X121249964Y-102400029D02*
X121249964Y-103649964D01*
X118022000Y-106250000D02*
X118022000Y-105825000D01*
X118022000Y-106250000D02*
X118022500Y-106250500D01*
X104919997Y-140315799D02*
X104919997Y-143500002D01*
X106100000Y-131800000D02*
X106100000Y-139135796D01*
X106100000Y-139135796D02*
X104919997Y-140315799D01*
X118022000Y-106675000D02*
X118022000Y-106250000D01*
X121249964Y-103649964D02*
X121250000Y-103650000D01*
%TO.N,Net-(LED2-+)*%
X120872500Y-112575000D02*
X120872000Y-112575000D01*
X117772500Y-112824500D02*
X118022000Y-112575000D01*
X118022000Y-112575000D02*
X120872000Y-112575000D01*
%TO.N,Net-(CN1-20-Pad29)*%
X114746000Y-102396000D02*
X114746000Y-96145800D01*
X106400000Y-125414100D02*
X106400000Y-122400000D01*
X114749800Y-102399800D02*
X114749800Y-102400000D01*
X114750000Y-103650000D02*
X114750000Y-102400000D01*
X114746000Y-96145800D02*
X114500000Y-95899900D01*
X114500000Y-95899900D02*
X114500000Y-94525000D01*
X106300000Y-122300000D02*
X106300000Y-121100000D01*
X107270000Y-126284100D02*
X106400000Y-125414100D01*
X114500000Y-94525000D02*
X114500000Y-93150100D01*
X105500000Y-120300000D02*
X105500000Y-117300000D01*
X114499900Y-94525100D02*
X114499900Y-94850100D01*
X106000000Y-116800000D02*
X106000000Y-112006900D01*
X106400000Y-122400000D02*
X106300000Y-122300000D01*
X106000000Y-112006900D02*
X105199500Y-111206400D01*
X107270000Y-128600100D02*
X107270000Y-126284100D01*
X114750000Y-92900000D02*
X114750000Y-91175000D01*
X114750000Y-102400000D02*
X114749800Y-102399800D01*
X114500000Y-94525000D02*
X114499900Y-94525100D01*
X105500000Y-117300000D02*
X106000000Y-116800000D01*
X106300000Y-121100000D02*
X105500000Y-120300000D01*
X114500000Y-93150100D02*
X114750000Y-92900000D01*
X114749800Y-102399800D02*
X114746000Y-102396000D01*
%TO.N,Net-(CN1-20-Pad31)*%
X114250000Y-96150000D02*
X114000000Y-95899800D01*
X114000000Y-95899800D02*
X114000000Y-94400000D01*
X114768900Y-118524100D02*
X114768900Y-114964500D01*
X113999800Y-94400200D02*
X113999800Y-94850100D01*
X114000000Y-94400000D02*
X113999800Y-94400200D01*
X114004000Y-114199600D02*
X114004000Y-104057145D01*
X108982500Y-126180200D02*
X109810000Y-127007700D01*
X114944800Y-118700000D02*
X114768900Y-118524100D01*
X114004000Y-104057145D02*
X114250000Y-103811145D01*
X114768900Y-114964500D02*
X114004000Y-114199600D01*
X114250000Y-103811145D02*
X114250000Y-100900000D01*
X109810000Y-127007700D02*
X109810000Y-128600100D01*
X114250000Y-92650000D02*
X114250000Y-91175000D01*
X114000000Y-94400000D02*
X114000000Y-92900200D01*
X109160550Y-121060550D02*
X108982500Y-121238600D01*
X114000000Y-92900200D02*
X114250000Y-92650000D01*
X114250000Y-100900000D02*
X114250000Y-96150000D01*
X108982500Y-121238600D02*
X108982500Y-126180200D01*
%TO.N,4*%
X121250000Y-91175000D02*
X121250000Y-92027000D01*
X121000000Y-92277200D02*
X121000000Y-93563600D01*
X118600000Y-101345500D02*
X120999800Y-98945700D01*
X120999800Y-98945700D02*
X120999800Y-93563800D01*
X120999800Y-93563800D02*
X121000000Y-93563600D01*
X121000000Y-93563600D02*
X121000000Y-94850100D01*
X107460000Y-137899800D02*
X107460000Y-130500000D01*
X120500000Y-107300000D02*
X118600000Y-105400000D01*
X118600000Y-105400000D02*
X118600000Y-101345500D01*
X121250000Y-92027000D02*
X121000000Y-92277200D01*
%TO.N,6*%
X111300000Y-113709565D02*
X111246000Y-113763565D01*
X120500000Y-93563600D02*
X120500000Y-94850100D01*
X120750000Y-91175000D02*
X120750000Y-92027000D01*
X111246000Y-113763565D02*
X111246000Y-118502400D01*
X120500000Y-92277100D02*
X120500000Y-93563600D01*
X118500000Y-100300100D02*
X120499900Y-98300200D01*
X111246000Y-118502400D02*
X111500000Y-118756400D01*
X120750000Y-92027000D02*
X120500000Y-92277100D01*
X120499900Y-93563700D02*
X120500000Y-93563600D01*
X111500000Y-136405900D02*
X110000000Y-137905900D01*
X111582100Y-106869100D02*
X111300000Y-107151200D01*
X111300000Y-107151200D02*
X111300000Y-113709565D01*
X120499900Y-98300200D02*
X120499900Y-93563700D01*
X111500000Y-118756400D02*
X111500000Y-136405900D01*
%TO.N,8*%
X114988100Y-131211900D02*
X114988100Y-136205600D01*
X120000000Y-93563600D02*
X120000000Y-94850100D01*
X114988100Y-136205600D02*
X115090000Y-136307500D01*
X115700000Y-130500000D02*
X114988100Y-131211900D01*
X120000000Y-92277200D02*
X120000000Y-93563600D01*
X115090000Y-136307500D02*
X115090000Y-137899900D01*
X120250000Y-91175000D02*
X120250000Y-92027000D01*
X120250000Y-92027000D02*
X120000000Y-92277200D01*
%TO.N,10*%
X116454000Y-120345600D02*
X116802600Y-120694200D01*
X116298300Y-110401700D02*
X115254000Y-111446000D01*
X117071500Y-117487710D02*
X116454000Y-118105210D01*
X116298300Y-110300000D02*
X116298300Y-105957600D01*
X119500000Y-95874935D02*
X119500000Y-94161800D01*
X117630000Y-136307500D02*
X117630000Y-137899900D01*
X119500000Y-94161800D02*
X119500000Y-94850100D01*
X115254000Y-112284400D02*
X115785000Y-112815400D01*
X116802600Y-135480100D02*
X117630000Y-136307500D01*
X116298300Y-110260910D02*
X116298300Y-110401700D01*
X119500000Y-92400100D02*
X119500000Y-94161800D01*
X116802600Y-120694200D02*
X116802600Y-135480100D01*
X117071500Y-115291900D02*
X117071500Y-117487710D01*
X117300000Y-104955900D02*
X117300000Y-98074935D01*
X115785000Y-114005400D02*
X117071500Y-115291900D01*
X119750000Y-91175000D02*
X119750000Y-92150000D01*
X115254000Y-111446000D02*
X115254000Y-112284400D01*
X117300000Y-98074935D02*
X119500000Y-95874935D01*
X115785000Y-112815400D02*
X115785000Y-114005400D01*
X116454000Y-118105210D02*
X116454000Y-120345600D01*
X119750000Y-92150000D02*
X119500000Y-92400100D01*
X116298300Y-105957600D02*
X117300000Y-104955900D01*
%TO.N,20*%
X117000000Y-94550100D02*
X117000000Y-94850100D01*
X117000000Y-94550100D02*
X117780300Y-95330400D01*
X117780300Y-95330400D02*
X117780300Y-97004200D01*
X116999800Y-94250300D02*
X116999800Y-94850100D01*
X117250000Y-91175000D02*
X117250000Y-93400000D01*
X117000000Y-93650200D02*
X117000000Y-94250100D01*
X117099900Y-113739900D02*
X121100000Y-117740000D01*
X117000000Y-94250100D02*
X116999800Y-94250300D01*
X117250000Y-93400000D02*
X117000000Y-93650200D01*
X121100000Y-135377500D02*
X120170000Y-136307500D01*
X121100000Y-117740000D02*
X121100000Y-135377500D01*
X118026200Y-99117800D02*
X118026200Y-105133200D01*
X118026200Y-105133200D02*
X117099900Y-106059500D01*
X117000000Y-94250100D02*
X117000000Y-94550100D01*
X117099900Y-106059500D02*
X117099900Y-113739900D01*
X120170000Y-136307500D02*
X120170000Y-137899900D01*
%TD*%
M02*
