%TF.GenerationSoftware,KiCad,Pcbnew,7.0.5*%
%TF.CreationDate,2023-08-28T16:34:51-05:00*%
%TF.ProjectId,Chimera_0003_Hydra,4368696d-6572-4615-9f30-3030335f4879,rev?*%
%TF.SameCoordinates,Original*%
%TF.FileFunction,Legend,Top*%
%TF.FilePolarity,Positive*%
%FSLAX46Y46*%
G04 Gerber Fmt 4.6, Leading zero omitted, Abs format (unit mm)*
G04 Created by KiCad (PCBNEW 7.0.5) date 2023-08-28 16:34:51*
%MOMM*%
%LPD*%
G01*
G04 APERTURE LIST*
G04 Aperture macros list*
%AMRoundRect*
0 Rectangle with rounded corners*
0 $1 Rounding radius*
0 $2 $3 $4 $5 $6 $7 $8 $9 X,Y pos of 4 corners*
0 Add a 4 corners polygon primitive as box body*
4,1,4,$2,$3,$4,$5,$6,$7,$8,$9,$2,$3,0*
0 Add four circle primitives for the rounded corners*
1,1,$1+$1,$2,$3*
1,1,$1+$1,$4,$5*
1,1,$1+$1,$6,$7*
1,1,$1+$1,$8,$9*
0 Add four rect primitives between the rounded corners*
20,1,$1+$1,$2,$3,$4,$5,0*
20,1,$1+$1,$4,$5,$6,$7,0*
20,1,$1+$1,$6,$7,$8,$9,0*
20,1,$1+$1,$8,$9,$2,$3,0*%
G04 Aperture macros list end*
%ADD10C,0.300000*%
%ADD11C,0.200000*%
%ADD12C,0.059995*%
%ADD13C,0.254001*%
%ADD14C,0.151994*%
%ADD15C,0.120000*%
%ADD16C,0.150013*%
%ADD17C,0.100000*%
%ADD18R,1.270003X2.800000*%
%ADD19R,1.300000X2.800000*%
%ADD20R,0.300000X1.550013*%
%ADD21R,0.300000X1.524003*%
%ADD22C,1.200000*%
%ADD23C,1.800000*%
%ADD24RoundRect,0.200000X-0.275000X0.200000X-0.275000X-0.200000X0.275000X-0.200000X0.275000X0.200000X0*%
%ADD25R,0.800000X0.800000*%
%ADD26C,3.600000*%
%ADD27C,6.400000*%
G04 APERTURE END LIST*
D10*
X116900828Y-120888346D02*
X116900828Y-119959774D01*
X116900828Y-119959774D02*
X117472257Y-120459774D01*
X117472257Y-120459774D02*
X117472257Y-120245489D01*
X117472257Y-120245489D02*
X117543685Y-120102632D01*
X117543685Y-120102632D02*
X117615114Y-120031203D01*
X117615114Y-120031203D02*
X117757971Y-119959774D01*
X117757971Y-119959774D02*
X118115114Y-119959774D01*
X118115114Y-119959774D02*
X118257971Y-120031203D01*
X118257971Y-120031203D02*
X118329400Y-120102632D01*
X118329400Y-120102632D02*
X118400828Y-120245489D01*
X118400828Y-120245489D02*
X118400828Y-120674060D01*
X118400828Y-120674060D02*
X118329400Y-120816917D01*
X118329400Y-120816917D02*
X118257971Y-120888346D01*
X116900828Y-119031203D02*
X116900828Y-118888346D01*
X116900828Y-118888346D02*
X116972257Y-118745489D01*
X116972257Y-118745489D02*
X117043685Y-118674061D01*
X117043685Y-118674061D02*
X117186542Y-118602632D01*
X117186542Y-118602632D02*
X117472257Y-118531203D01*
X117472257Y-118531203D02*
X117829400Y-118531203D01*
X117829400Y-118531203D02*
X118115114Y-118602632D01*
X118115114Y-118602632D02*
X118257971Y-118674061D01*
X118257971Y-118674061D02*
X118329400Y-118745489D01*
X118329400Y-118745489D02*
X118400828Y-118888346D01*
X118400828Y-118888346D02*
X118400828Y-119031203D01*
X118400828Y-119031203D02*
X118329400Y-119174061D01*
X118329400Y-119174061D02*
X118257971Y-119245489D01*
X118257971Y-119245489D02*
X118115114Y-119316918D01*
X118115114Y-119316918D02*
X117829400Y-119388346D01*
X117829400Y-119388346D02*
X117472257Y-119388346D01*
X117472257Y-119388346D02*
X117186542Y-119316918D01*
X117186542Y-119316918D02*
X117043685Y-119245489D01*
X117043685Y-119245489D02*
X116972257Y-119174061D01*
X116972257Y-119174061D02*
X116900828Y-119031203D01*
X119400828Y-120888346D02*
X119400828Y-119959774D01*
X119400828Y-119959774D02*
X119972257Y-120459774D01*
X119972257Y-120459774D02*
X119972257Y-120245489D01*
X119972257Y-120245489D02*
X120043685Y-120102632D01*
X120043685Y-120102632D02*
X120115114Y-120031203D01*
X120115114Y-120031203D02*
X120257971Y-119959774D01*
X120257971Y-119959774D02*
X120615114Y-119959774D01*
X120615114Y-119959774D02*
X120757971Y-120031203D01*
X120757971Y-120031203D02*
X120829400Y-120102632D01*
X120829400Y-120102632D02*
X120900828Y-120245489D01*
X120900828Y-120245489D02*
X120900828Y-120674060D01*
X120900828Y-120674060D02*
X120829400Y-120816917D01*
X120829400Y-120816917D02*
X120757971Y-120888346D01*
X120900828Y-118531203D02*
X120900828Y-119388346D01*
X120900828Y-118959775D02*
X119400828Y-118959775D01*
X119400828Y-118959775D02*
X119615114Y-119102632D01*
X119615114Y-119102632D02*
X119757971Y-119245489D01*
X119757971Y-119245489D02*
X119829400Y-119388346D01*
X117043685Y-132516917D02*
X116972257Y-132445489D01*
X116972257Y-132445489D02*
X116900828Y-132302632D01*
X116900828Y-132302632D02*
X116900828Y-131945489D01*
X116900828Y-131945489D02*
X116972257Y-131802632D01*
X116972257Y-131802632D02*
X117043685Y-131731203D01*
X117043685Y-131731203D02*
X117186542Y-131659774D01*
X117186542Y-131659774D02*
X117329400Y-131659774D01*
X117329400Y-131659774D02*
X117543685Y-131731203D01*
X117543685Y-131731203D02*
X118400828Y-132588346D01*
X118400828Y-132588346D02*
X118400828Y-131659774D01*
X117043685Y-131088346D02*
X116972257Y-131016918D01*
X116972257Y-131016918D02*
X116900828Y-130874061D01*
X116900828Y-130874061D02*
X116900828Y-130516918D01*
X116900828Y-130516918D02*
X116972257Y-130374061D01*
X116972257Y-130374061D02*
X117043685Y-130302632D01*
X117043685Y-130302632D02*
X117186542Y-130231203D01*
X117186542Y-130231203D02*
X117329400Y-130231203D01*
X117329400Y-130231203D02*
X117543685Y-130302632D01*
X117543685Y-130302632D02*
X118400828Y-131159775D01*
X118400828Y-131159775D02*
X118400828Y-130231203D01*
D11*
X123539850Y-149232780D02*
X123444612Y-149232780D01*
X123444612Y-149232780D02*
X123349374Y-149185161D01*
X123349374Y-149185161D02*
X123301755Y-149137542D01*
X123301755Y-149137542D02*
X123254136Y-149042304D01*
X123254136Y-149042304D02*
X123206517Y-148851828D01*
X123206517Y-148851828D02*
X123206517Y-148613733D01*
X123206517Y-148613733D02*
X123254136Y-148423257D01*
X123254136Y-148423257D02*
X123301755Y-148328019D01*
X123301755Y-148328019D02*
X123349374Y-148280400D01*
X123349374Y-148280400D02*
X123444612Y-148232780D01*
X123444612Y-148232780D02*
X123539850Y-148232780D01*
X123539850Y-148232780D02*
X123635088Y-148280400D01*
X123635088Y-148280400D02*
X123682707Y-148328019D01*
X123682707Y-148328019D02*
X123730326Y-148423257D01*
X123730326Y-148423257D02*
X123777945Y-148613733D01*
X123777945Y-148613733D02*
X123777945Y-148851828D01*
X123777945Y-148851828D02*
X123730326Y-149042304D01*
X123730326Y-149042304D02*
X123682707Y-149137542D01*
X123682707Y-149137542D02*
X123635088Y-149185161D01*
X123635088Y-149185161D02*
X123539850Y-149232780D01*
X122587469Y-149232780D02*
X122492231Y-149232780D01*
X122492231Y-149232780D02*
X122396993Y-149185161D01*
X122396993Y-149185161D02*
X122349374Y-149137542D01*
X122349374Y-149137542D02*
X122301755Y-149042304D01*
X122301755Y-149042304D02*
X122254136Y-148851828D01*
X122254136Y-148851828D02*
X122254136Y-148613733D01*
X122254136Y-148613733D02*
X122301755Y-148423257D01*
X122301755Y-148423257D02*
X122349374Y-148328019D01*
X122349374Y-148328019D02*
X122396993Y-148280400D01*
X122396993Y-148280400D02*
X122492231Y-148232780D01*
X122492231Y-148232780D02*
X122587469Y-148232780D01*
X122587469Y-148232780D02*
X122682707Y-148280400D01*
X122682707Y-148280400D02*
X122730326Y-148328019D01*
X122730326Y-148328019D02*
X122777945Y-148423257D01*
X122777945Y-148423257D02*
X122825564Y-148613733D01*
X122825564Y-148613733D02*
X122825564Y-148851828D01*
X122825564Y-148851828D02*
X122777945Y-149042304D01*
X122777945Y-149042304D02*
X122730326Y-149137542D01*
X122730326Y-149137542D02*
X122682707Y-149185161D01*
X122682707Y-149185161D02*
X122587469Y-149232780D01*
X121635088Y-149232780D02*
X121539850Y-149232780D01*
X121539850Y-149232780D02*
X121444612Y-149185161D01*
X121444612Y-149185161D02*
X121396993Y-149137542D01*
X121396993Y-149137542D02*
X121349374Y-149042304D01*
X121349374Y-149042304D02*
X121301755Y-148851828D01*
X121301755Y-148851828D02*
X121301755Y-148613733D01*
X121301755Y-148613733D02*
X121349374Y-148423257D01*
X121349374Y-148423257D02*
X121396993Y-148328019D01*
X121396993Y-148328019D02*
X121444612Y-148280400D01*
X121444612Y-148280400D02*
X121539850Y-148232780D01*
X121539850Y-148232780D02*
X121635088Y-148232780D01*
X121635088Y-148232780D02*
X121730326Y-148280400D01*
X121730326Y-148280400D02*
X121777945Y-148328019D01*
X121777945Y-148328019D02*
X121825564Y-148423257D01*
X121825564Y-148423257D02*
X121873183Y-148613733D01*
X121873183Y-148613733D02*
X121873183Y-148851828D01*
X121873183Y-148851828D02*
X121825564Y-149042304D01*
X121825564Y-149042304D02*
X121777945Y-149137542D01*
X121777945Y-149137542D02*
X121730326Y-149185161D01*
X121730326Y-149185161D02*
X121635088Y-149232780D01*
X120968421Y-149232780D02*
X120349374Y-149232780D01*
X120349374Y-149232780D02*
X120682707Y-148851828D01*
X120682707Y-148851828D02*
X120539850Y-148851828D01*
X120539850Y-148851828D02*
X120444612Y-148804209D01*
X120444612Y-148804209D02*
X120396993Y-148756590D01*
X120396993Y-148756590D02*
X120349374Y-148661352D01*
X120349374Y-148661352D02*
X120349374Y-148423257D01*
X120349374Y-148423257D02*
X120396993Y-148328019D01*
X120396993Y-148328019D02*
X120444612Y-148280400D01*
X120444612Y-148280400D02*
X120539850Y-148232780D01*
X120539850Y-148232780D02*
X120825564Y-148232780D01*
X120825564Y-148232780D02*
X120920802Y-148280400D01*
X120920802Y-148280400D02*
X120968421Y-148328019D01*
X107730322Y-148232780D02*
X107730322Y-149232780D01*
X107730322Y-148756590D02*
X107158894Y-148756590D01*
X107158894Y-148232780D02*
X107158894Y-149232780D01*
X106777941Y-148899447D02*
X106539846Y-148232780D01*
X106301751Y-148899447D02*
X106539846Y-148232780D01*
X106539846Y-148232780D02*
X106635084Y-147994685D01*
X106635084Y-147994685D02*
X106682703Y-147947066D01*
X106682703Y-147947066D02*
X106777941Y-147899447D01*
X105492227Y-148232780D02*
X105492227Y-149232780D01*
X105492227Y-148280400D02*
X105587465Y-148232780D01*
X105587465Y-148232780D02*
X105777941Y-148232780D01*
X105777941Y-148232780D02*
X105873179Y-148280400D01*
X105873179Y-148280400D02*
X105920798Y-148328019D01*
X105920798Y-148328019D02*
X105968417Y-148423257D01*
X105968417Y-148423257D02*
X105968417Y-148708971D01*
X105968417Y-148708971D02*
X105920798Y-148804209D01*
X105920798Y-148804209D02*
X105873179Y-148851828D01*
X105873179Y-148851828D02*
X105777941Y-148899447D01*
X105777941Y-148899447D02*
X105587465Y-148899447D01*
X105587465Y-148899447D02*
X105492227Y-148851828D01*
X105016036Y-148232780D02*
X105016036Y-148899447D01*
X105016036Y-148708971D02*
X104968417Y-148804209D01*
X104968417Y-148804209D02*
X104920798Y-148851828D01*
X104920798Y-148851828D02*
X104825560Y-148899447D01*
X104825560Y-148899447D02*
X104730322Y-148899447D01*
X103968417Y-148232780D02*
X103968417Y-148756590D01*
X103968417Y-148756590D02*
X104016036Y-148851828D01*
X104016036Y-148851828D02*
X104111274Y-148899447D01*
X104111274Y-148899447D02*
X104301750Y-148899447D01*
X104301750Y-148899447D02*
X104396988Y-148851828D01*
X103968417Y-148280400D02*
X104063655Y-148232780D01*
X104063655Y-148232780D02*
X104301750Y-148232780D01*
X104301750Y-148232780D02*
X104396988Y-148280400D01*
X104396988Y-148280400D02*
X104444607Y-148375638D01*
X104444607Y-148375638D02*
X104444607Y-148470876D01*
X104444607Y-148470876D02*
X104396988Y-148566114D01*
X104396988Y-148566114D02*
X104301750Y-148613733D01*
X104301750Y-148613733D02*
X104063655Y-148613733D01*
X104063655Y-148613733D02*
X103968417Y-148661352D01*
X103730322Y-148137542D02*
X102968417Y-148137542D01*
X102539845Y-149232780D02*
X102444607Y-149232780D01*
X102444607Y-149232780D02*
X102349369Y-149185161D01*
X102349369Y-149185161D02*
X102301750Y-149137542D01*
X102301750Y-149137542D02*
X102254131Y-149042304D01*
X102254131Y-149042304D02*
X102206512Y-148851828D01*
X102206512Y-148851828D02*
X102206512Y-148613733D01*
X102206512Y-148613733D02*
X102254131Y-148423257D01*
X102254131Y-148423257D02*
X102301750Y-148328019D01*
X102301750Y-148328019D02*
X102349369Y-148280400D01*
X102349369Y-148280400D02*
X102444607Y-148232780D01*
X102444607Y-148232780D02*
X102539845Y-148232780D01*
X102539845Y-148232780D02*
X102635083Y-148280400D01*
X102635083Y-148280400D02*
X102682702Y-148328019D01*
X102682702Y-148328019D02*
X102730321Y-148423257D01*
X102730321Y-148423257D02*
X102777940Y-148613733D01*
X102777940Y-148613733D02*
X102777940Y-148851828D01*
X102777940Y-148851828D02*
X102730321Y-149042304D01*
X102730321Y-149042304D02*
X102682702Y-149137542D01*
X102682702Y-149137542D02*
X102635083Y-149185161D01*
X102635083Y-149185161D02*
X102539845Y-149232780D01*
X101587464Y-149232780D02*
X101492226Y-149232780D01*
X101492226Y-149232780D02*
X101396988Y-149185161D01*
X101396988Y-149185161D02*
X101349369Y-149137542D01*
X101349369Y-149137542D02*
X101301750Y-149042304D01*
X101301750Y-149042304D02*
X101254131Y-148851828D01*
X101254131Y-148851828D02*
X101254131Y-148613733D01*
X101254131Y-148613733D02*
X101301750Y-148423257D01*
X101301750Y-148423257D02*
X101349369Y-148328019D01*
X101349369Y-148328019D02*
X101396988Y-148280400D01*
X101396988Y-148280400D02*
X101492226Y-148232780D01*
X101492226Y-148232780D02*
X101587464Y-148232780D01*
X101587464Y-148232780D02*
X101682702Y-148280400D01*
X101682702Y-148280400D02*
X101730321Y-148328019D01*
X101730321Y-148328019D02*
X101777940Y-148423257D01*
X101777940Y-148423257D02*
X101825559Y-148613733D01*
X101825559Y-148613733D02*
X101825559Y-148851828D01*
X101825559Y-148851828D02*
X101777940Y-149042304D01*
X101777940Y-149042304D02*
X101730321Y-149137542D01*
X101730321Y-149137542D02*
X101682702Y-149185161D01*
X101682702Y-149185161D02*
X101587464Y-149232780D01*
D10*
X114443685Y-120816917D02*
X114372257Y-120745489D01*
X114372257Y-120745489D02*
X114300828Y-120602632D01*
X114300828Y-120602632D02*
X114300828Y-120245489D01*
X114300828Y-120245489D02*
X114372257Y-120102632D01*
X114372257Y-120102632D02*
X114443685Y-120031203D01*
X114443685Y-120031203D02*
X114586542Y-119959774D01*
X114586542Y-119959774D02*
X114729400Y-119959774D01*
X114729400Y-119959774D02*
X114943685Y-120031203D01*
X114943685Y-120031203D02*
X115800828Y-120888346D01*
X115800828Y-120888346D02*
X115800828Y-119959774D01*
X115800828Y-119245489D02*
X115800828Y-118959775D01*
X115800828Y-118959775D02*
X115729400Y-118816918D01*
X115729400Y-118816918D02*
X115657971Y-118745489D01*
X115657971Y-118745489D02*
X115443685Y-118602632D01*
X115443685Y-118602632D02*
X115157971Y-118531203D01*
X115157971Y-118531203D02*
X114586542Y-118531203D01*
X114586542Y-118531203D02*
X114443685Y-118602632D01*
X114443685Y-118602632D02*
X114372257Y-118674061D01*
X114372257Y-118674061D02*
X114300828Y-118816918D01*
X114300828Y-118816918D02*
X114300828Y-119102632D01*
X114300828Y-119102632D02*
X114372257Y-119245489D01*
X114372257Y-119245489D02*
X114443685Y-119316918D01*
X114443685Y-119316918D02*
X114586542Y-119388346D01*
X114586542Y-119388346D02*
X114943685Y-119388346D01*
X114943685Y-119388346D02*
X115086542Y-119316918D01*
X115086542Y-119316918D02*
X115157971Y-119245489D01*
X115157971Y-119245489D02*
X115229400Y-119102632D01*
X115229400Y-119102632D02*
X115229400Y-118816918D01*
X115229400Y-118816918D02*
X115157971Y-118674061D01*
X115157971Y-118674061D02*
X115086542Y-118602632D01*
X115086542Y-118602632D02*
X114943685Y-118531203D01*
X104100828Y-117888346D02*
X104100828Y-116959774D01*
X104100828Y-116959774D02*
X104672257Y-117459774D01*
X104672257Y-117459774D02*
X104672257Y-117245489D01*
X104672257Y-117245489D02*
X104743685Y-117102632D01*
X104743685Y-117102632D02*
X104815114Y-117031203D01*
X104815114Y-117031203D02*
X104957971Y-116959774D01*
X104957971Y-116959774D02*
X105315114Y-116959774D01*
X105315114Y-116959774D02*
X105457971Y-117031203D01*
X105457971Y-117031203D02*
X105529400Y-117102632D01*
X105529400Y-117102632D02*
X105600828Y-117245489D01*
X105600828Y-117245489D02*
X105600828Y-117674060D01*
X105600828Y-117674060D02*
X105529400Y-117816917D01*
X105529400Y-117816917D02*
X105457971Y-117888346D01*
X104600828Y-115674061D02*
X105600828Y-115674061D01*
X104029400Y-116031203D02*
X105100828Y-116388346D01*
X105100828Y-116388346D02*
X105100828Y-115459775D01*
X122000828Y-120888346D02*
X122000828Y-119959774D01*
X122000828Y-119959774D02*
X122572257Y-120459774D01*
X122572257Y-120459774D02*
X122572257Y-120245489D01*
X122572257Y-120245489D02*
X122643685Y-120102632D01*
X122643685Y-120102632D02*
X122715114Y-120031203D01*
X122715114Y-120031203D02*
X122857971Y-119959774D01*
X122857971Y-119959774D02*
X123215114Y-119959774D01*
X123215114Y-119959774D02*
X123357971Y-120031203D01*
X123357971Y-120031203D02*
X123429400Y-120102632D01*
X123429400Y-120102632D02*
X123500828Y-120245489D01*
X123500828Y-120245489D02*
X123500828Y-120674060D01*
X123500828Y-120674060D02*
X123429400Y-120816917D01*
X123429400Y-120816917D02*
X123357971Y-120888346D01*
X122143685Y-119388346D02*
X122072257Y-119316918D01*
X122072257Y-119316918D02*
X122000828Y-119174061D01*
X122000828Y-119174061D02*
X122000828Y-118816918D01*
X122000828Y-118816918D02*
X122072257Y-118674061D01*
X122072257Y-118674061D02*
X122143685Y-118602632D01*
X122143685Y-118602632D02*
X122286542Y-118531203D01*
X122286542Y-118531203D02*
X122429400Y-118531203D01*
X122429400Y-118531203D02*
X122643685Y-118602632D01*
X122643685Y-118602632D02*
X123500828Y-119459775D01*
X123500828Y-119459775D02*
X123500828Y-118531203D01*
X108100828Y-135159774D02*
X108100828Y-136016917D01*
X108100828Y-135588346D02*
X106600828Y-135588346D01*
X106600828Y-135588346D02*
X106815114Y-135731203D01*
X106815114Y-135731203D02*
X106957971Y-135874060D01*
X106957971Y-135874060D02*
X107029400Y-136016917D01*
X108100828Y-133731203D02*
X108100828Y-134588346D01*
X108100828Y-134159775D02*
X106600828Y-134159775D01*
X106600828Y-134159775D02*
X106815114Y-134302632D01*
X106815114Y-134302632D02*
X106957971Y-134445489D01*
X106957971Y-134445489D02*
X107029400Y-134588346D01*
X114700828Y-147059774D02*
X114700828Y-146916917D01*
X114700828Y-146916917D02*
X114772257Y-146774060D01*
X114772257Y-146774060D02*
X114843685Y-146702632D01*
X114843685Y-146702632D02*
X114986542Y-146631203D01*
X114986542Y-146631203D02*
X115272257Y-146559774D01*
X115272257Y-146559774D02*
X115629400Y-146559774D01*
X115629400Y-146559774D02*
X115915114Y-146631203D01*
X115915114Y-146631203D02*
X116057971Y-146702632D01*
X116057971Y-146702632D02*
X116129400Y-146774060D01*
X116129400Y-146774060D02*
X116200828Y-146916917D01*
X116200828Y-146916917D02*
X116200828Y-147059774D01*
X116200828Y-147059774D02*
X116129400Y-147202632D01*
X116129400Y-147202632D02*
X116057971Y-147274060D01*
X116057971Y-147274060D02*
X115915114Y-147345489D01*
X115915114Y-147345489D02*
X115629400Y-147416917D01*
X115629400Y-147416917D02*
X115272257Y-147416917D01*
X115272257Y-147416917D02*
X114986542Y-147345489D01*
X114986542Y-147345489D02*
X114843685Y-147274060D01*
X114843685Y-147274060D02*
X114772257Y-147202632D01*
X114772257Y-147202632D02*
X114700828Y-147059774D01*
X114700828Y-145202632D02*
X114700828Y-145916918D01*
X114700828Y-145916918D02*
X115415114Y-145988346D01*
X115415114Y-145988346D02*
X115343685Y-145916918D01*
X115343685Y-145916918D02*
X115272257Y-145774061D01*
X115272257Y-145774061D02*
X115272257Y-145416918D01*
X115272257Y-145416918D02*
X115343685Y-145274061D01*
X115343685Y-145274061D02*
X115415114Y-145202632D01*
X115415114Y-145202632D02*
X115557971Y-145131203D01*
X115557971Y-145131203D02*
X115915114Y-145131203D01*
X115915114Y-145131203D02*
X116057971Y-145202632D01*
X116057971Y-145202632D02*
X116129400Y-145274061D01*
X116129400Y-145274061D02*
X116200828Y-145416918D01*
X116200828Y-145416918D02*
X116200828Y-145774061D01*
X116200828Y-145774061D02*
X116129400Y-145916918D01*
X116129400Y-145916918D02*
X116057971Y-145988346D01*
X104243685Y-121116917D02*
X104172257Y-121045489D01*
X104172257Y-121045489D02*
X104100828Y-120902632D01*
X104100828Y-120902632D02*
X104100828Y-120545489D01*
X104100828Y-120545489D02*
X104172257Y-120402632D01*
X104172257Y-120402632D02*
X104243685Y-120331203D01*
X104243685Y-120331203D02*
X104386542Y-120259774D01*
X104386542Y-120259774D02*
X104529400Y-120259774D01*
X104529400Y-120259774D02*
X104743685Y-120331203D01*
X104743685Y-120331203D02*
X105600828Y-121188346D01*
X105600828Y-121188346D02*
X105600828Y-120259774D01*
X104100828Y-118974061D02*
X104100828Y-119259775D01*
X104100828Y-119259775D02*
X104172257Y-119402632D01*
X104172257Y-119402632D02*
X104243685Y-119474061D01*
X104243685Y-119474061D02*
X104457971Y-119616918D01*
X104457971Y-119616918D02*
X104743685Y-119688346D01*
X104743685Y-119688346D02*
X105315114Y-119688346D01*
X105315114Y-119688346D02*
X105457971Y-119616918D01*
X105457971Y-119616918D02*
X105529400Y-119545489D01*
X105529400Y-119545489D02*
X105600828Y-119402632D01*
X105600828Y-119402632D02*
X105600828Y-119116918D01*
X105600828Y-119116918D02*
X105529400Y-118974061D01*
X105529400Y-118974061D02*
X105457971Y-118902632D01*
X105457971Y-118902632D02*
X105315114Y-118831203D01*
X105315114Y-118831203D02*
X104957971Y-118831203D01*
X104957971Y-118831203D02*
X104815114Y-118902632D01*
X104815114Y-118902632D02*
X104743685Y-118974061D01*
X104743685Y-118974061D02*
X104672257Y-119116918D01*
X104672257Y-119116918D02*
X104672257Y-119402632D01*
X104672257Y-119402632D02*
X104743685Y-119545489D01*
X104743685Y-119545489D02*
X104815114Y-119616918D01*
X104815114Y-119616918D02*
X104957971Y-119688346D01*
X110700828Y-135159774D02*
X110700828Y-136016917D01*
X110700828Y-135588346D02*
X109200828Y-135588346D01*
X109200828Y-135588346D02*
X109415114Y-135731203D01*
X109415114Y-135731203D02*
X109557971Y-135874060D01*
X109557971Y-135874060D02*
X109629400Y-136016917D01*
X109343685Y-134588346D02*
X109272257Y-134516918D01*
X109272257Y-134516918D02*
X109200828Y-134374061D01*
X109200828Y-134374061D02*
X109200828Y-134016918D01*
X109200828Y-134016918D02*
X109272257Y-133874061D01*
X109272257Y-133874061D02*
X109343685Y-133802632D01*
X109343685Y-133802632D02*
X109486542Y-133731203D01*
X109486542Y-133731203D02*
X109629400Y-133731203D01*
X109629400Y-133731203D02*
X109843685Y-133802632D01*
X109843685Y-133802632D02*
X110700828Y-134659775D01*
X110700828Y-134659775D02*
X110700828Y-133731203D01*
X109700828Y-105802632D02*
X110700828Y-105802632D01*
X109129400Y-106159774D02*
X110200828Y-106516917D01*
X110200828Y-106516917D02*
X110200828Y-105588346D01*
X109200828Y-104731203D02*
X109200828Y-104588346D01*
X109200828Y-104588346D02*
X109272257Y-104445489D01*
X109272257Y-104445489D02*
X109343685Y-104374061D01*
X109343685Y-104374061D02*
X109486542Y-104302632D01*
X109486542Y-104302632D02*
X109772257Y-104231203D01*
X109772257Y-104231203D02*
X110129400Y-104231203D01*
X110129400Y-104231203D02*
X110415114Y-104302632D01*
X110415114Y-104302632D02*
X110557971Y-104374061D01*
X110557971Y-104374061D02*
X110629400Y-104445489D01*
X110629400Y-104445489D02*
X110700828Y-104588346D01*
X110700828Y-104588346D02*
X110700828Y-104731203D01*
X110700828Y-104731203D02*
X110629400Y-104874061D01*
X110629400Y-104874061D02*
X110557971Y-104945489D01*
X110557971Y-104945489D02*
X110415114Y-105016918D01*
X110415114Y-105016918D02*
X110129400Y-105088346D01*
X110129400Y-105088346D02*
X109772257Y-105088346D01*
X109772257Y-105088346D02*
X109486542Y-105016918D01*
X109486542Y-105016918D02*
X109343685Y-104945489D01*
X109343685Y-104945489D02*
X109272257Y-104874061D01*
X109272257Y-104874061D02*
X109200828Y-104731203D01*
X106600828Y-147059774D02*
X106600828Y-146916917D01*
X106600828Y-146916917D02*
X106672257Y-146774060D01*
X106672257Y-146774060D02*
X106743685Y-146702632D01*
X106743685Y-146702632D02*
X106886542Y-146631203D01*
X106886542Y-146631203D02*
X107172257Y-146559774D01*
X107172257Y-146559774D02*
X107529400Y-146559774D01*
X107529400Y-146559774D02*
X107815114Y-146631203D01*
X107815114Y-146631203D02*
X107957971Y-146702632D01*
X107957971Y-146702632D02*
X108029400Y-146774060D01*
X108029400Y-146774060D02*
X108100828Y-146916917D01*
X108100828Y-146916917D02*
X108100828Y-147059774D01*
X108100828Y-147059774D02*
X108029400Y-147202632D01*
X108029400Y-147202632D02*
X107957971Y-147274060D01*
X107957971Y-147274060D02*
X107815114Y-147345489D01*
X107815114Y-147345489D02*
X107529400Y-147416917D01*
X107529400Y-147416917D02*
X107172257Y-147416917D01*
X107172257Y-147416917D02*
X106886542Y-147345489D01*
X106886542Y-147345489D02*
X106743685Y-147274060D01*
X106743685Y-147274060D02*
X106672257Y-147202632D01*
X106672257Y-147202632D02*
X106600828Y-147059774D01*
X106600828Y-146059775D02*
X106600828Y-145131203D01*
X106600828Y-145131203D02*
X107172257Y-145631203D01*
X107172257Y-145631203D02*
X107172257Y-145416918D01*
X107172257Y-145416918D02*
X107243685Y-145274061D01*
X107243685Y-145274061D02*
X107315114Y-145202632D01*
X107315114Y-145202632D02*
X107457971Y-145131203D01*
X107457971Y-145131203D02*
X107815114Y-145131203D01*
X107815114Y-145131203D02*
X107957971Y-145202632D01*
X107957971Y-145202632D02*
X108029400Y-145274061D01*
X108029400Y-145274061D02*
X108100828Y-145416918D01*
X108100828Y-145416918D02*
X108100828Y-145845489D01*
X108100828Y-145845489D02*
X108029400Y-145988346D01*
X108029400Y-145988346D02*
X107957971Y-146059775D01*
X101500828Y-147059774D02*
X101500828Y-146916917D01*
X101500828Y-146916917D02*
X101572257Y-146774060D01*
X101572257Y-146774060D02*
X101643685Y-146702632D01*
X101643685Y-146702632D02*
X101786542Y-146631203D01*
X101786542Y-146631203D02*
X102072257Y-146559774D01*
X102072257Y-146559774D02*
X102429400Y-146559774D01*
X102429400Y-146559774D02*
X102715114Y-146631203D01*
X102715114Y-146631203D02*
X102857971Y-146702632D01*
X102857971Y-146702632D02*
X102929400Y-146774060D01*
X102929400Y-146774060D02*
X103000828Y-146916917D01*
X103000828Y-146916917D02*
X103000828Y-147059774D01*
X103000828Y-147059774D02*
X102929400Y-147202632D01*
X102929400Y-147202632D02*
X102857971Y-147274060D01*
X102857971Y-147274060D02*
X102715114Y-147345489D01*
X102715114Y-147345489D02*
X102429400Y-147416917D01*
X102429400Y-147416917D02*
X102072257Y-147416917D01*
X102072257Y-147416917D02*
X101786542Y-147345489D01*
X101786542Y-147345489D02*
X101643685Y-147274060D01*
X101643685Y-147274060D02*
X101572257Y-147202632D01*
X101572257Y-147202632D02*
X101500828Y-147059774D01*
X103000828Y-145131203D02*
X103000828Y-145988346D01*
X103000828Y-145559775D02*
X101500828Y-145559775D01*
X101500828Y-145559775D02*
X101715114Y-145702632D01*
X101715114Y-145702632D02*
X101857971Y-145845489D01*
X101857971Y-145845489D02*
X101929400Y-145988346D01*
X114443685Y-132516917D02*
X114372257Y-132445489D01*
X114372257Y-132445489D02*
X114300828Y-132302632D01*
X114300828Y-132302632D02*
X114300828Y-131945489D01*
X114300828Y-131945489D02*
X114372257Y-131802632D01*
X114372257Y-131802632D02*
X114443685Y-131731203D01*
X114443685Y-131731203D02*
X114586542Y-131659774D01*
X114586542Y-131659774D02*
X114729400Y-131659774D01*
X114729400Y-131659774D02*
X114943685Y-131731203D01*
X114943685Y-131731203D02*
X115800828Y-132588346D01*
X115800828Y-132588346D02*
X115800828Y-131659774D01*
X115800828Y-130231203D02*
X115800828Y-131088346D01*
X115800828Y-130659775D02*
X114300828Y-130659775D01*
X114300828Y-130659775D02*
X114515114Y-130802632D01*
X114515114Y-130802632D02*
X114657971Y-130945489D01*
X114657971Y-130945489D02*
X114729400Y-131088346D01*
X105600828Y-135159774D02*
X105600828Y-136016917D01*
X105600828Y-135588346D02*
X104100828Y-135588346D01*
X104100828Y-135588346D02*
X104315114Y-135731203D01*
X104315114Y-135731203D02*
X104457971Y-135874060D01*
X104457971Y-135874060D02*
X104529400Y-136016917D01*
X104100828Y-134231203D02*
X104100828Y-134088346D01*
X104100828Y-134088346D02*
X104172257Y-133945489D01*
X104172257Y-133945489D02*
X104243685Y-133874061D01*
X104243685Y-133874061D02*
X104386542Y-133802632D01*
X104386542Y-133802632D02*
X104672257Y-133731203D01*
X104672257Y-133731203D02*
X105029400Y-133731203D01*
X105029400Y-133731203D02*
X105315114Y-133802632D01*
X105315114Y-133802632D02*
X105457971Y-133874061D01*
X105457971Y-133874061D02*
X105529400Y-133945489D01*
X105529400Y-133945489D02*
X105600828Y-134088346D01*
X105600828Y-134088346D02*
X105600828Y-134231203D01*
X105600828Y-134231203D02*
X105529400Y-134374061D01*
X105529400Y-134374061D02*
X105457971Y-134445489D01*
X105457971Y-134445489D02*
X105315114Y-134516918D01*
X105315114Y-134516918D02*
X105029400Y-134588346D01*
X105029400Y-134588346D02*
X104672257Y-134588346D01*
X104672257Y-134588346D02*
X104386542Y-134516918D01*
X104386542Y-134516918D02*
X104243685Y-134445489D01*
X104243685Y-134445489D02*
X104172257Y-134374061D01*
X104172257Y-134374061D02*
X104100828Y-134231203D01*
X118400828Y-135159774D02*
X118400828Y-136016917D01*
X118400828Y-135588346D02*
X116900828Y-135588346D01*
X116900828Y-135588346D02*
X117115114Y-135731203D01*
X117115114Y-135731203D02*
X117257971Y-135874060D01*
X117257971Y-135874060D02*
X117329400Y-136016917D01*
X117400828Y-133874061D02*
X118400828Y-133874061D01*
X116829400Y-134231203D02*
X117900828Y-134588346D01*
X117900828Y-134588346D02*
X117900828Y-133659775D01*
X106743685Y-121116917D02*
X106672257Y-121045489D01*
X106672257Y-121045489D02*
X106600828Y-120902632D01*
X106600828Y-120902632D02*
X106600828Y-120545489D01*
X106600828Y-120545489D02*
X106672257Y-120402632D01*
X106672257Y-120402632D02*
X106743685Y-120331203D01*
X106743685Y-120331203D02*
X106886542Y-120259774D01*
X106886542Y-120259774D02*
X107029400Y-120259774D01*
X107029400Y-120259774D02*
X107243685Y-120331203D01*
X107243685Y-120331203D02*
X108100828Y-121188346D01*
X108100828Y-121188346D02*
X108100828Y-120259774D01*
X106600828Y-119759775D02*
X106600828Y-118759775D01*
X106600828Y-118759775D02*
X108100828Y-119402632D01*
X104100828Y-147059774D02*
X104100828Y-146916917D01*
X104100828Y-146916917D02*
X104172257Y-146774060D01*
X104172257Y-146774060D02*
X104243685Y-146702632D01*
X104243685Y-146702632D02*
X104386542Y-146631203D01*
X104386542Y-146631203D02*
X104672257Y-146559774D01*
X104672257Y-146559774D02*
X105029400Y-146559774D01*
X105029400Y-146559774D02*
X105315114Y-146631203D01*
X105315114Y-146631203D02*
X105457971Y-146702632D01*
X105457971Y-146702632D02*
X105529400Y-146774060D01*
X105529400Y-146774060D02*
X105600828Y-146916917D01*
X105600828Y-146916917D02*
X105600828Y-147059774D01*
X105600828Y-147059774D02*
X105529400Y-147202632D01*
X105529400Y-147202632D02*
X105457971Y-147274060D01*
X105457971Y-147274060D02*
X105315114Y-147345489D01*
X105315114Y-147345489D02*
X105029400Y-147416917D01*
X105029400Y-147416917D02*
X104672257Y-147416917D01*
X104672257Y-147416917D02*
X104386542Y-147345489D01*
X104386542Y-147345489D02*
X104243685Y-147274060D01*
X104243685Y-147274060D02*
X104172257Y-147202632D01*
X104172257Y-147202632D02*
X104100828Y-147059774D01*
X104243685Y-145988346D02*
X104172257Y-145916918D01*
X104172257Y-145916918D02*
X104100828Y-145774061D01*
X104100828Y-145774061D02*
X104100828Y-145416918D01*
X104100828Y-145416918D02*
X104172257Y-145274061D01*
X104172257Y-145274061D02*
X104243685Y-145202632D01*
X104243685Y-145202632D02*
X104386542Y-145131203D01*
X104386542Y-145131203D02*
X104529400Y-145131203D01*
X104529400Y-145131203D02*
X104743685Y-145202632D01*
X104743685Y-145202632D02*
X105600828Y-146059775D01*
X105600828Y-146059775D02*
X105600828Y-145131203D01*
X119543685Y-132516917D02*
X119472257Y-132445489D01*
X119472257Y-132445489D02*
X119400828Y-132302632D01*
X119400828Y-132302632D02*
X119400828Y-131945489D01*
X119400828Y-131945489D02*
X119472257Y-131802632D01*
X119472257Y-131802632D02*
X119543685Y-131731203D01*
X119543685Y-131731203D02*
X119686542Y-131659774D01*
X119686542Y-131659774D02*
X119829400Y-131659774D01*
X119829400Y-131659774D02*
X120043685Y-131731203D01*
X120043685Y-131731203D02*
X120900828Y-132588346D01*
X120900828Y-132588346D02*
X120900828Y-131659774D01*
X119400828Y-131159775D02*
X119400828Y-130231203D01*
X119400828Y-130231203D02*
X119972257Y-130731203D01*
X119972257Y-130731203D02*
X119972257Y-130516918D01*
X119972257Y-130516918D02*
X120043685Y-130374061D01*
X120043685Y-130374061D02*
X120115114Y-130302632D01*
X120115114Y-130302632D02*
X120257971Y-130231203D01*
X120257971Y-130231203D02*
X120615114Y-130231203D01*
X120615114Y-130231203D02*
X120757971Y-130302632D01*
X120757971Y-130302632D02*
X120829400Y-130374061D01*
X120829400Y-130374061D02*
X120900828Y-130516918D01*
X120900828Y-130516918D02*
X120900828Y-130945489D01*
X120900828Y-130945489D02*
X120829400Y-131088346D01*
X120829400Y-131088346D02*
X120757971Y-131159775D01*
X115800828Y-135159774D02*
X115800828Y-136016917D01*
X115800828Y-135588346D02*
X114300828Y-135588346D01*
X114300828Y-135588346D02*
X114515114Y-135731203D01*
X114515114Y-135731203D02*
X114657971Y-135874060D01*
X114657971Y-135874060D02*
X114729400Y-136016917D01*
X114300828Y-134659775D02*
X114300828Y-133731203D01*
X114300828Y-133731203D02*
X114872257Y-134231203D01*
X114872257Y-134231203D02*
X114872257Y-134016918D01*
X114872257Y-134016918D02*
X114943685Y-133874061D01*
X114943685Y-133874061D02*
X115015114Y-133802632D01*
X115015114Y-133802632D02*
X115157971Y-133731203D01*
X115157971Y-133731203D02*
X115515114Y-133731203D01*
X115515114Y-133731203D02*
X115657971Y-133802632D01*
X115657971Y-133802632D02*
X115729400Y-133874061D01*
X115729400Y-133874061D02*
X115800828Y-134016918D01*
X115800828Y-134016918D02*
X115800828Y-134445489D01*
X115800828Y-134445489D02*
X115729400Y-134588346D01*
X115729400Y-134588346D02*
X115657971Y-134659775D01*
X101500828Y-106588346D02*
X101500828Y-105659774D01*
X101500828Y-105659774D02*
X102072257Y-106159774D01*
X102072257Y-106159774D02*
X102072257Y-105945489D01*
X102072257Y-105945489D02*
X102143685Y-105802632D01*
X102143685Y-105802632D02*
X102215114Y-105731203D01*
X102215114Y-105731203D02*
X102357971Y-105659774D01*
X102357971Y-105659774D02*
X102715114Y-105659774D01*
X102715114Y-105659774D02*
X102857971Y-105731203D01*
X102857971Y-105731203D02*
X102929400Y-105802632D01*
X102929400Y-105802632D02*
X103000828Y-105945489D01*
X103000828Y-105945489D02*
X103000828Y-106374060D01*
X103000828Y-106374060D02*
X102929400Y-106516917D01*
X102929400Y-106516917D02*
X102857971Y-106588346D01*
X101500828Y-105159775D02*
X101500828Y-104159775D01*
X101500828Y-104159775D02*
X103000828Y-104802632D01*
X108800828Y-147059774D02*
X108800828Y-146916917D01*
X108800828Y-146916917D02*
X108872257Y-146774060D01*
X108872257Y-146774060D02*
X108943685Y-146702632D01*
X108943685Y-146702632D02*
X109086542Y-146631203D01*
X109086542Y-146631203D02*
X109372257Y-146559774D01*
X109372257Y-146559774D02*
X109729400Y-146559774D01*
X109729400Y-146559774D02*
X110015114Y-146631203D01*
X110015114Y-146631203D02*
X110157971Y-146702632D01*
X110157971Y-146702632D02*
X110229400Y-146774060D01*
X110229400Y-146774060D02*
X110300828Y-146916917D01*
X110300828Y-146916917D02*
X110300828Y-147059774D01*
X110300828Y-147059774D02*
X110229400Y-147202632D01*
X110229400Y-147202632D02*
X110157971Y-147274060D01*
X110157971Y-147274060D02*
X110015114Y-147345489D01*
X110015114Y-147345489D02*
X109729400Y-147416917D01*
X109729400Y-147416917D02*
X109372257Y-147416917D01*
X109372257Y-147416917D02*
X109086542Y-147345489D01*
X109086542Y-147345489D02*
X108943685Y-147274060D01*
X108943685Y-147274060D02*
X108872257Y-147202632D01*
X108872257Y-147202632D02*
X108800828Y-147059774D01*
X109300828Y-145274061D02*
X110300828Y-145274061D01*
X108729400Y-145631203D02*
X109800828Y-145988346D01*
X109800828Y-145988346D02*
X109800828Y-145059775D01*
X122000828Y-147059774D02*
X122000828Y-146916917D01*
X122000828Y-146916917D02*
X122072257Y-146774060D01*
X122072257Y-146774060D02*
X122143685Y-146702632D01*
X122143685Y-146702632D02*
X122286542Y-146631203D01*
X122286542Y-146631203D02*
X122572257Y-146559774D01*
X122572257Y-146559774D02*
X122929400Y-146559774D01*
X122929400Y-146559774D02*
X123215114Y-146631203D01*
X123215114Y-146631203D02*
X123357971Y-146702632D01*
X123357971Y-146702632D02*
X123429400Y-146774060D01*
X123429400Y-146774060D02*
X123500828Y-146916917D01*
X123500828Y-146916917D02*
X123500828Y-147059774D01*
X123500828Y-147059774D02*
X123429400Y-147202632D01*
X123429400Y-147202632D02*
X123357971Y-147274060D01*
X123357971Y-147274060D02*
X123215114Y-147345489D01*
X123215114Y-147345489D02*
X122929400Y-147416917D01*
X122929400Y-147416917D02*
X122572257Y-147416917D01*
X122572257Y-147416917D02*
X122286542Y-147345489D01*
X122286542Y-147345489D02*
X122143685Y-147274060D01*
X122143685Y-147274060D02*
X122072257Y-147202632D01*
X122072257Y-147202632D02*
X122000828Y-147059774D01*
X122643685Y-145702632D02*
X122572257Y-145845489D01*
X122572257Y-145845489D02*
X122500828Y-145916918D01*
X122500828Y-145916918D02*
X122357971Y-145988346D01*
X122357971Y-145988346D02*
X122286542Y-145988346D01*
X122286542Y-145988346D02*
X122143685Y-145916918D01*
X122143685Y-145916918D02*
X122072257Y-145845489D01*
X122072257Y-145845489D02*
X122000828Y-145702632D01*
X122000828Y-145702632D02*
X122000828Y-145416918D01*
X122000828Y-145416918D02*
X122072257Y-145274061D01*
X122072257Y-145274061D02*
X122143685Y-145202632D01*
X122143685Y-145202632D02*
X122286542Y-145131203D01*
X122286542Y-145131203D02*
X122357971Y-145131203D01*
X122357971Y-145131203D02*
X122500828Y-145202632D01*
X122500828Y-145202632D02*
X122572257Y-145274061D01*
X122572257Y-145274061D02*
X122643685Y-145416918D01*
X122643685Y-145416918D02*
X122643685Y-145702632D01*
X122643685Y-145702632D02*
X122715114Y-145845489D01*
X122715114Y-145845489D02*
X122786542Y-145916918D01*
X122786542Y-145916918D02*
X122929400Y-145988346D01*
X122929400Y-145988346D02*
X123215114Y-145988346D01*
X123215114Y-145988346D02*
X123357971Y-145916918D01*
X123357971Y-145916918D02*
X123429400Y-145845489D01*
X123429400Y-145845489D02*
X123500828Y-145702632D01*
X123500828Y-145702632D02*
X123500828Y-145416918D01*
X123500828Y-145416918D02*
X123429400Y-145274061D01*
X123429400Y-145274061D02*
X123357971Y-145202632D01*
X123357971Y-145202632D02*
X123215114Y-145131203D01*
X123215114Y-145131203D02*
X122929400Y-145131203D01*
X122929400Y-145131203D02*
X122786542Y-145202632D01*
X122786542Y-145202632D02*
X122715114Y-145274061D01*
X122715114Y-145274061D02*
X122643685Y-145416918D01*
X119400828Y-147059774D02*
X119400828Y-146916917D01*
X119400828Y-146916917D02*
X119472257Y-146774060D01*
X119472257Y-146774060D02*
X119543685Y-146702632D01*
X119543685Y-146702632D02*
X119686542Y-146631203D01*
X119686542Y-146631203D02*
X119972257Y-146559774D01*
X119972257Y-146559774D02*
X120329400Y-146559774D01*
X120329400Y-146559774D02*
X120615114Y-146631203D01*
X120615114Y-146631203D02*
X120757971Y-146702632D01*
X120757971Y-146702632D02*
X120829400Y-146774060D01*
X120829400Y-146774060D02*
X120900828Y-146916917D01*
X120900828Y-146916917D02*
X120900828Y-147059774D01*
X120900828Y-147059774D02*
X120829400Y-147202632D01*
X120829400Y-147202632D02*
X120757971Y-147274060D01*
X120757971Y-147274060D02*
X120615114Y-147345489D01*
X120615114Y-147345489D02*
X120329400Y-147416917D01*
X120329400Y-147416917D02*
X119972257Y-147416917D01*
X119972257Y-147416917D02*
X119686542Y-147345489D01*
X119686542Y-147345489D02*
X119543685Y-147274060D01*
X119543685Y-147274060D02*
X119472257Y-147202632D01*
X119472257Y-147202632D02*
X119400828Y-147059774D01*
X119400828Y-146059775D02*
X119400828Y-145059775D01*
X119400828Y-145059775D02*
X120900828Y-145702632D01*
X123500828Y-135159774D02*
X123500828Y-136016917D01*
X123500828Y-135588346D02*
X122000828Y-135588346D01*
X122000828Y-135588346D02*
X122215114Y-135731203D01*
X122215114Y-135731203D02*
X122357971Y-135874060D01*
X122357971Y-135874060D02*
X122429400Y-136016917D01*
X122000828Y-133874061D02*
X122000828Y-134159775D01*
X122000828Y-134159775D02*
X122072257Y-134302632D01*
X122072257Y-134302632D02*
X122143685Y-134374061D01*
X122143685Y-134374061D02*
X122357971Y-134516918D01*
X122357971Y-134516918D02*
X122643685Y-134588346D01*
X122643685Y-134588346D02*
X123215114Y-134588346D01*
X123215114Y-134588346D02*
X123357971Y-134516918D01*
X123357971Y-134516918D02*
X123429400Y-134445489D01*
X123429400Y-134445489D02*
X123500828Y-134302632D01*
X123500828Y-134302632D02*
X123500828Y-134016918D01*
X123500828Y-134016918D02*
X123429400Y-133874061D01*
X123429400Y-133874061D02*
X123357971Y-133802632D01*
X123357971Y-133802632D02*
X123215114Y-133731203D01*
X123215114Y-133731203D02*
X122857971Y-133731203D01*
X122857971Y-133731203D02*
X122715114Y-133802632D01*
X122715114Y-133802632D02*
X122643685Y-133874061D01*
X122643685Y-133874061D02*
X122572257Y-134016918D01*
X122572257Y-134016918D02*
X122572257Y-134302632D01*
X122572257Y-134302632D02*
X122643685Y-134445489D01*
X122643685Y-134445489D02*
X122715114Y-134516918D01*
X122715114Y-134516918D02*
X122857971Y-134588346D01*
X109343685Y-121116917D02*
X109272257Y-121045489D01*
X109272257Y-121045489D02*
X109200828Y-120902632D01*
X109200828Y-120902632D02*
X109200828Y-120545489D01*
X109200828Y-120545489D02*
X109272257Y-120402632D01*
X109272257Y-120402632D02*
X109343685Y-120331203D01*
X109343685Y-120331203D02*
X109486542Y-120259774D01*
X109486542Y-120259774D02*
X109629400Y-120259774D01*
X109629400Y-120259774D02*
X109843685Y-120331203D01*
X109843685Y-120331203D02*
X110700828Y-121188346D01*
X110700828Y-121188346D02*
X110700828Y-120259774D01*
X109843685Y-119402632D02*
X109772257Y-119545489D01*
X109772257Y-119545489D02*
X109700828Y-119616918D01*
X109700828Y-119616918D02*
X109557971Y-119688346D01*
X109557971Y-119688346D02*
X109486542Y-119688346D01*
X109486542Y-119688346D02*
X109343685Y-119616918D01*
X109343685Y-119616918D02*
X109272257Y-119545489D01*
X109272257Y-119545489D02*
X109200828Y-119402632D01*
X109200828Y-119402632D02*
X109200828Y-119116918D01*
X109200828Y-119116918D02*
X109272257Y-118974061D01*
X109272257Y-118974061D02*
X109343685Y-118902632D01*
X109343685Y-118902632D02*
X109486542Y-118831203D01*
X109486542Y-118831203D02*
X109557971Y-118831203D01*
X109557971Y-118831203D02*
X109700828Y-118902632D01*
X109700828Y-118902632D02*
X109772257Y-118974061D01*
X109772257Y-118974061D02*
X109843685Y-119116918D01*
X109843685Y-119116918D02*
X109843685Y-119402632D01*
X109843685Y-119402632D02*
X109915114Y-119545489D01*
X109915114Y-119545489D02*
X109986542Y-119616918D01*
X109986542Y-119616918D02*
X110129400Y-119688346D01*
X110129400Y-119688346D02*
X110415114Y-119688346D01*
X110415114Y-119688346D02*
X110557971Y-119616918D01*
X110557971Y-119616918D02*
X110629400Y-119545489D01*
X110629400Y-119545489D02*
X110700828Y-119402632D01*
X110700828Y-119402632D02*
X110700828Y-119116918D01*
X110700828Y-119116918D02*
X110629400Y-118974061D01*
X110629400Y-118974061D02*
X110557971Y-118902632D01*
X110557971Y-118902632D02*
X110415114Y-118831203D01*
X110415114Y-118831203D02*
X110129400Y-118831203D01*
X110129400Y-118831203D02*
X109986542Y-118902632D01*
X109986542Y-118902632D02*
X109915114Y-118974061D01*
X109915114Y-118974061D02*
X109843685Y-119116918D01*
X103000828Y-131659774D02*
X103000828Y-132516917D01*
X103000828Y-132088346D02*
X101500828Y-132088346D01*
X101500828Y-132088346D02*
X101715114Y-132231203D01*
X101715114Y-132231203D02*
X101857971Y-132374060D01*
X101857971Y-132374060D02*
X101929400Y-132516917D01*
X101500828Y-131159775D02*
X101500828Y-130159775D01*
X101500828Y-130159775D02*
X103000828Y-130802632D01*
X109343685Y-132516917D02*
X109272257Y-132445489D01*
X109272257Y-132445489D02*
X109200828Y-132302632D01*
X109200828Y-132302632D02*
X109200828Y-131945489D01*
X109200828Y-131945489D02*
X109272257Y-131802632D01*
X109272257Y-131802632D02*
X109343685Y-131731203D01*
X109343685Y-131731203D02*
X109486542Y-131659774D01*
X109486542Y-131659774D02*
X109629400Y-131659774D01*
X109629400Y-131659774D02*
X109843685Y-131731203D01*
X109843685Y-131731203D02*
X110700828Y-132588346D01*
X110700828Y-132588346D02*
X110700828Y-131659774D01*
X109200828Y-130731203D02*
X109200828Y-130588346D01*
X109200828Y-130588346D02*
X109272257Y-130445489D01*
X109272257Y-130445489D02*
X109343685Y-130374061D01*
X109343685Y-130374061D02*
X109486542Y-130302632D01*
X109486542Y-130302632D02*
X109772257Y-130231203D01*
X109772257Y-130231203D02*
X110129400Y-130231203D01*
X110129400Y-130231203D02*
X110415114Y-130302632D01*
X110415114Y-130302632D02*
X110557971Y-130374061D01*
X110557971Y-130374061D02*
X110629400Y-130445489D01*
X110629400Y-130445489D02*
X110700828Y-130588346D01*
X110700828Y-130588346D02*
X110700828Y-130731203D01*
X110700828Y-130731203D02*
X110629400Y-130874061D01*
X110629400Y-130874061D02*
X110557971Y-130945489D01*
X110557971Y-130945489D02*
X110415114Y-131016918D01*
X110415114Y-131016918D02*
X110129400Y-131088346D01*
X110129400Y-131088346D02*
X109772257Y-131088346D01*
X109772257Y-131088346D02*
X109486542Y-131016918D01*
X109486542Y-131016918D02*
X109343685Y-130945489D01*
X109343685Y-130945489D02*
X109272257Y-130874061D01*
X109272257Y-130874061D02*
X109200828Y-130731203D01*
X104100828Y-106588346D02*
X104100828Y-105659774D01*
X104100828Y-105659774D02*
X104672257Y-106159774D01*
X104672257Y-106159774D02*
X104672257Y-105945489D01*
X104672257Y-105945489D02*
X104743685Y-105802632D01*
X104743685Y-105802632D02*
X104815114Y-105731203D01*
X104815114Y-105731203D02*
X104957971Y-105659774D01*
X104957971Y-105659774D02*
X105315114Y-105659774D01*
X105315114Y-105659774D02*
X105457971Y-105731203D01*
X105457971Y-105731203D02*
X105529400Y-105802632D01*
X105529400Y-105802632D02*
X105600828Y-105945489D01*
X105600828Y-105945489D02*
X105600828Y-106374060D01*
X105600828Y-106374060D02*
X105529400Y-106516917D01*
X105529400Y-106516917D02*
X105457971Y-106588346D01*
X104743685Y-104802632D02*
X104672257Y-104945489D01*
X104672257Y-104945489D02*
X104600828Y-105016918D01*
X104600828Y-105016918D02*
X104457971Y-105088346D01*
X104457971Y-105088346D02*
X104386542Y-105088346D01*
X104386542Y-105088346D02*
X104243685Y-105016918D01*
X104243685Y-105016918D02*
X104172257Y-104945489D01*
X104172257Y-104945489D02*
X104100828Y-104802632D01*
X104100828Y-104802632D02*
X104100828Y-104516918D01*
X104100828Y-104516918D02*
X104172257Y-104374061D01*
X104172257Y-104374061D02*
X104243685Y-104302632D01*
X104243685Y-104302632D02*
X104386542Y-104231203D01*
X104386542Y-104231203D02*
X104457971Y-104231203D01*
X104457971Y-104231203D02*
X104600828Y-104302632D01*
X104600828Y-104302632D02*
X104672257Y-104374061D01*
X104672257Y-104374061D02*
X104743685Y-104516918D01*
X104743685Y-104516918D02*
X104743685Y-104802632D01*
X104743685Y-104802632D02*
X104815114Y-104945489D01*
X104815114Y-104945489D02*
X104886542Y-105016918D01*
X104886542Y-105016918D02*
X105029400Y-105088346D01*
X105029400Y-105088346D02*
X105315114Y-105088346D01*
X105315114Y-105088346D02*
X105457971Y-105016918D01*
X105457971Y-105016918D02*
X105529400Y-104945489D01*
X105529400Y-104945489D02*
X105600828Y-104802632D01*
X105600828Y-104802632D02*
X105600828Y-104516918D01*
X105600828Y-104516918D02*
X105529400Y-104374061D01*
X105529400Y-104374061D02*
X105457971Y-104302632D01*
X105457971Y-104302632D02*
X105315114Y-104231203D01*
X105315114Y-104231203D02*
X105029400Y-104231203D01*
X105029400Y-104231203D02*
X104886542Y-104302632D01*
X104886542Y-104302632D02*
X104815114Y-104374061D01*
X104815114Y-104374061D02*
X104743685Y-104516918D01*
X101500828Y-117888346D02*
X101500828Y-116959774D01*
X101500828Y-116959774D02*
X102072257Y-117459774D01*
X102072257Y-117459774D02*
X102072257Y-117245489D01*
X102072257Y-117245489D02*
X102143685Y-117102632D01*
X102143685Y-117102632D02*
X102215114Y-117031203D01*
X102215114Y-117031203D02*
X102357971Y-116959774D01*
X102357971Y-116959774D02*
X102715114Y-116959774D01*
X102715114Y-116959774D02*
X102857971Y-117031203D01*
X102857971Y-117031203D02*
X102929400Y-117102632D01*
X102929400Y-117102632D02*
X103000828Y-117245489D01*
X103000828Y-117245489D02*
X103000828Y-117674060D01*
X103000828Y-117674060D02*
X102929400Y-117816917D01*
X102929400Y-117816917D02*
X102857971Y-117888346D01*
X101500828Y-116459775D02*
X101500828Y-115531203D01*
X101500828Y-115531203D02*
X102072257Y-116031203D01*
X102072257Y-116031203D02*
X102072257Y-115816918D01*
X102072257Y-115816918D02*
X102143685Y-115674061D01*
X102143685Y-115674061D02*
X102215114Y-115602632D01*
X102215114Y-115602632D02*
X102357971Y-115531203D01*
X102357971Y-115531203D02*
X102715114Y-115531203D01*
X102715114Y-115531203D02*
X102857971Y-115602632D01*
X102857971Y-115602632D02*
X102929400Y-115674061D01*
X102929400Y-115674061D02*
X103000828Y-115816918D01*
X103000828Y-115816918D02*
X103000828Y-116245489D01*
X103000828Y-116245489D02*
X102929400Y-116388346D01*
X102929400Y-116388346D02*
X102857971Y-116459775D01*
X106600828Y-117888346D02*
X106600828Y-116959774D01*
X106600828Y-116959774D02*
X107172257Y-117459774D01*
X107172257Y-117459774D02*
X107172257Y-117245489D01*
X107172257Y-117245489D02*
X107243685Y-117102632D01*
X107243685Y-117102632D02*
X107315114Y-117031203D01*
X107315114Y-117031203D02*
X107457971Y-116959774D01*
X107457971Y-116959774D02*
X107815114Y-116959774D01*
X107815114Y-116959774D02*
X107957971Y-117031203D01*
X107957971Y-117031203D02*
X108029400Y-117102632D01*
X108029400Y-117102632D02*
X108100828Y-117245489D01*
X108100828Y-117245489D02*
X108100828Y-117674060D01*
X108100828Y-117674060D02*
X108029400Y-117816917D01*
X108029400Y-117816917D02*
X107957971Y-117888346D01*
X106600828Y-115602632D02*
X106600828Y-116316918D01*
X106600828Y-116316918D02*
X107315114Y-116388346D01*
X107315114Y-116388346D02*
X107243685Y-116316918D01*
X107243685Y-116316918D02*
X107172257Y-116174061D01*
X107172257Y-116174061D02*
X107172257Y-115816918D01*
X107172257Y-115816918D02*
X107243685Y-115674061D01*
X107243685Y-115674061D02*
X107315114Y-115602632D01*
X107315114Y-115602632D02*
X107457971Y-115531203D01*
X107457971Y-115531203D02*
X107815114Y-115531203D01*
X107815114Y-115531203D02*
X107957971Y-115602632D01*
X107957971Y-115602632D02*
X108029400Y-115674061D01*
X108029400Y-115674061D02*
X108100828Y-115816918D01*
X108100828Y-115816918D02*
X108100828Y-116174061D01*
X108100828Y-116174061D02*
X108029400Y-116316918D01*
X108029400Y-116316918D02*
X107957971Y-116388346D01*
X108100828Y-131659774D02*
X108100828Y-132516917D01*
X108100828Y-132088346D02*
X106600828Y-132088346D01*
X106600828Y-132088346D02*
X106815114Y-132231203D01*
X106815114Y-132231203D02*
X106957971Y-132374060D01*
X106957971Y-132374060D02*
X107029400Y-132516917D01*
X108100828Y-130945489D02*
X108100828Y-130659775D01*
X108100828Y-130659775D02*
X108029400Y-130516918D01*
X108029400Y-130516918D02*
X107957971Y-130445489D01*
X107957971Y-130445489D02*
X107743685Y-130302632D01*
X107743685Y-130302632D02*
X107457971Y-130231203D01*
X107457971Y-130231203D02*
X106886542Y-130231203D01*
X106886542Y-130231203D02*
X106743685Y-130302632D01*
X106743685Y-130302632D02*
X106672257Y-130374061D01*
X106672257Y-130374061D02*
X106600828Y-130516918D01*
X106600828Y-130516918D02*
X106600828Y-130802632D01*
X106600828Y-130802632D02*
X106672257Y-130945489D01*
X106672257Y-130945489D02*
X106743685Y-131016918D01*
X106743685Y-131016918D02*
X106886542Y-131088346D01*
X106886542Y-131088346D02*
X107243685Y-131088346D01*
X107243685Y-131088346D02*
X107386542Y-131016918D01*
X107386542Y-131016918D02*
X107457971Y-130945489D01*
X107457971Y-130945489D02*
X107529400Y-130802632D01*
X107529400Y-130802632D02*
X107529400Y-130516918D01*
X107529400Y-130516918D02*
X107457971Y-130374061D01*
X107457971Y-130374061D02*
X107386542Y-130302632D01*
X107386542Y-130302632D02*
X107243685Y-130231203D01*
X106600828Y-106588346D02*
X106600828Y-105659774D01*
X106600828Y-105659774D02*
X107172257Y-106159774D01*
X107172257Y-106159774D02*
X107172257Y-105945489D01*
X107172257Y-105945489D02*
X107243685Y-105802632D01*
X107243685Y-105802632D02*
X107315114Y-105731203D01*
X107315114Y-105731203D02*
X107457971Y-105659774D01*
X107457971Y-105659774D02*
X107815114Y-105659774D01*
X107815114Y-105659774D02*
X107957971Y-105731203D01*
X107957971Y-105731203D02*
X108029400Y-105802632D01*
X108029400Y-105802632D02*
X108100828Y-105945489D01*
X108100828Y-105945489D02*
X108100828Y-106374060D01*
X108100828Y-106374060D02*
X108029400Y-106516917D01*
X108029400Y-106516917D02*
X107957971Y-106588346D01*
X108100828Y-104945489D02*
X108100828Y-104659775D01*
X108100828Y-104659775D02*
X108029400Y-104516918D01*
X108029400Y-104516918D02*
X107957971Y-104445489D01*
X107957971Y-104445489D02*
X107743685Y-104302632D01*
X107743685Y-104302632D02*
X107457971Y-104231203D01*
X107457971Y-104231203D02*
X106886542Y-104231203D01*
X106886542Y-104231203D02*
X106743685Y-104302632D01*
X106743685Y-104302632D02*
X106672257Y-104374061D01*
X106672257Y-104374061D02*
X106600828Y-104516918D01*
X106600828Y-104516918D02*
X106600828Y-104802632D01*
X106600828Y-104802632D02*
X106672257Y-104945489D01*
X106672257Y-104945489D02*
X106743685Y-105016918D01*
X106743685Y-105016918D02*
X106886542Y-105088346D01*
X106886542Y-105088346D02*
X107243685Y-105088346D01*
X107243685Y-105088346D02*
X107386542Y-105016918D01*
X107386542Y-105016918D02*
X107457971Y-104945489D01*
X107457971Y-104945489D02*
X107529400Y-104802632D01*
X107529400Y-104802632D02*
X107529400Y-104516918D01*
X107529400Y-104516918D02*
X107457971Y-104374061D01*
X107457971Y-104374061D02*
X107386542Y-104302632D01*
X107386542Y-104302632D02*
X107243685Y-104231203D01*
X118554510Y-114797542D02*
X119697368Y-114797542D01*
X119125939Y-115368970D02*
X119125939Y-114226113D01*
X120268796Y-113868970D02*
X121197368Y-113868970D01*
X121197368Y-113868970D02*
X120697368Y-114440399D01*
X120697368Y-114440399D02*
X120911653Y-114440399D01*
X120911653Y-114440399D02*
X121054511Y-114511827D01*
X121054511Y-114511827D02*
X121125939Y-114583256D01*
X121125939Y-114583256D02*
X121197368Y-114726113D01*
X121197368Y-114726113D02*
X121197368Y-115083256D01*
X121197368Y-115083256D02*
X121125939Y-115226113D01*
X121125939Y-115226113D02*
X121054511Y-115297542D01*
X121054511Y-115297542D02*
X120911653Y-115368970D01*
X120911653Y-115368970D02*
X120483082Y-115368970D01*
X120483082Y-115368970D02*
X120340225Y-115297542D01*
X120340225Y-115297542D02*
X120268796Y-115226113D01*
X121625939Y-113868970D02*
X122125939Y-115368970D01*
X122125939Y-115368970D02*
X122625939Y-113868970D01*
X122983081Y-113868970D02*
X123911653Y-113868970D01*
X123911653Y-113868970D02*
X123411653Y-114440399D01*
X123411653Y-114440399D02*
X123625938Y-114440399D01*
X123625938Y-114440399D02*
X123768796Y-114511827D01*
X123768796Y-114511827D02*
X123840224Y-114583256D01*
X123840224Y-114583256D02*
X123911653Y-114726113D01*
X123911653Y-114726113D02*
X123911653Y-115083256D01*
X123911653Y-115083256D02*
X123840224Y-115226113D01*
X123840224Y-115226113D02*
X123768796Y-115297542D01*
X123768796Y-115297542D02*
X123625938Y-115368970D01*
X123625938Y-115368970D02*
X123197367Y-115368970D01*
X123197367Y-115368970D02*
X123054510Y-115297542D01*
X123054510Y-115297542D02*
X122983081Y-115226113D01*
X105600828Y-131659774D02*
X105600828Y-132516917D01*
X105600828Y-132088346D02*
X104100828Y-132088346D01*
X104100828Y-132088346D02*
X104315114Y-132231203D01*
X104315114Y-132231203D02*
X104457971Y-132374060D01*
X104457971Y-132374060D02*
X104529400Y-132516917D01*
X104743685Y-130802632D02*
X104672257Y-130945489D01*
X104672257Y-130945489D02*
X104600828Y-131016918D01*
X104600828Y-131016918D02*
X104457971Y-131088346D01*
X104457971Y-131088346D02*
X104386542Y-131088346D01*
X104386542Y-131088346D02*
X104243685Y-131016918D01*
X104243685Y-131016918D02*
X104172257Y-130945489D01*
X104172257Y-130945489D02*
X104100828Y-130802632D01*
X104100828Y-130802632D02*
X104100828Y-130516918D01*
X104100828Y-130516918D02*
X104172257Y-130374061D01*
X104172257Y-130374061D02*
X104243685Y-130302632D01*
X104243685Y-130302632D02*
X104386542Y-130231203D01*
X104386542Y-130231203D02*
X104457971Y-130231203D01*
X104457971Y-130231203D02*
X104600828Y-130302632D01*
X104600828Y-130302632D02*
X104672257Y-130374061D01*
X104672257Y-130374061D02*
X104743685Y-130516918D01*
X104743685Y-130516918D02*
X104743685Y-130802632D01*
X104743685Y-130802632D02*
X104815114Y-130945489D01*
X104815114Y-130945489D02*
X104886542Y-131016918D01*
X104886542Y-131016918D02*
X105029400Y-131088346D01*
X105029400Y-131088346D02*
X105315114Y-131088346D01*
X105315114Y-131088346D02*
X105457971Y-131016918D01*
X105457971Y-131016918D02*
X105529400Y-130945489D01*
X105529400Y-130945489D02*
X105600828Y-130802632D01*
X105600828Y-130802632D02*
X105600828Y-130516918D01*
X105600828Y-130516918D02*
X105529400Y-130374061D01*
X105529400Y-130374061D02*
X105457971Y-130302632D01*
X105457971Y-130302632D02*
X105315114Y-130231203D01*
X105315114Y-130231203D02*
X105029400Y-130231203D01*
X105029400Y-130231203D02*
X104886542Y-130302632D01*
X104886542Y-130302632D02*
X104815114Y-130374061D01*
X104815114Y-130374061D02*
X104743685Y-130516918D01*
X119554510Y-106547542D02*
X120697368Y-106547542D01*
X120125939Y-107118970D02*
X120125939Y-105976113D01*
X122125939Y-105618970D02*
X121411653Y-105618970D01*
X121411653Y-105618970D02*
X121340225Y-106333256D01*
X121340225Y-106333256D02*
X121411653Y-106261827D01*
X121411653Y-106261827D02*
X121554511Y-106190399D01*
X121554511Y-106190399D02*
X121911653Y-106190399D01*
X121911653Y-106190399D02*
X122054511Y-106261827D01*
X122054511Y-106261827D02*
X122125939Y-106333256D01*
X122125939Y-106333256D02*
X122197368Y-106476113D01*
X122197368Y-106476113D02*
X122197368Y-106833256D01*
X122197368Y-106833256D02*
X122125939Y-106976113D01*
X122125939Y-106976113D02*
X122054511Y-107047542D01*
X122054511Y-107047542D02*
X121911653Y-107118970D01*
X121911653Y-107118970D02*
X121554511Y-107118970D01*
X121554511Y-107118970D02*
X121411653Y-107047542D01*
X121411653Y-107047542D02*
X121340225Y-106976113D01*
X122625939Y-105618970D02*
X123125939Y-107118970D01*
X123125939Y-107118970D02*
X123625939Y-105618970D01*
X120900828Y-135159774D02*
X120900828Y-136016917D01*
X120900828Y-135588346D02*
X119400828Y-135588346D01*
X119400828Y-135588346D02*
X119615114Y-135731203D01*
X119615114Y-135731203D02*
X119757971Y-135874060D01*
X119757971Y-135874060D02*
X119829400Y-136016917D01*
X119400828Y-133802632D02*
X119400828Y-134516918D01*
X119400828Y-134516918D02*
X120115114Y-134588346D01*
X120115114Y-134588346D02*
X120043685Y-134516918D01*
X120043685Y-134516918D02*
X119972257Y-134374061D01*
X119972257Y-134374061D02*
X119972257Y-134016918D01*
X119972257Y-134016918D02*
X120043685Y-133874061D01*
X120043685Y-133874061D02*
X120115114Y-133802632D01*
X120115114Y-133802632D02*
X120257971Y-133731203D01*
X120257971Y-133731203D02*
X120615114Y-133731203D01*
X120615114Y-133731203D02*
X120757971Y-133802632D01*
X120757971Y-133802632D02*
X120829400Y-133874061D01*
X120829400Y-133874061D02*
X120900828Y-134016918D01*
X120900828Y-134016918D02*
X120900828Y-134374061D01*
X120900828Y-134374061D02*
X120829400Y-134516918D01*
X120829400Y-134516918D02*
X120757971Y-134588346D01*
X101643685Y-121116917D02*
X101572257Y-121045489D01*
X101572257Y-121045489D02*
X101500828Y-120902632D01*
X101500828Y-120902632D02*
X101500828Y-120545489D01*
X101500828Y-120545489D02*
X101572257Y-120402632D01*
X101572257Y-120402632D02*
X101643685Y-120331203D01*
X101643685Y-120331203D02*
X101786542Y-120259774D01*
X101786542Y-120259774D02*
X101929400Y-120259774D01*
X101929400Y-120259774D02*
X102143685Y-120331203D01*
X102143685Y-120331203D02*
X103000828Y-121188346D01*
X103000828Y-121188346D02*
X103000828Y-120259774D01*
X101500828Y-118902632D02*
X101500828Y-119616918D01*
X101500828Y-119616918D02*
X102215114Y-119688346D01*
X102215114Y-119688346D02*
X102143685Y-119616918D01*
X102143685Y-119616918D02*
X102072257Y-119474061D01*
X102072257Y-119474061D02*
X102072257Y-119116918D01*
X102072257Y-119116918D02*
X102143685Y-118974061D01*
X102143685Y-118974061D02*
X102215114Y-118902632D01*
X102215114Y-118902632D02*
X102357971Y-118831203D01*
X102357971Y-118831203D02*
X102715114Y-118831203D01*
X102715114Y-118831203D02*
X102857971Y-118902632D01*
X102857971Y-118902632D02*
X102929400Y-118974061D01*
X102929400Y-118974061D02*
X103000828Y-119116918D01*
X103000828Y-119116918D02*
X103000828Y-119474061D01*
X103000828Y-119474061D02*
X102929400Y-119616918D01*
X102929400Y-119616918D02*
X102857971Y-119688346D01*
X109200828Y-117888346D02*
X109200828Y-116959774D01*
X109200828Y-116959774D02*
X109772257Y-117459774D01*
X109772257Y-117459774D02*
X109772257Y-117245489D01*
X109772257Y-117245489D02*
X109843685Y-117102632D01*
X109843685Y-117102632D02*
X109915114Y-117031203D01*
X109915114Y-117031203D02*
X110057971Y-116959774D01*
X110057971Y-116959774D02*
X110415114Y-116959774D01*
X110415114Y-116959774D02*
X110557971Y-117031203D01*
X110557971Y-117031203D02*
X110629400Y-117102632D01*
X110629400Y-117102632D02*
X110700828Y-117245489D01*
X110700828Y-117245489D02*
X110700828Y-117674060D01*
X110700828Y-117674060D02*
X110629400Y-117816917D01*
X110629400Y-117816917D02*
X110557971Y-117888346D01*
X109200828Y-115674061D02*
X109200828Y-115959775D01*
X109200828Y-115959775D02*
X109272257Y-116102632D01*
X109272257Y-116102632D02*
X109343685Y-116174061D01*
X109343685Y-116174061D02*
X109557971Y-116316918D01*
X109557971Y-116316918D02*
X109843685Y-116388346D01*
X109843685Y-116388346D02*
X110415114Y-116388346D01*
X110415114Y-116388346D02*
X110557971Y-116316918D01*
X110557971Y-116316918D02*
X110629400Y-116245489D01*
X110629400Y-116245489D02*
X110700828Y-116102632D01*
X110700828Y-116102632D02*
X110700828Y-115816918D01*
X110700828Y-115816918D02*
X110629400Y-115674061D01*
X110629400Y-115674061D02*
X110557971Y-115602632D01*
X110557971Y-115602632D02*
X110415114Y-115531203D01*
X110415114Y-115531203D02*
X110057971Y-115531203D01*
X110057971Y-115531203D02*
X109915114Y-115602632D01*
X109915114Y-115602632D02*
X109843685Y-115674061D01*
X109843685Y-115674061D02*
X109772257Y-115816918D01*
X109772257Y-115816918D02*
X109772257Y-116102632D01*
X109772257Y-116102632D02*
X109843685Y-116245489D01*
X109843685Y-116245489D02*
X109915114Y-116316918D01*
X109915114Y-116316918D02*
X110057971Y-116388346D01*
X116900828Y-147059774D02*
X116900828Y-146916917D01*
X116900828Y-146916917D02*
X116972257Y-146774060D01*
X116972257Y-146774060D02*
X117043685Y-146702632D01*
X117043685Y-146702632D02*
X117186542Y-146631203D01*
X117186542Y-146631203D02*
X117472257Y-146559774D01*
X117472257Y-146559774D02*
X117829400Y-146559774D01*
X117829400Y-146559774D02*
X118115114Y-146631203D01*
X118115114Y-146631203D02*
X118257971Y-146702632D01*
X118257971Y-146702632D02*
X118329400Y-146774060D01*
X118329400Y-146774060D02*
X118400828Y-146916917D01*
X118400828Y-146916917D02*
X118400828Y-147059774D01*
X118400828Y-147059774D02*
X118329400Y-147202632D01*
X118329400Y-147202632D02*
X118257971Y-147274060D01*
X118257971Y-147274060D02*
X118115114Y-147345489D01*
X118115114Y-147345489D02*
X117829400Y-147416917D01*
X117829400Y-147416917D02*
X117472257Y-147416917D01*
X117472257Y-147416917D02*
X117186542Y-147345489D01*
X117186542Y-147345489D02*
X117043685Y-147274060D01*
X117043685Y-147274060D02*
X116972257Y-147202632D01*
X116972257Y-147202632D02*
X116900828Y-147059774D01*
X116900828Y-145274061D02*
X116900828Y-145559775D01*
X116900828Y-145559775D02*
X116972257Y-145702632D01*
X116972257Y-145702632D02*
X117043685Y-145774061D01*
X117043685Y-145774061D02*
X117257971Y-145916918D01*
X117257971Y-145916918D02*
X117543685Y-145988346D01*
X117543685Y-145988346D02*
X118115114Y-145988346D01*
X118115114Y-145988346D02*
X118257971Y-145916918D01*
X118257971Y-145916918D02*
X118329400Y-145845489D01*
X118329400Y-145845489D02*
X118400828Y-145702632D01*
X118400828Y-145702632D02*
X118400828Y-145416918D01*
X118400828Y-145416918D02*
X118329400Y-145274061D01*
X118329400Y-145274061D02*
X118257971Y-145202632D01*
X118257971Y-145202632D02*
X118115114Y-145131203D01*
X118115114Y-145131203D02*
X117757971Y-145131203D01*
X117757971Y-145131203D02*
X117615114Y-145202632D01*
X117615114Y-145202632D02*
X117543685Y-145274061D01*
X117543685Y-145274061D02*
X117472257Y-145416918D01*
X117472257Y-145416918D02*
X117472257Y-145702632D01*
X117472257Y-145702632D02*
X117543685Y-145845489D01*
X117543685Y-145845489D02*
X117615114Y-145916918D01*
X117615114Y-145916918D02*
X117757971Y-145988346D01*
X122143685Y-132516917D02*
X122072257Y-132445489D01*
X122072257Y-132445489D02*
X122000828Y-132302632D01*
X122000828Y-132302632D02*
X122000828Y-131945489D01*
X122000828Y-131945489D02*
X122072257Y-131802632D01*
X122072257Y-131802632D02*
X122143685Y-131731203D01*
X122143685Y-131731203D02*
X122286542Y-131659774D01*
X122286542Y-131659774D02*
X122429400Y-131659774D01*
X122429400Y-131659774D02*
X122643685Y-131731203D01*
X122643685Y-131731203D02*
X123500828Y-132588346D01*
X123500828Y-132588346D02*
X123500828Y-131659774D01*
X122500828Y-130374061D02*
X123500828Y-130374061D01*
X121929400Y-130731203D02*
X123000828Y-131088346D01*
X123000828Y-131088346D02*
X123000828Y-130159775D01*
X101500828Y-135659774D02*
X101500828Y-135516917D01*
X101500828Y-135516917D02*
X101572257Y-135374060D01*
X101572257Y-135374060D02*
X101643685Y-135302632D01*
X101643685Y-135302632D02*
X101786542Y-135231203D01*
X101786542Y-135231203D02*
X102072257Y-135159774D01*
X102072257Y-135159774D02*
X102429400Y-135159774D01*
X102429400Y-135159774D02*
X102715114Y-135231203D01*
X102715114Y-135231203D02*
X102857971Y-135302632D01*
X102857971Y-135302632D02*
X102929400Y-135374060D01*
X102929400Y-135374060D02*
X103000828Y-135516917D01*
X103000828Y-135516917D02*
X103000828Y-135659774D01*
X103000828Y-135659774D02*
X102929400Y-135802632D01*
X102929400Y-135802632D02*
X102857971Y-135874060D01*
X102857971Y-135874060D02*
X102715114Y-135945489D01*
X102715114Y-135945489D02*
X102429400Y-136016917D01*
X102429400Y-136016917D02*
X102072257Y-136016917D01*
X102072257Y-136016917D02*
X101786542Y-135945489D01*
X101786542Y-135945489D02*
X101643685Y-135874060D01*
X101643685Y-135874060D02*
X101572257Y-135802632D01*
X101572257Y-135802632D02*
X101500828Y-135659774D01*
X103000828Y-134445489D02*
X103000828Y-134159775D01*
X103000828Y-134159775D02*
X102929400Y-134016918D01*
X102929400Y-134016918D02*
X102857971Y-133945489D01*
X102857971Y-133945489D02*
X102643685Y-133802632D01*
X102643685Y-133802632D02*
X102357971Y-133731203D01*
X102357971Y-133731203D02*
X101786542Y-133731203D01*
X101786542Y-133731203D02*
X101643685Y-133802632D01*
X101643685Y-133802632D02*
X101572257Y-133874061D01*
X101572257Y-133874061D02*
X101500828Y-134016918D01*
X101500828Y-134016918D02*
X101500828Y-134302632D01*
X101500828Y-134302632D02*
X101572257Y-134445489D01*
X101572257Y-134445489D02*
X101643685Y-134516918D01*
X101643685Y-134516918D02*
X101786542Y-134588346D01*
X101786542Y-134588346D02*
X102143685Y-134588346D01*
X102143685Y-134588346D02*
X102286542Y-134516918D01*
X102286542Y-134516918D02*
X102357971Y-134445489D01*
X102357971Y-134445489D02*
X102429400Y-134302632D01*
X102429400Y-134302632D02*
X102429400Y-134016918D01*
X102429400Y-134016918D02*
X102357971Y-133874061D01*
X102357971Y-133874061D02*
X102286542Y-133802632D01*
X102286542Y-133802632D02*
X102143685Y-133731203D01*
D11*
%TO.C,X3*%
X110990476Y-128752219D02*
X111657142Y-129752219D01*
X111657142Y-128752219D02*
X110990476Y-129752219D01*
X111942857Y-128752219D02*
X112561904Y-128752219D01*
X112561904Y-128752219D02*
X112228571Y-129133171D01*
X112228571Y-129133171D02*
X112371428Y-129133171D01*
X112371428Y-129133171D02*
X112466666Y-129180790D01*
X112466666Y-129180790D02*
X112514285Y-129228409D01*
X112514285Y-129228409D02*
X112561904Y-129323647D01*
X112561904Y-129323647D02*
X112561904Y-129561742D01*
X112561904Y-129561742D02*
X112514285Y-129656980D01*
X112514285Y-129656980D02*
X112466666Y-129704600D01*
X112466666Y-129704600D02*
X112371428Y-129752219D01*
X112371428Y-129752219D02*
X112085714Y-129752219D01*
X112085714Y-129752219D02*
X111990476Y-129704600D01*
X111990476Y-129704600D02*
X111942857Y-129656980D01*
%TO.C,X2*%
X112490476Y-136652219D02*
X113157142Y-137652219D01*
X113157142Y-136652219D02*
X112490476Y-137652219D01*
X113490476Y-136747457D02*
X113538095Y-136699838D01*
X113538095Y-136699838D02*
X113633333Y-136652219D01*
X113633333Y-136652219D02*
X113871428Y-136652219D01*
X113871428Y-136652219D02*
X113966666Y-136699838D01*
X113966666Y-136699838D02*
X114014285Y-136747457D01*
X114014285Y-136747457D02*
X114061904Y-136842695D01*
X114061904Y-136842695D02*
X114061904Y-136937933D01*
X114061904Y-136937933D02*
X114014285Y-137080790D01*
X114014285Y-137080790D02*
X113442857Y-137652219D01*
X113442857Y-137652219D02*
X114061904Y-137652219D01*
%TO.C,U2*%
X120338095Y-92552219D02*
X120338095Y-93361742D01*
X120338095Y-93361742D02*
X120385714Y-93456980D01*
X120385714Y-93456980D02*
X120433333Y-93504600D01*
X120433333Y-93504600D02*
X120528571Y-93552219D01*
X120528571Y-93552219D02*
X120719047Y-93552219D01*
X120719047Y-93552219D02*
X120814285Y-93504600D01*
X120814285Y-93504600D02*
X120861904Y-93456980D01*
X120861904Y-93456980D02*
X120909523Y-93361742D01*
X120909523Y-93361742D02*
X120909523Y-92552219D01*
X121338095Y-92647457D02*
X121385714Y-92599838D01*
X121385714Y-92599838D02*
X121480952Y-92552219D01*
X121480952Y-92552219D02*
X121719047Y-92552219D01*
X121719047Y-92552219D02*
X121814285Y-92599838D01*
X121814285Y-92599838D02*
X121861904Y-92647457D01*
X121861904Y-92647457D02*
X121909523Y-92742695D01*
X121909523Y-92742695D02*
X121909523Y-92837933D01*
X121909523Y-92837933D02*
X121861904Y-92980790D01*
X121861904Y-92980790D02*
X121290476Y-93552219D01*
X121290476Y-93552219D02*
X121909523Y-93552219D01*
%TO.C,CN1*%
X111809523Y-105856980D02*
X111761904Y-105904600D01*
X111761904Y-105904600D02*
X111619047Y-105952219D01*
X111619047Y-105952219D02*
X111523809Y-105952219D01*
X111523809Y-105952219D02*
X111380952Y-105904600D01*
X111380952Y-105904600D02*
X111285714Y-105809361D01*
X111285714Y-105809361D02*
X111238095Y-105714123D01*
X111238095Y-105714123D02*
X111190476Y-105523647D01*
X111190476Y-105523647D02*
X111190476Y-105380790D01*
X111190476Y-105380790D02*
X111238095Y-105190314D01*
X111238095Y-105190314D02*
X111285714Y-105095076D01*
X111285714Y-105095076D02*
X111380952Y-104999838D01*
X111380952Y-104999838D02*
X111523809Y-104952219D01*
X111523809Y-104952219D02*
X111619047Y-104952219D01*
X111619047Y-104952219D02*
X111761904Y-104999838D01*
X111761904Y-104999838D02*
X111809523Y-105047457D01*
X112238095Y-105952219D02*
X112238095Y-104952219D01*
X112238095Y-104952219D02*
X112809523Y-105952219D01*
X112809523Y-105952219D02*
X112809523Y-104952219D01*
X113809523Y-105952219D02*
X113238095Y-105952219D01*
X113523809Y-105952219D02*
X113523809Y-104952219D01*
X113523809Y-104952219D02*
X113428571Y-105095076D01*
X113428571Y-105095076D02*
X113333333Y-105190314D01*
X113333333Y-105190314D02*
X113238095Y-105237933D01*
%TO.C,R1*%
X119654719Y-112166666D02*
X119178528Y-112499999D01*
X119654719Y-112738094D02*
X118654719Y-112738094D01*
X118654719Y-112738094D02*
X118654719Y-112357142D01*
X118654719Y-112357142D02*
X118702338Y-112261904D01*
X118702338Y-112261904D02*
X118749957Y-112214285D01*
X118749957Y-112214285D02*
X118845195Y-112166666D01*
X118845195Y-112166666D02*
X118988052Y-112166666D01*
X118988052Y-112166666D02*
X119083290Y-112214285D01*
X119083290Y-112214285D02*
X119130909Y-112261904D01*
X119130909Y-112261904D02*
X119178528Y-112357142D01*
X119178528Y-112357142D02*
X119178528Y-112738094D01*
X119654719Y-111214285D02*
X119654719Y-111785713D01*
X119654719Y-111499999D02*
X118654719Y-111499999D01*
X118654719Y-111499999D02*
X118797576Y-111595237D01*
X118797576Y-111595237D02*
X118892814Y-111690475D01*
X118892814Y-111690475D02*
X118940433Y-111785713D01*
%TO.C,X4*%
X112590476Y-121852219D02*
X113257142Y-122852219D01*
X113257142Y-121852219D02*
X112590476Y-122852219D01*
X114066666Y-122185552D02*
X114066666Y-122852219D01*
X113828571Y-121804600D02*
X113590476Y-122518885D01*
X113590476Y-122518885D02*
X114209523Y-122518885D01*
%TO.C,X5*%
X110990476Y-114052219D02*
X111657142Y-115052219D01*
X111657142Y-114052219D02*
X110990476Y-115052219D01*
X112514285Y-114052219D02*
X112038095Y-114052219D01*
X112038095Y-114052219D02*
X111990476Y-114528409D01*
X111990476Y-114528409D02*
X112038095Y-114480790D01*
X112038095Y-114480790D02*
X112133333Y-114433171D01*
X112133333Y-114433171D02*
X112371428Y-114433171D01*
X112371428Y-114433171D02*
X112466666Y-114480790D01*
X112466666Y-114480790D02*
X112514285Y-114528409D01*
X112514285Y-114528409D02*
X112561904Y-114623647D01*
X112561904Y-114623647D02*
X112561904Y-114861742D01*
X112561904Y-114861742D02*
X112514285Y-114956980D01*
X112514285Y-114956980D02*
X112466666Y-115004600D01*
X112466666Y-115004600D02*
X112371428Y-115052219D01*
X112371428Y-115052219D02*
X112133333Y-115052219D01*
X112133333Y-115052219D02*
X112038095Y-115004600D01*
X112038095Y-115004600D02*
X111990476Y-114956980D01*
%TO.C,X1*%
X110990476Y-143652219D02*
X111657142Y-144652219D01*
X111657142Y-143652219D02*
X110990476Y-144652219D01*
X112561904Y-144652219D02*
X111990476Y-144652219D01*
X112276190Y-144652219D02*
X112276190Y-143652219D01*
X112276190Y-143652219D02*
X112180952Y-143795076D01*
X112180952Y-143795076D02*
X112085714Y-143890314D01*
X112085714Y-143890314D02*
X111990476Y-143937933D01*
D12*
%TO.C,X3*%
X101159970Y-129501955D02*
G75*
G03*
X101159970Y-129501955I-29972J0D01*
G01*
D13*
X101383998Y-128974904D02*
G75*
G03*
X101383998Y-128974904I-127000J0D01*
G01*
X110886157Y-128339903D02*
X111310338Y-128339903D01*
X111310338Y-128339903D02*
X111310338Y-123259893D01*
X111310338Y-123259893D02*
X110886157Y-123259893D01*
X103266142Y-128339852D02*
X104073864Y-128339852D01*
X108346127Y-128339852D02*
X109153899Y-128339852D01*
X108346127Y-123259842D02*
X109153899Y-123259842D01*
X105806147Y-128339852D02*
X106613869Y-128339852D01*
X101002998Y-128339852D02*
X101533859Y-128339852D01*
X105806147Y-123259842D02*
X106613869Y-123259842D01*
X103266142Y-123259842D02*
X104073864Y-123259842D01*
X101002998Y-123259842D02*
X101533859Y-123259842D01*
X101002998Y-123259842D02*
X101002998Y-128339852D01*
D12*
%TO.C,X2*%
X113849962Y-144402057D02*
G75*
G03*
X113849962Y-144402057I-29972J0D01*
G01*
D13*
X114073990Y-143875006D02*
G75*
G03*
X114073990Y-143875006I-127000J0D01*
G01*
X123576149Y-143240005D02*
X124000330Y-143240005D01*
X124000330Y-143240005D02*
X124000330Y-138159995D01*
X124000330Y-138159995D02*
X123576149Y-138159995D01*
X115956134Y-143239954D02*
X116763856Y-143239954D01*
X121036119Y-143239954D02*
X121843891Y-143239954D01*
X121036119Y-138159944D02*
X121843891Y-138159944D01*
X118496139Y-143239954D02*
X119303861Y-143239954D01*
X113692990Y-143239954D02*
X114223851Y-143239954D01*
X118496139Y-138159944D02*
X119303861Y-138159944D01*
X115956134Y-138159944D02*
X116763856Y-138159944D01*
X113692990Y-138159944D02*
X114223851Y-138159944D01*
X113692990Y-138159944D02*
X113692990Y-143239954D01*
D12*
%TO.C,CN1*%
X123429922Y-102725276D02*
G75*
G03*
X123429922Y-102725276I-29997J0D01*
G01*
D14*
X119154688Y-94865357D02*
X117344960Y-94865357D01*
X121849151Y-94865357D02*
X121844960Y-94865357D01*
X121849151Y-94865357D02*
X123401094Y-94865357D01*
X123401094Y-94865357D02*
X123401094Y-100095228D01*
X101600230Y-96602721D02*
X101600230Y-94865357D01*
X101600230Y-94865357D02*
X103159793Y-94865357D01*
X101599900Y-100095025D02*
X101599900Y-97647882D01*
D15*
%TO.C,R1*%
X117250000Y-111762742D02*
X117250000Y-112237258D01*
X118295000Y-111762742D02*
X118295000Y-112237258D01*
%TO.C,R2*%
X117500000Y-107262742D02*
X117500000Y-107737258D01*
X118545000Y-107262742D02*
X118545000Y-107737258D01*
D12*
%TO.C,X4*%
X113859970Y-129501955D02*
G75*
G03*
X113859970Y-129501955I-29972J0D01*
G01*
D13*
X114083998Y-128974904D02*
G75*
G03*
X114083998Y-128974904I-127000J0D01*
G01*
X123586157Y-128339903D02*
X124010338Y-128339903D01*
X124010338Y-128339903D02*
X124010338Y-123259893D01*
X124010338Y-123259893D02*
X123586157Y-123259893D01*
X115966142Y-128339852D02*
X116773864Y-128339852D01*
X121046127Y-128339852D02*
X121853899Y-128339852D01*
X121046127Y-123259842D02*
X121853899Y-123259842D01*
X118506147Y-128339852D02*
X119313869Y-128339852D01*
X113702998Y-128339852D02*
X114233859Y-128339852D01*
X118506147Y-123259842D02*
X119313869Y-123259842D01*
X115966142Y-123259842D02*
X116773864Y-123259842D01*
X113702998Y-123259842D02*
X114233859Y-123259842D01*
X113702998Y-123259842D02*
X113702998Y-128339852D01*
D12*
%TO.C,X5*%
X101159970Y-114801955D02*
G75*
G03*
X101159970Y-114801955I-29972J0D01*
G01*
D13*
X101383998Y-114274904D02*
G75*
G03*
X101383998Y-114274904I-127000J0D01*
G01*
X110886157Y-113639903D02*
X111310338Y-113639903D01*
X111310338Y-113639903D02*
X111310338Y-108559893D01*
X111310338Y-108559893D02*
X110886157Y-108559893D01*
X103266142Y-113639852D02*
X104073864Y-113639852D01*
X108346127Y-113639852D02*
X109153899Y-113639852D01*
X108346127Y-108559842D02*
X109153899Y-108559842D01*
X105806147Y-113639852D02*
X106613869Y-113639852D01*
X101002998Y-113639852D02*
X101533859Y-113639852D01*
X105806147Y-108559842D02*
X106613869Y-108559842D01*
X103266142Y-108559842D02*
X104073864Y-108559842D01*
X101002998Y-108559842D02*
X101533859Y-108559842D01*
X101002998Y-108559842D02*
X101002998Y-113639852D01*
D12*
%TO.C,LED1*%
X122501439Y-107918120D02*
G75*
G03*
X122501439Y-107918120I-29972J0D01*
G01*
D16*
X121451578Y-107998080D02*
X121461535Y-107998080D01*
X121461535Y-107998080D02*
X121791583Y-108328128D01*
X121451578Y-108678115D02*
X121451578Y-108668133D01*
X121451578Y-108668133D02*
X121791583Y-108328128D01*
X121451578Y-108678115D02*
X121451578Y-107998080D01*
X121431538Y-109078191D02*
X120281525Y-109078191D01*
X121431538Y-107578064D02*
X120281525Y-107578064D01*
X120281525Y-109078090D02*
X120281525Y-107598156D01*
X121811548Y-107575753D02*
X122861662Y-107575753D01*
X123161611Y-107975829D02*
X123161611Y-107875804D01*
X123161611Y-107875804D02*
X122861662Y-107575753D01*
X123161611Y-108675778D02*
X123161611Y-107975829D01*
X123161611Y-108675778D02*
X123161611Y-108775931D01*
X123161611Y-108775931D02*
X122861662Y-109075880D01*
X121811548Y-109075880D02*
X122861662Y-109075880D01*
X121451578Y-108328128D02*
X121791583Y-108328128D01*
D12*
%TO.C,X1*%
X101139962Y-144401957D02*
G75*
G03*
X101139962Y-144401957I-29972J0D01*
G01*
D13*
X101363990Y-143874906D02*
G75*
G03*
X101363990Y-143874906I-127000J0D01*
G01*
X110866149Y-143239905D02*
X111290330Y-143239905D01*
X111290330Y-143239905D02*
X111290330Y-138159895D01*
X111290330Y-138159895D02*
X110866149Y-138159895D01*
X103246134Y-143239854D02*
X104053856Y-143239854D01*
X108326119Y-143239854D02*
X109133891Y-143239854D01*
X108326119Y-138159844D02*
X109133891Y-138159844D01*
X105786139Y-143239854D02*
X106593861Y-143239854D01*
X100982990Y-143239854D02*
X101513851Y-143239854D01*
X105786139Y-138159844D02*
X106593861Y-138159844D01*
X103246134Y-138159844D02*
X104053856Y-138159844D01*
X100982990Y-138159844D02*
X101513851Y-138159844D01*
X100982990Y-138159844D02*
X100982990Y-143239854D01*
D12*
%TO.C,LED2*%
X122501439Y-112168120D02*
G75*
G03*
X122501439Y-112168120I-29972J0D01*
G01*
D16*
X121451578Y-112248080D02*
X121461535Y-112248080D01*
X121461535Y-112248080D02*
X121791583Y-112578128D01*
X121451578Y-112928115D02*
X121451578Y-112918133D01*
X121451578Y-112918133D02*
X121791583Y-112578128D01*
X121451578Y-112928115D02*
X121451578Y-112248080D01*
X121431538Y-113328191D02*
X120281525Y-113328191D01*
X121431538Y-111828064D02*
X120281525Y-111828064D01*
X120281525Y-113328090D02*
X120281525Y-111848156D01*
X121811548Y-111825753D02*
X122861662Y-111825753D01*
X123161611Y-112225829D02*
X123161611Y-112125804D01*
X123161611Y-112125804D02*
X122861662Y-111825753D01*
X123161611Y-112925778D02*
X123161611Y-112225829D01*
X123161611Y-112925778D02*
X123161611Y-113025931D01*
X123161611Y-113025931D02*
X122861662Y-113325880D01*
X121811548Y-113325880D02*
X122861662Y-113325880D01*
X121451578Y-112578128D02*
X121791583Y-112578128D01*
%TD*%
%LPC*%
%TO.C,U2*%
D17*
X122425000Y-91900000D02*
X119225000Y-91900000D01*
X119225000Y-89900000D01*
X122425000Y-89900000D01*
X122425000Y-91900000D01*
G36*
X122425000Y-91900000D02*
G01*
X119225000Y-91900000D01*
X119225000Y-89900000D01*
X122425000Y-89900000D01*
X122425000Y-91900000D01*
G37*
X118025000Y-91900000D02*
X102575000Y-91900000D01*
X102575000Y-89900000D01*
X118025000Y-89900000D01*
X118025000Y-91900000D01*
G36*
X118025000Y-91900000D02*
G01*
X102575000Y-91900000D01*
X102575000Y-89900000D01*
X118025000Y-89900000D01*
X118025000Y-91900000D01*
G37*
%TD*%
D18*
%TO.C,X3*%
X107480011Y-122999796D03*
X107480011Y-128600000D03*
X104940005Y-122999796D03*
X104940005Y-128600000D03*
X102400000Y-122999796D03*
X102400000Y-128600000D03*
X110020016Y-128600000D03*
X110020016Y-123005892D03*
%TD*%
%TO.C,X2*%
X120170003Y-137899898D03*
X120170003Y-143500102D03*
X117629997Y-137899898D03*
X117629997Y-143500102D03*
X115089992Y-137899898D03*
X115089992Y-143500102D03*
X122710008Y-143500102D03*
X122710008Y-137905994D03*
%TD*%
D19*
%TO.C,CN1*%
X122849913Y-101675111D03*
X102149887Y-101675111D03*
D20*
X121749836Y-102400029D03*
X121499900Y-94850117D03*
X121249964Y-102400029D03*
X120999773Y-94850117D03*
X120749836Y-102400029D03*
X120499900Y-94850117D03*
X120249964Y-102400029D03*
X119999773Y-94850117D03*
X119749836Y-102400029D03*
X119499900Y-94850117D03*
X119249964Y-102400029D03*
X116999773Y-94850117D03*
X116749836Y-102400029D03*
X116499900Y-94850117D03*
X116249964Y-102400029D03*
X115999773Y-94850117D03*
X115749836Y-102400029D03*
X115499900Y-94850117D03*
X115249964Y-102400029D03*
X114999773Y-94850117D03*
X114749836Y-102400029D03*
X114499900Y-94850117D03*
X114249964Y-102400029D03*
X113999773Y-94850117D03*
X113749836Y-102400029D03*
X113499900Y-94850117D03*
X113249964Y-102400029D03*
X112999773Y-94850117D03*
X112749836Y-102400029D03*
X112499900Y-94850117D03*
X112249964Y-102400029D03*
X111999773Y-94850117D03*
X111749836Y-102400029D03*
X111499900Y-94850371D03*
X111249964Y-102400029D03*
X110999773Y-94850371D03*
X110749836Y-102400029D03*
X110499900Y-94850371D03*
X110249964Y-102400029D03*
X109999773Y-94850371D03*
X109749836Y-102400029D03*
X109499900Y-94850371D03*
X109249964Y-102400029D03*
X108999773Y-94850371D03*
X108749836Y-102400029D03*
X108499900Y-94850371D03*
X108249964Y-102400029D03*
X107999773Y-94850371D03*
X107749836Y-102400029D03*
X107499900Y-94850371D03*
X105249964Y-102400029D03*
X104999773Y-94850371D03*
X104749836Y-102400029D03*
X104499900Y-94850371D03*
X104249964Y-102400029D03*
X103999773Y-94850371D03*
X103749836Y-102400029D03*
X103499900Y-94850371D03*
X103249964Y-102400029D03*
D21*
X105749836Y-102400283D03*
X106249964Y-102400283D03*
X106749836Y-102400283D03*
X107249964Y-102400283D03*
X105499900Y-94850371D03*
X105999773Y-94850371D03*
X106499900Y-94850371D03*
X106999773Y-94850371D03*
D22*
X122499900Y-97125200D03*
D23*
X102499900Y-97125200D03*
%TD*%
D24*
%TO.C,R1*%
X117772500Y-111175000D03*
X117772500Y-112825000D03*
%TD*%
%TO.C,R2*%
X118022500Y-106675000D03*
X118022500Y-108325000D03*
%TD*%
D18*
%TO.C,X4*%
X120180011Y-122999796D03*
X120180011Y-128600000D03*
X117640005Y-122999796D03*
X117640005Y-128600000D03*
X115100000Y-122999796D03*
X115100000Y-128600000D03*
X122720016Y-128600000D03*
X122720016Y-123005892D03*
%TD*%
%TO.C,X5*%
X107480011Y-108299796D03*
X107480011Y-113900000D03*
X104940005Y-108299796D03*
X104940005Y-113900000D03*
X102400000Y-108299796D03*
X102400000Y-113900000D03*
X110020016Y-113900000D03*
X110020016Y-108305892D03*
%TD*%
D25*
%TO.C,LED1*%
X120872533Y-108325029D03*
X122471467Y-108318171D03*
%TD*%
D26*
%TO.C,H2*%
X112500000Y-149900000D03*
D27*
X112500000Y-149900000D03*
%TD*%
D18*
%TO.C,X1*%
X107460003Y-137899798D03*
X107460003Y-143500002D03*
X104919997Y-137899798D03*
X104919997Y-143500002D03*
X102379992Y-137899798D03*
X102379992Y-143500002D03*
X110000008Y-143500002D03*
X110000008Y-137905894D03*
%TD*%
D25*
%TO.C,LED2*%
X120872533Y-112575029D03*
X122471467Y-112568171D03*
%TD*%
%LPD*%
M02*
