M48
; DRILL file {KiCad 7.0.5} date Mon Sep 25 01:54:48 2023
; FORMAT={-:-/ absolute / inch / decimal}
; #@! TF.CreationDate,2023-09-25T01:54:48-05:00
; #@! TF.GenerationSoftware,Kicad,Pcbnew,7.0.5
; #@! TF.FileFunction,Plated,1,4,PTH
FMAT,2
INCH
; #@! TA.AperFunction,Plated,PTH,ViaDrill
T1C0.0118
; #@! TA.AperFunction,Plated,PTH,ComponentDrill
T2C0.0630
; #@! TA.AperFunction,Plated,PTH,ComponentDrill
T3C0.1260
%
G90
G05
T1
X3.9025Y-3.0046
X3.9213Y-4.6299
X3.9213Y-4.6614
X3.9357Y-3.1817
X3.9467Y-2.9539
X3.9646Y-4.185
X3.9646Y-4.2205
X3.9759Y-3.778
X3.977Y-3.2375
X3.9803Y-4.252
X3.9843Y-4.1575
X3.9843Y-4.6717
X3.986Y-3.1056
X4.0021Y-3.1402
X4.0157Y-4.1559
X4.0157Y-4.252
X4.023Y-2.9398
X4.0472Y-3.9866
X4.0472Y-4.626
X4.0507Y-3.778
X4.0531Y-3.3566
X4.0687Y-3.1222
X4.0836Y-3.0653
X4.0984Y-4.315
X4.0984Y-4.3465
X4.0984Y-4.6496
X4.0984Y-4.685
X4.1092Y-3.2465
X4.1298Y-3.2069
X4.1339Y-3.778
X4.1378Y-3.4331
X4.1417Y-4.4173
X4.1417Y-4.4528
X4.1417Y-4.4882
X4.1417Y-4.5236
X4.1417Y-4.5591
X4.1432Y-2.9393
X4.1529Y-3.2425
X4.1575Y-4.1969
X4.1593Y-3.0977
X4.1693Y-4.2638
X4.179Y-3.0669
X4.185Y-4.1402
X4.185Y-4.4157
X4.189Y-3.9315
X4.1909Y-3.3963
X4.1969Y-3.1402
X4.1969Y-3.2386
X4.2165Y-3.778
X4.2165Y-4.2244
X4.2185Y-3.3583
X4.2362Y-4.8071
X4.2424Y-3.0869
X4.2455Y-2.9491
X4.2598Y-4.4039
X4.2632Y-3.1314
X4.2641Y-3.3578
X4.2677Y-4.5575
X4.2795Y-4.6402
X4.2803Y-3.2083
X4.2913Y-3.778
X4.3091Y-3.357
X4.317Y-3.0693
X4.3425Y-4.5535
X4.3435Y-2.9365
X4.3447Y-3.099
X4.3543Y-4.1205
X4.3543Y-4.211
X4.3543Y-4.2937
X4.3622Y-4.7244
X4.3661Y-3.778
X4.368Y-3.0757
X4.3878Y-3.1342
X4.3898Y-4.1638
X4.3898Y-4.2583
X4.4028Y-2.95
X4.4173Y-3.6772
X4.4252Y-3.9827
X4.4252Y-4.1205
X4.4252Y-4.211
X4.4252Y-4.2937
X4.4294Y-3.0686
X4.4409Y-3.778
X4.4567Y-3.5181
X4.4606Y-3.4197
X4.4646Y-4.0024
X4.4808Y-3.0424
X4.5157Y-3.778
X4.5157Y-3.9748
X4.5431Y-3.2346
X4.5433Y-4.0024
X4.5433Y-4.4354
X4.5472Y-3.9591
X4.5489Y-3.1956
X4.5565Y-4.2208
X4.5669Y-4.185
X4.5847Y-3.2004
X4.5866Y-3.9669
X4.5906Y-3.778
X4.6075Y-3.1677
X4.622Y-3.9394
X4.622Y-4.3898
X4.6457Y-4.2087
X4.6496Y-3.1835
X4.6496Y-4.3606
X4.6535Y-3.8661
X4.6614Y-3.0299
X4.6811Y-4.1441
X4.685Y-4.3409
X4.6969Y-3.0535
X4.7047Y-4.2992
T2
X3.7795Y-5.5
X3.9795Y-5.5
X4.1795Y-5.5
X4.3795Y-5.5
X4.5795Y-5.5
X4.7795Y-5.5
T3
X4.2795Y-5.1795
T0
M30
