%TF.GenerationSoftware,KiCad,Pcbnew,7.0.5*%
%TF.CreationDate,2023-09-25T01:54:48-05:00*%
%TF.ProjectId,Chimera_0005_Stepper,4368696d-6572-4615-9f30-3030355f5374,rev?*%
%TF.SameCoordinates,Original*%
%TF.FileFunction,Copper,L2,Inr*%
%TF.FilePolarity,Positive*%
%FSLAX46Y46*%
G04 Gerber Fmt 4.6, Leading zero omitted, Abs format (unit mm)*
G04 Created by KiCad (PCBNEW 7.0.5) date 2023-09-25 01:54:48*
%MOMM*%
%LPD*%
G01*
G04 APERTURE LIST*
%ADD10C,0.300000*%
%TA.AperFunction,NonConductor*%
%ADD11C,0.300000*%
%TD*%
%TA.AperFunction,ComponentPad*%
%ADD12C,2.600000*%
%TD*%
%TA.AperFunction,ComponentPad*%
%ADD13C,3.600000*%
%TD*%
%TA.AperFunction,ViaPad*%
%ADD14C,0.600000*%
%TD*%
%TA.AperFunction,Conductor*%
%ADD15C,0.254000*%
%TD*%
G04 APERTURE END LIST*
D10*
D11*
X121597368Y-133400828D02*
X121311653Y-133400828D01*
X121311653Y-133400828D02*
X121168796Y-133472257D01*
X121168796Y-133472257D02*
X121097368Y-133543685D01*
X121097368Y-133543685D02*
X120954510Y-133757971D01*
X120954510Y-133757971D02*
X120883082Y-134043685D01*
X120883082Y-134043685D02*
X120883082Y-134615114D01*
X120883082Y-134615114D02*
X120954510Y-134757971D01*
X120954510Y-134757971D02*
X121025939Y-134829400D01*
X121025939Y-134829400D02*
X121168796Y-134900828D01*
X121168796Y-134900828D02*
X121454510Y-134900828D01*
X121454510Y-134900828D02*
X121597368Y-134829400D01*
X121597368Y-134829400D02*
X121668796Y-134757971D01*
X121668796Y-134757971D02*
X121740225Y-134615114D01*
X121740225Y-134615114D02*
X121740225Y-134257971D01*
X121740225Y-134257971D02*
X121668796Y-134115114D01*
X121668796Y-134115114D02*
X121597368Y-134043685D01*
X121597368Y-134043685D02*
X121454510Y-133972257D01*
X121454510Y-133972257D02*
X121168796Y-133972257D01*
X121168796Y-133972257D02*
X121025939Y-134043685D01*
X121025939Y-134043685D02*
X120954510Y-134115114D01*
X120954510Y-134115114D02*
X120883082Y-134257971D01*
D10*
D11*
X116868796Y-133400828D02*
X116154510Y-133400828D01*
X116154510Y-133400828D02*
X116083082Y-134115114D01*
X116083082Y-134115114D02*
X116154510Y-134043685D01*
X116154510Y-134043685D02*
X116297368Y-133972257D01*
X116297368Y-133972257D02*
X116654510Y-133972257D01*
X116654510Y-133972257D02*
X116797368Y-134043685D01*
X116797368Y-134043685D02*
X116868796Y-134115114D01*
X116868796Y-134115114D02*
X116940225Y-134257971D01*
X116940225Y-134257971D02*
X116940225Y-134615114D01*
X116940225Y-134615114D02*
X116868796Y-134757971D01*
X116868796Y-134757971D02*
X116797368Y-134829400D01*
X116797368Y-134829400D02*
X116654510Y-134900828D01*
X116654510Y-134900828D02*
X116297368Y-134900828D01*
X116297368Y-134900828D02*
X116154510Y-134829400D01*
X116154510Y-134829400D02*
X116083082Y-134757971D01*
D10*
D11*
X112897368Y-133900828D02*
X112897368Y-134900828D01*
X112540225Y-133329400D02*
X112183082Y-134400828D01*
X112183082Y-134400828D02*
X113111653Y-134400828D01*
D10*
D11*
X104211653Y-133400828D02*
X105140225Y-133400828D01*
X105140225Y-133400828D02*
X104640225Y-133972257D01*
X104640225Y-133972257D02*
X104854510Y-133972257D01*
X104854510Y-133972257D02*
X104997368Y-134043685D01*
X104997368Y-134043685D02*
X105068796Y-134115114D01*
X105068796Y-134115114D02*
X105140225Y-134257971D01*
X105140225Y-134257971D02*
X105140225Y-134615114D01*
X105140225Y-134615114D02*
X105068796Y-134757971D01*
X105068796Y-134757971D02*
X104997368Y-134829400D01*
X104997368Y-134829400D02*
X104854510Y-134900828D01*
X104854510Y-134900828D02*
X104425939Y-134900828D01*
X104425939Y-134900828D02*
X104283082Y-134829400D01*
X104283082Y-134829400D02*
X104211653Y-134757971D01*
D10*
D11*
X100683082Y-133543685D02*
X100754510Y-133472257D01*
X100754510Y-133472257D02*
X100897368Y-133400828D01*
X100897368Y-133400828D02*
X101254510Y-133400828D01*
X101254510Y-133400828D02*
X101397368Y-133472257D01*
X101397368Y-133472257D02*
X101468796Y-133543685D01*
X101468796Y-133543685D02*
X101540225Y-133686542D01*
X101540225Y-133686542D02*
X101540225Y-133829400D01*
X101540225Y-133829400D02*
X101468796Y-134043685D01*
X101468796Y-134043685D02*
X100611653Y-134900828D01*
X100611653Y-134900828D02*
X101540225Y-134900828D01*
D10*
D11*
X96540225Y-134900828D02*
X95683082Y-134900828D01*
X96111653Y-134900828D02*
X96111653Y-133400828D01*
X96111653Y-133400828D02*
X95968796Y-133615114D01*
X95968796Y-133615114D02*
X95825939Y-133757971D01*
X95825939Y-133757971D02*
X95683082Y-133829400D01*
D12*
%TO.N,+12V*%
%TO.C,U3*%
X121400050Y-139700000D03*
%TO.N,Motor_D*%
X116320040Y-139700000D03*
%TO.N,Motor_C*%
X111240030Y-139700000D03*
%TO.N,Motor_B*%
X106160020Y-139700000D03*
%TO.N,Motor_A*%
X101080010Y-139700000D03*
%TO.N,GND*%
X96000000Y-139700000D03*
%TD*%
D13*
%TO.N,N/C*%
%TO.C,H1*%
X108700000Y-131560000D03*
%TD*%
D14*
%TO.N,Net-(CN1-20-Pad47)*%
X106146500Y-77900000D03*
%TO.N,Motor_C*%
X110800000Y-120000000D03*
%TO.N,Motor_A*%
X107600000Y-122100000D03*
%TO.N,Net-(CN1-1-Pad11)*%
X115396000Y-82160000D03*
%TO.N,Net-(CN1-20-Pad21)*%
X113812000Y-77277700D03*
%TO.N,Net-(CN1-20-Pad23)*%
X112506000Y-77941400D03*
%TO.N,Net-(CN1-20-Pad25)*%
X111831000Y-74929900D03*
%TO.N,Net-(CN1-20-Pad27)*%
X111450000Y-79607800D03*
%TO.N,Net-(CN1-1-Pad66)*%
X101653500Y-79760000D03*
%TO.N,Net-(CN1-20-Pad33)*%
X109653000Y-77959800D03*
%TO.N,Net-(CN1-20-Pad35)*%
X109450000Y-85267000D03*
%TO.N,Net-(CN1-20-Pad37)*%
X108719000Y-81491700D03*
%TO.N,Net-(CN1-1-Pad5)*%
X117031000Y-80460000D03*
%TO.N,Net-(CN1-20-Pad39)*%
X108285000Y-79536300D03*
%TO.N,Net-(CN1-1-Pad69)*%
X101017000Y-82233000D03*
%TO.N,Net-(CN1-1-Pad71)*%
X100245000Y-75029500D03*
%TO.N,Net-(CN1-1-Pad73)*%
X99968000Y-80815600D03*
%TO.N,Net-(CN1-20-Pad41)*%
X107756000Y-78406600D03*
X108309000Y-85289000D03*
X107835000Y-74908200D03*
%TO.N,+3V3*%
X110300000Y-115660000D03*
X109000000Y-95960000D03*
X116600000Y-95960000D03*
X105000000Y-95960000D03*
X117400000Y-111500000D03*
X100987500Y-95960000D03*
X119500000Y-109200000D03*
X116500000Y-100760000D03*
X110900000Y-95960000D03*
X118900000Y-105260000D03*
X112800000Y-95960000D03*
X119300000Y-77560000D03*
%TO.N,Net-(CN1-20-Pad43)*%
X107151000Y-85300000D03*
%TO.N,Net-(CN1-20-Pad45)*%
X106600000Y-79760000D03*
%TO.N,Net-(CN1-20-Pad49)*%
X105646500Y-78681116D03*
%TO.N,Net-(CN1-20-Pad51)*%
X105238000Y-74658700D03*
X105483500Y-82360000D03*
%TO.N,Net-(CN1-20-Pad59)*%
X103344000Y-79304100D03*
%TO.N,Net-(CN1-20-Pad61)*%
X102950000Y-85258000D03*
%TO.N,Net-(CN1-1-Pad67)*%
X101245000Y-78881400D03*
%TO.N,Net-(CN1-1-Pad7)*%
X116451000Y-81289000D03*
%TO.N,Net-(CN1-20-Pad63)*%
X102185000Y-74670900D03*
%TO.N,Net-(CN1-1-Pad9)*%
X115543000Y-81167100D03*
%TO.N,GND*%
X100700000Y-107200000D03*
X115400000Y-112660000D03*
X105200000Y-114900000D03*
X102800000Y-117500000D03*
X102800000Y-101260000D03*
X110600000Y-104660000D03*
X102887500Y-95960000D03*
X112400000Y-109060000D03*
X101100000Y-108000000D03*
X112400000Y-106960000D03*
X105200000Y-115800000D03*
X101200000Y-118660000D03*
X111500000Y-108160000D03*
X110600000Y-109060000D03*
X110600000Y-106960000D03*
X99600000Y-118400000D03*
X112400000Y-104660000D03*
X114700000Y-95960000D03*
X105200000Y-114000000D03*
X101200000Y-105600000D03*
X102000000Y-105560000D03*
X102000000Y-108000000D03*
X118400000Y-76960000D03*
X99123000Y-76316200D03*
X99600000Y-117600000D03*
X108400000Y-115760000D03*
X107100000Y-95960000D03*
X105200000Y-113100000D03*
X113400000Y-101660000D03*
X111500000Y-105760000D03*
X105200000Y-112200000D03*
X100700000Y-106300000D03*
X106300000Y-112160000D03*
%TO.N,+5V*%
X113300000Y-86860000D03*
X113200000Y-89360000D03*
%TO.N,Net-(CN1-20-Pad29)*%
X110948000Y-78123100D03*
%TO.N,Net-(CN1-20-Pad31)*%
X110325000Y-74588000D03*
X110356000Y-78714400D03*
%TO.N,Net-(CN1-20-Pad47)*%
X106450000Y-86267100D03*
X106600000Y-82260000D03*
%TO.N,Net-(CN1-1-Pad3)*%
X118100000Y-80860000D03*
%TO.N,+12V*%
X104100000Y-110400000D03*
X104100000Y-119000000D03*
X104100000Y-109600000D03*
X104100000Y-118100000D03*
%TO.N,Net-(U1-MODE1)*%
X106400000Y-99860000D03*
X117400000Y-100060000D03*
%TO.N,Fault*%
X103724000Y-77859400D03*
%TO.N,Net-(U1-DECAY)*%
X118000000Y-106900000D03*
X115500000Y-100560000D03*
%TO.N,Net-(U1-NENBL)*%
X112400000Y-101160000D03*
X115735971Y-107208608D03*
%TO.N,Net-(U1-nSLEEP)*%
X119000000Y-110260000D03*
X115400000Y-101660000D03*
%TO.N,Net-(U1-nRESET)*%
X118100000Y-110760000D03*
X114700000Y-100960000D03*
%TO.N,Motor_D*%
X106300000Y-105160000D03*
%TO.N,Motor_A*%
X108200000Y-111860000D03*
X105600000Y-106600000D03*
%TO.N,Motor_B*%
X107100000Y-107300000D03*
%TO.N,Motor_C*%
X108700000Y-117860000D03*
X105900000Y-108300000D03*
%TO.N,STEP_INC*%
X104896500Y-81455501D03*
X105100000Y-87200000D03*
X116000000Y-106300000D03*
%TO.N,Direction*%
X104374000Y-82460000D03*
X112200000Y-93400000D03*
X118200000Y-98200000D03*
%TD*%
D15*
%TO.N,Net-(CN1-20-Pad47)*%
X106600000Y-82260000D02*
X106597000Y-82263000D01*
X106597000Y-82263000D02*
X106597000Y-85557000D01*
%TD*%
%TA.AperFunction,Conductor*%
%TO.N,GND*%
G36*
X113967539Y-71780185D02*
G01*
X114013294Y-71832989D01*
X114024500Y-71884500D01*
X114024500Y-74544135D01*
X114051444Y-74670900D01*
X114059486Y-74708731D01*
X114127928Y-74862455D01*
X114226836Y-74998589D01*
X114226837Y-74998590D01*
X114226838Y-74998591D01*
X114226840Y-74998594D01*
X114302907Y-75067084D01*
X114351886Y-75111185D01*
X114497614Y-75195321D01*
X114497616Y-75195321D01*
X114497619Y-75195323D01*
X114538941Y-75208749D01*
X114657650Y-75247320D01*
X114825000Y-75264909D01*
X114992350Y-75247320D01*
X115152386Y-75195321D01*
X115298114Y-75111185D01*
X115399255Y-75020117D01*
X115423159Y-74998594D01*
X115423159Y-74998592D01*
X115423164Y-74998589D01*
X115522072Y-74862455D01*
X115590514Y-74708731D01*
X115625500Y-74544136D01*
X115625500Y-74460000D01*
X115625500Y-74420118D01*
X115625500Y-71884500D01*
X115645185Y-71817461D01*
X115697989Y-71771706D01*
X115749500Y-71760500D01*
X118300500Y-71760500D01*
X118367539Y-71780185D01*
X118413294Y-71832989D01*
X118424500Y-71884499D01*
X118424500Y-75020118D01*
X118424500Y-75060000D01*
X118424500Y-75128993D01*
X118424500Y-75128995D01*
X118424499Y-75128995D01*
X118451418Y-75264322D01*
X118451421Y-75264332D01*
X118504221Y-75391804D01*
X118504228Y-75391817D01*
X118580885Y-75506541D01*
X118580888Y-75506545D01*
X118678454Y-75604111D01*
X118678458Y-75604114D01*
X118793182Y-75680771D01*
X118793195Y-75680778D01*
X118876465Y-75715269D01*
X118920672Y-75733580D01*
X118920676Y-75733580D01*
X118920677Y-75733581D01*
X119056004Y-75760500D01*
X119056007Y-75760500D01*
X119102410Y-75760500D01*
X119565589Y-75760500D01*
X119632628Y-75780185D01*
X119653269Y-75796818D01*
X120463181Y-76606731D01*
X120496665Y-76668052D01*
X120499499Y-76694410D01*
X120499499Y-108902884D01*
X120479814Y-108969923D01*
X120427010Y-109015678D01*
X120357852Y-109025622D01*
X120294296Y-108996597D01*
X120258457Y-108943838D01*
X120225789Y-108850478D01*
X120129815Y-108697737D01*
X120002262Y-108570184D01*
X119849523Y-108474211D01*
X119679254Y-108414631D01*
X119679249Y-108414630D01*
X119500004Y-108394435D01*
X119499996Y-108394435D01*
X119320750Y-108414630D01*
X119320745Y-108414631D01*
X119150476Y-108474211D01*
X118997737Y-108570184D01*
X118870184Y-108697737D01*
X118774211Y-108850476D01*
X118714631Y-109020745D01*
X118714630Y-109020750D01*
X118694435Y-109199996D01*
X118694435Y-109200003D01*
X118714631Y-109379252D01*
X118715185Y-109380836D01*
X118715240Y-109381922D01*
X118716181Y-109386044D01*
X118715458Y-109386208D01*
X118718743Y-109450615D01*
X118684011Y-109511241D01*
X118656340Y-109530452D01*
X118656374Y-109530506D01*
X118655210Y-109531237D01*
X118651944Y-109533505D01*
X118650476Y-109534211D01*
X118497737Y-109630184D01*
X118370184Y-109757737D01*
X118370182Y-109757740D01*
X118278350Y-109903888D01*
X118226015Y-109950179D01*
X118159475Y-109961135D01*
X118100004Y-109954435D01*
X118099996Y-109954435D01*
X117920750Y-109974630D01*
X117920745Y-109974631D01*
X117750476Y-110034211D01*
X117597737Y-110130184D01*
X117470184Y-110257737D01*
X117374210Y-110410478D01*
X117314630Y-110580750D01*
X117311476Y-110608744D01*
X117284408Y-110673158D01*
X117226812Y-110712711D01*
X117224037Y-110713480D01*
X117050478Y-110774210D01*
X116897737Y-110870184D01*
X116770184Y-110997737D01*
X116674211Y-111150476D01*
X116614631Y-111320745D01*
X116614630Y-111320750D01*
X116594435Y-111499996D01*
X116594435Y-111500003D01*
X116614630Y-111679249D01*
X116614631Y-111679254D01*
X116674211Y-111849523D01*
X116770183Y-112002262D01*
X116770184Y-112002262D01*
X116897738Y-112129816D01*
X117050478Y-112225789D01*
X117220745Y-112285367D01*
X117220745Y-112285368D01*
X117220750Y-112285369D01*
X117399996Y-112305565D01*
X117400000Y-112305565D01*
X117400004Y-112305565D01*
X117579249Y-112285369D01*
X117579252Y-112285368D01*
X117579255Y-112285368D01*
X117749522Y-112225789D01*
X117902262Y-112129816D01*
X118029816Y-112002262D01*
X118125789Y-111849522D01*
X118185368Y-111679255D01*
X118188522Y-111651258D01*
X118215586Y-111586847D01*
X118273180Y-111547291D01*
X118275962Y-111546520D01*
X118279253Y-111545368D01*
X118279255Y-111545368D01*
X118449522Y-111485789D01*
X118602262Y-111389816D01*
X118729816Y-111262262D01*
X118821649Y-111116109D01*
X118873981Y-111069821D01*
X118940525Y-111058864D01*
X118999997Y-111065565D01*
X119000000Y-111065565D01*
X119000004Y-111065565D01*
X119179249Y-111045369D01*
X119179252Y-111045368D01*
X119179255Y-111045368D01*
X119349522Y-110985789D01*
X119502262Y-110889816D01*
X119629816Y-110762262D01*
X119725789Y-110609522D01*
X119785368Y-110439255D01*
X119785369Y-110439249D01*
X119805565Y-110260003D01*
X119805565Y-110259996D01*
X119785369Y-110080754D01*
X119785368Y-110080745D01*
X119784818Y-110079175D01*
X119784763Y-110078098D01*
X119783819Y-110073961D01*
X119784543Y-110073795D01*
X119781251Y-110009403D01*
X119815974Y-109948772D01*
X119843659Y-109929548D01*
X119843625Y-109929494D01*
X119844813Y-109928747D01*
X119848060Y-109926493D01*
X119849519Y-109925790D01*
X119849518Y-109925790D01*
X119849522Y-109925789D01*
X120002262Y-109829816D01*
X120129816Y-109702262D01*
X120225789Y-109549522D01*
X120258457Y-109456159D01*
X120299178Y-109399385D01*
X120364131Y-109373637D01*
X120432693Y-109387093D01*
X120483096Y-109435480D01*
X120499499Y-109497115D01*
X120499499Y-131551893D01*
X120495160Y-131581173D01*
X120494848Y-131585622D01*
X120498025Y-131606033D01*
X120498879Y-131617075D01*
X120499500Y-131622595D01*
X120502485Y-131635674D01*
X120503301Y-131639931D01*
X120508925Y-131676059D01*
X120511584Y-131682741D01*
X120514709Y-131689229D01*
X120514710Y-131689231D01*
X120514711Y-131689232D01*
X120537515Y-131717827D01*
X120540090Y-131721298D01*
X120547703Y-131732349D01*
X120547707Y-131732352D01*
X120551345Y-131736539D01*
X120558900Y-131744642D01*
X120571776Y-131760788D01*
X120575273Y-131763577D01*
X120599756Y-131780183D01*
X120751811Y-131919909D01*
X120787855Y-131979764D01*
X120785818Y-132049604D01*
X120746345Y-132107255D01*
X120681970Y-132134414D01*
X120667910Y-132135214D01*
X119685214Y-132135214D01*
X119685214Y-135814786D01*
X122993357Y-135814786D01*
X122993357Y-134262056D01*
X123013042Y-134195017D01*
X123065846Y-134149262D01*
X123135004Y-134139318D01*
X123198560Y-134168343D01*
X123201253Y-134170746D01*
X124079093Y-134977410D01*
X124159402Y-135051207D01*
X124195445Y-135111062D01*
X124199500Y-135142512D01*
X124199500Y-143675500D01*
X124179815Y-143742539D01*
X124127011Y-143788294D01*
X124075500Y-143799500D01*
X93324500Y-143799500D01*
X93257461Y-143779815D01*
X93211706Y-143727011D01*
X93200500Y-143675500D01*
X93200500Y-139700004D01*
X94194953Y-139700004D01*
X94215113Y-139969026D01*
X94215113Y-139969028D01*
X94275142Y-140232033D01*
X94275148Y-140232052D01*
X94373709Y-140483181D01*
X94373708Y-140483181D01*
X94508602Y-140716822D01*
X94562294Y-140784151D01*
X95283338Y-140063107D01*
X95370577Y-140201948D01*
X95498052Y-140329423D01*
X95636890Y-140416661D01*
X94914848Y-141138702D01*
X95097483Y-141263220D01*
X95097485Y-141263221D01*
X95340539Y-141380269D01*
X95340537Y-141380269D01*
X95598337Y-141459790D01*
X95598343Y-141459792D01*
X95865101Y-141499999D01*
X95865110Y-141500000D01*
X96134890Y-141500000D01*
X96134898Y-141499999D01*
X96401656Y-141459792D01*
X96401662Y-141459790D01*
X96659461Y-141380269D01*
X96902521Y-141263218D01*
X97085150Y-141138702D01*
X96363108Y-140416661D01*
X96501948Y-140329423D01*
X96629423Y-140201948D01*
X96716661Y-140063108D01*
X97437703Y-140784151D01*
X97437704Y-140784150D01*
X97491393Y-140716828D01*
X97491400Y-140716817D01*
X97626290Y-140483181D01*
X97724851Y-140232052D01*
X97724857Y-140232033D01*
X97784886Y-139969028D01*
X97784886Y-139969026D01*
X97805047Y-139700004D01*
X99274461Y-139700004D01*
X99294626Y-139969101D01*
X99312932Y-140049303D01*
X99354676Y-140232195D01*
X99453267Y-140483398D01*
X99588195Y-140717102D01*
X99641665Y-140784151D01*
X99756452Y-140928089D01*
X99943193Y-141101358D01*
X99954269Y-141111635D01*
X100177236Y-141263651D01*
X100420369Y-141380738D01*
X100678238Y-141460280D01*
X100678239Y-141460280D01*
X100678242Y-141460281D01*
X100945073Y-141500499D01*
X100945078Y-141500499D01*
X100945081Y-141500500D01*
X100945082Y-141500500D01*
X101214938Y-141500500D01*
X101214939Y-141500500D01*
X101214946Y-141500499D01*
X101481777Y-141460281D01*
X101481778Y-141460280D01*
X101481782Y-141460280D01*
X101739651Y-141380738D01*
X101982785Y-141263651D01*
X102205751Y-141111635D01*
X102403571Y-140928085D01*
X102571825Y-140717102D01*
X102706753Y-140483398D01*
X102805344Y-140232195D01*
X102865393Y-139969103D01*
X102885559Y-139700004D01*
X104354471Y-139700004D01*
X104374636Y-139969101D01*
X104392942Y-140049303D01*
X104434686Y-140232195D01*
X104533277Y-140483398D01*
X104668205Y-140717102D01*
X104721675Y-140784151D01*
X104836462Y-140928089D01*
X105023203Y-141101358D01*
X105034279Y-141111635D01*
X105257246Y-141263651D01*
X105500379Y-141380738D01*
X105758248Y-141460280D01*
X105758249Y-141460280D01*
X105758252Y-141460281D01*
X106025083Y-141500499D01*
X106025088Y-141500499D01*
X106025091Y-141500500D01*
X106025092Y-141500500D01*
X106294948Y-141500500D01*
X106294949Y-141500500D01*
X106294956Y-141500499D01*
X106561787Y-141460281D01*
X106561788Y-141460280D01*
X106561792Y-141460280D01*
X106819661Y-141380738D01*
X107062795Y-141263651D01*
X107285761Y-141111635D01*
X107483581Y-140928085D01*
X107651835Y-140717102D01*
X107786763Y-140483398D01*
X107885354Y-140232195D01*
X107945403Y-139969103D01*
X107965569Y-139700004D01*
X109434481Y-139700004D01*
X109454646Y-139969101D01*
X109472952Y-140049303D01*
X109514696Y-140232195D01*
X109613287Y-140483398D01*
X109748215Y-140717102D01*
X109801685Y-140784151D01*
X109916472Y-140928089D01*
X110103213Y-141101358D01*
X110114289Y-141111635D01*
X110337256Y-141263651D01*
X110580389Y-141380738D01*
X110838258Y-141460280D01*
X110838259Y-141460280D01*
X110838262Y-141460281D01*
X111105093Y-141500499D01*
X111105098Y-141500499D01*
X111105101Y-141500500D01*
X111105102Y-141500500D01*
X111374958Y-141500500D01*
X111374959Y-141500500D01*
X111374966Y-141500499D01*
X111641797Y-141460281D01*
X111641798Y-141460280D01*
X111641802Y-141460280D01*
X111899671Y-141380738D01*
X112142805Y-141263651D01*
X112365771Y-141111635D01*
X112563591Y-140928085D01*
X112731845Y-140717102D01*
X112866773Y-140483398D01*
X112965364Y-140232195D01*
X113025413Y-139969103D01*
X113045579Y-139700004D01*
X114514491Y-139700004D01*
X114534656Y-139969101D01*
X114552962Y-140049303D01*
X114594706Y-140232195D01*
X114693297Y-140483398D01*
X114828225Y-140717102D01*
X114881695Y-140784151D01*
X114996482Y-140928089D01*
X115183223Y-141101358D01*
X115194299Y-141111635D01*
X115417266Y-141263651D01*
X115660399Y-141380738D01*
X115918268Y-141460280D01*
X115918269Y-141460280D01*
X115918272Y-141460281D01*
X116185103Y-141500499D01*
X116185108Y-141500499D01*
X116185111Y-141500500D01*
X116185112Y-141500500D01*
X116454968Y-141500500D01*
X116454969Y-141500500D01*
X116454976Y-141500499D01*
X116721807Y-141460281D01*
X116721808Y-141460280D01*
X116721812Y-141460280D01*
X116979681Y-141380738D01*
X117222815Y-141263651D01*
X117445781Y-141111635D01*
X117643601Y-140928085D01*
X117811855Y-140717102D01*
X117946783Y-140483398D01*
X118045374Y-140232195D01*
X118105423Y-139969103D01*
X118125589Y-139700004D01*
X119594501Y-139700004D01*
X119614666Y-139969101D01*
X119632972Y-140049303D01*
X119674716Y-140232195D01*
X119773307Y-140483398D01*
X119908235Y-140717102D01*
X119961705Y-140784151D01*
X120076492Y-140928089D01*
X120263233Y-141101358D01*
X120274309Y-141111635D01*
X120497276Y-141263651D01*
X120740409Y-141380738D01*
X120998278Y-141460280D01*
X120998279Y-141460280D01*
X120998282Y-141460281D01*
X121265113Y-141500499D01*
X121265118Y-141500499D01*
X121265121Y-141500500D01*
X121265122Y-141500500D01*
X121534978Y-141500500D01*
X121534979Y-141500500D01*
X121534986Y-141500499D01*
X121801817Y-141460281D01*
X121801818Y-141460280D01*
X121801822Y-141460280D01*
X122059691Y-141380738D01*
X122302825Y-141263651D01*
X122525791Y-141111635D01*
X122723611Y-140928085D01*
X122891865Y-140717102D01*
X123026793Y-140483398D01*
X123125384Y-140232195D01*
X123185433Y-139969103D01*
X123205599Y-139700000D01*
X123185433Y-139430897D01*
X123125384Y-139167805D01*
X123026793Y-138916602D01*
X122891865Y-138682898D01*
X122723611Y-138471915D01*
X122723610Y-138471914D01*
X122723607Y-138471910D01*
X122525791Y-138288365D01*
X122486088Y-138261296D01*
X122302825Y-138136349D01*
X122302819Y-138136346D01*
X122302818Y-138136345D01*
X122302817Y-138136344D01*
X122059693Y-138019263D01*
X122059695Y-138019263D01*
X121801823Y-137939720D01*
X121801817Y-137939718D01*
X121534986Y-137899500D01*
X121534979Y-137899500D01*
X121265121Y-137899500D01*
X121265113Y-137899500D01*
X120998282Y-137939718D01*
X120998276Y-137939720D01*
X120740408Y-138019262D01*
X120497280Y-138136346D01*
X120274308Y-138288365D01*
X120076492Y-138471910D01*
X119908235Y-138682898D01*
X119773308Y-138916599D01*
X119773306Y-138916603D01*
X119674716Y-139167804D01*
X119674714Y-139167811D01*
X119614666Y-139430898D01*
X119594501Y-139699995D01*
X119594501Y-139700004D01*
X118125589Y-139700004D01*
X118125589Y-139700000D01*
X118105423Y-139430897D01*
X118045374Y-139167805D01*
X117946783Y-138916602D01*
X117811855Y-138682898D01*
X117643601Y-138471915D01*
X117643600Y-138471914D01*
X117643597Y-138471910D01*
X117445781Y-138288365D01*
X117406078Y-138261296D01*
X117222815Y-138136349D01*
X117222809Y-138136346D01*
X117222808Y-138136345D01*
X117222807Y-138136344D01*
X116979683Y-138019263D01*
X116979685Y-138019263D01*
X116721813Y-137939720D01*
X116721807Y-137939718D01*
X116454976Y-137899500D01*
X116454969Y-137899500D01*
X116185111Y-137899500D01*
X116185103Y-137899500D01*
X115918272Y-137939718D01*
X115918266Y-137939720D01*
X115660398Y-138019262D01*
X115417270Y-138136346D01*
X115194298Y-138288365D01*
X114996482Y-138471910D01*
X114828225Y-138682898D01*
X114693298Y-138916599D01*
X114693296Y-138916603D01*
X114594706Y-139167804D01*
X114594704Y-139167811D01*
X114534656Y-139430898D01*
X114514491Y-139699995D01*
X114514491Y-139700004D01*
X113045579Y-139700004D01*
X113045579Y-139700000D01*
X113025413Y-139430897D01*
X112965364Y-139167805D01*
X112866773Y-138916602D01*
X112731845Y-138682898D01*
X112563591Y-138471915D01*
X112563590Y-138471914D01*
X112563587Y-138471910D01*
X112365771Y-138288365D01*
X112326068Y-138261296D01*
X112142805Y-138136349D01*
X112142799Y-138136346D01*
X112142798Y-138136345D01*
X112142797Y-138136344D01*
X111899673Y-138019263D01*
X111899675Y-138019263D01*
X111641803Y-137939720D01*
X111641797Y-137939718D01*
X111374966Y-137899500D01*
X111374959Y-137899500D01*
X111105101Y-137899500D01*
X111105093Y-137899500D01*
X110838262Y-137939718D01*
X110838256Y-137939720D01*
X110580388Y-138019262D01*
X110337260Y-138136346D01*
X110114288Y-138288365D01*
X109916472Y-138471910D01*
X109748215Y-138682898D01*
X109613288Y-138916599D01*
X109613286Y-138916603D01*
X109514696Y-139167804D01*
X109514694Y-139167811D01*
X109454646Y-139430898D01*
X109434481Y-139699995D01*
X109434481Y-139700004D01*
X107965569Y-139700004D01*
X107965569Y-139700000D01*
X107945403Y-139430897D01*
X107885354Y-139167805D01*
X107786763Y-138916602D01*
X107651835Y-138682898D01*
X107483581Y-138471915D01*
X107483580Y-138471914D01*
X107483577Y-138471910D01*
X107285761Y-138288365D01*
X107246058Y-138261296D01*
X107062795Y-138136349D01*
X107062789Y-138136346D01*
X107062788Y-138136345D01*
X107062787Y-138136344D01*
X106819663Y-138019263D01*
X106819665Y-138019263D01*
X106561793Y-137939720D01*
X106561787Y-137939718D01*
X106294956Y-137899500D01*
X106294949Y-137899500D01*
X106025091Y-137899500D01*
X106025083Y-137899500D01*
X105758252Y-137939718D01*
X105758246Y-137939720D01*
X105500378Y-138019262D01*
X105257250Y-138136346D01*
X105034278Y-138288365D01*
X104836462Y-138471910D01*
X104668205Y-138682898D01*
X104533278Y-138916599D01*
X104533276Y-138916603D01*
X104434686Y-139167804D01*
X104434684Y-139167811D01*
X104374636Y-139430898D01*
X104354471Y-139699995D01*
X104354471Y-139700004D01*
X102885559Y-139700004D01*
X102885559Y-139700000D01*
X102865393Y-139430897D01*
X102805344Y-139167805D01*
X102706753Y-138916602D01*
X102571825Y-138682898D01*
X102403571Y-138471915D01*
X102403570Y-138471914D01*
X102403567Y-138471910D01*
X102205751Y-138288365D01*
X102166048Y-138261296D01*
X101982785Y-138136349D01*
X101982779Y-138136346D01*
X101982778Y-138136345D01*
X101982777Y-138136344D01*
X101739653Y-138019263D01*
X101739655Y-138019263D01*
X101481783Y-137939720D01*
X101481777Y-137939718D01*
X101214946Y-137899500D01*
X101214939Y-137899500D01*
X100945081Y-137899500D01*
X100945073Y-137899500D01*
X100678242Y-137939718D01*
X100678236Y-137939720D01*
X100420368Y-138019262D01*
X100177240Y-138136346D01*
X99954268Y-138288365D01*
X99756452Y-138471910D01*
X99588195Y-138682898D01*
X99453268Y-138916599D01*
X99453266Y-138916603D01*
X99354676Y-139167804D01*
X99354674Y-139167811D01*
X99294626Y-139430898D01*
X99274461Y-139699995D01*
X99274461Y-139700004D01*
X97805047Y-139700004D01*
X97805047Y-139699995D01*
X97784886Y-139430973D01*
X97784886Y-139430971D01*
X97724857Y-139167966D01*
X97724851Y-139167947D01*
X97626290Y-138916818D01*
X97626291Y-138916818D01*
X97491397Y-138683177D01*
X97437704Y-138615847D01*
X96716660Y-139336890D01*
X96629423Y-139198052D01*
X96501948Y-139070577D01*
X96363108Y-138983338D01*
X97085150Y-138261296D01*
X96902517Y-138136779D01*
X96902516Y-138136778D01*
X96659460Y-138019730D01*
X96659462Y-138019730D01*
X96401662Y-137940209D01*
X96401656Y-137940207D01*
X96134898Y-137900000D01*
X95865101Y-137900000D01*
X95598343Y-137940207D01*
X95598337Y-137940209D01*
X95340538Y-138019730D01*
X95097485Y-138136778D01*
X95097476Y-138136783D01*
X94914848Y-138261296D01*
X95636891Y-138983338D01*
X95498052Y-139070577D01*
X95370577Y-139198052D01*
X95283338Y-139336891D01*
X94562295Y-138615848D01*
X94508600Y-138683180D01*
X94373709Y-138916818D01*
X94275148Y-139167947D01*
X94275142Y-139167966D01*
X94215113Y-139430971D01*
X94215113Y-139430973D01*
X94194953Y-139699995D01*
X94194953Y-139700004D01*
X93200500Y-139700004D01*
X93200500Y-135142512D01*
X93220185Y-135075473D01*
X93240598Y-135051207D01*
X93471299Y-134839212D01*
X94277312Y-134098550D01*
X94339995Y-134067685D01*
X94409414Y-134075607D01*
X94463530Y-134119802D01*
X94485161Y-134186239D01*
X94485214Y-134189856D01*
X94485214Y-135814786D01*
X97793357Y-135814786D01*
X97793357Y-132135214D01*
X99485214Y-132135214D01*
X99485214Y-135814786D01*
X102793357Y-135814786D01*
X103085214Y-135814786D01*
X106393357Y-135814786D01*
X106393357Y-132615751D01*
X106413042Y-132548712D01*
X106465846Y-132502957D01*
X106535004Y-132493013D01*
X106598560Y-132522038D01*
X106628569Y-132560907D01*
X106703431Y-132712713D01*
X106703435Y-132712720D01*
X106870973Y-132963459D01*
X107069810Y-133190189D01*
X107296540Y-133389026D01*
X107547279Y-133556564D01*
X107547286Y-133556568D01*
X107817731Y-133689937D01*
X107817736Y-133689939D01*
X107817748Y-133689945D01*
X108103309Y-133786880D01*
X108303251Y-133826651D01*
X108399069Y-133845711D01*
X108399070Y-133845711D01*
X108399080Y-133845713D01*
X108700000Y-133865436D01*
X109000920Y-133845713D01*
X109296691Y-133786880D01*
X109582252Y-133689945D01*
X109852718Y-133556566D01*
X110103461Y-133389025D01*
X110330189Y-133190189D01*
X110529025Y-132963461D01*
X110696566Y-132712718D01*
X110750002Y-132604359D01*
X110797307Y-132552941D01*
X110864902Y-132535259D01*
X110931326Y-132556929D01*
X110975491Y-132611070D01*
X110985214Y-132659204D01*
X110985214Y-135814786D01*
X114293357Y-135814786D01*
X114293357Y-132135214D01*
X114885214Y-132135214D01*
X114885214Y-135814786D01*
X118193357Y-135814786D01*
X118193357Y-132135214D01*
X114885214Y-132135214D01*
X114293357Y-132135214D01*
X111082246Y-132135214D01*
X111015207Y-132115529D01*
X110969452Y-132062725D01*
X110959508Y-131993567D01*
X110960625Y-131987041D01*
X110985713Y-131860920D01*
X111005436Y-131560000D01*
X110985713Y-131259080D01*
X110926880Y-130963309D01*
X110829945Y-130677748D01*
X110696566Y-130407282D01*
X110529025Y-130156539D01*
X110330189Y-129929810D01*
X110103459Y-129730973D01*
X109852720Y-129563435D01*
X109852713Y-129563431D01*
X109582268Y-129430062D01*
X109582247Y-129430053D01*
X109296698Y-129333122D01*
X109296692Y-129333120D01*
X109296691Y-129333120D01*
X109296689Y-129333119D01*
X109296683Y-129333118D01*
X109000930Y-129274288D01*
X109000921Y-129274287D01*
X109000920Y-129274287D01*
X108700000Y-129254564D01*
X108399080Y-129274287D01*
X108399079Y-129274287D01*
X108399069Y-129274288D01*
X108103316Y-129333118D01*
X108103301Y-129333122D01*
X107817752Y-129430053D01*
X107817731Y-129430062D01*
X107547286Y-129563431D01*
X107547279Y-129563435D01*
X107296540Y-129730973D01*
X107069810Y-129929810D01*
X106870973Y-130156540D01*
X106703435Y-130407279D01*
X106703431Y-130407286D01*
X106570062Y-130677731D01*
X106570053Y-130677752D01*
X106473122Y-130963301D01*
X106473118Y-130963316D01*
X106414288Y-131259069D01*
X106414287Y-131259079D01*
X106414287Y-131259080D01*
X106394564Y-131560000D01*
X106414287Y-131860920D01*
X106439370Y-131987023D01*
X106433144Y-132056614D01*
X106390281Y-132111791D01*
X106324392Y-132135036D01*
X106317754Y-132135214D01*
X103085214Y-132135214D01*
X103085214Y-135814786D01*
X102793357Y-135814786D01*
X102793357Y-132135214D01*
X99485214Y-132135214D01*
X97793357Y-132135214D01*
X96732089Y-132135214D01*
X96665050Y-132115529D01*
X96619295Y-132062725D01*
X96609351Y-131993567D01*
X96638376Y-131930011D01*
X96648187Y-131919910D01*
X96800240Y-131780185D01*
X96824734Y-131763571D01*
X96828220Y-131760791D01*
X96828221Y-131760789D01*
X96828224Y-131760788D01*
X96841101Y-131744639D01*
X96848658Y-131736536D01*
X96852293Y-131732354D01*
X96852295Y-131732350D01*
X96852297Y-131732349D01*
X96859907Y-131721299D01*
X96862485Y-131717826D01*
X96885289Y-131689232D01*
X96885288Y-131689232D01*
X96885290Y-131689231D01*
X96885290Y-131689228D01*
X96888409Y-131682751D01*
X96891074Y-131676059D01*
X96891075Y-131676058D01*
X96896703Y-131639895D01*
X96897508Y-131635693D01*
X96900500Y-131622590D01*
X96900500Y-131622585D01*
X96901119Y-131617088D01*
X96901975Y-131606033D01*
X96902362Y-131603544D01*
X96905152Y-131585622D01*
X96905150Y-131585617D01*
X96904839Y-131581170D01*
X96900500Y-131551893D01*
X96900500Y-122100003D01*
X106794435Y-122100003D01*
X106814630Y-122279249D01*
X106814631Y-122279254D01*
X106874211Y-122449523D01*
X106970184Y-122602261D01*
X106970184Y-122602262D01*
X107097738Y-122729816D01*
X107250478Y-122825789D01*
X107420744Y-122885368D01*
X107420745Y-122885368D01*
X107420750Y-122885369D01*
X107599996Y-122905565D01*
X107600000Y-122905565D01*
X107600004Y-122905565D01*
X107779249Y-122885369D01*
X107779252Y-122885368D01*
X107779255Y-122885368D01*
X107949522Y-122825789D01*
X108102262Y-122729816D01*
X108229816Y-122602262D01*
X108325789Y-122449522D01*
X108385368Y-122279255D01*
X108405565Y-122100000D01*
X108385368Y-121920745D01*
X108325789Y-121750478D01*
X108229816Y-121597738D01*
X108102262Y-121470184D01*
X108102261Y-121470183D01*
X107949523Y-121374211D01*
X107779254Y-121314631D01*
X107779249Y-121314630D01*
X107600004Y-121294435D01*
X107599996Y-121294435D01*
X107420750Y-121314630D01*
X107420745Y-121314631D01*
X107250476Y-121374211D01*
X107097737Y-121470184D01*
X106970184Y-121597737D01*
X106874211Y-121750476D01*
X106814631Y-121920745D01*
X106814630Y-121920750D01*
X106794435Y-122099996D01*
X106794435Y-122100003D01*
X96900500Y-122100003D01*
X96900500Y-120000003D01*
X109994435Y-120000003D01*
X110014630Y-120179249D01*
X110014631Y-120179254D01*
X110074211Y-120349523D01*
X110170183Y-120502261D01*
X110170184Y-120502262D01*
X110297738Y-120629816D01*
X110450478Y-120725789D01*
X110620744Y-120785368D01*
X110620745Y-120785368D01*
X110620750Y-120785369D01*
X110799996Y-120805565D01*
X110800000Y-120805565D01*
X110800004Y-120805565D01*
X110979249Y-120785369D01*
X110979252Y-120785368D01*
X110979255Y-120785368D01*
X111149522Y-120725789D01*
X111302262Y-120629816D01*
X111429816Y-120502262D01*
X111525789Y-120349522D01*
X111585368Y-120179255D01*
X111605565Y-120000000D01*
X111585368Y-119820745D01*
X111525789Y-119650478D01*
X111429816Y-119497738D01*
X111302262Y-119370184D01*
X111269379Y-119349522D01*
X111149523Y-119274211D01*
X110979254Y-119214631D01*
X110979249Y-119214630D01*
X110800004Y-119194435D01*
X110799996Y-119194435D01*
X110620750Y-119214630D01*
X110620745Y-119214631D01*
X110450476Y-119274211D01*
X110297737Y-119370184D01*
X110170184Y-119497737D01*
X110074211Y-119650476D01*
X110014631Y-119820745D01*
X110014630Y-119820750D01*
X109994435Y-119999996D01*
X109994435Y-120000003D01*
X96900500Y-120000003D01*
X96900500Y-119000003D01*
X103294435Y-119000003D01*
X103314630Y-119179249D01*
X103314631Y-119179254D01*
X103374211Y-119349523D01*
X103467341Y-119497737D01*
X103470184Y-119502262D01*
X103597738Y-119629816D01*
X103750478Y-119725789D01*
X103920744Y-119785368D01*
X103920745Y-119785368D01*
X103920750Y-119785369D01*
X104099996Y-119805565D01*
X104100000Y-119805565D01*
X104100004Y-119805565D01*
X104279249Y-119785369D01*
X104279252Y-119785368D01*
X104279255Y-119785368D01*
X104449522Y-119725789D01*
X104602262Y-119629816D01*
X104729816Y-119502262D01*
X104825789Y-119349522D01*
X104885368Y-119179255D01*
X104905565Y-119000000D01*
X104885368Y-118820745D01*
X104885367Y-118820743D01*
X104885366Y-118820737D01*
X104825790Y-118650481D01*
X104825789Y-118650477D01*
X104804107Y-118615971D01*
X104785107Y-118548734D01*
X104804108Y-118484026D01*
X104825789Y-118449522D01*
X104885368Y-118279255D01*
X104905565Y-118100000D01*
X104898720Y-118039249D01*
X104885369Y-117920750D01*
X104885368Y-117920745D01*
X104864113Y-117860003D01*
X107894435Y-117860003D01*
X107914630Y-118039249D01*
X107914631Y-118039254D01*
X107974211Y-118209523D01*
X108070183Y-118362261D01*
X108070184Y-118362262D01*
X108197738Y-118489816D01*
X108350478Y-118585789D01*
X108520744Y-118645368D01*
X108520745Y-118645368D01*
X108520750Y-118645369D01*
X108699996Y-118665565D01*
X108700000Y-118665565D01*
X108700004Y-118665565D01*
X108879249Y-118645369D01*
X108879252Y-118645368D01*
X108879255Y-118645368D01*
X109049522Y-118585789D01*
X109202262Y-118489816D01*
X109329816Y-118362262D01*
X109425789Y-118209522D01*
X109485368Y-118039255D01*
X109485369Y-118039249D01*
X109505565Y-117860003D01*
X109505565Y-117859996D01*
X109485369Y-117680750D01*
X109485368Y-117680745D01*
X109485367Y-117680745D01*
X109425789Y-117510478D01*
X109329816Y-117357738D01*
X109202262Y-117230184D01*
X109202262Y-117230183D01*
X109049523Y-117134211D01*
X108879254Y-117074631D01*
X108879249Y-117074630D01*
X108700004Y-117054435D01*
X108699996Y-117054435D01*
X108520750Y-117074630D01*
X108520745Y-117074631D01*
X108350476Y-117134211D01*
X108197737Y-117230184D01*
X108070184Y-117357737D01*
X107974211Y-117510476D01*
X107914631Y-117680745D01*
X107914630Y-117680750D01*
X107894435Y-117859996D01*
X107894435Y-117860003D01*
X104864113Y-117860003D01*
X104825788Y-117750476D01*
X104729815Y-117597737D01*
X104602262Y-117470184D01*
X104449523Y-117374211D01*
X104279254Y-117314631D01*
X104279249Y-117314630D01*
X104100004Y-117294435D01*
X104099996Y-117294435D01*
X103920750Y-117314630D01*
X103920745Y-117314631D01*
X103750476Y-117374211D01*
X103597737Y-117470184D01*
X103470184Y-117597737D01*
X103374211Y-117750476D01*
X103314631Y-117920745D01*
X103314630Y-117920750D01*
X103294435Y-118099996D01*
X103294435Y-118100003D01*
X103314630Y-118279249D01*
X103314631Y-118279254D01*
X103374212Y-118449525D01*
X103395892Y-118484029D01*
X103414892Y-118551265D01*
X103395893Y-118615970D01*
X103374209Y-118650480D01*
X103314633Y-118820737D01*
X103314630Y-118820750D01*
X103294435Y-118999996D01*
X103294435Y-119000003D01*
X96900500Y-119000003D01*
X96900500Y-115660003D01*
X109494435Y-115660003D01*
X109514630Y-115839249D01*
X109514631Y-115839254D01*
X109574211Y-116009523D01*
X109670183Y-116162262D01*
X109670184Y-116162262D01*
X109797738Y-116289816D01*
X109950478Y-116385789D01*
X110120744Y-116445367D01*
X110120745Y-116445368D01*
X110120750Y-116445369D01*
X110299996Y-116465565D01*
X110300000Y-116465565D01*
X110300004Y-116465565D01*
X110479249Y-116445369D01*
X110479252Y-116445368D01*
X110479255Y-116445368D01*
X110649522Y-116385789D01*
X110802262Y-116289816D01*
X110929816Y-116162262D01*
X111025789Y-116009522D01*
X111085368Y-115839255D01*
X111105565Y-115660000D01*
X111085368Y-115480745D01*
X111025789Y-115310478D01*
X110929816Y-115157738D01*
X110802262Y-115030184D01*
X110802262Y-115030183D01*
X110649523Y-114934211D01*
X110479254Y-114874631D01*
X110479249Y-114874630D01*
X110300004Y-114854435D01*
X110299996Y-114854435D01*
X110120750Y-114874630D01*
X110120745Y-114874631D01*
X109950476Y-114934211D01*
X109797737Y-115030184D01*
X109670184Y-115157737D01*
X109574211Y-115310476D01*
X109514631Y-115480745D01*
X109514630Y-115480750D01*
X109494435Y-115659996D01*
X109494435Y-115660003D01*
X96900500Y-115660003D01*
X96900500Y-111860003D01*
X107394435Y-111860003D01*
X107414630Y-112039249D01*
X107414631Y-112039254D01*
X107474211Y-112209523D01*
X107484432Y-112225789D01*
X107570184Y-112362262D01*
X107697738Y-112489816D01*
X107850478Y-112585789D01*
X108020745Y-112645368D01*
X108020750Y-112645369D01*
X108199996Y-112665565D01*
X108200000Y-112665565D01*
X108200004Y-112665565D01*
X108379249Y-112645369D01*
X108379252Y-112645368D01*
X108379255Y-112645368D01*
X108549522Y-112585789D01*
X108702262Y-112489816D01*
X108829816Y-112362262D01*
X108925789Y-112209522D01*
X108985368Y-112039255D01*
X109005565Y-111860000D01*
X109004384Y-111849522D01*
X108985369Y-111680750D01*
X108985368Y-111680745D01*
X108938670Y-111547291D01*
X108925789Y-111510478D01*
X108829816Y-111357738D01*
X108702262Y-111230184D01*
X108663081Y-111205565D01*
X108549523Y-111134211D01*
X108379254Y-111074631D01*
X108379249Y-111074630D01*
X108200004Y-111054435D01*
X108199996Y-111054435D01*
X108020750Y-111074630D01*
X108020745Y-111074631D01*
X107850476Y-111134211D01*
X107697737Y-111230184D01*
X107570184Y-111357737D01*
X107474211Y-111510476D01*
X107414631Y-111680745D01*
X107414630Y-111680750D01*
X107394435Y-111859996D01*
X107394435Y-111860003D01*
X96900500Y-111860003D01*
X96900500Y-110400003D01*
X103294435Y-110400003D01*
X103314630Y-110579249D01*
X103314631Y-110579254D01*
X103374211Y-110749523D01*
X103389724Y-110774211D01*
X103470184Y-110902262D01*
X103597738Y-111029816D01*
X103750478Y-111125789D01*
X103920744Y-111185368D01*
X103920745Y-111185368D01*
X103920750Y-111185369D01*
X104099996Y-111205565D01*
X104100000Y-111205565D01*
X104100004Y-111205565D01*
X104279249Y-111185369D01*
X104279252Y-111185368D01*
X104279255Y-111185368D01*
X104449522Y-111125789D01*
X104602262Y-111029816D01*
X104729816Y-110902262D01*
X104825789Y-110749522D01*
X104885368Y-110579255D01*
X104901142Y-110439255D01*
X104905565Y-110400003D01*
X104905565Y-110399996D01*
X104885369Y-110220750D01*
X104885366Y-110220737D01*
X104823489Y-110043905D01*
X104825637Y-110043153D01*
X104816035Y-109984872D01*
X104824392Y-109956411D01*
X104823489Y-109956095D01*
X104885366Y-109779262D01*
X104885369Y-109779249D01*
X104905565Y-109600003D01*
X104905565Y-109599996D01*
X104885369Y-109420750D01*
X104885368Y-109420745D01*
X104825788Y-109250476D01*
X104729815Y-109097737D01*
X104602262Y-108970184D01*
X104449523Y-108874211D01*
X104279254Y-108814631D01*
X104279249Y-108814630D01*
X104100004Y-108794435D01*
X104099996Y-108794435D01*
X103920750Y-108814630D01*
X103920745Y-108814631D01*
X103750476Y-108874211D01*
X103597737Y-108970184D01*
X103470184Y-109097737D01*
X103374211Y-109250476D01*
X103314631Y-109420745D01*
X103314630Y-109420750D01*
X103294435Y-109599996D01*
X103294435Y-109600003D01*
X103314630Y-109779249D01*
X103314633Y-109779262D01*
X103376510Y-109956094D01*
X103374364Y-109956844D01*
X103383962Y-110015144D01*
X103375609Y-110043590D01*
X103376510Y-110043906D01*
X103314633Y-110220737D01*
X103314630Y-110220750D01*
X103294435Y-110399996D01*
X103294435Y-110400003D01*
X96900500Y-110400003D01*
X96900500Y-106600003D01*
X104794435Y-106600003D01*
X104814630Y-106779249D01*
X104814631Y-106779254D01*
X104874211Y-106949523D01*
X104924372Y-107029353D01*
X104970184Y-107102262D01*
X105097738Y-107229816D01*
X105250478Y-107325789D01*
X105420745Y-107385368D01*
X105420750Y-107385369D01*
X105433449Y-107386800D01*
X105497864Y-107413866D01*
X105537419Y-107471460D01*
X105539558Y-107541297D01*
X105503600Y-107601204D01*
X105485540Y-107615013D01*
X105397740Y-107670182D01*
X105397737Y-107670184D01*
X105270184Y-107797737D01*
X105174211Y-107950476D01*
X105114631Y-108120745D01*
X105114630Y-108120750D01*
X105094435Y-108299996D01*
X105094435Y-108300003D01*
X105114630Y-108479249D01*
X105114631Y-108479254D01*
X105174211Y-108649523D01*
X105204507Y-108697738D01*
X105270184Y-108802262D01*
X105397738Y-108929816D01*
X105420054Y-108943838D01*
X105542450Y-109020745D01*
X105550478Y-109025789D01*
X105720745Y-109085367D01*
X105720745Y-109085368D01*
X105720750Y-109085369D01*
X105899996Y-109105565D01*
X105900000Y-109105565D01*
X105900004Y-109105565D01*
X106079249Y-109085369D01*
X106079252Y-109085368D01*
X106079255Y-109085368D01*
X106249522Y-109025789D01*
X106402262Y-108929816D01*
X106529816Y-108802262D01*
X106625789Y-108649522D01*
X106685368Y-108479255D01*
X106685369Y-108479249D01*
X106705565Y-108300003D01*
X106705565Y-108299997D01*
X106693653Y-108194278D01*
X106705707Y-108125456D01*
X106753056Y-108074076D01*
X106820666Y-108056452D01*
X106857828Y-108063353D01*
X106920737Y-108085366D01*
X106920743Y-108085367D01*
X106920745Y-108085368D01*
X106920746Y-108085368D01*
X106920750Y-108085369D01*
X107099996Y-108105565D01*
X107100000Y-108105565D01*
X107100004Y-108105565D01*
X107279249Y-108085369D01*
X107279252Y-108085368D01*
X107279255Y-108085368D01*
X107449522Y-108025789D01*
X107602262Y-107929816D01*
X107729816Y-107802262D01*
X107825789Y-107649522D01*
X107885368Y-107479255D01*
X107885369Y-107479249D01*
X107905565Y-107300003D01*
X107905565Y-107299996D01*
X107895268Y-107208611D01*
X114930406Y-107208611D01*
X114950601Y-107387857D01*
X114950602Y-107387862D01*
X115010182Y-107558131D01*
X115020286Y-107574211D01*
X115106155Y-107710870D01*
X115233709Y-107838424D01*
X115324051Y-107895190D01*
X115379156Y-107929815D01*
X115386449Y-107934397D01*
X115432406Y-107950478D01*
X115556716Y-107993976D01*
X115556721Y-107993977D01*
X115735967Y-108014173D01*
X115735971Y-108014173D01*
X115735975Y-108014173D01*
X115915220Y-107993977D01*
X115915223Y-107993976D01*
X115915226Y-107993976D01*
X116085493Y-107934397D01*
X116238233Y-107838424D01*
X116365787Y-107710870D01*
X116461760Y-107558130D01*
X116521339Y-107387863D01*
X116528333Y-107325788D01*
X116541536Y-107208611D01*
X116541536Y-107208604D01*
X116521340Y-107029356D01*
X116516326Y-107015027D01*
X116512764Y-106945248D01*
X116538071Y-106900003D01*
X117194435Y-106900003D01*
X117214630Y-107079249D01*
X117214631Y-107079254D01*
X117274211Y-107249523D01*
X117359569Y-107385368D01*
X117370184Y-107402262D01*
X117497738Y-107529816D01*
X117650478Y-107625789D01*
X117718306Y-107649523D01*
X117820745Y-107685368D01*
X117820750Y-107685369D01*
X117999996Y-107705565D01*
X118000000Y-107705565D01*
X118000004Y-107705565D01*
X118179249Y-107685369D01*
X118179252Y-107685368D01*
X118179255Y-107685368D01*
X118349522Y-107625789D01*
X118502262Y-107529816D01*
X118629816Y-107402262D01*
X118725789Y-107249522D01*
X118785368Y-107079255D01*
X118790990Y-107029358D01*
X118805565Y-106900003D01*
X118805565Y-106899996D01*
X118785369Y-106720750D01*
X118785368Y-106720745D01*
X118749654Y-106618680D01*
X118725789Y-106550478D01*
X118703265Y-106514632D01*
X118629815Y-106397737D01*
X118502262Y-106270184D01*
X118349523Y-106174211D01*
X118179254Y-106114631D01*
X118179249Y-106114630D01*
X118000004Y-106094435D01*
X117999996Y-106094435D01*
X117820750Y-106114630D01*
X117820745Y-106114631D01*
X117650476Y-106174211D01*
X117497737Y-106270184D01*
X117370184Y-106397737D01*
X117274211Y-106550476D01*
X117214631Y-106720745D01*
X117214630Y-106720750D01*
X117194435Y-106899996D01*
X117194435Y-106900003D01*
X116538071Y-106900003D01*
X116545683Y-106886394D01*
X116629816Y-106802262D01*
X116725789Y-106649522D01*
X116785368Y-106479255D01*
X116791960Y-106420750D01*
X116805565Y-106300003D01*
X116805565Y-106299996D01*
X116785369Y-106120750D01*
X116785368Y-106120745D01*
X116783228Y-106114630D01*
X116725789Y-105950478D01*
X116629816Y-105797738D01*
X116502262Y-105670184D01*
X116405721Y-105609523D01*
X116349523Y-105574211D01*
X116179254Y-105514631D01*
X116179249Y-105514630D01*
X116000004Y-105494435D01*
X115999996Y-105494435D01*
X115820750Y-105514630D01*
X115820745Y-105514631D01*
X115650476Y-105574211D01*
X115497737Y-105670184D01*
X115370184Y-105797737D01*
X115274211Y-105950476D01*
X115214631Y-106120745D01*
X115214630Y-106120750D01*
X115194435Y-106299996D01*
X115194435Y-106300003D01*
X115214631Y-106479253D01*
X115214631Y-106479255D01*
X115219644Y-106493580D01*
X115223206Y-106563359D01*
X115190285Y-106622216D01*
X115106154Y-106706347D01*
X115010182Y-106859084D01*
X114950602Y-107029353D01*
X114950601Y-107029358D01*
X114930406Y-107208604D01*
X114930406Y-107208611D01*
X107895268Y-107208611D01*
X107885369Y-107120750D01*
X107885368Y-107120745D01*
X107885367Y-107120745D01*
X107825789Y-106950478D01*
X107825188Y-106949522D01*
X107785520Y-106886390D01*
X107729816Y-106797738D01*
X107602262Y-106670184D01*
X107569379Y-106649522D01*
X107449523Y-106574211D01*
X107279254Y-106514631D01*
X107279249Y-106514630D01*
X107100004Y-106494435D01*
X107099996Y-106494435D01*
X106920750Y-106514630D01*
X106920745Y-106514631D01*
X106750476Y-106574211D01*
X106592752Y-106673316D01*
X106525515Y-106692316D01*
X106458680Y-106671948D01*
X106413466Y-106618680D01*
X106403560Y-106582205D01*
X106385369Y-106420750D01*
X106385368Y-106420745D01*
X106325789Y-106250478D01*
X106261891Y-106148785D01*
X106242891Y-106081549D01*
X106263259Y-106014713D01*
X106316526Y-105969499D01*
X106353000Y-105959593D01*
X106387531Y-105955702D01*
X106479250Y-105945369D01*
X106479253Y-105945368D01*
X106479255Y-105945368D01*
X106649522Y-105885789D01*
X106802262Y-105789816D01*
X106929816Y-105662262D01*
X107025789Y-105509522D01*
X107085368Y-105339255D01*
X107085369Y-105339249D01*
X107094298Y-105260003D01*
X118094435Y-105260003D01*
X118114630Y-105439249D01*
X118114631Y-105439254D01*
X118174211Y-105609523D01*
X118212327Y-105670184D01*
X118270184Y-105762262D01*
X118397738Y-105889816D01*
X118413284Y-105899584D01*
X118524552Y-105969499D01*
X118550478Y-105985789D01*
X118633138Y-106014713D01*
X118720745Y-106045368D01*
X118720750Y-106045369D01*
X118899996Y-106065565D01*
X118900000Y-106065565D01*
X118900004Y-106065565D01*
X119079249Y-106045369D01*
X119079252Y-106045368D01*
X119079255Y-106045368D01*
X119249522Y-105985789D01*
X119402262Y-105889816D01*
X119529816Y-105762262D01*
X119625789Y-105609522D01*
X119685368Y-105439255D01*
X119685369Y-105439249D01*
X119705565Y-105260003D01*
X119705565Y-105259996D01*
X119685369Y-105080750D01*
X119685368Y-105080745D01*
X119625788Y-104910476D01*
X119562955Y-104810478D01*
X119529816Y-104757738D01*
X119402262Y-104630184D01*
X119402261Y-104630183D01*
X119249523Y-104534211D01*
X119079254Y-104474631D01*
X119079249Y-104474630D01*
X118900004Y-104454435D01*
X118899996Y-104454435D01*
X118720750Y-104474630D01*
X118720745Y-104474631D01*
X118550476Y-104534211D01*
X118397737Y-104630184D01*
X118270184Y-104757737D01*
X118174211Y-104910476D01*
X118114631Y-105080745D01*
X118114630Y-105080750D01*
X118094435Y-105259996D01*
X118094435Y-105260003D01*
X107094298Y-105260003D01*
X107105565Y-105160003D01*
X107105565Y-105159996D01*
X107085369Y-104980750D01*
X107085368Y-104980745D01*
X107085367Y-104980745D01*
X107025789Y-104810478D01*
X106929816Y-104657738D01*
X106802262Y-104530184D01*
X106713852Y-104474632D01*
X106649523Y-104434211D01*
X106479254Y-104374631D01*
X106479249Y-104374630D01*
X106300004Y-104354435D01*
X106299996Y-104354435D01*
X106120750Y-104374630D01*
X106120745Y-104374631D01*
X105950476Y-104434211D01*
X105797737Y-104530184D01*
X105670184Y-104657737D01*
X105574211Y-104810476D01*
X105514631Y-104980745D01*
X105514630Y-104980750D01*
X105494435Y-105159996D01*
X105494435Y-105160003D01*
X105514630Y-105339249D01*
X105514631Y-105339254D01*
X105574211Y-105509523D01*
X105638108Y-105611214D01*
X105657108Y-105678451D01*
X105636740Y-105745286D01*
X105583472Y-105790500D01*
X105546998Y-105800406D01*
X105420749Y-105814630D01*
X105420745Y-105814631D01*
X105250476Y-105874211D01*
X105097737Y-105970184D01*
X104970184Y-106097737D01*
X104874211Y-106250476D01*
X104814631Y-106420745D01*
X104814630Y-106420750D01*
X104794435Y-106599996D01*
X104794435Y-106600003D01*
X96900500Y-106600003D01*
X96900500Y-101160003D01*
X111594435Y-101160003D01*
X111614630Y-101339249D01*
X111614631Y-101339254D01*
X111674211Y-101509523D01*
X111696735Y-101545369D01*
X111770184Y-101662262D01*
X111897738Y-101789816D01*
X112050478Y-101885789D01*
X112220744Y-101945368D01*
X112220745Y-101945368D01*
X112220750Y-101945369D01*
X112399996Y-101965565D01*
X112400000Y-101965565D01*
X112400004Y-101965565D01*
X112579249Y-101945369D01*
X112579252Y-101945368D01*
X112579255Y-101945368D01*
X112749522Y-101885789D01*
X112902262Y-101789816D01*
X113029816Y-101662262D01*
X113125789Y-101509522D01*
X113185368Y-101339255D01*
X113205565Y-101160000D01*
X113199877Y-101109521D01*
X113185369Y-100980750D01*
X113185368Y-100980745D01*
X113178110Y-100960003D01*
X113894435Y-100960003D01*
X113914630Y-101139249D01*
X113914631Y-101139254D01*
X113974211Y-101309523D01*
X114024662Y-101389815D01*
X114070184Y-101462262D01*
X114197738Y-101589816D01*
X114350478Y-101685789D01*
X114520745Y-101745368D01*
X114520754Y-101745369D01*
X114521207Y-101745473D01*
X114521477Y-101745624D01*
X114527318Y-101747668D01*
X114526960Y-101748690D01*
X114582191Y-101779573D01*
X114611377Y-101833017D01*
X114612333Y-101832683D01*
X114614362Y-101838483D01*
X114614523Y-101838777D01*
X114614631Y-101839249D01*
X114614632Y-101839255D01*
X114630915Y-101885788D01*
X114674210Y-102009521D01*
X114770184Y-102162261D01*
X114770184Y-102162262D01*
X114897738Y-102289816D01*
X115050478Y-102385789D01*
X115220745Y-102445367D01*
X115220745Y-102445368D01*
X115220750Y-102445369D01*
X115399996Y-102465565D01*
X115400000Y-102465565D01*
X115400004Y-102465565D01*
X115579249Y-102445369D01*
X115579252Y-102445368D01*
X115579255Y-102445368D01*
X115749522Y-102385789D01*
X115902262Y-102289816D01*
X116029816Y-102162262D01*
X116125789Y-102009522D01*
X116185368Y-101839255D01*
X116186109Y-101832683D01*
X116205879Y-101657211D01*
X116232945Y-101592797D01*
X116290540Y-101553242D01*
X116342982Y-101547874D01*
X116499996Y-101565565D01*
X116500000Y-101565565D01*
X116500004Y-101565565D01*
X116679249Y-101545369D01*
X116679252Y-101545368D01*
X116679255Y-101545368D01*
X116849522Y-101485789D01*
X117002262Y-101389816D01*
X117129816Y-101262262D01*
X117225789Y-101109522D01*
X117282094Y-100948610D01*
X117322816Y-100891835D01*
X117387768Y-100866087D01*
X117399136Y-100865565D01*
X117400003Y-100865565D01*
X117579249Y-100845369D01*
X117579252Y-100845368D01*
X117579255Y-100845368D01*
X117749522Y-100785789D01*
X117902262Y-100689816D01*
X118029816Y-100562262D01*
X118125789Y-100409522D01*
X118185368Y-100239255D01*
X118185369Y-100239249D01*
X118205565Y-100060003D01*
X118205565Y-100059996D01*
X118185369Y-99880750D01*
X118185368Y-99880745D01*
X118125788Y-99710476D01*
X118029815Y-99557737D01*
X117902262Y-99430184D01*
X117749523Y-99334211D01*
X117579254Y-99274631D01*
X117579249Y-99274630D01*
X117400004Y-99254435D01*
X117399996Y-99254435D01*
X117220750Y-99274630D01*
X117220745Y-99274631D01*
X117050476Y-99334211D01*
X116897737Y-99430184D01*
X116770184Y-99557737D01*
X116674210Y-99710478D01*
X116617906Y-99871389D01*
X116577184Y-99928165D01*
X116512232Y-99953913D01*
X116500864Y-99954435D01*
X116499996Y-99954435D01*
X116320750Y-99974630D01*
X116320745Y-99974631D01*
X116191285Y-100019932D01*
X116121506Y-100023493D01*
X116062649Y-99990571D01*
X116002262Y-99930184D01*
X115849523Y-99834211D01*
X115679254Y-99774631D01*
X115679249Y-99774630D01*
X115500004Y-99754435D01*
X115499996Y-99754435D01*
X115320750Y-99774630D01*
X115320745Y-99774631D01*
X115150476Y-99834211D01*
X114997737Y-99930184D01*
X114870185Y-100057736D01*
X114843642Y-100099979D01*
X114791306Y-100146269D01*
X114724766Y-100157225D01*
X114700003Y-100154435D01*
X114699996Y-100154435D01*
X114520750Y-100174630D01*
X114520745Y-100174631D01*
X114350476Y-100234211D01*
X114197737Y-100330184D01*
X114070184Y-100457737D01*
X113974211Y-100610476D01*
X113914631Y-100780745D01*
X113914630Y-100780750D01*
X113894435Y-100959996D01*
X113894435Y-100960003D01*
X113178110Y-100960003D01*
X113137998Y-100845369D01*
X113125789Y-100810478D01*
X113107106Y-100780745D01*
X113029815Y-100657737D01*
X112902262Y-100530184D01*
X112749523Y-100434211D01*
X112579254Y-100374631D01*
X112579249Y-100374630D01*
X112400004Y-100354435D01*
X112399996Y-100354435D01*
X112220750Y-100374630D01*
X112220745Y-100374631D01*
X112050476Y-100434211D01*
X111897737Y-100530184D01*
X111770184Y-100657737D01*
X111674211Y-100810476D01*
X111614631Y-100980745D01*
X111614630Y-100980750D01*
X111594435Y-101159996D01*
X111594435Y-101160003D01*
X96900500Y-101160003D01*
X96900500Y-99860003D01*
X105594435Y-99860003D01*
X105614630Y-100039249D01*
X105614631Y-100039254D01*
X105674211Y-100209523D01*
X105750028Y-100330184D01*
X105770184Y-100362262D01*
X105897738Y-100489816D01*
X106050478Y-100585789D01*
X106220745Y-100645368D01*
X106220750Y-100645369D01*
X106399996Y-100665565D01*
X106400000Y-100665565D01*
X106400004Y-100665565D01*
X106579249Y-100645369D01*
X106579252Y-100645368D01*
X106579255Y-100645368D01*
X106749522Y-100585789D01*
X106902262Y-100489816D01*
X107029816Y-100362262D01*
X107125789Y-100209522D01*
X107185368Y-100039255D01*
X107185369Y-100039249D01*
X107205565Y-99860003D01*
X107205565Y-99859996D01*
X107185369Y-99680750D01*
X107185368Y-99680745D01*
X107142326Y-99557738D01*
X107125789Y-99510478D01*
X107029816Y-99357738D01*
X106902262Y-99230184D01*
X106902261Y-99230183D01*
X106749523Y-99134211D01*
X106579254Y-99074631D01*
X106579249Y-99074630D01*
X106400004Y-99054435D01*
X106399996Y-99054435D01*
X106220750Y-99074630D01*
X106220745Y-99074631D01*
X106050476Y-99134211D01*
X105897737Y-99230184D01*
X105770184Y-99357737D01*
X105674211Y-99510476D01*
X105614631Y-99680745D01*
X105614630Y-99680750D01*
X105594435Y-99859996D01*
X105594435Y-99860003D01*
X96900500Y-99860003D01*
X96900500Y-98200003D01*
X117394435Y-98200003D01*
X117414630Y-98379249D01*
X117414631Y-98379254D01*
X117474211Y-98549523D01*
X117570184Y-98702262D01*
X117697738Y-98829816D01*
X117850478Y-98925789D01*
X118020745Y-98985368D01*
X118020750Y-98985369D01*
X118199996Y-99005565D01*
X118200000Y-99005565D01*
X118200004Y-99005565D01*
X118379249Y-98985369D01*
X118379252Y-98985368D01*
X118379255Y-98985368D01*
X118549522Y-98925789D01*
X118702262Y-98829816D01*
X118829816Y-98702262D01*
X118925789Y-98549522D01*
X118985368Y-98379255D01*
X119005565Y-98200000D01*
X118985368Y-98020745D01*
X118925789Y-97850478D01*
X118829816Y-97697738D01*
X118702262Y-97570184D01*
X118702261Y-97570183D01*
X118549523Y-97474211D01*
X118379254Y-97414631D01*
X118379249Y-97414630D01*
X118200004Y-97394435D01*
X118199996Y-97394435D01*
X118020750Y-97414630D01*
X118020745Y-97414631D01*
X117850476Y-97474211D01*
X117697737Y-97570184D01*
X117570184Y-97697737D01*
X117474211Y-97850476D01*
X117414631Y-98020745D01*
X117414630Y-98020750D01*
X117394435Y-98199996D01*
X117394435Y-98200003D01*
X96900500Y-98200003D01*
X96900500Y-95960003D01*
X100181935Y-95960003D01*
X100202130Y-96139249D01*
X100202131Y-96139254D01*
X100261711Y-96309523D01*
X100357683Y-96462262D01*
X100357684Y-96462262D01*
X100485238Y-96589816D01*
X100637978Y-96685789D01*
X100808244Y-96745368D01*
X100808245Y-96745368D01*
X100808250Y-96745369D01*
X100987496Y-96765565D01*
X100987500Y-96765565D01*
X100987504Y-96765565D01*
X101166749Y-96745369D01*
X101166752Y-96745368D01*
X101166755Y-96745368D01*
X101337022Y-96685789D01*
X101489762Y-96589816D01*
X101617316Y-96462262D01*
X101713289Y-96309522D01*
X101772868Y-96139255D01*
X101793065Y-95960003D01*
X104194435Y-95960003D01*
X104214630Y-96139249D01*
X104214631Y-96139254D01*
X104274211Y-96309523D01*
X104370184Y-96462261D01*
X104370184Y-96462262D01*
X104497738Y-96589816D01*
X104650478Y-96685789D01*
X104820745Y-96745368D01*
X104820750Y-96745369D01*
X104999996Y-96765565D01*
X105000000Y-96765565D01*
X105000004Y-96765565D01*
X105179249Y-96745369D01*
X105179252Y-96745368D01*
X105179255Y-96745368D01*
X105349522Y-96685789D01*
X105502262Y-96589816D01*
X105629816Y-96462262D01*
X105725789Y-96309522D01*
X105785368Y-96139255D01*
X105805565Y-95960003D01*
X108194435Y-95960003D01*
X108214630Y-96139249D01*
X108214631Y-96139254D01*
X108274211Y-96309523D01*
X108370184Y-96462261D01*
X108370184Y-96462262D01*
X108497738Y-96589816D01*
X108650478Y-96685789D01*
X108820745Y-96745368D01*
X108820750Y-96745369D01*
X108999996Y-96765565D01*
X109000000Y-96765565D01*
X109000004Y-96765565D01*
X109179249Y-96745369D01*
X109179252Y-96745368D01*
X109179255Y-96745368D01*
X109349522Y-96685789D01*
X109502262Y-96589816D01*
X109629816Y-96462262D01*
X109725789Y-96309522D01*
X109785368Y-96139255D01*
X109805565Y-95960003D01*
X110094435Y-95960003D01*
X110114630Y-96139249D01*
X110114631Y-96139254D01*
X110174211Y-96309523D01*
X110270183Y-96462262D01*
X110270184Y-96462262D01*
X110397738Y-96589816D01*
X110550478Y-96685789D01*
X110720744Y-96745368D01*
X110720745Y-96745368D01*
X110720750Y-96745369D01*
X110899996Y-96765565D01*
X110900000Y-96765565D01*
X110900004Y-96765565D01*
X111079249Y-96745369D01*
X111079252Y-96745368D01*
X111079255Y-96745368D01*
X111249522Y-96685789D01*
X111402262Y-96589816D01*
X111529816Y-96462262D01*
X111625789Y-96309522D01*
X111685368Y-96139255D01*
X111705565Y-95960003D01*
X111994435Y-95960003D01*
X112014630Y-96139249D01*
X112014631Y-96139254D01*
X112074211Y-96309523D01*
X112170184Y-96462262D01*
X112297738Y-96589816D01*
X112450478Y-96685789D01*
X112620745Y-96745368D01*
X112620750Y-96745369D01*
X112799996Y-96765565D01*
X112800000Y-96765565D01*
X112800004Y-96765565D01*
X112979249Y-96745369D01*
X112979252Y-96745368D01*
X112979255Y-96745368D01*
X113149522Y-96685789D01*
X113302262Y-96589816D01*
X113429816Y-96462262D01*
X113525789Y-96309522D01*
X113585368Y-96139255D01*
X113605565Y-95960003D01*
X115794435Y-95960003D01*
X115814630Y-96139249D01*
X115814631Y-96139254D01*
X115874211Y-96309523D01*
X115970184Y-96462262D01*
X116097738Y-96589816D01*
X116250478Y-96685789D01*
X116420745Y-96745368D01*
X116420750Y-96745369D01*
X116599996Y-96765565D01*
X116600000Y-96765565D01*
X116600004Y-96765565D01*
X116779249Y-96745369D01*
X116779252Y-96745368D01*
X116779255Y-96745368D01*
X116949522Y-96685789D01*
X117102262Y-96589816D01*
X117229816Y-96462262D01*
X117325789Y-96309522D01*
X117385368Y-96139255D01*
X117405565Y-95960000D01*
X117385368Y-95780745D01*
X117325789Y-95610478D01*
X117229816Y-95457738D01*
X117102262Y-95330184D01*
X117102261Y-95330183D01*
X116949523Y-95234211D01*
X116779254Y-95174631D01*
X116779249Y-95174630D01*
X116600004Y-95154435D01*
X116599996Y-95154435D01*
X116420750Y-95174630D01*
X116420745Y-95174631D01*
X116250476Y-95234211D01*
X116097737Y-95330184D01*
X115970184Y-95457737D01*
X115874211Y-95610476D01*
X115814631Y-95780745D01*
X115814630Y-95780750D01*
X115794435Y-95959996D01*
X115794435Y-95960003D01*
X113605565Y-95960003D01*
X113605565Y-95960000D01*
X113585368Y-95780745D01*
X113525789Y-95610478D01*
X113429816Y-95457738D01*
X113302262Y-95330184D01*
X113302261Y-95330183D01*
X113149523Y-95234211D01*
X112979254Y-95174631D01*
X112979249Y-95174630D01*
X112800004Y-95154435D01*
X112799996Y-95154435D01*
X112620750Y-95174630D01*
X112620745Y-95174631D01*
X112450476Y-95234211D01*
X112297737Y-95330184D01*
X112170184Y-95457737D01*
X112074211Y-95610476D01*
X112014631Y-95780745D01*
X112014630Y-95780750D01*
X111994435Y-95959996D01*
X111994435Y-95960003D01*
X111705565Y-95960003D01*
X111705565Y-95960000D01*
X111685368Y-95780745D01*
X111625789Y-95610478D01*
X111529816Y-95457738D01*
X111402262Y-95330184D01*
X111402261Y-95330184D01*
X111249523Y-95234211D01*
X111079254Y-95174631D01*
X111079249Y-95174630D01*
X110900004Y-95154435D01*
X110899996Y-95154435D01*
X110720750Y-95174630D01*
X110720745Y-95174631D01*
X110550476Y-95234211D01*
X110397737Y-95330184D01*
X110270184Y-95457737D01*
X110174211Y-95610476D01*
X110114631Y-95780745D01*
X110114630Y-95780750D01*
X110094435Y-95959996D01*
X110094435Y-95960003D01*
X109805565Y-95960003D01*
X109805565Y-95960000D01*
X109785368Y-95780745D01*
X109725789Y-95610478D01*
X109629816Y-95457738D01*
X109502262Y-95330184D01*
X109502261Y-95330183D01*
X109349523Y-95234211D01*
X109179254Y-95174631D01*
X109179249Y-95174630D01*
X109000004Y-95154435D01*
X108999996Y-95154435D01*
X108820750Y-95174630D01*
X108820745Y-95174631D01*
X108650476Y-95234211D01*
X108497737Y-95330184D01*
X108370184Y-95457737D01*
X108274211Y-95610476D01*
X108214631Y-95780745D01*
X108214630Y-95780750D01*
X108194435Y-95959996D01*
X108194435Y-95960003D01*
X105805565Y-95960003D01*
X105805565Y-95960000D01*
X105785368Y-95780745D01*
X105725789Y-95610478D01*
X105629816Y-95457738D01*
X105502262Y-95330184D01*
X105502261Y-95330183D01*
X105349523Y-95234211D01*
X105179254Y-95174631D01*
X105179249Y-95174630D01*
X105000004Y-95154435D01*
X104999996Y-95154435D01*
X104820750Y-95174630D01*
X104820745Y-95174631D01*
X104650476Y-95234211D01*
X104497737Y-95330184D01*
X104370184Y-95457737D01*
X104274211Y-95610476D01*
X104214631Y-95780745D01*
X104214630Y-95780750D01*
X104194435Y-95959996D01*
X104194435Y-95960003D01*
X101793065Y-95960003D01*
X101793065Y-95960000D01*
X101772868Y-95780745D01*
X101713289Y-95610478D01*
X101617316Y-95457738D01*
X101489762Y-95330184D01*
X101489761Y-95330183D01*
X101337023Y-95234211D01*
X101166754Y-95174631D01*
X101166749Y-95174630D01*
X100987504Y-95154435D01*
X100987496Y-95154435D01*
X100808250Y-95174630D01*
X100808245Y-95174631D01*
X100637976Y-95234211D01*
X100485237Y-95330184D01*
X100357684Y-95457737D01*
X100261711Y-95610476D01*
X100202131Y-95780745D01*
X100202130Y-95780750D01*
X100181935Y-95959996D01*
X100181935Y-95960003D01*
X96900500Y-95960003D01*
X96900500Y-93400003D01*
X111394435Y-93400003D01*
X111414630Y-93579249D01*
X111414631Y-93579254D01*
X111474211Y-93749523D01*
X111570184Y-93902262D01*
X111697738Y-94029816D01*
X111850478Y-94125789D01*
X112020745Y-94185368D01*
X112020750Y-94185369D01*
X112199996Y-94205565D01*
X112200000Y-94205565D01*
X112200004Y-94205565D01*
X112379249Y-94185369D01*
X112379252Y-94185368D01*
X112379255Y-94185368D01*
X112549522Y-94125789D01*
X112702262Y-94029816D01*
X112829816Y-93902262D01*
X112925789Y-93749522D01*
X112985368Y-93579255D01*
X113005565Y-93400000D01*
X112985368Y-93220745D01*
X112925789Y-93050478D01*
X112829816Y-92897738D01*
X112702262Y-92770184D01*
X112702261Y-92770183D01*
X112549523Y-92674211D01*
X112379254Y-92614631D01*
X112379249Y-92614630D01*
X112200004Y-92594435D01*
X112199996Y-92594435D01*
X112020750Y-92614630D01*
X112020745Y-92614631D01*
X111850476Y-92674211D01*
X111697737Y-92770184D01*
X111570184Y-92897737D01*
X111474211Y-93050476D01*
X111414631Y-93220745D01*
X111414630Y-93220750D01*
X111394435Y-93399996D01*
X111394435Y-93400003D01*
X96900500Y-93400003D01*
X96900500Y-89360003D01*
X112394435Y-89360003D01*
X112414630Y-89539249D01*
X112414631Y-89539254D01*
X112474211Y-89709523D01*
X112570184Y-89862262D01*
X112697738Y-89989816D01*
X112850478Y-90085789D01*
X113020744Y-90145368D01*
X113020745Y-90145368D01*
X113020750Y-90145369D01*
X113199996Y-90165565D01*
X113200000Y-90165565D01*
X113200004Y-90165565D01*
X113379249Y-90145369D01*
X113379252Y-90145368D01*
X113379255Y-90145368D01*
X113549522Y-90085789D01*
X113702262Y-89989816D01*
X113829816Y-89862262D01*
X113925789Y-89709522D01*
X113985368Y-89539255D01*
X114005565Y-89360000D01*
X113985368Y-89180745D01*
X113925789Y-89010478D01*
X113829816Y-88857738D01*
X113702262Y-88730184D01*
X113702261Y-88730183D01*
X113549523Y-88634211D01*
X113379254Y-88574631D01*
X113379249Y-88574630D01*
X113200004Y-88554435D01*
X113199996Y-88554435D01*
X113020750Y-88574630D01*
X113020745Y-88574631D01*
X112850476Y-88634211D01*
X112697737Y-88730184D01*
X112570184Y-88857737D01*
X112474211Y-89010476D01*
X112414631Y-89180745D01*
X112414630Y-89180750D01*
X112394435Y-89359996D01*
X112394435Y-89360003D01*
X96900500Y-89360003D01*
X96900500Y-85258003D01*
X102144435Y-85258003D01*
X102164630Y-85437249D01*
X102164631Y-85437254D01*
X102224211Y-85607523D01*
X102252057Y-85651839D01*
X102320184Y-85760262D01*
X102447738Y-85887816D01*
X102600478Y-85983789D01*
X102626196Y-85992788D01*
X102770745Y-86043368D01*
X102770750Y-86043369D01*
X102949996Y-86063565D01*
X102950000Y-86063565D01*
X102950004Y-86063565D01*
X103129249Y-86043369D01*
X103129252Y-86043368D01*
X103129255Y-86043368D01*
X103299522Y-85983789D01*
X103452262Y-85887816D01*
X103579816Y-85760262D01*
X103675789Y-85607522D01*
X103735368Y-85437255D01*
X103754551Y-85267000D01*
X103755565Y-85258003D01*
X103755565Y-85257996D01*
X103735369Y-85078750D01*
X103735368Y-85078745D01*
X103678938Y-84917478D01*
X103675789Y-84908478D01*
X103579816Y-84755738D01*
X103452262Y-84628184D01*
X103366365Y-84574211D01*
X103299523Y-84532211D01*
X103129254Y-84472631D01*
X103129249Y-84472630D01*
X102950004Y-84452435D01*
X102949996Y-84452435D01*
X102770750Y-84472630D01*
X102770745Y-84472631D01*
X102600476Y-84532211D01*
X102447737Y-84628184D01*
X102320184Y-84755737D01*
X102224211Y-84908476D01*
X102164631Y-85078745D01*
X102164630Y-85078750D01*
X102144435Y-85257996D01*
X102144435Y-85258003D01*
X96900500Y-85258003D01*
X96900500Y-80815603D01*
X99162435Y-80815603D01*
X99182630Y-80994849D01*
X99182631Y-80994854D01*
X99242211Y-81165123D01*
X99332540Y-81308879D01*
X99338184Y-81317862D01*
X99465738Y-81445416D01*
X99539403Y-81491703D01*
X99579061Y-81516622D01*
X99618478Y-81541389D01*
X99738384Y-81583346D01*
X99788745Y-81600968D01*
X99788750Y-81600969D01*
X99967996Y-81621165D01*
X99968000Y-81621165D01*
X99968004Y-81621165D01*
X100147249Y-81600969D01*
X100147252Y-81600968D01*
X100147255Y-81600968D01*
X100147256Y-81600967D01*
X100147259Y-81600967D01*
X100197616Y-81583346D01*
X100224836Y-81573820D01*
X100294615Y-81570258D01*
X100355243Y-81604987D01*
X100387470Y-81666980D01*
X100381066Y-81736555D01*
X100370786Y-81756834D01*
X100291211Y-81883476D01*
X100231631Y-82053745D01*
X100231630Y-82053750D01*
X100211435Y-82232996D01*
X100211435Y-82233003D01*
X100231630Y-82412249D01*
X100231631Y-82412254D01*
X100291211Y-82582523D01*
X100341315Y-82662262D01*
X100387184Y-82735262D01*
X100514738Y-82862816D01*
X100605080Y-82919581D01*
X100646118Y-82945368D01*
X100667478Y-82958789D01*
X100837745Y-83018368D01*
X100837750Y-83018369D01*
X101016996Y-83038565D01*
X101017000Y-83038565D01*
X101017004Y-83038565D01*
X101196249Y-83018369D01*
X101196252Y-83018368D01*
X101196255Y-83018368D01*
X101366522Y-82958789D01*
X101519262Y-82862816D01*
X101646816Y-82735262D01*
X101742789Y-82582522D01*
X101785660Y-82460003D01*
X103568435Y-82460003D01*
X103588630Y-82639249D01*
X103588631Y-82639254D01*
X103648211Y-82809523D01*
X103733569Y-82945368D01*
X103744184Y-82962262D01*
X103871738Y-83089816D01*
X104024478Y-83185789D01*
X104101657Y-83212795D01*
X104194745Y-83245368D01*
X104194750Y-83245369D01*
X104373996Y-83265565D01*
X104374000Y-83265565D01*
X104374004Y-83265565D01*
X104553249Y-83245369D01*
X104553252Y-83245368D01*
X104553255Y-83245368D01*
X104723522Y-83185789D01*
X104876262Y-83089816D01*
X104908259Y-83057818D01*
X104969579Y-83024334D01*
X105039271Y-83029318D01*
X105061912Y-83040507D01*
X105133975Y-83085788D01*
X105304245Y-83145368D01*
X105304250Y-83145369D01*
X105483496Y-83165565D01*
X105483500Y-83165565D01*
X105483504Y-83165565D01*
X105662749Y-83145369D01*
X105662751Y-83145368D01*
X105662755Y-83145368D01*
X105662758Y-83145366D01*
X105662762Y-83145366D01*
X105804545Y-83095754D01*
X105874324Y-83092192D01*
X105934951Y-83126920D01*
X105967179Y-83188914D01*
X105969500Y-83212795D01*
X105969499Y-85564159D01*
X105949814Y-85631199D01*
X105933181Y-85651839D01*
X105820185Y-85764836D01*
X105820184Y-85764837D01*
X105724211Y-85917576D01*
X105664631Y-86087845D01*
X105664630Y-86087850D01*
X105644435Y-86267096D01*
X105644435Y-86267103D01*
X105655569Y-86365924D01*
X105643514Y-86434746D01*
X105596165Y-86486125D01*
X105528555Y-86503749D01*
X105466378Y-86484802D01*
X105449522Y-86474211D01*
X105279254Y-86414631D01*
X105279249Y-86414630D01*
X105100004Y-86394435D01*
X105099996Y-86394435D01*
X104920750Y-86414630D01*
X104920745Y-86414631D01*
X104750476Y-86474211D01*
X104597737Y-86570184D01*
X104470184Y-86697737D01*
X104374211Y-86850476D01*
X104314631Y-87020745D01*
X104314630Y-87020750D01*
X104294435Y-87199996D01*
X104294435Y-87200003D01*
X104314630Y-87379249D01*
X104314631Y-87379254D01*
X104374211Y-87549523D01*
X104447126Y-87665565D01*
X104470184Y-87702262D01*
X104597738Y-87829816D01*
X104750478Y-87925789D01*
X104920745Y-87985368D01*
X104920750Y-87985369D01*
X105099996Y-88005565D01*
X105100000Y-88005565D01*
X105100004Y-88005565D01*
X105279249Y-87985369D01*
X105279252Y-87985368D01*
X105279255Y-87985368D01*
X105449522Y-87925789D01*
X105602262Y-87829816D01*
X105729816Y-87702262D01*
X105825789Y-87549522D01*
X105885368Y-87379255D01*
X105905565Y-87200000D01*
X105894430Y-87101174D01*
X105906484Y-87032354D01*
X105953833Y-86980975D01*
X106021443Y-86963350D01*
X106083622Y-86982298D01*
X106100476Y-86992888D01*
X106100478Y-86992889D01*
X106270744Y-87052467D01*
X106270745Y-87052468D01*
X106270750Y-87052469D01*
X106449996Y-87072665D01*
X106450000Y-87072665D01*
X106450004Y-87072665D01*
X106629249Y-87052469D01*
X106629252Y-87052468D01*
X106629255Y-87052468D01*
X106799522Y-86992889D01*
X106952262Y-86896916D01*
X106989175Y-86860003D01*
X112494435Y-86860003D01*
X112514630Y-87039249D01*
X112514631Y-87039254D01*
X112574211Y-87209523D01*
X112670183Y-87362262D01*
X112670184Y-87362262D01*
X112797738Y-87489816D01*
X112950478Y-87585789D01*
X113120744Y-87645368D01*
X113120745Y-87645368D01*
X113120750Y-87645369D01*
X113299996Y-87665565D01*
X113300000Y-87665565D01*
X113300004Y-87665565D01*
X113479249Y-87645369D01*
X113479252Y-87645368D01*
X113479255Y-87645368D01*
X113649522Y-87585789D01*
X113802262Y-87489816D01*
X113929816Y-87362262D01*
X114025789Y-87209522D01*
X114085368Y-87039255D01*
X114090592Y-86992889D01*
X114105565Y-86860003D01*
X114105565Y-86859996D01*
X114085369Y-86680750D01*
X114085368Y-86680745D01*
X114025788Y-86510476D01*
X113952874Y-86394435D01*
X113929816Y-86357738D01*
X113802262Y-86230184D01*
X113779166Y-86215672D01*
X113649523Y-86134211D01*
X113479254Y-86074631D01*
X113479249Y-86074630D01*
X113300004Y-86054435D01*
X113299996Y-86054435D01*
X113120750Y-86074630D01*
X113120745Y-86074631D01*
X112950476Y-86134211D01*
X112797737Y-86230184D01*
X112670184Y-86357737D01*
X112574211Y-86510476D01*
X112514631Y-86680745D01*
X112514630Y-86680750D01*
X112494435Y-86859996D01*
X112494435Y-86860003D01*
X106989175Y-86860003D01*
X107079816Y-86769362D01*
X107175789Y-86616622D01*
X107235368Y-86446355D01*
X107238943Y-86414632D01*
X107255565Y-86267102D01*
X107255565Y-86267100D01*
X107249770Y-86215671D01*
X107261824Y-86146850D01*
X107309172Y-86095470D01*
X107332035Y-86084745D01*
X107500522Y-86025789D01*
X107653262Y-85929816D01*
X107653266Y-85929811D01*
X107658705Y-85925475D01*
X107660467Y-85927684D01*
X107710577Y-85900289D01*
X107780271Y-85905238D01*
X107802969Y-85916448D01*
X107924463Y-85992788D01*
X107959478Y-86014789D01*
X108072780Y-86054435D01*
X108129745Y-86074368D01*
X108129750Y-86074369D01*
X108308996Y-86094565D01*
X108309000Y-86094565D01*
X108309004Y-86094565D01*
X108488249Y-86074369D01*
X108488252Y-86074368D01*
X108488255Y-86074368D01*
X108658522Y-86014789D01*
X108811262Y-85918816D01*
X108811266Y-85918811D01*
X108816705Y-85914475D01*
X108818416Y-85916620D01*
X108868783Y-85889091D01*
X108938477Y-85894046D01*
X108961163Y-85905251D01*
X108996864Y-85927684D01*
X109100475Y-85992788D01*
X109270745Y-86052368D01*
X109270750Y-86052369D01*
X109449996Y-86072565D01*
X109450000Y-86072565D01*
X109450004Y-86072565D01*
X109629249Y-86052369D01*
X109629252Y-86052368D01*
X109629255Y-86052368D01*
X109799522Y-85992789D01*
X109952262Y-85896816D01*
X110079816Y-85769262D01*
X110175789Y-85616522D01*
X110235368Y-85446255D01*
X110255565Y-85267000D01*
X110254551Y-85258003D01*
X110235369Y-85087750D01*
X110235368Y-85087745D01*
X110235367Y-85087745D01*
X110175789Y-84917478D01*
X110079816Y-84764738D01*
X109952262Y-84637184D01*
X109937939Y-84628184D01*
X109799523Y-84541211D01*
X109629254Y-84481631D01*
X109629249Y-84481630D01*
X109450004Y-84461435D01*
X109449996Y-84461435D01*
X109270750Y-84481630D01*
X109270745Y-84481631D01*
X109100476Y-84541211D01*
X108947737Y-84637184D01*
X108942295Y-84641525D01*
X108940594Y-84639393D01*
X108890113Y-84666930D01*
X108820423Y-84661916D01*
X108797836Y-84650748D01*
X108658522Y-84563211D01*
X108595650Y-84541211D01*
X108488254Y-84503631D01*
X108488249Y-84503630D01*
X108309004Y-84483435D01*
X108308996Y-84483435D01*
X108129750Y-84503630D01*
X108129745Y-84503631D01*
X107959476Y-84563211D01*
X107806737Y-84659184D01*
X107801295Y-84663525D01*
X107799546Y-84661332D01*
X107749298Y-84688737D01*
X107679609Y-84683717D01*
X107657030Y-84672551D01*
X107500521Y-84574210D01*
X107330246Y-84514629D01*
X107323459Y-84513080D01*
X107324008Y-84510671D01*
X107270178Y-84488035D01*
X107230637Y-84430430D01*
X107224500Y-84391902D01*
X107224500Y-82806446D01*
X107243506Y-82740474D01*
X107307106Y-82639255D01*
X107325789Y-82609522D01*
X107385368Y-82439255D01*
X107388410Y-82412255D01*
X107405565Y-82260003D01*
X107405565Y-82259996D01*
X107385369Y-82080750D01*
X107385368Y-82080745D01*
X107342326Y-81957738D01*
X107325789Y-81910478D01*
X107229816Y-81757738D01*
X107102262Y-81630184D01*
X107079698Y-81616006D01*
X106949523Y-81534211D01*
X106828043Y-81491703D01*
X107913435Y-81491703D01*
X107933630Y-81670949D01*
X107933631Y-81670954D01*
X107993211Y-81841223D01*
X108066422Y-81957737D01*
X108089184Y-81993962D01*
X108216738Y-82121516D01*
X108369478Y-82217489D01*
X108490976Y-82260003D01*
X108539745Y-82277068D01*
X108539750Y-82277069D01*
X108718996Y-82297265D01*
X108719000Y-82297265D01*
X108719004Y-82297265D01*
X108898249Y-82277069D01*
X108898252Y-82277068D01*
X108898255Y-82277068D01*
X109068522Y-82217489D01*
X109160010Y-82160003D01*
X114590435Y-82160003D01*
X114610630Y-82339249D01*
X114610631Y-82339254D01*
X114670211Y-82509523D01*
X114733045Y-82609522D01*
X114766184Y-82662262D01*
X114893738Y-82789816D01*
X115046478Y-82885789D01*
X115216745Y-82945368D01*
X115216750Y-82945369D01*
X115395996Y-82965565D01*
X115396000Y-82965565D01*
X115396004Y-82965565D01*
X115575249Y-82945369D01*
X115575252Y-82945368D01*
X115575255Y-82945368D01*
X115745522Y-82885789D01*
X115898262Y-82789816D01*
X116025816Y-82662262D01*
X116121789Y-82509522D01*
X116181368Y-82339255D01*
X116187960Y-82280750D01*
X116198089Y-82190854D01*
X116225155Y-82126440D01*
X116282750Y-82086885D01*
X116335193Y-82081517D01*
X116450997Y-82094565D01*
X116451000Y-82094565D01*
X116451004Y-82094565D01*
X116630249Y-82074369D01*
X116630252Y-82074368D01*
X116630255Y-82074368D01*
X116800522Y-82014789D01*
X116953262Y-81918816D01*
X117080816Y-81791262D01*
X117176789Y-81638522D01*
X117236368Y-81468255D01*
X117237806Y-81455497D01*
X117242370Y-81414988D01*
X117269436Y-81350573D01*
X117327030Y-81311018D01*
X117396867Y-81308879D01*
X117456774Y-81344837D01*
X117468070Y-81359611D01*
X117470184Y-81362262D01*
X117597738Y-81489816D01*
X117668392Y-81534211D01*
X117728448Y-81571947D01*
X117750478Y-81585789D01*
X117901180Y-81638522D01*
X117920745Y-81645368D01*
X117920750Y-81645369D01*
X118099996Y-81665565D01*
X118100000Y-81665565D01*
X118100004Y-81665565D01*
X118279249Y-81645369D01*
X118279252Y-81645368D01*
X118279255Y-81645368D01*
X118449522Y-81585789D01*
X118602262Y-81489816D01*
X118729816Y-81362262D01*
X118825789Y-81209522D01*
X118885368Y-81039255D01*
X118890371Y-80994854D01*
X118905565Y-80860003D01*
X118905565Y-80859996D01*
X118885369Y-80680750D01*
X118885368Y-80680745D01*
X118874587Y-80649936D01*
X118825789Y-80510478D01*
X118729816Y-80357738D01*
X118602262Y-80230184D01*
X118531600Y-80185784D01*
X118449523Y-80134211D01*
X118279254Y-80074631D01*
X118279249Y-80074630D01*
X118100004Y-80054435D01*
X118099996Y-80054435D01*
X117920746Y-80074631D01*
X117920742Y-80074632D01*
X117861210Y-80095462D01*
X117791431Y-80099023D01*
X117730805Y-80064293D01*
X117715264Y-80044392D01*
X117706365Y-80030230D01*
X117660816Y-79957738D01*
X117533262Y-79830184D01*
X117464623Y-79787055D01*
X117380523Y-79734211D01*
X117210254Y-79674631D01*
X117210249Y-79674630D01*
X117031004Y-79654435D01*
X117030996Y-79654435D01*
X116851750Y-79674630D01*
X116851745Y-79674631D01*
X116681476Y-79734211D01*
X116528737Y-79830184D01*
X116401184Y-79957737D01*
X116305211Y-80110476D01*
X116245631Y-80280745D01*
X116245630Y-80280749D01*
X116227485Y-80441795D01*
X116200418Y-80506209D01*
X116142823Y-80545764D01*
X116072986Y-80547901D01*
X116038293Y-80532905D01*
X115892523Y-80441311D01*
X115722254Y-80381731D01*
X115722249Y-80381730D01*
X115543004Y-80361535D01*
X115542996Y-80361535D01*
X115363750Y-80381730D01*
X115363745Y-80381731D01*
X115193476Y-80441311D01*
X115040737Y-80537284D01*
X114913184Y-80664837D01*
X114817211Y-80817576D01*
X114757631Y-80987845D01*
X114757630Y-80987850D01*
X114737435Y-81167096D01*
X114737435Y-81167103D01*
X114757630Y-81346349D01*
X114757632Y-81346357D01*
X114814829Y-81509817D01*
X114818390Y-81579596D01*
X114785470Y-81638450D01*
X114766186Y-81657734D01*
X114670211Y-81810476D01*
X114610631Y-81980745D01*
X114610630Y-81980750D01*
X114590435Y-82159996D01*
X114590435Y-82160003D01*
X109160010Y-82160003D01*
X109221262Y-82121516D01*
X109348816Y-81993962D01*
X109444789Y-81841222D01*
X109504368Y-81670955D01*
X109504816Y-81666980D01*
X109524565Y-81491703D01*
X109524565Y-81491696D01*
X109504369Y-81312450D01*
X109504368Y-81312445D01*
X109461643Y-81190345D01*
X109444789Y-81142178D01*
X109348816Y-80989438D01*
X109221262Y-80861884D01*
X109163652Y-80825685D01*
X109068523Y-80765911D01*
X108898254Y-80706331D01*
X108898249Y-80706330D01*
X108719004Y-80686135D01*
X108718996Y-80686135D01*
X108539750Y-80706330D01*
X108539745Y-80706331D01*
X108369476Y-80765911D01*
X108216737Y-80861884D01*
X108089184Y-80989437D01*
X107993211Y-81142176D01*
X107933631Y-81312445D01*
X107933630Y-81312450D01*
X107913435Y-81491696D01*
X107913435Y-81491703D01*
X106828043Y-81491703D01*
X106779254Y-81474631D01*
X106779249Y-81474630D01*
X106600004Y-81454435D01*
X106599996Y-81454435D01*
X106420750Y-81474630D01*
X106420745Y-81474631D01*
X106250476Y-81534211D01*
X106097734Y-81630186D01*
X106097733Y-81630186D01*
X106063038Y-81664882D01*
X106001715Y-81698367D01*
X105932023Y-81693381D01*
X105909385Y-81682193D01*
X105833027Y-81634213D01*
X105833023Y-81634211D01*
X105780996Y-81616006D01*
X105724221Y-81575284D01*
X105698474Y-81510331D01*
X105698732Y-81485080D01*
X105699492Y-81478340D01*
X105702065Y-81455501D01*
X105701178Y-81447632D01*
X105681869Y-81276251D01*
X105681868Y-81276246D01*
X105666187Y-81231433D01*
X105622289Y-81105979D01*
X105526316Y-80953239D01*
X105398762Y-80825685D01*
X105382712Y-80815600D01*
X105246023Y-80729712D01*
X105075754Y-80670132D01*
X105075749Y-80670131D01*
X104896504Y-80649936D01*
X104896496Y-80649936D01*
X104717250Y-80670131D01*
X104717245Y-80670132D01*
X104546976Y-80729712D01*
X104394237Y-80825685D01*
X104266684Y-80953238D01*
X104170711Y-81105977D01*
X104111131Y-81276246D01*
X104111130Y-81276251D01*
X104090935Y-81455497D01*
X104090935Y-81455505D01*
X104107553Y-81603002D01*
X104095498Y-81671824D01*
X104048149Y-81723203D01*
X104025296Y-81733924D01*
X104024479Y-81734209D01*
X103871737Y-81830184D01*
X103744184Y-81957737D01*
X103648211Y-82110476D01*
X103588631Y-82280745D01*
X103588630Y-82280750D01*
X103568435Y-82459996D01*
X103568435Y-82460003D01*
X101785660Y-82460003D01*
X101802368Y-82412255D01*
X101817185Y-82280750D01*
X101822565Y-82233003D01*
X101822565Y-82232996D01*
X101802369Y-82053750D01*
X101802368Y-82053745D01*
X101755154Y-81918815D01*
X101742789Y-81883478D01*
X101646816Y-81730738D01*
X101519262Y-81603184D01*
X101491578Y-81585789D01*
X101366523Y-81507211D01*
X101196254Y-81447631D01*
X101196249Y-81447630D01*
X101017004Y-81427435D01*
X101016996Y-81427435D01*
X100837750Y-81447630D01*
X100837742Y-81447632D01*
X100760161Y-81474779D01*
X100690382Y-81478340D01*
X100629755Y-81443611D01*
X100597528Y-81381617D01*
X100603934Y-81312042D01*
X100614214Y-81291764D01*
X100693788Y-81165124D01*
X100714484Y-81105979D01*
X100753368Y-80994855D01*
X100753369Y-80994849D01*
X100773565Y-80815603D01*
X100773565Y-80815596D01*
X100753369Y-80636350D01*
X100753368Y-80636345D01*
X100709325Y-80510478D01*
X100693789Y-80466078D01*
X100597816Y-80313338D01*
X100470262Y-80185784D01*
X100438959Y-80166115D01*
X100317523Y-80089811D01*
X100147254Y-80030231D01*
X100147249Y-80030230D01*
X99968004Y-80010035D01*
X99967996Y-80010035D01*
X99788750Y-80030230D01*
X99788745Y-80030231D01*
X99618476Y-80089811D01*
X99465737Y-80185784D01*
X99338184Y-80313337D01*
X99242211Y-80466076D01*
X99182631Y-80636345D01*
X99182630Y-80636350D01*
X99162435Y-80815596D01*
X99162435Y-80815603D01*
X96900500Y-80815603D01*
X96900500Y-78892180D01*
X97545400Y-78892180D01*
X97584715Y-79102497D01*
X97645065Y-79258278D01*
X97662006Y-79302007D01*
X97662008Y-79302013D01*
X97774287Y-79483349D01*
X97774642Y-79483922D01*
X97918786Y-79642041D01*
X98089530Y-79770981D01*
X98281058Y-79866350D01*
X98281064Y-79866353D01*
X98446743Y-79913492D01*
X98486852Y-79924904D01*
X98646525Y-79939700D01*
X98646528Y-79939700D01*
X98753272Y-79939700D01*
X98753275Y-79939700D01*
X98912948Y-79924904D01*
X99043552Y-79887744D01*
X99118735Y-79866353D01*
X99118737Y-79866351D01*
X99118740Y-79866351D01*
X99310270Y-79770981D01*
X99481014Y-79642041D01*
X99625158Y-79483922D01*
X99737793Y-79302010D01*
X99815085Y-79102497D01*
X99854400Y-78892180D01*
X99854400Y-78881403D01*
X100439435Y-78881403D01*
X100459630Y-79060649D01*
X100459631Y-79060654D01*
X100519211Y-79230923D01*
X100615184Y-79383662D01*
X100742739Y-79511217D01*
X100801186Y-79547942D01*
X100847476Y-79600277D01*
X100858433Y-79666818D01*
X100847935Y-79759996D01*
X100847935Y-79760003D01*
X100868130Y-79939249D01*
X100868131Y-79939254D01*
X100927711Y-80109523D01*
X101003528Y-80230184D01*
X101023684Y-80262262D01*
X101151238Y-80389816D01*
X101303978Y-80485789D01*
X101438628Y-80532905D01*
X101474245Y-80545368D01*
X101474250Y-80545369D01*
X101653496Y-80565565D01*
X101653500Y-80565565D01*
X101653504Y-80565565D01*
X101832749Y-80545369D01*
X101832752Y-80545368D01*
X101832755Y-80545368D01*
X102003022Y-80485789D01*
X102155762Y-80389816D01*
X102283316Y-80262262D01*
X102379289Y-80109522D01*
X102438868Y-79939255D01*
X102444889Y-79885823D01*
X102453750Y-79807173D01*
X102480816Y-79742759D01*
X102538411Y-79703204D01*
X102608248Y-79701066D01*
X102668154Y-79737024D01*
X102681963Y-79755083D01*
X102714184Y-79806362D01*
X102841738Y-79933916D01*
X102899592Y-79970268D01*
X102962880Y-80010035D01*
X102994478Y-80029889D01*
X103122346Y-80074632D01*
X103164745Y-80089468D01*
X103164750Y-80089469D01*
X103343996Y-80109665D01*
X103344000Y-80109665D01*
X103344004Y-80109665D01*
X103523249Y-80089469D01*
X103523252Y-80089468D01*
X103523255Y-80089468D01*
X103693522Y-80029889D01*
X103846262Y-79933916D01*
X103973816Y-79806362D01*
X104069789Y-79653622D01*
X104129368Y-79483355D01*
X104130932Y-79469473D01*
X104149565Y-79304103D01*
X104149565Y-79304096D01*
X104129369Y-79124850D01*
X104129368Y-79124845D01*
X104106907Y-79060655D01*
X104069789Y-78954578D01*
X104064001Y-78945367D01*
X104010591Y-78860365D01*
X103973816Y-78801838D01*
X103973815Y-78801837D01*
X103969475Y-78796395D01*
X103971977Y-78794399D01*
X103945229Y-78745413D01*
X103949827Y-78681119D01*
X104840935Y-78681119D01*
X104861130Y-78860365D01*
X104861131Y-78860370D01*
X104920711Y-79030639D01*
X104967773Y-79105537D01*
X105016684Y-79183378D01*
X105144238Y-79310932D01*
X105296978Y-79406905D01*
X105434357Y-79454976D01*
X105467245Y-79466484D01*
X105467250Y-79466485D01*
X105646496Y-79486681D01*
X105646498Y-79486681D01*
X105646498Y-79486680D01*
X105646500Y-79486681D01*
X105673014Y-79483693D01*
X105741833Y-79495746D01*
X105793214Y-79543094D01*
X105810840Y-79610704D01*
X105810118Y-79620796D01*
X105794435Y-79759995D01*
X105794435Y-79760003D01*
X105814630Y-79939249D01*
X105814631Y-79939254D01*
X105874211Y-80109523D01*
X105950028Y-80230184D01*
X105970184Y-80262262D01*
X106097738Y-80389816D01*
X106250478Y-80485789D01*
X106385128Y-80532905D01*
X106420745Y-80545368D01*
X106420750Y-80545369D01*
X106599996Y-80565565D01*
X106600000Y-80565565D01*
X106600004Y-80565565D01*
X106779249Y-80545369D01*
X106779252Y-80545368D01*
X106779255Y-80545368D01*
X106949522Y-80485789D01*
X107102262Y-80389816D01*
X107229816Y-80262262D01*
X107325789Y-80109522D01*
X107374516Y-79970267D01*
X107415238Y-79913492D01*
X107480190Y-79887744D01*
X107548752Y-79901200D01*
X107596552Y-79945250D01*
X107655184Y-80038562D01*
X107782738Y-80166116D01*
X107873080Y-80222881D01*
X107884701Y-80230184D01*
X107935478Y-80262089D01*
X108081936Y-80313337D01*
X108105745Y-80321668D01*
X108105750Y-80321669D01*
X108284996Y-80341865D01*
X108285000Y-80341865D01*
X108285004Y-80341865D01*
X108464249Y-80321669D01*
X108464252Y-80321668D01*
X108464255Y-80321668D01*
X108634522Y-80262089D01*
X108787262Y-80166116D01*
X108914816Y-80038562D01*
X109010789Y-79885822D01*
X109070368Y-79715555D01*
X109074979Y-79674630D01*
X109090565Y-79536303D01*
X109090565Y-79536296D01*
X109070369Y-79357050D01*
X109070368Y-79357045D01*
X109054232Y-79310931D01*
X109010789Y-79186778D01*
X109010301Y-79186002D01*
X108933593Y-79063921D01*
X108914816Y-79034038D01*
X108787262Y-78906484D01*
X108787261Y-78906484D01*
X108634520Y-78810509D01*
X108598534Y-78797917D01*
X108541758Y-78757195D01*
X108516012Y-78692242D01*
X108522448Y-78639924D01*
X108541368Y-78585855D01*
X108542218Y-78578311D01*
X108561565Y-78406603D01*
X108561565Y-78406596D01*
X108541369Y-78227350D01*
X108541368Y-78227345D01*
X108534922Y-78208923D01*
X108481789Y-78057078D01*
X108478158Y-78051300D01*
X108442582Y-77994680D01*
X108420667Y-77959803D01*
X108847435Y-77959803D01*
X108867630Y-78139049D01*
X108867631Y-78139054D01*
X108927211Y-78309323D01*
X109023088Y-78461909D01*
X109023184Y-78462062D01*
X109150738Y-78589616D01*
X109240699Y-78646142D01*
X109303478Y-78685589D01*
X109480318Y-78747468D01*
X109479574Y-78749592D01*
X109531210Y-78778468D01*
X109564073Y-78840127D01*
X109565867Y-78851374D01*
X109570630Y-78893649D01*
X109630210Y-79063921D01*
X109671846Y-79130184D01*
X109726184Y-79216662D01*
X109853738Y-79344216D01*
X109880284Y-79360896D01*
X109987954Y-79428550D01*
X110006478Y-79440189D01*
X110131434Y-79483913D01*
X110176745Y-79499768D01*
X110176750Y-79499769D01*
X110355996Y-79519965D01*
X110356000Y-79519965D01*
X110356004Y-79519965D01*
X110507826Y-79502859D01*
X110576647Y-79514914D01*
X110628027Y-79562263D01*
X110644929Y-79612195D01*
X110664630Y-79787050D01*
X110664631Y-79787054D01*
X110724211Y-79957323D01*
X110807459Y-80089811D01*
X110820184Y-80110062D01*
X110947738Y-80237616D01*
X111100478Y-80333589D01*
X111238057Y-80381730D01*
X111270745Y-80393168D01*
X111270750Y-80393169D01*
X111449996Y-80413365D01*
X111450000Y-80413365D01*
X111450004Y-80413365D01*
X111629249Y-80393169D01*
X111629252Y-80393168D01*
X111629255Y-80393168D01*
X111799522Y-80333589D01*
X111952262Y-80237616D01*
X112079816Y-80110062D01*
X112175789Y-79957322D01*
X112235368Y-79787055D01*
X112237179Y-79770981D01*
X112255565Y-79607803D01*
X112255565Y-79607796D01*
X112235369Y-79428550D01*
X112235368Y-79428545D01*
X112212444Y-79363033D01*
X112175789Y-79258278D01*
X112079816Y-79105538D01*
X111952262Y-78977984D01*
X111915012Y-78954578D01*
X111799523Y-78882011D01*
X111631121Y-78823085D01*
X111574345Y-78782363D01*
X111548598Y-78717410D01*
X111562054Y-78648849D01*
X111575134Y-78628724D01*
X111577808Y-78625369D01*
X111577816Y-78625362D01*
X111673789Y-78472622D01*
X111673788Y-78472622D01*
X111677494Y-78466726D01*
X111678879Y-78467596D01*
X111719971Y-78422071D01*
X111787396Y-78403748D01*
X111854022Y-78424787D01*
X111872564Y-78440042D01*
X111876184Y-78443662D01*
X112003738Y-78571216D01*
X112156478Y-78667189D01*
X112326744Y-78726768D01*
X112326745Y-78726768D01*
X112326750Y-78726769D01*
X112505996Y-78746965D01*
X112506000Y-78746965D01*
X112506004Y-78746965D01*
X112579651Y-78738667D01*
X117841622Y-78738667D01*
X117851684Y-78924257D01*
X117851684Y-78924262D01*
X117901405Y-79103343D01*
X117901409Y-79103351D01*
X117988469Y-79267563D01*
X118087085Y-79383662D01*
X118108795Y-79409221D01*
X118256761Y-79521702D01*
X118256762Y-79521702D01*
X118256763Y-79521703D01*
X118425443Y-79599743D01*
X118425451Y-79599746D01*
X118462056Y-79607803D01*
X118606967Y-79639700D01*
X118606970Y-79639700D01*
X118746227Y-79639700D01*
X118746232Y-79639700D01*
X118884675Y-79624643D01*
X119060811Y-79565296D01*
X119220071Y-79469473D01*
X119355008Y-79341654D01*
X119368781Y-79321341D01*
X119381889Y-79302007D01*
X119459313Y-79187815D01*
X119481397Y-79132389D01*
X119528108Y-79015155D01*
X119532865Y-78986139D01*
X119558178Y-78831735D01*
X119548116Y-78646142D01*
X119498392Y-78467052D01*
X119498391Y-78467051D01*
X119496964Y-78461909D01*
X119497996Y-78392047D01*
X119536634Y-78333833D01*
X119575488Y-78311694D01*
X119649522Y-78285789D01*
X119802262Y-78189816D01*
X119929816Y-78062262D01*
X120025789Y-77909522D01*
X120085368Y-77739255D01*
X120091953Y-77680811D01*
X120105565Y-77560003D01*
X120105565Y-77559996D01*
X120085369Y-77380750D01*
X120085368Y-77380745D01*
X120061952Y-77313827D01*
X120025789Y-77210478D01*
X119929816Y-77057738D01*
X119802262Y-76930184D01*
X119799066Y-76928176D01*
X119649523Y-76834211D01*
X119479254Y-76774631D01*
X119479249Y-76774630D01*
X119300004Y-76754435D01*
X119299996Y-76754435D01*
X119120750Y-76774630D01*
X119120745Y-76774631D01*
X118950476Y-76834211D01*
X118797737Y-76930184D01*
X118670184Y-77057737D01*
X118574211Y-77210476D01*
X118514631Y-77380745D01*
X118514630Y-77380750D01*
X118494435Y-77559996D01*
X118494435Y-77560003D01*
X118514630Y-77739249D01*
X118514632Y-77739257D01*
X118537888Y-77805719D01*
X118541449Y-77875498D01*
X118506720Y-77936125D01*
X118460440Y-77964182D01*
X118338983Y-78005106D01*
X118179727Y-78100928D01*
X118179726Y-78100929D01*
X118044790Y-78228746D01*
X117940485Y-78382587D01*
X117940484Y-78382589D01*
X117871691Y-78555244D01*
X117851056Y-78681119D01*
X117843573Y-78726768D01*
X117841622Y-78738667D01*
X112579651Y-78738667D01*
X112685249Y-78726769D01*
X112685252Y-78726768D01*
X112685255Y-78726768D01*
X112855522Y-78667189D01*
X113008262Y-78571216D01*
X113135816Y-78443662D01*
X113231789Y-78290922D01*
X113291368Y-78120655D01*
X113291369Y-78120650D01*
X113293150Y-78104844D01*
X113320216Y-78040430D01*
X113377811Y-78000875D01*
X113447647Y-77998737D01*
X113457325Y-78001686D01*
X113632737Y-78063066D01*
X113632743Y-78063067D01*
X113632745Y-78063068D01*
X113632746Y-78063068D01*
X113632750Y-78063069D01*
X113811996Y-78083265D01*
X113812000Y-78083265D01*
X113812004Y-78083265D01*
X113991249Y-78063069D01*
X113991252Y-78063068D01*
X113991255Y-78063068D01*
X114161522Y-78003489D01*
X114314262Y-77907516D01*
X114441816Y-77779962D01*
X114537789Y-77627222D01*
X114597368Y-77456955D01*
X114597369Y-77456949D01*
X114617565Y-77277703D01*
X114617565Y-77277696D01*
X114597369Y-77098450D01*
X114597368Y-77098445D01*
X114595965Y-77094435D01*
X114537789Y-76928178D01*
X114441816Y-76775438D01*
X114314262Y-76647884D01*
X114306567Y-76643049D01*
X114161523Y-76551911D01*
X113991254Y-76492331D01*
X113991249Y-76492330D01*
X113812004Y-76472135D01*
X113811996Y-76472135D01*
X113632750Y-76492330D01*
X113632745Y-76492331D01*
X113462476Y-76551911D01*
X113309737Y-76647884D01*
X113182184Y-76775437D01*
X113086211Y-76928176D01*
X113026631Y-77098445D01*
X113026631Y-77098447D01*
X113024849Y-77114261D01*
X112997779Y-77178673D01*
X112940183Y-77218226D01*
X112870346Y-77220361D01*
X112860674Y-77217413D01*
X112685262Y-77156033D01*
X112685249Y-77156030D01*
X112506004Y-77135835D01*
X112505996Y-77135835D01*
X112326750Y-77156030D01*
X112326745Y-77156031D01*
X112156476Y-77215611D01*
X112003737Y-77311584D01*
X111876184Y-77439137D01*
X111776506Y-77597774D01*
X111775125Y-77596906D01*
X111734002Y-77642444D01*
X111666573Y-77660750D01*
X111599952Y-77639695D01*
X111581435Y-77624457D01*
X111450262Y-77493284D01*
X111297523Y-77397311D01*
X111127254Y-77337731D01*
X111127249Y-77337730D01*
X110948004Y-77317535D01*
X110947996Y-77317535D01*
X110768750Y-77337730D01*
X110768745Y-77337731D01*
X110598476Y-77397311D01*
X110450020Y-77490593D01*
X110382783Y-77509593D01*
X110315948Y-77489225D01*
X110287101Y-77462911D01*
X110282817Y-77457539D01*
X110155262Y-77329984D01*
X110002523Y-77234011D01*
X109832254Y-77174431D01*
X109832249Y-77174430D01*
X109653004Y-77154235D01*
X109652996Y-77154235D01*
X109473750Y-77174430D01*
X109473745Y-77174431D01*
X109303476Y-77234011D01*
X109150737Y-77329984D01*
X109023184Y-77457537D01*
X108927211Y-77610276D01*
X108867631Y-77780545D01*
X108867630Y-77780550D01*
X108847435Y-77959796D01*
X108847435Y-77959803D01*
X108420667Y-77959803D01*
X108385816Y-77904338D01*
X108258262Y-77776784D01*
X108234964Y-77762145D01*
X108105523Y-77680811D01*
X107935254Y-77621231D01*
X107935249Y-77621230D01*
X107756004Y-77601035D01*
X107755996Y-77601035D01*
X107576750Y-77621230D01*
X107576745Y-77621231D01*
X107406476Y-77680811D01*
X107253739Y-77776783D01*
X107152208Y-77878314D01*
X107090885Y-77911798D01*
X107021193Y-77906814D01*
X106965260Y-77864942D01*
X106941307Y-77804515D01*
X106931869Y-77720750D01*
X106931868Y-77720745D01*
X106897047Y-77621232D01*
X106872289Y-77550478D01*
X106776316Y-77397738D01*
X106648762Y-77270184D01*
X106584148Y-77229584D01*
X106496023Y-77174211D01*
X106325754Y-77114631D01*
X106325749Y-77114630D01*
X106146504Y-77094435D01*
X106146496Y-77094435D01*
X105967250Y-77114630D01*
X105967245Y-77114631D01*
X105796976Y-77174211D01*
X105644237Y-77270184D01*
X105516684Y-77397737D01*
X105420711Y-77550476D01*
X105361131Y-77720745D01*
X105361130Y-77720749D01*
X105344260Y-77870479D01*
X105317193Y-77934893D01*
X105287012Y-77961589D01*
X105144237Y-78051300D01*
X105016684Y-78178853D01*
X104920711Y-78331592D01*
X104861131Y-78501861D01*
X104861130Y-78501866D01*
X104840935Y-78681112D01*
X104840935Y-78681119D01*
X103949827Y-78681119D01*
X103950213Y-78675721D01*
X103992085Y-78619788D01*
X104025442Y-78602013D01*
X104073520Y-78585190D01*
X104084471Y-78578309D01*
X104226262Y-78489216D01*
X104353816Y-78361662D01*
X104449789Y-78208922D01*
X104509368Y-78038655D01*
X104513148Y-78005106D01*
X104529565Y-77859403D01*
X104529565Y-77859396D01*
X104509369Y-77680150D01*
X104509368Y-77680145D01*
X104488753Y-77621230D01*
X104449789Y-77509878D01*
X104437671Y-77490593D01*
X104405339Y-77439137D01*
X104353816Y-77357138D01*
X104226262Y-77229584D01*
X104145238Y-77178673D01*
X104073523Y-77133611D01*
X103903254Y-77074031D01*
X103903249Y-77074030D01*
X103724004Y-77053835D01*
X103723996Y-77053835D01*
X103544750Y-77074030D01*
X103544745Y-77074031D01*
X103374476Y-77133611D01*
X103221737Y-77229584D01*
X103094184Y-77357137D01*
X102998211Y-77509876D01*
X102938631Y-77680145D01*
X102938630Y-77680150D01*
X102918435Y-77859396D01*
X102918435Y-77859403D01*
X102938630Y-78038649D01*
X102938631Y-78038654D01*
X102998211Y-78208923D01*
X103094184Y-78361662D01*
X103098525Y-78367105D01*
X103096022Y-78369101D01*
X103122770Y-78418086D01*
X103117786Y-78487778D01*
X103075914Y-78543711D01*
X103042560Y-78561485D01*
X102994479Y-78578309D01*
X102841737Y-78674284D01*
X102714184Y-78801837D01*
X102618211Y-78954576D01*
X102558631Y-79124845D01*
X102558630Y-79124849D01*
X102543749Y-79256927D01*
X102516682Y-79321341D01*
X102459087Y-79360896D01*
X102389250Y-79363033D01*
X102329344Y-79327075D01*
X102315537Y-79309018D01*
X102283316Y-79257738D01*
X102155762Y-79130184D01*
X102155761Y-79130183D01*
X102097314Y-79093458D01*
X102051023Y-79041123D01*
X102040066Y-78974580D01*
X102050565Y-78881402D01*
X102050565Y-78881396D01*
X102030369Y-78702150D01*
X102030368Y-78702145D01*
X101989676Y-78585854D01*
X101970789Y-78531878D01*
X101969493Y-78529816D01*
X101926921Y-78462062D01*
X101874816Y-78379138D01*
X101747262Y-78251584D01*
X101708686Y-78227345D01*
X101594523Y-78155611D01*
X101424254Y-78096031D01*
X101424249Y-78096030D01*
X101245004Y-78075835D01*
X101244996Y-78075835D01*
X101065750Y-78096030D01*
X101065745Y-78096031D01*
X100895476Y-78155611D01*
X100742737Y-78251584D01*
X100615184Y-78379137D01*
X100519211Y-78531876D01*
X100459631Y-78702145D01*
X100459630Y-78702150D01*
X100439435Y-78881396D01*
X100439435Y-78881403D01*
X99854400Y-78881403D01*
X99854400Y-78678220D01*
X99815085Y-78467903D01*
X99737793Y-78268390D01*
X99727387Y-78251584D01*
X99625163Y-78086486D01*
X99625161Y-78086483D01*
X99625158Y-78086478D01*
X99481014Y-77928359D01*
X99310270Y-77799419D01*
X99264813Y-77776784D01*
X99118741Y-77704049D01*
X99118735Y-77704046D01*
X98912950Y-77645496D01*
X98912947Y-77645495D01*
X98790720Y-77634169D01*
X98753275Y-77630700D01*
X98646525Y-77630700D01*
X98611794Y-77633918D01*
X98486852Y-77645495D01*
X98486849Y-77645496D01*
X98281064Y-77704046D01*
X98281058Y-77704049D01*
X98089529Y-77799419D01*
X97940716Y-77911798D01*
X97918786Y-77928359D01*
X97774642Y-78086478D01*
X97774640Y-78086479D01*
X97774638Y-78086483D01*
X97774636Y-78086486D01*
X97662008Y-78268386D01*
X97662006Y-78268392D01*
X97648849Y-78302355D01*
X97584715Y-78467903D01*
X97545400Y-78678220D01*
X97545400Y-78892180D01*
X96900500Y-78892180D01*
X96900500Y-76694411D01*
X96920185Y-76627372D01*
X96936819Y-76606730D01*
X97746731Y-75796819D01*
X97808054Y-75763334D01*
X97834412Y-75760500D01*
X98343995Y-75760500D01*
X98435041Y-75742389D01*
X98479328Y-75733580D01*
X98606811Y-75680775D01*
X98721542Y-75604114D01*
X98819114Y-75506542D01*
X98895775Y-75391811D01*
X98948580Y-75264328D01*
X98962306Y-75195323D01*
X98975500Y-75128995D01*
X98975500Y-75029503D01*
X99439435Y-75029503D01*
X99459630Y-75208749D01*
X99459631Y-75208754D01*
X99519211Y-75379023D01*
X99599337Y-75506542D01*
X99615184Y-75531762D01*
X99742738Y-75659316D01*
X99895478Y-75755289D01*
X99966627Y-75780185D01*
X100065745Y-75814868D01*
X100065750Y-75814869D01*
X100244996Y-75835065D01*
X100245000Y-75835065D01*
X100245004Y-75835065D01*
X100424249Y-75814869D01*
X100424252Y-75814868D01*
X100424255Y-75814868D01*
X100594522Y-75755289D01*
X100747262Y-75659316D01*
X100874816Y-75531762D01*
X100970789Y-75379022D01*
X101030368Y-75208755D01*
X101030369Y-75208749D01*
X101050565Y-75029503D01*
X101050565Y-75029496D01*
X101030369Y-74850250D01*
X101030368Y-74850245D01*
X101020974Y-74823398D01*
X100970789Y-74679978D01*
X100965086Y-74670903D01*
X101379435Y-74670903D01*
X101399630Y-74850149D01*
X101399631Y-74850154D01*
X101459211Y-75020423D01*
X101516241Y-75111185D01*
X101555184Y-75173162D01*
X101682738Y-75300716D01*
X101770144Y-75355637D01*
X101834731Y-75396220D01*
X101835478Y-75396689D01*
X101970882Y-75444069D01*
X102005745Y-75456268D01*
X102005750Y-75456269D01*
X102184996Y-75476465D01*
X102185000Y-75476465D01*
X102185004Y-75476465D01*
X102364249Y-75456269D01*
X102364252Y-75456268D01*
X102364255Y-75456268D01*
X102534522Y-75396689D01*
X102687262Y-75300716D01*
X102814816Y-75173162D01*
X102910789Y-75020422D01*
X102970368Y-74850155D01*
X102971743Y-74837954D01*
X102990565Y-74670903D01*
X102990565Y-74670896D01*
X102989191Y-74658703D01*
X104432435Y-74658703D01*
X104452630Y-74837949D01*
X104452631Y-74837954D01*
X104512211Y-75008223D01*
X104588098Y-75128995D01*
X104608184Y-75160962D01*
X104735738Y-75288516D01*
X104757677Y-75302301D01*
X104870780Y-75373369D01*
X104888478Y-75384489D01*
X105058745Y-75444067D01*
X105058745Y-75444068D01*
X105058750Y-75444069D01*
X105237996Y-75464265D01*
X105238000Y-75464265D01*
X105238004Y-75464265D01*
X105417249Y-75444069D01*
X105417252Y-75444068D01*
X105417255Y-75444068D01*
X105587522Y-75384489D01*
X105740262Y-75288516D01*
X105867816Y-75160962D01*
X105963789Y-75008222D01*
X105998787Y-74908203D01*
X107029435Y-74908203D01*
X107049630Y-75087449D01*
X107049631Y-75087454D01*
X107109211Y-75257723D01*
X107194567Y-75393565D01*
X107205184Y-75410462D01*
X107332738Y-75538016D01*
X107485478Y-75633989D01*
X107619173Y-75680771D01*
X107655745Y-75693568D01*
X107655750Y-75693569D01*
X107834996Y-75713765D01*
X107835000Y-75713765D01*
X107835004Y-75713765D01*
X108014249Y-75693569D01*
X108014252Y-75693568D01*
X108014255Y-75693568D01*
X108184522Y-75633989D01*
X108337262Y-75538016D01*
X108464816Y-75410462D01*
X108560789Y-75257722D01*
X108620368Y-75087455D01*
X108620369Y-75087449D01*
X108640565Y-74908203D01*
X108640565Y-74908196D01*
X108620369Y-74728950D01*
X108620368Y-74728945D01*
X108571050Y-74588003D01*
X109519435Y-74588003D01*
X109539630Y-74767249D01*
X109539631Y-74767254D01*
X109599211Y-74937523D01*
X109676169Y-75060000D01*
X109695184Y-75090262D01*
X109822738Y-75217816D01*
X109975478Y-75313789D01*
X110064220Y-75344841D01*
X110145745Y-75373368D01*
X110145750Y-75373369D01*
X110324996Y-75393565D01*
X110325000Y-75393565D01*
X110325004Y-75393565D01*
X110504249Y-75373369D01*
X110504252Y-75373368D01*
X110504255Y-75373368D01*
X110674522Y-75313789D01*
X110827262Y-75217816D01*
X110877651Y-75167426D01*
X110938972Y-75133942D01*
X111008664Y-75138926D01*
X111064597Y-75180797D01*
X111082373Y-75214154D01*
X111105210Y-75279421D01*
X111176932Y-75393565D01*
X111201184Y-75432162D01*
X111328738Y-75559716D01*
X111481478Y-75655689D01*
X111589730Y-75693568D01*
X111651745Y-75715268D01*
X111651750Y-75715269D01*
X111830996Y-75735465D01*
X111831000Y-75735465D01*
X111831004Y-75735465D01*
X112010249Y-75715269D01*
X112010252Y-75715268D01*
X112010255Y-75715268D01*
X112180522Y-75655689D01*
X112333262Y-75559716D01*
X112460816Y-75432162D01*
X112556789Y-75279422D01*
X112616368Y-75109155D01*
X112618814Y-75087449D01*
X112636565Y-74929903D01*
X112636565Y-74929896D01*
X112616369Y-74750650D01*
X112616368Y-74750645D01*
X112601701Y-74708728D01*
X112556789Y-74580378D01*
X112460816Y-74427638D01*
X112333262Y-74300084D01*
X112298727Y-74278384D01*
X112180523Y-74204111D01*
X112010254Y-74144531D01*
X112010249Y-74144530D01*
X111831004Y-74124335D01*
X111830996Y-74124335D01*
X111651750Y-74144530D01*
X111651745Y-74144531D01*
X111481476Y-74204111D01*
X111328737Y-74300084D01*
X111278349Y-74350472D01*
X111217026Y-74383956D01*
X111147334Y-74378971D01*
X111091401Y-74337100D01*
X111073628Y-74303745D01*
X111050790Y-74238480D01*
X111050789Y-74238478D01*
X110954816Y-74085738D01*
X110827262Y-73958184D01*
X110674523Y-73862211D01*
X110504254Y-73802631D01*
X110504249Y-73802630D01*
X110325004Y-73782435D01*
X110324996Y-73782435D01*
X110145750Y-73802630D01*
X110145745Y-73802631D01*
X109975476Y-73862211D01*
X109822737Y-73958184D01*
X109695184Y-74085737D01*
X109599211Y-74238476D01*
X109539631Y-74408745D01*
X109539630Y-74408750D01*
X109519435Y-74587996D01*
X109519435Y-74588003D01*
X108571050Y-74588003D01*
X108568381Y-74580376D01*
X108560789Y-74558678D01*
X108464816Y-74405938D01*
X108337262Y-74278384D01*
X108337261Y-74278384D01*
X108184523Y-74182411D01*
X108014254Y-74122831D01*
X108014249Y-74122830D01*
X107835004Y-74102635D01*
X107834996Y-74102635D01*
X107655750Y-74122830D01*
X107655745Y-74122831D01*
X107485476Y-74182411D01*
X107332737Y-74278384D01*
X107205184Y-74405937D01*
X107109211Y-74558676D01*
X107049631Y-74728945D01*
X107049630Y-74728950D01*
X107029435Y-74908196D01*
X107029435Y-74908203D01*
X105998787Y-74908203D01*
X106023368Y-74837955D01*
X106033205Y-74750650D01*
X106043565Y-74658703D01*
X106043565Y-74658696D01*
X106023369Y-74479450D01*
X106023368Y-74479445D01*
X106005240Y-74427637D01*
X105963789Y-74309178D01*
X105867816Y-74156438D01*
X105740262Y-74028884D01*
X105627744Y-73958184D01*
X105587523Y-73932911D01*
X105417254Y-73873331D01*
X105417249Y-73873330D01*
X105238004Y-73853135D01*
X105237996Y-73853135D01*
X105058750Y-73873330D01*
X105058745Y-73873331D01*
X104888476Y-73932911D01*
X104735737Y-74028884D01*
X104608184Y-74156437D01*
X104512211Y-74309176D01*
X104452631Y-74479445D01*
X104452630Y-74479450D01*
X104432435Y-74658696D01*
X104432435Y-74658703D01*
X102989191Y-74658703D01*
X102970369Y-74491650D01*
X102970368Y-74491645D01*
X102947971Y-74427637D01*
X102910789Y-74321378D01*
X102899709Y-74303745D01*
X102814815Y-74168637D01*
X102687262Y-74041084D01*
X102534523Y-73945111D01*
X102364254Y-73885531D01*
X102364249Y-73885530D01*
X102185004Y-73865335D01*
X102184996Y-73865335D01*
X102005750Y-73885530D01*
X102005745Y-73885531D01*
X101835476Y-73945111D01*
X101682737Y-74041084D01*
X101555184Y-74168637D01*
X101459211Y-74321376D01*
X101399631Y-74491645D01*
X101399630Y-74491650D01*
X101379435Y-74670896D01*
X101379435Y-74670903D01*
X100965086Y-74670903D01*
X100965082Y-74670896D01*
X100887435Y-74547321D01*
X100874816Y-74527238D01*
X100747262Y-74399684D01*
X100722231Y-74383956D01*
X100594523Y-74303711D01*
X100424254Y-74244131D01*
X100424249Y-74244130D01*
X100245004Y-74223935D01*
X100244996Y-74223935D01*
X100065750Y-74244130D01*
X100065745Y-74244131D01*
X99895476Y-74303711D01*
X99742737Y-74399684D01*
X99615184Y-74527237D01*
X99519211Y-74679976D01*
X99459631Y-74850245D01*
X99459630Y-74850250D01*
X99439435Y-75029496D01*
X99439435Y-75029503D01*
X98975500Y-75029503D01*
X98975500Y-71884500D01*
X98995185Y-71817461D01*
X99047989Y-71771706D01*
X99099500Y-71760500D01*
X108677410Y-71760500D01*
X113900500Y-71760500D01*
X113967539Y-71780185D01*
G37*
%TD.AperFunction*%
%TD*%
%TA.AperFunction,NonConductor*%
G36*
X106881305Y-78399785D02*
G01*
X106937239Y-78441656D01*
X106961192Y-78502083D01*
X106970630Y-78585850D01*
X106970631Y-78585854D01*
X107030211Y-78756123D01*
X107088394Y-78848720D01*
X107107394Y-78915957D01*
X107087026Y-78982792D01*
X107033758Y-79028006D01*
X106964502Y-79037243D01*
X106942446Y-79031734D01*
X106779257Y-78974632D01*
X106779249Y-78974630D01*
X106600004Y-78954435D01*
X106599996Y-78954435D01*
X106573484Y-78957422D01*
X106504662Y-78945367D01*
X106453283Y-78898018D01*
X106435659Y-78830407D01*
X106436381Y-78820318D01*
X106448739Y-78710637D01*
X106475805Y-78646224D01*
X106505984Y-78619528D01*
X106648762Y-78529816D01*
X106750294Y-78428283D01*
X106811613Y-78394801D01*
X106881305Y-78399785D01*
G37*
%TD.AperFunction*%
M02*
