%TF.GenerationSoftware,KiCad,Pcbnew,7.0.5*%
%TF.CreationDate,2023-09-01T16:08:52-05:00*%
%TF.ProjectId,Chimera_0004_Aurora,4368696d-6572-4615-9f30-3030345f4175,rev?*%
%TF.SameCoordinates,Original*%
%TF.FileFunction,Copper,L2,Inr*%
%TF.FilePolarity,Positive*%
%FSLAX46Y46*%
G04 Gerber Fmt 4.6, Leading zero omitted, Abs format (unit mm)*
G04 Created by KiCad (PCBNEW 7.0.5) date 2023-09-01 16:08:52*
%MOMM*%
%LPD*%
G01*
G04 APERTURE LIST*
%TA.AperFunction,ComponentPad*%
%ADD10C,3.600000*%
%TD*%
%TA.AperFunction,ViaPad*%
%ADD11C,0.600000*%
%TD*%
%TA.AperFunction,Conductor*%
%ADD12C,0.254000*%
%TD*%
%TA.AperFunction,Conductor*%
%ADD13C,0.152400*%
%TD*%
G04 APERTURE END LIST*
D10*
%TO.N,N/C*%
%TO.C,H1*%
X112500000Y-149900000D03*
%TD*%
D11*
%TO.N,LED_DO*%
X122400000Y-144500000D03*
X110400000Y-100600000D03*
%TO.N,+5V*%
X117100000Y-105200000D03*
X117000000Y-107700000D03*
%TO.N,Net-(LED56-DO)*%
X121500000Y-142672900D03*
X123645300Y-119459600D03*
%TO.N,Net-(LED50-DO)*%
X119047200Y-139500000D03*
X120552900Y-121502800D03*
%TO.N,Net-(LED41-DO)*%
X115443500Y-125400000D03*
X112750000Y-144702800D03*
%TO.N,Net-(LED34-DO)*%
X115649000Y-131449900D03*
X118344000Y-132565000D03*
%TO.N,Net-(LED32-DO)*%
X109650000Y-142827700D03*
X114740700Y-119692500D03*
%TO.N,Net-(LED26-DO)*%
X107600000Y-142500000D03*
X111455800Y-119459600D03*
%TO.N,Net-(LED18-DO)*%
X106533300Y-143100000D03*
X107600000Y-121500000D03*
%TO.N,Net-(LED10-DO)*%
X103750600Y-119599400D03*
X101514200Y-144702800D03*
%TO.N,LED_DI*%
X110250000Y-104607100D03*
%TO.N,Net-(CN1-20-Pad31)*%
X114156000Y-97054400D03*
X114125000Y-92928000D03*
%TO.N,Net-(CN1-20-Pad29)*%
X114748000Y-96463100D03*
%TO.N,Net-(CN1-1-Pad9)*%
X119343000Y-99507100D03*
%TO.N,Net-(CN1-20-Pad63)*%
X105985000Y-93010900D03*
%TO.N,Net-(CN1-1-Pad7)*%
X120251000Y-99629000D03*
%TO.N,Net-(CN1-1-Pad67)*%
X105045000Y-97221400D03*
%TO.N,Net-(CN1-20-Pad61)*%
X106750000Y-103598000D03*
%TO.N,Net-(CN1-20-Pad59)*%
X107144000Y-97644100D03*
%TO.N,Net-(CN1-20-Pad57)*%
X107524000Y-96199400D03*
%TO.N,Net-(CN1-20-Pad55)*%
X108174000Y-100800000D03*
%TO.N,Net-(CN1-20-Pad53)*%
X108696500Y-99795501D03*
%TO.N,Net-(CN1-20-Pad51)*%
X109283500Y-100700000D03*
X109038000Y-92998700D03*
%TO.N,Net-(CN1-20-Pad49)*%
X109404000Y-96835300D03*
%TO.N,Net-(CN1-20-Pad45)*%
X110400000Y-98100000D03*
%TO.N,Net-(CN1-20-Pad43)*%
X110951000Y-103640000D03*
%TO.N,+3V3*%
X123100000Y-95900000D03*
%TO.N,Net-(CN1-20-Pad41)*%
X111635000Y-93248200D03*
X111556000Y-96746600D03*
X112109000Y-103629000D03*
%TO.N,Net-(CN1-1-Pad73)*%
X103768000Y-99155600D03*
%TO.N,Net-(CN1-1-Pad71)*%
X104045000Y-93369500D03*
%TO.N,Net-(CN1-1-Pad69)*%
X104817000Y-100573000D03*
%TO.N,Net-(CN1-20-Pad39)*%
X112085000Y-97876300D03*
%TO.N,Net-(CN1-1-Pad5)*%
X120831000Y-98800000D03*
%TO.N,Net-(CN1-20-Pad37)*%
X112519000Y-99831700D03*
%TO.N,Net-(CN1-20-Pad35)*%
X113250000Y-103607000D03*
%TO.N,Net-(CN1-20-Pad33)*%
X113453000Y-96299800D03*
%TO.N,Net-(CN1-1-Pad66)*%
X105453500Y-98100000D03*
%TO.N,Net-(CN1-20-Pad27)*%
X115250000Y-97947800D03*
%TO.N,Net-(CN1-20-Pad25)*%
X115631000Y-93269900D03*
%TO.N,Net-(CN1-20-Pad23)*%
X116306000Y-96281400D03*
%TO.N,Net-(CN1-20-Pad21)*%
X117612000Y-95617700D03*
%TO.N,Net-(CN1-1-Pad11)*%
X119196000Y-100500000D03*
%TO.N,Net-(CN1-1-Pad3)*%
X121900000Y-99200000D03*
%TO.N,+5V*%
X101305000Y-139500000D03*
X101353400Y-142500000D03*
X103500000Y-135743400D03*
X104450000Y-133500000D03*
X106450000Y-135556500D03*
X106450000Y-129652200D03*
X106605600Y-138414100D03*
X106450000Y-141454700D03*
X106450000Y-133313100D03*
X106666600Y-125971500D03*
X101491900Y-119459600D03*
X101355000Y-133500000D03*
X101355000Y-130500000D03*
X101355000Y-124500000D03*
X113700000Y-124500000D03*
X113700000Y-119459600D03*
X116500000Y-124500000D03*
X119650000Y-121500000D03*
X122598200Y-133500400D03*
X119999800Y-142500000D03*
X122648100Y-142500000D03*
X104560900Y-142500000D03*
X106450000Y-120667800D03*
X104612200Y-139490200D03*
X104450000Y-130500000D03*
X103500000Y-126784000D03*
X104450000Y-121500000D03*
X104450000Y-124500000D03*
X110198400Y-139512700D03*
X110200000Y-133500000D03*
X115350000Y-132495300D03*
X114410000Y-130464900D03*
X118344500Y-138546100D03*
X118331400Y-135743400D03*
X117280000Y-133470000D03*
X116500000Y-130500000D03*
X120480000Y-139465000D03*
X121331000Y-135743400D03*
X118500000Y-131000000D03*
X120510000Y-130480000D03*
X121314400Y-124754100D03*
X123380000Y-124466900D03*
X123480000Y-121465000D03*
X118338000Y-141499200D03*
X115350000Y-141454700D03*
X106647600Y-123337700D03*
X110450000Y-119678500D03*
X113450000Y-133470400D03*
X115651900Y-126350400D03*
X110450000Y-124471700D03*
X110450000Y-142468700D03*
X112650900Y-134881900D03*
X109650000Y-127189600D03*
X112500000Y-137200000D03*
X109650000Y-129398800D03*
X113450000Y-142473800D03*
X115655200Y-135824700D03*
X112649500Y-126784000D03*
X116450000Y-119684600D03*
X115668000Y-138667400D03*
X109549000Y-135093400D03*
X112669900Y-129708000D03*
X118496600Y-123817700D03*
X118499100Y-126588100D03*
X122450000Y-119681400D03*
X121622000Y-139320000D03*
X118501200Y-129389400D03*
X122269800Y-124500000D03*
X118683700Y-133400000D03*
X121655700Y-125978600D03*
X121669900Y-129708000D03*
X106668700Y-126811200D03*
%TO.N,GND*%
X102923000Y-94656200D03*
X122200000Y-95300000D03*
X102401600Y-139500000D03*
X102559200Y-142500000D03*
X106448900Y-137553700D03*
X105350000Y-133500000D03*
X109650000Y-137378400D03*
X108500000Y-130500000D03*
X108500000Y-142500000D03*
X108500000Y-133500000D03*
X102400000Y-121500000D03*
X102680300Y-133500000D03*
X102750000Y-130500000D03*
X114701200Y-121501200D03*
X117778100Y-121500000D03*
X123151900Y-130500000D03*
X105766500Y-142500000D03*
X109343700Y-123763600D03*
X108700000Y-121500000D03*
X105350000Y-130500000D03*
X105350000Y-121500000D03*
X105350000Y-124500000D03*
X110580000Y-130476200D03*
X112500000Y-138800000D03*
X112652800Y-135743400D03*
X112666200Y-132536400D03*
X115657500Y-127162500D03*
X116470000Y-139470000D03*
X115653300Y-135015200D03*
X116320000Y-133479900D03*
X115594500Y-129800500D03*
X121500000Y-141146000D03*
X118653300Y-134983600D03*
X121500000Y-133128900D03*
X119550000Y-130481200D03*
X119550000Y-124500000D03*
X121661000Y-126784000D03*
X121666200Y-123848800D03*
X121652300Y-120555000D03*
X116520000Y-142480000D03*
X112664000Y-141454700D03*
X105550000Y-139525000D03*
X106348100Y-128496200D03*
X102550000Y-124509200D03*
X103329000Y-128419000D03*
X109359200Y-125669100D03*
X103337600Y-137378400D03*
X112329100Y-122191000D03*
X112340100Y-140180000D03*
X114550000Y-133532800D03*
X118353900Y-128546200D03*
X112351900Y-125003000D03*
X111550000Y-142518400D03*
X115350000Y-137440600D03*
X118600000Y-131800000D03*
X112335200Y-128546200D03*
X114550000Y-139535100D03*
X118349500Y-134170600D03*
X112347200Y-131172900D03*
X114918800Y-124519400D03*
X114550000Y-142532900D03*
X118347900Y-137433900D03*
X115334700Y-128601700D03*
X118348900Y-140171200D03*
X117728100Y-124515000D03*
X117295400Y-144307400D03*
X121336100Y-122435300D03*
X121351900Y-140088600D03*
X120903000Y-144305800D03*
X123882700Y-139467000D03*
X121335200Y-128546200D03*
X122269800Y-121500000D03*
X121346900Y-131471200D03*
X123550000Y-144302100D03*
X121339500Y-137378400D03*
X108550000Y-139525000D03*
X109338600Y-128400900D03*
%TD*%
D12*
%TO.N,LED_DO*%
X120946000Y-143046000D02*
X122400000Y-144500000D01*
X120946000Y-142443425D02*
X120946000Y-143046000D01*
X119601200Y-141098625D02*
X120946000Y-142443425D01*
X119601200Y-131317725D02*
X119601200Y-141098625D01*
X117174100Y-128890625D02*
X119601200Y-131317725D01*
X117174100Y-112174100D02*
X117174100Y-128890625D01*
X113200000Y-108200000D02*
X117174100Y-112174100D01*
X110397000Y-103897000D02*
X113200000Y-106700000D01*
X113200000Y-106700000D02*
X113200000Y-108200000D01*
X110397000Y-100603000D02*
X110397000Y-103897000D01*
X110400000Y-100600000D02*
X110397000Y-100603000D01*
D13*
%TO.N,Net-(LED34-DO)*%
X117228900Y-131449900D02*
X118344000Y-132565000D01*
X115649000Y-131449900D02*
X117228900Y-131449900D01*
%TD*%
%TA.AperFunction,Conductor*%
%TO.N,GND*%
G36*
X117767539Y-90120185D02*
G01*
X117813294Y-90172989D01*
X117824500Y-90224500D01*
X117824500Y-92884135D01*
X117851444Y-93010900D01*
X117859486Y-93048731D01*
X117927928Y-93202455D01*
X118026836Y-93338589D01*
X118026837Y-93338590D01*
X118026838Y-93338591D01*
X118026840Y-93338594D01*
X118102907Y-93407084D01*
X118151886Y-93451185D01*
X118297614Y-93535321D01*
X118297616Y-93535321D01*
X118297619Y-93535323D01*
X118338941Y-93548749D01*
X118457650Y-93587320D01*
X118625000Y-93604909D01*
X118792350Y-93587320D01*
X118952386Y-93535321D01*
X119098114Y-93451185D01*
X119199254Y-93360118D01*
X119223159Y-93338594D01*
X119223159Y-93338592D01*
X119223164Y-93338589D01*
X119322072Y-93202455D01*
X119390514Y-93048731D01*
X119425500Y-92884136D01*
X119425500Y-92800000D01*
X119425500Y-92760118D01*
X119425500Y-92735456D01*
X119425499Y-92735450D01*
X119425500Y-90224500D01*
X119445185Y-90157460D01*
X119497989Y-90111706D01*
X119549500Y-90100500D01*
X122100500Y-90100500D01*
X122167539Y-90120185D01*
X122213294Y-90172989D01*
X122224500Y-90224500D01*
X122224500Y-93360118D01*
X122224500Y-93400000D01*
X122224500Y-93468993D01*
X122224500Y-93468995D01*
X122224499Y-93468995D01*
X122251418Y-93604322D01*
X122251421Y-93604332D01*
X122304221Y-93731804D01*
X122304228Y-93731817D01*
X122380885Y-93846541D01*
X122380888Y-93846545D01*
X122478454Y-93944111D01*
X122478458Y-93944114D01*
X122593182Y-94020771D01*
X122593195Y-94020778D01*
X122676465Y-94055269D01*
X122720672Y-94073580D01*
X122720676Y-94073580D01*
X122720677Y-94073581D01*
X122856004Y-94100500D01*
X122856007Y-94100500D01*
X122902410Y-94100500D01*
X123365589Y-94100500D01*
X123432628Y-94120185D01*
X123453270Y-94136819D01*
X124263181Y-94946730D01*
X124296666Y-95008053D01*
X124299500Y-95034411D01*
X124299500Y-118700891D01*
X124279815Y-118767930D01*
X124227011Y-118813685D01*
X124157853Y-118823629D01*
X124109528Y-118805885D01*
X123994823Y-118733811D01*
X123824554Y-118674231D01*
X123824549Y-118674230D01*
X123645304Y-118654035D01*
X123645296Y-118654035D01*
X123466050Y-118674230D01*
X123466045Y-118674231D01*
X123295776Y-118733811D01*
X123143037Y-118829784D01*
X123015480Y-118957341D01*
X123013391Y-118959961D01*
X123011614Y-118961207D01*
X123010560Y-118962262D01*
X123010375Y-118962077D01*
X122956198Y-119000095D01*
X122886386Y-119002937D01*
X122850480Y-118987630D01*
X122799524Y-118955611D01*
X122629254Y-118896031D01*
X122629249Y-118896030D01*
X122450004Y-118875835D01*
X122449996Y-118875835D01*
X122270750Y-118896030D01*
X122270745Y-118896031D01*
X122100476Y-118955611D01*
X121947737Y-119051584D01*
X121820184Y-119179137D01*
X121724211Y-119331876D01*
X121664631Y-119502145D01*
X121664630Y-119502150D01*
X121644435Y-119681396D01*
X121644435Y-119681403D01*
X121664630Y-119860649D01*
X121664631Y-119860654D01*
X121724211Y-120030923D01*
X121760965Y-120089416D01*
X121820184Y-120183662D01*
X121947738Y-120311216D01*
X121969976Y-120325189D01*
X122096938Y-120404965D01*
X122100478Y-120407189D01*
X122262457Y-120463868D01*
X122270745Y-120466768D01*
X122270750Y-120466769D01*
X122449996Y-120486965D01*
X122450000Y-120486965D01*
X122450004Y-120486965D01*
X122629249Y-120466769D01*
X122629252Y-120466768D01*
X122629255Y-120466768D01*
X122799522Y-120407189D01*
X122952262Y-120311216D01*
X123079816Y-120183662D01*
X123079824Y-120183648D01*
X123081891Y-120181058D01*
X123083666Y-120179811D01*
X123084740Y-120178738D01*
X123084927Y-120178925D01*
X123139075Y-120140913D01*
X123208887Y-120138056D01*
X123244817Y-120153369D01*
X123295773Y-120185387D01*
X123295777Y-120185388D01*
X123295778Y-120185389D01*
X123430196Y-120232424D01*
X123466045Y-120244968D01*
X123466050Y-120244969D01*
X123645296Y-120265165D01*
X123645300Y-120265165D01*
X123645304Y-120265165D01*
X123824549Y-120244969D01*
X123824552Y-120244968D01*
X123824555Y-120244968D01*
X123994822Y-120185389D01*
X124109529Y-120113313D01*
X124176764Y-120094314D01*
X124243600Y-120114681D01*
X124288814Y-120167949D01*
X124299500Y-120218308D01*
X124299500Y-120853060D01*
X124279815Y-120920099D01*
X124227011Y-120965854D01*
X124157853Y-120975798D01*
X124094297Y-120946773D01*
X124087819Y-120940741D01*
X123982262Y-120835184D01*
X123829523Y-120739211D01*
X123659254Y-120679631D01*
X123659249Y-120679630D01*
X123480004Y-120659435D01*
X123479996Y-120659435D01*
X123300750Y-120679630D01*
X123300745Y-120679631D01*
X123130476Y-120739211D01*
X122977737Y-120835184D01*
X122850184Y-120962737D01*
X122754211Y-121115476D01*
X122694631Y-121285745D01*
X122694630Y-121285750D01*
X122674435Y-121464996D01*
X122674435Y-121465003D01*
X122694630Y-121644249D01*
X122694631Y-121644254D01*
X122754211Y-121814523D01*
X122842965Y-121955773D01*
X122850184Y-121967262D01*
X122977738Y-122094816D01*
X123130478Y-122190789D01*
X123238507Y-122228590D01*
X123300745Y-122250368D01*
X123300750Y-122250369D01*
X123479996Y-122270565D01*
X123480000Y-122270565D01*
X123480004Y-122270565D01*
X123659249Y-122250369D01*
X123659252Y-122250368D01*
X123659255Y-122250368D01*
X123829522Y-122190789D01*
X123982262Y-122094816D01*
X124087822Y-121989255D01*
X124149141Y-121955773D01*
X124218833Y-121960757D01*
X124274767Y-122002628D01*
X124299184Y-122068092D01*
X124299500Y-122076939D01*
X124299500Y-123995253D01*
X124279815Y-124062292D01*
X124227011Y-124108047D01*
X124157853Y-124117991D01*
X124094297Y-124088966D01*
X124070507Y-124061225D01*
X124009820Y-123964643D01*
X124009815Y-123964637D01*
X123882262Y-123837084D01*
X123729523Y-123741111D01*
X123559254Y-123681531D01*
X123559249Y-123681530D01*
X123380004Y-123661335D01*
X123379996Y-123661335D01*
X123200750Y-123681530D01*
X123200745Y-123681531D01*
X123030476Y-123741111D01*
X122877733Y-123837086D01*
X122876738Y-123837881D01*
X122875973Y-123838193D01*
X122871842Y-123840789D01*
X122871387Y-123840065D01*
X122812050Y-123864288D01*
X122743355Y-123851530D01*
X122733456Y-123845926D01*
X122619323Y-123774211D01*
X122449054Y-123714631D01*
X122449049Y-123714630D01*
X122269804Y-123694435D01*
X122269796Y-123694435D01*
X122090550Y-123714630D01*
X122090545Y-123714631D01*
X121920276Y-123774211D01*
X121767537Y-123870184D01*
X121767536Y-123870185D01*
X121678632Y-123959088D01*
X121617309Y-123992572D01*
X121549997Y-123988447D01*
X121493657Y-123968732D01*
X121493646Y-123968730D01*
X121314404Y-123948535D01*
X121314396Y-123948535D01*
X121135150Y-123968730D01*
X121135145Y-123968731D01*
X120964876Y-124028311D01*
X120812137Y-124124284D01*
X120684584Y-124251837D01*
X120588611Y-124404576D01*
X120529031Y-124574845D01*
X120529030Y-124574850D01*
X120508835Y-124754096D01*
X120508835Y-124754103D01*
X120529030Y-124933349D01*
X120529031Y-124933354D01*
X120588611Y-125103623D01*
X120682012Y-125252268D01*
X120684584Y-125256362D01*
X120812138Y-125383916D01*
X120840998Y-125402050D01*
X120902022Y-125440394D01*
X120948313Y-125492729D01*
X120958961Y-125561783D01*
X120941044Y-125611359D01*
X120929909Y-125629079D01*
X120870333Y-125799337D01*
X120870330Y-125799350D01*
X120850135Y-125978596D01*
X120850135Y-125978603D01*
X120870330Y-126157849D01*
X120870331Y-126157854D01*
X120929911Y-126328123D01*
X120980636Y-126408850D01*
X121025884Y-126480862D01*
X121153438Y-126608416D01*
X121190884Y-126631945D01*
X121299068Y-126699922D01*
X121306178Y-126704389D01*
X121403956Y-126738603D01*
X121476445Y-126763968D01*
X121476450Y-126763969D01*
X121655696Y-126784165D01*
X121655700Y-126784165D01*
X121655704Y-126784165D01*
X121834949Y-126763969D01*
X121834952Y-126763968D01*
X121834955Y-126763968D01*
X122005222Y-126704389D01*
X122157962Y-126608416D01*
X122285516Y-126480862D01*
X122381489Y-126328122D01*
X122441068Y-126157855D01*
X122441482Y-126154184D01*
X122461265Y-125978603D01*
X122461265Y-125978596D01*
X122441069Y-125799350D01*
X122441068Y-125799345D01*
X122435186Y-125782535D01*
X122381489Y-125629078D01*
X122289260Y-125482297D01*
X122270261Y-125415063D01*
X122290628Y-125348227D01*
X122343896Y-125303013D01*
X122380372Y-125293107D01*
X122449049Y-125285369D01*
X122449052Y-125285368D01*
X122449055Y-125285368D01*
X122619322Y-125225789D01*
X122772062Y-125129816D01*
X122772068Y-125129809D01*
X122773046Y-125129031D01*
X122773805Y-125128720D01*
X122777959Y-125126111D01*
X122778415Y-125126837D01*
X122837729Y-125102613D01*
X122906426Y-125115360D01*
X122916338Y-125120970D01*
X122930418Y-125129817D01*
X123030475Y-125192688D01*
X123200745Y-125252268D01*
X123200750Y-125252269D01*
X123379996Y-125272465D01*
X123380000Y-125272465D01*
X123380004Y-125272465D01*
X123559249Y-125252269D01*
X123559252Y-125252268D01*
X123559255Y-125252268D01*
X123729522Y-125192689D01*
X123882262Y-125096716D01*
X124009816Y-124969162D01*
X124070506Y-124872573D01*
X124122841Y-124826283D01*
X124191894Y-124815635D01*
X124255743Y-124844010D01*
X124294115Y-124902399D01*
X124299500Y-124938546D01*
X124299500Y-149575500D01*
X124279815Y-149642539D01*
X124227011Y-149688294D01*
X124175500Y-149699500D01*
X114907452Y-149699500D01*
X114840413Y-149679815D01*
X114794658Y-149627011D01*
X114785835Y-149599692D01*
X114771121Y-149525723D01*
X114726880Y-149303309D01*
X114629945Y-149017748D01*
X114496566Y-148747282D01*
X114329025Y-148496539D01*
X114130189Y-148269810D01*
X113903459Y-148070973D01*
X113652720Y-147903435D01*
X113652713Y-147903431D01*
X113382268Y-147770062D01*
X113382247Y-147770053D01*
X113096698Y-147673122D01*
X113096692Y-147673120D01*
X113096691Y-147673120D01*
X113096689Y-147673119D01*
X113096683Y-147673118D01*
X112800930Y-147614288D01*
X112800921Y-147614287D01*
X112800920Y-147614287D01*
X112500000Y-147594564D01*
X112499999Y-147594564D01*
X112349540Y-147604425D01*
X112199080Y-147614287D01*
X112199079Y-147614287D01*
X112199069Y-147614288D01*
X111903316Y-147673118D01*
X111903301Y-147673122D01*
X111617752Y-147770053D01*
X111617731Y-147770062D01*
X111347286Y-147903431D01*
X111347279Y-147903435D01*
X111096540Y-148070973D01*
X110869810Y-148269810D01*
X110670973Y-148496540D01*
X110503435Y-148747279D01*
X110503431Y-148747286D01*
X110370062Y-149017731D01*
X110370053Y-149017752D01*
X110273122Y-149303301D01*
X110273119Y-149303313D01*
X110214165Y-149599692D01*
X110181780Y-149661603D01*
X110121064Y-149696177D01*
X110092548Y-149699500D01*
X100824500Y-149699500D01*
X100757461Y-149679815D01*
X100711706Y-149627011D01*
X100700500Y-149575500D01*
X100700500Y-145320540D01*
X100720185Y-145253501D01*
X100772989Y-145207746D01*
X100842147Y-145197802D01*
X100905703Y-145226827D01*
X100912180Y-145232858D01*
X101011938Y-145332616D01*
X101164678Y-145428589D01*
X101334944Y-145488168D01*
X101334945Y-145488168D01*
X101334950Y-145488169D01*
X101514196Y-145508365D01*
X101514200Y-145508365D01*
X101514204Y-145508365D01*
X101693449Y-145488169D01*
X101693452Y-145488168D01*
X101693455Y-145488168D01*
X101863722Y-145428589D01*
X102016462Y-145332616D01*
X102144016Y-145205062D01*
X102239989Y-145052322D01*
X102299568Y-144882055D01*
X102299569Y-144882049D01*
X102319765Y-144702803D01*
X111944435Y-144702803D01*
X111964630Y-144882049D01*
X111964631Y-144882054D01*
X112024211Y-145052323D01*
X112115622Y-145197802D01*
X112120184Y-145205062D01*
X112247738Y-145332616D01*
X112400478Y-145428589D01*
X112570745Y-145488168D01*
X112570750Y-145488169D01*
X112749996Y-145508365D01*
X112750000Y-145508365D01*
X112750004Y-145508365D01*
X112929249Y-145488169D01*
X112929252Y-145488168D01*
X112929255Y-145488168D01*
X113099522Y-145428589D01*
X113252262Y-145332616D01*
X113379816Y-145205062D01*
X113475789Y-145052322D01*
X113535368Y-144882055D01*
X113535369Y-144882049D01*
X113555565Y-144702803D01*
X113555565Y-144702796D01*
X113535369Y-144523550D01*
X113535368Y-144523545D01*
X113475788Y-144353276D01*
X113379815Y-144200537D01*
X113252262Y-144072984D01*
X113099523Y-143977011D01*
X112929254Y-143917431D01*
X112929249Y-143917430D01*
X112750004Y-143897235D01*
X112749996Y-143897235D01*
X112570750Y-143917430D01*
X112570745Y-143917431D01*
X112400476Y-143977011D01*
X112247737Y-144072984D01*
X112120184Y-144200537D01*
X112024211Y-144353276D01*
X111964631Y-144523545D01*
X111964630Y-144523550D01*
X111944435Y-144702796D01*
X111944435Y-144702803D01*
X102319765Y-144702803D01*
X102319765Y-144702796D01*
X102299569Y-144523550D01*
X102299568Y-144523545D01*
X102239988Y-144353276D01*
X102144015Y-144200537D01*
X102016462Y-144072984D01*
X101863723Y-143977011D01*
X101693454Y-143917431D01*
X101693449Y-143917430D01*
X101514204Y-143897235D01*
X101514196Y-143897235D01*
X101334950Y-143917430D01*
X101334945Y-143917431D01*
X101164676Y-143977011D01*
X101011937Y-144072984D01*
X100912181Y-144172741D01*
X100850858Y-144206226D01*
X100781166Y-144201242D01*
X100725233Y-144159370D01*
X100700816Y-144093906D01*
X100700500Y-144085060D01*
X100700500Y-143259525D01*
X100720185Y-143192486D01*
X100772989Y-143146731D01*
X100842147Y-143136787D01*
X100890471Y-143154530D01*
X101003878Y-143225789D01*
X101158018Y-143279725D01*
X101174145Y-143285368D01*
X101174150Y-143285369D01*
X101353396Y-143305565D01*
X101353400Y-143305565D01*
X101353404Y-143305565D01*
X101532649Y-143285369D01*
X101532652Y-143285368D01*
X101532655Y-143285368D01*
X101702922Y-143225789D01*
X101855662Y-143129816D01*
X101983216Y-143002262D01*
X102079189Y-142849522D01*
X102138768Y-142679255D01*
X102142239Y-142648450D01*
X102158965Y-142500003D01*
X103755335Y-142500003D01*
X103775530Y-142679249D01*
X103775531Y-142679254D01*
X103835111Y-142849523D01*
X103908000Y-142965524D01*
X103931084Y-143002262D01*
X104058638Y-143129816D01*
X104211378Y-143225789D01*
X104364158Y-143279249D01*
X104381645Y-143285368D01*
X104381650Y-143285369D01*
X104560896Y-143305565D01*
X104560900Y-143305565D01*
X104560904Y-143305565D01*
X104740149Y-143285369D01*
X104740152Y-143285368D01*
X104740155Y-143285368D01*
X104910422Y-143225789D01*
X105063162Y-143129816D01*
X105190716Y-143002262D01*
X105286689Y-142849522D01*
X105346268Y-142679255D01*
X105349739Y-142648450D01*
X105366465Y-142500003D01*
X105366465Y-142499996D01*
X105346269Y-142320750D01*
X105346268Y-142320745D01*
X105318038Y-142240068D01*
X105286689Y-142150478D01*
X105270226Y-142124278D01*
X105218736Y-142042332D01*
X105190716Y-141997738D01*
X105063162Y-141870184D01*
X105029007Y-141848723D01*
X104910423Y-141774211D01*
X104740154Y-141714631D01*
X104740149Y-141714630D01*
X104560904Y-141694435D01*
X104560896Y-141694435D01*
X104381650Y-141714630D01*
X104381645Y-141714631D01*
X104211376Y-141774211D01*
X104058637Y-141870184D01*
X103931084Y-141997737D01*
X103835111Y-142150476D01*
X103775531Y-142320745D01*
X103775530Y-142320750D01*
X103755335Y-142499996D01*
X103755335Y-142500003D01*
X102158965Y-142500003D01*
X102158965Y-142499996D01*
X102138769Y-142320750D01*
X102138768Y-142320745D01*
X102110538Y-142240068D01*
X102079189Y-142150478D01*
X102062726Y-142124278D01*
X102011236Y-142042332D01*
X101983216Y-141997738D01*
X101855662Y-141870184D01*
X101821507Y-141848723D01*
X101702923Y-141774211D01*
X101532654Y-141714631D01*
X101532649Y-141714630D01*
X101353404Y-141694435D01*
X101353396Y-141694435D01*
X101174150Y-141714630D01*
X101174145Y-141714631D01*
X101003876Y-141774211D01*
X100890472Y-141845468D01*
X100823235Y-141864468D01*
X100756400Y-141844100D01*
X100711186Y-141790832D01*
X100700500Y-141740474D01*
X100700500Y-141454703D01*
X105644435Y-141454703D01*
X105664630Y-141633949D01*
X105664631Y-141633954D01*
X105724211Y-141804223D01*
X105813994Y-141947111D01*
X105820184Y-141956962D01*
X105947738Y-142084516D01*
X105975422Y-142101911D01*
X106100477Y-142180489D01*
X106108966Y-142183459D01*
X106165744Y-142224179D01*
X106191493Y-142289131D01*
X106178038Y-142357693D01*
X106133988Y-142405495D01*
X106031039Y-142470182D01*
X105903484Y-142597737D01*
X105807511Y-142750476D01*
X105747931Y-142920745D01*
X105747930Y-142920750D01*
X105727735Y-143099996D01*
X105727735Y-143100003D01*
X105747930Y-143279249D01*
X105747931Y-143279254D01*
X105807511Y-143449523D01*
X105845907Y-143510629D01*
X105903484Y-143602262D01*
X106031038Y-143729816D01*
X106183778Y-143825789D01*
X106310652Y-143870184D01*
X106354045Y-143885368D01*
X106354050Y-143885369D01*
X106533296Y-143905565D01*
X106533300Y-143905565D01*
X106533304Y-143905565D01*
X106712549Y-143885369D01*
X106712552Y-143885368D01*
X106712555Y-143885368D01*
X106882822Y-143825789D01*
X107035562Y-143729816D01*
X107163116Y-143602262D01*
X107259089Y-143449522D01*
X107287822Y-143367407D01*
X107328542Y-143310633D01*
X107393495Y-143284885D01*
X107418747Y-143285143D01*
X107599997Y-143305565D01*
X107600000Y-143305565D01*
X107600004Y-143305565D01*
X107779249Y-143285369D01*
X107779252Y-143285368D01*
X107779255Y-143285368D01*
X107949522Y-143225789D01*
X108102262Y-143129816D01*
X108229816Y-143002262D01*
X108325789Y-142849522D01*
X108333424Y-142827703D01*
X108844435Y-142827703D01*
X108864630Y-143006949D01*
X108864631Y-143006954D01*
X108924211Y-143177223D01*
X109000382Y-143298447D01*
X109020184Y-143329962D01*
X109147738Y-143457516D01*
X109300478Y-143553489D01*
X109439863Y-143602262D01*
X109470745Y-143613068D01*
X109470750Y-143613069D01*
X109649996Y-143633265D01*
X109650000Y-143633265D01*
X109650004Y-143633265D01*
X109829249Y-143613069D01*
X109829252Y-143613068D01*
X109829255Y-143613068D01*
X109999522Y-143553489D01*
X110152262Y-143457516D01*
X110279816Y-143329962D01*
X110282293Y-143326018D01*
X110334621Y-143279725D01*
X110401173Y-143268763D01*
X110450000Y-143274265D01*
X110450004Y-143274265D01*
X110629249Y-143254069D01*
X110629252Y-143254068D01*
X110629255Y-143254068D01*
X110799522Y-143194489D01*
X110952262Y-143098516D01*
X111079816Y-142970962D01*
X111175789Y-142818222D01*
X111235368Y-142647955D01*
X111252038Y-142500003D01*
X111254990Y-142473803D01*
X112644435Y-142473803D01*
X112664630Y-142653049D01*
X112664631Y-142653054D01*
X112724211Y-142823323D01*
X112816979Y-142970962D01*
X112820184Y-142976062D01*
X112947738Y-143103616D01*
X113016355Y-143146731D01*
X113092359Y-143194488D01*
X113100478Y-143199589D01*
X113246751Y-143250772D01*
X113270745Y-143259168D01*
X113270750Y-143259169D01*
X113449996Y-143279365D01*
X113450000Y-143279365D01*
X113450004Y-143279365D01*
X113629249Y-143259169D01*
X113629252Y-143259168D01*
X113629255Y-143259168D01*
X113799522Y-143199589D01*
X113952262Y-143103616D01*
X114079816Y-142976062D01*
X114175789Y-142823322D01*
X114235368Y-142653055D01*
X114235887Y-142648450D01*
X114255565Y-142473803D01*
X114255565Y-142473796D01*
X114235369Y-142294550D01*
X114235368Y-142294545D01*
X114177447Y-142129016D01*
X114175789Y-142124278D01*
X114174684Y-142122520D01*
X114111608Y-142022135D01*
X114079816Y-141971538D01*
X113952262Y-141843984D01*
X113944145Y-141838884D01*
X113799523Y-141748011D01*
X113629254Y-141688431D01*
X113629249Y-141688430D01*
X113450004Y-141668235D01*
X113449996Y-141668235D01*
X113270750Y-141688430D01*
X113270745Y-141688431D01*
X113100476Y-141748011D01*
X112947737Y-141843984D01*
X112820184Y-141971537D01*
X112724211Y-142124276D01*
X112664631Y-142294545D01*
X112664630Y-142294550D01*
X112644435Y-142473796D01*
X112644435Y-142473803D01*
X111254990Y-142473803D01*
X111255565Y-142468703D01*
X111255565Y-142468696D01*
X111235369Y-142289450D01*
X111235368Y-142289445D01*
X111212814Y-142224989D01*
X111175789Y-142119178D01*
X111164939Y-142101911D01*
X111123750Y-142036359D01*
X111079816Y-141966438D01*
X110952262Y-141838884D01*
X110941591Y-141832179D01*
X110799523Y-141742911D01*
X110629254Y-141683331D01*
X110629249Y-141683330D01*
X110450004Y-141663135D01*
X110449996Y-141663135D01*
X110270750Y-141683330D01*
X110270745Y-141683331D01*
X110100476Y-141742911D01*
X109947737Y-141838884D01*
X109820186Y-141966435D01*
X109820178Y-141966446D01*
X109817695Y-141970397D01*
X109765356Y-142016683D01*
X109698826Y-142027636D01*
X109650000Y-142022135D01*
X109649998Y-142022135D01*
X109649996Y-142022135D01*
X109470750Y-142042330D01*
X109470745Y-142042331D01*
X109300476Y-142101911D01*
X109147737Y-142197884D01*
X109020184Y-142325437D01*
X108924211Y-142478176D01*
X108864631Y-142648445D01*
X108864630Y-142648450D01*
X108844435Y-142827696D01*
X108844435Y-142827703D01*
X108333424Y-142827703D01*
X108385368Y-142679255D01*
X108388839Y-142648450D01*
X108405565Y-142500003D01*
X108405565Y-142499996D01*
X108385369Y-142320750D01*
X108385368Y-142320745D01*
X108357138Y-142240068D01*
X108325789Y-142150478D01*
X108309326Y-142124278D01*
X108257836Y-142042332D01*
X108229816Y-141997738D01*
X108102262Y-141870184D01*
X108068107Y-141848723D01*
X107949523Y-141774211D01*
X107779254Y-141714631D01*
X107779249Y-141714630D01*
X107600004Y-141694435D01*
X107599996Y-141694435D01*
X107420750Y-141714630D01*
X107420737Y-141714633D01*
X107404562Y-141720293D01*
X107334783Y-141723852D01*
X107274157Y-141689121D01*
X107241932Y-141627127D01*
X107240392Y-141589366D01*
X107255565Y-141454703D01*
X114544435Y-141454703D01*
X114564630Y-141633949D01*
X114564631Y-141633954D01*
X114624211Y-141804223D01*
X114713994Y-141947111D01*
X114720184Y-141956962D01*
X114847738Y-142084516D01*
X115000478Y-142180489D01*
X115125337Y-142224179D01*
X115170745Y-142240068D01*
X115170750Y-142240069D01*
X115349996Y-142260265D01*
X115350000Y-142260265D01*
X115350004Y-142260265D01*
X115529249Y-142240069D01*
X115529252Y-142240068D01*
X115529255Y-142240068D01*
X115699522Y-142180489D01*
X115852262Y-142084516D01*
X115979816Y-141956962D01*
X116075789Y-141804222D01*
X116135368Y-141633955D01*
X116135369Y-141633949D01*
X116155565Y-141454703D01*
X116155565Y-141454696D01*
X116135369Y-141275450D01*
X116135368Y-141275445D01*
X116091360Y-141149678D01*
X116075789Y-141105178D01*
X115979816Y-140952438D01*
X115852262Y-140824884D01*
X115792516Y-140787343D01*
X115699523Y-140728911D01*
X115529254Y-140669331D01*
X115529249Y-140669330D01*
X115350004Y-140649135D01*
X115349996Y-140649135D01*
X115170750Y-140669330D01*
X115170745Y-140669331D01*
X115000476Y-140728911D01*
X114847737Y-140824884D01*
X114720184Y-140952437D01*
X114624211Y-141105176D01*
X114564631Y-141275445D01*
X114564630Y-141275450D01*
X114544435Y-141454696D01*
X114544435Y-141454703D01*
X107255565Y-141454703D01*
X107255565Y-141454702D01*
X107255565Y-141454696D01*
X107235369Y-141275450D01*
X107235368Y-141275445D01*
X107191360Y-141149678D01*
X107175789Y-141105178D01*
X107079816Y-140952438D01*
X106952262Y-140824884D01*
X106892516Y-140787343D01*
X106799523Y-140728911D01*
X106629254Y-140669331D01*
X106629249Y-140669330D01*
X106450004Y-140649135D01*
X106449996Y-140649135D01*
X106270750Y-140669330D01*
X106270745Y-140669331D01*
X106100476Y-140728911D01*
X105947737Y-140824884D01*
X105820184Y-140952437D01*
X105724211Y-141105176D01*
X105664631Y-141275445D01*
X105664630Y-141275450D01*
X105644435Y-141454696D01*
X105644435Y-141454703D01*
X100700500Y-141454703D01*
X100700500Y-140289937D01*
X100720185Y-140222898D01*
X100772989Y-140177143D01*
X100842147Y-140167199D01*
X100890472Y-140184943D01*
X100955478Y-140225789D01*
X101097741Y-140275569D01*
X101125745Y-140285368D01*
X101125750Y-140285369D01*
X101304996Y-140305565D01*
X101305000Y-140305565D01*
X101305004Y-140305565D01*
X101484249Y-140285369D01*
X101484252Y-140285368D01*
X101484255Y-140285368D01*
X101654522Y-140225789D01*
X101807262Y-140129816D01*
X101934816Y-140002262D01*
X102030789Y-139849522D01*
X102090368Y-139679255D01*
X102091465Y-139669522D01*
X102110565Y-139500003D01*
X102110565Y-139499996D01*
X102109462Y-139490203D01*
X103806635Y-139490203D01*
X103826830Y-139669449D01*
X103826831Y-139669454D01*
X103886411Y-139839723D01*
X103900549Y-139862223D01*
X103982384Y-139992462D01*
X104109938Y-140120016D01*
X104262678Y-140215989D01*
X104382127Y-140257786D01*
X104432945Y-140275568D01*
X104432950Y-140275569D01*
X104612196Y-140295765D01*
X104612200Y-140295765D01*
X104612204Y-140295765D01*
X104791449Y-140275569D01*
X104791452Y-140275568D01*
X104791455Y-140275568D01*
X104961722Y-140215989D01*
X105114462Y-140120016D01*
X105242016Y-139992462D01*
X105337989Y-139839722D01*
X105397568Y-139669455D01*
X105415230Y-139512703D01*
X109392835Y-139512703D01*
X109413030Y-139691949D01*
X109413031Y-139691954D01*
X109472611Y-139862223D01*
X109527649Y-139949815D01*
X109568584Y-140014962D01*
X109696138Y-140142516D01*
X109848878Y-140238489D01*
X109987280Y-140286918D01*
X110019145Y-140298068D01*
X110019150Y-140298069D01*
X110198396Y-140318265D01*
X110198400Y-140318265D01*
X110198404Y-140318265D01*
X110377649Y-140298069D01*
X110377652Y-140298068D01*
X110377655Y-140298068D01*
X110547922Y-140238489D01*
X110700662Y-140142516D01*
X110828216Y-140014962D01*
X110924189Y-139862222D01*
X110983768Y-139691955D01*
X110985200Y-139679249D01*
X111003965Y-139512703D01*
X111003965Y-139512696D01*
X110983769Y-139333450D01*
X110983768Y-139333445D01*
X110962229Y-139271889D01*
X110924189Y-139163178D01*
X110910093Y-139140745D01*
X110852045Y-139048362D01*
X110828216Y-139010438D01*
X110700662Y-138882884D01*
X110680450Y-138870184D01*
X110547923Y-138786911D01*
X110377654Y-138727331D01*
X110377649Y-138727330D01*
X110198404Y-138707135D01*
X110198396Y-138707135D01*
X110019150Y-138727330D01*
X110019145Y-138727331D01*
X109848876Y-138786911D01*
X109696137Y-138882884D01*
X109568584Y-139010437D01*
X109472611Y-139163176D01*
X109413031Y-139333445D01*
X109413030Y-139333450D01*
X109392835Y-139512696D01*
X109392835Y-139512703D01*
X105415230Y-139512703D01*
X105415230Y-139512700D01*
X105417765Y-139490203D01*
X105417765Y-139490196D01*
X105397569Y-139310950D01*
X105397568Y-139310945D01*
X105358561Y-139199469D01*
X105337989Y-139140678D01*
X105242016Y-138987938D01*
X105114462Y-138860384D01*
X105114461Y-138860384D01*
X104961723Y-138764411D01*
X104791454Y-138704831D01*
X104791449Y-138704830D01*
X104612204Y-138684635D01*
X104612196Y-138684635D01*
X104432950Y-138704830D01*
X104432945Y-138704831D01*
X104262676Y-138764411D01*
X104109937Y-138860384D01*
X103982384Y-138987937D01*
X103886411Y-139140676D01*
X103826831Y-139310945D01*
X103826830Y-139310950D01*
X103806635Y-139490196D01*
X103806635Y-139490203D01*
X102109462Y-139490203D01*
X102090369Y-139320750D01*
X102090368Y-139320745D01*
X102082134Y-139297215D01*
X102030789Y-139150478D01*
X102024676Y-139140750D01*
X101966625Y-139048362D01*
X101934816Y-138997738D01*
X101807262Y-138870184D01*
X101807261Y-138870183D01*
X101654523Y-138774211D01*
X101484254Y-138714631D01*
X101484249Y-138714630D01*
X101305004Y-138694435D01*
X101304996Y-138694435D01*
X101125750Y-138714630D01*
X101125745Y-138714631D01*
X100955474Y-138774212D01*
X100890471Y-138815056D01*
X100823234Y-138834056D01*
X100756399Y-138813688D01*
X100711186Y-138760420D01*
X100700500Y-138710062D01*
X100700500Y-138414103D01*
X105800035Y-138414103D01*
X105820230Y-138593349D01*
X105820231Y-138593354D01*
X105879811Y-138763623D01*
X105946768Y-138870184D01*
X105975784Y-138916362D01*
X106103338Y-139043916D01*
X106256078Y-139139889D01*
X106426345Y-139199467D01*
X106426345Y-139199468D01*
X106426350Y-139199469D01*
X106605596Y-139219665D01*
X106605600Y-139219665D01*
X106605604Y-139219665D01*
X106784849Y-139199469D01*
X106784852Y-139199468D01*
X106784855Y-139199468D01*
X106955122Y-139139889D01*
X107107862Y-139043916D01*
X107235416Y-138916362D01*
X107331389Y-138763622D01*
X107365057Y-138667403D01*
X114862435Y-138667403D01*
X114882630Y-138846649D01*
X114882631Y-138846654D01*
X114942211Y-139016923D01*
X114959172Y-139043916D01*
X115038184Y-139169662D01*
X115165738Y-139297216D01*
X115318478Y-139393189D01*
X115442511Y-139436590D01*
X115488745Y-139452768D01*
X115488750Y-139452769D01*
X115667996Y-139472965D01*
X115668000Y-139472965D01*
X115668004Y-139472965D01*
X115847249Y-139452769D01*
X115847252Y-139452768D01*
X115847255Y-139452768D01*
X116017522Y-139393189D01*
X116170262Y-139297216D01*
X116297816Y-139169662D01*
X116393789Y-139016922D01*
X116453368Y-138846655D01*
X116453369Y-138846649D01*
X116473565Y-138667403D01*
X116473565Y-138667396D01*
X116453369Y-138488150D01*
X116453368Y-138488145D01*
X116393789Y-138317878D01*
X116297816Y-138165138D01*
X116170262Y-138037584D01*
X116119304Y-138005565D01*
X116017523Y-137941611D01*
X115847254Y-137882031D01*
X115847249Y-137882030D01*
X115668004Y-137861835D01*
X115667996Y-137861835D01*
X115488750Y-137882030D01*
X115488745Y-137882031D01*
X115318476Y-137941611D01*
X115165737Y-138037584D01*
X115038184Y-138165137D01*
X114942211Y-138317876D01*
X114882631Y-138488145D01*
X114882630Y-138488150D01*
X114862435Y-138667396D01*
X114862435Y-138667403D01*
X107365057Y-138667403D01*
X107390968Y-138593355D01*
X107390969Y-138593349D01*
X107411165Y-138414103D01*
X107411165Y-138414096D01*
X107390969Y-138234850D01*
X107390968Y-138234845D01*
X107331388Y-138064576D01*
X107281618Y-137985368D01*
X107235416Y-137911838D01*
X107107862Y-137784284D01*
X107038236Y-137740535D01*
X106955123Y-137688311D01*
X106784854Y-137628731D01*
X106784849Y-137628730D01*
X106605604Y-137608535D01*
X106605596Y-137608535D01*
X106426350Y-137628730D01*
X106426345Y-137628731D01*
X106256076Y-137688311D01*
X106103337Y-137784284D01*
X105975784Y-137911837D01*
X105879811Y-138064576D01*
X105820231Y-138234845D01*
X105820230Y-138234850D01*
X105800035Y-138414096D01*
X105800035Y-138414103D01*
X100700500Y-138414103D01*
X100700500Y-137200003D01*
X111694435Y-137200003D01*
X111714630Y-137379249D01*
X111714631Y-137379254D01*
X111774211Y-137549523D01*
X111823981Y-137628731D01*
X111870184Y-137702262D01*
X111997738Y-137829816D01*
X112011912Y-137838722D01*
X112128273Y-137911837D01*
X112150478Y-137925789D01*
X112195695Y-137941611D01*
X112320745Y-137985368D01*
X112320750Y-137985369D01*
X112499996Y-138005565D01*
X112500000Y-138005565D01*
X112500004Y-138005565D01*
X112679249Y-137985369D01*
X112679252Y-137985368D01*
X112679255Y-137985368D01*
X112849522Y-137925789D01*
X113002262Y-137829816D01*
X113129816Y-137702262D01*
X113225789Y-137549522D01*
X113285368Y-137379255D01*
X113305565Y-137200000D01*
X113285368Y-137020745D01*
X113225789Y-136850478D01*
X113129816Y-136697738D01*
X113002262Y-136570184D01*
X112968492Y-136548965D01*
X112849523Y-136474211D01*
X112679254Y-136414631D01*
X112679249Y-136414630D01*
X112500004Y-136394435D01*
X112499996Y-136394435D01*
X112320750Y-136414630D01*
X112320745Y-136414631D01*
X112150476Y-136474211D01*
X111997737Y-136570184D01*
X111870184Y-136697737D01*
X111774211Y-136850476D01*
X111714631Y-137020745D01*
X111714630Y-137020750D01*
X111694435Y-137199996D01*
X111694435Y-137200003D01*
X100700500Y-137200003D01*
X100700500Y-135743403D01*
X102694435Y-135743403D01*
X102714630Y-135922649D01*
X102714631Y-135922654D01*
X102774211Y-136092923D01*
X102825295Y-136174222D01*
X102870184Y-136245662D01*
X102997738Y-136373216D01*
X103150478Y-136469189D01*
X103265923Y-136509585D01*
X103320745Y-136528768D01*
X103320750Y-136528769D01*
X103499996Y-136548965D01*
X103500000Y-136548965D01*
X103500004Y-136548965D01*
X103679249Y-136528769D01*
X103679252Y-136528768D01*
X103679255Y-136528768D01*
X103849522Y-136469189D01*
X104002262Y-136373216D01*
X104129816Y-136245662D01*
X104225789Y-136092922D01*
X104285368Y-135922655D01*
X104287242Y-135906022D01*
X104305565Y-135743403D01*
X104305565Y-135743396D01*
X104285369Y-135564150D01*
X104285368Y-135564145D01*
X104282694Y-135556503D01*
X105644435Y-135556503D01*
X105664630Y-135735749D01*
X105664631Y-135735754D01*
X105724211Y-135906023D01*
X105785746Y-136003954D01*
X105820184Y-136058762D01*
X105947738Y-136186316D01*
X106010565Y-136225793D01*
X106042186Y-136245662D01*
X106100478Y-136282289D01*
X106228146Y-136326962D01*
X106270745Y-136341868D01*
X106270750Y-136341869D01*
X106449996Y-136362065D01*
X106450000Y-136362065D01*
X106450004Y-136362065D01*
X106629249Y-136341869D01*
X106629252Y-136341868D01*
X106629255Y-136341868D01*
X106799522Y-136282289D01*
X106952262Y-136186316D01*
X107079816Y-136058762D01*
X107175789Y-135906022D01*
X107235368Y-135735755D01*
X107240809Y-135687465D01*
X107255565Y-135556503D01*
X107255565Y-135556496D01*
X107235369Y-135377250D01*
X107235368Y-135377245D01*
X107187742Y-135241137D01*
X107175789Y-135206978D01*
X107104425Y-135093403D01*
X108743435Y-135093403D01*
X108763630Y-135272649D01*
X108763631Y-135272654D01*
X108823211Y-135442923D01*
X108899384Y-135564150D01*
X108919184Y-135595662D01*
X109046738Y-135723216D01*
X109199478Y-135819189D01*
X109369744Y-135878767D01*
X109369745Y-135878768D01*
X109369750Y-135878769D01*
X109548996Y-135898965D01*
X109549000Y-135898965D01*
X109549004Y-135898965D01*
X109728249Y-135878769D01*
X109728252Y-135878768D01*
X109728255Y-135878768D01*
X109882764Y-135824703D01*
X114849635Y-135824703D01*
X114869830Y-136003949D01*
X114869831Y-136003954D01*
X114929411Y-136174223D01*
X114997313Y-136282288D01*
X115025384Y-136326962D01*
X115152938Y-136454516D01*
X115240580Y-136509585D01*
X115303252Y-136548965D01*
X115305678Y-136550489D01*
X115475944Y-136610068D01*
X115475945Y-136610068D01*
X115475950Y-136610069D01*
X115655196Y-136630265D01*
X115655200Y-136630265D01*
X115655204Y-136630265D01*
X115834449Y-136610069D01*
X115834452Y-136610068D01*
X115834455Y-136610068D01*
X116004722Y-136550489D01*
X116157462Y-136454516D01*
X116285016Y-136326962D01*
X116380989Y-136174222D01*
X116440568Y-136003955D01*
X116440569Y-136003949D01*
X116460765Y-135824703D01*
X116460765Y-135824696D01*
X116440569Y-135645450D01*
X116440568Y-135645445D01*
X116380988Y-135475176D01*
X116329905Y-135393878D01*
X116285016Y-135322438D01*
X116157462Y-135194884D01*
X116157462Y-135194883D01*
X116004723Y-135098911D01*
X115834454Y-135039331D01*
X115834449Y-135039330D01*
X115655204Y-135019135D01*
X115655196Y-135019135D01*
X115475950Y-135039330D01*
X115475945Y-135039331D01*
X115305676Y-135098911D01*
X115152937Y-135194884D01*
X115025384Y-135322437D01*
X114929411Y-135475176D01*
X114869831Y-135645445D01*
X114869830Y-135645450D01*
X114849635Y-135824696D01*
X114849635Y-135824703D01*
X109882764Y-135824703D01*
X109898522Y-135819189D01*
X110051262Y-135723216D01*
X110178816Y-135595662D01*
X110274789Y-135442922D01*
X110334368Y-135272655D01*
X110337919Y-135241138D01*
X110354565Y-135093403D01*
X110354565Y-135093396D01*
X110334369Y-134914150D01*
X110334368Y-134914145D01*
X110323086Y-134881903D01*
X111845335Y-134881903D01*
X111865530Y-135061149D01*
X111865531Y-135061154D01*
X111925111Y-135231423D01*
X111982300Y-135322438D01*
X112021084Y-135384162D01*
X112148638Y-135511716D01*
X112301378Y-135607689D01*
X112409293Y-135645450D01*
X112471645Y-135667268D01*
X112471650Y-135667269D01*
X112650896Y-135687465D01*
X112650900Y-135687465D01*
X112650904Y-135687465D01*
X112830149Y-135667269D01*
X112830152Y-135667268D01*
X112830155Y-135667268D01*
X113000422Y-135607689D01*
X113153162Y-135511716D01*
X113280716Y-135384162D01*
X113376689Y-135231422D01*
X113436268Y-135061155D01*
X113436269Y-135061149D01*
X113456465Y-134881903D01*
X113456465Y-134881896D01*
X113436269Y-134702650D01*
X113436268Y-134702645D01*
X113397250Y-134591138D01*
X113376689Y-134532378D01*
X113334704Y-134465560D01*
X113315705Y-134398325D01*
X113336073Y-134331489D01*
X113389340Y-134286275D01*
X113443036Y-134277995D01*
X113443036Y-134275965D01*
X113450004Y-134275965D01*
X113629249Y-134255769D01*
X113629252Y-134255768D01*
X113629255Y-134255768D01*
X113799522Y-134196189D01*
X113952262Y-134100216D01*
X114079816Y-133972662D01*
X114175789Y-133819922D01*
X114235368Y-133649655D01*
X114235413Y-133649255D01*
X114255565Y-133470403D01*
X114255565Y-133470396D01*
X114235369Y-133291150D01*
X114235368Y-133291145D01*
X114177272Y-133125116D01*
X114175789Y-133120878D01*
X114175536Y-133120476D01*
X114098666Y-132998138D01*
X114079816Y-132968138D01*
X113952262Y-132840584D01*
X113904920Y-132810837D01*
X113799523Y-132744611D01*
X113629254Y-132685031D01*
X113629249Y-132685030D01*
X113450004Y-132664835D01*
X113449996Y-132664835D01*
X113270750Y-132685030D01*
X113270745Y-132685031D01*
X113100476Y-132744611D01*
X112947737Y-132840584D01*
X112820184Y-132968137D01*
X112724211Y-133120876D01*
X112664631Y-133291145D01*
X112664630Y-133291150D01*
X112644435Y-133470396D01*
X112644435Y-133470403D01*
X112664630Y-133649649D01*
X112664631Y-133649654D01*
X112724211Y-133819923D01*
X112766194Y-133886738D01*
X112785194Y-133953975D01*
X112764826Y-134020810D01*
X112711558Y-134066024D01*
X112657864Y-134074310D01*
X112657864Y-134076335D01*
X112650896Y-134076335D01*
X112471650Y-134096530D01*
X112471645Y-134096531D01*
X112301376Y-134156111D01*
X112148637Y-134252084D01*
X112021084Y-134379637D01*
X111925111Y-134532376D01*
X111865531Y-134702645D01*
X111865530Y-134702650D01*
X111845335Y-134881896D01*
X111845335Y-134881903D01*
X110323086Y-134881903D01*
X110305173Y-134830711D01*
X110274789Y-134743878D01*
X110178816Y-134591138D01*
X110104869Y-134517191D01*
X110071384Y-134455868D01*
X110076368Y-134386176D01*
X110118240Y-134330243D01*
X110183704Y-134305826D01*
X110193036Y-134306018D01*
X110193036Y-134305565D01*
X110200004Y-134305565D01*
X110379249Y-134285369D01*
X110379252Y-134285368D01*
X110379255Y-134285368D01*
X110549522Y-134225789D01*
X110702262Y-134129816D01*
X110829816Y-134002262D01*
X110925789Y-133849522D01*
X110985368Y-133679255D01*
X110988703Y-133649655D01*
X111005565Y-133500003D01*
X111005565Y-133499996D01*
X110985369Y-133320750D01*
X110985368Y-133320745D01*
X110975012Y-133291150D01*
X110925789Y-133150478D01*
X110909852Y-133125115D01*
X110830067Y-132998138D01*
X110829816Y-132997738D01*
X110702262Y-132870184D01*
X110662351Y-132845106D01*
X110549523Y-132774211D01*
X110379254Y-132714631D01*
X110379249Y-132714630D01*
X110200004Y-132694435D01*
X110199996Y-132694435D01*
X110020750Y-132714630D01*
X110020745Y-132714631D01*
X109850476Y-132774211D01*
X109697737Y-132870184D01*
X109570184Y-132997737D01*
X109474211Y-133150476D01*
X109414631Y-133320745D01*
X109414630Y-133320750D01*
X109394435Y-133499996D01*
X109394435Y-133500003D01*
X109414630Y-133679249D01*
X109414631Y-133679254D01*
X109474211Y-133849523D01*
X109570184Y-134002262D01*
X109644130Y-134076208D01*
X109677615Y-134137531D01*
X109672631Y-134207223D01*
X109630759Y-134263156D01*
X109565295Y-134287573D01*
X109555964Y-134287388D01*
X109555964Y-134287835D01*
X109548996Y-134287835D01*
X109369750Y-134308030D01*
X109369745Y-134308031D01*
X109199476Y-134367611D01*
X109046737Y-134463584D01*
X108919184Y-134591137D01*
X108823211Y-134743876D01*
X108763631Y-134914145D01*
X108763630Y-134914150D01*
X108743435Y-135093396D01*
X108743435Y-135093403D01*
X107104425Y-135093403D01*
X107079816Y-135054238D01*
X106952262Y-134926684D01*
X106880989Y-134881900D01*
X106799523Y-134830711D01*
X106629254Y-134771131D01*
X106629249Y-134771130D01*
X106450004Y-134750935D01*
X106449996Y-134750935D01*
X106270750Y-134771130D01*
X106270745Y-134771131D01*
X106100476Y-134830711D01*
X105947737Y-134926684D01*
X105820184Y-135054237D01*
X105724211Y-135206976D01*
X105664631Y-135377245D01*
X105664630Y-135377250D01*
X105644435Y-135556496D01*
X105644435Y-135556503D01*
X104282694Y-135556503D01*
X104254236Y-135475176D01*
X104225789Y-135393878D01*
X104129816Y-135241138D01*
X104002262Y-135113584D01*
X103970144Y-135093403D01*
X103849523Y-135017611D01*
X103679254Y-134958031D01*
X103679249Y-134958030D01*
X103500004Y-134937835D01*
X103499996Y-134937835D01*
X103320750Y-134958030D01*
X103320745Y-134958031D01*
X103150476Y-135017611D01*
X102997737Y-135113584D01*
X102870184Y-135241137D01*
X102774211Y-135393876D01*
X102714631Y-135564145D01*
X102714630Y-135564150D01*
X102694435Y-135743396D01*
X102694435Y-135743403D01*
X100700500Y-135743403D01*
X100700500Y-134258519D01*
X100720185Y-134191480D01*
X100772989Y-134145725D01*
X100842147Y-134135781D01*
X100890471Y-134153525D01*
X100931774Y-134179478D01*
X101005475Y-134225788D01*
X101175745Y-134285368D01*
X101175750Y-134285369D01*
X101354996Y-134305565D01*
X101355000Y-134305565D01*
X101355004Y-134305565D01*
X101534249Y-134285369D01*
X101534252Y-134285368D01*
X101534255Y-134285368D01*
X101704522Y-134225789D01*
X101857262Y-134129816D01*
X101984816Y-134002262D01*
X102080789Y-133849522D01*
X102140368Y-133679255D01*
X102143703Y-133649655D01*
X102160565Y-133500003D01*
X103644435Y-133500003D01*
X103664630Y-133679249D01*
X103664631Y-133679254D01*
X103724211Y-133849523D01*
X103797912Y-133966816D01*
X103820184Y-134002262D01*
X103947738Y-134129816D01*
X104100478Y-134225789D01*
X104163468Y-134247830D01*
X104270745Y-134285368D01*
X104270750Y-134285369D01*
X104449996Y-134305565D01*
X104450000Y-134305565D01*
X104450004Y-134305565D01*
X104629249Y-134285369D01*
X104629252Y-134285368D01*
X104629255Y-134285368D01*
X104799522Y-134225789D01*
X104952262Y-134129816D01*
X105079816Y-134002262D01*
X105175789Y-133849522D01*
X105235368Y-133679255D01*
X105238703Y-133649655D01*
X105255565Y-133500003D01*
X105255565Y-133499996D01*
X105235369Y-133320750D01*
X105235368Y-133320745D01*
X105232694Y-133313103D01*
X105644435Y-133313103D01*
X105664630Y-133492349D01*
X105664631Y-133492354D01*
X105724211Y-133662623D01*
X105820184Y-133815361D01*
X105820184Y-133815362D01*
X105947738Y-133942916D01*
X106038080Y-133999681D01*
X106042186Y-134002262D01*
X106100478Y-134038889D01*
X106207130Y-134076208D01*
X106270745Y-134098468D01*
X106270750Y-134098469D01*
X106449996Y-134118665D01*
X106450000Y-134118665D01*
X106450004Y-134118665D01*
X106629249Y-134098469D01*
X106629252Y-134098468D01*
X106629255Y-134098468D01*
X106799522Y-134038889D01*
X106952262Y-133942916D01*
X107079816Y-133815362D01*
X107175789Y-133662622D01*
X107235368Y-133492355D01*
X107235369Y-133492349D01*
X107255565Y-133313103D01*
X107255565Y-133313096D01*
X107235369Y-133133850D01*
X107235368Y-133133845D01*
X107187882Y-132998138D01*
X107175789Y-132963578D01*
X107079816Y-132810838D01*
X106952262Y-132683284D01*
X106891294Y-132644975D01*
X106799523Y-132587311D01*
X106629254Y-132527731D01*
X106629249Y-132527730D01*
X106450004Y-132507535D01*
X106449996Y-132507535D01*
X106270750Y-132527730D01*
X106270745Y-132527731D01*
X106100476Y-132587311D01*
X105947737Y-132683284D01*
X105820184Y-132810837D01*
X105724211Y-132963576D01*
X105664631Y-133133845D01*
X105664630Y-133133850D01*
X105644435Y-133313096D01*
X105644435Y-133313103D01*
X105232694Y-133313103D01*
X105225012Y-133291150D01*
X105175789Y-133150478D01*
X105159852Y-133125115D01*
X105080067Y-132998138D01*
X105079816Y-132997738D01*
X104952262Y-132870184D01*
X104912351Y-132845106D01*
X104799523Y-132774211D01*
X104629254Y-132714631D01*
X104629249Y-132714630D01*
X104450004Y-132694435D01*
X104449996Y-132694435D01*
X104270750Y-132714630D01*
X104270745Y-132714631D01*
X104100476Y-132774211D01*
X103947737Y-132870184D01*
X103820184Y-132997737D01*
X103724211Y-133150476D01*
X103664631Y-133320745D01*
X103664630Y-133320750D01*
X103644435Y-133499996D01*
X103644435Y-133500003D01*
X102160565Y-133500003D01*
X102160565Y-133499996D01*
X102140369Y-133320750D01*
X102140368Y-133320745D01*
X102130012Y-133291150D01*
X102080789Y-133150478D01*
X102064852Y-133125115D01*
X101985067Y-132998138D01*
X101984816Y-132997738D01*
X101857262Y-132870184D01*
X101817351Y-132845106D01*
X101704523Y-132774211D01*
X101534254Y-132714631D01*
X101534249Y-132714630D01*
X101355004Y-132694435D01*
X101354996Y-132694435D01*
X101175750Y-132714630D01*
X101175745Y-132714631D01*
X101005476Y-132774211D01*
X100890472Y-132846474D01*
X100823235Y-132865474D01*
X100756400Y-132845106D01*
X100711186Y-132791838D01*
X100700500Y-132741480D01*
X100700500Y-131258519D01*
X100720185Y-131191480D01*
X100772989Y-131145725D01*
X100842147Y-131135781D01*
X100890471Y-131153525D01*
X100931774Y-131179478D01*
X101005475Y-131225788D01*
X101175745Y-131285368D01*
X101175750Y-131285369D01*
X101354996Y-131305565D01*
X101355000Y-131305565D01*
X101355004Y-131305565D01*
X101534249Y-131285369D01*
X101534252Y-131285368D01*
X101534255Y-131285368D01*
X101704522Y-131225789D01*
X101857262Y-131129816D01*
X101984816Y-131002262D01*
X102080789Y-130849522D01*
X102140368Y-130679255D01*
X102142027Y-130664530D01*
X102160565Y-130500003D01*
X103644435Y-130500003D01*
X103664630Y-130679249D01*
X103664631Y-130679254D01*
X103724211Y-130849523D01*
X103798129Y-130967162D01*
X103820184Y-131002262D01*
X103947738Y-131129816D01*
X104038080Y-131186581D01*
X104077100Y-131211100D01*
X104100478Y-131225789D01*
X104250400Y-131278249D01*
X104270745Y-131285368D01*
X104270750Y-131285369D01*
X104449996Y-131305565D01*
X104450000Y-131305565D01*
X104450004Y-131305565D01*
X104629249Y-131285369D01*
X104629252Y-131285368D01*
X104629255Y-131285368D01*
X104799522Y-131225789D01*
X104952262Y-131129816D01*
X105079816Y-131002262D01*
X105175789Y-130849522D01*
X105235368Y-130679255D01*
X105237027Y-130664530D01*
X105255565Y-130500003D01*
X105255565Y-130499996D01*
X105235369Y-130320750D01*
X105235368Y-130320745D01*
X105187578Y-130184169D01*
X105175789Y-130150478D01*
X105163223Y-130130480D01*
X105117381Y-130057522D01*
X105079816Y-129997738D01*
X104952262Y-129870184D01*
X104896401Y-129835084D01*
X104799523Y-129774211D01*
X104629254Y-129714631D01*
X104629249Y-129714630D01*
X104450004Y-129694435D01*
X104449996Y-129694435D01*
X104270750Y-129714630D01*
X104270745Y-129714631D01*
X104100476Y-129774211D01*
X103947737Y-129870184D01*
X103820184Y-129997737D01*
X103724211Y-130150476D01*
X103664631Y-130320745D01*
X103664630Y-130320750D01*
X103644435Y-130499996D01*
X103644435Y-130500003D01*
X102160565Y-130500003D01*
X102160565Y-130499996D01*
X102140369Y-130320750D01*
X102140368Y-130320745D01*
X102092578Y-130184169D01*
X102080789Y-130150478D01*
X102068223Y-130130480D01*
X102022381Y-130057522D01*
X101984816Y-129997738D01*
X101857262Y-129870184D01*
X101801401Y-129835084D01*
X101704523Y-129774211D01*
X101534254Y-129714631D01*
X101534249Y-129714630D01*
X101355004Y-129694435D01*
X101354996Y-129694435D01*
X101175750Y-129714630D01*
X101175745Y-129714631D01*
X101005476Y-129774211D01*
X100890472Y-129846474D01*
X100823235Y-129865474D01*
X100756400Y-129845106D01*
X100711186Y-129791838D01*
X100700500Y-129741480D01*
X100700500Y-129652203D01*
X105644435Y-129652203D01*
X105664630Y-129831449D01*
X105664631Y-129831454D01*
X105724211Y-130001723D01*
X105805114Y-130130478D01*
X105820184Y-130154462D01*
X105947738Y-130282016D01*
X106100478Y-130377989D01*
X106201431Y-130413314D01*
X106270745Y-130437568D01*
X106270750Y-130437569D01*
X106449996Y-130457765D01*
X106450000Y-130457765D01*
X106450004Y-130457765D01*
X106629249Y-130437569D01*
X106629252Y-130437568D01*
X106629255Y-130437568D01*
X106799522Y-130377989D01*
X106952262Y-130282016D01*
X107079816Y-130154462D01*
X107175789Y-130001722D01*
X107235368Y-129831455D01*
X107241818Y-129774211D01*
X107255565Y-129652203D01*
X107255565Y-129652196D01*
X107235369Y-129472950D01*
X107235368Y-129472945D01*
X107235367Y-129472944D01*
X107209424Y-129398803D01*
X108844435Y-129398803D01*
X108864630Y-129578049D01*
X108864631Y-129578054D01*
X108924211Y-129748323D01*
X109000782Y-129870184D01*
X109020184Y-129901062D01*
X109147738Y-130028616D01*
X109193742Y-130057522D01*
X109285818Y-130115378D01*
X109300478Y-130124589D01*
X109429912Y-130169880D01*
X109470745Y-130184168D01*
X109470750Y-130184169D01*
X109649996Y-130204365D01*
X109650000Y-130204365D01*
X109650004Y-130204365D01*
X109829249Y-130184169D01*
X109829252Y-130184168D01*
X109829255Y-130184168D01*
X109999522Y-130124589D01*
X110152262Y-130028616D01*
X110279816Y-129901062D01*
X110375789Y-129748322D01*
X110389897Y-129708003D01*
X111864335Y-129708003D01*
X111884530Y-129887249D01*
X111884531Y-129887254D01*
X111944111Y-130057523D01*
X112014710Y-130169880D01*
X112040084Y-130210262D01*
X112167638Y-130337816D01*
X112320378Y-130433789D01*
X112467522Y-130485277D01*
X112490645Y-130493368D01*
X112490650Y-130493369D01*
X112669896Y-130513565D01*
X112669900Y-130513565D01*
X112669904Y-130513565D01*
X112849149Y-130493369D01*
X112849152Y-130493368D01*
X112849155Y-130493368D01*
X113019422Y-130433789D01*
X113172162Y-130337816D01*
X113299716Y-130210262D01*
X113395689Y-130057522D01*
X113455268Y-129887255D01*
X113456918Y-129872613D01*
X113475465Y-129708003D01*
X113475465Y-129707996D01*
X113455269Y-129528750D01*
X113455268Y-129528745D01*
X113406509Y-129389400D01*
X113395689Y-129358478D01*
X113394963Y-129357323D01*
X113318428Y-129235518D01*
X113299716Y-129205738D01*
X113172162Y-129078184D01*
X113172162Y-129078183D01*
X113019423Y-128982211D01*
X112849154Y-128922631D01*
X112849149Y-128922630D01*
X112669904Y-128902435D01*
X112669896Y-128902435D01*
X112490650Y-128922630D01*
X112490645Y-128922631D01*
X112320376Y-128982211D01*
X112167637Y-129078184D01*
X112040084Y-129205737D01*
X111944111Y-129358476D01*
X111884531Y-129528745D01*
X111884530Y-129528750D01*
X111864335Y-129707996D01*
X111864335Y-129708003D01*
X110389897Y-129708003D01*
X110435368Y-129578055D01*
X110436427Y-129568655D01*
X110455565Y-129398803D01*
X110455565Y-129398796D01*
X110435369Y-129219550D01*
X110435368Y-129219545D01*
X110391474Y-129094104D01*
X110375789Y-129049278D01*
X110374934Y-129047918D01*
X110305243Y-128937005D01*
X110279816Y-128896538D01*
X110152262Y-128768984D01*
X110095615Y-128733390D01*
X109999523Y-128673011D01*
X109829254Y-128613431D01*
X109829249Y-128613430D01*
X109650004Y-128593235D01*
X109649996Y-128593235D01*
X109470750Y-128613430D01*
X109470745Y-128613431D01*
X109300476Y-128673011D01*
X109147737Y-128768984D01*
X109020184Y-128896537D01*
X108924211Y-129049276D01*
X108864631Y-129219545D01*
X108864630Y-129219550D01*
X108844435Y-129398796D01*
X108844435Y-129398803D01*
X107209424Y-129398803D01*
X107175789Y-129302678D01*
X107079816Y-129149938D01*
X106952262Y-129022384D01*
X106900034Y-128989567D01*
X106799523Y-128926411D01*
X106629254Y-128866831D01*
X106629249Y-128866830D01*
X106450004Y-128846635D01*
X106449996Y-128846635D01*
X106270750Y-128866830D01*
X106270745Y-128866831D01*
X106100476Y-128926411D01*
X105947737Y-129022384D01*
X105820184Y-129149937D01*
X105724211Y-129302676D01*
X105664631Y-129472945D01*
X105664630Y-129472950D01*
X105644435Y-129652196D01*
X105644435Y-129652203D01*
X100700500Y-129652203D01*
X100700500Y-126784003D01*
X102694435Y-126784003D01*
X102714630Y-126963249D01*
X102714631Y-126963254D01*
X102774211Y-127133523D01*
X102827239Y-127217916D01*
X102870184Y-127286262D01*
X102997738Y-127413816D01*
X103150478Y-127509789D01*
X103234307Y-127539122D01*
X103320745Y-127569368D01*
X103320750Y-127569369D01*
X103499996Y-127589565D01*
X103500000Y-127589565D01*
X103500004Y-127589565D01*
X103679249Y-127569369D01*
X103679252Y-127569368D01*
X103679255Y-127569368D01*
X103849522Y-127509789D01*
X104002262Y-127413816D01*
X104129816Y-127286262D01*
X104225789Y-127133522D01*
X104285368Y-126963255D01*
X104288256Y-126937622D01*
X104305565Y-126784003D01*
X104305565Y-126783996D01*
X104285369Y-126604750D01*
X104285368Y-126604745D01*
X104259093Y-126529655D01*
X104225789Y-126434478D01*
X104129816Y-126281738D01*
X104002262Y-126154184D01*
X103996795Y-126150749D01*
X103849523Y-126058211D01*
X103679254Y-125998631D01*
X103679249Y-125998630D01*
X103500004Y-125978435D01*
X103499996Y-125978435D01*
X103320750Y-125998630D01*
X103320745Y-125998631D01*
X103150476Y-126058211D01*
X102997737Y-126154184D01*
X102870184Y-126281737D01*
X102774211Y-126434476D01*
X102714631Y-126604745D01*
X102714630Y-126604750D01*
X102694435Y-126783996D01*
X102694435Y-126784003D01*
X100700500Y-126784003D01*
X100700500Y-125971503D01*
X105861035Y-125971503D01*
X105881230Y-126150749D01*
X105881231Y-126150754D01*
X105921991Y-126267238D01*
X105940809Y-126321017D01*
X105940812Y-126321024D01*
X105944600Y-126327054D01*
X105963596Y-126394291D01*
X105945687Y-126455283D01*
X105945933Y-126455402D01*
X105945216Y-126456890D01*
X105944601Y-126458986D01*
X105942914Y-126461671D01*
X105942909Y-126461681D01*
X105883333Y-126631937D01*
X105883330Y-126631950D01*
X105863135Y-126811196D01*
X105863135Y-126811203D01*
X105883330Y-126990449D01*
X105883331Y-126990454D01*
X105942911Y-127160723D01*
X105978848Y-127217916D01*
X106038884Y-127313462D01*
X106166438Y-127441016D01*
X106319178Y-127536989D01*
X106325277Y-127539123D01*
X106489445Y-127596568D01*
X106489450Y-127596569D01*
X106668696Y-127616765D01*
X106668700Y-127616765D01*
X106668704Y-127616765D01*
X106847949Y-127596569D01*
X106847952Y-127596568D01*
X106847955Y-127596568D01*
X107018222Y-127536989D01*
X107170962Y-127441016D01*
X107298516Y-127313462D01*
X107376342Y-127189603D01*
X108844435Y-127189603D01*
X108864630Y-127368849D01*
X108864631Y-127368854D01*
X108924211Y-127539123D01*
X108960307Y-127596569D01*
X109020184Y-127691862D01*
X109147738Y-127819416D01*
X109300478Y-127915389D01*
X109470744Y-127974967D01*
X109470745Y-127974968D01*
X109470750Y-127974969D01*
X109649996Y-127995165D01*
X109650000Y-127995165D01*
X109650004Y-127995165D01*
X109829249Y-127974969D01*
X109829252Y-127974968D01*
X109829255Y-127974968D01*
X109999522Y-127915389D01*
X110152262Y-127819416D01*
X110279816Y-127691862D01*
X110375789Y-127539122D01*
X110435368Y-127368855D01*
X110441561Y-127313889D01*
X110455565Y-127189603D01*
X110455565Y-127189596D01*
X110435369Y-127010350D01*
X110435368Y-127010345D01*
X110375788Y-126840076D01*
X110340555Y-126784003D01*
X111843935Y-126784003D01*
X111864130Y-126963249D01*
X111864131Y-126963254D01*
X111923711Y-127133523D01*
X111976739Y-127217916D01*
X112019684Y-127286262D01*
X112147238Y-127413816D01*
X112299978Y-127509789D01*
X112383807Y-127539122D01*
X112470245Y-127569368D01*
X112470250Y-127569369D01*
X112649496Y-127589565D01*
X112649500Y-127589565D01*
X112649504Y-127589565D01*
X112828749Y-127569369D01*
X112828752Y-127569368D01*
X112828755Y-127569368D01*
X112999022Y-127509789D01*
X113151762Y-127413816D01*
X113279316Y-127286262D01*
X113375289Y-127133522D01*
X113434868Y-126963255D01*
X113437756Y-126937622D01*
X113455065Y-126784003D01*
X113455065Y-126783996D01*
X113434869Y-126604750D01*
X113434868Y-126604745D01*
X113408593Y-126529655D01*
X113375289Y-126434478D01*
X113279316Y-126281738D01*
X113151762Y-126154184D01*
X113146295Y-126150749D01*
X112999023Y-126058211D01*
X112828754Y-125998631D01*
X112828749Y-125998630D01*
X112649504Y-125978435D01*
X112649496Y-125978435D01*
X112470250Y-125998630D01*
X112470245Y-125998631D01*
X112299976Y-126058211D01*
X112147237Y-126154184D01*
X112019684Y-126281737D01*
X111923711Y-126434476D01*
X111864131Y-126604745D01*
X111864130Y-126604750D01*
X111843935Y-126783996D01*
X111843935Y-126784003D01*
X110340555Y-126784003D01*
X110290529Y-126704388D01*
X110279816Y-126687338D01*
X110152262Y-126559784D01*
X110104312Y-126529655D01*
X109999523Y-126463811D01*
X109829254Y-126404231D01*
X109829249Y-126404230D01*
X109650004Y-126384035D01*
X109649996Y-126384035D01*
X109470750Y-126404230D01*
X109470745Y-126404231D01*
X109300476Y-126463811D01*
X109147737Y-126559784D01*
X109020184Y-126687337D01*
X108924211Y-126840076D01*
X108864631Y-127010345D01*
X108864630Y-127010350D01*
X108844435Y-127189596D01*
X108844435Y-127189603D01*
X107376342Y-127189603D01*
X107394489Y-127160722D01*
X107454068Y-126990455D01*
X107454069Y-126990449D01*
X107474265Y-126811203D01*
X107474265Y-126811196D01*
X107454069Y-126631950D01*
X107454068Y-126631945D01*
X107438726Y-126588100D01*
X107394489Y-126461678D01*
X107392797Y-126458986D01*
X107390704Y-126455654D01*
X107371701Y-126388418D01*
X107389614Y-126327418D01*
X107389366Y-126327299D01*
X107390093Y-126325787D01*
X107390707Y-126323697D01*
X107392389Y-126321022D01*
X107436991Y-126193556D01*
X107451966Y-126150762D01*
X107451969Y-126150749D01*
X107472165Y-125971503D01*
X107472165Y-125971496D01*
X107451969Y-125792250D01*
X107451968Y-125792245D01*
X107407705Y-125665748D01*
X107392389Y-125621978D01*
X107296416Y-125469238D01*
X107168862Y-125341684D01*
X107107318Y-125303013D01*
X107016123Y-125245711D01*
X106845854Y-125186131D01*
X106845849Y-125186130D01*
X106666604Y-125165935D01*
X106666596Y-125165935D01*
X106487350Y-125186130D01*
X106487345Y-125186131D01*
X106317076Y-125245711D01*
X106164337Y-125341684D01*
X106036784Y-125469237D01*
X105940811Y-125621976D01*
X105881231Y-125792245D01*
X105881230Y-125792250D01*
X105861035Y-125971496D01*
X105861035Y-125971503D01*
X100700500Y-125971503D01*
X100700500Y-125258519D01*
X100720185Y-125191480D01*
X100772989Y-125145725D01*
X100842147Y-125135781D01*
X100890471Y-125153525D01*
X100910221Y-125165935D01*
X101005475Y-125225788D01*
X101175745Y-125285368D01*
X101175750Y-125285369D01*
X101354996Y-125305565D01*
X101355000Y-125305565D01*
X101355004Y-125305565D01*
X101534249Y-125285369D01*
X101534252Y-125285368D01*
X101534255Y-125285368D01*
X101704522Y-125225789D01*
X101857262Y-125129816D01*
X101984816Y-125002262D01*
X102080789Y-124849522D01*
X102140368Y-124679255D01*
X102140369Y-124679249D01*
X102160565Y-124500003D01*
X103644435Y-124500003D01*
X103664630Y-124679249D01*
X103664631Y-124679254D01*
X103724211Y-124849523D01*
X103799386Y-124969162D01*
X103820184Y-125002262D01*
X103947738Y-125129816D01*
X104005221Y-125165935D01*
X104092450Y-125220745D01*
X104100478Y-125225789D01*
X104247588Y-125277265D01*
X104270745Y-125285368D01*
X104270750Y-125285369D01*
X104449996Y-125305565D01*
X104450000Y-125305565D01*
X104450004Y-125305565D01*
X104629249Y-125285369D01*
X104629252Y-125285368D01*
X104629255Y-125285368D01*
X104799522Y-125225789D01*
X104952262Y-125129816D01*
X105079816Y-125002262D01*
X105175789Y-124849522D01*
X105235368Y-124679255D01*
X105235369Y-124679249D01*
X105255565Y-124500003D01*
X105255565Y-124499996D01*
X105252377Y-124471703D01*
X109644435Y-124471703D01*
X109664630Y-124650949D01*
X109664631Y-124650954D01*
X109724211Y-124821223D01*
X109813282Y-124962977D01*
X109820184Y-124973962D01*
X109947738Y-125101516D01*
X110018096Y-125145725D01*
X110092838Y-125192689D01*
X110100478Y-125197489D01*
X110181352Y-125225788D01*
X110270745Y-125257068D01*
X110270750Y-125257069D01*
X110449996Y-125277265D01*
X110450000Y-125277265D01*
X110450004Y-125277265D01*
X110629249Y-125257069D01*
X110629252Y-125257068D01*
X110629255Y-125257068D01*
X110799522Y-125197489D01*
X110952262Y-125101516D01*
X111079816Y-124973962D01*
X111175789Y-124821222D01*
X111235368Y-124650955D01*
X111235909Y-124646155D01*
X111252376Y-124500003D01*
X112894435Y-124500003D01*
X112914630Y-124679249D01*
X112914631Y-124679254D01*
X112974211Y-124849523D01*
X113049386Y-124969162D01*
X113070184Y-125002262D01*
X113197738Y-125129816D01*
X113255221Y-125165935D01*
X113342450Y-125220745D01*
X113350478Y-125225789D01*
X113497588Y-125277265D01*
X113520745Y-125285368D01*
X113520750Y-125285369D01*
X113699996Y-125305565D01*
X113700000Y-125305565D01*
X113700004Y-125305565D01*
X113879249Y-125285369D01*
X113879252Y-125285368D01*
X113879255Y-125285368D01*
X114049522Y-125225789D01*
X114202262Y-125129816D01*
X114329816Y-125002262D01*
X114425789Y-124849522D01*
X114485368Y-124679255D01*
X114485369Y-124679249D01*
X114505565Y-124500003D01*
X114505565Y-124499996D01*
X114485369Y-124320750D01*
X114485368Y-124320745D01*
X114425788Y-124150476D01*
X114371130Y-124063489D01*
X114329816Y-123997738D01*
X114202262Y-123870184D01*
X114192879Y-123864288D01*
X114049523Y-123774211D01*
X113879254Y-123714631D01*
X113879249Y-123714630D01*
X113700004Y-123694435D01*
X113699996Y-123694435D01*
X113520750Y-123714630D01*
X113520745Y-123714631D01*
X113350476Y-123774211D01*
X113197737Y-123870184D01*
X113070184Y-123997737D01*
X112974211Y-124150476D01*
X112914631Y-124320745D01*
X112914630Y-124320750D01*
X112894435Y-124499996D01*
X112894435Y-124500003D01*
X111252376Y-124500003D01*
X111255565Y-124471703D01*
X111255565Y-124471696D01*
X111235369Y-124292450D01*
X111235368Y-124292445D01*
X111191551Y-124167223D01*
X111175789Y-124122178D01*
X111154920Y-124088966D01*
X111097102Y-123996949D01*
X111079816Y-123969438D01*
X110952262Y-123841884D01*
X110913778Y-123817703D01*
X110799523Y-123745911D01*
X110629254Y-123686331D01*
X110629249Y-123686330D01*
X110450004Y-123666135D01*
X110449996Y-123666135D01*
X110270750Y-123686330D01*
X110270745Y-123686331D01*
X110100476Y-123745911D01*
X109947737Y-123841884D01*
X109820184Y-123969437D01*
X109724211Y-124122176D01*
X109664631Y-124292445D01*
X109664630Y-124292450D01*
X109644435Y-124471696D01*
X109644435Y-124471703D01*
X105252377Y-124471703D01*
X105235369Y-124320750D01*
X105235368Y-124320745D01*
X105175788Y-124150476D01*
X105121130Y-124063489D01*
X105079816Y-123997738D01*
X104952262Y-123870184D01*
X104942879Y-123864288D01*
X104799523Y-123774211D01*
X104629254Y-123714631D01*
X104629249Y-123714630D01*
X104450004Y-123694435D01*
X104449996Y-123694435D01*
X104270750Y-123714630D01*
X104270745Y-123714631D01*
X104100476Y-123774211D01*
X103947737Y-123870184D01*
X103820184Y-123997737D01*
X103724211Y-124150476D01*
X103664631Y-124320745D01*
X103664630Y-124320750D01*
X103644435Y-124499996D01*
X103644435Y-124500003D01*
X102160565Y-124500003D01*
X102160565Y-124499996D01*
X102140369Y-124320750D01*
X102140368Y-124320745D01*
X102080788Y-124150476D01*
X102026130Y-124063489D01*
X101984816Y-123997738D01*
X101857262Y-123870184D01*
X101847879Y-123864288D01*
X101704523Y-123774211D01*
X101534254Y-123714631D01*
X101534249Y-123714630D01*
X101355004Y-123694435D01*
X101354996Y-123694435D01*
X101175750Y-123714630D01*
X101175745Y-123714631D01*
X101005476Y-123774211D01*
X100890472Y-123846474D01*
X100823235Y-123865474D01*
X100756400Y-123845106D01*
X100711186Y-123791838D01*
X100700500Y-123741480D01*
X100700500Y-123337703D01*
X105842035Y-123337703D01*
X105862230Y-123516949D01*
X105862231Y-123516954D01*
X105921811Y-123687223D01*
X106003793Y-123817696D01*
X106017784Y-123839962D01*
X106145338Y-123967516D01*
X106193436Y-123997738D01*
X106294474Y-124061225D01*
X106298078Y-124063489D01*
X106452084Y-124117378D01*
X106468345Y-124123068D01*
X106468350Y-124123069D01*
X106647596Y-124143265D01*
X106647600Y-124143265D01*
X106647604Y-124143265D01*
X106826849Y-124123069D01*
X106826852Y-124123068D01*
X106826855Y-124123068D01*
X106997122Y-124063489D01*
X107149862Y-123967516D01*
X107277416Y-123839962D01*
X107373389Y-123687222D01*
X107432968Y-123516955D01*
X107453165Y-123337700D01*
X107432968Y-123158445D01*
X107373389Y-122988178D01*
X107277416Y-122835438D01*
X107149862Y-122707884D01*
X107149862Y-122707883D01*
X106997123Y-122611911D01*
X106826854Y-122552331D01*
X106826849Y-122552330D01*
X106647604Y-122532135D01*
X106647596Y-122532135D01*
X106468350Y-122552330D01*
X106468345Y-122552331D01*
X106298076Y-122611911D01*
X106145337Y-122707884D01*
X106017784Y-122835437D01*
X105921811Y-122988176D01*
X105862231Y-123158445D01*
X105862230Y-123158450D01*
X105842035Y-123337696D01*
X105842035Y-123337703D01*
X100700500Y-123337703D01*
X100700500Y-121500003D01*
X103644435Y-121500003D01*
X103664630Y-121679249D01*
X103664631Y-121679254D01*
X103724211Y-121849523D01*
X103798192Y-121967262D01*
X103820184Y-122002262D01*
X103947738Y-122129816D01*
X104000778Y-122163143D01*
X104066749Y-122204596D01*
X104100478Y-122225789D01*
X104270745Y-122285367D01*
X104270745Y-122285368D01*
X104270750Y-122285369D01*
X104449996Y-122305565D01*
X104450000Y-122305565D01*
X104450004Y-122305565D01*
X104629249Y-122285369D01*
X104629252Y-122285368D01*
X104629255Y-122285368D01*
X104799522Y-122225789D01*
X104952262Y-122129816D01*
X105079816Y-122002262D01*
X105175789Y-121849522D01*
X105235368Y-121679255D01*
X105239312Y-121644254D01*
X105255565Y-121500003D01*
X105255565Y-121499996D01*
X105235369Y-121320750D01*
X105235368Y-121320745D01*
X105223121Y-121285745D01*
X105175789Y-121150478D01*
X105079816Y-120997738D01*
X104952262Y-120870184D01*
X104952261Y-120870184D01*
X104799523Y-120774211D01*
X104629254Y-120714631D01*
X104629249Y-120714630D01*
X104450004Y-120694435D01*
X104449996Y-120694435D01*
X104270750Y-120714630D01*
X104270745Y-120714631D01*
X104100476Y-120774211D01*
X103947737Y-120870184D01*
X103820184Y-120997737D01*
X103724211Y-121150476D01*
X103664631Y-121320745D01*
X103664630Y-121320750D01*
X103644435Y-121499996D01*
X103644435Y-121500003D01*
X100700500Y-121500003D01*
X100700500Y-120667803D01*
X105644435Y-120667803D01*
X105664630Y-120847049D01*
X105664631Y-120847054D01*
X105724211Y-121017323D01*
X105809637Y-121153276D01*
X105820184Y-121170062D01*
X105947738Y-121297616D01*
X106100478Y-121393589D01*
X106253492Y-121447131D01*
X106270745Y-121453168D01*
X106270750Y-121453169D01*
X106449996Y-121473365D01*
X106450000Y-121473365D01*
X106450004Y-121473365D01*
X106629249Y-121453169D01*
X106629251Y-121453168D01*
X106629255Y-121453168D01*
X106631469Y-121452392D01*
X106636324Y-121450695D01*
X106706103Y-121447131D01*
X106766731Y-121481858D01*
X106798960Y-121543851D01*
X106800502Y-121553852D01*
X106814630Y-121679249D01*
X106814631Y-121679254D01*
X106874211Y-121849523D01*
X106948192Y-121967262D01*
X106970184Y-122002262D01*
X107097738Y-122129816D01*
X107150778Y-122163143D01*
X107216749Y-122204596D01*
X107250478Y-122225789D01*
X107420744Y-122285367D01*
X107420745Y-122285368D01*
X107420750Y-122285369D01*
X107599996Y-122305565D01*
X107600000Y-122305565D01*
X107600004Y-122305565D01*
X107779249Y-122285369D01*
X107779252Y-122285368D01*
X107779255Y-122285368D01*
X107949522Y-122225789D01*
X108102262Y-122129816D01*
X108229816Y-122002262D01*
X108325789Y-121849522D01*
X108385368Y-121679255D01*
X108389312Y-121644254D01*
X108405565Y-121500003D01*
X108405565Y-121499996D01*
X108385369Y-121320750D01*
X108385368Y-121320745D01*
X108373121Y-121285745D01*
X108325789Y-121150478D01*
X108229816Y-120997738D01*
X108102262Y-120870184D01*
X108102261Y-120870183D01*
X107949523Y-120774211D01*
X107779254Y-120714631D01*
X107779249Y-120714630D01*
X107600004Y-120694435D01*
X107599996Y-120694435D01*
X107420750Y-120714630D01*
X107420735Y-120714634D01*
X107413664Y-120717108D01*
X107343885Y-120720666D01*
X107283260Y-120685933D01*
X107251037Y-120623938D01*
X107249497Y-120613947D01*
X107235369Y-120488549D01*
X107235368Y-120488545D01*
X107206122Y-120404965D01*
X107175789Y-120318278D01*
X107173362Y-120314416D01*
X107121843Y-120232424D01*
X107079816Y-120165538D01*
X106952262Y-120037984D01*
X106943695Y-120032601D01*
X106799523Y-119942011D01*
X106629254Y-119882431D01*
X106629249Y-119882430D01*
X106450004Y-119862235D01*
X106449996Y-119862235D01*
X106270750Y-119882430D01*
X106270745Y-119882431D01*
X106100476Y-119942011D01*
X105947737Y-120037984D01*
X105820184Y-120165537D01*
X105724211Y-120318276D01*
X105664631Y-120488545D01*
X105664630Y-120488550D01*
X105644435Y-120667796D01*
X105644435Y-120667803D01*
X100700500Y-120667803D01*
X100700500Y-120099640D01*
X100720185Y-120032601D01*
X100772989Y-119986846D01*
X100842147Y-119976902D01*
X100905703Y-120005927D01*
X100912181Y-120011959D01*
X100989638Y-120089416D01*
X101029847Y-120114681D01*
X101142374Y-120185387D01*
X101142378Y-120185389D01*
X101276796Y-120232424D01*
X101312645Y-120244968D01*
X101312650Y-120244969D01*
X101491896Y-120265165D01*
X101491900Y-120265165D01*
X101491904Y-120265165D01*
X101671149Y-120244969D01*
X101671152Y-120244968D01*
X101671155Y-120244968D01*
X101841422Y-120185389D01*
X101994162Y-120089416D01*
X102121716Y-119961862D01*
X102217689Y-119809122D01*
X102277268Y-119638855D01*
X102281713Y-119599403D01*
X102945035Y-119599403D01*
X102965230Y-119778649D01*
X102965231Y-119778654D01*
X103024811Y-119948923D01*
X103111544Y-120086957D01*
X103120784Y-120101662D01*
X103248338Y-120229216D01*
X103338680Y-120285982D01*
X103396505Y-120322316D01*
X103401078Y-120325189D01*
X103571345Y-120384768D01*
X103571350Y-120384769D01*
X103750596Y-120404965D01*
X103750600Y-120404965D01*
X103750604Y-120404965D01*
X103929849Y-120384769D01*
X103929852Y-120384768D01*
X103929855Y-120384768D01*
X104100122Y-120325189D01*
X104252862Y-120229216D01*
X104380416Y-120101662D01*
X104476389Y-119948922D01*
X104535968Y-119778655D01*
X104535969Y-119778649D01*
X104547253Y-119678503D01*
X109644435Y-119678503D01*
X109664630Y-119857749D01*
X109664631Y-119857754D01*
X109724211Y-120028023D01*
X109793350Y-120138056D01*
X109820184Y-120180762D01*
X109947738Y-120308316D01*
X110038080Y-120365082D01*
X110069410Y-120384768D01*
X110100478Y-120404289D01*
X110140485Y-120418288D01*
X110270745Y-120463868D01*
X110270750Y-120463869D01*
X110449996Y-120484065D01*
X110450000Y-120484065D01*
X110450004Y-120484065D01*
X110629249Y-120463869D01*
X110629252Y-120463868D01*
X110629255Y-120463868D01*
X110799522Y-120404289D01*
X110952262Y-120308316D01*
X111028156Y-120232421D01*
X111089475Y-120198939D01*
X111156789Y-120203064D01*
X111276537Y-120244966D01*
X111276543Y-120244967D01*
X111276545Y-120244968D01*
X111276546Y-120244968D01*
X111276550Y-120244969D01*
X111455796Y-120265165D01*
X111455800Y-120265165D01*
X111455804Y-120265165D01*
X111635049Y-120244969D01*
X111635052Y-120244968D01*
X111635055Y-120244968D01*
X111805322Y-120185389D01*
X111958062Y-120089416D01*
X112085616Y-119961862D01*
X112181589Y-119809122D01*
X112241168Y-119638855D01*
X112245613Y-119599403D01*
X112261365Y-119459603D01*
X112261365Y-119459596D01*
X112241169Y-119280350D01*
X112241168Y-119280345D01*
X112206874Y-119182338D01*
X112181589Y-119110078D01*
X112085616Y-118957338D01*
X111958062Y-118829784D01*
X111900850Y-118793835D01*
X111805323Y-118733811D01*
X111635054Y-118674231D01*
X111635049Y-118674230D01*
X111455804Y-118654035D01*
X111455796Y-118654035D01*
X111276550Y-118674230D01*
X111276545Y-118674231D01*
X111106276Y-118733811D01*
X110953539Y-118829783D01*
X110877646Y-118905676D01*
X110816322Y-118939160D01*
X110749010Y-118935036D01*
X110629254Y-118893131D01*
X110629249Y-118893130D01*
X110450004Y-118872935D01*
X110449996Y-118872935D01*
X110270750Y-118893130D01*
X110270745Y-118893131D01*
X110100476Y-118952711D01*
X109947737Y-119048684D01*
X109820184Y-119176237D01*
X109724211Y-119328976D01*
X109664631Y-119499245D01*
X109664630Y-119499250D01*
X109644435Y-119678496D01*
X109644435Y-119678503D01*
X104547253Y-119678503D01*
X104556165Y-119599403D01*
X104556165Y-119599396D01*
X104535969Y-119420150D01*
X104535968Y-119420145D01*
X104506202Y-119335078D01*
X104476389Y-119249878D01*
X104380416Y-119097138D01*
X104252862Y-118969584D01*
X104234450Y-118958015D01*
X104100123Y-118873611D01*
X103929854Y-118814031D01*
X103929849Y-118814030D01*
X103750604Y-118793835D01*
X103750596Y-118793835D01*
X103571350Y-118814030D01*
X103571345Y-118814031D01*
X103401076Y-118873611D01*
X103248337Y-118969584D01*
X103120784Y-119097137D01*
X103024811Y-119249876D01*
X102965231Y-119420145D01*
X102965230Y-119420150D01*
X102945035Y-119599396D01*
X102945035Y-119599403D01*
X102281713Y-119599403D01*
X102297465Y-119459603D01*
X102297465Y-119459596D01*
X102277269Y-119280350D01*
X102277268Y-119280345D01*
X102242974Y-119182338D01*
X102217689Y-119110078D01*
X102121716Y-118957338D01*
X101994162Y-118829784D01*
X101936950Y-118793835D01*
X101841423Y-118733811D01*
X101671154Y-118674231D01*
X101671149Y-118674230D01*
X101491904Y-118654035D01*
X101491896Y-118654035D01*
X101312650Y-118674230D01*
X101312645Y-118674231D01*
X101142376Y-118733811D01*
X100989637Y-118829784D01*
X100989636Y-118829785D01*
X100912179Y-118907241D01*
X100850856Y-118940726D01*
X100781164Y-118935740D01*
X100725231Y-118893868D01*
X100700815Y-118828404D01*
X100700500Y-118819586D01*
X100700500Y-103598003D01*
X105944435Y-103598003D01*
X105964630Y-103777249D01*
X105964631Y-103777254D01*
X106024211Y-103947523D01*
X106120183Y-104100262D01*
X106120184Y-104100262D01*
X106247738Y-104227816D01*
X106400478Y-104323789D01*
X106426196Y-104332788D01*
X106570745Y-104383368D01*
X106570750Y-104383369D01*
X106749996Y-104403565D01*
X106750000Y-104403565D01*
X106750004Y-104403565D01*
X106929249Y-104383369D01*
X106929252Y-104383368D01*
X106929255Y-104383368D01*
X107099522Y-104323789D01*
X107252262Y-104227816D01*
X107379816Y-104100262D01*
X107475789Y-103947522D01*
X107535368Y-103777255D01*
X107554551Y-103607000D01*
X107555565Y-103598003D01*
X107555565Y-103597996D01*
X107535369Y-103418750D01*
X107535368Y-103418745D01*
X107478938Y-103257478D01*
X107475789Y-103248478D01*
X107379816Y-103095738D01*
X107252262Y-102968184D01*
X107166365Y-102914211D01*
X107099523Y-102872211D01*
X106929254Y-102812631D01*
X106929249Y-102812630D01*
X106750004Y-102792435D01*
X106749996Y-102792435D01*
X106570750Y-102812630D01*
X106570745Y-102812631D01*
X106400476Y-102872211D01*
X106247737Y-102968184D01*
X106120184Y-103095737D01*
X106024211Y-103248476D01*
X105964631Y-103418745D01*
X105964630Y-103418750D01*
X105944435Y-103597996D01*
X105944435Y-103598003D01*
X100700500Y-103598003D01*
X100700500Y-99155603D01*
X102962435Y-99155603D01*
X102982630Y-99334849D01*
X102982631Y-99334854D01*
X103042211Y-99505123D01*
X103132540Y-99648879D01*
X103138184Y-99657862D01*
X103265738Y-99785416D01*
X103339403Y-99831703D01*
X103379061Y-99856622D01*
X103418478Y-99881389D01*
X103538384Y-99923346D01*
X103588745Y-99940968D01*
X103588750Y-99940969D01*
X103767996Y-99961165D01*
X103768000Y-99961165D01*
X103768004Y-99961165D01*
X103947249Y-99940969D01*
X103947252Y-99940968D01*
X103947255Y-99940968D01*
X103947256Y-99940967D01*
X103947259Y-99940967D01*
X103997616Y-99923346D01*
X104024836Y-99913820D01*
X104094615Y-99910258D01*
X104155243Y-99944987D01*
X104187470Y-100006980D01*
X104181066Y-100076555D01*
X104170786Y-100096834D01*
X104091211Y-100223476D01*
X104031631Y-100393745D01*
X104031630Y-100393750D01*
X104011435Y-100572996D01*
X104011435Y-100573003D01*
X104031630Y-100752249D01*
X104031631Y-100752254D01*
X104091211Y-100922523D01*
X104141315Y-101002262D01*
X104187184Y-101075262D01*
X104314738Y-101202816D01*
X104405080Y-101259581D01*
X104446118Y-101285368D01*
X104467478Y-101298789D01*
X104637745Y-101358367D01*
X104637745Y-101358368D01*
X104637750Y-101358369D01*
X104816996Y-101378565D01*
X104817000Y-101378565D01*
X104817004Y-101378565D01*
X104996249Y-101358369D01*
X104996252Y-101358368D01*
X104996255Y-101358368D01*
X105166522Y-101298789D01*
X105319262Y-101202816D01*
X105446816Y-101075262D01*
X105542789Y-100922522D01*
X105585660Y-100800003D01*
X107368435Y-100800003D01*
X107388630Y-100979249D01*
X107388631Y-100979254D01*
X107448211Y-101149523D01*
X107533569Y-101285368D01*
X107544184Y-101302262D01*
X107671738Y-101429816D01*
X107824478Y-101525789D01*
X107901657Y-101552795D01*
X107994745Y-101585368D01*
X107994750Y-101585369D01*
X108173996Y-101605565D01*
X108174000Y-101605565D01*
X108174004Y-101605565D01*
X108353249Y-101585369D01*
X108353252Y-101585368D01*
X108353255Y-101585368D01*
X108523522Y-101525789D01*
X108676262Y-101429816D01*
X108708259Y-101397818D01*
X108769579Y-101364334D01*
X108839271Y-101369318D01*
X108861912Y-101380507D01*
X108933975Y-101425788D01*
X109104245Y-101485368D01*
X109104250Y-101485369D01*
X109283496Y-101505565D01*
X109283500Y-101505565D01*
X109283504Y-101505565D01*
X109462749Y-101485369D01*
X109462751Y-101485368D01*
X109462755Y-101485368D01*
X109462758Y-101485366D01*
X109462762Y-101485366D01*
X109604545Y-101435754D01*
X109674324Y-101432192D01*
X109734951Y-101466920D01*
X109767179Y-101528914D01*
X109769500Y-101552795D01*
X109769500Y-103814032D01*
X109767772Y-103829681D01*
X109768054Y-103829708D01*
X109767319Y-103837475D01*
X109769297Y-103900406D01*
X109751727Y-103968031D01*
X109733040Y-103991980D01*
X109620185Y-104104836D01*
X109620184Y-104104837D01*
X109524211Y-104257576D01*
X109464631Y-104427845D01*
X109464630Y-104427850D01*
X109444435Y-104607096D01*
X109444435Y-104607103D01*
X109464630Y-104786349D01*
X109464631Y-104786354D01*
X109524211Y-104956623D01*
X109564502Y-105020745D01*
X109620184Y-105109362D01*
X109747738Y-105236916D01*
X109900478Y-105332889D01*
X110070745Y-105392468D01*
X110070750Y-105392469D01*
X110249996Y-105412665D01*
X110250000Y-105412665D01*
X110250004Y-105412665D01*
X110429249Y-105392469D01*
X110429252Y-105392468D01*
X110429255Y-105392468D01*
X110599522Y-105332889D01*
X110728247Y-105252005D01*
X110795482Y-105233005D01*
X110862317Y-105253372D01*
X110881899Y-105269318D01*
X112536181Y-106923600D01*
X112569666Y-106984923D01*
X112572500Y-107011281D01*
X112572500Y-108117032D01*
X112570772Y-108132681D01*
X112571054Y-108132708D01*
X112570319Y-108140475D01*
X112572469Y-108208890D01*
X112572500Y-108210837D01*
X112572500Y-108239477D01*
X112573371Y-108246380D01*
X112573829Y-108252199D01*
X112575298Y-108298942D01*
X112580916Y-108318275D01*
X112584862Y-108337329D01*
X112587383Y-108357287D01*
X112587386Y-108357299D01*
X112604595Y-108400765D01*
X112606487Y-108406293D01*
X112619530Y-108451187D01*
X112619530Y-108451188D01*
X112629777Y-108468515D01*
X112638335Y-108485985D01*
X112645745Y-108504701D01*
X112673229Y-108542529D01*
X112676437Y-108547413D01*
X112700234Y-108587652D01*
X112700240Y-108587660D01*
X112714469Y-108601888D01*
X112727109Y-108616687D01*
X112738934Y-108632964D01*
X112738936Y-108632965D01*
X112738937Y-108632967D01*
X112774957Y-108662765D01*
X112779268Y-108666687D01*
X115819975Y-111707394D01*
X116510281Y-112397700D01*
X116543766Y-112459023D01*
X116546600Y-112485381D01*
X116546600Y-118757337D01*
X116526915Y-118824376D01*
X116474111Y-118870131D01*
X116436484Y-118880557D01*
X116270749Y-118899230D01*
X116270745Y-118899231D01*
X116100476Y-118958811D01*
X115947737Y-119054784D01*
X115820184Y-119182337D01*
X115724210Y-119335078D01*
X115711008Y-119372806D01*
X115670285Y-119429581D01*
X115605331Y-119455327D01*
X115536770Y-119441869D01*
X115486368Y-119393481D01*
X115476925Y-119372802D01*
X115466489Y-119342979D01*
X115466489Y-119342978D01*
X115370516Y-119190238D01*
X115242962Y-119062684D01*
X115229208Y-119054042D01*
X115090223Y-118966711D01*
X114919954Y-118907131D01*
X114919949Y-118907130D01*
X114740704Y-118886935D01*
X114740696Y-118886935D01*
X114561450Y-118907130D01*
X114561437Y-118907133D01*
X114426207Y-118954453D01*
X114356428Y-118958015D01*
X114297571Y-118925093D01*
X114202262Y-118829784D01*
X114049523Y-118733811D01*
X113879254Y-118674231D01*
X113879249Y-118674230D01*
X113700004Y-118654035D01*
X113699996Y-118654035D01*
X113520750Y-118674230D01*
X113520745Y-118674231D01*
X113350476Y-118733811D01*
X113197737Y-118829784D01*
X113070184Y-118957337D01*
X112974211Y-119110076D01*
X112914631Y-119280345D01*
X112914630Y-119280350D01*
X112894435Y-119459596D01*
X112894435Y-119459603D01*
X112914630Y-119638849D01*
X112914631Y-119638854D01*
X112974211Y-119809123D01*
X113044994Y-119921772D01*
X113070184Y-119961862D01*
X113197738Y-120089416D01*
X113237947Y-120114681D01*
X113350474Y-120185387D01*
X113350478Y-120185389D01*
X113484896Y-120232424D01*
X113520745Y-120244968D01*
X113520750Y-120244969D01*
X113699996Y-120265165D01*
X113700000Y-120265165D01*
X113700004Y-120265165D01*
X113879249Y-120244969D01*
X113879252Y-120244968D01*
X113879255Y-120244968D01*
X113879256Y-120244967D01*
X113879259Y-120244967D01*
X113930587Y-120227006D01*
X114014493Y-120197645D01*
X114084270Y-120194083D01*
X114143128Y-120227006D01*
X114238438Y-120322316D01*
X114328780Y-120379081D01*
X114378603Y-120410388D01*
X114391178Y-120418289D01*
X114521438Y-120463869D01*
X114561445Y-120477868D01*
X114561450Y-120477869D01*
X114740696Y-120498065D01*
X114740700Y-120498065D01*
X114740704Y-120498065D01*
X114919949Y-120477869D01*
X114919952Y-120477868D01*
X114919955Y-120477868D01*
X115090222Y-120418289D01*
X115242962Y-120322316D01*
X115370516Y-120194762D01*
X115466489Y-120042022D01*
X115476717Y-120012790D01*
X115479690Y-120004296D01*
X115520412Y-119947520D01*
X115585364Y-119921772D01*
X115653926Y-119935228D01*
X115704329Y-119983615D01*
X115713773Y-120004295D01*
X115724209Y-120034119D01*
X115762032Y-120094314D01*
X115820184Y-120186862D01*
X115947738Y-120314416D01*
X116038080Y-120371182D01*
X116095383Y-120407188D01*
X116100478Y-120410389D01*
X116253312Y-120463868D01*
X116270745Y-120469968D01*
X116270750Y-120469969D01*
X116395860Y-120484065D01*
X116435657Y-120488549D01*
X116436483Y-120488642D01*
X116500897Y-120515708D01*
X116540452Y-120573303D01*
X116546600Y-120611862D01*
X116546600Y-123578371D01*
X116526915Y-123645410D01*
X116474111Y-123691165D01*
X116436483Y-123701591D01*
X116320750Y-123714630D01*
X116320745Y-123714631D01*
X116150476Y-123774211D01*
X115997737Y-123870184D01*
X115870184Y-123997737D01*
X115774211Y-124150476D01*
X115714631Y-124320745D01*
X115714630Y-124320749D01*
X115694665Y-124497950D01*
X115667598Y-124562364D01*
X115610003Y-124601919D01*
X115557562Y-124607286D01*
X115443504Y-124594435D01*
X115443496Y-124594435D01*
X115264250Y-124614630D01*
X115264245Y-124614631D01*
X115093976Y-124674211D01*
X114941237Y-124770184D01*
X114813684Y-124897737D01*
X114717711Y-125050476D01*
X114658131Y-125220745D01*
X114658130Y-125220750D01*
X114637935Y-125399996D01*
X114637935Y-125400003D01*
X114658130Y-125579249D01*
X114658131Y-125579254D01*
X114717711Y-125749523D01*
X114813684Y-125902262D01*
X114867436Y-125956014D01*
X114900921Y-126017337D01*
X114896797Y-126084649D01*
X114866532Y-126171142D01*
X114866530Y-126171150D01*
X114846335Y-126350396D01*
X114846335Y-126350403D01*
X114866530Y-126529649D01*
X114866531Y-126529654D01*
X114926111Y-126699923D01*
X115004933Y-126825367D01*
X115022084Y-126852662D01*
X115149638Y-126980216D01*
X115302378Y-127076189D01*
X115466226Y-127133522D01*
X115472645Y-127135768D01*
X115472650Y-127135769D01*
X115651896Y-127155965D01*
X115651900Y-127155965D01*
X115651904Y-127155965D01*
X115831149Y-127135769D01*
X115831152Y-127135768D01*
X115831155Y-127135768D01*
X116001422Y-127076189D01*
X116154162Y-126980216D01*
X116281716Y-126852662D01*
X116317607Y-126795540D01*
X116369939Y-126749252D01*
X116438992Y-126738603D01*
X116502841Y-126766978D01*
X116541213Y-126825367D01*
X116546599Y-126861515D01*
X116546600Y-128807657D01*
X116544872Y-128823306D01*
X116545154Y-128823333D01*
X116544419Y-128831100D01*
X116546569Y-128899515D01*
X116546600Y-128901462D01*
X116546600Y-128930102D01*
X116547471Y-128937005D01*
X116547929Y-128942824D01*
X116549398Y-128989567D01*
X116555016Y-129008900D01*
X116558962Y-129027954D01*
X116561483Y-129047912D01*
X116561486Y-129047924D01*
X116578695Y-129091390D01*
X116580587Y-129096918D01*
X116593630Y-129141812D01*
X116593630Y-129141813D01*
X116603877Y-129159140D01*
X116612435Y-129176610D01*
X116619845Y-129195326D01*
X116647329Y-129233154D01*
X116650537Y-129238038D01*
X116674334Y-129278277D01*
X116674340Y-129278285D01*
X116688569Y-129292513D01*
X116701209Y-129307312D01*
X116713034Y-129323589D01*
X116713036Y-129323590D01*
X116713037Y-129323592D01*
X116749057Y-129353390D01*
X116753368Y-129357312D01*
X116869001Y-129472945D01*
X116958754Y-129562698D01*
X116992239Y-129624021D01*
X116987255Y-129693713D01*
X116945383Y-129749646D01*
X116879919Y-129774063D01*
X116830119Y-129767421D01*
X116679257Y-129714632D01*
X116679249Y-129714630D01*
X116500004Y-129694435D01*
X116499996Y-129694435D01*
X116320750Y-129714630D01*
X116320745Y-129714631D01*
X116150476Y-129774211D01*
X115997737Y-129870184D01*
X115870184Y-129997737D01*
X115774211Y-130150476D01*
X115714631Y-130320745D01*
X115714630Y-130320750D01*
X115694435Y-130499996D01*
X115694435Y-130500004D01*
X115696040Y-130514251D01*
X115683985Y-130583073D01*
X115636635Y-130634452D01*
X115586704Y-130651353D01*
X115469749Y-130664530D01*
X115469742Y-130664532D01*
X115367986Y-130700138D01*
X115298207Y-130703699D01*
X115237580Y-130668970D01*
X115205353Y-130606976D01*
X115203812Y-130569212D01*
X115215565Y-130464902D01*
X115215565Y-130464896D01*
X115195369Y-130285650D01*
X115195368Y-130285645D01*
X115159860Y-130184169D01*
X115135789Y-130115378D01*
X115039816Y-129962638D01*
X114912262Y-129835084D01*
X114912261Y-129835084D01*
X114759523Y-129739111D01*
X114589254Y-129679531D01*
X114589249Y-129679530D01*
X114410004Y-129659335D01*
X114409996Y-129659335D01*
X114230750Y-129679530D01*
X114230745Y-129679531D01*
X114060476Y-129739111D01*
X113907737Y-129835084D01*
X113780184Y-129962637D01*
X113684211Y-130115376D01*
X113624631Y-130285645D01*
X113624630Y-130285650D01*
X113604435Y-130464896D01*
X113604435Y-130464903D01*
X113624630Y-130644149D01*
X113624631Y-130644154D01*
X113684211Y-130814423D01*
X113766984Y-130946154D01*
X113780184Y-130967162D01*
X113907738Y-131094716D01*
X114060478Y-131190689D01*
X114218056Y-131245828D01*
X114230745Y-131250268D01*
X114230750Y-131250269D01*
X114409996Y-131270465D01*
X114410000Y-131270465D01*
X114410004Y-131270465D01*
X114589249Y-131250269D01*
X114589251Y-131250268D01*
X114589255Y-131250268D01*
X114589258Y-131250266D01*
X114589262Y-131250266D01*
X114691012Y-131214662D01*
X114760791Y-131211100D01*
X114821418Y-131245828D01*
X114853646Y-131307821D01*
X114855187Y-131345586D01*
X114843435Y-131449895D01*
X114843435Y-131449903D01*
X114863630Y-131629149D01*
X114863631Y-131629154D01*
X114895897Y-131721363D01*
X114899458Y-131791142D01*
X114864729Y-131851770D01*
X114853014Y-131860919D01*
X114853188Y-131861137D01*
X114847739Y-131865482D01*
X114720184Y-131993037D01*
X114624211Y-132145776D01*
X114564631Y-132316045D01*
X114564630Y-132316050D01*
X114544435Y-132495296D01*
X114544435Y-132495303D01*
X114564630Y-132674549D01*
X114564631Y-132674554D01*
X114624211Y-132844823D01*
X114640398Y-132870584D01*
X114720184Y-132997562D01*
X114847738Y-133125116D01*
X115000478Y-133221089D01*
X115170745Y-133280667D01*
X115170745Y-133280668D01*
X115170750Y-133280669D01*
X115349996Y-133300865D01*
X115350000Y-133300865D01*
X115350004Y-133300865D01*
X115529249Y-133280669D01*
X115529252Y-133280668D01*
X115529255Y-133280668D01*
X115699522Y-133221089D01*
X115852262Y-133125116D01*
X115979816Y-132997562D01*
X116075789Y-132844822D01*
X116135368Y-132674555D01*
X116136463Y-132664835D01*
X116155565Y-132495303D01*
X116155565Y-132495296D01*
X116135369Y-132316050D01*
X116135366Y-132316037D01*
X116103103Y-132223835D01*
X116099541Y-132154056D01*
X116134269Y-132093429D01*
X116145995Y-132084274D01*
X116145821Y-132084055D01*
X116151258Y-132079718D01*
X116151262Y-132079716D01*
X116151265Y-132079712D01*
X116168060Y-132062919D01*
X116229383Y-132029434D01*
X116255741Y-132026600D01*
X116938661Y-132026600D01*
X117005700Y-132046285D01*
X117026342Y-132062919D01*
X117421450Y-132458027D01*
X117454935Y-132519350D01*
X117449951Y-132589042D01*
X117408079Y-132644975D01*
X117342615Y-132669392D01*
X117319887Y-132668929D01*
X117307984Y-132667588D01*
X117280000Y-132664435D01*
X117279998Y-132664435D01*
X117279997Y-132664435D01*
X117279996Y-132664435D01*
X117100750Y-132684630D01*
X117100745Y-132684631D01*
X116930476Y-132744211D01*
X116777737Y-132840184D01*
X116650184Y-132967737D01*
X116554211Y-133120476D01*
X116494631Y-133290745D01*
X116494630Y-133290750D01*
X116474435Y-133469996D01*
X116474435Y-133470003D01*
X116494630Y-133649249D01*
X116494631Y-133649254D01*
X116554211Y-133819523D01*
X116644350Y-133962977D01*
X116650184Y-133972262D01*
X116777738Y-134099816D01*
X116834976Y-134135781D01*
X116913894Y-134185369D01*
X116930478Y-134195789D01*
X117079203Y-134247830D01*
X117100745Y-134255368D01*
X117100750Y-134255369D01*
X117279996Y-134275565D01*
X117280000Y-134275565D01*
X117280004Y-134275565D01*
X117459249Y-134255369D01*
X117459252Y-134255368D01*
X117459255Y-134255368D01*
X117629522Y-134195789D01*
X117782262Y-134099816D01*
X117909816Y-133972262D01*
X117909819Y-133972256D01*
X117914159Y-133966816D01*
X117915166Y-133967619D01*
X117962008Y-133926173D01*
X118031059Y-133915513D01*
X118094913Y-133943876D01*
X118102368Y-133950746D01*
X118181438Y-134029816D01*
X118271780Y-134086582D01*
X118290698Y-134098469D01*
X118334178Y-134125789D01*
X118504444Y-134185368D01*
X118504445Y-134185368D01*
X118504450Y-134185369D01*
X118683696Y-134205565D01*
X118683700Y-134205565D01*
X118683703Y-134205565D01*
X118835816Y-134188426D01*
X118904638Y-134200480D01*
X118956018Y-134247830D01*
X118973700Y-134311646D01*
X118973700Y-134977214D01*
X118954015Y-135044253D01*
X118901211Y-135090008D01*
X118832053Y-135099952D01*
X118783728Y-135082208D01*
X118680923Y-135017611D01*
X118510654Y-134958031D01*
X118510649Y-134958030D01*
X118331404Y-134937835D01*
X118331396Y-134937835D01*
X118152150Y-134958030D01*
X118152145Y-134958031D01*
X117981876Y-135017611D01*
X117829137Y-135113584D01*
X117701584Y-135241137D01*
X117605611Y-135393876D01*
X117546031Y-135564145D01*
X117546030Y-135564150D01*
X117525835Y-135743396D01*
X117525835Y-135743403D01*
X117546030Y-135922649D01*
X117546031Y-135922654D01*
X117605611Y-136092923D01*
X117656695Y-136174222D01*
X117701584Y-136245662D01*
X117829138Y-136373216D01*
X117981878Y-136469189D01*
X118097323Y-136509585D01*
X118152145Y-136528768D01*
X118152150Y-136528769D01*
X118331396Y-136548965D01*
X118331400Y-136548965D01*
X118331404Y-136548965D01*
X118510649Y-136528769D01*
X118510652Y-136528768D01*
X118510655Y-136528768D01*
X118680922Y-136469189D01*
X118783727Y-136404591D01*
X118850964Y-136385591D01*
X118917799Y-136405958D01*
X118963014Y-136459226D01*
X118973700Y-136509585D01*
X118973700Y-137771683D01*
X118954015Y-137838722D01*
X118901211Y-137884477D01*
X118832053Y-137894421D01*
X118783728Y-137876677D01*
X118694023Y-137820311D01*
X118523754Y-137760731D01*
X118523749Y-137760730D01*
X118344504Y-137740535D01*
X118344496Y-137740535D01*
X118165250Y-137760730D01*
X118165245Y-137760731D01*
X117994976Y-137820311D01*
X117842237Y-137916284D01*
X117714684Y-138043837D01*
X117618711Y-138196576D01*
X117559131Y-138366845D01*
X117559130Y-138366850D01*
X117538935Y-138546096D01*
X117538935Y-138546103D01*
X117559130Y-138725349D01*
X117559131Y-138725354D01*
X117618711Y-138895623D01*
X117711890Y-139043915D01*
X117714684Y-139048362D01*
X117842238Y-139175916D01*
X117994978Y-139271889D01*
X118163668Y-139330916D01*
X118220444Y-139371638D01*
X118246192Y-139436590D01*
X118245934Y-139461841D01*
X118241635Y-139499997D01*
X118241635Y-139500003D01*
X118261830Y-139679249D01*
X118261831Y-139679254D01*
X118321411Y-139849523D01*
X118384429Y-139949815D01*
X118417384Y-140002262D01*
X118544938Y-140129816D01*
X118697678Y-140225789D01*
X118825640Y-140270565D01*
X118867948Y-140285369D01*
X118874734Y-140286918D01*
X118874182Y-140289333D01*
X118927989Y-140311937D01*
X118967549Y-140369529D01*
X118973700Y-140408097D01*
X118973700Y-140728867D01*
X118954015Y-140795906D01*
X118901211Y-140841661D01*
X118832053Y-140851605D01*
X118783728Y-140833861D01*
X118687523Y-140773411D01*
X118517254Y-140713831D01*
X118517249Y-140713830D01*
X118338004Y-140693635D01*
X118337996Y-140693635D01*
X118158750Y-140713830D01*
X118158745Y-140713831D01*
X117988476Y-140773411D01*
X117835737Y-140869384D01*
X117708184Y-140996937D01*
X117612211Y-141149676D01*
X117552631Y-141319945D01*
X117552630Y-141319950D01*
X117532435Y-141499196D01*
X117532435Y-141499203D01*
X117552630Y-141678449D01*
X117552631Y-141678454D01*
X117612211Y-141848723D01*
X117689381Y-141971537D01*
X117708184Y-142001462D01*
X117835738Y-142129016D01*
X117869895Y-142150478D01*
X117987188Y-142224179D01*
X117988478Y-142224989D01*
X118089291Y-142260265D01*
X118158745Y-142284568D01*
X118158750Y-142284569D01*
X118337996Y-142304765D01*
X118338000Y-142304765D01*
X118338004Y-142304765D01*
X118517249Y-142284569D01*
X118517252Y-142284568D01*
X118517255Y-142284568D01*
X118687522Y-142224989D01*
X118840262Y-142129016D01*
X118967816Y-142001462D01*
X119063789Y-141848722D01*
X119102318Y-141738611D01*
X119143040Y-141681836D01*
X119207992Y-141656088D01*
X119276554Y-141669544D01*
X119307041Y-141691885D01*
X119403758Y-141788602D01*
X119437243Y-141849925D01*
X119432259Y-141919617D01*
X119403758Y-141963964D01*
X119369984Y-141997737D01*
X119274011Y-142150476D01*
X119214431Y-142320745D01*
X119214430Y-142320750D01*
X119194235Y-142499996D01*
X119194235Y-142500003D01*
X119214430Y-142679249D01*
X119214431Y-142679254D01*
X119274011Y-142849523D01*
X119346900Y-142965524D01*
X119369984Y-143002262D01*
X119497538Y-143129816D01*
X119650278Y-143225789D01*
X119803058Y-143279249D01*
X119820545Y-143285368D01*
X119820550Y-143285369D01*
X119999796Y-143305565D01*
X119999800Y-143305565D01*
X119999804Y-143305565D01*
X120179048Y-143285369D01*
X120179048Y-143285368D01*
X120179055Y-143285368D01*
X120230741Y-143267281D01*
X120300515Y-143263719D01*
X120361143Y-143298447D01*
X120386986Y-143338678D01*
X120391746Y-143350702D01*
X120419229Y-143388529D01*
X120422437Y-143393413D01*
X120446234Y-143433652D01*
X120446240Y-143433660D01*
X120460469Y-143447888D01*
X120473109Y-143462687D01*
X120484934Y-143478964D01*
X120484936Y-143478965D01*
X120484937Y-143478967D01*
X120520957Y-143508765D01*
X120525268Y-143512687D01*
X121085565Y-144072984D01*
X121574146Y-144561565D01*
X121607631Y-144622888D01*
X121609685Y-144635361D01*
X121614630Y-144679249D01*
X121674210Y-144849521D01*
X121694649Y-144882049D01*
X121770184Y-145002262D01*
X121897738Y-145129816D01*
X122050478Y-145225789D01*
X122220744Y-145285368D01*
X122220745Y-145285368D01*
X122220750Y-145285369D01*
X122399996Y-145305565D01*
X122400000Y-145305565D01*
X122400004Y-145305565D01*
X122579249Y-145285369D01*
X122579252Y-145285368D01*
X122579255Y-145285368D01*
X122749522Y-145225789D01*
X122902262Y-145129816D01*
X123029816Y-145002262D01*
X123125789Y-144849522D01*
X123185368Y-144679255D01*
X123191719Y-144622888D01*
X123205565Y-144500003D01*
X123205565Y-144499996D01*
X123185369Y-144320750D01*
X123185368Y-144320745D01*
X123125788Y-144150476D01*
X123029815Y-143997737D01*
X122902262Y-143870184D01*
X122749521Y-143774210D01*
X122579249Y-143714630D01*
X122535361Y-143709685D01*
X122470947Y-143682617D01*
X122461565Y-143674146D01*
X122243761Y-143456342D01*
X122210276Y-143395019D01*
X122215260Y-143325327D01*
X122257132Y-143269394D01*
X122322596Y-143244977D01*
X122372397Y-143251620D01*
X122468837Y-143285366D01*
X122468843Y-143285367D01*
X122468845Y-143285368D01*
X122468846Y-143285368D01*
X122468850Y-143285369D01*
X122648096Y-143305565D01*
X122648100Y-143305565D01*
X122648104Y-143305565D01*
X122827349Y-143285369D01*
X122827352Y-143285368D01*
X122827355Y-143285368D01*
X122997622Y-143225789D01*
X123150362Y-143129816D01*
X123277916Y-143002262D01*
X123373889Y-142849522D01*
X123433468Y-142679255D01*
X123436939Y-142648450D01*
X123453665Y-142500003D01*
X123453665Y-142499996D01*
X123433469Y-142320750D01*
X123433468Y-142320745D01*
X123405238Y-142240068D01*
X123373889Y-142150478D01*
X123357426Y-142124278D01*
X123305936Y-142042332D01*
X123277916Y-141997738D01*
X123150362Y-141870184D01*
X123116207Y-141848723D01*
X122997623Y-141774211D01*
X122827354Y-141714631D01*
X122827349Y-141714630D01*
X122648104Y-141694435D01*
X122648096Y-141694435D01*
X122468850Y-141714630D01*
X122468845Y-141714631D01*
X122298576Y-141774211D01*
X122145839Y-141870183D01*
X122054177Y-141961845D01*
X121992853Y-141995329D01*
X121923162Y-141990345D01*
X121900525Y-141979157D01*
X121849525Y-141947112D01*
X121679254Y-141887531D01*
X121679249Y-141887530D01*
X121500004Y-141867335D01*
X121499996Y-141867335D01*
X121341241Y-141885222D01*
X121272419Y-141873167D01*
X121239677Y-141849683D01*
X120265018Y-140875024D01*
X120231533Y-140813701D01*
X120228699Y-140787351D01*
X120228699Y-140381005D01*
X120248384Y-140313967D01*
X120301188Y-140268212D01*
X120366582Y-140257786D01*
X120390852Y-140260520D01*
X120479997Y-140270565D01*
X120480000Y-140270565D01*
X120480004Y-140270565D01*
X120659249Y-140250369D01*
X120659252Y-140250368D01*
X120659255Y-140250368D01*
X120829522Y-140190789D01*
X120982262Y-140094816D01*
X121054437Y-140022640D01*
X121115756Y-139989158D01*
X121185448Y-139994142D01*
X121208087Y-140005330D01*
X121235641Y-140022643D01*
X121272478Y-140045789D01*
X121412589Y-140094816D01*
X121442745Y-140105368D01*
X121442750Y-140105369D01*
X121621996Y-140125565D01*
X121622000Y-140125565D01*
X121622004Y-140125565D01*
X121801249Y-140105369D01*
X121801252Y-140105368D01*
X121801255Y-140105368D01*
X121971522Y-140045789D01*
X122124262Y-139949816D01*
X122251816Y-139822262D01*
X122347789Y-139669522D01*
X122407368Y-139499255D01*
X122408388Y-139490203D01*
X122427565Y-139320003D01*
X122427565Y-139319996D01*
X122407369Y-139140750D01*
X122407368Y-139140745D01*
X122364040Y-139016922D01*
X122347789Y-138970478D01*
X122251816Y-138817738D01*
X122124262Y-138690184D01*
X122107469Y-138679632D01*
X121971523Y-138594211D01*
X121801254Y-138534631D01*
X121801249Y-138534630D01*
X121622004Y-138514435D01*
X121621996Y-138514435D01*
X121442750Y-138534630D01*
X121442745Y-138534631D01*
X121272476Y-138594211D01*
X121119737Y-138690184D01*
X121119736Y-138690185D01*
X121047563Y-138762357D01*
X120986240Y-138795842D01*
X120916548Y-138790856D01*
X120893911Y-138779669D01*
X120829522Y-138739211D01*
X120829518Y-138739209D01*
X120659262Y-138679633D01*
X120659249Y-138679630D01*
X120480004Y-138659435D01*
X120479996Y-138659435D01*
X120366582Y-138672213D01*
X120297760Y-138660158D01*
X120246381Y-138612809D01*
X120228699Y-138548993D01*
X120228699Y-135743403D01*
X120525435Y-135743403D01*
X120545630Y-135922649D01*
X120545631Y-135922654D01*
X120605211Y-136092923D01*
X120656295Y-136174222D01*
X120701184Y-136245662D01*
X120828738Y-136373216D01*
X120981478Y-136469189D01*
X121096923Y-136509585D01*
X121151745Y-136528768D01*
X121151750Y-136528769D01*
X121330996Y-136548965D01*
X121331000Y-136548965D01*
X121331004Y-136548965D01*
X121510249Y-136528769D01*
X121510252Y-136528768D01*
X121510255Y-136528768D01*
X121680522Y-136469189D01*
X121833262Y-136373216D01*
X121960816Y-136245662D01*
X122056789Y-136092922D01*
X122116368Y-135922655D01*
X122118242Y-135906022D01*
X122136565Y-135743403D01*
X122136565Y-135743396D01*
X122116369Y-135564150D01*
X122116368Y-135564145D01*
X122085236Y-135475176D01*
X122056789Y-135393878D01*
X121960816Y-135241138D01*
X121833262Y-135113584D01*
X121801144Y-135093403D01*
X121680523Y-135017611D01*
X121510254Y-134958031D01*
X121510249Y-134958030D01*
X121331004Y-134937835D01*
X121330996Y-134937835D01*
X121151750Y-134958030D01*
X121151745Y-134958031D01*
X120981476Y-135017611D01*
X120828737Y-135113584D01*
X120701184Y-135241137D01*
X120605211Y-135393876D01*
X120545631Y-135564145D01*
X120545630Y-135564150D01*
X120525435Y-135743396D01*
X120525435Y-135743403D01*
X120228699Y-135743403D01*
X120228699Y-135054237D01*
X120228699Y-133500403D01*
X121792635Y-133500403D01*
X121812830Y-133679649D01*
X121812831Y-133679654D01*
X121872411Y-133849923D01*
X121930842Y-133942915D01*
X121968384Y-134002662D01*
X122095938Y-134130216D01*
X122133036Y-134153526D01*
X122248039Y-134225788D01*
X122248678Y-134226189D01*
X122322682Y-134252084D01*
X122418945Y-134285768D01*
X122418950Y-134285769D01*
X122598196Y-134305965D01*
X122598200Y-134305965D01*
X122598204Y-134305965D01*
X122777449Y-134285769D01*
X122777452Y-134285768D01*
X122777455Y-134285768D01*
X122947722Y-134226189D01*
X123100462Y-134130216D01*
X123228016Y-134002662D01*
X123323989Y-133849922D01*
X123383568Y-133679655D01*
X123383613Y-133679255D01*
X123403765Y-133500403D01*
X123403765Y-133500396D01*
X123383569Y-133321150D01*
X123383568Y-133321145D01*
X123373072Y-133291150D01*
X123323989Y-133150878D01*
X123323736Y-133150476D01*
X123228015Y-132998137D01*
X123100462Y-132870584D01*
X122947723Y-132774611D01*
X122777454Y-132715031D01*
X122777449Y-132715030D01*
X122598204Y-132694835D01*
X122598196Y-132694835D01*
X122418950Y-132715030D01*
X122418945Y-132715031D01*
X122248676Y-132774611D01*
X122095937Y-132870584D01*
X121968384Y-132998137D01*
X121872411Y-133150876D01*
X121812831Y-133321145D01*
X121812830Y-133321150D01*
X121792635Y-133500396D01*
X121792635Y-133500403D01*
X120228699Y-133500403D01*
X120228699Y-131400679D01*
X120230427Y-131385051D01*
X120230145Y-131385025D01*
X120230515Y-131381108D01*
X120230996Y-131379900D01*
X120231693Y-131373604D01*
X120232589Y-131369601D01*
X120234901Y-131370118D01*
X120256416Y-131316217D01*
X120313289Y-131275630D01*
X120367848Y-131269549D01*
X120509996Y-131285565D01*
X120510000Y-131285565D01*
X120510004Y-131285565D01*
X120689249Y-131265369D01*
X120689252Y-131265368D01*
X120689255Y-131265368D01*
X120859522Y-131205789D01*
X121012262Y-131109816D01*
X121139816Y-130982262D01*
X121235789Y-130829522D01*
X121295368Y-130659255D01*
X121303347Y-130588433D01*
X121330412Y-130524023D01*
X121388007Y-130484467D01*
X121457844Y-130482328D01*
X121467521Y-130485277D01*
X121490642Y-130493367D01*
X121490645Y-130493368D01*
X121490646Y-130493368D01*
X121490650Y-130493369D01*
X121669896Y-130513565D01*
X121669900Y-130513565D01*
X121669904Y-130513565D01*
X121849149Y-130493369D01*
X121849152Y-130493368D01*
X121849155Y-130493368D01*
X122019422Y-130433789D01*
X122172162Y-130337816D01*
X122299716Y-130210262D01*
X122395689Y-130057522D01*
X122455268Y-129887255D01*
X122456918Y-129872613D01*
X122475465Y-129708003D01*
X122475465Y-129707996D01*
X122455269Y-129528750D01*
X122455268Y-129528745D01*
X122406509Y-129389400D01*
X122395689Y-129358478D01*
X122394963Y-129357323D01*
X122318428Y-129235518D01*
X122299716Y-129205738D01*
X122172162Y-129078184D01*
X122019423Y-128982211D01*
X121849154Y-128922631D01*
X121849149Y-128922630D01*
X121669904Y-128902435D01*
X121669896Y-128902435D01*
X121490650Y-128922630D01*
X121490645Y-128922631D01*
X121320376Y-128982211D01*
X121167637Y-129078184D01*
X121040084Y-129205737D01*
X120944111Y-129358476D01*
X120884531Y-129528745D01*
X120884530Y-129528749D01*
X120876552Y-129599564D01*
X120849485Y-129663978D01*
X120791891Y-129703533D01*
X120722054Y-129705670D01*
X120712380Y-129702722D01*
X120689264Y-129694634D01*
X120689249Y-129694630D01*
X120510004Y-129674435D01*
X120509996Y-129674435D01*
X120330750Y-129694630D01*
X120330745Y-129694631D01*
X120160476Y-129754211D01*
X120007737Y-129850184D01*
X119880184Y-129977737D01*
X119784209Y-130130480D01*
X119724230Y-130301888D01*
X119683508Y-130358664D01*
X119618556Y-130384411D01*
X119549994Y-130370954D01*
X119519508Y-130348614D01*
X119174522Y-130003628D01*
X119141037Y-129942305D01*
X119146021Y-129872613D01*
X119157210Y-129849974D01*
X119159410Y-129846474D01*
X119226989Y-129738922D01*
X119286568Y-129568655D01*
X119286569Y-129568649D01*
X119306765Y-129389403D01*
X119306765Y-129389396D01*
X119286569Y-129210150D01*
X119286568Y-129210145D01*
X119274834Y-129176610D01*
X119226989Y-129039878D01*
X119195376Y-128989567D01*
X119164172Y-128939905D01*
X119131016Y-128887138D01*
X119003462Y-128759584D01*
X118961775Y-128733390D01*
X118850723Y-128663611D01*
X118680454Y-128604031D01*
X118680449Y-128604030D01*
X118501204Y-128583835D01*
X118501196Y-128583835D01*
X118321950Y-128604030D01*
X118321945Y-128604031D01*
X118151676Y-128663611D01*
X118040624Y-128733390D01*
X117973387Y-128752390D01*
X117906552Y-128732022D01*
X117886970Y-128716076D01*
X117837917Y-128667022D01*
X117804433Y-128605699D01*
X117801599Y-128579342D01*
X117801599Y-127819415D01*
X117801599Y-127319597D01*
X117821284Y-127252561D01*
X117874088Y-127206806D01*
X117943246Y-127196862D01*
X117991571Y-127214606D01*
X117996836Y-127217914D01*
X117996838Y-127217916D01*
X118149578Y-127313889D01*
X118306645Y-127368849D01*
X118319845Y-127373468D01*
X118319850Y-127373469D01*
X118499096Y-127393665D01*
X118499100Y-127393665D01*
X118499104Y-127393665D01*
X118678349Y-127373469D01*
X118678352Y-127373468D01*
X118678355Y-127373468D01*
X118848622Y-127313889D01*
X119001362Y-127217916D01*
X119128916Y-127090362D01*
X119224889Y-126937622D01*
X119284468Y-126767355D01*
X119284469Y-126767349D01*
X119304665Y-126588103D01*
X119304665Y-126588096D01*
X119284469Y-126408850D01*
X119284468Y-126408845D01*
X119253737Y-126321022D01*
X119224889Y-126238578D01*
X119128916Y-126085838D01*
X119001362Y-125958284D01*
X118961118Y-125932997D01*
X118848623Y-125862311D01*
X118678354Y-125802731D01*
X118678349Y-125802730D01*
X118499104Y-125782535D01*
X118499096Y-125782535D01*
X118319850Y-125802730D01*
X118319845Y-125802731D01*
X118149576Y-125862311D01*
X117991572Y-125961593D01*
X117924336Y-125980593D01*
X117857500Y-125960225D01*
X117812286Y-125906958D01*
X117801600Y-125856599D01*
X117801600Y-124550771D01*
X117821285Y-124483732D01*
X117874089Y-124437977D01*
X117943247Y-124428033D01*
X117991573Y-124445778D01*
X117994336Y-124447514D01*
X117994338Y-124447516D01*
X118051975Y-124483732D01*
X118147075Y-124543488D01*
X118317345Y-124603068D01*
X118317350Y-124603069D01*
X118496596Y-124623265D01*
X118496600Y-124623265D01*
X118496604Y-124623265D01*
X118675849Y-124603069D01*
X118675852Y-124603068D01*
X118675855Y-124603068D01*
X118846122Y-124543489D01*
X118998862Y-124447516D01*
X119126416Y-124319962D01*
X119222389Y-124167222D01*
X119281968Y-123996955D01*
X119282927Y-123988447D01*
X119302165Y-123817703D01*
X119302165Y-123817696D01*
X119281969Y-123638450D01*
X119281968Y-123638445D01*
X119239456Y-123516954D01*
X119222389Y-123468178D01*
X119126416Y-123315438D01*
X118998862Y-123187884D01*
X118952010Y-123158445D01*
X118846123Y-123091911D01*
X118675854Y-123032331D01*
X118675849Y-123032330D01*
X118496604Y-123012135D01*
X118496596Y-123012135D01*
X118317350Y-123032330D01*
X118317345Y-123032331D01*
X118147076Y-123091911D01*
X117991571Y-123189622D01*
X117924334Y-123208622D01*
X117857499Y-123188254D01*
X117812285Y-123134986D01*
X117801600Y-123084632D01*
X117801600Y-121500003D01*
X118844435Y-121500003D01*
X118864630Y-121679249D01*
X118864631Y-121679254D01*
X118924211Y-121849523D01*
X118998192Y-121967262D01*
X119020184Y-122002262D01*
X119147738Y-122129816D01*
X119200778Y-122163143D01*
X119266749Y-122204596D01*
X119300478Y-122225789D01*
X119470745Y-122285367D01*
X119470745Y-122285368D01*
X119470750Y-122285369D01*
X119649996Y-122305565D01*
X119650000Y-122305565D01*
X119650004Y-122305565D01*
X119829249Y-122285369D01*
X119829252Y-122285368D01*
X119829255Y-122285368D01*
X119999522Y-122225789D01*
X120033250Y-122204595D01*
X120100483Y-122185596D01*
X120165191Y-122204596D01*
X120203372Y-122228586D01*
X120203376Y-122228587D01*
X120203378Y-122228589D01*
X120203381Y-122228590D01*
X120373637Y-122288166D01*
X120373643Y-122288167D01*
X120373645Y-122288168D01*
X120373646Y-122288168D01*
X120373650Y-122288169D01*
X120552896Y-122308365D01*
X120552900Y-122308365D01*
X120552904Y-122308365D01*
X120732149Y-122288169D01*
X120732152Y-122288168D01*
X120732155Y-122288168D01*
X120902422Y-122228589D01*
X121055162Y-122132616D01*
X121182716Y-122005062D01*
X121278689Y-121852322D01*
X121338268Y-121682055D01*
X121338269Y-121682049D01*
X121358465Y-121502803D01*
X121358465Y-121502796D01*
X121338269Y-121323550D01*
X121338268Y-121323545D01*
X121278688Y-121153276D01*
X121239482Y-121090880D01*
X121182716Y-121000538D01*
X121055162Y-120872984D01*
X121023453Y-120853060D01*
X120902423Y-120777011D01*
X120732154Y-120717431D01*
X120732149Y-120717430D01*
X120552904Y-120697235D01*
X120552896Y-120697235D01*
X120373650Y-120717430D01*
X120373637Y-120717433D01*
X120203380Y-120777009D01*
X120169648Y-120798204D01*
X120102411Y-120817203D01*
X120037708Y-120798204D01*
X119999519Y-120774209D01*
X119829262Y-120714633D01*
X119829249Y-120714630D01*
X119650004Y-120694435D01*
X119649996Y-120694435D01*
X119470750Y-120714630D01*
X119470745Y-120714631D01*
X119300476Y-120774211D01*
X119147737Y-120870184D01*
X119020184Y-120997737D01*
X118924211Y-121150476D01*
X118864631Y-121320745D01*
X118864630Y-121320750D01*
X118844435Y-121499996D01*
X118844435Y-121500003D01*
X117801600Y-121500003D01*
X117801600Y-112257064D01*
X117803328Y-112241414D01*
X117803046Y-112241388D01*
X117803780Y-112233625D01*
X117801631Y-112165221D01*
X117801600Y-112163274D01*
X117801600Y-112134628D01*
X117801600Y-112134624D01*
X117800727Y-112127714D01*
X117800268Y-112121885D01*
X117798800Y-112075157D01*
X117793182Y-112055820D01*
X117789238Y-112036774D01*
X117786716Y-112016807D01*
X117769502Y-111973331D01*
X117767613Y-111967810D01*
X117754568Y-111922908D01*
X117744325Y-111905589D01*
X117735762Y-111888111D01*
X117728353Y-111869397D01*
X117728353Y-111869396D01*
X117700871Y-111831572D01*
X117697667Y-111826696D01*
X117673863Y-111786444D01*
X117673861Y-111786442D01*
X117673859Y-111786439D01*
X117659631Y-111772212D01*
X117646996Y-111757420D01*
X117635163Y-111741133D01*
X117635160Y-111741131D01*
X117635160Y-111741130D01*
X117635159Y-111741129D01*
X117599135Y-111711328D01*
X117594813Y-111707394D01*
X113863819Y-107976399D01*
X113830334Y-107915076D01*
X113827500Y-107888718D01*
X113827500Y-107700003D01*
X116194435Y-107700003D01*
X116214630Y-107879249D01*
X116214631Y-107879254D01*
X116274211Y-108049523D01*
X116331362Y-108140477D01*
X116370184Y-108202262D01*
X116497738Y-108329816D01*
X116541477Y-108357299D01*
X116610652Y-108400765D01*
X116650478Y-108425789D01*
X116723073Y-108451191D01*
X116820745Y-108485368D01*
X116820750Y-108485369D01*
X116999996Y-108505565D01*
X117000000Y-108505565D01*
X117000004Y-108505565D01*
X117179249Y-108485369D01*
X117179252Y-108485368D01*
X117179255Y-108485368D01*
X117349522Y-108425789D01*
X117502262Y-108329816D01*
X117629816Y-108202262D01*
X117725789Y-108049522D01*
X117785368Y-107879255D01*
X117805565Y-107700000D01*
X117785368Y-107520745D01*
X117725789Y-107350478D01*
X117629816Y-107197738D01*
X117502262Y-107070184D01*
X117408519Y-107011281D01*
X117349523Y-106974211D01*
X117179254Y-106914631D01*
X117179249Y-106914630D01*
X117000004Y-106894435D01*
X116999996Y-106894435D01*
X116820750Y-106914630D01*
X116820745Y-106914631D01*
X116650476Y-106974211D01*
X116497737Y-107070184D01*
X116370184Y-107197737D01*
X116274211Y-107350476D01*
X116214631Y-107520745D01*
X116214630Y-107520750D01*
X116194435Y-107699996D01*
X116194435Y-107700003D01*
X113827500Y-107700003D01*
X113827500Y-106782964D01*
X113829228Y-106767313D01*
X113828946Y-106767287D01*
X113829680Y-106759524D01*
X113827531Y-106691108D01*
X113827500Y-106689161D01*
X113827500Y-106660530D01*
X113827500Y-106660524D01*
X113826626Y-106653607D01*
X113826169Y-106647792D01*
X113824701Y-106601058D01*
X113819082Y-106581718D01*
X113815139Y-106562685D01*
X113812616Y-106542707D01*
X113795403Y-106499234D01*
X113793514Y-106493714D01*
X113780467Y-106448807D01*
X113770221Y-106431483D01*
X113761664Y-106414016D01*
X113754253Y-106395297D01*
X113754250Y-106395292D01*
X113726771Y-106357472D01*
X113723562Y-106352586D01*
X113699768Y-106312351D01*
X113699766Y-106312348D01*
X113699764Y-106312345D01*
X113685530Y-106298111D01*
X113672894Y-106283317D01*
X113661062Y-106267032D01*
X113661059Y-106267029D01*
X113625035Y-106237228D01*
X113620713Y-106233294D01*
X112587422Y-105200003D01*
X116294435Y-105200003D01*
X116314630Y-105379249D01*
X116314631Y-105379254D01*
X116374211Y-105549523D01*
X116470183Y-105702261D01*
X116470184Y-105702262D01*
X116597738Y-105829816D01*
X116750478Y-105925789D01*
X116920745Y-105985368D01*
X116920750Y-105985369D01*
X117099996Y-106005565D01*
X117100000Y-106005565D01*
X117100004Y-106005565D01*
X117279249Y-105985369D01*
X117279252Y-105985368D01*
X117279255Y-105985368D01*
X117449522Y-105925789D01*
X117602262Y-105829816D01*
X117729816Y-105702262D01*
X117825789Y-105549522D01*
X117885368Y-105379255D01*
X117890592Y-105332889D01*
X117905565Y-105200003D01*
X117905565Y-105199996D01*
X117885369Y-105020750D01*
X117885368Y-105020745D01*
X117825788Y-104850476D01*
X117729815Y-104697737D01*
X117602262Y-104570184D01*
X117449523Y-104474211D01*
X117279254Y-104414631D01*
X117279249Y-104414630D01*
X117100004Y-104394435D01*
X117099996Y-104394435D01*
X116920750Y-104414630D01*
X116920745Y-104414631D01*
X116750476Y-104474211D01*
X116597737Y-104570184D01*
X116470184Y-104697737D01*
X116374211Y-104850476D01*
X116314631Y-105020745D01*
X116314630Y-105020750D01*
X116294435Y-105199996D01*
X116294435Y-105200003D01*
X112587422Y-105200003D01*
X112033120Y-104645701D01*
X111999635Y-104584378D01*
X112004619Y-104514686D01*
X112046491Y-104458753D01*
X112106918Y-104434800D01*
X112288249Y-104414369D01*
X112288252Y-104414368D01*
X112288255Y-104414368D01*
X112458522Y-104354789D01*
X112611262Y-104258816D01*
X112611262Y-104258815D01*
X112616706Y-104254475D01*
X112618417Y-104256621D01*
X112668783Y-104229092D01*
X112738477Y-104234047D01*
X112761165Y-104245253D01*
X112886154Y-104323789D01*
X112900478Y-104332789D01*
X113045027Y-104383369D01*
X113070745Y-104392368D01*
X113070750Y-104392369D01*
X113249996Y-104412565D01*
X113250000Y-104412565D01*
X113250004Y-104412565D01*
X113429249Y-104392369D01*
X113429252Y-104392368D01*
X113429255Y-104392368D01*
X113599522Y-104332789D01*
X113752262Y-104236816D01*
X113879816Y-104109262D01*
X113975789Y-103956522D01*
X114035368Y-103786255D01*
X114055565Y-103607000D01*
X114054551Y-103598003D01*
X114035369Y-103427750D01*
X114035368Y-103427745D01*
X114035368Y-103427744D01*
X113975789Y-103257478D01*
X113879816Y-103104738D01*
X113752262Y-102977184D01*
X113737939Y-102968184D01*
X113599523Y-102881211D01*
X113429254Y-102821631D01*
X113429249Y-102821630D01*
X113250004Y-102801435D01*
X113249996Y-102801435D01*
X113070750Y-102821630D01*
X113070745Y-102821631D01*
X112900476Y-102881211D01*
X112747737Y-102977184D01*
X112742295Y-102981525D01*
X112740594Y-102979393D01*
X112690113Y-103006930D01*
X112620423Y-103001916D01*
X112597836Y-102990748D01*
X112458522Y-102903211D01*
X112395650Y-102881211D01*
X112288254Y-102843631D01*
X112288249Y-102843630D01*
X112109004Y-102823435D01*
X112108996Y-102823435D01*
X111929750Y-102843630D01*
X111929745Y-102843631D01*
X111759476Y-102903211D01*
X111606737Y-102999184D01*
X111601295Y-103003525D01*
X111599546Y-103001332D01*
X111549298Y-103028737D01*
X111479609Y-103023717D01*
X111457030Y-103012551D01*
X111300521Y-102914210D01*
X111130246Y-102854629D01*
X111123459Y-102853080D01*
X111124008Y-102850671D01*
X111070178Y-102828035D01*
X111030637Y-102770430D01*
X111024500Y-102731902D01*
X111024500Y-101146446D01*
X111043506Y-101080474D01*
X111107106Y-100979255D01*
X111125789Y-100949522D01*
X111185368Y-100779255D01*
X111188410Y-100752255D01*
X111205565Y-100600003D01*
X111205565Y-100599996D01*
X111185369Y-100420750D01*
X111185368Y-100420745D01*
X111142326Y-100297738D01*
X111125789Y-100250478D01*
X111029816Y-100097738D01*
X110902262Y-99970184D01*
X110879698Y-99956006D01*
X110749523Y-99874211D01*
X110628043Y-99831703D01*
X111713435Y-99831703D01*
X111733630Y-100010949D01*
X111733631Y-100010954D01*
X111793211Y-100181223D01*
X111866422Y-100297737D01*
X111889184Y-100333962D01*
X112016738Y-100461516D01*
X112169478Y-100557489D01*
X112290976Y-100600003D01*
X112339745Y-100617068D01*
X112339750Y-100617069D01*
X112518996Y-100637265D01*
X112519000Y-100637265D01*
X112519004Y-100637265D01*
X112698249Y-100617069D01*
X112698252Y-100617068D01*
X112698255Y-100617068D01*
X112868522Y-100557489D01*
X112960010Y-100500003D01*
X118390435Y-100500003D01*
X118410630Y-100679249D01*
X118410631Y-100679254D01*
X118470211Y-100849523D01*
X118533045Y-100949522D01*
X118566184Y-101002262D01*
X118693738Y-101129816D01*
X118846478Y-101225789D01*
X119016744Y-101285368D01*
X119016745Y-101285368D01*
X119016750Y-101285369D01*
X119195996Y-101305565D01*
X119196000Y-101305565D01*
X119196004Y-101305565D01*
X119375249Y-101285369D01*
X119375252Y-101285368D01*
X119375255Y-101285368D01*
X119545522Y-101225789D01*
X119698262Y-101129816D01*
X119825816Y-101002262D01*
X119921789Y-100849522D01*
X119981368Y-100679255D01*
X119987960Y-100620750D01*
X119998089Y-100530854D01*
X120025155Y-100466440D01*
X120082750Y-100426885D01*
X120135193Y-100421517D01*
X120250997Y-100434565D01*
X120251000Y-100434565D01*
X120251004Y-100434565D01*
X120430249Y-100414369D01*
X120430252Y-100414368D01*
X120430255Y-100414368D01*
X120600522Y-100354789D01*
X120753262Y-100258816D01*
X120880816Y-100131262D01*
X120976789Y-99978522D01*
X121036368Y-99808255D01*
X121037806Y-99795497D01*
X121042370Y-99754988D01*
X121069436Y-99690573D01*
X121127030Y-99651018D01*
X121196867Y-99648879D01*
X121256774Y-99684837D01*
X121268070Y-99699611D01*
X121270184Y-99702262D01*
X121397738Y-99829816D01*
X121468392Y-99874211D01*
X121528448Y-99911947D01*
X121550478Y-99925789D01*
X121701180Y-99978522D01*
X121720745Y-99985368D01*
X121720750Y-99985369D01*
X121899996Y-100005565D01*
X121900000Y-100005565D01*
X121900004Y-100005565D01*
X122079249Y-99985369D01*
X122079252Y-99985368D01*
X122079255Y-99985368D01*
X122249522Y-99925789D01*
X122402262Y-99829816D01*
X122529816Y-99702262D01*
X122625789Y-99549522D01*
X122685368Y-99379255D01*
X122690371Y-99334854D01*
X122705565Y-99200003D01*
X122705565Y-99199996D01*
X122685369Y-99020750D01*
X122685368Y-99020745D01*
X122674587Y-98989936D01*
X122625789Y-98850478D01*
X122529816Y-98697738D01*
X122402262Y-98570184D01*
X122331600Y-98525784D01*
X122249523Y-98474211D01*
X122079254Y-98414631D01*
X122079249Y-98414630D01*
X121900004Y-98394435D01*
X121899996Y-98394435D01*
X121720746Y-98414631D01*
X121720742Y-98414632D01*
X121661210Y-98435462D01*
X121591431Y-98439023D01*
X121530805Y-98404293D01*
X121515264Y-98384392D01*
X121506365Y-98370230D01*
X121460816Y-98297738D01*
X121333262Y-98170184D01*
X121264623Y-98127055D01*
X121180523Y-98074211D01*
X121010254Y-98014631D01*
X121010249Y-98014630D01*
X120831004Y-97994435D01*
X120830996Y-97994435D01*
X120651750Y-98014630D01*
X120651745Y-98014631D01*
X120481476Y-98074211D01*
X120328737Y-98170184D01*
X120201184Y-98297737D01*
X120105211Y-98450476D01*
X120045631Y-98620745D01*
X120045630Y-98620749D01*
X120027485Y-98781795D01*
X120000418Y-98846209D01*
X119942823Y-98885764D01*
X119872986Y-98887901D01*
X119838293Y-98872905D01*
X119692523Y-98781311D01*
X119522254Y-98721731D01*
X119522249Y-98721730D01*
X119343004Y-98701535D01*
X119342996Y-98701535D01*
X119163750Y-98721730D01*
X119163745Y-98721731D01*
X118993476Y-98781311D01*
X118840737Y-98877284D01*
X118713184Y-99004837D01*
X118617211Y-99157576D01*
X118557631Y-99327845D01*
X118557630Y-99327850D01*
X118537435Y-99507096D01*
X118537435Y-99507103D01*
X118557630Y-99686349D01*
X118557632Y-99686357D01*
X118614829Y-99849817D01*
X118618390Y-99919596D01*
X118585470Y-99978450D01*
X118566186Y-99997734D01*
X118470211Y-100150476D01*
X118410631Y-100320745D01*
X118410630Y-100320750D01*
X118390435Y-100499996D01*
X118390435Y-100500003D01*
X112960010Y-100500003D01*
X113021262Y-100461516D01*
X113148816Y-100333962D01*
X113244789Y-100181222D01*
X113304368Y-100010955D01*
X113304816Y-100006980D01*
X113324565Y-99831703D01*
X113324565Y-99831696D01*
X113304369Y-99652450D01*
X113304368Y-99652445D01*
X113261643Y-99530345D01*
X113244789Y-99482178D01*
X113148816Y-99329438D01*
X113021262Y-99201884D01*
X112963652Y-99165685D01*
X112868523Y-99105911D01*
X112698254Y-99046331D01*
X112698249Y-99046330D01*
X112519004Y-99026135D01*
X112518996Y-99026135D01*
X112339750Y-99046330D01*
X112339745Y-99046331D01*
X112169476Y-99105911D01*
X112016737Y-99201884D01*
X111889184Y-99329437D01*
X111793211Y-99482176D01*
X111733631Y-99652445D01*
X111733630Y-99652450D01*
X111713435Y-99831696D01*
X111713435Y-99831703D01*
X110628043Y-99831703D01*
X110579254Y-99814631D01*
X110579249Y-99814630D01*
X110400004Y-99794435D01*
X110399996Y-99794435D01*
X110220750Y-99814630D01*
X110220745Y-99814631D01*
X110050476Y-99874211D01*
X109897737Y-99970184D01*
X109863039Y-100004882D01*
X109801716Y-100038367D01*
X109732024Y-100033381D01*
X109709387Y-100022194D01*
X109633024Y-99974212D01*
X109633023Y-99974211D01*
X109580996Y-99956006D01*
X109524221Y-99915284D01*
X109498474Y-99850331D01*
X109498732Y-99825080D01*
X109499492Y-99818340D01*
X109502065Y-99795501D01*
X109501178Y-99787632D01*
X109481869Y-99616251D01*
X109481868Y-99616246D01*
X109466187Y-99571433D01*
X109422289Y-99445979D01*
X109326316Y-99293239D01*
X109198762Y-99165685D01*
X109182712Y-99155600D01*
X109046023Y-99069712D01*
X108875754Y-99010132D01*
X108875749Y-99010131D01*
X108696504Y-98989936D01*
X108696496Y-98989936D01*
X108517250Y-99010131D01*
X108517245Y-99010132D01*
X108346976Y-99069712D01*
X108194237Y-99165685D01*
X108066684Y-99293238D01*
X107970711Y-99445977D01*
X107911131Y-99616246D01*
X107911130Y-99616251D01*
X107890935Y-99795497D01*
X107890935Y-99795505D01*
X107907553Y-99943002D01*
X107895498Y-100011824D01*
X107848149Y-100063203D01*
X107825296Y-100073924D01*
X107824479Y-100074209D01*
X107671737Y-100170184D01*
X107544184Y-100297737D01*
X107448211Y-100450476D01*
X107388631Y-100620745D01*
X107388630Y-100620750D01*
X107368435Y-100799996D01*
X107368435Y-100800003D01*
X105585660Y-100800003D01*
X105602368Y-100752255D01*
X105617185Y-100620750D01*
X105622565Y-100573003D01*
X105622565Y-100572996D01*
X105602369Y-100393750D01*
X105602368Y-100393745D01*
X105555154Y-100258815D01*
X105542789Y-100223478D01*
X105446816Y-100070738D01*
X105319262Y-99943184D01*
X105291578Y-99925789D01*
X105166523Y-99847211D01*
X104996254Y-99787631D01*
X104996249Y-99787630D01*
X104817004Y-99767435D01*
X104816996Y-99767435D01*
X104637750Y-99787630D01*
X104637742Y-99787632D01*
X104560161Y-99814779D01*
X104490382Y-99818340D01*
X104429755Y-99783611D01*
X104397528Y-99721617D01*
X104403934Y-99652042D01*
X104414214Y-99631764D01*
X104493788Y-99505124D01*
X104514484Y-99445979D01*
X104553368Y-99334855D01*
X104553369Y-99334849D01*
X104573565Y-99155603D01*
X104573565Y-99155596D01*
X104553369Y-98976350D01*
X104553368Y-98976345D01*
X104509325Y-98850478D01*
X104493789Y-98806078D01*
X104397816Y-98653338D01*
X104270262Y-98525784D01*
X104238959Y-98506115D01*
X104117523Y-98429811D01*
X103947254Y-98370231D01*
X103947249Y-98370230D01*
X103768004Y-98350035D01*
X103767996Y-98350035D01*
X103588750Y-98370230D01*
X103588745Y-98370231D01*
X103418476Y-98429811D01*
X103265737Y-98525784D01*
X103138184Y-98653337D01*
X103042211Y-98806076D01*
X102982631Y-98976345D01*
X102982630Y-98976350D01*
X102962435Y-99155596D01*
X102962435Y-99155603D01*
X100700500Y-99155603D01*
X100700500Y-97232180D01*
X101345400Y-97232180D01*
X101384715Y-97442497D01*
X101462006Y-97642007D01*
X101462008Y-97642013D01*
X101574287Y-97823349D01*
X101574642Y-97823922D01*
X101718786Y-97982041D01*
X101889530Y-98110981D01*
X102081058Y-98206350D01*
X102081064Y-98206353D01*
X102246743Y-98253492D01*
X102286852Y-98264904D01*
X102446525Y-98279700D01*
X102446528Y-98279700D01*
X102553272Y-98279700D01*
X102553275Y-98279700D01*
X102712948Y-98264904D01*
X102843552Y-98227744D01*
X102918735Y-98206353D01*
X102918737Y-98206351D01*
X102918740Y-98206351D01*
X103110270Y-98110981D01*
X103281014Y-97982041D01*
X103425158Y-97823922D01*
X103537793Y-97642010D01*
X103615085Y-97442497D01*
X103654400Y-97232180D01*
X103654400Y-97221403D01*
X104239435Y-97221403D01*
X104259630Y-97400649D01*
X104259631Y-97400654D01*
X104319211Y-97570923D01*
X104415184Y-97723662D01*
X104542739Y-97851217D01*
X104601186Y-97887942D01*
X104647476Y-97940277D01*
X104658433Y-98006818D01*
X104647935Y-98099996D01*
X104647935Y-98100003D01*
X104668130Y-98279249D01*
X104668131Y-98279254D01*
X104727711Y-98449523D01*
X104803528Y-98570184D01*
X104823684Y-98602262D01*
X104951238Y-98729816D01*
X105103978Y-98825789D01*
X105238628Y-98872905D01*
X105274245Y-98885368D01*
X105274250Y-98885369D01*
X105453496Y-98905565D01*
X105453500Y-98905565D01*
X105453504Y-98905565D01*
X105632749Y-98885369D01*
X105632752Y-98885368D01*
X105632755Y-98885368D01*
X105803022Y-98825789D01*
X105955762Y-98729816D01*
X106083316Y-98602262D01*
X106179289Y-98449522D01*
X106238868Y-98279255D01*
X106244889Y-98225823D01*
X106253750Y-98147173D01*
X106280816Y-98082759D01*
X106338411Y-98043204D01*
X106408248Y-98041066D01*
X106468154Y-98077024D01*
X106481963Y-98095083D01*
X106514184Y-98146362D01*
X106641738Y-98273916D01*
X106699592Y-98310268D01*
X106762880Y-98350035D01*
X106794478Y-98369889D01*
X106922346Y-98414632D01*
X106964745Y-98429468D01*
X106964750Y-98429469D01*
X107143996Y-98449665D01*
X107144000Y-98449665D01*
X107144004Y-98449665D01*
X107323249Y-98429469D01*
X107323252Y-98429468D01*
X107323255Y-98429468D01*
X107493522Y-98369889D01*
X107646262Y-98273916D01*
X107773816Y-98146362D01*
X107869789Y-97993622D01*
X107929368Y-97823355D01*
X107930932Y-97809473D01*
X107949565Y-97644103D01*
X107949565Y-97644096D01*
X107929369Y-97464850D01*
X107929368Y-97464845D01*
X107906907Y-97400655D01*
X107869789Y-97294578D01*
X107773816Y-97141838D01*
X107773815Y-97141837D01*
X107769475Y-97136395D01*
X107771977Y-97134399D01*
X107745229Y-97085413D01*
X107750213Y-97015721D01*
X107792085Y-96959788D01*
X107825442Y-96942013D01*
X107873520Y-96925190D01*
X107884471Y-96918309D01*
X108016575Y-96835303D01*
X108598435Y-96835303D01*
X108618630Y-97014549D01*
X108618631Y-97014554D01*
X108678211Y-97184823D01*
X108755943Y-97308532D01*
X108774184Y-97337562D01*
X108901738Y-97465116D01*
X109054478Y-97561089D01*
X109160758Y-97598278D01*
X109224745Y-97620668D01*
X109224750Y-97620669D01*
X109403996Y-97640865D01*
X109404000Y-97640865D01*
X109404003Y-97640865D01*
X109529125Y-97626767D01*
X109597947Y-97638821D01*
X109649327Y-97686170D01*
X109666951Y-97753781D01*
X109660051Y-97790941D01*
X109614632Y-97920742D01*
X109614630Y-97920750D01*
X109594435Y-98099996D01*
X109594435Y-98100003D01*
X109614630Y-98279249D01*
X109614631Y-98279254D01*
X109674211Y-98449523D01*
X109750028Y-98570184D01*
X109770184Y-98602262D01*
X109897738Y-98729816D01*
X110050478Y-98825789D01*
X110185128Y-98872905D01*
X110220745Y-98885368D01*
X110220750Y-98885369D01*
X110399996Y-98905565D01*
X110400000Y-98905565D01*
X110400004Y-98905565D01*
X110579249Y-98885369D01*
X110579252Y-98885368D01*
X110579255Y-98885368D01*
X110749522Y-98825789D01*
X110902262Y-98729816D01*
X111029816Y-98602262D01*
X111125789Y-98449522D01*
X111174516Y-98310267D01*
X111215238Y-98253492D01*
X111280190Y-98227744D01*
X111348752Y-98241200D01*
X111396552Y-98285250D01*
X111455184Y-98378562D01*
X111582738Y-98506116D01*
X111673080Y-98562881D01*
X111684701Y-98570184D01*
X111735478Y-98602089D01*
X111881936Y-98653337D01*
X111905745Y-98661668D01*
X111905750Y-98661669D01*
X112084996Y-98681865D01*
X112085000Y-98681865D01*
X112085004Y-98681865D01*
X112264249Y-98661669D01*
X112264252Y-98661668D01*
X112264255Y-98661668D01*
X112434522Y-98602089D01*
X112587262Y-98506116D01*
X112714816Y-98378562D01*
X112810789Y-98225822D01*
X112870368Y-98055555D01*
X112874979Y-98014630D01*
X112890565Y-97876303D01*
X112890565Y-97876296D01*
X112870369Y-97697050D01*
X112870368Y-97697045D01*
X112857875Y-97661341D01*
X112810789Y-97526778D01*
X112810301Y-97526002D01*
X112733593Y-97403921D01*
X112714816Y-97374038D01*
X112587262Y-97246484D01*
X112566835Y-97233649D01*
X112434520Y-97150509D01*
X112398534Y-97137917D01*
X112341758Y-97097195D01*
X112316012Y-97032242D01*
X112322448Y-96979924D01*
X112341368Y-96925855D01*
X112342218Y-96918311D01*
X112361565Y-96746603D01*
X112361565Y-96746596D01*
X112341369Y-96567350D01*
X112341368Y-96567345D01*
X112334922Y-96548923D01*
X112281789Y-96397078D01*
X112271328Y-96380430D01*
X112241549Y-96333037D01*
X112220667Y-96299803D01*
X112647435Y-96299803D01*
X112667630Y-96479049D01*
X112667631Y-96479054D01*
X112727211Y-96649323D01*
X112823088Y-96801909D01*
X112823184Y-96802062D01*
X112950738Y-96929616D01*
X113040699Y-96986142D01*
X113103478Y-97025589D01*
X113280318Y-97087468D01*
X113279574Y-97089592D01*
X113331210Y-97118468D01*
X113364073Y-97180127D01*
X113365867Y-97191374D01*
X113370630Y-97233649D01*
X113430210Y-97403921D01*
X113473232Y-97472389D01*
X113526184Y-97556662D01*
X113653738Y-97684216D01*
X113680284Y-97700896D01*
X113787954Y-97768550D01*
X113806478Y-97780189D01*
X113931434Y-97823913D01*
X113976745Y-97839768D01*
X113976750Y-97839769D01*
X114155996Y-97859965D01*
X114156000Y-97859965D01*
X114156004Y-97859965D01*
X114307826Y-97842859D01*
X114376647Y-97854914D01*
X114428027Y-97902263D01*
X114444929Y-97952195D01*
X114464630Y-98127050D01*
X114464631Y-98127054D01*
X114524211Y-98297323D01*
X114607459Y-98429811D01*
X114620184Y-98450062D01*
X114747738Y-98577616D01*
X114900478Y-98673589D01*
X115038057Y-98721730D01*
X115070745Y-98733168D01*
X115070750Y-98733169D01*
X115249996Y-98753365D01*
X115250000Y-98753365D01*
X115250004Y-98753365D01*
X115429249Y-98733169D01*
X115429252Y-98733168D01*
X115429255Y-98733168D01*
X115599522Y-98673589D01*
X115752262Y-98577616D01*
X115879816Y-98450062D01*
X115975789Y-98297322D01*
X116035368Y-98127055D01*
X116037179Y-98110981D01*
X116055565Y-97947803D01*
X116055565Y-97947796D01*
X116035369Y-97768550D01*
X116035368Y-97768545D01*
X116012444Y-97703033D01*
X115975789Y-97598278D01*
X115879816Y-97445538D01*
X115752262Y-97317984D01*
X115715012Y-97294578D01*
X115599523Y-97222011D01*
X115431121Y-97163085D01*
X115374345Y-97122363D01*
X115348598Y-97057410D01*
X115362054Y-96988849D01*
X115375134Y-96968724D01*
X115377808Y-96965369D01*
X115377816Y-96965362D01*
X115473789Y-96812622D01*
X115473788Y-96812622D01*
X115477494Y-96806726D01*
X115478879Y-96807596D01*
X115519971Y-96762071D01*
X115587396Y-96743748D01*
X115654022Y-96764787D01*
X115672564Y-96780042D01*
X115676184Y-96783662D01*
X115803738Y-96911216D01*
X115956478Y-97007189D01*
X116126744Y-97066767D01*
X116126745Y-97066768D01*
X116126750Y-97066769D01*
X116305996Y-97086965D01*
X116306000Y-97086965D01*
X116306004Y-97086965D01*
X116379651Y-97078667D01*
X121641622Y-97078667D01*
X121651684Y-97264257D01*
X121651684Y-97264262D01*
X121701405Y-97443343D01*
X121701409Y-97443351D01*
X121788469Y-97607563D01*
X121887085Y-97723662D01*
X121908795Y-97749221D01*
X122056761Y-97861702D01*
X122056762Y-97861702D01*
X122056763Y-97861703D01*
X122225443Y-97939743D01*
X122225451Y-97939746D01*
X122262056Y-97947803D01*
X122406967Y-97979700D01*
X122406970Y-97979700D01*
X122546227Y-97979700D01*
X122546232Y-97979700D01*
X122684675Y-97964643D01*
X122860811Y-97905296D01*
X123020071Y-97809473D01*
X123155008Y-97681654D01*
X123168781Y-97661341D01*
X123181889Y-97642007D01*
X123259313Y-97527815D01*
X123281967Y-97470958D01*
X123328108Y-97355155D01*
X123328109Y-97355151D01*
X123358178Y-97171735D01*
X123348116Y-96986142D01*
X123298392Y-96807052D01*
X123298391Y-96807051D01*
X123296964Y-96801909D01*
X123297996Y-96732047D01*
X123336634Y-96673833D01*
X123375488Y-96651694D01*
X123449522Y-96625789D01*
X123602262Y-96529816D01*
X123729816Y-96402262D01*
X123825789Y-96249522D01*
X123885368Y-96079255D01*
X123891953Y-96020811D01*
X123905565Y-95900003D01*
X123905565Y-95899996D01*
X123885369Y-95720750D01*
X123885368Y-95720745D01*
X123861952Y-95653827D01*
X123825789Y-95550478D01*
X123729816Y-95397738D01*
X123602262Y-95270184D01*
X123599066Y-95268176D01*
X123449523Y-95174211D01*
X123279254Y-95114631D01*
X123279249Y-95114630D01*
X123100004Y-95094435D01*
X123099996Y-95094435D01*
X122920750Y-95114630D01*
X122920745Y-95114631D01*
X122750476Y-95174211D01*
X122597737Y-95270184D01*
X122470184Y-95397737D01*
X122374211Y-95550476D01*
X122314631Y-95720745D01*
X122314630Y-95720750D01*
X122294435Y-95899996D01*
X122294435Y-95900003D01*
X122314630Y-96079249D01*
X122314632Y-96079257D01*
X122337888Y-96145719D01*
X122341449Y-96215498D01*
X122306720Y-96276125D01*
X122260440Y-96304182D01*
X122138983Y-96345106D01*
X121979727Y-96440928D01*
X121979726Y-96440929D01*
X121844790Y-96568746D01*
X121740485Y-96722587D01*
X121740484Y-96722589D01*
X121671691Y-96895244D01*
X121652133Y-97014549D01*
X121643573Y-97066768D01*
X121641622Y-97078667D01*
X116379651Y-97078667D01*
X116485249Y-97066769D01*
X116485252Y-97066768D01*
X116485255Y-97066768D01*
X116655522Y-97007189D01*
X116808262Y-96911216D01*
X116935816Y-96783662D01*
X117031789Y-96630922D01*
X117091368Y-96460655D01*
X117091369Y-96460650D01*
X117093150Y-96444844D01*
X117120216Y-96380430D01*
X117177811Y-96340875D01*
X117247647Y-96338737D01*
X117257325Y-96341686D01*
X117432737Y-96403066D01*
X117432743Y-96403067D01*
X117432745Y-96403068D01*
X117432746Y-96403068D01*
X117432750Y-96403069D01*
X117611996Y-96423265D01*
X117612000Y-96423265D01*
X117612004Y-96423265D01*
X117791249Y-96403069D01*
X117791252Y-96403068D01*
X117791255Y-96403068D01*
X117961522Y-96343489D01*
X118114262Y-96247516D01*
X118241816Y-96119962D01*
X118337789Y-95967222D01*
X118397368Y-95796955D01*
X118397369Y-95796949D01*
X118417565Y-95617703D01*
X118417565Y-95617696D01*
X118397369Y-95438450D01*
X118397368Y-95438445D01*
X118397367Y-95438445D01*
X118337789Y-95268178D01*
X118241816Y-95115438D01*
X118114262Y-94987884D01*
X118106567Y-94983049D01*
X117961523Y-94891911D01*
X117791254Y-94832331D01*
X117791249Y-94832330D01*
X117612004Y-94812135D01*
X117611996Y-94812135D01*
X117432750Y-94832330D01*
X117432745Y-94832331D01*
X117262476Y-94891911D01*
X117109737Y-94987884D01*
X116982184Y-95115437D01*
X116886211Y-95268176D01*
X116826631Y-95438445D01*
X116826631Y-95438447D01*
X116824849Y-95454261D01*
X116797779Y-95518673D01*
X116740183Y-95558226D01*
X116670346Y-95560361D01*
X116660674Y-95557413D01*
X116485262Y-95496033D01*
X116485249Y-95496030D01*
X116306004Y-95475835D01*
X116305996Y-95475835D01*
X116126750Y-95496030D01*
X116126745Y-95496031D01*
X115956476Y-95555611D01*
X115803737Y-95651584D01*
X115676184Y-95779137D01*
X115576506Y-95937774D01*
X115575125Y-95936906D01*
X115534002Y-95982444D01*
X115466573Y-96000750D01*
X115399952Y-95979695D01*
X115381435Y-95964457D01*
X115250262Y-95833284D01*
X115097523Y-95737311D01*
X114927254Y-95677731D01*
X114927249Y-95677730D01*
X114748004Y-95657535D01*
X114747996Y-95657535D01*
X114568750Y-95677730D01*
X114568745Y-95677731D01*
X114398476Y-95737311D01*
X114250020Y-95830593D01*
X114182783Y-95849593D01*
X114115948Y-95829225D01*
X114087101Y-95802911D01*
X114082817Y-95797539D01*
X113955262Y-95669984D01*
X113802523Y-95574011D01*
X113632254Y-95514431D01*
X113632249Y-95514430D01*
X113453004Y-95494235D01*
X113452996Y-95494235D01*
X113273750Y-95514430D01*
X113273745Y-95514431D01*
X113103476Y-95574011D01*
X112950737Y-95669984D01*
X112823184Y-95797537D01*
X112727211Y-95950276D01*
X112667631Y-96120545D01*
X112667630Y-96120550D01*
X112647435Y-96299796D01*
X112647435Y-96299803D01*
X112220667Y-96299803D01*
X112185816Y-96244338D01*
X112058262Y-96116784D01*
X112034964Y-96102145D01*
X111905523Y-96020811D01*
X111735254Y-95961231D01*
X111735249Y-95961230D01*
X111556004Y-95941035D01*
X111555996Y-95941035D01*
X111376750Y-95961230D01*
X111376745Y-95961231D01*
X111206476Y-96020811D01*
X111053737Y-96116784D01*
X110926184Y-96244337D01*
X110830211Y-96397076D01*
X110770631Y-96567345D01*
X110770630Y-96567350D01*
X110750435Y-96746596D01*
X110750435Y-96746603D01*
X110770630Y-96925849D01*
X110770631Y-96925854D01*
X110830211Y-97096123D01*
X110888394Y-97188720D01*
X110907394Y-97255957D01*
X110887026Y-97322792D01*
X110833758Y-97368006D01*
X110764502Y-97377243D01*
X110742446Y-97371734D01*
X110579257Y-97314632D01*
X110579249Y-97314630D01*
X110400004Y-97294435D01*
X110399996Y-97294435D01*
X110274873Y-97308532D01*
X110206051Y-97296477D01*
X110154672Y-97249128D01*
X110137048Y-97181517D01*
X110143949Y-97144357D01*
X110189366Y-97014562D01*
X110189369Y-97014549D01*
X110209565Y-96835303D01*
X110209565Y-96835296D01*
X110189369Y-96656050D01*
X110189368Y-96656045D01*
X110158332Y-96567350D01*
X110129789Y-96485778D01*
X110104068Y-96444844D01*
X110077819Y-96403068D01*
X110033816Y-96333038D01*
X109906262Y-96205484D01*
X109811147Y-96145719D01*
X109753523Y-96109511D01*
X109583254Y-96049931D01*
X109583249Y-96049930D01*
X109404004Y-96029735D01*
X109403996Y-96029735D01*
X109224750Y-96049930D01*
X109224745Y-96049931D01*
X109054476Y-96109511D01*
X108901737Y-96205484D01*
X108774184Y-96333037D01*
X108678211Y-96485776D01*
X108618631Y-96656045D01*
X108618630Y-96656050D01*
X108598435Y-96835296D01*
X108598435Y-96835303D01*
X108016575Y-96835303D01*
X108026262Y-96829216D01*
X108153816Y-96701662D01*
X108249789Y-96548922D01*
X108309368Y-96378655D01*
X108313148Y-96345106D01*
X108329565Y-96199403D01*
X108329565Y-96199396D01*
X108309369Y-96020150D01*
X108309368Y-96020145D01*
X108288753Y-95961230D01*
X108249789Y-95849878D01*
X108237671Y-95830593D01*
X108153815Y-95697137D01*
X108026262Y-95569584D01*
X107873523Y-95473611D01*
X107703254Y-95414031D01*
X107703249Y-95414030D01*
X107524004Y-95393835D01*
X107523996Y-95393835D01*
X107344750Y-95414030D01*
X107344745Y-95414031D01*
X107174476Y-95473611D01*
X107021737Y-95569584D01*
X106894184Y-95697137D01*
X106798211Y-95849876D01*
X106738631Y-96020145D01*
X106738630Y-96020150D01*
X106718435Y-96199396D01*
X106718435Y-96199403D01*
X106738630Y-96378649D01*
X106738631Y-96378654D01*
X106798211Y-96548923D01*
X106894184Y-96701662D01*
X106898525Y-96707105D01*
X106896022Y-96709101D01*
X106922770Y-96758086D01*
X106917786Y-96827778D01*
X106875914Y-96883711D01*
X106842560Y-96901485D01*
X106794479Y-96918309D01*
X106641737Y-97014284D01*
X106514184Y-97141837D01*
X106418211Y-97294576D01*
X106358631Y-97464845D01*
X106358630Y-97464849D01*
X106343749Y-97596927D01*
X106316682Y-97661341D01*
X106259087Y-97700896D01*
X106189250Y-97703033D01*
X106129344Y-97667075D01*
X106115537Y-97649018D01*
X106083316Y-97597738D01*
X105955762Y-97470184D01*
X105955761Y-97470183D01*
X105897314Y-97433458D01*
X105851023Y-97381123D01*
X105840066Y-97314580D01*
X105850565Y-97221402D01*
X105850565Y-97221396D01*
X105830369Y-97042150D01*
X105830368Y-97042145D01*
X105789674Y-96925849D01*
X105770789Y-96871878D01*
X105747805Y-96835300D01*
X105726921Y-96802062D01*
X105674816Y-96719138D01*
X105547262Y-96591584D01*
X105508686Y-96567345D01*
X105394523Y-96495611D01*
X105224254Y-96436031D01*
X105224249Y-96436030D01*
X105045004Y-96415835D01*
X105044996Y-96415835D01*
X104865750Y-96436030D01*
X104865745Y-96436031D01*
X104695476Y-96495611D01*
X104542737Y-96591584D01*
X104415184Y-96719137D01*
X104319211Y-96871876D01*
X104259631Y-97042145D01*
X104259630Y-97042150D01*
X104239435Y-97221396D01*
X104239435Y-97221403D01*
X103654400Y-97221403D01*
X103654400Y-97018220D01*
X103615085Y-96807903D01*
X103537793Y-96608390D01*
X103527387Y-96591584D01*
X103425163Y-96426486D01*
X103425161Y-96426483D01*
X103425158Y-96426478D01*
X103281014Y-96268359D01*
X103110270Y-96139419D01*
X103058374Y-96113578D01*
X102918741Y-96044049D01*
X102918735Y-96044046D01*
X102712950Y-95985496D01*
X102712947Y-95985495D01*
X102590720Y-95974169D01*
X102553275Y-95970700D01*
X102446525Y-95970700D01*
X102411794Y-95973918D01*
X102286852Y-95985495D01*
X102286849Y-95985496D01*
X102081064Y-96044046D01*
X102081058Y-96044049D01*
X101889529Y-96139419D01*
X101718787Y-96268358D01*
X101718786Y-96268359D01*
X101574642Y-96426478D01*
X101574640Y-96426479D01*
X101574638Y-96426483D01*
X101574636Y-96426486D01*
X101462008Y-96608386D01*
X101462006Y-96608392D01*
X101448849Y-96642355D01*
X101384715Y-96807903D01*
X101345400Y-97018220D01*
X101345400Y-97232180D01*
X100700500Y-97232180D01*
X100700500Y-95034410D01*
X100720185Y-94967372D01*
X100736819Y-94946730D01*
X101546731Y-94136819D01*
X101608054Y-94103334D01*
X101634412Y-94100500D01*
X102143995Y-94100500D01*
X102235041Y-94082389D01*
X102279328Y-94073580D01*
X102406811Y-94020775D01*
X102521542Y-93944114D01*
X102619114Y-93846542D01*
X102695775Y-93731811D01*
X102748580Y-93604328D01*
X102762306Y-93535323D01*
X102775500Y-93468995D01*
X102775500Y-93369503D01*
X103239435Y-93369503D01*
X103259630Y-93548749D01*
X103259631Y-93548754D01*
X103319211Y-93719023D01*
X103399337Y-93846542D01*
X103415184Y-93871762D01*
X103542738Y-93999316D01*
X103695478Y-94095289D01*
X103766627Y-94120185D01*
X103865745Y-94154868D01*
X103865750Y-94154869D01*
X104044996Y-94175065D01*
X104045000Y-94175065D01*
X104045004Y-94175065D01*
X104224249Y-94154869D01*
X104224252Y-94154868D01*
X104224255Y-94154868D01*
X104394522Y-94095289D01*
X104547262Y-93999316D01*
X104674816Y-93871762D01*
X104770789Y-93719022D01*
X104830368Y-93548755D01*
X104830369Y-93548749D01*
X104850565Y-93369503D01*
X104850565Y-93369496D01*
X104830369Y-93190250D01*
X104830368Y-93190245D01*
X104820974Y-93163398D01*
X104770789Y-93019978D01*
X104765086Y-93010903D01*
X105179435Y-93010903D01*
X105199630Y-93190149D01*
X105199631Y-93190154D01*
X105259211Y-93360423D01*
X105316241Y-93451185D01*
X105355184Y-93513162D01*
X105482738Y-93640716D01*
X105570144Y-93695637D01*
X105634731Y-93736220D01*
X105635478Y-93736689D01*
X105770882Y-93784069D01*
X105805745Y-93796268D01*
X105805750Y-93796269D01*
X105984996Y-93816465D01*
X105985000Y-93816465D01*
X105985004Y-93816465D01*
X106164249Y-93796269D01*
X106164252Y-93796268D01*
X106164255Y-93796268D01*
X106334522Y-93736689D01*
X106487262Y-93640716D01*
X106614816Y-93513162D01*
X106710789Y-93360422D01*
X106770368Y-93190155D01*
X106771743Y-93177954D01*
X106790565Y-93010903D01*
X106790565Y-93010896D01*
X106789191Y-92998703D01*
X108232435Y-92998703D01*
X108252630Y-93177949D01*
X108252631Y-93177954D01*
X108312211Y-93348223D01*
X108388098Y-93468995D01*
X108408184Y-93500962D01*
X108535738Y-93628516D01*
X108557677Y-93642301D01*
X108670780Y-93713369D01*
X108688478Y-93724489D01*
X108858745Y-93784067D01*
X108858745Y-93784068D01*
X108858750Y-93784069D01*
X109037996Y-93804265D01*
X109038000Y-93804265D01*
X109038004Y-93804265D01*
X109217249Y-93784069D01*
X109217252Y-93784068D01*
X109217255Y-93784068D01*
X109387522Y-93724489D01*
X109540262Y-93628516D01*
X109667816Y-93500962D01*
X109763789Y-93348222D01*
X109798787Y-93248203D01*
X110829435Y-93248203D01*
X110849630Y-93427449D01*
X110849631Y-93427454D01*
X110909211Y-93597723D01*
X110994567Y-93733565D01*
X111005184Y-93750462D01*
X111132738Y-93878016D01*
X111285478Y-93973989D01*
X111419173Y-94020771D01*
X111455745Y-94033568D01*
X111455750Y-94033569D01*
X111634996Y-94053765D01*
X111635000Y-94053765D01*
X111635004Y-94053765D01*
X111814249Y-94033569D01*
X111814252Y-94033568D01*
X111814255Y-94033568D01*
X111984522Y-93973989D01*
X112137262Y-93878016D01*
X112264816Y-93750462D01*
X112360789Y-93597722D01*
X112420368Y-93427455D01*
X112420369Y-93427449D01*
X112440565Y-93248203D01*
X112440565Y-93248196D01*
X112420369Y-93068950D01*
X112420368Y-93068945D01*
X112371050Y-92928003D01*
X113319435Y-92928003D01*
X113339630Y-93107249D01*
X113339631Y-93107254D01*
X113399211Y-93277523D01*
X113476169Y-93400000D01*
X113495184Y-93430262D01*
X113622738Y-93557816D01*
X113775478Y-93653789D01*
X113864220Y-93684841D01*
X113945745Y-93713368D01*
X113945750Y-93713369D01*
X114124996Y-93733565D01*
X114125000Y-93733565D01*
X114125004Y-93733565D01*
X114304249Y-93713369D01*
X114304252Y-93713368D01*
X114304255Y-93713368D01*
X114474522Y-93653789D01*
X114627262Y-93557816D01*
X114677651Y-93507426D01*
X114738972Y-93473942D01*
X114808664Y-93478926D01*
X114864597Y-93520797D01*
X114882373Y-93554154D01*
X114905210Y-93619421D01*
X114976932Y-93733565D01*
X115001184Y-93772162D01*
X115128738Y-93899716D01*
X115281478Y-93995689D01*
X115389730Y-94033568D01*
X115451745Y-94055268D01*
X115451750Y-94055269D01*
X115630996Y-94075465D01*
X115631000Y-94075465D01*
X115631004Y-94075465D01*
X115810249Y-94055269D01*
X115810252Y-94055268D01*
X115810255Y-94055268D01*
X115980522Y-93995689D01*
X116133262Y-93899716D01*
X116260816Y-93772162D01*
X116356789Y-93619422D01*
X116416368Y-93449155D01*
X116418814Y-93427449D01*
X116436565Y-93269903D01*
X116436565Y-93269896D01*
X116416369Y-93090650D01*
X116416368Y-93090645D01*
X116401701Y-93048728D01*
X116356789Y-92920378D01*
X116260816Y-92767638D01*
X116133262Y-92640084D01*
X116098727Y-92618384D01*
X115980523Y-92544111D01*
X115810254Y-92484531D01*
X115810249Y-92484530D01*
X115631004Y-92464335D01*
X115630996Y-92464335D01*
X115451750Y-92484530D01*
X115451745Y-92484531D01*
X115281476Y-92544111D01*
X115128737Y-92640084D01*
X115078349Y-92690472D01*
X115017026Y-92723956D01*
X114947334Y-92718971D01*
X114891401Y-92677100D01*
X114873628Y-92643745D01*
X114850790Y-92578480D01*
X114850789Y-92578478D01*
X114754816Y-92425738D01*
X114627262Y-92298184D01*
X114627262Y-92298183D01*
X114474523Y-92202211D01*
X114304254Y-92142631D01*
X114304249Y-92142630D01*
X114125004Y-92122435D01*
X114124996Y-92122435D01*
X113945750Y-92142630D01*
X113945745Y-92142631D01*
X113775476Y-92202211D01*
X113622737Y-92298184D01*
X113495184Y-92425737D01*
X113399211Y-92578476D01*
X113339631Y-92748745D01*
X113339630Y-92748750D01*
X113319435Y-92927996D01*
X113319435Y-92928003D01*
X112371050Y-92928003D01*
X112368381Y-92920376D01*
X112360789Y-92898678D01*
X112264816Y-92745938D01*
X112137262Y-92618384D01*
X112137261Y-92618383D01*
X111984523Y-92522411D01*
X111814254Y-92462831D01*
X111814249Y-92462830D01*
X111635004Y-92442635D01*
X111634996Y-92442635D01*
X111455750Y-92462830D01*
X111455745Y-92462831D01*
X111285476Y-92522411D01*
X111132737Y-92618384D01*
X111005184Y-92745937D01*
X110909211Y-92898676D01*
X110849631Y-93068945D01*
X110849630Y-93068950D01*
X110829435Y-93248196D01*
X110829435Y-93248203D01*
X109798787Y-93248203D01*
X109823368Y-93177955D01*
X109833205Y-93090650D01*
X109843565Y-92998703D01*
X109843565Y-92998696D01*
X109823369Y-92819450D01*
X109823368Y-92819445D01*
X109805240Y-92767637D01*
X109763789Y-92649178D01*
X109667816Y-92496438D01*
X109540262Y-92368884D01*
X109427744Y-92298184D01*
X109387523Y-92272911D01*
X109217254Y-92213331D01*
X109217249Y-92213330D01*
X109038004Y-92193135D01*
X109037996Y-92193135D01*
X108858750Y-92213330D01*
X108858745Y-92213331D01*
X108688476Y-92272911D01*
X108535737Y-92368884D01*
X108408184Y-92496437D01*
X108312211Y-92649176D01*
X108252631Y-92819445D01*
X108252630Y-92819450D01*
X108232435Y-92998696D01*
X108232435Y-92998703D01*
X106789191Y-92998703D01*
X106770369Y-92831650D01*
X106770368Y-92831645D01*
X106747971Y-92767637D01*
X106710789Y-92661378D01*
X106699709Y-92643745D01*
X106614815Y-92508637D01*
X106487262Y-92381084D01*
X106334523Y-92285111D01*
X106164254Y-92225531D01*
X106164249Y-92225530D01*
X105985004Y-92205335D01*
X105984996Y-92205335D01*
X105805750Y-92225530D01*
X105805745Y-92225531D01*
X105635476Y-92285111D01*
X105482737Y-92381084D01*
X105355184Y-92508637D01*
X105259211Y-92661376D01*
X105199631Y-92831645D01*
X105199630Y-92831650D01*
X105179435Y-93010896D01*
X105179435Y-93010903D01*
X104765086Y-93010903D01*
X104765082Y-93010896D01*
X104687435Y-92887321D01*
X104674816Y-92867238D01*
X104547262Y-92739684D01*
X104522231Y-92723956D01*
X104394523Y-92643711D01*
X104224254Y-92584131D01*
X104224249Y-92584130D01*
X104045004Y-92563935D01*
X104044996Y-92563935D01*
X103865750Y-92584130D01*
X103865745Y-92584131D01*
X103695476Y-92643711D01*
X103542737Y-92739684D01*
X103415184Y-92867237D01*
X103319211Y-93019976D01*
X103259631Y-93190245D01*
X103259630Y-93190250D01*
X103239435Y-93369496D01*
X103239435Y-93369503D01*
X102775500Y-93369503D01*
X102775500Y-90224500D01*
X102795185Y-90157461D01*
X102847989Y-90111706D01*
X102899500Y-90100500D01*
X112477410Y-90100500D01*
X117700500Y-90100500D01*
X117767539Y-90120185D01*
G37*
%TD.AperFunction*%
%TD*%
%TA.AperFunction,NonConductor*%
G36*
X116436484Y-125298408D02*
G01*
X116500897Y-125325474D01*
X116540452Y-125383069D01*
X116546600Y-125421628D01*
X116546599Y-125839284D01*
X116526914Y-125906324D01*
X116474110Y-125952078D01*
X116404952Y-125962022D01*
X116341396Y-125932997D01*
X116317607Y-125905258D01*
X116281716Y-125848138D01*
X116227961Y-125794384D01*
X116194477Y-125733061D01*
X116198602Y-125665748D01*
X116228869Y-125579251D01*
X116248834Y-125402050D01*
X116275900Y-125337636D01*
X116333495Y-125298081D01*
X116385935Y-125292713D01*
X116436484Y-125298408D01*
G37*
%TD.AperFunction*%
%TA.AperFunction,NonConductor*%
G36*
X117395314Y-130013651D02*
G01*
X117437301Y-130041244D01*
X117809371Y-130413314D01*
X117842856Y-130474637D01*
X117837872Y-130544329D01*
X117826684Y-130566967D01*
X117774211Y-130650476D01*
X117714631Y-130820745D01*
X117714630Y-130820749D01*
X117710665Y-130855946D01*
X117683598Y-130920360D01*
X117626003Y-130959915D01*
X117556166Y-130962052D01*
X117525441Y-130949447D01*
X117519735Y-130946152D01*
X117379449Y-130888044D01*
X117379442Y-130888042D01*
X117370903Y-130886918D01*
X117307007Y-130858649D01*
X117268539Y-130800323D01*
X117267710Y-130730458D01*
X117270043Y-130723049D01*
X117285368Y-130679255D01*
X117287027Y-130664530D01*
X117305565Y-130500003D01*
X117305565Y-130499996D01*
X117285369Y-130320750D01*
X117285368Y-130320745D01*
X117232578Y-130169880D01*
X117229017Y-130100101D01*
X117263746Y-130039473D01*
X117325739Y-130007246D01*
X117395314Y-130013651D01*
G37*
%TD.AperFunction*%
M02*
