%TF.GenerationSoftware,KiCad,Pcbnew,7.0.5*%
%TF.CreationDate,2023-09-01T16:08:52-05:00*%
%TF.ProjectId,Chimera_0004_Aurora,4368696d-6572-4615-9f30-3030345f4175,rev?*%
%TF.SameCoordinates,Original*%
%TF.FileFunction,Copper,L4,Bot*%
%TF.FilePolarity,Positive*%
%FSLAX46Y46*%
G04 Gerber Fmt 4.6, Leading zero omitted, Abs format (unit mm)*
G04 Created by KiCad (PCBNEW 7.0.5) date 2023-09-01 16:08:52*
%MOMM*%
%LPD*%
G01*
G04 APERTURE LIST*
G04 Aperture macros list*
%AMRoundRect*
0 Rectangle with rounded corners*
0 $1 Rounding radius*
0 $2 $3 $4 $5 $6 $7 $8 $9 X,Y pos of 4 corners*
0 Add a 4 corners polygon primitive as box body*
4,1,4,$2,$3,$4,$5,$6,$7,$8,$9,$2,$3,0*
0 Add four circle primitives for the rounded corners*
1,1,$1+$1,$2,$3*
1,1,$1+$1,$4,$5*
1,1,$1+$1,$6,$7*
1,1,$1+$1,$8,$9*
0 Add four rect primitives between the rounded corners*
20,1,$1+$1,$2,$3,$4,$5,0*
20,1,$1+$1,$4,$5,$6,$7,0*
20,1,$1+$1,$6,$7,$8,$9,0*
20,1,$1+$1,$8,$9,$2,$3,0*%
G04 Aperture macros list end*
%TA.AperFunction,ConnectorPad*%
%ADD10C,6.400000*%
%TD*%
%TA.AperFunction,ComponentPad*%
%ADD11C,3.600000*%
%TD*%
%TA.AperFunction,SMDPad,CuDef*%
%ADD12RoundRect,0.140000X-0.140000X-0.170000X0.140000X-0.170000X0.140000X0.170000X-0.140000X0.170000X0*%
%TD*%
%TA.AperFunction,SMDPad,CuDef*%
%ADD13RoundRect,0.140000X0.140000X0.170000X-0.140000X0.170000X-0.140000X-0.170000X0.140000X-0.170000X0*%
%TD*%
%TA.AperFunction,SMDPad,CuDef*%
%ADD14R,0.350000X1.950000*%
%TD*%
%TA.AperFunction,ViaPad*%
%ADD15C,0.600000*%
%TD*%
%TA.AperFunction,Conductor*%
%ADD16C,0.152400*%
%TD*%
%TA.AperFunction,Conductor*%
%ADD17C,0.254000*%
%TD*%
G04 APERTURE END LIST*
D10*
%TO.P,H1,1*%
%TO.N,N/C*%
X112500000Y-149900000D03*
D11*
X112500000Y-149900000D03*
%TD*%
D12*
%TO.P,C70,2*%
%TO.N,+5V*%
X114480000Y-141600000D03*
%TO.P,C70,1*%
%TO.N,GND*%
X113520000Y-141600000D03*
%TD*%
%TO.P,C69,2*%
%TO.N,+5V*%
X117480000Y-141600000D03*
%TO.P,C69,1*%
%TO.N,GND*%
X116520000Y-141600000D03*
%TD*%
%TO.P,C66,1*%
%TO.N,GND*%
X122420000Y-141600000D03*
%TO.P,C66,2*%
%TO.N,+5V*%
X123380000Y-141600000D03*
%TD*%
%TO.P,C65,1*%
%TO.N,GND*%
X110520000Y-141600000D03*
%TO.P,C65,2*%
%TO.N,+5V*%
X111480000Y-141600000D03*
%TD*%
%TO.P,C63,1*%
%TO.N,GND*%
X119520000Y-141700000D03*
%TO.P,C63,2*%
%TO.N,+5V*%
X120480000Y-141700000D03*
%TD*%
%TO.P,C62,2*%
%TO.N,+5V*%
X123480000Y-120600000D03*
%TO.P,C62,1*%
%TO.N,GND*%
X122520000Y-120600000D03*
%TD*%
%TO.P,C61,2*%
%TO.N,+5V*%
X123380000Y-123600000D03*
%TO.P,C61,1*%
%TO.N,GND*%
X122420000Y-123600000D03*
%TD*%
%TO.P,C59,2*%
%TO.N,+5V*%
X123380000Y-126600000D03*
%TO.P,C59,1*%
%TO.N,GND*%
X122420000Y-126600000D03*
%TD*%
%TO.P,C58,1*%
%TO.N,GND*%
X122420000Y-129700000D03*
%TO.P,C58,2*%
%TO.N,+5V*%
X123380000Y-129700000D03*
%TD*%
%TO.P,C57,1*%
%TO.N,GND*%
X122620000Y-132600000D03*
%TO.P,C57,2*%
%TO.N,+5V*%
X123580000Y-132600000D03*
%TD*%
%TO.P,C55,1*%
%TO.N,GND*%
X122420000Y-135500000D03*
%TO.P,C55,2*%
%TO.N,+5V*%
X123380000Y-135500000D03*
%TD*%
%TO.P,C54,1*%
%TO.N,GND*%
X122420000Y-138600000D03*
%TO.P,C54,2*%
%TO.N,+5V*%
X123380000Y-138600000D03*
%TD*%
%TO.P,C53,1*%
%TO.N,GND*%
X119420000Y-120600000D03*
%TO.P,C53,2*%
%TO.N,+5V*%
X120380000Y-120600000D03*
%TD*%
%TO.P,C51,1*%
%TO.N,GND*%
X119550000Y-123600000D03*
%TO.P,C51,2*%
%TO.N,+5V*%
X120510000Y-123600000D03*
%TD*%
%TO.P,C50,2*%
%TO.N,+5V*%
X120510000Y-126600000D03*
%TO.P,C50,1*%
%TO.N,GND*%
X119550000Y-126600000D03*
%TD*%
%TO.P,C49,2*%
%TO.N,+5V*%
X120510000Y-129700000D03*
%TO.P,C49,1*%
%TO.N,GND*%
X119550000Y-129700000D03*
%TD*%
%TO.P,C48,2*%
%TO.N,+5V*%
X120400000Y-132600000D03*
%TO.P,C48,1*%
%TO.N,GND*%
X119440000Y-132600000D03*
%TD*%
%TO.P,C47,2*%
%TO.N,+5V*%
X120510000Y-135500000D03*
%TO.P,C47,1*%
%TO.N,GND*%
X119550000Y-135500000D03*
%TD*%
%TO.P,C46,2*%
%TO.N,+5V*%
X120480000Y-138600000D03*
%TO.P,C46,1*%
%TO.N,GND*%
X119520000Y-138600000D03*
%TD*%
%TO.P,C45,1*%
%TO.N,GND*%
X116520000Y-120600000D03*
%TO.P,C45,2*%
%TO.N,+5V*%
X117480000Y-120600000D03*
%TD*%
%TO.P,C44,1*%
%TO.N,GND*%
X116390000Y-123600000D03*
%TO.P,C44,2*%
%TO.N,+5V*%
X117350000Y-123600000D03*
%TD*%
%TO.P,C43,1*%
%TO.N,GND*%
X116420000Y-126600000D03*
%TO.P,C43,2*%
%TO.N,+5V*%
X117380000Y-126600000D03*
%TD*%
%TO.P,C42,2*%
%TO.N,+5V*%
X117280000Y-129700000D03*
%TO.P,C42,1*%
%TO.N,GND*%
X116320000Y-129700000D03*
%TD*%
%TO.P,C41,2*%
%TO.N,+5V*%
X117280000Y-132600000D03*
%TO.P,C41,1*%
%TO.N,GND*%
X116320000Y-132600000D03*
%TD*%
%TO.P,C40,2*%
%TO.N,+5V*%
X117380000Y-135600000D03*
%TO.P,C40,1*%
%TO.N,GND*%
X116420000Y-135600000D03*
%TD*%
%TO.P,C39,2*%
%TO.N,+5V*%
X117430000Y-138570000D03*
%TO.P,C39,1*%
%TO.N,GND*%
X116470000Y-138570000D03*
%TD*%
%TO.P,C38,1*%
%TO.N,GND*%
X113420000Y-120600000D03*
%TO.P,C38,2*%
%TO.N,+5V*%
X114380000Y-120600000D03*
%TD*%
%TO.P,C37,1*%
%TO.N,GND*%
X113520000Y-123600000D03*
%TO.P,C37,2*%
%TO.N,+5V*%
X114480000Y-123600000D03*
%TD*%
%TO.P,C36,1*%
%TO.N,GND*%
X113550000Y-126600000D03*
%TO.P,C36,2*%
%TO.N,+5V*%
X114510000Y-126600000D03*
%TD*%
%TO.P,C35,2*%
%TO.N,+5V*%
X114410000Y-129700000D03*
%TO.P,C35,1*%
%TO.N,GND*%
X113450000Y-129700000D03*
%TD*%
%TO.P,C34,2*%
%TO.N,+5V*%
X114410000Y-132600000D03*
%TO.P,C34,1*%
%TO.N,GND*%
X113450000Y-132600000D03*
%TD*%
%TO.P,C33,2*%
%TO.N,+5V*%
X114410000Y-135600000D03*
%TO.P,C33,1*%
%TO.N,GND*%
X113450000Y-135600000D03*
%TD*%
%TO.P,C32,2*%
%TO.N,+5V*%
X114480000Y-138570000D03*
%TO.P,C32,1*%
%TO.N,GND*%
X113520000Y-138570000D03*
%TD*%
%TO.P,C31,1*%
%TO.N,GND*%
X110520000Y-120600000D03*
%TO.P,C31,2*%
%TO.N,+5V*%
X111480000Y-120600000D03*
%TD*%
%TO.P,C30,1*%
%TO.N,GND*%
X110650000Y-123600000D03*
%TO.P,C30,2*%
%TO.N,+5V*%
X111610000Y-123600000D03*
%TD*%
%TO.P,C29,1*%
%TO.N,GND*%
X110680000Y-126600000D03*
%TO.P,C29,2*%
%TO.N,+5V*%
X111640000Y-126600000D03*
%TD*%
%TO.P,C28,2*%
%TO.N,+5V*%
X111540000Y-129700000D03*
%TO.P,C28,1*%
%TO.N,GND*%
X110580000Y-129700000D03*
%TD*%
%TO.P,C27,2*%
%TO.N,+5V*%
X111540000Y-132600000D03*
%TO.P,C27,1*%
%TO.N,GND*%
X110580000Y-132600000D03*
%TD*%
%TO.P,C26,2*%
%TO.N,+5V*%
X111540000Y-135600000D03*
%TO.P,C26,1*%
%TO.N,GND*%
X110580000Y-135600000D03*
%TD*%
%TO.P,C25,2*%
%TO.N,+5V*%
X111480000Y-138750000D03*
%TO.P,C25,1*%
%TO.N,GND*%
X110520000Y-138750000D03*
%TD*%
D13*
%TO.P,C7,1*%
%TO.N,GND*%
X102480000Y-138600000D03*
%TO.P,C7,2*%
%TO.N,+5V*%
X101520000Y-138600000D03*
%TD*%
%TO.P,C2,1*%
%TO.N,GND*%
X102480000Y-123600000D03*
%TO.P,C2,2*%
%TO.N,+5V*%
X101520000Y-123600000D03*
%TD*%
%TO.P,C4,1*%
%TO.N,GND*%
X102480000Y-129600000D03*
%TO.P,C4,2*%
%TO.N,+5V*%
X101520000Y-129600000D03*
%TD*%
%TO.P,C5,1*%
%TO.N,GND*%
X102480000Y-132600000D03*
%TO.P,C5,2*%
%TO.N,+5V*%
X101520000Y-132600000D03*
%TD*%
%TO.P,C6,1*%
%TO.N,GND*%
X102480000Y-135600000D03*
%TO.P,C6,2*%
%TO.N,+5V*%
X101520000Y-135600000D03*
%TD*%
%TO.P,C22,2*%
%TO.N,+5V*%
X107520000Y-135600000D03*
%TO.P,C22,1*%
%TO.N,GND*%
X108480000Y-135600000D03*
%TD*%
%TO.P,C10,2*%
%TO.N,+5V*%
X104520000Y-123600000D03*
%TO.P,C10,1*%
%TO.N,GND*%
X105480000Y-123600000D03*
%TD*%
%TO.P,C20,2*%
%TO.N,+5V*%
X107520000Y-129600000D03*
%TO.P,C20,1*%
%TO.N,GND*%
X108480000Y-129600000D03*
%TD*%
%TO.P,C1,1*%
%TO.N,GND*%
X102480000Y-120550000D03*
%TO.P,C1,2*%
%TO.N,+5V*%
X101520000Y-120550000D03*
%TD*%
%TO.P,C3,1*%
%TO.N,GND*%
X102480000Y-126600000D03*
%TO.P,C3,2*%
%TO.N,+5V*%
X101520000Y-126600000D03*
%TD*%
%TO.P,C9,2*%
%TO.N,+5V*%
X104520000Y-120550000D03*
%TO.P,C9,1*%
%TO.N,GND*%
X105480000Y-120550000D03*
%TD*%
%TO.P,C11,2*%
%TO.N,+5V*%
X104520000Y-126600000D03*
%TO.P,C11,1*%
%TO.N,GND*%
X105480000Y-126600000D03*
%TD*%
%TO.P,C12,2*%
%TO.N,+5V*%
X104475200Y-129600000D03*
%TO.P,C12,1*%
%TO.N,GND*%
X105435200Y-129600000D03*
%TD*%
%TO.P,C13,2*%
%TO.N,+5V*%
X104520000Y-132600000D03*
%TO.P,C13,1*%
%TO.N,GND*%
X105480000Y-132600000D03*
%TD*%
%TO.P,C14,2*%
%TO.N,+5V*%
X104475200Y-135600000D03*
%TO.P,C14,1*%
%TO.N,GND*%
X105435200Y-135600000D03*
%TD*%
%TO.P,C15,2*%
%TO.N,+5V*%
X104520000Y-138600000D03*
%TO.P,C15,1*%
%TO.N,GND*%
X105480000Y-138600000D03*
%TD*%
%TO.P,C17,2*%
%TO.N,+5V*%
X107520000Y-120550000D03*
%TO.P,C17,1*%
%TO.N,GND*%
X108480000Y-120550000D03*
%TD*%
%TO.P,C19,2*%
%TO.N,+5V*%
X107520000Y-126600000D03*
%TO.P,C19,1*%
%TO.N,GND*%
X108480000Y-126600000D03*
%TD*%
%TO.P,C18,2*%
%TO.N,+5V*%
X107520000Y-123600000D03*
%TO.P,C18,1*%
%TO.N,GND*%
X108480000Y-123600000D03*
%TD*%
%TO.P,C16,2*%
%TO.N,+5V*%
X104520000Y-141600000D03*
%TO.P,C16,1*%
%TO.N,GND*%
X105480000Y-141600000D03*
%TD*%
%TO.P,C21,2*%
%TO.N,+5V*%
X107520000Y-132600000D03*
%TO.P,C21,1*%
%TO.N,GND*%
X108480000Y-132600000D03*
%TD*%
%TO.P,C23,2*%
%TO.N,+5V*%
X107605200Y-138600000D03*
%TO.P,C23,1*%
%TO.N,GND*%
X108565200Y-138600000D03*
%TD*%
%TO.P,C8,1*%
%TO.N,GND*%
X102480000Y-141600000D03*
%TO.P,C8,2*%
%TO.N,+5V*%
X101520000Y-141600000D03*
%TD*%
%TO.P,C24,2*%
%TO.N,+5V*%
X107605200Y-141600000D03*
%TO.P,C24,1*%
%TO.N,GND*%
X108565200Y-141600000D03*
%TD*%
D14*
%TO.P,U2,2,1*%
%TO.N,Net-(CN1-1-Pad73)*%
X103500000Y-91425000D03*
%TO.P,U2,4,1*%
%TO.N,Net-(CN1-1-Pad71)*%
X104000000Y-91425000D03*
%TO.P,U2,6,1*%
%TO.N,Net-(CN1-1-Pad69)*%
X104500000Y-91425000D03*
%TO.P,U2,8,1*%
%TO.N,Net-(CN1-1-Pad67)*%
X105000000Y-91425000D03*
%TO.P,U2,10,1*%
%TO.N,Net-(CN1-1-Pad66)*%
X105500000Y-91425000D03*
%TO.P,U2,12,12*%
%TO.N,Net-(CN1-20-Pad63)*%
X106000000Y-91425000D03*
%TO.P,U2,14,14*%
%TO.N,Net-(CN1-20-Pad61)*%
X106500000Y-91425000D03*
%TO.P,U2,16,16*%
%TO.N,Net-(CN1-20-Pad59)*%
X107000000Y-91425000D03*
%TO.P,U2,18,18*%
%TO.N,Net-(CN1-20-Pad57)*%
X107500000Y-91425000D03*
%TO.P,U2,20,20*%
%TO.N,Net-(CN1-20-Pad55)*%
X108000000Y-91425000D03*
%TO.P,U2,22,20*%
%TO.N,Net-(CN1-20-Pad53)*%
X108500000Y-91425000D03*
%TO.P,U2,24,20*%
%TO.N,Net-(CN1-20-Pad51)*%
X109000000Y-91425000D03*
%TO.P,U2,26,20*%
%TO.N,Net-(CN1-20-Pad49)*%
X109500000Y-91425000D03*
%TO.P,U2,28,20*%
%TO.N,LED_DI*%
X110000000Y-91425000D03*
%TO.P,U2,30,20*%
%TO.N,Net-(CN1-20-Pad45)*%
X110500000Y-91425000D03*
%TO.P,U2,32,20*%
%TO.N,Net-(CN1-20-Pad43)*%
X111000000Y-91425000D03*
%TO.P,U2,34,20*%
%TO.N,Net-(CN1-20-Pad41)*%
X111500000Y-91425000D03*
%TO.P,U2,36,20*%
%TO.N,Net-(CN1-20-Pad39)*%
X112000000Y-91425000D03*
%TO.P,U2,38,20*%
%TO.N,Net-(CN1-20-Pad37)*%
X112500000Y-91425000D03*
%TO.P,U2,40,20*%
%TO.N,Net-(CN1-20-Pad35)*%
X113000000Y-91425000D03*
%TO.P,U2,42,20*%
%TO.N,Net-(CN1-20-Pad33)*%
X113500000Y-91425000D03*
%TO.P,U2,44,20*%
%TO.N,Net-(CN1-20-Pad31)*%
X114000000Y-91425000D03*
%TO.P,U2,46,20*%
%TO.N,Net-(CN1-20-Pad29)*%
X114500000Y-91425000D03*
%TO.P,U2,48,20*%
%TO.N,Net-(CN1-20-Pad27)*%
X115000000Y-91425000D03*
%TO.P,U2,50,20*%
%TO.N,Net-(CN1-20-Pad25)*%
X115500000Y-91425000D03*
%TO.P,U2,52,20*%
%TO.N,Net-(CN1-20-Pad23)*%
X116000000Y-91425000D03*
%TO.P,U2,54,20*%
%TO.N,Net-(CN1-20-Pad21)*%
X116500000Y-91425000D03*
%TO.P,U2,56,20*%
%TO.N,Net-(CN1-1-Pad11)*%
X117000000Y-91425000D03*
%TO.P,U2,58,20*%
%TO.N,Net-(CN1-1-Pad9)*%
X117500000Y-91425000D03*
%TO.P,U2,68,1*%
%TO.N,Net-(CN1-1-Pad7)*%
X120000000Y-91425000D03*
%TO.P,U2,70,1*%
%TO.N,Net-(CN1-1-Pad5)*%
X120500000Y-91425000D03*
%TO.P,U2,72,1*%
%TO.N,Net-(CN1-1-Pad3)*%
X121000000Y-91425000D03*
%TO.P,U2,74,1*%
%TO.N,+3V3*%
X121500000Y-91425000D03*
%TD*%
D15*
%TO.N,LED_DO*%
X122400000Y-144500000D03*
X110400000Y-100600000D03*
%TO.N,+5V*%
X117100000Y-105200000D03*
X117000000Y-107700000D03*
%TO.N,Net-(LED56-DO)*%
X121500000Y-142672900D03*
X123645300Y-119459600D03*
%TO.N,Net-(LED50-DO)*%
X119047200Y-139500000D03*
X120552900Y-121502800D03*
%TO.N,Net-(LED41-DO)*%
X115443500Y-125400000D03*
X112750000Y-144702800D03*
%TO.N,Net-(LED34-DO)*%
X115649000Y-131449900D03*
X118344000Y-132565000D03*
%TO.N,Net-(LED32-DO)*%
X109650000Y-142827700D03*
X114740700Y-119692500D03*
%TO.N,Net-(LED26-DO)*%
X107600000Y-142500000D03*
X111455800Y-119459600D03*
%TO.N,Net-(LED18-DO)*%
X106533300Y-143100000D03*
X107600000Y-121500000D03*
%TO.N,Net-(LED10-DO)*%
X103750600Y-119599400D03*
X101514200Y-144702800D03*
%TO.N,LED_DI*%
X110250000Y-104607100D03*
%TO.N,Net-(CN1-20-Pad31)*%
X114156000Y-97054400D03*
X114125000Y-92928000D03*
%TO.N,Net-(CN1-20-Pad29)*%
X114748000Y-96463100D03*
%TO.N,Net-(CN1-1-Pad9)*%
X119343000Y-99507100D03*
%TO.N,Net-(CN1-20-Pad63)*%
X105985000Y-93010900D03*
%TO.N,Net-(CN1-1-Pad7)*%
X120251000Y-99629000D03*
%TO.N,Net-(CN1-1-Pad67)*%
X105045000Y-97221400D03*
%TO.N,Net-(CN1-20-Pad61)*%
X106750000Y-103598000D03*
%TO.N,Net-(CN1-20-Pad59)*%
X107144000Y-97644100D03*
%TO.N,Net-(CN1-20-Pad57)*%
X107524000Y-96199400D03*
%TO.N,Net-(CN1-20-Pad55)*%
X108174000Y-100800000D03*
%TO.N,Net-(CN1-20-Pad53)*%
X108696500Y-99795501D03*
%TO.N,Net-(CN1-20-Pad51)*%
X109283500Y-100700000D03*
X109038000Y-92998700D03*
%TO.N,Net-(CN1-20-Pad49)*%
X109404000Y-96835300D03*
%TO.N,Net-(CN1-20-Pad45)*%
X110400000Y-98100000D03*
%TO.N,Net-(CN1-20-Pad43)*%
X110951000Y-103640000D03*
%TO.N,+3V3*%
X123100000Y-95900000D03*
%TO.N,Net-(CN1-20-Pad41)*%
X111635000Y-93248200D03*
X111556000Y-96746600D03*
X112109000Y-103629000D03*
%TO.N,Net-(CN1-1-Pad73)*%
X103768000Y-99155600D03*
%TO.N,Net-(CN1-1-Pad71)*%
X104045000Y-93369500D03*
%TO.N,Net-(CN1-1-Pad69)*%
X104817000Y-100573000D03*
%TO.N,Net-(CN1-20-Pad39)*%
X112085000Y-97876300D03*
%TO.N,Net-(CN1-1-Pad5)*%
X120831000Y-98800000D03*
%TO.N,Net-(CN1-20-Pad37)*%
X112519000Y-99831700D03*
%TO.N,Net-(CN1-20-Pad35)*%
X113250000Y-103607000D03*
%TO.N,Net-(CN1-20-Pad33)*%
X113453000Y-96299800D03*
%TO.N,Net-(CN1-1-Pad66)*%
X105453500Y-98100000D03*
%TO.N,Net-(CN1-20-Pad27)*%
X115250000Y-97947800D03*
%TO.N,Net-(CN1-20-Pad25)*%
X115631000Y-93269900D03*
%TO.N,Net-(CN1-20-Pad23)*%
X116306000Y-96281400D03*
%TO.N,Net-(CN1-20-Pad21)*%
X117612000Y-95617700D03*
%TO.N,Net-(CN1-1-Pad11)*%
X119196000Y-100500000D03*
%TO.N,Net-(CN1-1-Pad3)*%
X121900000Y-99200000D03*
%TO.N,+5V*%
X101305000Y-139500000D03*
X101353400Y-142500000D03*
X103500000Y-135743400D03*
X104450000Y-133500000D03*
X106450000Y-135556500D03*
X106450000Y-129652200D03*
X106605600Y-138414100D03*
X106450000Y-141454700D03*
X106450000Y-133313100D03*
X106666600Y-125971500D03*
X101491900Y-119459600D03*
X101355000Y-133500000D03*
X101355000Y-130500000D03*
X101355000Y-124500000D03*
X113700000Y-124500000D03*
X113700000Y-119459600D03*
X116500000Y-124500000D03*
X119650000Y-121500000D03*
X122598200Y-133500400D03*
X119999800Y-142500000D03*
X122648100Y-142500000D03*
X104560900Y-142500000D03*
X106450000Y-120667800D03*
X104612200Y-139490200D03*
X104450000Y-130500000D03*
X103500000Y-126784000D03*
X104450000Y-121500000D03*
X104450000Y-124500000D03*
X110198400Y-139512700D03*
X110200000Y-133500000D03*
X115350000Y-132495300D03*
X114410000Y-130464900D03*
X118344500Y-138546100D03*
X118331400Y-135743400D03*
X117280000Y-133470000D03*
X116500000Y-130500000D03*
X120480000Y-139465000D03*
X121331000Y-135743400D03*
X118500000Y-131000000D03*
X120510000Y-130480000D03*
X121314400Y-124754100D03*
X123380000Y-124466900D03*
X123480000Y-121465000D03*
X118338000Y-141499200D03*
X115350000Y-141454700D03*
X106647600Y-123337700D03*
X110450000Y-119678500D03*
X113450000Y-133470400D03*
X115651900Y-126350400D03*
X110450000Y-124471700D03*
X110450000Y-142468700D03*
X112650900Y-134881900D03*
X109650000Y-127189600D03*
X112500000Y-137200000D03*
X109650000Y-129398800D03*
X113450000Y-142473800D03*
X115655200Y-135824700D03*
X112649500Y-126784000D03*
X116450000Y-119684600D03*
X115668000Y-138667400D03*
X109549000Y-135093400D03*
X112669900Y-129708000D03*
X118496600Y-123817700D03*
X118499100Y-126588100D03*
X122450000Y-119681400D03*
X121622000Y-139320000D03*
X118501200Y-129389400D03*
X122269800Y-124500000D03*
X118683700Y-133400000D03*
X121655700Y-125978600D03*
X121669900Y-129708000D03*
X106668700Y-126811200D03*
%TO.N,GND*%
X102923000Y-94656200D03*
X122200000Y-95300000D03*
X102401600Y-139500000D03*
X102559200Y-142500000D03*
X106448900Y-137553700D03*
X105350000Y-133500000D03*
X109650000Y-137378400D03*
X108500000Y-130500000D03*
X108500000Y-142500000D03*
X108500000Y-133500000D03*
X102400000Y-121500000D03*
X102680300Y-133500000D03*
X102750000Y-130500000D03*
X114701200Y-121501200D03*
X117778100Y-121500000D03*
X123151900Y-130500000D03*
X105766500Y-142500000D03*
X109343700Y-123763600D03*
X108700000Y-121500000D03*
X105350000Y-130500000D03*
X105350000Y-121500000D03*
X105350000Y-124500000D03*
X110580000Y-130476200D03*
X112500000Y-138800000D03*
X112652800Y-135743400D03*
X112666200Y-132536400D03*
X115657500Y-127162500D03*
X116470000Y-139470000D03*
X115653300Y-135015200D03*
X116320000Y-133479900D03*
X115594500Y-129800500D03*
X121500000Y-141146000D03*
X118653300Y-134983600D03*
X121500000Y-133128900D03*
X119550000Y-130481200D03*
X119550000Y-124500000D03*
X121661000Y-126784000D03*
X121666200Y-123848800D03*
X121652300Y-120555000D03*
X116520000Y-142480000D03*
X112664000Y-141454700D03*
X105550000Y-139525000D03*
X106348100Y-128496200D03*
X102550000Y-124509200D03*
X103329000Y-128419000D03*
X109359200Y-125669100D03*
X103337600Y-137378400D03*
X112329100Y-122191000D03*
X112340100Y-140180000D03*
X114550000Y-133532800D03*
X118353900Y-128546200D03*
X112351900Y-125003000D03*
X111550000Y-142518400D03*
X115350000Y-137440600D03*
X118600000Y-131800000D03*
X112335200Y-128546200D03*
X114550000Y-139535100D03*
X118349500Y-134170600D03*
X112347200Y-131172900D03*
X114918800Y-124519400D03*
X114550000Y-142532900D03*
X118347900Y-137433900D03*
X115334700Y-128601700D03*
X118348900Y-140171200D03*
X117728100Y-124515000D03*
X117295400Y-144307400D03*
X121336100Y-122435300D03*
X121351900Y-140088600D03*
X120903000Y-144305800D03*
X123882700Y-139467000D03*
X121335200Y-128546200D03*
X122269800Y-121500000D03*
X121346900Y-131471200D03*
X123550000Y-144302100D03*
X121339500Y-137378400D03*
X108550000Y-139525000D03*
X109338600Y-128400900D03*
%TD*%
D16*
%TO.N,+5V*%
X123380000Y-124466900D02*
X122302900Y-124466900D01*
X122302900Y-124466900D02*
X122269800Y-124500000D01*
%TO.N,GND*%
X119400000Y-132600000D02*
X118600000Y-131800000D01*
X119440000Y-132600000D02*
X119400000Y-132600000D01*
D17*
%TO.N,Net-(CN1-20-Pad51)*%
X108846000Y-93191100D02*
X109038000Y-92998700D01*
X108846000Y-99046000D02*
X108846000Y-93191100D01*
X109283500Y-99483500D02*
X108846000Y-99046000D01*
X109283500Y-100700000D02*
X109283500Y-99483500D01*
%TO.N,Net-(CN1-20-Pad53)*%
X108500000Y-92655900D02*
X108500000Y-91425000D01*
X108463000Y-92692700D02*
X108500000Y-92655900D01*
X108463000Y-99562001D02*
X108463000Y-92692700D01*
X108696500Y-99795501D02*
X108463000Y-99562001D01*
%TO.N,LED_DI*%
X109840000Y-101160000D02*
X108900000Y-102100000D01*
X108900000Y-103257100D02*
X110250000Y-104607100D01*
X109800000Y-99647625D02*
X109840000Y-99687625D01*
X109840000Y-99687625D02*
X109840000Y-101160000D01*
X109800000Y-97450425D02*
X109800000Y-99647625D01*
X110000000Y-97250425D02*
X109800000Y-97450425D01*
X108900000Y-102100000D02*
X108900000Y-103257100D01*
X110000000Y-91425000D02*
X110000000Y-97250425D01*
%TO.N,Net-(CN1-20-Pad55)*%
X108000000Y-94355600D02*
X108000000Y-91425000D01*
X108080000Y-94435900D02*
X108000000Y-94355600D01*
X108174000Y-100800000D02*
X108080000Y-100706000D01*
X108080000Y-100706000D02*
X108080000Y-94435900D01*
D16*
%TO.N,+5V*%
X111540000Y-136240000D02*
X111540000Y-135600000D01*
X112500000Y-137200000D02*
X111540000Y-136240000D01*
%TO.N,GND*%
X119968900Y-133128900D02*
X121500000Y-133128900D01*
X119440000Y-132600000D02*
X119968900Y-133128900D01*
X121500000Y-133128900D02*
X122091100Y-133128900D01*
%TO.N,+5V*%
X112669900Y-130269900D02*
X112669900Y-129708000D01*
X112864900Y-130464900D02*
X112669900Y-130269900D01*
X114410000Y-130464900D02*
X112864900Y-130464900D01*
%TO.N,GND*%
X113290000Y-138800000D02*
X113520000Y-138570000D01*
X112500000Y-138800000D02*
X113290000Y-138800000D01*
%TO.N,+5V*%
X117280000Y-129720000D02*
X116500000Y-130500000D01*
X117280000Y-129700000D02*
X117280000Y-129720000D01*
X118800000Y-131000000D02*
X120400000Y-132600000D01*
X118500000Y-131000000D02*
X118800000Y-131000000D01*
D17*
%TO.N,Net-(CN1-1-Pad66)*%
X105430000Y-91495000D02*
X105500000Y-91425000D01*
X105599000Y-96253400D02*
X105430000Y-96084400D01*
X105430000Y-96084400D02*
X105430000Y-91495000D01*
X105599000Y-97954500D02*
X105599000Y-96253400D01*
X105453500Y-98100000D02*
X105599000Y-97954500D01*
%TO.N,Net-(CN1-20-Pad59)*%
X107100000Y-97600100D02*
X107144000Y-97644100D01*
X107100000Y-96558875D02*
X107100000Y-97600100D01*
X106970000Y-96428875D02*
X107100000Y-96558875D01*
X107238000Y-94562000D02*
X106970000Y-94830000D01*
X107238000Y-92932700D02*
X107238000Y-94562000D01*
X107000000Y-92694700D02*
X107238000Y-92932700D01*
X107000000Y-91425000D02*
X107000000Y-92694700D01*
X106970000Y-94830000D02*
X106970000Y-96428875D01*
%TO.N,Net-(CN1-20-Pad45)*%
X110500000Y-98000000D02*
X110500000Y-91425000D01*
X110400000Y-98100000D02*
X110500000Y-98000000D01*
%TO.N,+3V3*%
X123100000Y-95416525D02*
X121500000Y-93816525D01*
X123100000Y-95900000D02*
X123100000Y-95416525D01*
X121500000Y-93816525D02*
X121500000Y-91425000D01*
%TO.N,Net-(CN1-20-Pad31)*%
X114000000Y-92803000D02*
X114125000Y-92928000D01*
X114000000Y-91425000D02*
X114000000Y-92803000D01*
X114156000Y-92959100D02*
X114125000Y-92928000D01*
X114156000Y-97054400D02*
X114156000Y-92959100D01*
%TO.N,Net-(CN1-20-Pad29)*%
X114500000Y-92516800D02*
X114500000Y-91425000D01*
X114681000Y-92697700D02*
X114500000Y-92516800D01*
X114681000Y-96395600D02*
X114681000Y-92697700D01*
X114748000Y-96463100D02*
X114681000Y-96395600D01*
%TO.N,Net-(CN1-1-Pad9)*%
X117649000Y-91573700D02*
X117500000Y-91425000D01*
X117649000Y-93357400D02*
X117649000Y-91573700D01*
X118658000Y-94366900D02*
X117649000Y-93357400D01*
X118903000Y-94366900D02*
X118658000Y-94366900D01*
X119343000Y-94807000D02*
X118903000Y-94366900D01*
X119343000Y-99507100D02*
X119343000Y-94807000D01*
%TO.N,Net-(CN1-20-Pad63)*%
X106000000Y-92996300D02*
X106000000Y-91425000D01*
X105985000Y-93010900D02*
X106000000Y-92996300D01*
%TO.N,Net-(CN1-1-Pad7)*%
X120000000Y-99377800D02*
X120251000Y-99629000D01*
X120000000Y-91425000D02*
X120000000Y-99377800D01*
%TO.N,Net-(CN1-1-Pad67)*%
X105000000Y-97176300D02*
X105045000Y-97221400D01*
X105000000Y-91425000D02*
X105000000Y-97176300D01*
%TO.N,Net-(CN1-20-Pad61)*%
X106541000Y-103389000D02*
X106750000Y-103598000D01*
X106541000Y-92696800D02*
X106541000Y-103389000D01*
X106500000Y-92655900D02*
X106541000Y-92696800D01*
X106500000Y-91425000D02*
X106500000Y-92655900D01*
%TO.N,Net-(CN1-20-Pad57)*%
X107619000Y-96104700D02*
X107524000Y-96199400D01*
X107619000Y-92774900D02*
X107619000Y-96104700D01*
X107500000Y-92655900D02*
X107619000Y-92774900D01*
X107500000Y-91425000D02*
X107500000Y-92655900D01*
%TO.N,Net-(CN1-20-Pad51)*%
X109000000Y-92960200D02*
X109038000Y-92998700D01*
X109000000Y-91425000D02*
X109000000Y-92960200D01*
%TO.N,Net-(CN1-20-Pad49)*%
X109378000Y-96809500D02*
X109404000Y-96835300D01*
X109378000Y-95885400D02*
X109378000Y-96809500D01*
X109594000Y-95669500D02*
X109378000Y-95885400D01*
X109594000Y-92750300D02*
X109594000Y-95669500D01*
X109500000Y-92655900D02*
X109594000Y-92750300D01*
X109500000Y-91425000D02*
X109500000Y-92655900D01*
%TO.N,Net-(CN1-20-Pad43)*%
X111000000Y-103591000D02*
X111000000Y-91425000D01*
X110951000Y-103640000D02*
X111000000Y-103591000D01*
%TO.N,Net-(CN1-20-Pad41)*%
X111527000Y-93248200D02*
X111635000Y-93248200D01*
X111527000Y-103047000D02*
X111527000Y-96746600D01*
X112109000Y-103629000D02*
X111527000Y-103047000D01*
X111527000Y-93248200D02*
X111527000Y-96746600D01*
X111500000Y-92655900D02*
X111500000Y-91425000D01*
X111527000Y-92682900D02*
X111500000Y-92655900D01*
X111527000Y-93248200D02*
X111527000Y-92682900D01*
X111527000Y-96746600D02*
X111556000Y-96746600D01*
%TO.N,Net-(CN1-1-Pad73)*%
X103944000Y-98979500D02*
X103768000Y-99155600D01*
X103944000Y-94188300D02*
X103944000Y-98979500D01*
X103489000Y-93733200D02*
X103944000Y-94188300D01*
X103489000Y-92666500D02*
X103489000Y-93733200D01*
X103500000Y-92655900D02*
X103489000Y-92666500D01*
X103500000Y-91425000D02*
X103500000Y-92655900D01*
%TO.N,Net-(CN1-1-Pad71)*%
X104000000Y-93324200D02*
X104045000Y-93369500D01*
X104000000Y-91425000D02*
X104000000Y-93324200D01*
%TO.N,Net-(CN1-1-Pad69)*%
X104817000Y-98716600D02*
X104817000Y-100573000D01*
X104326000Y-98225500D02*
X104817000Y-98716600D01*
X104326000Y-94030500D02*
X104326000Y-98225500D01*
X104599000Y-93756700D02*
X104326000Y-94030500D01*
X104599000Y-93140000D02*
X104599000Y-93756700D01*
X104500000Y-93040700D02*
X104599000Y-93140000D01*
X104500000Y-91425000D02*
X104500000Y-93040700D01*
%TO.N,Net-(CN1-20-Pad39)*%
X112130000Y-97831300D02*
X112085000Y-97876300D01*
X112130000Y-95753600D02*
X112130000Y-97831300D01*
X112191000Y-95692400D02*
X112130000Y-95753600D01*
X112191000Y-92871500D02*
X112191000Y-95692400D01*
X112000000Y-92680400D02*
X112191000Y-92871500D01*
X112000000Y-91425000D02*
X112000000Y-92680400D01*
%TO.N,Net-(CN1-1-Pad5)*%
X120500000Y-98468700D02*
X120500000Y-91425000D01*
X120831000Y-98800000D02*
X120500000Y-98468700D01*
%TO.N,Net-(CN1-20-Pad37)*%
X112642000Y-99708700D02*
X112519000Y-99831700D01*
X112642000Y-97443200D02*
X112642000Y-99708700D01*
X112513000Y-97314400D02*
X112642000Y-97443200D01*
X112513000Y-95912200D02*
X112513000Y-97314400D01*
X112574000Y-95851000D02*
X112513000Y-95912200D01*
X112574000Y-92690600D02*
X112574000Y-95851000D01*
X112500000Y-92616600D02*
X112574000Y-92690600D01*
X112500000Y-91425000D02*
X112500000Y-92616600D01*
%TO.N,Net-(CN1-20-Pad35)*%
X113250000Y-97510100D02*
X113250000Y-103607000D01*
X112896000Y-97155800D02*
X113250000Y-97510100D01*
X112896000Y-96070800D02*
X112896000Y-97155800D01*
X113000000Y-95966500D02*
X112896000Y-96070800D01*
X113000000Y-91425000D02*
X113000000Y-95966500D01*
%TO.N,Net-(CN1-20-Pad33)*%
X113453000Y-92703100D02*
X113453000Y-96299800D01*
X113500000Y-92655900D02*
X113453000Y-92703100D01*
X113500000Y-91425000D02*
X113500000Y-92655900D01*
%TO.N,Net-(CN1-20-Pad27)*%
X115064000Y-91488800D02*
X115000000Y-91425000D01*
X115064000Y-94319900D02*
X115064000Y-91488800D01*
X115304000Y-94560500D02*
X115064000Y-94319900D01*
X115304000Y-97893200D02*
X115304000Y-94560500D01*
X115250000Y-97947800D02*
X115304000Y-97893200D01*
%TO.N,Net-(CN1-20-Pad25)*%
X115500000Y-93138500D02*
X115631000Y-93269900D01*
X115500000Y-91425000D02*
X115500000Y-93138500D01*
%TO.N,Net-(CN1-20-Pad23)*%
X116306000Y-92962000D02*
X116306000Y-96281400D01*
X116000000Y-92655900D02*
X116306000Y-92962000D01*
X116000000Y-91425000D02*
X116000000Y-92655900D01*
%TO.N,Net-(CN1-20-Pad21)*%
X117612000Y-94675000D02*
X117612000Y-95617700D01*
X116883000Y-93946000D02*
X117612000Y-94675000D01*
X116883000Y-92980600D02*
X116883000Y-93946000D01*
X116500000Y-92597700D02*
X116883000Y-92980600D01*
X116500000Y-91425000D02*
X116500000Y-92597700D01*
%TO.N,Net-(CN1-1-Pad11)*%
X117000000Y-92556200D02*
X117000000Y-91425000D01*
X117266000Y-92822000D02*
X117000000Y-92556200D01*
X117266000Y-93565800D02*
X117266000Y-92822000D01*
X118166000Y-94465900D02*
X117266000Y-93565800D01*
X118166000Y-99469600D02*
X118166000Y-94465900D01*
X119196000Y-100500000D02*
X118166000Y-99469600D01*
%TO.N,Net-(CN1-1-Pad3)*%
X121000000Y-94862900D02*
X121000000Y-91425000D01*
X121390000Y-95252900D02*
X121000000Y-94862900D01*
X121390000Y-98690000D02*
X121390000Y-95252900D01*
X121900000Y-99200000D02*
X121390000Y-98690000D01*
D16*
%TO.N,+5V*%
X101305000Y-138815000D02*
X101305000Y-139500000D01*
X101520000Y-138600000D02*
X101305000Y-138815000D01*
X103643400Y-135600000D02*
X103500000Y-135743400D01*
X104475200Y-135600000D02*
X103643400Y-135600000D01*
X104520000Y-133430000D02*
X104450000Y-133500000D01*
X104520000Y-132600000D02*
X104520000Y-133430000D01*
X106493500Y-135600000D02*
X106450000Y-135556500D01*
X107520000Y-135600000D02*
X106493500Y-135600000D01*
X106502200Y-129600000D02*
X106450000Y-129652200D01*
X107520000Y-129600000D02*
X106502200Y-129600000D01*
X106791500Y-138600000D02*
X106605600Y-138414100D01*
X107605200Y-138600000D02*
X106791500Y-138600000D01*
X106595300Y-141600000D02*
X106450000Y-141454700D01*
X107605200Y-141600000D02*
X106595300Y-141600000D01*
X107163100Y-132600000D02*
X106450000Y-133313100D01*
X107520000Y-132600000D02*
X107163100Y-132600000D01*
X101520000Y-129600000D02*
X101520000Y-126600000D01*
X101520000Y-119487700D02*
X101520000Y-120550000D01*
X101491900Y-119459600D02*
X101520000Y-119487700D01*
X102073000Y-136153000D02*
X101520000Y-135600000D01*
X103090400Y-136153000D02*
X102073000Y-136153000D01*
X103500000Y-135743400D02*
X103090400Y-136153000D01*
X101520000Y-133335000D02*
X101520000Y-132600000D01*
X101355000Y-133500000D02*
X101520000Y-133335000D01*
X101520000Y-130335000D02*
X101520000Y-129600000D01*
X101355000Y-130500000D02*
X101520000Y-130335000D01*
X101520000Y-124335000D02*
X101520000Y-123600000D01*
X101355000Y-124500000D02*
X101520000Y-124335000D01*
X111610000Y-120730000D02*
X111610000Y-123600000D01*
X111480000Y-120600000D02*
X111610000Y-120730000D01*
X111640000Y-123630000D02*
X111640000Y-124160300D01*
X111610000Y-123600000D02*
X111640000Y-123630000D01*
X111640000Y-124160300D02*
X111640000Y-126600000D01*
X114510000Y-125310000D02*
X114510000Y-126600000D01*
X113700000Y-124500000D02*
X114510000Y-125310000D01*
X113700000Y-124160300D02*
X113700000Y-124500000D01*
X113919700Y-124160300D02*
X113700000Y-124160300D01*
X114480000Y-123600000D02*
X113919700Y-124160300D01*
X113700000Y-124160300D02*
X111640000Y-124160300D01*
X114380000Y-120139600D02*
X114380000Y-120600000D01*
X113700000Y-119459600D02*
X114380000Y-120139600D01*
X120380000Y-120770000D02*
X120380000Y-120600000D01*
X119650000Y-121500000D02*
X120380000Y-120770000D01*
X117273000Y-123523000D02*
X117350000Y-123600000D01*
X117273000Y-120807000D02*
X117273000Y-123523000D01*
X117480000Y-120600000D02*
X117273000Y-120807000D01*
X123380000Y-141600000D02*
X123380000Y-138600000D01*
X123380000Y-134109700D02*
X123380000Y-135500000D01*
X123580000Y-133909700D02*
X123580000Y-132600000D01*
X123380000Y-134109700D02*
X123580000Y-133909700D01*
X123657000Y-129977000D02*
X123380000Y-129700000D01*
X123657000Y-132523000D02*
X123657000Y-129977000D01*
X123580000Y-132600000D02*
X123657000Y-132523000D01*
X120480000Y-142019800D02*
X120480000Y-141700000D01*
X119999800Y-142500000D02*
X120480000Y-142019800D01*
X123380000Y-141768100D02*
X123380000Y-141600000D01*
X122648100Y-142500000D02*
X123380000Y-141768100D01*
X104520000Y-142459100D02*
X104520000Y-141600000D01*
X104560900Y-142500000D02*
X104520000Y-142459100D01*
X107402200Y-120667800D02*
X107520000Y-120550000D01*
X106450000Y-120667800D02*
X107402200Y-120667800D01*
X104475200Y-130474800D02*
X104475200Y-129600000D01*
X104450000Y-130500000D02*
X104475200Y-130474800D01*
X104336000Y-126784000D02*
X104520000Y-126600000D01*
X103500000Y-126784000D02*
X104336000Y-126784000D01*
X104520000Y-121430000D02*
X104520000Y-120550000D01*
X104450000Y-121500000D02*
X104520000Y-121430000D01*
X104520000Y-124430000D02*
X104520000Y-123600000D01*
X104450000Y-124500000D02*
X104520000Y-124430000D01*
X111480000Y-138750000D02*
X111480000Y-139512700D01*
X111480000Y-139512700D02*
X111480000Y-141600000D01*
X110200000Y-133500000D02*
X111540000Y-133500000D01*
X111540000Y-133500000D02*
X111540000Y-132600000D01*
X111540000Y-132600000D02*
X111540000Y-129700000D01*
X114480000Y-135670000D02*
X114480000Y-138570000D01*
X114410000Y-135600000D02*
X114480000Y-135670000D01*
X113868800Y-135058800D02*
X114410000Y-135600000D01*
X111540000Y-135058800D02*
X113868800Y-135058800D01*
X111540000Y-133500000D02*
X111540000Y-135058800D01*
X111540000Y-135058800D02*
X111540000Y-135600000D01*
X114514700Y-132495300D02*
X114410000Y-132600000D01*
X115350000Y-132495300D02*
X114514700Y-132495300D01*
X114410000Y-129700000D02*
X114410000Y-130464900D01*
X117453900Y-138546100D02*
X117430000Y-138570000D01*
X118344500Y-138546100D02*
X117453900Y-138546100D01*
X117523400Y-135743400D02*
X117380000Y-135600000D01*
X118331400Y-135743400D02*
X117523400Y-135743400D01*
X117280000Y-133470000D02*
X117280000Y-132600000D01*
X120480000Y-138600000D02*
X120480000Y-139465000D01*
X120753400Y-135743400D02*
X120510000Y-135500000D01*
X121331000Y-135743400D02*
X120753400Y-135743400D01*
X120510000Y-129700000D02*
X120510000Y-130480000D01*
X120510000Y-126600000D02*
X120510000Y-124754100D01*
X120510000Y-124754100D02*
X120510000Y-123600000D01*
X120510000Y-124754100D02*
X121314400Y-124754100D01*
X121534100Y-124754100D02*
X123380000Y-126600000D01*
X121314400Y-124754100D02*
X121534100Y-124754100D01*
X123380000Y-123600000D02*
X123380000Y-124466900D01*
X117580800Y-141499200D02*
X117480000Y-141600000D01*
X118338000Y-141499200D02*
X117580800Y-141499200D01*
X114625300Y-141454700D02*
X114480000Y-141600000D01*
X115350000Y-141454700D02*
X114625300Y-141454700D01*
X107022500Y-126102500D02*
X107022500Y-125971500D01*
X107520000Y-126600000D02*
X107022500Y-126102500D01*
X107022500Y-124097500D02*
X107520000Y-123600000D01*
X107022500Y-125971500D02*
X107022500Y-124097500D01*
X104520000Y-139398000D02*
X104612200Y-139490200D01*
X104520000Y-138600000D02*
X104520000Y-139398000D01*
X101353400Y-141766600D02*
X101353400Y-142500000D01*
X101520000Y-141600000D02*
X101353400Y-141766600D01*
X116500000Y-124500000D02*
X117223000Y-124500000D01*
X117223000Y-123727000D02*
X117223000Y-124500000D01*
X117350000Y-123600000D02*
X117223000Y-123727000D01*
X117223000Y-126443000D02*
X117380000Y-126600000D01*
X117223000Y-124500000D02*
X117223000Y-126443000D01*
X123207500Y-134109700D02*
X122598200Y-133500400D01*
X123380000Y-134109700D02*
X123207500Y-134109700D01*
X123480000Y-120600000D02*
X123480000Y-121465000D01*
X107022500Y-125971500D02*
X106666600Y-125971500D01*
X111480000Y-139512700D02*
X110198400Y-139512700D01*
%TO.N,GND*%
X102480000Y-142420800D02*
X102559200Y-142500000D01*
X102480000Y-141600000D02*
X102480000Y-142420800D01*
X105350000Y-132730000D02*
X105350000Y-133500000D01*
X105480000Y-132600000D02*
X105350000Y-132730000D01*
X108480000Y-130480000D02*
X108480000Y-129600000D01*
X108500000Y-130500000D02*
X108480000Y-130480000D01*
X102480000Y-129600000D02*
X102480000Y-126600000D01*
X102680300Y-133500000D02*
X102480000Y-133500000D01*
X102480000Y-132600000D02*
X102480000Y-133500000D01*
X102480000Y-133500000D02*
X102480000Y-135600000D01*
X102480000Y-130230000D02*
X102480000Y-129600000D01*
X102750000Y-130500000D02*
X102480000Y-130230000D01*
X102480000Y-121420000D02*
X102480000Y-120550000D01*
X102400000Y-121500000D02*
X102480000Y-121420000D01*
X102480000Y-121580000D02*
X102480000Y-123600000D01*
X102400000Y-121500000D02*
X102480000Y-121580000D01*
X108480000Y-126600000D02*
X110680000Y-126600000D01*
X108480000Y-123600000D02*
X110650000Y-123600000D01*
X110470000Y-120550000D02*
X110520000Y-120600000D01*
X108480000Y-120550000D02*
X110470000Y-120550000D01*
X115874400Y-123084400D02*
X113520000Y-123084400D01*
X116390000Y-123600000D02*
X115874400Y-123084400D01*
X113520000Y-123084400D02*
X113520000Y-123600000D01*
X113550000Y-129600000D02*
X113550000Y-127162500D01*
X113450000Y-129700000D02*
X113550000Y-129600000D01*
X113550000Y-127162500D02*
X113550000Y-126600000D01*
X113520000Y-120700000D02*
X113520000Y-121500000D01*
X113420000Y-120600000D02*
X113520000Y-120700000D01*
X113520000Y-121500000D02*
X113520000Y-123084400D01*
X118678100Y-120600000D02*
X119420000Y-120600000D01*
X117778100Y-121500000D02*
X118678100Y-120600000D01*
X122620000Y-132600000D02*
X122091100Y-133128900D01*
X122091100Y-135171100D02*
X122420000Y-135500000D01*
X122091100Y-133128900D02*
X122091100Y-135171100D01*
X122420000Y-129768100D02*
X122420000Y-129700000D01*
X123151900Y-130500000D02*
X122420000Y-129768100D01*
X122420000Y-141600000D02*
X122420000Y-141146000D01*
X122420000Y-141146000D02*
X122420000Y-138600000D01*
X108500000Y-141665200D02*
X108565200Y-141600000D01*
X108500000Y-142500000D02*
X108500000Y-141665200D01*
X108565200Y-141600000D02*
X110520000Y-141600000D01*
X120074000Y-141146000D02*
X119520000Y-141700000D01*
X105480000Y-142213500D02*
X105480000Y-141600000D01*
X105766500Y-142500000D02*
X105480000Y-142213500D01*
X108480000Y-121280000D02*
X108480000Y-120550000D01*
X108700000Y-121500000D02*
X108480000Y-121280000D01*
X105435200Y-133585200D02*
X105435200Y-135600000D01*
X105350000Y-133500000D02*
X105435200Y-133585200D01*
X105435200Y-130414800D02*
X105435200Y-129600000D01*
X105350000Y-130500000D02*
X105435200Y-130414800D01*
X105480000Y-121370000D02*
X105480000Y-120550000D01*
X105350000Y-121500000D02*
X105480000Y-121370000D01*
X105350000Y-124500000D02*
X105480000Y-124500000D01*
X105480000Y-123600000D02*
X105480000Y-124500000D01*
X105480000Y-124500000D02*
X105480000Y-126600000D01*
X109107600Y-138057600D02*
X109650000Y-138057600D01*
X108565200Y-138600000D02*
X109107600Y-138057600D01*
X109827600Y-138057600D02*
X110520000Y-138750000D01*
X109650000Y-138057600D02*
X109827600Y-138057600D01*
X109650000Y-138057600D02*
X109650000Y-137378400D01*
X109650000Y-137378400D02*
X109650000Y-135600000D01*
X110580000Y-135600000D02*
X109650000Y-135600000D01*
X109650000Y-135600000D02*
X108480000Y-135600000D01*
X108500000Y-132610000D02*
X108500000Y-133500000D01*
X108490000Y-132610000D02*
X108500000Y-132610000D01*
X108480000Y-132600000D02*
X108490000Y-132610000D01*
X110570000Y-132610000D02*
X110580000Y-132600000D01*
X108500000Y-132610000D02*
X110570000Y-132610000D01*
X110580000Y-129700000D02*
X110580000Y-130476200D01*
X113386400Y-132536400D02*
X113450000Y-132600000D01*
X112666200Y-132536400D02*
X113386400Y-132536400D01*
X113550000Y-127162500D02*
X115657500Y-127162500D01*
X115857500Y-127162500D02*
X116420000Y-126600000D01*
X115657500Y-127162500D02*
X115857500Y-127162500D01*
X116470000Y-139470000D02*
X116470000Y-138570000D01*
X115835200Y-135015200D02*
X116420000Y-135600000D01*
X115653300Y-135015200D02*
X115835200Y-135015200D01*
X116320000Y-132600000D02*
X116320000Y-133479900D01*
X116219500Y-129800500D02*
X116320000Y-129700000D01*
X115594500Y-129800500D02*
X116219500Y-129800500D01*
X122420000Y-141146000D02*
X121500000Y-141146000D01*
X121500000Y-141146000D02*
X120074000Y-141146000D01*
X119033600Y-134983600D02*
X119550000Y-135500000D01*
X118653300Y-134983600D02*
X119033600Y-134983600D01*
X119550000Y-129700000D02*
X119550000Y-130481200D01*
X119550000Y-126600000D02*
X119550000Y-124500000D01*
X119550000Y-124500000D02*
X119550000Y-123600000D01*
X122475000Y-120555000D02*
X122520000Y-120600000D01*
X121652300Y-120555000D02*
X122475000Y-120555000D01*
X116520000Y-142480000D02*
X116520000Y-141600000D01*
X113374700Y-141454700D02*
X113520000Y-141600000D01*
X112664000Y-141454700D02*
X113374700Y-141454700D01*
X108940000Y-124060000D02*
X108480000Y-123600000D01*
X108480000Y-124520000D02*
X108940000Y-124060000D01*
X108480000Y-126600000D02*
X108480000Y-124520000D01*
X102480000Y-139421600D02*
X102401600Y-139500000D01*
X102480000Y-138600000D02*
X102480000Y-139421600D01*
X109236400Y-123763600D02*
X109343700Y-123763600D01*
X108940000Y-124060000D02*
X109236400Y-123763600D01*
X113306600Y-135743400D02*
X113450000Y-135600000D01*
X112652800Y-135743400D02*
X113306600Y-135743400D01*
X119552300Y-138632300D02*
X119520000Y-138600000D01*
X119552300Y-140624300D02*
X119552300Y-138632300D01*
X120074000Y-141146000D02*
X119552300Y-140624300D01*
X122171200Y-123848800D02*
X121666200Y-123848800D01*
X122420000Y-123600000D02*
X122171200Y-123848800D01*
X122236000Y-126784000D02*
X121661000Y-126784000D01*
X122420000Y-126600000D02*
X122236000Y-126784000D01*
X106448900Y-137631100D02*
X106448900Y-137553700D01*
X105480000Y-138600000D02*
X106448900Y-137631100D01*
X114701200Y-121500000D02*
X114701200Y-121501200D01*
X113520000Y-121500000D02*
X114701200Y-121500000D01*
X115620000Y-121500000D02*
X116520000Y-120600000D01*
X114701200Y-121500000D02*
X115620000Y-121500000D01*
%TD*%
M02*
