%TF.GenerationSoftware,KiCad,Pcbnew,7.0.5*%
%TF.CreationDate,2023-09-01T16:08:52-05:00*%
%TF.ProjectId,Chimera_0004_Aurora,4368696d-6572-4615-9f30-3030345f4175,rev?*%
%TF.SameCoordinates,Original*%
%TF.FileFunction,Copper,L3,Inr*%
%TF.FilePolarity,Positive*%
%FSLAX46Y46*%
G04 Gerber Fmt 4.6, Leading zero omitted, Abs format (unit mm)*
G04 Created by KiCad (PCBNEW 7.0.5) date 2023-09-01 16:08:52*
%MOMM*%
%LPD*%
G01*
G04 APERTURE LIST*
%TA.AperFunction,ComponentPad*%
%ADD10C,3.600000*%
%TD*%
%TA.AperFunction,ViaPad*%
%ADD11C,0.600000*%
%TD*%
%TA.AperFunction,Conductor*%
%ADD12C,0.152400*%
%TD*%
G04 APERTURE END LIST*
D10*
%TO.N,N/C*%
%TO.C,H1*%
X112500000Y-149900000D03*
%TD*%
D11*
%TO.N,LED_DO*%
X122400000Y-144500000D03*
X110400000Y-100600000D03*
%TO.N,+5V*%
X117100000Y-105200000D03*
X117000000Y-107700000D03*
%TO.N,Net-(LED56-DO)*%
X121500000Y-142672900D03*
X123645300Y-119459600D03*
%TO.N,Net-(LED50-DO)*%
X119047200Y-139500000D03*
X120552900Y-121502800D03*
%TO.N,Net-(LED41-DO)*%
X115443500Y-125400000D03*
X112750000Y-144702800D03*
%TO.N,Net-(LED34-DO)*%
X115649000Y-131449900D03*
X118344000Y-132565000D03*
%TO.N,Net-(LED32-DO)*%
X109650000Y-142827700D03*
X114740700Y-119692500D03*
%TO.N,Net-(LED26-DO)*%
X107600000Y-142500000D03*
X111455800Y-119459600D03*
%TO.N,Net-(LED18-DO)*%
X106533300Y-143100000D03*
X107600000Y-121500000D03*
%TO.N,Net-(LED10-DO)*%
X103750600Y-119599400D03*
X101514200Y-144702800D03*
%TO.N,LED_DI*%
X110250000Y-104607100D03*
%TO.N,Net-(CN1-20-Pad31)*%
X114156000Y-97054400D03*
X114125000Y-92928000D03*
%TO.N,Net-(CN1-20-Pad29)*%
X114748000Y-96463100D03*
%TO.N,Net-(CN1-1-Pad9)*%
X119343000Y-99507100D03*
%TO.N,Net-(CN1-20-Pad63)*%
X105985000Y-93010900D03*
%TO.N,Net-(CN1-1-Pad7)*%
X120251000Y-99629000D03*
%TO.N,Net-(CN1-1-Pad67)*%
X105045000Y-97221400D03*
%TO.N,Net-(CN1-20-Pad61)*%
X106750000Y-103598000D03*
%TO.N,Net-(CN1-20-Pad59)*%
X107144000Y-97644100D03*
%TO.N,Net-(CN1-20-Pad57)*%
X107524000Y-96199400D03*
%TO.N,Net-(CN1-20-Pad55)*%
X108174000Y-100800000D03*
%TO.N,Net-(CN1-20-Pad53)*%
X108696500Y-99795501D03*
%TO.N,Net-(CN1-20-Pad51)*%
X109283500Y-100700000D03*
X109038000Y-92998700D03*
%TO.N,Net-(CN1-20-Pad49)*%
X109404000Y-96835300D03*
%TO.N,Net-(CN1-20-Pad45)*%
X110400000Y-98100000D03*
%TO.N,Net-(CN1-20-Pad43)*%
X110951000Y-103640000D03*
%TO.N,+3V3*%
X123100000Y-95900000D03*
%TO.N,Net-(CN1-20-Pad41)*%
X111635000Y-93248200D03*
X111556000Y-96746600D03*
X112109000Y-103629000D03*
%TO.N,Net-(CN1-1-Pad73)*%
X103768000Y-99155600D03*
%TO.N,Net-(CN1-1-Pad71)*%
X104045000Y-93369500D03*
%TO.N,Net-(CN1-1-Pad69)*%
X104817000Y-100573000D03*
%TO.N,Net-(CN1-20-Pad39)*%
X112085000Y-97876300D03*
%TO.N,Net-(CN1-1-Pad5)*%
X120831000Y-98800000D03*
%TO.N,Net-(CN1-20-Pad37)*%
X112519000Y-99831700D03*
%TO.N,Net-(CN1-20-Pad35)*%
X113250000Y-103607000D03*
%TO.N,Net-(CN1-20-Pad33)*%
X113453000Y-96299800D03*
%TO.N,Net-(CN1-1-Pad66)*%
X105453500Y-98100000D03*
%TO.N,Net-(CN1-20-Pad27)*%
X115250000Y-97947800D03*
%TO.N,Net-(CN1-20-Pad25)*%
X115631000Y-93269900D03*
%TO.N,Net-(CN1-20-Pad23)*%
X116306000Y-96281400D03*
%TO.N,Net-(CN1-20-Pad21)*%
X117612000Y-95617700D03*
%TO.N,Net-(CN1-1-Pad11)*%
X119196000Y-100500000D03*
%TO.N,Net-(CN1-1-Pad3)*%
X121900000Y-99200000D03*
%TO.N,+5V*%
X101305000Y-139500000D03*
X101353400Y-142500000D03*
X103500000Y-135743400D03*
X104450000Y-133500000D03*
X106450000Y-135556500D03*
X106450000Y-129652200D03*
X106605600Y-138414100D03*
X106450000Y-141454700D03*
X106450000Y-133313100D03*
X106666600Y-125971500D03*
X101491900Y-119459600D03*
X101355000Y-133500000D03*
X101355000Y-130500000D03*
X101355000Y-124500000D03*
X113700000Y-124500000D03*
X113700000Y-119459600D03*
X116500000Y-124500000D03*
X119650000Y-121500000D03*
X122598200Y-133500400D03*
X119999800Y-142500000D03*
X122648100Y-142500000D03*
X104560900Y-142500000D03*
X106450000Y-120667800D03*
X104612200Y-139490200D03*
X104450000Y-130500000D03*
X103500000Y-126784000D03*
X104450000Y-121500000D03*
X104450000Y-124500000D03*
X110198400Y-139512700D03*
X110200000Y-133500000D03*
X115350000Y-132495300D03*
X114410000Y-130464900D03*
X118344500Y-138546100D03*
X118331400Y-135743400D03*
X117280000Y-133470000D03*
X116500000Y-130500000D03*
X120480000Y-139465000D03*
X121331000Y-135743400D03*
X118500000Y-131000000D03*
X120510000Y-130480000D03*
X121314400Y-124754100D03*
X123380000Y-124466900D03*
X123480000Y-121465000D03*
X118338000Y-141499200D03*
X115350000Y-141454700D03*
X106647600Y-123337700D03*
X110450000Y-119678500D03*
X113450000Y-133470400D03*
X115651900Y-126350400D03*
X110450000Y-124471700D03*
X110450000Y-142468700D03*
X112650900Y-134881900D03*
X109650000Y-127189600D03*
X112500000Y-137200000D03*
X109650000Y-129398800D03*
X113450000Y-142473800D03*
X115655200Y-135824700D03*
X112649500Y-126784000D03*
X116450000Y-119684600D03*
X115668000Y-138667400D03*
X109549000Y-135093400D03*
X112669900Y-129708000D03*
X118496600Y-123817700D03*
X118499100Y-126588100D03*
X122450000Y-119681400D03*
X121622000Y-139320000D03*
X118501200Y-129389400D03*
X122269800Y-124500000D03*
X118683700Y-133400000D03*
X121655700Y-125978600D03*
X121669900Y-129708000D03*
X106668700Y-126811200D03*
%TO.N,GND*%
X102923000Y-94656200D03*
X122200000Y-95300000D03*
X102401600Y-139500000D03*
X102559200Y-142500000D03*
X106448900Y-137553700D03*
X105350000Y-133500000D03*
X109650000Y-137378400D03*
X108500000Y-130500000D03*
X108500000Y-142500000D03*
X108500000Y-133500000D03*
X102400000Y-121500000D03*
X102680300Y-133500000D03*
X102750000Y-130500000D03*
X114701200Y-121501200D03*
X117778100Y-121500000D03*
X123151900Y-130500000D03*
X105766500Y-142500000D03*
X109343700Y-123763600D03*
X108700000Y-121500000D03*
X105350000Y-130500000D03*
X105350000Y-121500000D03*
X105350000Y-124500000D03*
X110580000Y-130476200D03*
X112500000Y-138800000D03*
X112652800Y-135743400D03*
X112666200Y-132536400D03*
X115657500Y-127162500D03*
X116470000Y-139470000D03*
X115653300Y-135015200D03*
X116320000Y-133479900D03*
X115594500Y-129800500D03*
X121500000Y-141146000D03*
X118653300Y-134983600D03*
X121500000Y-133128900D03*
X119550000Y-130481200D03*
X119550000Y-124500000D03*
X121661000Y-126784000D03*
X121666200Y-123848800D03*
X121652300Y-120555000D03*
X116520000Y-142480000D03*
X112664000Y-141454700D03*
X105550000Y-139525000D03*
X106348100Y-128496200D03*
X102550000Y-124509200D03*
X103329000Y-128419000D03*
X109359200Y-125669100D03*
X103337600Y-137378400D03*
X112329100Y-122191000D03*
X112340100Y-140180000D03*
X114550000Y-133532800D03*
X118353900Y-128546200D03*
X112351900Y-125003000D03*
X111550000Y-142518400D03*
X115350000Y-137440600D03*
X118600000Y-131800000D03*
X112335200Y-128546200D03*
X114550000Y-139535100D03*
X118349500Y-134170600D03*
X112347200Y-131172900D03*
X114918800Y-124519400D03*
X114550000Y-142532900D03*
X118347900Y-137433900D03*
X115334700Y-128601700D03*
X118348900Y-140171200D03*
X117728100Y-124515000D03*
X117295400Y-144307400D03*
X121336100Y-122435300D03*
X121351900Y-140088600D03*
X120903000Y-144305800D03*
X123882700Y-139467000D03*
X121335200Y-128546200D03*
X122269800Y-121500000D03*
X121346900Y-131471200D03*
X123550000Y-144302100D03*
X121339500Y-137378400D03*
X108550000Y-139525000D03*
X109338600Y-128400900D03*
%TD*%
D12*
%TO.N,Net-(LED18-DO)*%
X107208400Y-121891600D02*
X107600000Y-121500000D01*
X107208400Y-142179967D02*
X107208400Y-121891600D01*
X106533300Y-143100000D02*
X106533300Y-142855067D01*
X106533300Y-142855067D02*
X107208400Y-142179967D01*
%TO.N,Net-(LED41-DO)*%
X114000000Y-143452800D02*
X112750000Y-144702800D01*
X114000000Y-131014900D02*
X114000000Y-143452800D01*
X113886500Y-130901400D02*
X114000000Y-131014900D01*
X113886500Y-126957000D02*
X113886500Y-130901400D01*
X115443500Y-125400000D02*
X113886500Y-126957000D01*
%TO.N,Net-(LED56-DO)*%
X122774900Y-120330000D02*
X123645300Y-119459600D01*
X122774900Y-129392900D02*
X122774900Y-120330000D01*
X122092500Y-130075300D02*
X122774900Y-129392900D01*
X122092500Y-139076100D02*
X122092500Y-130075300D01*
X122127100Y-139110700D02*
X122092500Y-139076100D01*
X122127100Y-142045800D02*
X122127100Y-139110700D01*
X121500000Y-142672900D02*
X122127100Y-142045800D01*
%TO.N,Net-(LED50-DO)*%
X119021900Y-123033800D02*
X120552900Y-121502800D01*
X119021900Y-130738400D02*
X119021900Y-123033800D01*
X119186400Y-130902900D02*
X119021900Y-130738400D01*
X119186400Y-139360800D02*
X119186400Y-130902900D01*
X119047200Y-139500000D02*
X119186400Y-139360800D01*
%TO.N,Net-(LED32-DO)*%
X114740700Y-120599300D02*
X114740700Y-119692500D01*
X111434700Y-123905300D02*
X114740700Y-120599300D01*
X111434700Y-140153100D02*
X111434700Y-123905300D01*
X109650000Y-141937800D02*
X111434700Y-140153100D01*
X109650000Y-142827700D02*
X109650000Y-141937800D01*
%TO.N,Net-(LED26-DO)*%
X107600000Y-123315400D02*
X111455800Y-119459600D01*
X107600000Y-142500000D02*
X107600000Y-123315400D01*
%TO.N,Net-(LED10-DO)*%
X101896400Y-144320600D02*
X101514200Y-144702800D01*
X101896400Y-123116400D02*
X101896400Y-144320600D01*
X103750600Y-121262200D02*
X101896400Y-123116400D01*
X103750600Y-119599400D02*
X103750600Y-121262200D01*
%TD*%
%TA.AperFunction,Conductor*%
%TO.N,+5V*%
G36*
X113342634Y-136288158D02*
G01*
X113398567Y-136330030D01*
X113422984Y-136395494D01*
X113423300Y-136404340D01*
X113423300Y-138334400D01*
X113403615Y-138401439D01*
X113350811Y-138447194D01*
X113281653Y-138457138D01*
X113218097Y-138428113D01*
X113194307Y-138400373D01*
X113129817Y-138297739D01*
X113002262Y-138170184D01*
X112849523Y-138074211D01*
X112679254Y-138014631D01*
X112679249Y-138014630D01*
X112500004Y-137994435D01*
X112499996Y-137994435D01*
X112320750Y-138014630D01*
X112320742Y-138014632D01*
X112176354Y-138065156D01*
X112106576Y-138068717D01*
X112045948Y-138033988D01*
X112013721Y-137971995D01*
X112011400Y-137948114D01*
X112011400Y-136510151D01*
X112031085Y-136443112D01*
X112083889Y-136397357D01*
X112153047Y-136387413D01*
X112201371Y-136405156D01*
X112303278Y-136469189D01*
X112420341Y-136510151D01*
X112473545Y-136528768D01*
X112473550Y-136528769D01*
X112652796Y-136548965D01*
X112652800Y-136548965D01*
X112652804Y-136548965D01*
X112832049Y-136528769D01*
X112832052Y-136528768D01*
X112832055Y-136528768D01*
X113002322Y-136469189D01*
X113155062Y-136373216D01*
X113211619Y-136316659D01*
X113272942Y-136283174D01*
X113342634Y-136288158D01*
G37*
%TD.AperFunction*%
%TA.AperFunction,Conductor*%
G36*
X113342632Y-133094557D02*
G01*
X113398566Y-133136428D01*
X113422984Y-133201892D01*
X113423300Y-133210739D01*
X113423300Y-135082460D01*
X113403615Y-135149499D01*
X113350811Y-135195254D01*
X113281653Y-135205198D01*
X113218097Y-135176173D01*
X113211619Y-135170141D01*
X113155062Y-135113584D01*
X113002323Y-135017611D01*
X112832054Y-134958031D01*
X112832049Y-134958030D01*
X112652804Y-134937835D01*
X112652796Y-134937835D01*
X112473550Y-134958030D01*
X112473545Y-134958031D01*
X112303276Y-135017611D01*
X112201372Y-135081642D01*
X112134135Y-135100642D01*
X112067300Y-135080274D01*
X112022086Y-135027006D01*
X112011400Y-134976648D01*
X112011400Y-133294731D01*
X112031085Y-133227692D01*
X112083889Y-133181937D01*
X112153047Y-133171993D01*
X112201370Y-133189736D01*
X112316678Y-133262189D01*
X112472939Y-133316867D01*
X112486945Y-133321768D01*
X112486950Y-133321769D01*
X112666196Y-133341965D01*
X112666200Y-133341965D01*
X112666204Y-133341965D01*
X112845449Y-133321769D01*
X112845452Y-133321768D01*
X112845455Y-133321768D01*
X113015722Y-133262189D01*
X113168462Y-133166216D01*
X113211620Y-133123057D01*
X113272941Y-133089573D01*
X113342632Y-133094557D01*
G37*
%TD.AperFunction*%
%TA.AperFunction,Conductor*%
G36*
X113242994Y-128804452D02*
G01*
X113293397Y-128852839D01*
X113309800Y-128914474D01*
X113309800Y-130771840D01*
X113290115Y-130838879D01*
X113237311Y-130884634D01*
X113168153Y-130894578D01*
X113104597Y-130865553D01*
X113076803Y-130829205D01*
X113076694Y-130829274D01*
X113075947Y-130828085D01*
X113074081Y-130825645D01*
X113072990Y-130823381D01*
X113072989Y-130823378D01*
X112977016Y-130670638D01*
X112849462Y-130543084D01*
X112780899Y-130500003D01*
X112696723Y-130447111D01*
X112526454Y-130387531D01*
X112526449Y-130387530D01*
X112347204Y-130367335D01*
X112347196Y-130367335D01*
X112167942Y-130387531D01*
X112162979Y-130388664D01*
X112093241Y-130384383D01*
X112036887Y-130343079D01*
X112011811Y-130277865D01*
X112011400Y-130267794D01*
X112011400Y-129454038D01*
X112031085Y-129386998D01*
X112083889Y-129341244D01*
X112149283Y-129330818D01*
X112335196Y-129351765D01*
X112335200Y-129351765D01*
X112335204Y-129351765D01*
X112514449Y-129331569D01*
X112514452Y-129331568D01*
X112514455Y-129331568D01*
X112684722Y-129271989D01*
X112837462Y-129176016D01*
X112965016Y-129048462D01*
X113060989Y-128895722D01*
X113068757Y-128873520D01*
X113109480Y-128816744D01*
X113174432Y-128790996D01*
X113242994Y-128804452D01*
G37*
%TD.AperFunction*%
%TA.AperFunction,Conductor*%
G36*
X117767539Y-90120185D02*
G01*
X117813294Y-90172989D01*
X117824500Y-90224500D01*
X117824500Y-92884135D01*
X117851444Y-93010900D01*
X117859486Y-93048731D01*
X117927928Y-93202455D01*
X118026836Y-93338589D01*
X118026837Y-93338590D01*
X118026838Y-93338591D01*
X118026840Y-93338594D01*
X118102907Y-93407084D01*
X118151886Y-93451185D01*
X118297614Y-93535321D01*
X118297616Y-93535321D01*
X118297619Y-93535323D01*
X118338941Y-93548749D01*
X118457650Y-93587320D01*
X118625000Y-93604909D01*
X118792350Y-93587320D01*
X118952386Y-93535321D01*
X119098114Y-93451185D01*
X119199254Y-93360118D01*
X119223159Y-93338594D01*
X119223159Y-93338592D01*
X119223164Y-93338589D01*
X119322072Y-93202455D01*
X119390514Y-93048731D01*
X119425500Y-92884136D01*
X119425500Y-92800000D01*
X119425500Y-92760118D01*
X119425500Y-92735456D01*
X119425499Y-92735450D01*
X119425500Y-90224500D01*
X119445185Y-90157460D01*
X119497989Y-90111706D01*
X119549500Y-90100500D01*
X122100500Y-90100500D01*
X122167539Y-90120185D01*
X122213294Y-90172989D01*
X122224500Y-90224500D01*
X122224500Y-93360118D01*
X122224500Y-93400000D01*
X122224500Y-93468993D01*
X122224500Y-93468995D01*
X122224499Y-93468995D01*
X122251418Y-93604322D01*
X122251421Y-93604332D01*
X122304221Y-93731804D01*
X122304228Y-93731817D01*
X122380885Y-93846541D01*
X122380888Y-93846545D01*
X122478454Y-93944111D01*
X122478458Y-93944114D01*
X122593182Y-94020771D01*
X122593195Y-94020778D01*
X122676465Y-94055269D01*
X122720672Y-94073580D01*
X122720676Y-94073580D01*
X122720677Y-94073581D01*
X122856004Y-94100500D01*
X122856007Y-94100500D01*
X122902410Y-94100500D01*
X123365589Y-94100500D01*
X123432628Y-94120185D01*
X123453270Y-94136819D01*
X124263181Y-94946730D01*
X124296666Y-95008053D01*
X124299500Y-95034411D01*
X124299500Y-118700891D01*
X124279815Y-118767930D01*
X124227011Y-118813685D01*
X124157853Y-118823629D01*
X124109528Y-118805885D01*
X123994823Y-118733811D01*
X123824554Y-118674231D01*
X123824549Y-118674230D01*
X123645304Y-118654035D01*
X123645296Y-118654035D01*
X123466050Y-118674230D01*
X123466045Y-118674231D01*
X123295776Y-118733811D01*
X123143037Y-118829784D01*
X123015484Y-118957337D01*
X122919510Y-119110078D01*
X122859930Y-119280350D01*
X122845863Y-119405200D01*
X122818796Y-119469614D01*
X122810324Y-119478997D01*
X122396713Y-119892608D01*
X122390611Y-119897960D01*
X122363591Y-119918693D01*
X122356092Y-119928467D01*
X122299663Y-119969668D01*
X122229917Y-119973821D01*
X122170037Y-119940659D01*
X122154562Y-119925184D01*
X122001823Y-119829211D01*
X121831554Y-119769631D01*
X121831549Y-119769630D01*
X121652304Y-119749435D01*
X121652296Y-119749435D01*
X121473050Y-119769630D01*
X121473045Y-119769631D01*
X121302776Y-119829211D01*
X121150037Y-119925184D01*
X121022484Y-120052737D01*
X120926511Y-120205476D01*
X120866931Y-120375745D01*
X120866930Y-120375750D01*
X120846735Y-120554996D01*
X120846735Y-120555000D01*
X120849336Y-120578084D01*
X120837280Y-120646906D01*
X120789930Y-120698285D01*
X120722320Y-120715908D01*
X120712232Y-120715186D01*
X120552904Y-120697235D01*
X120552896Y-120697235D01*
X120373650Y-120717430D01*
X120373645Y-120717431D01*
X120203376Y-120777011D01*
X120050637Y-120872984D01*
X119923084Y-121000537D01*
X119827110Y-121153278D01*
X119767530Y-121323550D01*
X119753463Y-121448400D01*
X119726396Y-121512814D01*
X119717924Y-121522197D01*
X118643713Y-122596409D01*
X118637610Y-122601760D01*
X118610594Y-122622492D01*
X118574921Y-122668980D01*
X118518153Y-122742961D01*
X118460044Y-122883250D01*
X118460043Y-122883252D01*
X118440224Y-123033798D01*
X118440224Y-123033800D01*
X118444669Y-123067561D01*
X118445200Y-123075662D01*
X118445200Y-123800660D01*
X118425515Y-123867699D01*
X118372711Y-123913454D01*
X118303553Y-123923398D01*
X118239997Y-123894373D01*
X118233519Y-123888341D01*
X118230362Y-123885184D01*
X118077623Y-123789211D01*
X117907354Y-123729631D01*
X117907349Y-123729630D01*
X117728104Y-123709435D01*
X117728096Y-123709435D01*
X117548850Y-123729630D01*
X117548845Y-123729631D01*
X117378576Y-123789211D01*
X117225837Y-123885184D01*
X117098284Y-124012737D01*
X117002311Y-124165476D01*
X116942731Y-124335745D01*
X116942730Y-124335750D01*
X116922535Y-124514996D01*
X116922535Y-124515003D01*
X116942730Y-124694249D01*
X116942731Y-124694254D01*
X117002311Y-124864523D01*
X117014381Y-124883732D01*
X117098284Y-125017262D01*
X117225838Y-125144816D01*
X117260886Y-125166838D01*
X117369345Y-125234988D01*
X117378578Y-125240789D01*
X117512588Y-125287681D01*
X117548845Y-125300368D01*
X117548850Y-125300369D01*
X117728096Y-125320565D01*
X117728100Y-125320565D01*
X117728104Y-125320565D01*
X117907349Y-125300369D01*
X117907352Y-125300368D01*
X117907355Y-125300368D01*
X118077622Y-125240789D01*
X118230362Y-125144816D01*
X118233518Y-125141659D01*
X118294842Y-125108174D01*
X118364534Y-125113158D01*
X118420467Y-125155030D01*
X118444884Y-125220494D01*
X118445200Y-125229340D01*
X118445200Y-127619534D01*
X118425515Y-127686573D01*
X118372711Y-127732328D01*
X118335084Y-127742754D01*
X118174649Y-127760830D01*
X118174645Y-127760831D01*
X118004376Y-127820411D01*
X117851637Y-127916384D01*
X117724084Y-128043937D01*
X117628111Y-128196676D01*
X117568531Y-128366945D01*
X117568530Y-128366950D01*
X117548335Y-128546196D01*
X117548335Y-128546203D01*
X117568530Y-128725449D01*
X117568531Y-128725454D01*
X117628111Y-128895723D01*
X117685607Y-128987226D01*
X117724084Y-129048462D01*
X117851638Y-129176016D01*
X117924802Y-129221988D01*
X117958993Y-129243472D01*
X118004378Y-129271989D01*
X118172502Y-129330818D01*
X118174645Y-129331568D01*
X118174650Y-129331569D01*
X118335083Y-129349645D01*
X118399497Y-129376711D01*
X118439052Y-129434306D01*
X118445200Y-129472865D01*
X118445200Y-130696535D01*
X118444669Y-130704636D01*
X118440224Y-130738398D01*
X118440224Y-130738401D01*
X118460974Y-130896016D01*
X118450208Y-130965051D01*
X118403828Y-131017307D01*
X118378989Y-131029243D01*
X118250478Y-131074210D01*
X118097737Y-131170184D01*
X117970184Y-131297737D01*
X117874211Y-131450476D01*
X117814631Y-131620745D01*
X117814630Y-131620750D01*
X117794435Y-131799997D01*
X117794435Y-131800004D01*
X117806227Y-131904667D01*
X117794172Y-131973489D01*
X117770690Y-132006230D01*
X117714185Y-132062736D01*
X117618211Y-132215476D01*
X117558631Y-132385745D01*
X117558630Y-132385750D01*
X117538435Y-132564996D01*
X117538435Y-132565003D01*
X117558630Y-132744249D01*
X117558631Y-132744254D01*
X117618211Y-132914523D01*
X117670499Y-132997738D01*
X117714184Y-133067262D01*
X117841738Y-133194816D01*
X117952694Y-133264534D01*
X117998984Y-133316867D01*
X118009633Y-133385921D01*
X117981257Y-133449769D01*
X117952694Y-133474520D01*
X117847240Y-133540782D01*
X117847237Y-133540784D01*
X117719684Y-133668337D01*
X117623711Y-133821076D01*
X117564131Y-133991345D01*
X117564130Y-133991350D01*
X117543935Y-134170596D01*
X117543935Y-134170603D01*
X117564130Y-134349849D01*
X117564131Y-134349854D01*
X117623711Y-134520123D01*
X117719684Y-134672862D01*
X117824009Y-134777187D01*
X117857494Y-134838510D01*
X117859548Y-134878751D01*
X117847735Y-134983597D01*
X117847735Y-134983603D01*
X117867930Y-135162849D01*
X117867931Y-135162854D01*
X117927511Y-135333123D01*
X118023484Y-135485862D01*
X118151038Y-135613416D01*
X118303778Y-135709389D01*
X118474045Y-135768968D01*
X118499581Y-135771845D01*
X118563994Y-135798909D01*
X118603551Y-135856502D01*
X118609700Y-135895065D01*
X118609700Y-136519076D01*
X118590015Y-136586115D01*
X118537211Y-136631870D01*
X118471817Y-136642296D01*
X118347904Y-136628335D01*
X118347896Y-136628335D01*
X118168650Y-136648530D01*
X118168645Y-136648531D01*
X117998376Y-136708111D01*
X117845637Y-136804084D01*
X117718084Y-136931637D01*
X117622111Y-137084376D01*
X117562531Y-137254645D01*
X117562530Y-137254650D01*
X117542335Y-137433896D01*
X117542335Y-137433903D01*
X117562530Y-137613149D01*
X117562531Y-137613154D01*
X117622111Y-137783423D01*
X117683211Y-137880662D01*
X117718084Y-137936162D01*
X117845638Y-138063716D01*
X117998378Y-138159689D01*
X118089829Y-138191689D01*
X118168645Y-138219268D01*
X118168650Y-138219269D01*
X118347896Y-138239465D01*
X118347900Y-138239465D01*
X118347903Y-138239465D01*
X118433758Y-138229791D01*
X118471816Y-138225503D01*
X118540638Y-138237557D01*
X118592018Y-138284906D01*
X118609700Y-138348723D01*
X118609700Y-138760958D01*
X118590015Y-138827997D01*
X118551674Y-138865950D01*
X118544944Y-138870178D01*
X118544939Y-138870182D01*
X118417384Y-138997737D01*
X118321411Y-139150476D01*
X118293776Y-139229453D01*
X118267961Y-139303231D01*
X118267640Y-139304147D01*
X118226918Y-139360923D01*
X118175870Y-139381780D01*
X118176441Y-139384280D01*
X118169653Y-139385829D01*
X117999378Y-139445410D01*
X117846637Y-139541384D01*
X117719084Y-139668937D01*
X117623111Y-139821676D01*
X117563531Y-139991945D01*
X117563530Y-139991950D01*
X117543335Y-140171196D01*
X117543335Y-140171203D01*
X117563530Y-140350449D01*
X117563531Y-140350454D01*
X117623111Y-140520723D01*
X117667183Y-140590862D01*
X117719084Y-140673462D01*
X117846638Y-140801016D01*
X117999378Y-140896989D01*
X118079429Y-140925000D01*
X118169645Y-140956568D01*
X118169650Y-140956569D01*
X118348896Y-140976765D01*
X118348900Y-140976765D01*
X118348904Y-140976765D01*
X118528149Y-140956569D01*
X118528152Y-140956568D01*
X118528155Y-140956568D01*
X118698422Y-140896989D01*
X118851162Y-140801016D01*
X118978716Y-140673462D01*
X119074689Y-140520722D01*
X119128460Y-140367050D01*
X119169182Y-140310276D01*
X119220242Y-140289444D01*
X119219666Y-140286918D01*
X119226451Y-140285369D01*
X119226453Y-140285368D01*
X119226455Y-140285368D01*
X119396722Y-140225789D01*
X119549462Y-140129816D01*
X119677016Y-140002262D01*
X119772989Y-139849522D01*
X119832568Y-139679255D01*
X119832739Y-139677738D01*
X119852765Y-139500003D01*
X119852765Y-139499996D01*
X119832569Y-139320750D01*
X119832566Y-139320737D01*
X119770690Y-139143906D01*
X119772590Y-139143241D01*
X119763100Y-139101640D01*
X119763100Y-131342708D01*
X119782785Y-131275669D01*
X119835589Y-131229914D01*
X119846146Y-131225666D01*
X119899522Y-131206989D01*
X120052262Y-131111016D01*
X120179816Y-130983462D01*
X120275789Y-130830722D01*
X120335368Y-130660455D01*
X120335369Y-130660449D01*
X120355565Y-130481203D01*
X120355565Y-130481196D01*
X120335369Y-130301950D01*
X120335368Y-130301945D01*
X120282367Y-130150478D01*
X120275789Y-130131678D01*
X120272647Y-130126678D01*
X120180329Y-129979755D01*
X120179816Y-129978938D01*
X120052262Y-129851384D01*
X120044305Y-129846384D01*
X119899521Y-129755410D01*
X119735571Y-129698042D01*
X119729255Y-129695832D01*
X119729254Y-129695831D01*
X119729249Y-129695830D01*
X119708716Y-129693517D01*
X119644302Y-129666450D01*
X119604747Y-129608855D01*
X119598600Y-129570297D01*
X119598600Y-125410902D01*
X119618285Y-125343863D01*
X119671089Y-125298108D01*
X119708715Y-125287682D01*
X119729255Y-125285368D01*
X119899522Y-125225789D01*
X120052262Y-125129816D01*
X120179816Y-125002262D01*
X120275789Y-124849522D01*
X120335368Y-124679255D01*
X120335369Y-124679249D01*
X120355565Y-124500003D01*
X120355565Y-124499996D01*
X120335369Y-124320750D01*
X120335368Y-124320745D01*
X120299287Y-124217631D01*
X120275789Y-124150478D01*
X120179816Y-123997738D01*
X120052262Y-123870184D01*
X120018223Y-123848796D01*
X119899521Y-123774210D01*
X119729249Y-123714630D01*
X119708715Y-123712317D01*
X119644301Y-123685250D01*
X119604746Y-123627656D01*
X119598599Y-123589101D01*
X119598599Y-123324037D01*
X119618284Y-123256999D01*
X119634913Y-123236362D01*
X120338889Y-122532386D01*
X120400210Y-122498903D01*
X120469902Y-122503887D01*
X120525835Y-122545759D01*
X120549788Y-122606183D01*
X120550731Y-122614551D01*
X120550731Y-122614554D01*
X120610311Y-122784823D01*
X120656080Y-122857663D01*
X120706284Y-122937562D01*
X120833838Y-123065116D01*
X120986578Y-123161089D01*
X120986582Y-123161090D01*
X120989322Y-123162410D01*
X120990791Y-123163737D01*
X120992474Y-123164794D01*
X120992288Y-123165088D01*
X121041183Y-123209232D01*
X121059497Y-123276658D01*
X121039418Y-123340220D01*
X121040089Y-123340642D01*
X121038472Y-123343214D01*
X121038451Y-123343283D01*
X121038299Y-123343490D01*
X120940411Y-123499276D01*
X120880831Y-123669545D01*
X120880830Y-123669550D01*
X120860635Y-123848796D01*
X120860635Y-123848803D01*
X120880830Y-124028049D01*
X120880831Y-124028054D01*
X120940411Y-124198323D01*
X121036384Y-124351062D01*
X121163938Y-124478616D01*
X121221843Y-124515000D01*
X121313098Y-124572340D01*
X121316678Y-124574589D01*
X121464271Y-124626234D01*
X121486945Y-124634168D01*
X121486950Y-124634169D01*
X121666196Y-124654365D01*
X121666200Y-124654365D01*
X121666204Y-124654365D01*
X121845449Y-124634169D01*
X121845452Y-124634168D01*
X121845455Y-124634168D01*
X122015722Y-124574589D01*
X122015722Y-124574588D01*
X122020392Y-124572340D01*
X122089333Y-124560984D01*
X122153469Y-124588703D01*
X122192438Y-124646696D01*
X122198200Y-124684057D01*
X122198200Y-125951775D01*
X122178515Y-126018814D01*
X122125711Y-126064569D01*
X122056553Y-126074513D01*
X122017333Y-126060113D01*
X122016795Y-126061231D01*
X122010529Y-126058213D01*
X121840254Y-125998631D01*
X121840249Y-125998630D01*
X121661004Y-125978435D01*
X121660996Y-125978435D01*
X121481750Y-125998630D01*
X121481745Y-125998631D01*
X121311476Y-126058211D01*
X121158737Y-126154184D01*
X121031184Y-126281737D01*
X120935211Y-126434476D01*
X120875631Y-126604745D01*
X120875630Y-126604750D01*
X120855435Y-126783996D01*
X120855435Y-126784003D01*
X120875630Y-126963249D01*
X120875631Y-126963254D01*
X120935211Y-127133523D01*
X121031183Y-127286261D01*
X121031184Y-127286262D01*
X121158738Y-127413816D01*
X121235108Y-127461802D01*
X121311479Y-127509790D01*
X121316648Y-127512279D01*
X121368510Y-127559099D01*
X121386825Y-127626526D01*
X121365780Y-127693150D01*
X121312055Y-127737821D01*
X121276735Y-127747221D01*
X121155949Y-127760830D01*
X121155945Y-127760831D01*
X120985676Y-127820411D01*
X120832937Y-127916384D01*
X120705384Y-128043937D01*
X120609411Y-128196676D01*
X120549831Y-128366945D01*
X120549830Y-128366950D01*
X120529635Y-128546196D01*
X120529635Y-128546203D01*
X120549830Y-128725449D01*
X120549831Y-128725454D01*
X120609411Y-128895723D01*
X120666907Y-128987226D01*
X120705384Y-129048462D01*
X120832938Y-129176016D01*
X120906102Y-129221988D01*
X120940293Y-129243472D01*
X120985678Y-129271989D01*
X121153802Y-129330818D01*
X121155945Y-129331568D01*
X121155950Y-129331569D01*
X121335196Y-129351765D01*
X121335200Y-129351765D01*
X121335204Y-129351765D01*
X121514449Y-129331569D01*
X121514452Y-129331568D01*
X121514455Y-129331568D01*
X121684722Y-129271989D01*
X121817056Y-129188837D01*
X121884292Y-129169837D01*
X121951127Y-129190204D01*
X121996342Y-129243472D01*
X122005580Y-129312728D01*
X121975908Y-129375985D01*
X121970709Y-129381512D01*
X121714313Y-129637908D01*
X121708211Y-129643260D01*
X121681191Y-129663993D01*
X121588754Y-129784461D01*
X121588752Y-129784464D01*
X121530644Y-129924750D01*
X121530643Y-129924753D01*
X121526357Y-129957316D01*
X121510824Y-130075299D01*
X121515269Y-130109061D01*
X121515800Y-130117163D01*
X121515800Y-130545909D01*
X121496115Y-130612948D01*
X121443311Y-130658703D01*
X121377918Y-130669129D01*
X121346904Y-130665635D01*
X121346896Y-130665635D01*
X121167650Y-130685830D01*
X121167645Y-130685831D01*
X120997376Y-130745411D01*
X120844637Y-130841384D01*
X120717084Y-130968937D01*
X120621111Y-131121676D01*
X120561531Y-131291945D01*
X120561530Y-131291950D01*
X120541335Y-131471196D01*
X120541335Y-131471203D01*
X120561530Y-131650449D01*
X120561531Y-131650454D01*
X120621111Y-131820723D01*
X120675062Y-131906585D01*
X120717084Y-131973462D01*
X120844638Y-132101016D01*
X120997378Y-132196989D01*
X121063377Y-132220083D01*
X121120153Y-132260805D01*
X121145901Y-132325757D01*
X121132445Y-132394319D01*
X121088396Y-132442118D01*
X120997740Y-132499082D01*
X120997737Y-132499084D01*
X120870184Y-132626637D01*
X120774211Y-132779376D01*
X120714631Y-132949645D01*
X120714630Y-132949650D01*
X120694435Y-133128896D01*
X120694435Y-133128903D01*
X120714630Y-133308149D01*
X120714631Y-133308154D01*
X120774211Y-133478423D01*
X120870183Y-133631162D01*
X120870184Y-133631162D01*
X120997738Y-133758716D01*
X121088080Y-133815482D01*
X121142254Y-133849522D01*
X121150478Y-133854689D01*
X121229446Y-133882321D01*
X121320745Y-133914268D01*
X121320750Y-133914269D01*
X121405682Y-133923838D01*
X121470097Y-133950904D01*
X121509652Y-134008498D01*
X121515800Y-134047058D01*
X121515800Y-136453943D01*
X121496115Y-136520982D01*
X121443311Y-136566737D01*
X121377917Y-136577163D01*
X121339504Y-136572835D01*
X121339496Y-136572835D01*
X121160250Y-136593030D01*
X121160245Y-136593031D01*
X120989976Y-136652611D01*
X120837237Y-136748584D01*
X120709684Y-136876137D01*
X120613711Y-137028876D01*
X120554131Y-137199145D01*
X120554130Y-137199150D01*
X120533935Y-137378396D01*
X120533935Y-137378403D01*
X120554130Y-137557649D01*
X120554131Y-137557654D01*
X120613711Y-137727923D01*
X120668325Y-137814840D01*
X120709684Y-137880662D01*
X120837238Y-138008216D01*
X120989978Y-138104189D01*
X121148585Y-138159688D01*
X121160245Y-138163768D01*
X121160250Y-138163769D01*
X121339497Y-138183965D01*
X121339500Y-138183965D01*
X121377916Y-138179636D01*
X121446736Y-138191689D01*
X121498116Y-138239037D01*
X121515800Y-138302856D01*
X121515800Y-139034235D01*
X121515269Y-139042336D01*
X121510824Y-139076098D01*
X121510824Y-139076102D01*
X121515127Y-139108789D01*
X121515132Y-139108822D01*
X121520180Y-139147176D01*
X121509413Y-139216211D01*
X121463032Y-139268466D01*
X121395763Y-139287350D01*
X121383358Y-139286579D01*
X121351904Y-139283035D01*
X121351896Y-139283035D01*
X121172650Y-139303230D01*
X121172645Y-139303231D01*
X121002376Y-139362811D01*
X120849637Y-139458784D01*
X120722084Y-139586337D01*
X120626111Y-139739076D01*
X120566531Y-139909345D01*
X120566530Y-139909350D01*
X120546335Y-140088596D01*
X120546335Y-140088603D01*
X120566530Y-140267849D01*
X120566531Y-140267854D01*
X120626111Y-140438123D01*
X120722084Y-140590862D01*
X120763515Y-140632293D01*
X120797000Y-140693616D01*
X120792016Y-140763308D01*
X120780829Y-140785944D01*
X120774212Y-140796474D01*
X120774209Y-140796481D01*
X120714633Y-140966737D01*
X120714630Y-140966750D01*
X120694435Y-141145996D01*
X120694435Y-141146003D01*
X120714630Y-141325249D01*
X120714631Y-141325254D01*
X120774211Y-141495523D01*
X120870184Y-141648262D01*
X120997739Y-141775817D01*
X121043319Y-141804457D01*
X121089609Y-141856791D01*
X121100257Y-141925845D01*
X121071882Y-141989693D01*
X121043319Y-142014443D01*
X120997739Y-142043082D01*
X120870184Y-142170637D01*
X120774211Y-142323376D01*
X120714631Y-142493645D01*
X120714630Y-142493650D01*
X120694435Y-142672896D01*
X120694435Y-142672903D01*
X120714630Y-142852149D01*
X120714631Y-142852154D01*
X120774211Y-143022423D01*
X120870184Y-143175162D01*
X120983590Y-143288568D01*
X121017075Y-143349891D01*
X121012091Y-143419583D01*
X120970219Y-143475516D01*
X120909792Y-143499469D01*
X120723750Y-143520430D01*
X120723745Y-143520431D01*
X120553476Y-143580011D01*
X120400737Y-143675984D01*
X120273184Y-143803537D01*
X120177211Y-143956276D01*
X120117631Y-144126545D01*
X120117630Y-144126550D01*
X120097435Y-144305796D01*
X120097435Y-144305803D01*
X120117630Y-144485049D01*
X120117631Y-144485054D01*
X120177211Y-144655323D01*
X120238431Y-144752753D01*
X120273184Y-144808062D01*
X120400738Y-144935616D01*
X120553478Y-145031589D01*
X120713171Y-145087468D01*
X120723745Y-145091168D01*
X120723750Y-145091169D01*
X120902996Y-145111365D01*
X120903000Y-145111365D01*
X120903004Y-145111365D01*
X121082249Y-145091169D01*
X121082252Y-145091168D01*
X121082255Y-145091168D01*
X121252522Y-145031589D01*
X121405262Y-144935616D01*
X121493705Y-144847172D01*
X121555024Y-144813690D01*
X121624716Y-144818674D01*
X121680650Y-144860545D01*
X121686376Y-144868883D01*
X121770184Y-145002262D01*
X121897738Y-145129816D01*
X122050478Y-145225789D01*
X122220744Y-145285368D01*
X122220745Y-145285368D01*
X122220750Y-145285369D01*
X122399996Y-145305565D01*
X122400000Y-145305565D01*
X122400004Y-145305565D01*
X122579249Y-145285369D01*
X122579252Y-145285368D01*
X122579255Y-145285368D01*
X122749522Y-145225789D01*
X122902262Y-145129816D01*
X123010008Y-145022069D01*
X123071332Y-144988584D01*
X123141024Y-144993568D01*
X123163662Y-145004757D01*
X123200473Y-145027887D01*
X123200477Y-145027888D01*
X123200478Y-145027889D01*
X123370745Y-145087467D01*
X123370745Y-145087468D01*
X123370750Y-145087469D01*
X123549996Y-145107665D01*
X123550000Y-145107665D01*
X123550004Y-145107665D01*
X123729249Y-145087469D01*
X123729252Y-145087468D01*
X123729255Y-145087468D01*
X123899522Y-145027889D01*
X124052262Y-144931916D01*
X124087819Y-144896358D01*
X124149142Y-144862874D01*
X124218834Y-144867858D01*
X124274767Y-144909730D01*
X124299184Y-144975194D01*
X124299500Y-144984040D01*
X124299500Y-149575500D01*
X124279815Y-149642539D01*
X124227011Y-149688294D01*
X124175500Y-149699500D01*
X114907452Y-149699500D01*
X114840413Y-149679815D01*
X114794658Y-149627011D01*
X114785835Y-149599692D01*
X114771121Y-149525723D01*
X114726880Y-149303309D01*
X114629945Y-149017748D01*
X114496566Y-148747282D01*
X114329025Y-148496539D01*
X114130189Y-148269810D01*
X113903459Y-148070973D01*
X113652720Y-147903435D01*
X113652713Y-147903431D01*
X113382268Y-147770062D01*
X113382247Y-147770053D01*
X113096698Y-147673122D01*
X113096692Y-147673120D01*
X113096691Y-147673120D01*
X113096689Y-147673119D01*
X113096683Y-147673118D01*
X112800930Y-147614288D01*
X112800921Y-147614287D01*
X112800920Y-147614287D01*
X112500000Y-147594564D01*
X112499999Y-147594564D01*
X112349540Y-147604425D01*
X112199080Y-147614287D01*
X112199079Y-147614287D01*
X112199069Y-147614288D01*
X111903316Y-147673118D01*
X111903301Y-147673122D01*
X111617752Y-147770053D01*
X111617731Y-147770062D01*
X111347286Y-147903431D01*
X111347279Y-147903435D01*
X111096540Y-148070973D01*
X110869810Y-148269810D01*
X110670973Y-148496540D01*
X110503435Y-148747279D01*
X110503431Y-148747286D01*
X110370062Y-149017731D01*
X110370053Y-149017752D01*
X110273122Y-149303301D01*
X110273119Y-149303313D01*
X110214165Y-149599692D01*
X110181780Y-149661603D01*
X110121064Y-149696177D01*
X110092548Y-149699500D01*
X100824500Y-149699500D01*
X100757461Y-149679815D01*
X100711706Y-149627011D01*
X100700500Y-149575500D01*
X100700500Y-145320540D01*
X100720185Y-145253501D01*
X100772989Y-145207746D01*
X100842147Y-145197802D01*
X100905703Y-145226827D01*
X100912180Y-145232858D01*
X101011938Y-145332616D01*
X101164678Y-145428589D01*
X101334944Y-145488168D01*
X101334945Y-145488168D01*
X101334950Y-145488169D01*
X101514196Y-145508365D01*
X101514200Y-145508365D01*
X101514204Y-145508365D01*
X101693449Y-145488169D01*
X101693452Y-145488168D01*
X101693455Y-145488168D01*
X101863722Y-145428589D01*
X102016462Y-145332616D01*
X102144016Y-145205062D01*
X102239989Y-145052322D01*
X102299568Y-144882055D01*
X102303234Y-144849522D01*
X102314136Y-144752753D01*
X102338979Y-144691151D01*
X102400146Y-144611438D01*
X102458256Y-144471149D01*
X102473100Y-144358397D01*
X102474940Y-144344424D01*
X102474940Y-144344414D01*
X102478076Y-144320602D01*
X102478076Y-144320601D01*
X102473630Y-144286836D01*
X102473099Y-144278733D01*
X102473099Y-143797344D01*
X102473099Y-143426076D01*
X102492784Y-143359040D01*
X102545588Y-143313285D01*
X102583215Y-143302859D01*
X102611391Y-143299684D01*
X102738449Y-143285369D01*
X102738452Y-143285368D01*
X102738455Y-143285368D01*
X102908722Y-143225789D01*
X103061462Y-143129816D01*
X103189016Y-143002262D01*
X103284989Y-142849522D01*
X103344568Y-142679255D01*
X103345284Y-142672900D01*
X103364765Y-142500003D01*
X104960935Y-142500003D01*
X104981130Y-142679249D01*
X104981131Y-142679254D01*
X105040711Y-142849523D01*
X105042365Y-142852155D01*
X105136684Y-143002262D01*
X105264238Y-143129816D01*
X105316598Y-143162716D01*
X105415260Y-143224710D01*
X105416978Y-143225789D01*
X105530091Y-143265369D01*
X105587245Y-143285368D01*
X105587250Y-143285369D01*
X105679327Y-143295743D01*
X105743742Y-143322809D01*
X105782486Y-143378008D01*
X105807509Y-143449518D01*
X105807510Y-143449522D01*
X105887178Y-143576311D01*
X105903484Y-143602262D01*
X106031038Y-143729816D01*
X106051858Y-143742898D01*
X106183774Y-143825787D01*
X106183778Y-143825789D01*
X106276818Y-143858345D01*
X106354045Y-143885368D01*
X106354050Y-143885369D01*
X106533296Y-143905565D01*
X106533300Y-143905565D01*
X106533304Y-143905565D01*
X106712549Y-143885369D01*
X106712552Y-143885368D01*
X106712555Y-143885368D01*
X106882822Y-143825789D01*
X107035562Y-143729816D01*
X107163116Y-143602262D01*
X107259089Y-143449522D01*
X107287822Y-143367407D01*
X107328542Y-143310633D01*
X107393495Y-143284885D01*
X107418747Y-143285143D01*
X107599997Y-143305565D01*
X107600000Y-143305565D01*
X107600004Y-143305565D01*
X107779249Y-143285369D01*
X107779252Y-143285368D01*
X107779255Y-143285368D01*
X107949522Y-143225789D01*
X107951240Y-143224710D01*
X107984027Y-143204108D01*
X108051263Y-143185107D01*
X108115973Y-143204108D01*
X108150475Y-143225788D01*
X108320745Y-143285368D01*
X108320750Y-143285369D01*
X108499996Y-143305565D01*
X108500000Y-143305565D01*
X108500004Y-143305565D01*
X108679249Y-143285369D01*
X108679251Y-143285368D01*
X108679255Y-143285368D01*
X108679258Y-143285366D01*
X108679262Y-143285366D01*
X108842428Y-143228272D01*
X108912207Y-143224710D01*
X108972834Y-143259438D01*
X108988375Y-143279338D01*
X109020184Y-143329962D01*
X109147738Y-143457516D01*
X109214506Y-143499469D01*
X109250414Y-143522032D01*
X109300478Y-143553489D01*
X109439863Y-143602262D01*
X109470745Y-143613068D01*
X109470750Y-143613069D01*
X109649996Y-143633265D01*
X109650000Y-143633265D01*
X109650004Y-143633265D01*
X109829249Y-143613069D01*
X109829252Y-143613068D01*
X109829255Y-143613068D01*
X109999522Y-143553489D01*
X110152262Y-143457516D01*
X110279816Y-143329962D01*
X110375789Y-143177222D01*
X110435368Y-143006955D01*
X110435897Y-143002262D01*
X110455565Y-142827703D01*
X110455565Y-142827696D01*
X110435369Y-142648450D01*
X110435368Y-142648445D01*
X110394937Y-142532900D01*
X110375789Y-142478178D01*
X110375575Y-142477838D01*
X110297543Y-142353650D01*
X110279816Y-142325438D01*
X110266557Y-142312180D01*
X110233073Y-142250857D01*
X110238057Y-142181165D01*
X110266556Y-142136820D01*
X111628018Y-140775357D01*
X111689341Y-140741873D01*
X111759033Y-140746857D01*
X111803380Y-140775358D01*
X111837837Y-140809815D01*
X111837843Y-140809820D01*
X111937861Y-140872666D01*
X111984152Y-140925000D01*
X111994800Y-140994054D01*
X111976883Y-141043631D01*
X111938211Y-141105176D01*
X111878631Y-141275445D01*
X111878630Y-141275450D01*
X111858435Y-141454696D01*
X111858435Y-141454703D01*
X111874465Y-141596978D01*
X111862410Y-141665800D01*
X111815061Y-141717179D01*
X111747451Y-141734803D01*
X111736224Y-141733367D01*
X111736175Y-141733811D01*
X111550004Y-141712835D01*
X111549996Y-141712835D01*
X111370750Y-141733030D01*
X111370745Y-141733031D01*
X111200476Y-141792611D01*
X111047737Y-141888584D01*
X110920184Y-142016137D01*
X110824211Y-142168876D01*
X110764631Y-142339145D01*
X110764630Y-142339150D01*
X110744435Y-142518396D01*
X110744435Y-142518403D01*
X110764630Y-142697649D01*
X110764631Y-142697654D01*
X110824211Y-142867923D01*
X110911571Y-143006954D01*
X110920184Y-143020662D01*
X111047738Y-143148216D01*
X111095768Y-143178395D01*
X111171194Y-143225789D01*
X111200478Y-143244189D01*
X111317518Y-143285143D01*
X111370745Y-143303768D01*
X111370750Y-143303769D01*
X111549996Y-143323965D01*
X111550000Y-143323965D01*
X111550004Y-143323965D01*
X111729249Y-143303769D01*
X111729252Y-143303768D01*
X111729255Y-143303768D01*
X111899522Y-143244189D01*
X112052262Y-143148216D01*
X112179816Y-143020662D01*
X112275789Y-142867922D01*
X112335368Y-142697655D01*
X112337441Y-142679255D01*
X112355565Y-142518403D01*
X112355565Y-142518397D01*
X112339534Y-142376122D01*
X112351588Y-142307300D01*
X112398937Y-142255920D01*
X112466547Y-142238296D01*
X112477774Y-142239734D01*
X112477825Y-142239289D01*
X112663996Y-142260265D01*
X112664000Y-142260265D01*
X112664004Y-142260265D01*
X112843249Y-142240069D01*
X112843252Y-142240068D01*
X112843255Y-142240068D01*
X113013522Y-142180489D01*
X113166262Y-142084516D01*
X113211618Y-142039159D01*
X113272942Y-142005674D01*
X113342634Y-142010658D01*
X113398567Y-142052530D01*
X113422984Y-142117994D01*
X113423300Y-142126840D01*
X113423300Y-143162560D01*
X113403615Y-143229599D01*
X113386981Y-143250241D01*
X112769397Y-143867824D01*
X112708074Y-143901309D01*
X112695600Y-143903363D01*
X112570750Y-143917430D01*
X112400478Y-143977010D01*
X112247737Y-144072984D01*
X112120184Y-144200537D01*
X112024211Y-144353276D01*
X111964631Y-144523545D01*
X111964630Y-144523550D01*
X111944435Y-144702796D01*
X111944435Y-144702803D01*
X111964630Y-144882049D01*
X111964631Y-144882054D01*
X112024211Y-145052323D01*
X112115622Y-145197802D01*
X112120184Y-145205062D01*
X112247738Y-145332616D01*
X112400478Y-145428589D01*
X112570745Y-145488168D01*
X112570750Y-145488169D01*
X112749996Y-145508365D01*
X112750000Y-145508365D01*
X112750004Y-145508365D01*
X112929249Y-145488169D01*
X112929252Y-145488168D01*
X112929255Y-145488168D01*
X113099522Y-145428589D01*
X113252262Y-145332616D01*
X113379816Y-145205062D01*
X113475789Y-145052322D01*
X113535368Y-144882055D01*
X113537792Y-144860545D01*
X113549435Y-144757200D01*
X113576501Y-144692786D01*
X113584964Y-144683411D01*
X113960972Y-144307403D01*
X116489835Y-144307403D01*
X116510030Y-144486649D01*
X116510031Y-144486654D01*
X116569611Y-144656923D01*
X116632620Y-144757200D01*
X116665584Y-144809662D01*
X116793138Y-144937216D01*
X116853580Y-144975194D01*
X116943331Y-145031589D01*
X116945878Y-145033189D01*
X117101001Y-145087469D01*
X117116145Y-145092768D01*
X117116150Y-145092769D01*
X117295396Y-145112965D01*
X117295400Y-145112965D01*
X117295404Y-145112965D01*
X117474649Y-145092769D01*
X117474652Y-145092768D01*
X117474655Y-145092768D01*
X117644922Y-145033189D01*
X117797662Y-144937216D01*
X117925216Y-144809662D01*
X118021189Y-144656922D01*
X118080768Y-144486655D01*
X118080769Y-144486649D01*
X118100965Y-144307403D01*
X118100965Y-144307396D01*
X118080769Y-144128150D01*
X118080768Y-144128145D01*
X118043045Y-144020340D01*
X118021189Y-143957878D01*
X118020182Y-143956276D01*
X117976851Y-143887314D01*
X117925216Y-143805138D01*
X117797662Y-143677584D01*
X117720036Y-143628808D01*
X117644923Y-143581611D01*
X117474654Y-143522031D01*
X117474649Y-143522030D01*
X117295404Y-143501835D01*
X117295396Y-143501835D01*
X117116150Y-143522030D01*
X117116145Y-143522031D01*
X116945876Y-143581611D01*
X116793137Y-143677584D01*
X116665584Y-143805137D01*
X116569611Y-143957876D01*
X116510031Y-144128145D01*
X116510030Y-144128150D01*
X116489835Y-144307396D01*
X116489835Y-144307403D01*
X113960972Y-144307403D01*
X114378191Y-143890184D01*
X114384281Y-143884843D01*
X114411307Y-143864107D01*
X114440710Y-143825789D01*
X114453953Y-143808531D01*
X114503746Y-143743638D01*
X114515761Y-143714631D01*
X114561856Y-143603349D01*
X114575918Y-143496535D01*
X114581676Y-143452801D01*
X114581676Y-143445709D01*
X114601361Y-143378670D01*
X114654165Y-143332915D01*
X114691790Y-143322489D01*
X114729255Y-143318268D01*
X114899522Y-143258689D01*
X115052262Y-143162716D01*
X115179816Y-143035162D01*
X115275789Y-142882422D01*
X115335368Y-142712155D01*
X115337002Y-142697654D01*
X115355565Y-142532903D01*
X115355565Y-142532896D01*
X115349605Y-142480003D01*
X115714435Y-142480003D01*
X115734630Y-142659249D01*
X115734631Y-142659254D01*
X115794211Y-142829523D01*
X115808432Y-142852155D01*
X115890184Y-142982262D01*
X116017738Y-143109816D01*
X116049568Y-143129816D01*
X116167802Y-143204108D01*
X116170478Y-143205789D01*
X116280216Y-143244188D01*
X116340745Y-143265368D01*
X116340750Y-143265369D01*
X116519996Y-143285565D01*
X116520000Y-143285565D01*
X116520004Y-143285565D01*
X116699249Y-143265369D01*
X116699252Y-143265368D01*
X116699255Y-143265368D01*
X116869522Y-143205789D01*
X117022262Y-143109816D01*
X117149816Y-142982262D01*
X117245789Y-142829522D01*
X117305368Y-142659255D01*
X117305369Y-142659249D01*
X117325565Y-142480003D01*
X117325565Y-142479996D01*
X117305369Y-142300750D01*
X117305368Y-142300745D01*
X117287911Y-142250857D01*
X117245789Y-142130478D01*
X117149816Y-141977738D01*
X117022262Y-141850184D01*
X116982508Y-141825205D01*
X116869523Y-141754211D01*
X116699254Y-141694631D01*
X116699249Y-141694630D01*
X116520004Y-141674435D01*
X116519996Y-141674435D01*
X116340750Y-141694630D01*
X116340745Y-141694631D01*
X116170476Y-141754211D01*
X116017737Y-141850184D01*
X115890184Y-141977737D01*
X115794211Y-142130476D01*
X115734631Y-142300745D01*
X115734630Y-142300750D01*
X115714435Y-142479996D01*
X115714435Y-142480003D01*
X115349605Y-142480003D01*
X115335369Y-142353650D01*
X115335368Y-142353645D01*
X115324776Y-142323376D01*
X115275789Y-142183378D01*
X115274398Y-142181165D01*
X115234705Y-142117994D01*
X115179816Y-142030638D01*
X115052262Y-141903084D01*
X115052261Y-141903083D01*
X114899521Y-141807110D01*
X114729249Y-141747530D01*
X114686815Y-141742749D01*
X114622401Y-141715682D01*
X114582847Y-141658086D01*
X114576700Y-141619529D01*
X114576700Y-140448469D01*
X114596385Y-140381430D01*
X114649189Y-140335675D01*
X114686813Y-140325249D01*
X114729255Y-140320468D01*
X114899522Y-140260889D01*
X115052262Y-140164916D01*
X115179816Y-140037362D01*
X115275789Y-139884622D01*
X115335368Y-139714355D01*
X115339323Y-139679254D01*
X115355565Y-139535103D01*
X115355565Y-139535096D01*
X115348231Y-139470003D01*
X115664435Y-139470003D01*
X115684630Y-139649249D01*
X115684631Y-139649254D01*
X115744211Y-139819523D01*
X115826536Y-139950541D01*
X115840184Y-139972262D01*
X115967738Y-140099816D01*
X116015481Y-140129815D01*
X116115703Y-140192789D01*
X116120478Y-140195789D01*
X116282174Y-140252369D01*
X116290745Y-140255368D01*
X116290750Y-140255369D01*
X116469996Y-140275565D01*
X116470000Y-140275565D01*
X116470004Y-140275565D01*
X116649249Y-140255369D01*
X116649252Y-140255368D01*
X116649255Y-140255368D01*
X116819522Y-140195789D01*
X116972262Y-140099816D01*
X117099816Y-139972262D01*
X117195789Y-139819522D01*
X117255368Y-139649255D01*
X117255369Y-139649249D01*
X117275565Y-139470003D01*
X117275565Y-139469996D01*
X117255369Y-139290750D01*
X117255368Y-139290745D01*
X117215034Y-139175478D01*
X117195789Y-139120478D01*
X117189644Y-139110699D01*
X117118666Y-138997738D01*
X117099816Y-138967738D01*
X116972262Y-138840184D01*
X116923128Y-138809311D01*
X116819523Y-138744211D01*
X116649254Y-138684631D01*
X116649249Y-138684630D01*
X116470004Y-138664435D01*
X116469996Y-138664435D01*
X116290750Y-138684630D01*
X116290745Y-138684631D01*
X116120476Y-138744211D01*
X115967737Y-138840184D01*
X115840184Y-138967737D01*
X115744211Y-139120476D01*
X115684631Y-139290745D01*
X115684630Y-139290750D01*
X115664435Y-139469996D01*
X115664435Y-139470003D01*
X115348231Y-139470003D01*
X115335369Y-139355850D01*
X115335368Y-139355845D01*
X115316958Y-139303232D01*
X115275789Y-139185578D01*
X115269441Y-139175476D01*
X115223047Y-139101640D01*
X115179816Y-139032838D01*
X115052262Y-138905284D01*
X114996391Y-138870178D01*
X114899521Y-138809310D01*
X114751849Y-138757638D01*
X114729255Y-138749732D01*
X114729254Y-138749731D01*
X114729249Y-138749730D01*
X114686815Y-138744949D01*
X114622401Y-138717882D01*
X114582847Y-138660286D01*
X114576700Y-138621729D01*
X114576700Y-138098740D01*
X114596385Y-138031701D01*
X114649189Y-137985946D01*
X114718347Y-137976002D01*
X114781903Y-138005027D01*
X114788381Y-138011059D01*
X114847738Y-138070416D01*
X114938080Y-138127182D01*
X114996306Y-138163768D01*
X115000478Y-138166389D01*
X115151598Y-138219268D01*
X115170745Y-138225968D01*
X115170750Y-138225969D01*
X115349996Y-138246165D01*
X115350000Y-138246165D01*
X115350004Y-138246165D01*
X115529249Y-138225969D01*
X115529252Y-138225968D01*
X115529255Y-138225968D01*
X115699522Y-138166389D01*
X115852262Y-138070416D01*
X115979816Y-137942862D01*
X116075789Y-137790122D01*
X116135368Y-137619855D01*
X116136124Y-137613149D01*
X116155565Y-137440603D01*
X116155565Y-137440596D01*
X116135369Y-137261350D01*
X116135368Y-137261345D01*
X116075788Y-137091076D01*
X115979815Y-136938337D01*
X115852262Y-136810784D01*
X115699523Y-136714811D01*
X115529254Y-136655231D01*
X115529249Y-136655230D01*
X115350004Y-136635035D01*
X115349996Y-136635035D01*
X115170750Y-136655230D01*
X115170745Y-136655231D01*
X115000476Y-136714811D01*
X114847737Y-136810784D01*
X114788381Y-136870141D01*
X114727058Y-136903626D01*
X114657366Y-136898642D01*
X114601433Y-136856770D01*
X114577016Y-136791306D01*
X114576700Y-136782460D01*
X114576700Y-134446169D01*
X114596385Y-134379130D01*
X114649189Y-134333375D01*
X114686813Y-134322949D01*
X114729255Y-134318168D01*
X114899522Y-134258589D01*
X114985577Y-134204516D01*
X115044016Y-134188001D01*
X115058870Y-134156334D01*
X115064037Y-134150840D01*
X115179816Y-134035062D01*
X115275789Y-133882322D01*
X115327213Y-133735359D01*
X115367935Y-133678584D01*
X115432887Y-133652836D01*
X115501449Y-133666292D01*
X115551852Y-133714679D01*
X115561297Y-133735359D01*
X115594211Y-133829423D01*
X115690184Y-133982162D01*
X115708815Y-134000793D01*
X115742300Y-134062116D01*
X115737316Y-134131808D01*
X115695444Y-134187741D01*
X115635018Y-134211694D01*
X115474049Y-134229830D01*
X115474045Y-134229831D01*
X115303776Y-134289411D01*
X115217722Y-134343483D01*
X115159283Y-134359996D01*
X115144430Y-134391663D01*
X115139231Y-134397191D01*
X115023483Y-134512939D01*
X114927511Y-134665676D01*
X114867931Y-134835945D01*
X114867930Y-134835950D01*
X114847735Y-135015196D01*
X114847735Y-135015203D01*
X114867930Y-135194449D01*
X114867931Y-135194454D01*
X114927511Y-135364723D01*
X115003628Y-135485862D01*
X115023484Y-135517462D01*
X115151038Y-135645016D01*
X115303778Y-135740989D01*
X115391957Y-135771844D01*
X115474045Y-135800568D01*
X115474050Y-135800569D01*
X115653296Y-135820765D01*
X115653300Y-135820765D01*
X115653304Y-135820765D01*
X115832549Y-135800569D01*
X115832552Y-135800568D01*
X115832555Y-135800568D01*
X116002822Y-135740989D01*
X116155562Y-135645016D01*
X116283116Y-135517462D01*
X116379089Y-135364722D01*
X116438668Y-135194455D01*
X116441408Y-135170141D01*
X116458865Y-135015203D01*
X116458865Y-135015196D01*
X116438669Y-134835950D01*
X116438668Y-134835945D01*
X116438668Y-134835944D01*
X116379089Y-134665678D01*
X116283116Y-134512938D01*
X116264484Y-134494306D01*
X116230999Y-134432983D01*
X116235983Y-134363291D01*
X116277855Y-134307358D01*
X116338281Y-134283405D01*
X116407653Y-134275589D01*
X116499249Y-134265269D01*
X116499252Y-134265268D01*
X116499255Y-134265268D01*
X116669522Y-134205689D01*
X116822262Y-134109716D01*
X116949816Y-133982162D01*
X117045789Y-133829422D01*
X117105368Y-133659155D01*
X117118705Y-133540784D01*
X117125565Y-133479903D01*
X117125565Y-133479896D01*
X117105369Y-133300650D01*
X117105368Y-133300645D01*
X117079841Y-133227692D01*
X117045789Y-133130378D01*
X117044860Y-133128900D01*
X116963176Y-132998900D01*
X116949816Y-132977638D01*
X116822262Y-132850084D01*
X116753712Y-132807011D01*
X116669523Y-132754111D01*
X116499254Y-132694531D01*
X116499249Y-132694530D01*
X116320004Y-132674335D01*
X116319996Y-132674335D01*
X116140750Y-132694530D01*
X116140745Y-132694531D01*
X115970476Y-132754111D01*
X115817737Y-132850084D01*
X115690184Y-132977637D01*
X115594209Y-133130380D01*
X115542785Y-133277340D01*
X115502063Y-133334116D01*
X115437111Y-133359863D01*
X115368549Y-133346407D01*
X115318146Y-133298019D01*
X115308703Y-133277342D01*
X115275789Y-133183278D01*
X115179816Y-133030538D01*
X115052262Y-132902984D01*
X115000061Y-132870184D01*
X114899521Y-132807010D01*
X114729249Y-132747430D01*
X114686815Y-132742649D01*
X114622401Y-132715582D01*
X114582847Y-132657986D01*
X114576700Y-132619429D01*
X114576700Y-131056762D01*
X114577231Y-131048661D01*
X114581676Y-131014900D01*
X114581676Y-131014898D01*
X114561856Y-130864352D01*
X114561856Y-130864351D01*
X114527815Y-130782171D01*
X114503746Y-130724061D01*
X114488824Y-130704615D01*
X114463629Y-130639446D01*
X114463199Y-130629151D01*
X114463199Y-129149734D01*
X114482884Y-129082697D01*
X114535688Y-129036942D01*
X114604846Y-129026998D01*
X114668402Y-129056023D01*
X114692193Y-129083764D01*
X114704884Y-129103962D01*
X114832439Y-129231517D01*
X114832441Y-129231518D01*
X114852314Y-129244006D01*
X114898605Y-129296341D01*
X114909252Y-129365395D01*
X114891336Y-129414969D01*
X114868709Y-129450980D01*
X114809133Y-129621237D01*
X114809130Y-129621250D01*
X114788935Y-129800496D01*
X114788935Y-129800503D01*
X114809130Y-129979749D01*
X114809131Y-129979754D01*
X114868711Y-130150023D01*
X114942697Y-130267770D01*
X114964684Y-130302762D01*
X115092238Y-130430316D01*
X115203144Y-130500003D01*
X115244983Y-130526292D01*
X115251253Y-130529312D01*
X115249960Y-130531996D01*
X115295948Y-130564989D01*
X115321686Y-130629945D01*
X115308221Y-130698505D01*
X115264180Y-130746289D01*
X115146739Y-130820082D01*
X115019184Y-130947637D01*
X114923211Y-131100376D01*
X114863631Y-131270645D01*
X114863630Y-131270650D01*
X114843435Y-131449896D01*
X114843435Y-131449903D01*
X114863630Y-131629149D01*
X114863631Y-131629154D01*
X114923211Y-131799423D01*
X114936595Y-131820723D01*
X115019184Y-131952162D01*
X115146738Y-132079716D01*
X115299478Y-132175689D01*
X115426349Y-132220083D01*
X115469745Y-132235268D01*
X115469750Y-132235269D01*
X115648996Y-132255465D01*
X115649000Y-132255465D01*
X115649004Y-132255465D01*
X115828249Y-132235269D01*
X115828252Y-132235268D01*
X115828255Y-132235268D01*
X115998522Y-132175689D01*
X116151262Y-132079716D01*
X116278816Y-131952162D01*
X116374789Y-131799422D01*
X116434368Y-131629155D01*
X116454565Y-131449900D01*
X116450421Y-131413122D01*
X116434369Y-131270650D01*
X116434368Y-131270645D01*
X116404470Y-131185201D01*
X116374789Y-131100378D01*
X116278816Y-130947638D01*
X116151262Y-130820084D01*
X116032421Y-130745411D01*
X115998516Y-130724107D01*
X115992247Y-130721088D01*
X115993532Y-130718419D01*
X115947493Y-130685335D01*
X115921804Y-130620359D01*
X115935322Y-130551810D01*
X115979318Y-130504110D01*
X116096762Y-130430316D01*
X116224316Y-130302762D01*
X116320289Y-130150022D01*
X116379868Y-129979755D01*
X116379960Y-129978937D01*
X116400065Y-129800503D01*
X116400065Y-129800496D01*
X116379869Y-129621250D01*
X116379868Y-129621245D01*
X116363160Y-129573496D01*
X116320289Y-129450978D01*
X116224316Y-129298238D01*
X116096762Y-129170684D01*
X116096760Y-129170682D01*
X116096755Y-129170678D01*
X116076884Y-129158192D01*
X116030594Y-129105857D01*
X116019947Y-129036803D01*
X116037866Y-128987226D01*
X116060487Y-128951225D01*
X116060486Y-128951225D01*
X116060489Y-128951222D01*
X116120068Y-128780955D01*
X116123508Y-128750423D01*
X116140265Y-128601703D01*
X116140265Y-128601696D01*
X116120069Y-128422450D01*
X116120068Y-128422445D01*
X116083152Y-128316945D01*
X116060489Y-128252178D01*
X116039566Y-128218880D01*
X115994199Y-128146678D01*
X115964516Y-128099438D01*
X115958661Y-128093583D01*
X115925176Y-128032260D01*
X115930160Y-127962568D01*
X115972032Y-127906635D01*
X116000756Y-127891330D01*
X116000747Y-127891312D01*
X116001208Y-127891089D01*
X116005399Y-127888856D01*
X116007022Y-127888289D01*
X116159762Y-127792316D01*
X116287316Y-127664762D01*
X116383289Y-127512022D01*
X116442868Y-127341755D01*
X116449121Y-127286262D01*
X116463065Y-127162503D01*
X116463065Y-127162496D01*
X116442869Y-126983250D01*
X116442868Y-126983245D01*
X116383288Y-126812976D01*
X116291038Y-126666162D01*
X116287316Y-126660238D01*
X116159762Y-126532684D01*
X116147469Y-126524960D01*
X116007023Y-126436711D01*
X115836752Y-126377131D01*
X115800197Y-126373012D01*
X115735784Y-126345945D01*
X115696229Y-126288349D01*
X115694092Y-126218512D01*
X115730051Y-126158607D01*
X115773130Y-126132750D01*
X115793019Y-126125790D01*
X115793018Y-126125790D01*
X115793022Y-126125789D01*
X115945762Y-126029816D01*
X116073316Y-125902262D01*
X116169289Y-125749522D01*
X116228868Y-125579255D01*
X116237205Y-125505262D01*
X116249065Y-125400003D01*
X116249065Y-125399996D01*
X116228869Y-125220750D01*
X116228868Y-125220745D01*
X116203839Y-125149216D01*
X116169289Y-125050478D01*
X116162255Y-125039284D01*
X116073315Y-124897737D01*
X115945762Y-124770184D01*
X115793022Y-124674210D01*
X115790624Y-124673056D01*
X115789341Y-124671898D01*
X115787126Y-124670506D01*
X115787369Y-124670117D01*
X115738764Y-124626234D01*
X115720450Y-124558808D01*
X115721204Y-124547449D01*
X115724365Y-124519399D01*
X115724365Y-124519397D01*
X115704169Y-124340150D01*
X115704168Y-124340145D01*
X115654542Y-124198322D01*
X115644589Y-124169878D01*
X115641824Y-124165478D01*
X115588580Y-124080741D01*
X115548616Y-124017138D01*
X115421062Y-123889584D01*
X115386232Y-123867699D01*
X115268323Y-123793611D01*
X115098054Y-123734031D01*
X115098049Y-123734030D01*
X114918804Y-123713835D01*
X114918796Y-123713835D01*
X114739550Y-123734030D01*
X114739545Y-123734031D01*
X114569276Y-123793611D01*
X114416537Y-123889584D01*
X114288984Y-124017137D01*
X114193011Y-124169876D01*
X114133431Y-124340145D01*
X114133430Y-124340150D01*
X114113235Y-124519396D01*
X114113235Y-124519403D01*
X114133430Y-124698649D01*
X114133431Y-124698654D01*
X114193011Y-124868923D01*
X114276794Y-125002262D01*
X114288984Y-125021662D01*
X114416538Y-125149216D01*
X114568707Y-125244830D01*
X114614998Y-125297165D01*
X114625646Y-125366218D01*
X114597271Y-125430067D01*
X114590416Y-125437505D01*
X113508313Y-126519609D01*
X113502210Y-126524960D01*
X113475194Y-126545692D01*
X113439521Y-126592180D01*
X113382753Y-126666161D01*
X113324644Y-126806450D01*
X113324643Y-126806452D01*
X113304824Y-126956998D01*
X113304824Y-126957000D01*
X113305647Y-126963255D01*
X113309269Y-126990761D01*
X113309800Y-126998862D01*
X113309800Y-128177925D01*
X113290115Y-128244964D01*
X113237311Y-128290719D01*
X113168153Y-128300663D01*
X113104597Y-128271638D01*
X113068759Y-128218880D01*
X113060990Y-128196680D01*
X113060989Y-128196678D01*
X112965016Y-128043938D01*
X112837462Y-127916384D01*
X112821947Y-127906635D01*
X112684723Y-127820411D01*
X112514454Y-127760831D01*
X112514449Y-127760830D01*
X112335204Y-127740635D01*
X112335196Y-127740635D01*
X112149283Y-127761581D01*
X112080461Y-127749526D01*
X112029082Y-127702177D01*
X112011400Y-127638361D01*
X112011400Y-125906707D01*
X112031085Y-125839668D01*
X112083889Y-125793913D01*
X112153047Y-125783969D01*
X112165802Y-125787086D01*
X112165863Y-125786820D01*
X112172648Y-125788369D01*
X112351896Y-125808565D01*
X112351900Y-125808565D01*
X112351904Y-125808565D01*
X112531149Y-125788369D01*
X112531152Y-125788368D01*
X112531155Y-125788368D01*
X112701422Y-125728789D01*
X112854162Y-125632816D01*
X112981716Y-125505262D01*
X113077689Y-125352522D01*
X113137268Y-125182255D01*
X113139005Y-125166838D01*
X113157465Y-125003003D01*
X113157465Y-125002996D01*
X113137269Y-124823750D01*
X113137268Y-124823745D01*
X113089928Y-124688455D01*
X113077689Y-124653478D01*
X113065556Y-124634169D01*
X113028119Y-124574588D01*
X112981716Y-124500738D01*
X112854162Y-124373184D01*
X112801581Y-124340145D01*
X112701423Y-124277211D01*
X112531154Y-124217631D01*
X112531149Y-124217630D01*
X112351904Y-124197435D01*
X112351895Y-124197435D01*
X112260284Y-124207756D01*
X112191462Y-124195701D01*
X112140084Y-124148351D01*
X112122460Y-124080741D01*
X112144187Y-124014335D01*
X112158716Y-123996860D01*
X114024068Y-122131507D01*
X114085391Y-122098023D01*
X114155083Y-122103007D01*
X114192957Y-122127348D01*
X114193495Y-122126675D01*
X114198937Y-122131015D01*
X114198938Y-122131016D01*
X114289280Y-122187782D01*
X114349766Y-122225788D01*
X114351678Y-122226989D01*
X114518516Y-122285368D01*
X114521945Y-122286568D01*
X114521950Y-122286569D01*
X114701196Y-122306765D01*
X114701200Y-122306765D01*
X114701204Y-122306765D01*
X114880449Y-122286569D01*
X114880452Y-122286568D01*
X114880455Y-122286568D01*
X115050722Y-122226989D01*
X115203462Y-122131016D01*
X115331016Y-122003462D01*
X115426989Y-121850722D01*
X115486568Y-121680455D01*
X115486569Y-121680449D01*
X115506765Y-121501203D01*
X115506765Y-121501196D01*
X115506631Y-121500003D01*
X116972535Y-121500003D01*
X116992730Y-121679249D01*
X116992731Y-121679251D01*
X116992731Y-121679253D01*
X116992732Y-121679255D01*
X117014355Y-121741050D01*
X117052311Y-121849523D01*
X117148284Y-122002262D01*
X117275838Y-122129816D01*
X117428578Y-122225789D01*
X117520586Y-122257984D01*
X117598845Y-122285368D01*
X117598850Y-122285369D01*
X117778096Y-122305565D01*
X117778100Y-122305565D01*
X117778104Y-122305565D01*
X117957349Y-122285369D01*
X117957352Y-122285368D01*
X117957355Y-122285368D01*
X118127622Y-122225789D01*
X118280362Y-122129816D01*
X118407916Y-122002262D01*
X118503889Y-121849522D01*
X118563468Y-121679255D01*
X118563468Y-121679253D01*
X118563469Y-121679251D01*
X118563469Y-121679249D01*
X118583665Y-121500003D01*
X118583665Y-121499996D01*
X118563469Y-121320750D01*
X118563468Y-121320745D01*
X118528333Y-121220335D01*
X118503889Y-121150478D01*
X118407916Y-120997738D01*
X118280362Y-120870184D01*
X118236240Y-120842460D01*
X118127623Y-120774211D01*
X117957354Y-120714631D01*
X117957349Y-120714630D01*
X117778104Y-120694435D01*
X117778096Y-120694435D01*
X117598850Y-120714630D01*
X117598845Y-120714631D01*
X117428576Y-120774211D01*
X117275837Y-120870184D01*
X117148284Y-120997737D01*
X117052311Y-121150476D01*
X116992731Y-121320745D01*
X116992730Y-121320750D01*
X116972535Y-121499996D01*
X116972535Y-121500003D01*
X115506631Y-121500003D01*
X115486569Y-121321950D01*
X115486568Y-121321945D01*
X115453848Y-121228436D01*
X115426989Y-121151678D01*
X115331016Y-120998938D01*
X115296521Y-120964443D01*
X115263036Y-120903120D01*
X115268020Y-120833428D01*
X115269627Y-120829346D01*
X115302556Y-120749849D01*
X115316109Y-120646906D01*
X115322376Y-120599301D01*
X115322376Y-120599298D01*
X115317931Y-120565536D01*
X115317400Y-120557435D01*
X115317400Y-120299239D01*
X115337085Y-120232200D01*
X115353716Y-120211561D01*
X115370516Y-120194762D01*
X115466489Y-120042022D01*
X115526068Y-119871755D01*
X115536558Y-119778654D01*
X115546265Y-119692503D01*
X115546265Y-119692496D01*
X115526069Y-119513250D01*
X115526068Y-119513245D01*
X115503348Y-119448316D01*
X115466489Y-119342978D01*
X115370516Y-119190238D01*
X115242962Y-119062684D01*
X115242962Y-119062683D01*
X115090223Y-118966711D01*
X114919954Y-118907131D01*
X114919949Y-118907130D01*
X114740704Y-118886935D01*
X114740696Y-118886935D01*
X114561450Y-118907130D01*
X114561445Y-118907131D01*
X114391176Y-118966711D01*
X114238437Y-119062684D01*
X114110884Y-119190237D01*
X114014911Y-119342976D01*
X113955331Y-119513245D01*
X113955330Y-119513250D01*
X113935135Y-119692496D01*
X113935135Y-119692503D01*
X113955330Y-119871749D01*
X113955331Y-119871754D01*
X114014911Y-120042023D01*
X114110884Y-120194763D01*
X114127679Y-120211557D01*
X114161166Y-120272879D01*
X114164000Y-120299240D01*
X114164000Y-120309060D01*
X114144315Y-120376099D01*
X114127681Y-120396741D01*
X112982273Y-121542148D01*
X112920950Y-121575633D01*
X112851258Y-121570649D01*
X112828620Y-121559461D01*
X112678623Y-121465211D01*
X112508354Y-121405631D01*
X112508349Y-121405630D01*
X112329104Y-121385435D01*
X112329096Y-121385435D01*
X112149850Y-121405630D01*
X112149845Y-121405631D01*
X111979576Y-121465211D01*
X111826837Y-121561184D01*
X111699284Y-121688737D01*
X111603311Y-121841476D01*
X111543731Y-122011745D01*
X111543730Y-122011750D01*
X111523535Y-122190996D01*
X111523535Y-122191003D01*
X111543730Y-122370249D01*
X111543731Y-122370254D01*
X111603311Y-122540523D01*
X111697561Y-122690520D01*
X111716561Y-122757757D01*
X111696193Y-122824592D01*
X111680248Y-122844173D01*
X111056513Y-123467909D01*
X111050410Y-123473260D01*
X111023394Y-123493992D01*
X110987721Y-123540480D01*
X110930953Y-123614461D01*
X110872844Y-123754750D01*
X110872843Y-123754752D01*
X110853024Y-123905298D01*
X110853024Y-123905300D01*
X110857469Y-123939061D01*
X110858000Y-123947162D01*
X110858000Y-129563201D01*
X110838315Y-129630240D01*
X110785511Y-129675995D01*
X110720117Y-129686421D01*
X110580004Y-129670635D01*
X110579996Y-129670635D01*
X110400750Y-129690830D01*
X110400745Y-129690831D01*
X110230476Y-129750411D01*
X110077737Y-129846384D01*
X109950184Y-129973937D01*
X109854211Y-130126676D01*
X109794631Y-130296945D01*
X109794630Y-130296950D01*
X109774435Y-130476196D01*
X109774435Y-130476203D01*
X109794630Y-130655449D01*
X109794631Y-130655454D01*
X109854211Y-130825723D01*
X109925512Y-130939197D01*
X109950184Y-130978462D01*
X110077738Y-131106016D01*
X110230478Y-131201989D01*
X110371115Y-131251200D01*
X110400745Y-131261568D01*
X110400750Y-131261569D01*
X110579996Y-131281765D01*
X110580000Y-131281765D01*
X110580003Y-131281765D01*
X110720116Y-131265978D01*
X110788938Y-131278032D01*
X110840318Y-131325381D01*
X110858000Y-131389198D01*
X110858000Y-139862860D01*
X110838315Y-139929899D01*
X110821681Y-139950541D01*
X109271813Y-141500409D01*
X109265710Y-141505760D01*
X109238694Y-141526492D01*
X109203021Y-141572980D01*
X109173631Y-141611283D01*
X109146253Y-141646962D01*
X109146252Y-141646964D01*
X109099345Y-141760208D01*
X109055504Y-141814611D01*
X108989209Y-141836676D01*
X108921510Y-141819396D01*
X108918812Y-141817748D01*
X108849526Y-141774212D01*
X108679254Y-141714631D01*
X108679249Y-141714630D01*
X108500004Y-141694435D01*
X108499996Y-141694435D01*
X108314583Y-141715325D01*
X108245761Y-141703270D01*
X108194382Y-141655921D01*
X108176700Y-141592105D01*
X108176700Y-140417230D01*
X108196385Y-140350191D01*
X108249189Y-140304436D01*
X108318347Y-140294492D01*
X108341650Y-140300187D01*
X108370745Y-140310368D01*
X108370748Y-140310368D01*
X108370750Y-140310369D01*
X108549996Y-140330565D01*
X108550000Y-140330565D01*
X108550004Y-140330565D01*
X108729249Y-140310369D01*
X108729252Y-140310368D01*
X108729255Y-140310368D01*
X108899522Y-140250789D01*
X109052262Y-140154816D01*
X109179816Y-140027262D01*
X109275789Y-139874522D01*
X109335368Y-139704255D01*
X109338185Y-139679254D01*
X109355565Y-139525003D01*
X109355565Y-139524996D01*
X109335369Y-139345750D01*
X109335368Y-139345745D01*
X109307324Y-139265599D01*
X109275789Y-139175478D01*
X109260080Y-139150478D01*
X109213347Y-139076102D01*
X109179816Y-139022738D01*
X109052262Y-138895184D01*
X109012465Y-138870178D01*
X108899523Y-138799211D01*
X108729254Y-138739631D01*
X108729249Y-138739630D01*
X108550004Y-138719435D01*
X108549996Y-138719435D01*
X108370750Y-138739630D01*
X108370745Y-138739631D01*
X108341655Y-138749811D01*
X108271876Y-138753372D01*
X108211248Y-138718643D01*
X108179021Y-138656650D01*
X108176700Y-138632769D01*
X108176700Y-137378403D01*
X108844435Y-137378403D01*
X108864630Y-137557649D01*
X108864631Y-137557654D01*
X108924211Y-137727923D01*
X108978825Y-137814840D01*
X109020184Y-137880662D01*
X109147738Y-138008216D01*
X109300478Y-138104189D01*
X109459085Y-138159688D01*
X109470745Y-138163768D01*
X109470750Y-138163769D01*
X109649996Y-138183965D01*
X109650000Y-138183965D01*
X109650004Y-138183965D01*
X109829249Y-138163769D01*
X109829252Y-138163768D01*
X109829255Y-138163768D01*
X109999522Y-138104189D01*
X110152262Y-138008216D01*
X110279816Y-137880662D01*
X110375789Y-137727922D01*
X110435368Y-137557655D01*
X110435369Y-137557649D01*
X110455565Y-137378403D01*
X110455565Y-137378396D01*
X110435369Y-137199150D01*
X110435368Y-137199145D01*
X110395209Y-137084378D01*
X110375789Y-137028878D01*
X110279816Y-136876138D01*
X110152262Y-136748584D01*
X110151547Y-136748135D01*
X109999523Y-136652611D01*
X109829254Y-136593031D01*
X109829249Y-136593030D01*
X109650004Y-136572835D01*
X109649996Y-136572835D01*
X109470750Y-136593030D01*
X109470745Y-136593031D01*
X109300476Y-136652611D01*
X109147737Y-136748584D01*
X109020184Y-136876137D01*
X108924211Y-137028876D01*
X108864631Y-137199145D01*
X108864630Y-137199150D01*
X108844435Y-137378396D01*
X108844435Y-137378403D01*
X108176700Y-137378403D01*
X108176700Y-134407894D01*
X108196385Y-134340855D01*
X108249189Y-134295100D01*
X108314584Y-134284674D01*
X108499997Y-134305565D01*
X108500000Y-134305565D01*
X108500004Y-134305565D01*
X108679249Y-134285369D01*
X108679252Y-134285368D01*
X108679255Y-134285368D01*
X108849522Y-134225789D01*
X109002262Y-134129816D01*
X109129816Y-134002262D01*
X109225789Y-133849522D01*
X109285368Y-133679255D01*
X109287633Y-133659154D01*
X109305565Y-133500003D01*
X109305565Y-133499996D01*
X109285369Y-133320750D01*
X109285368Y-133320745D01*
X109270180Y-133277339D01*
X109225789Y-133150478D01*
X109208560Y-133123059D01*
X109155530Y-133038662D01*
X109129816Y-132997738D01*
X109002262Y-132870184D01*
X108970273Y-132850084D01*
X108849523Y-132774211D01*
X108679254Y-132714631D01*
X108679249Y-132714630D01*
X108500004Y-132694435D01*
X108499996Y-132694435D01*
X108314583Y-132715325D01*
X108245761Y-132703270D01*
X108194382Y-132655921D01*
X108176700Y-132592105D01*
X108176700Y-131407894D01*
X108196385Y-131340855D01*
X108249189Y-131295100D01*
X108314584Y-131284674D01*
X108499997Y-131305565D01*
X108500000Y-131305565D01*
X108500004Y-131305565D01*
X108679249Y-131285369D01*
X108679252Y-131285368D01*
X108679255Y-131285368D01*
X108849522Y-131225789D01*
X109002262Y-131129816D01*
X109129816Y-131002262D01*
X109225789Y-130849522D01*
X109285368Y-130679255D01*
X109285369Y-130679249D01*
X109305565Y-130500003D01*
X109305565Y-130499996D01*
X109285369Y-130320750D01*
X109285368Y-130320745D01*
X109225788Y-130150476D01*
X109129815Y-129997737D01*
X109002262Y-129870184D01*
X108849523Y-129774211D01*
X108679254Y-129714631D01*
X108679249Y-129714630D01*
X108500004Y-129694435D01*
X108499996Y-129694435D01*
X108314583Y-129715325D01*
X108245761Y-129703270D01*
X108194382Y-129655921D01*
X108176700Y-129592105D01*
X108176700Y-128400903D01*
X108533035Y-128400903D01*
X108553230Y-128580149D01*
X108553231Y-128580154D01*
X108612811Y-128750423D01*
X108704109Y-128895722D01*
X108708784Y-128903162D01*
X108836338Y-129030716D01*
X108989078Y-129126689D01*
X109159344Y-129186267D01*
X109159345Y-129186268D01*
X109159350Y-129186269D01*
X109338596Y-129206465D01*
X109338600Y-129206465D01*
X109338604Y-129206465D01*
X109517849Y-129186269D01*
X109517852Y-129186268D01*
X109517855Y-129186268D01*
X109688122Y-129126689D01*
X109840862Y-129030716D01*
X109968416Y-128903162D01*
X110064389Y-128750422D01*
X110123968Y-128580155D01*
X110123969Y-128580149D01*
X110144165Y-128400903D01*
X110144165Y-128400896D01*
X110123969Y-128221650D01*
X110123968Y-128221645D01*
X110081206Y-128099438D01*
X110064389Y-128051378D01*
X110052376Y-128032260D01*
X110022451Y-127984634D01*
X109968416Y-127898638D01*
X109840862Y-127771084D01*
X109824546Y-127760832D01*
X109688123Y-127675111D01*
X109517854Y-127615531D01*
X109517849Y-127615530D01*
X109338604Y-127595335D01*
X109338596Y-127595335D01*
X109159350Y-127615530D01*
X109159345Y-127615531D01*
X108989076Y-127675111D01*
X108836337Y-127771084D01*
X108708784Y-127898637D01*
X108612811Y-128051376D01*
X108553231Y-128221645D01*
X108553230Y-128221650D01*
X108533035Y-128400896D01*
X108533035Y-128400903D01*
X108176700Y-128400903D01*
X108176700Y-125669103D01*
X108553635Y-125669103D01*
X108573830Y-125848349D01*
X108573831Y-125848354D01*
X108633411Y-126018623D01*
X108700749Y-126125790D01*
X108729384Y-126171362D01*
X108856938Y-126298916D01*
X109009678Y-126394889D01*
X109179945Y-126454468D01*
X109179950Y-126454469D01*
X109359196Y-126474665D01*
X109359200Y-126474665D01*
X109359204Y-126474665D01*
X109538449Y-126454469D01*
X109538452Y-126454468D01*
X109538455Y-126454468D01*
X109708722Y-126394889D01*
X109861462Y-126298916D01*
X109989016Y-126171362D01*
X110084989Y-126018622D01*
X110144568Y-125848355D01*
X110145547Y-125839668D01*
X110164765Y-125669103D01*
X110164765Y-125669096D01*
X110144569Y-125489850D01*
X110144568Y-125489845D01*
X110109181Y-125388716D01*
X110084989Y-125319578D01*
X110071498Y-125298108D01*
X110038022Y-125244830D01*
X109989016Y-125166838D01*
X109861462Y-125039284D01*
X109817184Y-125011462D01*
X109708723Y-124943311D01*
X109538454Y-124883731D01*
X109538449Y-124883730D01*
X109359204Y-124863535D01*
X109359196Y-124863535D01*
X109179950Y-124883730D01*
X109179945Y-124883731D01*
X109009676Y-124943311D01*
X108856937Y-125039284D01*
X108729384Y-125166837D01*
X108633411Y-125319576D01*
X108573831Y-125489845D01*
X108573830Y-125489850D01*
X108553635Y-125669096D01*
X108553635Y-125669103D01*
X108176700Y-125669103D01*
X108176700Y-123605638D01*
X108196385Y-123538599D01*
X108213014Y-123517962D01*
X108395778Y-123335198D01*
X108457099Y-123301715D01*
X108526791Y-123306699D01*
X108582724Y-123348571D01*
X108607141Y-123414035D01*
X108600499Y-123463835D01*
X108558332Y-123584342D01*
X108558330Y-123584350D01*
X108538135Y-123763596D01*
X108538135Y-123763603D01*
X108558330Y-123942849D01*
X108558331Y-123942854D01*
X108617911Y-124113123D01*
X108683578Y-124217630D01*
X108713884Y-124265862D01*
X108841438Y-124393416D01*
X108994178Y-124489389D01*
X109160104Y-124547449D01*
X109164445Y-124548968D01*
X109164450Y-124548969D01*
X109343696Y-124569165D01*
X109343700Y-124569165D01*
X109343704Y-124569165D01*
X109522949Y-124548969D01*
X109522952Y-124548968D01*
X109522955Y-124548968D01*
X109693222Y-124489389D01*
X109845962Y-124393416D01*
X109973516Y-124265862D01*
X110069489Y-124113122D01*
X110129068Y-123942855D01*
X110129069Y-123942849D01*
X110149265Y-123763603D01*
X110149265Y-123763596D01*
X110129069Y-123584350D01*
X110129068Y-123584345D01*
X110097452Y-123493992D01*
X110069489Y-123414078D01*
X109973516Y-123261338D01*
X109845962Y-123133784D01*
X109818296Y-123116400D01*
X109693223Y-123037811D01*
X109522954Y-122978231D01*
X109522949Y-122978230D01*
X109343704Y-122958035D01*
X109343696Y-122958035D01*
X109164450Y-122978230D01*
X109164442Y-122978232D01*
X109043934Y-123020400D01*
X108974156Y-123023961D01*
X108913528Y-122989232D01*
X108881301Y-122927239D01*
X108887706Y-122857663D01*
X108915297Y-122815679D01*
X111436403Y-120294572D01*
X111497724Y-120261089D01*
X111510197Y-120259035D01*
X111542193Y-120255430D01*
X111635049Y-120244969D01*
X111635052Y-120244968D01*
X111635055Y-120244968D01*
X111805322Y-120185389D01*
X111958062Y-120089416D01*
X112085616Y-119961862D01*
X112181589Y-119809122D01*
X112241168Y-119638855D01*
X112245613Y-119599403D01*
X112261365Y-119459603D01*
X112261365Y-119459596D01*
X112241169Y-119280350D01*
X112241168Y-119280345D01*
X112181588Y-119110076D01*
X112109999Y-118996144D01*
X112085616Y-118957338D01*
X111958062Y-118829784D01*
X111900850Y-118793835D01*
X111805323Y-118733811D01*
X111635054Y-118674231D01*
X111635049Y-118674230D01*
X111455804Y-118654035D01*
X111455796Y-118654035D01*
X111276550Y-118674230D01*
X111276545Y-118674231D01*
X111106276Y-118733811D01*
X110953537Y-118829784D01*
X110825984Y-118957337D01*
X110730010Y-119110078D01*
X110670430Y-119280350D01*
X110656363Y-119405200D01*
X110629296Y-119469614D01*
X110620824Y-119478997D01*
X109288997Y-120810824D01*
X109227674Y-120844309D01*
X109157982Y-120839325D01*
X109135343Y-120828136D01*
X109049524Y-120774211D01*
X108879254Y-120714631D01*
X108879249Y-120714630D01*
X108700004Y-120694435D01*
X108699996Y-120694435D01*
X108520750Y-120714630D01*
X108520745Y-120714631D01*
X108350476Y-120774211D01*
X108215971Y-120858727D01*
X108148734Y-120877727D01*
X108084027Y-120858726D01*
X108043765Y-120833428D01*
X107949524Y-120774211D01*
X107779254Y-120714631D01*
X107779249Y-120714630D01*
X107600004Y-120694435D01*
X107599996Y-120694435D01*
X107420750Y-120714630D01*
X107420745Y-120714631D01*
X107250476Y-120774211D01*
X107097737Y-120870184D01*
X106970184Y-120997737D01*
X106874210Y-121150478D01*
X106814631Y-121320747D01*
X106814630Y-121320752D01*
X106800439Y-121446705D01*
X106775598Y-121508303D01*
X106761422Y-121526779D01*
X106704653Y-121600761D01*
X106646544Y-121741050D01*
X106646543Y-121741052D01*
X106626724Y-121891598D01*
X106626724Y-121891604D01*
X106631168Y-121925363D01*
X106631699Y-121933463D01*
X106631699Y-127583832D01*
X106612014Y-127650871D01*
X106559210Y-127696626D01*
X106493816Y-127707052D01*
X106348104Y-127690635D01*
X106348096Y-127690635D01*
X106168850Y-127710830D01*
X106168845Y-127710831D01*
X105998576Y-127770411D01*
X105845837Y-127866384D01*
X105718284Y-127993937D01*
X105622311Y-128146676D01*
X105562731Y-128316945D01*
X105562730Y-128316950D01*
X105542535Y-128496196D01*
X105542535Y-128496203D01*
X105562730Y-128675449D01*
X105562731Y-128675454D01*
X105622311Y-128845723D01*
X105688601Y-128951222D01*
X105718284Y-128998462D01*
X105845838Y-129126016D01*
X105936180Y-129182782D01*
X105973871Y-129206465D01*
X105998578Y-129221989D01*
X106064500Y-129245056D01*
X106168845Y-129281568D01*
X106168850Y-129281569D01*
X106348096Y-129301765D01*
X106348100Y-129301765D01*
X106348103Y-129301765D01*
X106493815Y-129285347D01*
X106562637Y-129297401D01*
X106614017Y-129344750D01*
X106631699Y-129408567D01*
X106631699Y-136629975D01*
X106612014Y-136697014D01*
X106559210Y-136742769D01*
X106493816Y-136753195D01*
X106448904Y-136748135D01*
X106448896Y-136748135D01*
X106269650Y-136768330D01*
X106269645Y-136768331D01*
X106099376Y-136827911D01*
X105946637Y-136923884D01*
X105819084Y-137051437D01*
X105723111Y-137204176D01*
X105663531Y-137374445D01*
X105663530Y-137374450D01*
X105643335Y-137553696D01*
X105643335Y-137553703D01*
X105663530Y-137732949D01*
X105663531Y-137732954D01*
X105723111Y-137903223D01*
X105803840Y-138031701D01*
X105819084Y-138055962D01*
X105946638Y-138183516D01*
X106099378Y-138279489D01*
X106256305Y-138334400D01*
X106269645Y-138339068D01*
X106269650Y-138339069D01*
X106448896Y-138359265D01*
X106448900Y-138359265D01*
X106448901Y-138359265D01*
X106457820Y-138358259D01*
X106493815Y-138354204D01*
X106562636Y-138366258D01*
X106614016Y-138413606D01*
X106631699Y-138477424D01*
X106631699Y-141889728D01*
X106612014Y-141956767D01*
X106595378Y-141977411D01*
X106573362Y-141999426D01*
X106512038Y-142032910D01*
X106442347Y-142027924D01*
X106398002Y-141999424D01*
X106268762Y-141870184D01*
X106116023Y-141774211D01*
X105945754Y-141714631D01*
X105945749Y-141714630D01*
X105766504Y-141694435D01*
X105766496Y-141694435D01*
X105587250Y-141714630D01*
X105587245Y-141714631D01*
X105416976Y-141774211D01*
X105264237Y-141870184D01*
X105136684Y-141997737D01*
X105040711Y-142150476D01*
X104981131Y-142320745D01*
X104981130Y-142320750D01*
X104960935Y-142499996D01*
X104960935Y-142500003D01*
X103364765Y-142500003D01*
X103364765Y-142499996D01*
X103344569Y-142320750D01*
X103344568Y-142320745D01*
X103296501Y-142183378D01*
X103284989Y-142150478D01*
X103283365Y-142147894D01*
X103217509Y-142043084D01*
X103189016Y-141997738D01*
X103061462Y-141870184D01*
X103029632Y-141850184D01*
X102908723Y-141774211D01*
X102738454Y-141714631D01*
X102738450Y-141714630D01*
X102583216Y-141697140D01*
X102518802Y-141670073D01*
X102479247Y-141612478D01*
X102473100Y-141573920D01*
X102473100Y-140408322D01*
X102492785Y-140341283D01*
X102545589Y-140295528D01*
X102574220Y-140287596D01*
X102574066Y-140286918D01*
X102580851Y-140285369D01*
X102580853Y-140285368D01*
X102580855Y-140285368D01*
X102751122Y-140225789D01*
X102903862Y-140129816D01*
X103031416Y-140002262D01*
X103127389Y-139849522D01*
X103186968Y-139679255D01*
X103187139Y-139677738D01*
X103204348Y-139525003D01*
X104744435Y-139525003D01*
X104764630Y-139704249D01*
X104764631Y-139704254D01*
X104824211Y-139874523D01*
X104871977Y-139950541D01*
X104920184Y-140027262D01*
X105047738Y-140154816D01*
X105112946Y-140195789D01*
X105176699Y-140235848D01*
X105200478Y-140250789D01*
X105310948Y-140289444D01*
X105370745Y-140310368D01*
X105370750Y-140310369D01*
X105549996Y-140330565D01*
X105550000Y-140330565D01*
X105550004Y-140330565D01*
X105729249Y-140310369D01*
X105729252Y-140310368D01*
X105729255Y-140310368D01*
X105899522Y-140250789D01*
X106052262Y-140154816D01*
X106179816Y-140027262D01*
X106275789Y-139874522D01*
X106335368Y-139704255D01*
X106338185Y-139679254D01*
X106355565Y-139525003D01*
X106355565Y-139524996D01*
X106335369Y-139345750D01*
X106335368Y-139345745D01*
X106307324Y-139265599D01*
X106275789Y-139175478D01*
X106260080Y-139150478D01*
X106213347Y-139076102D01*
X106179816Y-139022738D01*
X106052262Y-138895184D01*
X106012465Y-138870178D01*
X105899523Y-138799211D01*
X105729254Y-138739631D01*
X105729249Y-138739630D01*
X105550004Y-138719435D01*
X105549996Y-138719435D01*
X105370750Y-138739630D01*
X105370745Y-138739631D01*
X105200476Y-138799211D01*
X105047737Y-138895184D01*
X104920184Y-139022737D01*
X104824211Y-139175476D01*
X104764631Y-139345745D01*
X104764630Y-139345750D01*
X104744435Y-139524996D01*
X104744435Y-139525003D01*
X103204348Y-139525003D01*
X103207165Y-139500003D01*
X103207165Y-139499996D01*
X103186969Y-139320750D01*
X103186968Y-139320745D01*
X103180839Y-139303230D01*
X103127389Y-139150478D01*
X103126788Y-139149522D01*
X103059439Y-139042336D01*
X103031416Y-138997738D01*
X102903862Y-138870184D01*
X102897124Y-138865950D01*
X102751123Y-138774211D01*
X102580854Y-138714631D01*
X102574068Y-138713083D01*
X102574490Y-138711233D01*
X102518793Y-138687823D01*
X102479244Y-138630224D01*
X102473100Y-138591677D01*
X102473100Y-137937578D01*
X102492785Y-137870539D01*
X102545589Y-137824784D01*
X102614747Y-137814840D01*
X102678303Y-137843865D01*
X102702092Y-137871604D01*
X102707784Y-137880662D01*
X102835338Y-138008216D01*
X102988078Y-138104189D01*
X103146685Y-138159688D01*
X103158345Y-138163768D01*
X103158350Y-138163769D01*
X103337596Y-138183965D01*
X103337600Y-138183965D01*
X103337604Y-138183965D01*
X103516849Y-138163769D01*
X103516852Y-138163768D01*
X103516855Y-138163768D01*
X103687122Y-138104189D01*
X103839862Y-138008216D01*
X103967416Y-137880662D01*
X104063389Y-137727922D01*
X104122968Y-137557655D01*
X104122969Y-137557649D01*
X104143165Y-137378403D01*
X104143165Y-137378396D01*
X104122969Y-137199150D01*
X104122968Y-137199145D01*
X104082809Y-137084378D01*
X104063389Y-137028878D01*
X103967416Y-136876138D01*
X103839862Y-136748584D01*
X103839147Y-136748135D01*
X103687123Y-136652611D01*
X103516854Y-136593031D01*
X103516849Y-136593030D01*
X103337604Y-136572835D01*
X103337596Y-136572835D01*
X103158350Y-136593030D01*
X103158345Y-136593031D01*
X102988076Y-136652611D01*
X102835337Y-136748584D01*
X102707782Y-136876139D01*
X102702092Y-136885196D01*
X102649756Y-136931486D01*
X102580702Y-136942132D01*
X102516854Y-136913755D01*
X102478484Y-136855364D01*
X102473100Y-136819221D01*
X102473100Y-134420975D01*
X102492785Y-134353936D01*
X102545589Y-134308181D01*
X102610984Y-134297755D01*
X102680298Y-134305565D01*
X102680300Y-134305565D01*
X102680304Y-134305565D01*
X102859549Y-134285369D01*
X102859552Y-134285368D01*
X102859555Y-134285368D01*
X103029822Y-134225789D01*
X103182562Y-134129816D01*
X103310116Y-134002262D01*
X103406089Y-133849522D01*
X103465668Y-133679255D01*
X103467933Y-133659154D01*
X103485865Y-133500003D01*
X104544435Y-133500003D01*
X104564630Y-133679249D01*
X104564631Y-133679254D01*
X104624211Y-133849523D01*
X104719261Y-134000793D01*
X104720184Y-134002262D01*
X104847738Y-134129816D01*
X105000478Y-134225789D01*
X105142798Y-134275589D01*
X105170745Y-134285368D01*
X105170750Y-134285369D01*
X105349996Y-134305565D01*
X105350000Y-134305565D01*
X105350004Y-134305565D01*
X105529249Y-134285369D01*
X105529252Y-134285368D01*
X105529255Y-134285368D01*
X105699522Y-134225789D01*
X105852262Y-134129816D01*
X105979816Y-134002262D01*
X106075789Y-133849522D01*
X106135368Y-133679255D01*
X106137633Y-133659154D01*
X106155565Y-133500003D01*
X106155565Y-133499996D01*
X106135369Y-133320750D01*
X106135368Y-133320745D01*
X106120180Y-133277339D01*
X106075789Y-133150478D01*
X106058560Y-133123059D01*
X106005530Y-133038662D01*
X105979816Y-132997738D01*
X105852262Y-132870184D01*
X105820273Y-132850084D01*
X105699523Y-132774211D01*
X105529254Y-132714631D01*
X105529249Y-132714630D01*
X105350004Y-132694435D01*
X105349996Y-132694435D01*
X105170750Y-132714630D01*
X105170745Y-132714631D01*
X105000476Y-132774211D01*
X104847737Y-132870184D01*
X104720184Y-132997737D01*
X104624211Y-133150476D01*
X104564631Y-133320745D01*
X104564630Y-133320750D01*
X104544435Y-133499996D01*
X104544435Y-133500003D01*
X103485865Y-133500003D01*
X103485865Y-133499996D01*
X103465669Y-133320750D01*
X103465668Y-133320745D01*
X103450480Y-133277339D01*
X103406089Y-133150478D01*
X103388860Y-133123059D01*
X103335830Y-133038662D01*
X103310116Y-132997738D01*
X103182562Y-132870184D01*
X103150573Y-132850084D01*
X103029823Y-132774211D01*
X102859554Y-132714631D01*
X102859549Y-132714630D01*
X102680304Y-132694435D01*
X102680295Y-132694435D01*
X102610982Y-132702244D01*
X102542161Y-132690189D01*
X102490782Y-132642840D01*
X102473100Y-132579024D01*
X102473100Y-131413122D01*
X102492785Y-131346083D01*
X102545589Y-131300328D01*
X102610984Y-131289902D01*
X102749997Y-131305565D01*
X102750000Y-131305565D01*
X102750004Y-131305565D01*
X102929249Y-131285369D01*
X102929252Y-131285368D01*
X102929255Y-131285368D01*
X103099522Y-131225789D01*
X103252262Y-131129816D01*
X103379816Y-131002262D01*
X103475789Y-130849522D01*
X103535368Y-130679255D01*
X103535369Y-130679249D01*
X103555565Y-130500003D01*
X104544435Y-130500003D01*
X104564630Y-130679249D01*
X104564631Y-130679254D01*
X104624211Y-130849523D01*
X104685861Y-130947637D01*
X104720184Y-131002262D01*
X104847738Y-131129816D01*
X104911983Y-131170184D01*
X104962600Y-131201989D01*
X105000478Y-131225789D01*
X105149780Y-131278032D01*
X105170745Y-131285368D01*
X105170750Y-131285369D01*
X105349996Y-131305565D01*
X105350000Y-131305565D01*
X105350004Y-131305565D01*
X105529249Y-131285369D01*
X105529252Y-131285368D01*
X105529255Y-131285368D01*
X105699522Y-131225789D01*
X105852262Y-131129816D01*
X105979816Y-131002262D01*
X106075789Y-130849522D01*
X106135368Y-130679255D01*
X106135369Y-130679249D01*
X106155565Y-130500003D01*
X106155565Y-130499996D01*
X106135369Y-130320750D01*
X106135368Y-130320745D01*
X106075788Y-130150476D01*
X105979815Y-129997737D01*
X105852262Y-129870184D01*
X105699523Y-129774211D01*
X105529254Y-129714631D01*
X105529249Y-129714630D01*
X105350004Y-129694435D01*
X105349996Y-129694435D01*
X105170750Y-129714630D01*
X105170745Y-129714631D01*
X105000476Y-129774211D01*
X104847737Y-129870184D01*
X104720184Y-129997737D01*
X104624211Y-130150476D01*
X104564631Y-130320745D01*
X104564630Y-130320750D01*
X104544435Y-130499996D01*
X104544435Y-130500003D01*
X103555565Y-130500003D01*
X103555565Y-130499996D01*
X103535369Y-130320750D01*
X103535368Y-130320745D01*
X103475788Y-130150476D01*
X103379815Y-129997737D01*
X103252262Y-129870184D01*
X103099523Y-129774211D01*
X102929254Y-129714631D01*
X102929249Y-129714630D01*
X102750004Y-129694435D01*
X102749996Y-129694435D01*
X102610983Y-129710097D01*
X102542161Y-129698042D01*
X102490782Y-129650693D01*
X102473100Y-129586877D01*
X102473100Y-128991864D01*
X102492785Y-128924825D01*
X102545589Y-128879070D01*
X102614747Y-128869126D01*
X102678303Y-128898151D01*
X102694013Y-128916475D01*
X102694841Y-128915816D01*
X102699184Y-128921262D01*
X102826738Y-129048816D01*
X102979478Y-129144789D01*
X103053465Y-129170678D01*
X103149745Y-129204368D01*
X103149750Y-129204369D01*
X103328996Y-129224565D01*
X103329000Y-129224565D01*
X103329004Y-129224565D01*
X103508249Y-129204369D01*
X103508252Y-129204368D01*
X103508255Y-129204368D01*
X103678522Y-129144789D01*
X103831262Y-129048816D01*
X103958816Y-128921262D01*
X104054789Y-128768522D01*
X104114368Y-128598255D01*
X104114369Y-128598249D01*
X104134565Y-128419003D01*
X104134565Y-128418996D01*
X104114369Y-128239750D01*
X104114368Y-128239745D01*
X104099298Y-128196678D01*
X104054789Y-128069478D01*
X104043601Y-128051673D01*
X104001478Y-127984634D01*
X103958816Y-127916738D01*
X103831262Y-127789184D01*
X103768147Y-127749526D01*
X103678523Y-127693211D01*
X103508254Y-127633631D01*
X103508249Y-127633630D01*
X103329004Y-127613435D01*
X103328996Y-127613435D01*
X103149750Y-127633630D01*
X103149745Y-127633631D01*
X102979476Y-127693211D01*
X102826737Y-127789184D01*
X102699184Y-127916737D01*
X102694841Y-127922184D01*
X102692665Y-127920449D01*
X102649750Y-127958403D01*
X102580695Y-127969045D01*
X102516849Y-127940665D01*
X102478482Y-127882272D01*
X102473100Y-127846135D01*
X102473100Y-125434242D01*
X102492785Y-125367203D01*
X102545589Y-125321448D01*
X102583214Y-125311022D01*
X102650954Y-125303390D01*
X102729250Y-125294569D01*
X102729253Y-125294568D01*
X102729255Y-125294568D01*
X102899522Y-125234989D01*
X103052262Y-125139016D01*
X103179816Y-125011462D01*
X103275789Y-124858722D01*
X103335368Y-124688455D01*
X103336405Y-124679254D01*
X103355565Y-124509203D01*
X103355565Y-124509196D01*
X103354529Y-124500003D01*
X104544435Y-124500003D01*
X104564630Y-124679249D01*
X104564631Y-124679254D01*
X104624211Y-124849523D01*
X104720183Y-125002262D01*
X104720184Y-125002262D01*
X104847738Y-125129816D01*
X104878613Y-125149216D01*
X104992450Y-125220745D01*
X105000478Y-125225789D01*
X105138752Y-125274173D01*
X105170745Y-125285368D01*
X105170750Y-125285369D01*
X105349996Y-125305565D01*
X105350000Y-125305565D01*
X105350004Y-125305565D01*
X105529249Y-125285369D01*
X105529252Y-125285368D01*
X105529255Y-125285368D01*
X105699522Y-125225789D01*
X105852262Y-125129816D01*
X105979816Y-125002262D01*
X106075789Y-124849522D01*
X106135368Y-124679255D01*
X106135369Y-124679249D01*
X106155565Y-124500003D01*
X106155565Y-124499996D01*
X106135369Y-124320750D01*
X106135368Y-124320745D01*
X106099287Y-124217631D01*
X106075789Y-124150478D01*
X105979816Y-123997738D01*
X105852262Y-123870184D01*
X105848307Y-123867699D01*
X105699523Y-123774211D01*
X105529254Y-123714631D01*
X105529249Y-123714630D01*
X105350004Y-123694435D01*
X105349996Y-123694435D01*
X105170750Y-123714630D01*
X105170745Y-123714631D01*
X105000476Y-123774211D01*
X104847737Y-123870184D01*
X104720184Y-123997737D01*
X104624211Y-124150476D01*
X104564631Y-124320745D01*
X104564630Y-124320750D01*
X104544435Y-124499996D01*
X104544435Y-124500003D01*
X103354529Y-124500003D01*
X103335369Y-124329950D01*
X103335368Y-124329945D01*
X103332149Y-124320745D01*
X103275789Y-124159678D01*
X103179816Y-124006938D01*
X103052262Y-123879384D01*
X103037620Y-123870184D01*
X102899523Y-123783411D01*
X102729254Y-123723831D01*
X102729249Y-123723830D01*
X102583217Y-123707377D01*
X102518803Y-123680311D01*
X102479247Y-123622716D01*
X102473100Y-123584157D01*
X102473100Y-123406638D01*
X102492785Y-123339599D01*
X102509414Y-123318962D01*
X104128791Y-121699584D01*
X104134881Y-121694243D01*
X104161907Y-121673507D01*
X104185115Y-121643262D01*
X104254347Y-121553038D01*
X104308497Y-121422306D01*
X104351533Y-121368901D01*
X104491715Y-121368901D01*
X104533940Y-121414254D01*
X104546347Y-121483014D01*
X104546278Y-121483641D01*
X104544436Y-121499996D01*
X104544435Y-121500001D01*
X104544435Y-121500003D01*
X104564630Y-121679249D01*
X104564631Y-121679251D01*
X104564631Y-121679253D01*
X104564632Y-121679255D01*
X104586255Y-121741050D01*
X104624211Y-121849523D01*
X104720183Y-122002262D01*
X104720184Y-122002262D01*
X104847738Y-122129816D01*
X105000478Y-122225789D01*
X105092486Y-122257984D01*
X105170745Y-122285368D01*
X105170750Y-122285369D01*
X105349996Y-122305565D01*
X105350000Y-122305565D01*
X105350004Y-122305565D01*
X105529249Y-122285369D01*
X105529252Y-122285368D01*
X105529255Y-122285368D01*
X105699522Y-122225789D01*
X105852262Y-122129816D01*
X105979816Y-122002262D01*
X106075789Y-121849522D01*
X106135368Y-121679255D01*
X106135368Y-121679253D01*
X106135369Y-121679251D01*
X106135369Y-121679249D01*
X106155565Y-121500003D01*
X106155565Y-121499996D01*
X106135369Y-121320750D01*
X106135368Y-121320745D01*
X106100233Y-121220335D01*
X106075789Y-121150478D01*
X105979816Y-120997738D01*
X105852262Y-120870184D01*
X105808140Y-120842460D01*
X105699523Y-120774211D01*
X105529254Y-120714631D01*
X105529249Y-120714630D01*
X105350004Y-120694435D01*
X105349996Y-120694435D01*
X105170750Y-120714630D01*
X105170745Y-120714631D01*
X105000476Y-120774211D01*
X104847737Y-120870184D01*
X104720184Y-120997737D01*
X104624209Y-121150480D01*
X104573317Y-121295921D01*
X104532596Y-121352697D01*
X104491715Y-121368901D01*
X104351533Y-121368901D01*
X104352336Y-121367904D01*
X104389302Y-121355600D01*
X104348679Y-121316600D01*
X104336243Y-121269875D01*
X104333337Y-121270258D01*
X104327831Y-121228436D01*
X104327300Y-121220335D01*
X104327300Y-120206140D01*
X104346985Y-120139101D01*
X104363621Y-120118457D01*
X104380415Y-120101663D01*
X104388111Y-120089416D01*
X104476389Y-119948922D01*
X104535968Y-119778655D01*
X104536985Y-119769630D01*
X104556165Y-119599403D01*
X104556165Y-119599396D01*
X104535969Y-119420150D01*
X104535968Y-119420145D01*
X104535967Y-119420144D01*
X104476389Y-119249878D01*
X104380416Y-119097138D01*
X104252862Y-118969584D01*
X104233371Y-118957337D01*
X104100123Y-118873611D01*
X103929854Y-118814031D01*
X103929849Y-118814030D01*
X103750604Y-118793835D01*
X103750596Y-118793835D01*
X103571350Y-118814030D01*
X103571345Y-118814031D01*
X103401076Y-118873611D01*
X103248337Y-118969584D01*
X103120784Y-119097137D01*
X103024811Y-119249876D01*
X102965231Y-119420145D01*
X102965230Y-119420150D01*
X102945035Y-119599396D01*
X102945035Y-119599403D01*
X102965230Y-119778649D01*
X102965231Y-119778654D01*
X103024811Y-119948923D01*
X103120784Y-120101662D01*
X103137581Y-120118459D01*
X103171066Y-120179782D01*
X103173900Y-120206140D01*
X103173900Y-120842460D01*
X103154215Y-120909499D01*
X103101411Y-120955254D01*
X103032253Y-120965198D01*
X102968697Y-120936173D01*
X102962219Y-120930141D01*
X102902262Y-120870184D01*
X102749523Y-120774211D01*
X102579254Y-120714631D01*
X102579249Y-120714630D01*
X102400004Y-120694435D01*
X102399996Y-120694435D01*
X102220750Y-120714630D01*
X102220745Y-120714631D01*
X102050476Y-120774211D01*
X101897737Y-120870184D01*
X101770184Y-120997737D01*
X101674211Y-121150476D01*
X101614631Y-121320745D01*
X101614630Y-121320750D01*
X101594435Y-121499996D01*
X101594435Y-121500003D01*
X101614630Y-121679249D01*
X101614631Y-121679251D01*
X101614631Y-121679253D01*
X101614632Y-121679255D01*
X101636255Y-121741050D01*
X101674211Y-121849523D01*
X101770184Y-122002262D01*
X101894891Y-122126969D01*
X101928376Y-122188292D01*
X101923392Y-122257984D01*
X101894891Y-122302331D01*
X101518213Y-122679009D01*
X101512110Y-122684361D01*
X101485093Y-122705092D01*
X101449421Y-122751580D01*
X101392653Y-122825561D01*
X101334544Y-122965850D01*
X101334543Y-122965852D01*
X101314724Y-123116398D01*
X101319168Y-123150167D01*
X101319699Y-123158266D01*
X101319699Y-143834783D01*
X101300014Y-143901822D01*
X101247210Y-143947577D01*
X101236656Y-143951824D01*
X101164674Y-143977012D01*
X101011937Y-144072984D01*
X100912181Y-144172741D01*
X100850858Y-144206226D01*
X100781166Y-144201242D01*
X100725233Y-144159370D01*
X100700816Y-144093906D01*
X100700500Y-144085060D01*
X100700500Y-104607103D01*
X109444435Y-104607103D01*
X109464630Y-104786349D01*
X109464631Y-104786354D01*
X109524211Y-104956623D01*
X109620183Y-105109362D01*
X109620184Y-105109362D01*
X109747738Y-105236916D01*
X109900478Y-105332889D01*
X110070745Y-105392468D01*
X110070750Y-105392469D01*
X110249996Y-105412665D01*
X110250000Y-105412665D01*
X110250004Y-105412665D01*
X110429249Y-105392469D01*
X110429252Y-105392468D01*
X110429255Y-105392468D01*
X110599522Y-105332889D01*
X110752262Y-105236916D01*
X110879816Y-105109362D01*
X110975789Y-104956622D01*
X111035368Y-104786355D01*
X111055565Y-104607100D01*
X111049770Y-104555671D01*
X111061824Y-104486850D01*
X111109172Y-104435470D01*
X111132035Y-104424745D01*
X111161691Y-104414368D01*
X111300522Y-104365789D01*
X111453262Y-104269816D01*
X111453266Y-104269811D01*
X111458705Y-104265475D01*
X111460467Y-104267684D01*
X111510577Y-104240289D01*
X111580271Y-104245238D01*
X111602969Y-104256448D01*
X111724463Y-104332788D01*
X111759478Y-104354789D01*
X111898872Y-104403565D01*
X111929745Y-104414368D01*
X111929750Y-104414369D01*
X112108996Y-104434565D01*
X112109000Y-104434565D01*
X112109004Y-104434565D01*
X112288249Y-104414369D01*
X112288252Y-104414368D01*
X112288255Y-104414368D01*
X112458522Y-104354789D01*
X112611262Y-104258816D01*
X112611262Y-104258815D01*
X112616706Y-104254475D01*
X112618417Y-104256621D01*
X112668783Y-104229092D01*
X112738477Y-104234047D01*
X112761165Y-104245253D01*
X112886154Y-104323789D01*
X112900478Y-104332789D01*
X113045027Y-104383369D01*
X113070745Y-104392368D01*
X113070750Y-104392369D01*
X113249996Y-104412565D01*
X113250000Y-104412565D01*
X113250004Y-104412565D01*
X113429249Y-104392369D01*
X113429252Y-104392368D01*
X113429255Y-104392368D01*
X113599522Y-104332789D01*
X113752262Y-104236816D01*
X113879816Y-104109262D01*
X113975789Y-103956522D01*
X114035368Y-103786255D01*
X114046052Y-103691430D01*
X114055565Y-103607003D01*
X114055565Y-103606996D01*
X114035369Y-103427750D01*
X114035368Y-103427745D01*
X114035368Y-103427744D01*
X113975789Y-103257478D01*
X113879816Y-103104738D01*
X113752262Y-102977184D01*
X113737939Y-102968184D01*
X113599523Y-102881211D01*
X113429254Y-102821631D01*
X113429249Y-102821630D01*
X113250004Y-102801435D01*
X113249996Y-102801435D01*
X113070750Y-102821630D01*
X113070745Y-102821631D01*
X112900476Y-102881211D01*
X112747737Y-102977184D01*
X112742295Y-102981525D01*
X112740594Y-102979393D01*
X112690113Y-103006930D01*
X112620423Y-103001916D01*
X112597836Y-102990748D01*
X112458522Y-102903211D01*
X112395650Y-102881211D01*
X112288254Y-102843631D01*
X112288249Y-102843630D01*
X112109004Y-102823435D01*
X112108996Y-102823435D01*
X111929750Y-102843630D01*
X111929745Y-102843631D01*
X111759476Y-102903211D01*
X111606737Y-102999184D01*
X111601295Y-103003525D01*
X111599546Y-103001332D01*
X111549298Y-103028737D01*
X111479609Y-103023717D01*
X111457030Y-103012551D01*
X111300523Y-102914211D01*
X111130254Y-102854631D01*
X111130249Y-102854630D01*
X110951004Y-102834435D01*
X110950996Y-102834435D01*
X110771750Y-102854630D01*
X110771745Y-102854631D01*
X110601476Y-102914211D01*
X110448737Y-103010184D01*
X110321184Y-103137737D01*
X110225211Y-103290476D01*
X110165631Y-103460745D01*
X110165630Y-103460750D01*
X110145435Y-103639996D01*
X110145435Y-103640004D01*
X110151229Y-103691430D01*
X110139174Y-103760252D01*
X110091825Y-103811631D01*
X110068964Y-103822354D01*
X109900480Y-103881309D01*
X109747737Y-103977284D01*
X109620184Y-104104837D01*
X109524211Y-104257576D01*
X109464631Y-104427845D01*
X109464630Y-104427850D01*
X109444435Y-104607096D01*
X109444435Y-104607103D01*
X100700500Y-104607103D01*
X100700500Y-103598003D01*
X105944435Y-103598003D01*
X105964630Y-103777249D01*
X105964631Y-103777254D01*
X106024211Y-103947523D01*
X106120183Y-104100262D01*
X106120184Y-104100262D01*
X106247738Y-104227816D01*
X106400478Y-104323789D01*
X106426196Y-104332788D01*
X106570745Y-104383368D01*
X106570750Y-104383369D01*
X106749996Y-104403565D01*
X106750000Y-104403565D01*
X106750004Y-104403565D01*
X106929249Y-104383369D01*
X106929252Y-104383368D01*
X106929255Y-104383368D01*
X107099522Y-104323789D01*
X107252262Y-104227816D01*
X107379816Y-104100262D01*
X107475789Y-103947522D01*
X107535368Y-103777255D01*
X107545038Y-103691430D01*
X107555565Y-103598003D01*
X107555565Y-103597996D01*
X107535369Y-103418750D01*
X107535368Y-103418745D01*
X107478938Y-103257478D01*
X107475789Y-103248478D01*
X107379816Y-103095738D01*
X107252262Y-102968184D01*
X107166365Y-102914211D01*
X107099523Y-102872211D01*
X106929254Y-102812631D01*
X106929249Y-102812630D01*
X106750004Y-102792435D01*
X106749996Y-102792435D01*
X106570750Y-102812630D01*
X106570745Y-102812631D01*
X106400476Y-102872211D01*
X106247737Y-102968184D01*
X106120184Y-103095737D01*
X106024211Y-103248476D01*
X105964631Y-103418745D01*
X105964630Y-103418750D01*
X105944435Y-103597996D01*
X105944435Y-103598003D01*
X100700500Y-103598003D01*
X100700500Y-99155603D01*
X102962435Y-99155603D01*
X102982630Y-99334849D01*
X102982631Y-99334854D01*
X103042211Y-99505123D01*
X103132540Y-99648879D01*
X103138184Y-99657862D01*
X103265738Y-99785416D01*
X103339403Y-99831703D01*
X103379061Y-99856622D01*
X103418478Y-99881389D01*
X103538384Y-99923346D01*
X103588745Y-99940968D01*
X103588750Y-99940969D01*
X103767996Y-99961165D01*
X103768000Y-99961165D01*
X103768004Y-99961165D01*
X103947249Y-99940969D01*
X103947252Y-99940968D01*
X103947255Y-99940968D01*
X103947256Y-99940967D01*
X103947259Y-99940967D01*
X103997616Y-99923346D01*
X104024836Y-99913820D01*
X104094615Y-99910258D01*
X104155243Y-99944987D01*
X104187470Y-100006980D01*
X104181066Y-100076555D01*
X104170786Y-100096834D01*
X104091211Y-100223476D01*
X104031631Y-100393745D01*
X104031630Y-100393750D01*
X104011435Y-100572996D01*
X104011435Y-100573003D01*
X104031630Y-100752249D01*
X104031631Y-100752254D01*
X104091211Y-100922523D01*
X104141315Y-101002262D01*
X104187184Y-101075262D01*
X104314738Y-101202816D01*
X104405080Y-101259581D01*
X104446118Y-101285368D01*
X104467478Y-101298789D01*
X104556148Y-101329816D01*
X104637745Y-101358368D01*
X104637750Y-101358369D01*
X104816996Y-101378565D01*
X104817000Y-101378565D01*
X104817004Y-101378565D01*
X104996249Y-101358369D01*
X104996252Y-101358368D01*
X104996255Y-101358368D01*
X105166522Y-101298789D01*
X105319262Y-101202816D01*
X105446816Y-101075262D01*
X105542789Y-100922522D01*
X105585660Y-100800003D01*
X107368435Y-100800003D01*
X107388630Y-100979249D01*
X107388631Y-100979254D01*
X107448211Y-101149523D01*
X107498662Y-101229815D01*
X107544184Y-101302262D01*
X107671738Y-101429816D01*
X107824478Y-101525789D01*
X107994745Y-101585367D01*
X107994745Y-101585368D01*
X107994750Y-101585369D01*
X108173996Y-101605565D01*
X108174000Y-101605565D01*
X108174004Y-101605565D01*
X108353249Y-101585369D01*
X108353252Y-101585368D01*
X108353255Y-101585368D01*
X108523522Y-101525789D01*
X108676262Y-101429816D01*
X108708259Y-101397818D01*
X108769579Y-101364334D01*
X108839271Y-101369318D01*
X108861912Y-101380507D01*
X108933975Y-101425788D01*
X109104245Y-101485368D01*
X109104250Y-101485369D01*
X109283496Y-101505565D01*
X109283500Y-101505565D01*
X109283504Y-101505565D01*
X109462749Y-101485369D01*
X109462752Y-101485368D01*
X109462755Y-101485368D01*
X109633022Y-101425789D01*
X109785762Y-101329816D01*
X109820458Y-101295119D01*
X109881781Y-101261633D01*
X109951473Y-101266617D01*
X109974111Y-101277805D01*
X109986150Y-101285369D01*
X110050475Y-101325788D01*
X110220745Y-101385368D01*
X110220750Y-101385369D01*
X110399996Y-101405565D01*
X110400000Y-101405565D01*
X110400004Y-101405565D01*
X110579249Y-101385369D01*
X110579252Y-101385368D01*
X110579255Y-101385368D01*
X110749522Y-101325789D01*
X110902262Y-101229816D01*
X111029816Y-101102262D01*
X111125789Y-100949522D01*
X111185368Y-100779255D01*
X111188410Y-100752255D01*
X111205565Y-100600003D01*
X111205565Y-100599996D01*
X111185369Y-100420750D01*
X111185368Y-100420745D01*
X111142326Y-100297738D01*
X111125789Y-100250478D01*
X111029816Y-100097738D01*
X110902262Y-99970184D01*
X110879698Y-99956006D01*
X110749523Y-99874211D01*
X110628043Y-99831703D01*
X111713435Y-99831703D01*
X111733630Y-100010949D01*
X111733631Y-100010954D01*
X111793211Y-100181223D01*
X111866422Y-100297737D01*
X111889184Y-100333962D01*
X112016738Y-100461516D01*
X112169478Y-100557489D01*
X112290976Y-100600003D01*
X112339745Y-100617068D01*
X112339750Y-100617069D01*
X112518996Y-100637265D01*
X112519000Y-100637265D01*
X112519004Y-100637265D01*
X112698249Y-100617069D01*
X112698252Y-100617068D01*
X112698255Y-100617068D01*
X112868522Y-100557489D01*
X112960010Y-100500003D01*
X118390435Y-100500003D01*
X118410630Y-100679249D01*
X118410631Y-100679254D01*
X118470211Y-100849523D01*
X118533045Y-100949522D01*
X118566184Y-101002262D01*
X118693738Y-101129816D01*
X118846478Y-101225789D01*
X118963158Y-101266617D01*
X119016745Y-101285368D01*
X119016750Y-101285369D01*
X119195996Y-101305565D01*
X119196000Y-101305565D01*
X119196004Y-101305565D01*
X119375249Y-101285369D01*
X119375252Y-101285368D01*
X119375255Y-101285368D01*
X119545522Y-101225789D01*
X119698262Y-101129816D01*
X119825816Y-101002262D01*
X119921789Y-100849522D01*
X119981368Y-100679255D01*
X119987960Y-100620750D01*
X119998089Y-100530854D01*
X120025155Y-100466440D01*
X120082750Y-100426885D01*
X120135193Y-100421517D01*
X120250997Y-100434565D01*
X120251000Y-100434565D01*
X120251004Y-100434565D01*
X120430249Y-100414369D01*
X120430252Y-100414368D01*
X120430255Y-100414368D01*
X120600522Y-100354789D01*
X120753262Y-100258816D01*
X120880816Y-100131262D01*
X120976789Y-99978522D01*
X121036368Y-99808255D01*
X121037806Y-99795497D01*
X121042370Y-99754988D01*
X121069436Y-99690573D01*
X121127030Y-99651018D01*
X121196867Y-99648879D01*
X121256774Y-99684837D01*
X121268070Y-99699611D01*
X121270184Y-99702262D01*
X121397738Y-99829816D01*
X121468392Y-99874211D01*
X121528448Y-99911947D01*
X121550478Y-99925789D01*
X121701180Y-99978522D01*
X121720745Y-99985368D01*
X121720750Y-99985369D01*
X121899996Y-100005565D01*
X121900000Y-100005565D01*
X121900004Y-100005565D01*
X122079249Y-99985369D01*
X122079252Y-99985368D01*
X122079255Y-99985368D01*
X122249522Y-99925789D01*
X122402262Y-99829816D01*
X122529816Y-99702262D01*
X122625789Y-99549522D01*
X122685368Y-99379255D01*
X122690371Y-99334854D01*
X122705565Y-99200003D01*
X122705565Y-99199996D01*
X122685369Y-99020750D01*
X122685368Y-99020745D01*
X122674587Y-98989936D01*
X122625789Y-98850478D01*
X122529816Y-98697738D01*
X122402262Y-98570184D01*
X122331600Y-98525784D01*
X122249523Y-98474211D01*
X122079254Y-98414631D01*
X122079249Y-98414630D01*
X121900004Y-98394435D01*
X121899996Y-98394435D01*
X121720746Y-98414631D01*
X121720742Y-98414632D01*
X121661210Y-98435462D01*
X121591431Y-98439023D01*
X121530805Y-98404293D01*
X121515264Y-98384392D01*
X121506365Y-98370230D01*
X121460816Y-98297738D01*
X121333262Y-98170184D01*
X121264623Y-98127055D01*
X121180523Y-98074211D01*
X121010254Y-98014631D01*
X121010249Y-98014630D01*
X120831004Y-97994435D01*
X120830996Y-97994435D01*
X120651750Y-98014630D01*
X120651745Y-98014631D01*
X120481476Y-98074211D01*
X120328737Y-98170184D01*
X120201184Y-98297737D01*
X120105211Y-98450476D01*
X120045631Y-98620745D01*
X120045630Y-98620749D01*
X120027485Y-98781795D01*
X120000418Y-98846209D01*
X119942823Y-98885764D01*
X119872986Y-98887901D01*
X119838293Y-98872905D01*
X119692523Y-98781311D01*
X119522254Y-98721731D01*
X119522249Y-98721730D01*
X119343004Y-98701535D01*
X119342996Y-98701535D01*
X119163750Y-98721730D01*
X119163745Y-98721731D01*
X118993476Y-98781311D01*
X118840737Y-98877284D01*
X118713184Y-99004837D01*
X118617211Y-99157576D01*
X118557631Y-99327845D01*
X118557630Y-99327850D01*
X118537435Y-99507096D01*
X118537435Y-99507103D01*
X118557630Y-99686349D01*
X118557632Y-99686357D01*
X118614829Y-99849817D01*
X118618390Y-99919596D01*
X118585470Y-99978450D01*
X118566186Y-99997734D01*
X118470211Y-100150476D01*
X118410631Y-100320745D01*
X118410630Y-100320750D01*
X118390435Y-100499996D01*
X118390435Y-100500003D01*
X112960010Y-100500003D01*
X113021262Y-100461516D01*
X113148816Y-100333962D01*
X113244789Y-100181222D01*
X113304368Y-100010955D01*
X113304816Y-100006980D01*
X113324565Y-99831703D01*
X113324565Y-99831696D01*
X113304369Y-99652450D01*
X113304368Y-99652445D01*
X113261643Y-99530345D01*
X113244789Y-99482178D01*
X113148816Y-99329438D01*
X113021262Y-99201884D01*
X112963652Y-99165685D01*
X112868523Y-99105911D01*
X112698254Y-99046331D01*
X112698249Y-99046330D01*
X112519004Y-99026135D01*
X112518996Y-99026135D01*
X112339750Y-99046330D01*
X112339745Y-99046331D01*
X112169476Y-99105911D01*
X112016737Y-99201884D01*
X111889184Y-99329437D01*
X111793211Y-99482176D01*
X111733631Y-99652445D01*
X111733630Y-99652450D01*
X111713435Y-99831696D01*
X111713435Y-99831703D01*
X110628043Y-99831703D01*
X110579254Y-99814631D01*
X110579249Y-99814630D01*
X110400004Y-99794435D01*
X110399996Y-99794435D01*
X110220750Y-99814630D01*
X110220745Y-99814631D01*
X110050476Y-99874211D01*
X109897737Y-99970184D01*
X109863039Y-100004882D01*
X109801716Y-100038367D01*
X109732024Y-100033381D01*
X109709387Y-100022194D01*
X109633024Y-99974212D01*
X109633023Y-99974211D01*
X109580996Y-99956006D01*
X109524221Y-99915284D01*
X109498474Y-99850331D01*
X109498732Y-99825080D01*
X109499492Y-99818340D01*
X109502065Y-99795501D01*
X109501178Y-99787632D01*
X109481869Y-99616251D01*
X109481868Y-99616246D01*
X109466187Y-99571433D01*
X109422289Y-99445979D01*
X109326316Y-99293239D01*
X109198762Y-99165685D01*
X109182712Y-99155600D01*
X109046023Y-99069712D01*
X108875754Y-99010132D01*
X108875749Y-99010131D01*
X108696504Y-98989936D01*
X108696496Y-98989936D01*
X108517250Y-99010131D01*
X108517245Y-99010132D01*
X108346976Y-99069712D01*
X108194237Y-99165685D01*
X108066684Y-99293238D01*
X107970711Y-99445977D01*
X107911131Y-99616246D01*
X107911130Y-99616251D01*
X107890935Y-99795497D01*
X107890935Y-99795505D01*
X107907553Y-99943002D01*
X107895498Y-100011824D01*
X107848149Y-100063203D01*
X107825296Y-100073924D01*
X107824479Y-100074209D01*
X107671737Y-100170184D01*
X107544184Y-100297737D01*
X107448211Y-100450476D01*
X107388631Y-100620745D01*
X107388630Y-100620750D01*
X107368435Y-100799996D01*
X107368435Y-100800003D01*
X105585660Y-100800003D01*
X105602368Y-100752255D01*
X105617185Y-100620750D01*
X105622565Y-100573003D01*
X105622565Y-100572996D01*
X105602369Y-100393750D01*
X105602368Y-100393745D01*
X105555154Y-100258815D01*
X105542789Y-100223478D01*
X105446816Y-100070738D01*
X105319262Y-99943184D01*
X105291578Y-99925789D01*
X105166523Y-99847211D01*
X104996254Y-99787631D01*
X104996249Y-99787630D01*
X104817004Y-99767435D01*
X104816996Y-99767435D01*
X104637750Y-99787630D01*
X104637742Y-99787632D01*
X104560161Y-99814779D01*
X104490382Y-99818340D01*
X104429755Y-99783611D01*
X104397528Y-99721617D01*
X104403934Y-99652042D01*
X104414214Y-99631764D01*
X104493788Y-99505124D01*
X104514484Y-99445979D01*
X104553368Y-99334855D01*
X104553369Y-99334849D01*
X104573565Y-99155603D01*
X104573565Y-99155596D01*
X104553369Y-98976350D01*
X104553368Y-98976345D01*
X104509325Y-98850478D01*
X104493789Y-98806078D01*
X104397816Y-98653338D01*
X104270262Y-98525784D01*
X104238959Y-98506115D01*
X104117523Y-98429811D01*
X103947254Y-98370231D01*
X103947249Y-98370230D01*
X103768004Y-98350035D01*
X103767996Y-98350035D01*
X103588750Y-98370230D01*
X103588745Y-98370231D01*
X103418476Y-98429811D01*
X103265737Y-98525784D01*
X103138184Y-98653337D01*
X103042211Y-98806076D01*
X102982631Y-98976345D01*
X102982630Y-98976350D01*
X102962435Y-99155596D01*
X102962435Y-99155603D01*
X100700500Y-99155603D01*
X100700500Y-97232180D01*
X101345400Y-97232180D01*
X101384715Y-97442497D01*
X101462006Y-97642007D01*
X101462008Y-97642013D01*
X101574287Y-97823349D01*
X101574642Y-97823922D01*
X101718786Y-97982041D01*
X101889530Y-98110981D01*
X102081058Y-98206350D01*
X102081064Y-98206353D01*
X102246743Y-98253492D01*
X102286852Y-98264904D01*
X102446525Y-98279700D01*
X102446528Y-98279700D01*
X102553272Y-98279700D01*
X102553275Y-98279700D01*
X102712948Y-98264904D01*
X102843552Y-98227744D01*
X102918735Y-98206353D01*
X102918737Y-98206351D01*
X102918740Y-98206351D01*
X103110270Y-98110981D01*
X103281014Y-97982041D01*
X103425158Y-97823922D01*
X103537793Y-97642010D01*
X103615085Y-97442497D01*
X103654400Y-97232180D01*
X103654400Y-97221403D01*
X104239435Y-97221403D01*
X104259630Y-97400649D01*
X104259631Y-97400654D01*
X104319211Y-97570923D01*
X104415184Y-97723662D01*
X104542739Y-97851217D01*
X104601186Y-97887942D01*
X104647476Y-97940277D01*
X104658433Y-98006818D01*
X104647935Y-98099996D01*
X104647935Y-98100003D01*
X104668130Y-98279249D01*
X104668131Y-98279254D01*
X104727711Y-98449523D01*
X104803528Y-98570184D01*
X104823684Y-98602262D01*
X104951238Y-98729816D01*
X105103978Y-98825789D01*
X105238628Y-98872905D01*
X105274245Y-98885368D01*
X105274250Y-98885369D01*
X105453496Y-98905565D01*
X105453500Y-98905565D01*
X105453504Y-98905565D01*
X105632749Y-98885369D01*
X105632752Y-98885368D01*
X105632755Y-98885368D01*
X105803022Y-98825789D01*
X105955762Y-98729816D01*
X106083316Y-98602262D01*
X106179289Y-98449522D01*
X106238868Y-98279255D01*
X106244889Y-98225823D01*
X106253750Y-98147173D01*
X106280816Y-98082759D01*
X106338411Y-98043204D01*
X106408248Y-98041066D01*
X106468154Y-98077024D01*
X106481963Y-98095083D01*
X106514184Y-98146362D01*
X106641738Y-98273916D01*
X106699592Y-98310268D01*
X106762880Y-98350035D01*
X106794478Y-98369889D01*
X106922346Y-98414632D01*
X106964745Y-98429468D01*
X106964750Y-98429469D01*
X107143996Y-98449665D01*
X107144000Y-98449665D01*
X107144004Y-98449665D01*
X107323249Y-98429469D01*
X107323252Y-98429468D01*
X107323255Y-98429468D01*
X107493522Y-98369889D01*
X107646262Y-98273916D01*
X107773816Y-98146362D01*
X107869789Y-97993622D01*
X107929368Y-97823355D01*
X107930932Y-97809473D01*
X107949565Y-97644103D01*
X107949565Y-97644096D01*
X107929369Y-97464850D01*
X107929368Y-97464845D01*
X107906907Y-97400655D01*
X107869789Y-97294578D01*
X107773816Y-97141838D01*
X107773815Y-97141837D01*
X107769475Y-97136395D01*
X107771977Y-97134399D01*
X107745229Y-97085413D01*
X107750213Y-97015721D01*
X107792085Y-96959788D01*
X107825442Y-96942013D01*
X107873520Y-96925190D01*
X107884471Y-96918309D01*
X108016575Y-96835303D01*
X108598435Y-96835303D01*
X108618630Y-97014549D01*
X108618631Y-97014554D01*
X108678211Y-97184823D01*
X108755943Y-97308532D01*
X108774184Y-97337562D01*
X108901738Y-97465116D01*
X109054478Y-97561089D01*
X109160758Y-97598278D01*
X109224745Y-97620668D01*
X109224750Y-97620669D01*
X109403996Y-97640865D01*
X109404000Y-97640865D01*
X109404003Y-97640865D01*
X109529125Y-97626767D01*
X109597947Y-97638821D01*
X109649327Y-97686170D01*
X109666951Y-97753781D01*
X109660051Y-97790941D01*
X109614632Y-97920742D01*
X109614630Y-97920750D01*
X109594435Y-98099996D01*
X109594435Y-98100003D01*
X109614630Y-98279249D01*
X109614631Y-98279254D01*
X109674211Y-98449523D01*
X109750028Y-98570184D01*
X109770184Y-98602262D01*
X109897738Y-98729816D01*
X110050478Y-98825789D01*
X110185128Y-98872905D01*
X110220745Y-98885368D01*
X110220750Y-98885369D01*
X110399996Y-98905565D01*
X110400000Y-98905565D01*
X110400004Y-98905565D01*
X110579249Y-98885369D01*
X110579252Y-98885368D01*
X110579255Y-98885368D01*
X110749522Y-98825789D01*
X110902262Y-98729816D01*
X111029816Y-98602262D01*
X111125789Y-98449522D01*
X111174516Y-98310267D01*
X111215238Y-98253492D01*
X111280190Y-98227744D01*
X111348752Y-98241200D01*
X111396552Y-98285250D01*
X111455184Y-98378562D01*
X111582738Y-98506116D01*
X111673080Y-98562881D01*
X111684701Y-98570184D01*
X111735478Y-98602089D01*
X111881936Y-98653337D01*
X111905745Y-98661668D01*
X111905750Y-98661669D01*
X112084996Y-98681865D01*
X112085000Y-98681865D01*
X112085004Y-98681865D01*
X112264249Y-98661669D01*
X112264252Y-98661668D01*
X112264255Y-98661668D01*
X112434522Y-98602089D01*
X112587262Y-98506116D01*
X112714816Y-98378562D01*
X112810789Y-98225822D01*
X112870368Y-98055555D01*
X112874979Y-98014630D01*
X112890565Y-97876303D01*
X112890565Y-97876296D01*
X112870369Y-97697050D01*
X112870368Y-97697045D01*
X112857875Y-97661341D01*
X112810789Y-97526778D01*
X112810301Y-97526002D01*
X112733593Y-97403921D01*
X112714816Y-97374038D01*
X112587262Y-97246484D01*
X112566835Y-97233649D01*
X112434520Y-97150509D01*
X112398534Y-97137917D01*
X112341758Y-97097195D01*
X112316012Y-97032242D01*
X112322448Y-96979924D01*
X112341368Y-96925855D01*
X112342218Y-96918311D01*
X112361565Y-96746603D01*
X112361565Y-96746596D01*
X112341369Y-96567350D01*
X112341368Y-96567345D01*
X112334922Y-96548923D01*
X112281789Y-96397078D01*
X112271328Y-96380430D01*
X112241549Y-96333037D01*
X112220667Y-96299803D01*
X112647435Y-96299803D01*
X112667630Y-96479049D01*
X112667631Y-96479054D01*
X112727211Y-96649323D01*
X112823088Y-96801909D01*
X112823184Y-96802062D01*
X112950738Y-96929616D01*
X113040699Y-96986142D01*
X113103478Y-97025589D01*
X113280318Y-97087468D01*
X113279574Y-97089592D01*
X113331210Y-97118468D01*
X113364073Y-97180127D01*
X113365867Y-97191374D01*
X113370630Y-97233649D01*
X113430210Y-97403921D01*
X113473232Y-97472389D01*
X113526184Y-97556662D01*
X113653738Y-97684216D01*
X113680284Y-97700896D01*
X113787954Y-97768550D01*
X113806478Y-97780189D01*
X113931434Y-97823913D01*
X113976745Y-97839768D01*
X113976750Y-97839769D01*
X114155996Y-97859965D01*
X114156000Y-97859965D01*
X114156004Y-97859965D01*
X114307826Y-97842859D01*
X114376647Y-97854914D01*
X114428027Y-97902263D01*
X114444929Y-97952195D01*
X114464630Y-98127050D01*
X114464631Y-98127054D01*
X114524211Y-98297323D01*
X114607459Y-98429811D01*
X114620184Y-98450062D01*
X114747738Y-98577616D01*
X114900478Y-98673589D01*
X115038057Y-98721730D01*
X115070745Y-98733168D01*
X115070750Y-98733169D01*
X115249996Y-98753365D01*
X115250000Y-98753365D01*
X115250004Y-98753365D01*
X115429249Y-98733169D01*
X115429252Y-98733168D01*
X115429255Y-98733168D01*
X115599522Y-98673589D01*
X115752262Y-98577616D01*
X115879816Y-98450062D01*
X115975789Y-98297322D01*
X116035368Y-98127055D01*
X116037179Y-98110981D01*
X116055565Y-97947803D01*
X116055565Y-97947796D01*
X116035369Y-97768550D01*
X116035368Y-97768545D01*
X116012444Y-97703033D01*
X115975789Y-97598278D01*
X115879816Y-97445538D01*
X115752262Y-97317984D01*
X115715012Y-97294578D01*
X115599523Y-97222011D01*
X115431121Y-97163085D01*
X115374345Y-97122363D01*
X115348598Y-97057410D01*
X115362054Y-96988849D01*
X115375134Y-96968724D01*
X115377808Y-96965369D01*
X115377816Y-96965362D01*
X115473789Y-96812622D01*
X115473788Y-96812622D01*
X115477494Y-96806726D01*
X115478879Y-96807596D01*
X115519971Y-96762071D01*
X115587396Y-96743748D01*
X115654022Y-96764787D01*
X115672564Y-96780042D01*
X115676184Y-96783662D01*
X115803738Y-96911216D01*
X115956478Y-97007189D01*
X116126744Y-97066767D01*
X116126745Y-97066768D01*
X116126750Y-97066769D01*
X116305996Y-97086965D01*
X116306000Y-97086965D01*
X116306004Y-97086965D01*
X116485249Y-97066769D01*
X116485252Y-97066768D01*
X116485255Y-97066768D01*
X116655522Y-97007189D01*
X116808262Y-96911216D01*
X116935816Y-96783662D01*
X117031789Y-96630922D01*
X117091368Y-96460655D01*
X117091369Y-96460650D01*
X117093150Y-96444844D01*
X117120216Y-96380430D01*
X117177811Y-96340875D01*
X117247647Y-96338737D01*
X117257325Y-96341686D01*
X117432737Y-96403066D01*
X117432743Y-96403067D01*
X117432745Y-96403068D01*
X117432746Y-96403068D01*
X117432750Y-96403069D01*
X117611996Y-96423265D01*
X117612000Y-96423265D01*
X117612004Y-96423265D01*
X117791249Y-96403069D01*
X117791252Y-96403068D01*
X117791255Y-96403068D01*
X117961522Y-96343489D01*
X118114262Y-96247516D01*
X118241816Y-96119962D01*
X118337789Y-95967222D01*
X118397368Y-95796955D01*
X118397369Y-95796949D01*
X118417565Y-95617703D01*
X118417565Y-95617696D01*
X118397369Y-95438450D01*
X118397368Y-95438445D01*
X118397367Y-95438445D01*
X118348925Y-95300003D01*
X121394435Y-95300003D01*
X121414630Y-95479249D01*
X121414631Y-95479254D01*
X121474211Y-95649523D01*
X121555654Y-95779138D01*
X121570184Y-95802262D01*
X121697738Y-95929816D01*
X121777120Y-95979695D01*
X121842555Y-96020811D01*
X121850478Y-96025789D01*
X121919472Y-96049931D01*
X122020745Y-96085368D01*
X122020749Y-96085369D01*
X122101362Y-96094451D01*
X122132363Y-96097944D01*
X122196777Y-96125010D01*
X122236332Y-96182604D01*
X122238471Y-96252441D01*
X122202513Y-96312348D01*
X122158078Y-96338671D01*
X122138987Y-96345104D01*
X121979727Y-96440928D01*
X121979726Y-96440929D01*
X121844790Y-96568746D01*
X121740485Y-96722587D01*
X121740484Y-96722589D01*
X121671691Y-96895244D01*
X121652133Y-97014549D01*
X121643573Y-97066768D01*
X121641622Y-97078667D01*
X121651684Y-97264257D01*
X121651684Y-97264262D01*
X121701405Y-97443343D01*
X121701409Y-97443351D01*
X121788469Y-97607563D01*
X121887085Y-97723662D01*
X121908795Y-97749221D01*
X122056761Y-97861702D01*
X122056762Y-97861702D01*
X122056763Y-97861703D01*
X122225443Y-97939743D01*
X122225451Y-97939746D01*
X122262056Y-97947803D01*
X122406967Y-97979700D01*
X122406970Y-97979700D01*
X122546227Y-97979700D01*
X122546232Y-97979700D01*
X122684675Y-97964643D01*
X122860811Y-97905296D01*
X123020071Y-97809473D01*
X123155008Y-97681654D01*
X123168781Y-97661341D01*
X123181889Y-97642007D01*
X123259313Y-97527815D01*
X123281967Y-97470958D01*
X123328108Y-97355155D01*
X123328109Y-97355151D01*
X123358178Y-97171735D01*
X123348116Y-96986142D01*
X123298392Y-96807052D01*
X123298391Y-96807051D01*
X123296964Y-96801909D01*
X123297996Y-96732047D01*
X123336634Y-96673833D01*
X123375488Y-96651694D01*
X123449522Y-96625789D01*
X123602262Y-96529816D01*
X123729816Y-96402262D01*
X123825789Y-96249522D01*
X123885368Y-96079255D01*
X123891392Y-96025789D01*
X123905565Y-95900003D01*
X123905565Y-95899996D01*
X123885369Y-95720750D01*
X123885368Y-95720745D01*
X123861952Y-95653827D01*
X123825789Y-95550478D01*
X123729816Y-95397738D01*
X123602262Y-95270184D01*
X123599066Y-95268176D01*
X123449523Y-95174211D01*
X123279254Y-95114631D01*
X123279249Y-95114630D01*
X123100004Y-95094435D01*
X123100000Y-95094435D01*
X123079119Y-95096787D01*
X123010298Y-95084730D01*
X122958920Y-95037379D01*
X122948198Y-95014520D01*
X122925788Y-94950476D01*
X122853515Y-94835455D01*
X122829816Y-94797738D01*
X122702262Y-94670184D01*
X122702261Y-94670183D01*
X122549523Y-94574211D01*
X122379254Y-94514631D01*
X122379249Y-94514630D01*
X122200004Y-94494435D01*
X122199996Y-94494435D01*
X122020750Y-94514630D01*
X122020745Y-94514631D01*
X121850476Y-94574211D01*
X121697737Y-94670184D01*
X121570184Y-94797737D01*
X121474211Y-94950476D01*
X121414631Y-95120745D01*
X121414630Y-95120750D01*
X121394435Y-95299996D01*
X121394435Y-95300003D01*
X118348925Y-95300003D01*
X118337789Y-95268178D01*
X118241816Y-95115438D01*
X118114262Y-94987884D01*
X118106567Y-94983049D01*
X117961523Y-94891911D01*
X117791254Y-94832331D01*
X117791249Y-94832330D01*
X117612004Y-94812135D01*
X117611996Y-94812135D01*
X117432750Y-94832330D01*
X117432745Y-94832331D01*
X117262476Y-94891911D01*
X117109737Y-94987884D01*
X116982184Y-95115437D01*
X116886211Y-95268176D01*
X116826631Y-95438445D01*
X116826631Y-95438447D01*
X116824849Y-95454261D01*
X116797779Y-95518673D01*
X116740183Y-95558226D01*
X116670346Y-95560361D01*
X116660674Y-95557413D01*
X116485262Y-95496033D01*
X116485249Y-95496030D01*
X116306004Y-95475835D01*
X116305996Y-95475835D01*
X116126750Y-95496030D01*
X116126745Y-95496031D01*
X115956476Y-95555611D01*
X115803737Y-95651584D01*
X115676184Y-95779137D01*
X115576506Y-95937774D01*
X115575125Y-95936906D01*
X115534002Y-95982444D01*
X115466573Y-96000750D01*
X115399952Y-95979695D01*
X115381435Y-95964457D01*
X115250262Y-95833284D01*
X115097523Y-95737311D01*
X114927254Y-95677731D01*
X114927249Y-95677730D01*
X114748004Y-95657535D01*
X114747996Y-95657535D01*
X114568750Y-95677730D01*
X114568745Y-95677731D01*
X114398476Y-95737311D01*
X114250020Y-95830593D01*
X114182783Y-95849593D01*
X114115948Y-95829225D01*
X114087101Y-95802911D01*
X114082817Y-95797539D01*
X113955262Y-95669984D01*
X113802523Y-95574011D01*
X113632254Y-95514431D01*
X113632249Y-95514430D01*
X113453004Y-95494235D01*
X113452996Y-95494235D01*
X113273750Y-95514430D01*
X113273745Y-95514431D01*
X113103476Y-95574011D01*
X112950737Y-95669984D01*
X112823184Y-95797537D01*
X112727211Y-95950276D01*
X112667631Y-96120545D01*
X112667630Y-96120550D01*
X112647435Y-96299796D01*
X112647435Y-96299803D01*
X112220667Y-96299803D01*
X112185816Y-96244338D01*
X112058262Y-96116784D01*
X112034964Y-96102145D01*
X111905523Y-96020811D01*
X111735254Y-95961231D01*
X111735249Y-95961230D01*
X111556004Y-95941035D01*
X111555996Y-95941035D01*
X111376750Y-95961230D01*
X111376745Y-95961231D01*
X111206476Y-96020811D01*
X111053737Y-96116784D01*
X110926184Y-96244337D01*
X110830211Y-96397076D01*
X110770631Y-96567345D01*
X110770630Y-96567350D01*
X110750435Y-96746596D01*
X110750435Y-96746603D01*
X110770630Y-96925849D01*
X110770631Y-96925854D01*
X110830211Y-97096123D01*
X110888394Y-97188720D01*
X110907394Y-97255957D01*
X110887026Y-97322792D01*
X110833758Y-97368006D01*
X110764502Y-97377243D01*
X110742446Y-97371734D01*
X110579257Y-97314632D01*
X110579249Y-97314630D01*
X110400004Y-97294435D01*
X110399996Y-97294435D01*
X110274873Y-97308532D01*
X110206051Y-97296477D01*
X110154672Y-97249128D01*
X110137048Y-97181517D01*
X110143949Y-97144357D01*
X110189366Y-97014562D01*
X110189369Y-97014549D01*
X110209565Y-96835303D01*
X110209565Y-96835296D01*
X110189369Y-96656050D01*
X110189368Y-96656045D01*
X110158332Y-96567350D01*
X110129789Y-96485778D01*
X110104068Y-96444844D01*
X110077819Y-96403068D01*
X110033816Y-96333038D01*
X109906262Y-96205484D01*
X109869849Y-96182604D01*
X109753523Y-96109511D01*
X109583254Y-96049931D01*
X109583249Y-96049930D01*
X109404004Y-96029735D01*
X109403996Y-96029735D01*
X109224750Y-96049930D01*
X109224745Y-96049931D01*
X109054476Y-96109511D01*
X108901737Y-96205484D01*
X108774184Y-96333037D01*
X108678211Y-96485776D01*
X108618631Y-96656045D01*
X108618630Y-96656050D01*
X108598435Y-96835296D01*
X108598435Y-96835303D01*
X108016575Y-96835303D01*
X108026262Y-96829216D01*
X108153816Y-96701662D01*
X108249789Y-96548922D01*
X108309368Y-96378655D01*
X108309369Y-96378649D01*
X108329565Y-96199403D01*
X108329565Y-96199396D01*
X108309369Y-96020150D01*
X108309368Y-96020145D01*
X108288753Y-95961230D01*
X108249789Y-95849878D01*
X108237671Y-95830593D01*
X108153815Y-95697137D01*
X108026262Y-95569584D01*
X107873523Y-95473611D01*
X107703254Y-95414031D01*
X107703249Y-95414030D01*
X107524004Y-95393835D01*
X107523996Y-95393835D01*
X107344750Y-95414030D01*
X107344745Y-95414031D01*
X107174476Y-95473611D01*
X107021737Y-95569584D01*
X106894184Y-95697137D01*
X106798211Y-95849876D01*
X106738631Y-96020145D01*
X106738630Y-96020150D01*
X106718435Y-96199396D01*
X106718435Y-96199403D01*
X106738630Y-96378649D01*
X106738631Y-96378654D01*
X106798211Y-96548923D01*
X106894184Y-96701662D01*
X106898525Y-96707105D01*
X106896022Y-96709101D01*
X106922770Y-96758086D01*
X106917786Y-96827778D01*
X106875914Y-96883711D01*
X106842560Y-96901485D01*
X106794479Y-96918309D01*
X106641737Y-97014284D01*
X106514184Y-97141837D01*
X106418211Y-97294576D01*
X106358631Y-97464845D01*
X106358630Y-97464849D01*
X106343749Y-97596927D01*
X106316682Y-97661341D01*
X106259087Y-97700896D01*
X106189250Y-97703033D01*
X106129344Y-97667075D01*
X106115537Y-97649018D01*
X106083316Y-97597738D01*
X105955762Y-97470184D01*
X105955761Y-97470183D01*
X105897314Y-97433458D01*
X105851023Y-97381123D01*
X105840066Y-97314580D01*
X105850565Y-97221402D01*
X105850565Y-97221396D01*
X105830369Y-97042150D01*
X105830368Y-97042145D01*
X105789674Y-96925849D01*
X105770789Y-96871878D01*
X105747805Y-96835300D01*
X105726921Y-96802062D01*
X105674816Y-96719138D01*
X105547262Y-96591584D01*
X105508686Y-96567345D01*
X105394523Y-96495611D01*
X105224254Y-96436031D01*
X105224249Y-96436030D01*
X105045004Y-96415835D01*
X105044996Y-96415835D01*
X104865750Y-96436030D01*
X104865745Y-96436031D01*
X104695476Y-96495611D01*
X104542737Y-96591584D01*
X104415184Y-96719137D01*
X104319211Y-96871876D01*
X104259631Y-97042145D01*
X104259630Y-97042150D01*
X104239435Y-97221396D01*
X104239435Y-97221403D01*
X103654400Y-97221403D01*
X103654400Y-97018220D01*
X103615085Y-96807903D01*
X103537793Y-96608390D01*
X103527387Y-96591584D01*
X103425163Y-96426486D01*
X103425161Y-96426483D01*
X103425158Y-96426478D01*
X103281014Y-96268359D01*
X103110270Y-96139419D01*
X103058374Y-96113578D01*
X102918741Y-96044049D01*
X102918735Y-96044046D01*
X102712950Y-95985496D01*
X102712947Y-95985495D01*
X102590720Y-95974169D01*
X102553275Y-95970700D01*
X102446525Y-95970700D01*
X102411794Y-95973918D01*
X102286852Y-95985495D01*
X102286849Y-95985496D01*
X102081064Y-96044046D01*
X102081058Y-96044049D01*
X101889529Y-96139419D01*
X101718787Y-96268358D01*
X101718786Y-96268359D01*
X101574642Y-96426478D01*
X101574640Y-96426479D01*
X101574638Y-96426483D01*
X101574636Y-96426486D01*
X101462008Y-96608386D01*
X101462006Y-96608392D01*
X101448849Y-96642355D01*
X101384715Y-96807903D01*
X101345400Y-97018220D01*
X101345400Y-97232180D01*
X100700500Y-97232180D01*
X100700500Y-95034411D01*
X100720185Y-94967372D01*
X100736819Y-94946730D01*
X101546731Y-94136819D01*
X101608054Y-94103334D01*
X101634412Y-94100500D01*
X102102400Y-94100500D01*
X102169439Y-94120185D01*
X102215194Y-94172989D01*
X102225138Y-94242147D01*
X102207393Y-94290473D01*
X102197211Y-94306675D01*
X102137631Y-94476945D01*
X102137630Y-94476950D01*
X102117435Y-94656196D01*
X102117435Y-94656203D01*
X102137630Y-94835449D01*
X102137631Y-94835454D01*
X102197211Y-95005723D01*
X102266150Y-95115438D01*
X102293184Y-95158462D01*
X102420738Y-95286016D01*
X102573478Y-95381989D01*
X102665046Y-95414030D01*
X102743745Y-95441568D01*
X102743750Y-95441569D01*
X102922996Y-95461765D01*
X102923000Y-95461765D01*
X102923004Y-95461765D01*
X103102249Y-95441569D01*
X103102252Y-95441568D01*
X103102255Y-95441568D01*
X103272522Y-95381989D01*
X103425262Y-95286016D01*
X103552816Y-95158462D01*
X103648789Y-95005722D01*
X103708368Y-94835455D01*
X103710996Y-94812135D01*
X103728565Y-94656203D01*
X103728565Y-94656196D01*
X103708369Y-94476950D01*
X103708368Y-94476945D01*
X103708367Y-94476945D01*
X103648789Y-94306678D01*
X103648787Y-94306675D01*
X103648787Y-94306674D01*
X103646787Y-94302520D01*
X103635433Y-94233579D01*
X103663155Y-94169444D01*
X103721149Y-94130477D01*
X103791004Y-94129050D01*
X103799461Y-94131675D01*
X103865737Y-94154866D01*
X103865743Y-94154867D01*
X103865745Y-94154868D01*
X103865746Y-94154868D01*
X103865750Y-94154869D01*
X104044996Y-94175065D01*
X104045000Y-94175065D01*
X104045004Y-94175065D01*
X104224249Y-94154869D01*
X104224252Y-94154868D01*
X104224255Y-94154868D01*
X104394522Y-94095289D01*
X104547262Y-93999316D01*
X104674816Y-93871762D01*
X104770789Y-93719022D01*
X104830368Y-93548755D01*
X104830369Y-93548749D01*
X104850565Y-93369503D01*
X104850565Y-93369496D01*
X104830369Y-93190250D01*
X104830368Y-93190245D01*
X104820974Y-93163398D01*
X104770789Y-93019978D01*
X104765086Y-93010903D01*
X105179435Y-93010903D01*
X105199630Y-93190149D01*
X105199631Y-93190154D01*
X105259211Y-93360423D01*
X105316241Y-93451185D01*
X105355184Y-93513162D01*
X105482738Y-93640716D01*
X105559736Y-93689097D01*
X105634731Y-93736220D01*
X105635478Y-93736689D01*
X105770882Y-93784069D01*
X105805745Y-93796268D01*
X105805750Y-93796269D01*
X105984996Y-93816465D01*
X105985000Y-93816465D01*
X105985004Y-93816465D01*
X106164249Y-93796269D01*
X106164252Y-93796268D01*
X106164255Y-93796268D01*
X106334522Y-93736689D01*
X106487262Y-93640716D01*
X106614816Y-93513162D01*
X106710789Y-93360422D01*
X106770368Y-93190155D01*
X106771743Y-93177954D01*
X106790565Y-93010903D01*
X106790565Y-93010896D01*
X106789191Y-92998703D01*
X108232435Y-92998703D01*
X108252630Y-93177949D01*
X108252631Y-93177954D01*
X108312211Y-93348223D01*
X108388098Y-93468995D01*
X108408184Y-93500962D01*
X108535738Y-93628516D01*
X108557677Y-93642301D01*
X108679791Y-93719031D01*
X108688478Y-93724489D01*
X108858745Y-93784067D01*
X108858745Y-93784068D01*
X108858750Y-93784069D01*
X109037996Y-93804265D01*
X109038000Y-93804265D01*
X109038004Y-93804265D01*
X109217249Y-93784069D01*
X109217252Y-93784068D01*
X109217255Y-93784068D01*
X109387522Y-93724489D01*
X109540262Y-93628516D01*
X109667816Y-93500962D01*
X109763789Y-93348222D01*
X109798787Y-93248203D01*
X110829435Y-93248203D01*
X110849630Y-93427449D01*
X110849631Y-93427454D01*
X110909211Y-93597723D01*
X110994058Y-93732755D01*
X111005184Y-93750462D01*
X111132738Y-93878016D01*
X111285478Y-93973989D01*
X111419173Y-94020771D01*
X111455745Y-94033568D01*
X111455750Y-94033569D01*
X111634996Y-94053765D01*
X111635000Y-94053765D01*
X111635004Y-94053765D01*
X111814249Y-94033569D01*
X111814252Y-94033568D01*
X111814255Y-94033568D01*
X111984522Y-93973989D01*
X112137262Y-93878016D01*
X112264816Y-93750462D01*
X112360789Y-93597722D01*
X112420368Y-93427455D01*
X112420369Y-93427449D01*
X112440565Y-93248203D01*
X112440565Y-93248196D01*
X112420369Y-93068950D01*
X112420368Y-93068945D01*
X112371050Y-92928003D01*
X113319435Y-92928003D01*
X113339630Y-93107249D01*
X113339631Y-93107254D01*
X113399211Y-93277523D01*
X113476169Y-93400000D01*
X113495184Y-93430262D01*
X113622738Y-93557816D01*
X113775478Y-93653789D01*
X113895073Y-93695637D01*
X113945745Y-93713368D01*
X113945750Y-93713369D01*
X114124996Y-93733565D01*
X114125000Y-93733565D01*
X114125004Y-93733565D01*
X114304249Y-93713369D01*
X114304252Y-93713368D01*
X114304255Y-93713368D01*
X114474522Y-93653789D01*
X114627262Y-93557816D01*
X114677651Y-93507426D01*
X114738972Y-93473942D01*
X114808664Y-93478926D01*
X114864597Y-93520797D01*
X114882373Y-93554154D01*
X114905210Y-93619421D01*
X114976423Y-93732755D01*
X115001184Y-93772162D01*
X115128738Y-93899716D01*
X115281478Y-93995689D01*
X115389730Y-94033568D01*
X115451745Y-94055268D01*
X115451750Y-94055269D01*
X115630996Y-94075465D01*
X115631000Y-94075465D01*
X115631004Y-94075465D01*
X115810249Y-94055269D01*
X115810252Y-94055268D01*
X115810255Y-94055268D01*
X115980522Y-93995689D01*
X116133262Y-93899716D01*
X116260816Y-93772162D01*
X116356789Y-93619422D01*
X116416368Y-93449155D01*
X116418814Y-93427449D01*
X116436565Y-93269903D01*
X116436565Y-93269896D01*
X116416369Y-93090650D01*
X116416368Y-93090645D01*
X116401701Y-93048728D01*
X116356789Y-92920378D01*
X116260816Y-92767638D01*
X116133262Y-92640084D01*
X116098727Y-92618384D01*
X115980523Y-92544111D01*
X115810254Y-92484531D01*
X115810249Y-92484530D01*
X115631004Y-92464335D01*
X115630996Y-92464335D01*
X115451750Y-92484530D01*
X115451745Y-92484531D01*
X115281476Y-92544111D01*
X115128737Y-92640084D01*
X115078349Y-92690472D01*
X115017026Y-92723956D01*
X114947334Y-92718971D01*
X114891401Y-92677100D01*
X114873628Y-92643745D01*
X114850790Y-92578480D01*
X114850789Y-92578478D01*
X114754816Y-92425738D01*
X114627262Y-92298184D01*
X114627262Y-92298183D01*
X114474523Y-92202211D01*
X114304254Y-92142631D01*
X114304249Y-92142630D01*
X114125004Y-92122435D01*
X114124996Y-92122435D01*
X113945750Y-92142630D01*
X113945745Y-92142631D01*
X113775476Y-92202211D01*
X113622737Y-92298184D01*
X113495184Y-92425737D01*
X113399211Y-92578476D01*
X113339631Y-92748745D01*
X113339630Y-92748750D01*
X113319435Y-92927996D01*
X113319435Y-92928003D01*
X112371050Y-92928003D01*
X112368381Y-92920376D01*
X112360789Y-92898678D01*
X112264816Y-92745938D01*
X112137262Y-92618384D01*
X112137261Y-92618383D01*
X111984523Y-92522411D01*
X111814254Y-92462831D01*
X111814249Y-92462830D01*
X111635004Y-92442635D01*
X111634996Y-92442635D01*
X111455750Y-92462830D01*
X111455745Y-92462831D01*
X111285476Y-92522411D01*
X111132737Y-92618384D01*
X111005184Y-92745937D01*
X110909211Y-92898676D01*
X110849631Y-93068945D01*
X110849630Y-93068950D01*
X110829435Y-93248196D01*
X110829435Y-93248203D01*
X109798787Y-93248203D01*
X109823368Y-93177955D01*
X109833205Y-93090650D01*
X109843565Y-92998703D01*
X109843565Y-92998696D01*
X109823369Y-92819450D01*
X109823368Y-92819445D01*
X109805240Y-92767637D01*
X109763789Y-92649178D01*
X109667816Y-92496438D01*
X109540262Y-92368884D01*
X109427744Y-92298184D01*
X109387523Y-92272911D01*
X109217254Y-92213331D01*
X109217249Y-92213330D01*
X109038004Y-92193135D01*
X109037996Y-92193135D01*
X108858750Y-92213330D01*
X108858745Y-92213331D01*
X108688476Y-92272911D01*
X108535737Y-92368884D01*
X108408184Y-92496437D01*
X108312211Y-92649176D01*
X108252631Y-92819445D01*
X108252630Y-92819450D01*
X108232435Y-92998696D01*
X108232435Y-92998703D01*
X106789191Y-92998703D01*
X106770369Y-92831650D01*
X106770368Y-92831645D01*
X106747971Y-92767637D01*
X106710789Y-92661378D01*
X106699709Y-92643745D01*
X106614815Y-92508637D01*
X106487262Y-92381084D01*
X106334523Y-92285111D01*
X106164254Y-92225531D01*
X106164249Y-92225530D01*
X105985004Y-92205335D01*
X105984996Y-92205335D01*
X105805750Y-92225530D01*
X105805745Y-92225531D01*
X105635476Y-92285111D01*
X105482737Y-92381084D01*
X105355184Y-92508637D01*
X105259211Y-92661376D01*
X105199631Y-92831645D01*
X105199630Y-92831650D01*
X105179435Y-93010896D01*
X105179435Y-93010903D01*
X104765086Y-93010903D01*
X104765082Y-93010896D01*
X104687435Y-92887321D01*
X104674816Y-92867238D01*
X104547262Y-92739684D01*
X104522231Y-92723956D01*
X104394523Y-92643711D01*
X104224254Y-92584131D01*
X104224249Y-92584130D01*
X104045004Y-92563935D01*
X104044996Y-92563935D01*
X103865750Y-92584130D01*
X103865745Y-92584131D01*
X103695476Y-92643711D01*
X103542737Y-92739684D01*
X103415184Y-92867237D01*
X103319211Y-93019976D01*
X103259631Y-93190245D01*
X103259630Y-93190250D01*
X103239435Y-93369496D01*
X103239435Y-93369503D01*
X103259630Y-93548749D01*
X103259631Y-93548754D01*
X103319214Y-93719031D01*
X103321214Y-93723184D01*
X103332565Y-93792125D01*
X103304841Y-93856259D01*
X103246845Y-93895224D01*
X103176990Y-93896647D01*
X103168539Y-93894025D01*
X103102257Y-93870832D01*
X103102249Y-93870830D01*
X102923004Y-93850635D01*
X102922995Y-93850635D01*
X102841910Y-93859770D01*
X102773088Y-93847715D01*
X102721710Y-93800365D01*
X102704086Y-93732755D01*
X102713466Y-93689100D01*
X102748580Y-93604328D01*
X102762306Y-93535323D01*
X102775500Y-93468995D01*
X102775500Y-90224500D01*
X102795185Y-90157461D01*
X102847989Y-90111706D01*
X102899500Y-90100500D01*
X112477410Y-90100500D01*
X117700500Y-90100500D01*
X117767539Y-90120185D01*
G37*
%TD.AperFunction*%
%TA.AperFunction,Conductor*%
G36*
X124243600Y-120114681D02*
G01*
X124288814Y-120167949D01*
X124299500Y-120218308D01*
X124299500Y-138589990D01*
X124279815Y-138657029D01*
X124227011Y-138702784D01*
X124157853Y-138712728D01*
X124134546Y-138707032D01*
X124061957Y-138681632D01*
X124061949Y-138681630D01*
X123882704Y-138661435D01*
X123882696Y-138661435D01*
X123703450Y-138681630D01*
X123703445Y-138681631D01*
X123533176Y-138741211D01*
X123380437Y-138837184D01*
X123252884Y-138964737D01*
X123156911Y-139117476D01*
X123097331Y-139287745D01*
X123097330Y-139287750D01*
X123077135Y-139466996D01*
X123077135Y-139467003D01*
X123097330Y-139646249D01*
X123097331Y-139646254D01*
X123156911Y-139816523D01*
X123241121Y-139950541D01*
X123252884Y-139969262D01*
X123380438Y-140096816D01*
X123533178Y-140192789D01*
X123541749Y-140195788D01*
X123703445Y-140252368D01*
X123703450Y-140252369D01*
X123882696Y-140272565D01*
X123882700Y-140272565D01*
X123882704Y-140272565D01*
X124061949Y-140252369D01*
X124061951Y-140252368D01*
X124061955Y-140252368D01*
X124061958Y-140252366D01*
X124061962Y-140252366D01*
X124134545Y-140226968D01*
X124204323Y-140223405D01*
X124264951Y-140258134D01*
X124297178Y-140320127D01*
X124299500Y-140344009D01*
X124299500Y-143620160D01*
X124279815Y-143687199D01*
X124227011Y-143732954D01*
X124157853Y-143742898D01*
X124094297Y-143713873D01*
X124087819Y-143707841D01*
X124052262Y-143672284D01*
X123899523Y-143576311D01*
X123729254Y-143516731D01*
X123729249Y-143516730D01*
X123550004Y-143496535D01*
X123549996Y-143496535D01*
X123370750Y-143516730D01*
X123370745Y-143516731D01*
X123200476Y-143576311D01*
X123047739Y-143672283D01*
X122939991Y-143780031D01*
X122878668Y-143813515D01*
X122808976Y-143808531D01*
X122786339Y-143797344D01*
X122760994Y-143781419D01*
X122749522Y-143774211D01*
X122749521Y-143774210D01*
X122749520Y-143774210D01*
X122749518Y-143774209D01*
X122579262Y-143714633D01*
X122579249Y-143714630D01*
X122400004Y-143694435D01*
X122399996Y-143694435D01*
X122220750Y-143714630D01*
X122220745Y-143714631D01*
X122050476Y-143774211D01*
X121897739Y-143870183D01*
X121809297Y-143958625D01*
X121747973Y-143992109D01*
X121678282Y-143987125D01*
X121622348Y-143945253D01*
X121616622Y-143936915D01*
X121596923Y-143905565D01*
X121532816Y-143803538D01*
X121419409Y-143690131D01*
X121385924Y-143628808D01*
X121390908Y-143559116D01*
X121432780Y-143503183D01*
X121493207Y-143479230D01*
X121499998Y-143478464D01*
X121500000Y-143478465D01*
X121593651Y-143467913D01*
X121679249Y-143458269D01*
X121679252Y-143458268D01*
X121679255Y-143458268D01*
X121849522Y-143398689D01*
X122002262Y-143302716D01*
X122129816Y-143175162D01*
X122225789Y-143022422D01*
X122285368Y-142852155D01*
X122288124Y-142827700D01*
X122299435Y-142727300D01*
X122326501Y-142662886D01*
X122334964Y-142653511D01*
X122505291Y-142483184D01*
X122511381Y-142477843D01*
X122538407Y-142457107D01*
X122630846Y-142336638D01*
X122688956Y-142196349D01*
X122703800Y-142083597D01*
X122707574Y-142054932D01*
X122707574Y-142054928D01*
X122708776Y-142045800D01*
X122704330Y-142012034D01*
X122703799Y-142003932D01*
X122703799Y-139152567D01*
X122704330Y-139144464D01*
X122708776Y-139110699D01*
X122697196Y-139022738D01*
X122688956Y-138960151D01*
X122678637Y-138935239D01*
X122669200Y-138887791D01*
X122669200Y-131353950D01*
X122688885Y-131286911D01*
X122741689Y-131241156D01*
X122810847Y-131231212D01*
X122834155Y-131236909D01*
X122972637Y-131285366D01*
X122972643Y-131285367D01*
X122972645Y-131285368D01*
X122972646Y-131285368D01*
X122972650Y-131285369D01*
X123151896Y-131305565D01*
X123151900Y-131305565D01*
X123151904Y-131305565D01*
X123331149Y-131285369D01*
X123331152Y-131285368D01*
X123331155Y-131285368D01*
X123501422Y-131225789D01*
X123654162Y-131129816D01*
X123781716Y-131002262D01*
X123877689Y-130849522D01*
X123937268Y-130679255D01*
X123937269Y-130679249D01*
X123957465Y-130500003D01*
X123957465Y-130499996D01*
X123937269Y-130320750D01*
X123937268Y-130320745D01*
X123877688Y-130150476D01*
X123781715Y-129997737D01*
X123654162Y-129870184D01*
X123501419Y-129774209D01*
X123397915Y-129737991D01*
X123341139Y-129697270D01*
X123315392Y-129632317D01*
X123324308Y-129573500D01*
X123336756Y-129543449D01*
X123351600Y-129430697D01*
X123351600Y-129430694D01*
X123356576Y-129392900D01*
X123352131Y-129359138D01*
X123351600Y-129351036D01*
X123351600Y-120620238D01*
X123371285Y-120553199D01*
X123387919Y-120532557D01*
X123625903Y-120294572D01*
X123687224Y-120261089D01*
X123699697Y-120259035D01*
X123731693Y-120255430D01*
X123824549Y-120244969D01*
X123824552Y-120244968D01*
X123824555Y-120244968D01*
X123994822Y-120185389D01*
X124109529Y-120113313D01*
X124176764Y-120094314D01*
X124243600Y-120114681D01*
G37*
%TD.AperFunction*%
%TD*%
%TA.AperFunction,NonConductor*%
G36*
X122142285Y-127512588D02*
G01*
X122187507Y-127565850D01*
X122198200Y-127616224D01*
X122198200Y-127984634D01*
X122178515Y-128051673D01*
X122125711Y-128097428D01*
X122056553Y-128107372D01*
X121992997Y-128078347D01*
X121969208Y-128050609D01*
X121965017Y-128043939D01*
X121837462Y-127916384D01*
X121792749Y-127888289D01*
X121684722Y-127820411D01*
X121684721Y-127820410D01*
X121684717Y-127820408D01*
X121679547Y-127817918D01*
X121627687Y-127771096D01*
X121609374Y-127703669D01*
X121630422Y-127637045D01*
X121684148Y-127592376D01*
X121719465Y-127582978D01*
X121840249Y-127569369D01*
X121840252Y-127569368D01*
X121840255Y-127569368D01*
X122010522Y-127509789D01*
X122010523Y-127509787D01*
X122010529Y-127509786D01*
X122016795Y-127506769D01*
X122017661Y-127508568D01*
X122075447Y-127492230D01*
X122142285Y-127512588D01*
G37*
%TD.AperFunction*%
%TA.AperFunction,NonConductor*%
G36*
X114777495Y-126984094D02*
G01*
X114833428Y-127025966D01*
X114857845Y-127091430D01*
X114857381Y-127114159D01*
X114851935Y-127162495D01*
X114851935Y-127162503D01*
X114872130Y-127341749D01*
X114872131Y-127341754D01*
X114931711Y-127512023D01*
X115027684Y-127664762D01*
X115033538Y-127670616D01*
X115067023Y-127731939D01*
X115062039Y-127801631D01*
X115020167Y-127857564D01*
X114991444Y-127872870D01*
X114991453Y-127872888D01*
X114991013Y-127873099D01*
X114986815Y-127875337D01*
X114985181Y-127875908D01*
X114832437Y-127971884D01*
X114704885Y-128099436D01*
X114692192Y-128119637D01*
X114639856Y-128165927D01*
X114570802Y-128176574D01*
X114506955Y-128148198D01*
X114468584Y-128089807D01*
X114463199Y-128053663D01*
X114463199Y-127247238D01*
X114482884Y-127180199D01*
X114499513Y-127159562D01*
X114646482Y-127012593D01*
X114707803Y-126979110D01*
X114777495Y-126984094D01*
G37*
%TD.AperFunction*%
%TA.AperFunction,NonConductor*%
G36*
X113360816Y-131159133D02*
G01*
X113377803Y-131185713D01*
X113378691Y-131185201D01*
X113382750Y-131192233D01*
X113382754Y-131192238D01*
X113397676Y-131211686D01*
X113422870Y-131276854D01*
X113423300Y-131287171D01*
X113423300Y-131862059D01*
X113403615Y-131929098D01*
X113350811Y-131974853D01*
X113281653Y-131984797D01*
X113218097Y-131955772D01*
X113211620Y-131949741D01*
X113168463Y-131906585D01*
X113168462Y-131906584D01*
X113031948Y-131820806D01*
X112985657Y-131768471D01*
X112975009Y-131699417D01*
X112992926Y-131649840D01*
X113072989Y-131522422D01*
X113132568Y-131352155D01*
X113133253Y-131346083D01*
X113143943Y-131251200D01*
X113146412Y-131229282D01*
X113173478Y-131164869D01*
X113231072Y-131125314D01*
X113300909Y-131123175D01*
X113360816Y-131159133D01*
G37*
%TD.AperFunction*%
%TA.AperFunction,NonConductor*%
G36*
X113379543Y-139171063D02*
G01*
X113417915Y-139229453D01*
X113423300Y-139265599D01*
X113423300Y-140782560D01*
X113403615Y-140849599D01*
X113350811Y-140895354D01*
X113281653Y-140905298D01*
X113218097Y-140876273D01*
X113211619Y-140870241D01*
X113166262Y-140824884D01*
X113104289Y-140785944D01*
X113066237Y-140762034D01*
X113019947Y-140709700D01*
X113009299Y-140640647D01*
X113027217Y-140591068D01*
X113065888Y-140529524D01*
X113068968Y-140520722D01*
X113125468Y-140359255D01*
X113126460Y-140350454D01*
X113145665Y-140180003D01*
X113145665Y-140179996D01*
X113125469Y-140000750D01*
X113125468Y-140000745D01*
X113100678Y-139929899D01*
X113065889Y-139830478D01*
X113060358Y-139821676D01*
X113038053Y-139786177D01*
X112969916Y-139677738D01*
X112940090Y-139647912D01*
X112906606Y-139586588D01*
X112911592Y-139516897D01*
X112953464Y-139460964D01*
X112961784Y-139455249D01*
X113002262Y-139429816D01*
X113129816Y-139302262D01*
X113194305Y-139199627D01*
X113246641Y-139153336D01*
X113315695Y-139142688D01*
X113379543Y-139171063D01*
G37*
%TD.AperFunction*%
M02*
