M48
; DRILL file {KiCad 7.0.5} date Fri Sep  1 16:08:52 2023
; FORMAT={-:-/ absolute / inch / decimal}
; #@! TF.CreationDate,2023-09-01T16:08:52-05:00
; #@! TF.GenerationSoftware,Kicad,Pcbnew,7.0.5
; #@! TF.FileFunction,Plated,1,4,PTH
FMAT,2
INCH
; #@! TA.AperFunction,Plated,PTH,ViaDrill
T1C0.0118
; #@! TA.AperFunction,Plated,PTH,ComponentDrill
T2C0.1260
%
G90
G05
T1
X3.9884Y-5.4921
X3.9903Y-5.6102
X3.9904Y-4.9016
X3.9904Y-5.1378
X3.9904Y-5.2559
X3.9957Y-4.7031
X3.9966Y-5.697
X4.0315Y-4.7835
X4.0316Y-5.4921
X4.0374Y-4.9019
X4.0378Y-5.6102
X4.0425Y-5.2559
X4.0453Y-5.1378
X4.0521Y-3.7266
X4.0681Y-5.0559
X4.0684Y-5.4086
X4.0748Y-4.9915
X4.0748Y-5.3442
X4.0847Y-4.7086
X4.0854Y-3.9038
X4.0963Y-3.676
X4.1122Y-4.7835
X4.1122Y-4.9016
X4.1122Y-5.1378
X4.1122Y-5.2559
X4.1166Y-5.6102
X4.1186Y-5.4917
X4.1267Y-3.9596
X4.1356Y-3.8276
X4.1476Y-4.7835
X4.1476Y-4.9016
X4.1476Y-5.1378
X4.1476Y-5.2559
X4.1517Y-3.8622
X4.1555Y-5.4931
X4.164Y-5.6102
X4.1726Y-3.6618
X4.1869Y-5.0589
X4.1909Y-5.4155
X4.1909Y-4.7507
X4.1909Y-5.1044
X4.1909Y-5.2485
X4.1909Y-5.3369
X4.1909Y-5.5691
X4.1942Y-5.6339
X4.1971Y-5.4494
X4.1987Y-4.8558
X4.1995Y-4.9595
X4.1996Y-4.9926
X4.2028Y-4.0787
X4.2183Y-3.8443
X4.2332Y-3.7874
X4.2362Y-4.7835
X4.2362Y-5.6102
X4.2588Y-3.9685
X4.2717Y-5.1378
X4.2717Y-5.2559
X4.2717Y-5.6102
X4.2736Y-5.4931
X4.2794Y-3.929
X4.2795Y-4.7835
X4.2928Y-3.6614
X4.3025Y-3.9646
X4.3047Y-5.0552
X4.3049Y-4.8726
X4.3055Y-4.9476
X4.3072Y-3.8124
X4.313Y-5.3186
X4.3169Y-5.0075
X4.3169Y-5.0944
X4.3169Y-5.4086
X4.3169Y-5.6231
X4.3385Y-5.4926
X4.3386Y-5.2559
X4.3406Y-4.1184
X4.3465Y-3.8622
X4.3465Y-3.9606
X4.3484Y-4.7118
X4.3484Y-4.9005
X4.3484Y-5.609
X4.3535Y-5.1369
X4.3681Y-4.0803
X4.388Y-4.7031
X4.3917Y-5.611
X4.392Y-3.8089
X4.3951Y-3.6712
X4.4128Y-3.8534
X4.4137Y-4.0799
X4.4224Y-4.8107
X4.4226Y-5.0609
X4.4228Y-5.5189
X4.4231Y-5.1643
X4.4233Y-4.9214
X4.4291Y-5.4016
X4.4291Y-5.4646
X4.4299Y-3.9304
X4.435Y-4.9915
X4.4351Y-5.3103
X4.4351Y-5.3442
X4.4356Y-5.5691
X4.4357Y-5.218
X4.4358Y-5.1066
X4.439Y-5.697
X4.4587Y-4.079
X4.4665Y-5.2547
X4.4665Y-5.6092
X4.4667Y-3.7913
X4.4764Y-4.7031
X4.4764Y-4.9016
X4.4931Y-3.6586
X4.4943Y-3.821
X4.5043Y-5.1364
X4.5098Y-5.2572
X4.5098Y-5.4935
X4.5098Y-5.6115
X4.5158Y-4.7835
X4.5174Y-4.7123
X4.5176Y-3.7978
X4.5244Y-4.9023
X4.5374Y-3.8562
X4.5407Y-5.0631
X4.5413Y-5.2164
X4.5413Y-5.411
X4.5413Y-5.5691
X4.545Y-4.937
X4.551Y-5.1103
X4.5524Y-3.672
X4.5531Y-5.1752
X4.5532Y-4.9744
X4.5533Y-5.3156
X4.5534Y-5.3474
X4.5534Y-5.0064
X4.5539Y-5.4593
X4.579Y-3.7906
X4.5795Y-5.2551
X4.5846Y-4.712
X4.5854Y-5.4909
X4.5866Y-4.9016
X4.5866Y-5.1378
X4.5874Y-5.6094
X4.6063Y-4.2402
X4.6102Y-4.1417
X4.6173Y-5.2547
X4.6179Y-5.6814
X4.6304Y-3.7645
X4.635Y-4.9022
X4.6369Y-4.7835
X4.6587Y-5.3442
X4.659Y-5.5708
X4.6592Y-5.2191
X4.6592Y-5.4546
X4.6594Y-5.4108
X4.6594Y-5.5186
X4.6594Y-5.2823
X4.6596Y-5.0609
X4.6652Y-4.8747
X4.6653Y-4.9838
X4.6654Y-5.1575
X4.6654Y-5.0941
X4.6693Y-5.189
X4.6714Y-5.3143
X4.6726Y-5.252
X4.6869Y-5.4921
X4.6928Y-3.9567
X4.6985Y-3.9176
X4.7067Y-4.9016
X4.7067Y-5.1371
X4.7106Y-4.7835
X4.7244Y-5.6102
X4.7343Y-3.9224
X4.7433Y-5.4907
X4.7445Y-5.137
X4.7462Y-4.7836
X4.7571Y-3.8898
X4.76Y-5.6813
X4.7762Y-4.9116
X4.7768Y-5.3442
X4.777Y-5.0609
X4.777Y-4.8203
X4.7771Y-5.4086
X4.7774Y-5.176
X4.7776Y-5.5153
X4.7835Y-5.2413
X4.7835Y-5.5569
X4.7835Y-5.617
X4.7883Y-5.485
X4.7895Y-4.7463
X4.7896Y-4.9598
X4.7898Y-4.9915
X4.79Y-4.8759
X4.7902Y-5.1066
X4.7992Y-3.9055
X4.811Y-3.752
X4.8138Y-4.7835
X4.8138Y-4.9016
X4.8189Y-5.689
X4.8209Y-4.7119
X4.8267Y-5.2559
X4.8287Y-5.6102
X4.8465Y-3.7756
X4.8485Y-5.1378
X4.8575Y-4.9003
X4.8614Y-4.7821
X4.8642Y-5.6812
X4.8679Y-4.7031
X4.8773Y-5.4908
T2
X4.4291Y-5.9016
T0
M30
