%TF.GenerationSoftware,KiCad,Pcbnew,7.0.5*%
%TF.CreationDate,2023-09-01T16:08:52-05:00*%
%TF.ProjectId,Chimera_0004_Aurora,4368696d-6572-4615-9f30-3030345f4175,rev?*%
%TF.SameCoordinates,Original*%
%TF.FileFunction,Legend,Bot*%
%TF.FilePolarity,Positive*%
%FSLAX46Y46*%
G04 Gerber Fmt 4.6, Leading zero omitted, Abs format (unit mm)*
G04 Created by KiCad (PCBNEW 7.0.5) date 2023-09-01 16:08:52*
%MOMM*%
%LPD*%
G01*
G04 APERTURE LIST*
G04 Aperture macros list*
%AMRoundRect*
0 Rectangle with rounded corners*
0 $1 Rounding radius*
0 $2 $3 $4 $5 $6 $7 $8 $9 X,Y pos of 4 corners*
0 Add a 4 corners polygon primitive as box body*
4,1,4,$2,$3,$4,$5,$6,$7,$8,$9,$2,$3,0*
0 Add four circle primitives for the rounded corners*
1,1,$1+$1,$2,$3*
1,1,$1+$1,$4,$5*
1,1,$1+$1,$6,$7*
1,1,$1+$1,$8,$9*
0 Add four rect primitives between the rounded corners*
20,1,$1+$1,$2,$3,$4,$5,0*
20,1,$1+$1,$4,$5,$6,$7,0*
20,1,$1+$1,$6,$7,$8,$9,0*
20,1,$1+$1,$8,$9,$2,$3,0*%
G04 Aperture macros list end*
%ADD10C,0.120000*%
%ADD11C,0.100000*%
%ADD12C,6.400000*%
%ADD13C,3.600000*%
%ADD14RoundRect,0.140000X-0.140000X-0.170000X0.140000X-0.170000X0.140000X0.170000X-0.140000X0.170000X0*%
%ADD15RoundRect,0.140000X0.140000X0.170000X-0.140000X0.170000X-0.140000X-0.170000X0.140000X-0.170000X0*%
%ADD16C,1.200000*%
%ADD17C,1.800000*%
G04 APERTURE END LIST*
D10*
%TO.C,C70*%
X113892164Y-141960000D02*
X114107836Y-141960000D01*
X113892164Y-141240000D02*
X114107836Y-141240000D01*
%TO.C,C69*%
X116892164Y-141960000D02*
X117107836Y-141960000D01*
X116892164Y-141240000D02*
X117107836Y-141240000D01*
%TO.C,C66*%
X122792164Y-141240000D02*
X123007836Y-141240000D01*
X122792164Y-141960000D02*
X123007836Y-141960000D01*
%TO.C,C65*%
X110892164Y-141240000D02*
X111107836Y-141240000D01*
X110892164Y-141960000D02*
X111107836Y-141960000D01*
%TO.C,C63*%
X119892164Y-141340000D02*
X120107836Y-141340000D01*
X119892164Y-142060000D02*
X120107836Y-142060000D01*
%TO.C,C62*%
X122892164Y-120960000D02*
X123107836Y-120960000D01*
X122892164Y-120240000D02*
X123107836Y-120240000D01*
%TO.C,C61*%
X122792164Y-123960000D02*
X123007836Y-123960000D01*
X122792164Y-123240000D02*
X123007836Y-123240000D01*
%TO.C,C59*%
X122792164Y-126960000D02*
X123007836Y-126960000D01*
X122792164Y-126240000D02*
X123007836Y-126240000D01*
%TO.C,C58*%
X122792164Y-129340000D02*
X123007836Y-129340000D01*
X122792164Y-130060000D02*
X123007836Y-130060000D01*
%TO.C,C57*%
X122992164Y-132240000D02*
X123207836Y-132240000D01*
X122992164Y-132960000D02*
X123207836Y-132960000D01*
%TO.C,C55*%
X122792164Y-135140000D02*
X123007836Y-135140000D01*
X122792164Y-135860000D02*
X123007836Y-135860000D01*
%TO.C,C54*%
X122792164Y-138240000D02*
X123007836Y-138240000D01*
X122792164Y-138960000D02*
X123007836Y-138960000D01*
%TO.C,C53*%
X119792164Y-120240000D02*
X120007836Y-120240000D01*
X119792164Y-120960000D02*
X120007836Y-120960000D01*
%TO.C,C51*%
X119922164Y-123240000D02*
X120137836Y-123240000D01*
X119922164Y-123960000D02*
X120137836Y-123960000D01*
%TO.C,C50*%
X119922164Y-126960000D02*
X120137836Y-126960000D01*
X119922164Y-126240000D02*
X120137836Y-126240000D01*
%TO.C,C49*%
X119922164Y-130060000D02*
X120137836Y-130060000D01*
X119922164Y-129340000D02*
X120137836Y-129340000D01*
%TO.C,C48*%
X119812164Y-132960000D02*
X120027836Y-132960000D01*
X119812164Y-132240000D02*
X120027836Y-132240000D01*
%TO.C,C47*%
X119922164Y-135860000D02*
X120137836Y-135860000D01*
X119922164Y-135140000D02*
X120137836Y-135140000D01*
%TO.C,C46*%
X119892164Y-138960000D02*
X120107836Y-138960000D01*
X119892164Y-138240000D02*
X120107836Y-138240000D01*
%TO.C,C45*%
X116892164Y-120240000D02*
X117107836Y-120240000D01*
X116892164Y-120960000D02*
X117107836Y-120960000D01*
%TO.C,C44*%
X116762164Y-123240000D02*
X116977836Y-123240000D01*
X116762164Y-123960000D02*
X116977836Y-123960000D01*
%TO.C,C43*%
X116792164Y-126240000D02*
X117007836Y-126240000D01*
X116792164Y-126960000D02*
X117007836Y-126960000D01*
%TO.C,C42*%
X116692164Y-130060000D02*
X116907836Y-130060000D01*
X116692164Y-129340000D02*
X116907836Y-129340000D01*
%TO.C,C41*%
X116692164Y-132960000D02*
X116907836Y-132960000D01*
X116692164Y-132240000D02*
X116907836Y-132240000D01*
%TO.C,C40*%
X116792164Y-135960000D02*
X117007836Y-135960000D01*
X116792164Y-135240000D02*
X117007836Y-135240000D01*
%TO.C,C39*%
X116842164Y-138930000D02*
X117057836Y-138930000D01*
X116842164Y-138210000D02*
X117057836Y-138210000D01*
%TO.C,C38*%
X113792164Y-120240000D02*
X114007836Y-120240000D01*
X113792164Y-120960000D02*
X114007836Y-120960000D01*
%TO.C,C37*%
X113892164Y-123240000D02*
X114107836Y-123240000D01*
X113892164Y-123960000D02*
X114107836Y-123960000D01*
%TO.C,C36*%
X113922164Y-126240000D02*
X114137836Y-126240000D01*
X113922164Y-126960000D02*
X114137836Y-126960000D01*
%TO.C,C35*%
X113822164Y-130060000D02*
X114037836Y-130060000D01*
X113822164Y-129340000D02*
X114037836Y-129340000D01*
%TO.C,C34*%
X113822164Y-132960000D02*
X114037836Y-132960000D01*
X113822164Y-132240000D02*
X114037836Y-132240000D01*
%TO.C,C33*%
X113822164Y-135960000D02*
X114037836Y-135960000D01*
X113822164Y-135240000D02*
X114037836Y-135240000D01*
%TO.C,C32*%
X113892164Y-138930000D02*
X114107836Y-138930000D01*
X113892164Y-138210000D02*
X114107836Y-138210000D01*
%TO.C,C31*%
X110892164Y-120240000D02*
X111107836Y-120240000D01*
X110892164Y-120960000D02*
X111107836Y-120960000D01*
%TO.C,C30*%
X111022164Y-123240000D02*
X111237836Y-123240000D01*
X111022164Y-123960000D02*
X111237836Y-123960000D01*
%TO.C,C29*%
X111052164Y-126240000D02*
X111267836Y-126240000D01*
X111052164Y-126960000D02*
X111267836Y-126960000D01*
%TO.C,C28*%
X110952164Y-130060000D02*
X111167836Y-130060000D01*
X110952164Y-129340000D02*
X111167836Y-129340000D01*
%TO.C,C27*%
X110952164Y-132960000D02*
X111167836Y-132960000D01*
X110952164Y-132240000D02*
X111167836Y-132240000D01*
%TO.C,C26*%
X110952164Y-135960000D02*
X111167836Y-135960000D01*
X110952164Y-135240000D02*
X111167836Y-135240000D01*
%TO.C,C25*%
X110892164Y-139110000D02*
X111107836Y-139110000D01*
X110892164Y-138390000D02*
X111107836Y-138390000D01*
%TO.C,C7*%
X102107836Y-138960000D02*
X101892164Y-138960000D01*
X102107836Y-138240000D02*
X101892164Y-138240000D01*
%TO.C,C2*%
X102107836Y-123960000D02*
X101892164Y-123960000D01*
X102107836Y-123240000D02*
X101892164Y-123240000D01*
%TO.C,C4*%
X102107836Y-129960000D02*
X101892164Y-129960000D01*
X102107836Y-129240000D02*
X101892164Y-129240000D01*
%TO.C,C5*%
X102107836Y-132960000D02*
X101892164Y-132960000D01*
X102107836Y-132240000D02*
X101892164Y-132240000D01*
%TO.C,C6*%
X102107836Y-135960000D02*
X101892164Y-135960000D01*
X102107836Y-135240000D02*
X101892164Y-135240000D01*
%TO.C,C22*%
X108107836Y-135240000D02*
X107892164Y-135240000D01*
X108107836Y-135960000D02*
X107892164Y-135960000D01*
%TO.C,C10*%
X105107836Y-123240000D02*
X104892164Y-123240000D01*
X105107836Y-123960000D02*
X104892164Y-123960000D01*
%TO.C,C20*%
X108107836Y-129240000D02*
X107892164Y-129240000D01*
X108107836Y-129960000D02*
X107892164Y-129960000D01*
%TO.C,C1*%
X102107836Y-120910000D02*
X101892164Y-120910000D01*
X102107836Y-120190000D02*
X101892164Y-120190000D01*
%TO.C,C3*%
X102107836Y-126960000D02*
X101892164Y-126960000D01*
X102107836Y-126240000D02*
X101892164Y-126240000D01*
%TO.C,C9*%
X105107836Y-120190000D02*
X104892164Y-120190000D01*
X105107836Y-120910000D02*
X104892164Y-120910000D01*
%TO.C,C11*%
X105107836Y-126240000D02*
X104892164Y-126240000D01*
X105107836Y-126960000D02*
X104892164Y-126960000D01*
%TO.C,C12*%
X105063036Y-129240000D02*
X104847364Y-129240000D01*
X105063036Y-129960000D02*
X104847364Y-129960000D01*
%TO.C,C13*%
X105107836Y-132240000D02*
X104892164Y-132240000D01*
X105107836Y-132960000D02*
X104892164Y-132960000D01*
%TO.C,C14*%
X105063036Y-135240000D02*
X104847364Y-135240000D01*
X105063036Y-135960000D02*
X104847364Y-135960000D01*
%TO.C,C15*%
X105107836Y-138240000D02*
X104892164Y-138240000D01*
X105107836Y-138960000D02*
X104892164Y-138960000D01*
%TO.C,C17*%
X108107836Y-120190000D02*
X107892164Y-120190000D01*
X108107836Y-120910000D02*
X107892164Y-120910000D01*
%TO.C,C19*%
X108107836Y-126240000D02*
X107892164Y-126240000D01*
X108107836Y-126960000D02*
X107892164Y-126960000D01*
%TO.C,C18*%
X108107836Y-123240000D02*
X107892164Y-123240000D01*
X108107836Y-123960000D02*
X107892164Y-123960000D01*
%TO.C,C16*%
X105107836Y-141240000D02*
X104892164Y-141240000D01*
X105107836Y-141960000D02*
X104892164Y-141960000D01*
%TO.C,C21*%
X108107836Y-132240000D02*
X107892164Y-132240000D01*
X108107836Y-132960000D02*
X107892164Y-132960000D01*
%TO.C,C23*%
X108193036Y-138240000D02*
X107977364Y-138240000D01*
X108193036Y-138960000D02*
X107977364Y-138960000D01*
%TO.C,C8*%
X102107836Y-141960000D02*
X101892164Y-141960000D01*
X102107836Y-141240000D02*
X101892164Y-141240000D01*
%TO.C,C24*%
X108193036Y-141240000D02*
X107977364Y-141240000D01*
X108193036Y-141960000D02*
X107977364Y-141960000D01*
%TD*%
%LPC*%
%TO.C,U2*%
D11*
X122425000Y-92400000D02*
X119225000Y-92400000D01*
X119225000Y-89900000D01*
X122425000Y-89900000D01*
X122425000Y-92400000D01*
G36*
X122425000Y-92400000D02*
G01*
X119225000Y-92400000D01*
X119225000Y-89900000D01*
X122425000Y-89900000D01*
X122425000Y-92400000D01*
G37*
X118025000Y-92400000D02*
X102575000Y-92400000D01*
X102575000Y-89900000D01*
X118025000Y-89900000D01*
X118025000Y-92400000D01*
G36*
X118025000Y-92400000D02*
G01*
X102575000Y-92400000D01*
X102575000Y-89900000D01*
X118025000Y-89900000D01*
X118025000Y-92400000D01*
G37*
%TD*%
D12*
%TO.C,H1*%
X112500000Y-149900000D03*
D13*
X112500000Y-149900000D03*
%TD*%
D14*
%TO.C,C70*%
X114480000Y-141600000D03*
X113520000Y-141600000D03*
%TD*%
%TO.C,C69*%
X117480000Y-141600000D03*
X116520000Y-141600000D03*
%TD*%
%TO.C,C66*%
X122420000Y-141600000D03*
X123380000Y-141600000D03*
%TD*%
%TO.C,C65*%
X110520000Y-141600000D03*
X111480000Y-141600000D03*
%TD*%
%TO.C,C63*%
X119520000Y-141700000D03*
X120480000Y-141700000D03*
%TD*%
%TO.C,C62*%
X123480000Y-120600000D03*
X122520000Y-120600000D03*
%TD*%
%TO.C,C61*%
X123380000Y-123600000D03*
X122420000Y-123600000D03*
%TD*%
%TO.C,C59*%
X123380000Y-126600000D03*
X122420000Y-126600000D03*
%TD*%
%TO.C,C58*%
X122420000Y-129700000D03*
X123380000Y-129700000D03*
%TD*%
%TO.C,C57*%
X122620000Y-132600000D03*
X123580000Y-132600000D03*
%TD*%
%TO.C,C55*%
X122420000Y-135500000D03*
X123380000Y-135500000D03*
%TD*%
%TO.C,C54*%
X122420000Y-138600000D03*
X123380000Y-138600000D03*
%TD*%
%TO.C,C53*%
X119420000Y-120600000D03*
X120380000Y-120600000D03*
%TD*%
%TO.C,C51*%
X119550000Y-123600000D03*
X120510000Y-123600000D03*
%TD*%
%TO.C,C50*%
X120510000Y-126600000D03*
X119550000Y-126600000D03*
%TD*%
%TO.C,C49*%
X120510000Y-129700000D03*
X119550000Y-129700000D03*
%TD*%
%TO.C,C48*%
X120400000Y-132600000D03*
X119440000Y-132600000D03*
%TD*%
%TO.C,C47*%
X120510000Y-135500000D03*
X119550000Y-135500000D03*
%TD*%
%TO.C,C46*%
X120480000Y-138600000D03*
X119520000Y-138600000D03*
%TD*%
%TO.C,C45*%
X116520000Y-120600000D03*
X117480000Y-120600000D03*
%TD*%
%TO.C,C44*%
X116390000Y-123600000D03*
X117350000Y-123600000D03*
%TD*%
%TO.C,C43*%
X116420000Y-126600000D03*
X117380000Y-126600000D03*
%TD*%
%TO.C,C42*%
X117280000Y-129700000D03*
X116320000Y-129700000D03*
%TD*%
%TO.C,C41*%
X117280000Y-132600000D03*
X116320000Y-132600000D03*
%TD*%
%TO.C,C40*%
X117380000Y-135600000D03*
X116420000Y-135600000D03*
%TD*%
%TO.C,C39*%
X117430000Y-138570000D03*
X116470000Y-138570000D03*
%TD*%
%TO.C,C38*%
X113420000Y-120600000D03*
X114380000Y-120600000D03*
%TD*%
%TO.C,C37*%
X113520000Y-123600000D03*
X114480000Y-123600000D03*
%TD*%
%TO.C,C36*%
X113550000Y-126600000D03*
X114510000Y-126600000D03*
%TD*%
%TO.C,C35*%
X114410000Y-129700000D03*
X113450000Y-129700000D03*
%TD*%
%TO.C,C34*%
X114410000Y-132600000D03*
X113450000Y-132600000D03*
%TD*%
%TO.C,C33*%
X114410000Y-135600000D03*
X113450000Y-135600000D03*
%TD*%
%TO.C,C32*%
X114480000Y-138570000D03*
X113520000Y-138570000D03*
%TD*%
%TO.C,C31*%
X110520000Y-120600000D03*
X111480000Y-120600000D03*
%TD*%
%TO.C,C30*%
X110650000Y-123600000D03*
X111610000Y-123600000D03*
%TD*%
%TO.C,C29*%
X110680000Y-126600000D03*
X111640000Y-126600000D03*
%TD*%
%TO.C,C28*%
X111540000Y-129700000D03*
X110580000Y-129700000D03*
%TD*%
%TO.C,C27*%
X111540000Y-132600000D03*
X110580000Y-132600000D03*
%TD*%
%TO.C,C26*%
X111540000Y-135600000D03*
X110580000Y-135600000D03*
%TD*%
%TO.C,C25*%
X111480000Y-138750000D03*
X110520000Y-138750000D03*
%TD*%
D15*
%TO.C,C7*%
X102480000Y-138600000D03*
X101520000Y-138600000D03*
%TD*%
%TO.C,C2*%
X102480000Y-123600000D03*
X101520000Y-123600000D03*
%TD*%
%TO.C,C4*%
X102480000Y-129600000D03*
X101520000Y-129600000D03*
%TD*%
%TO.C,C5*%
X102480000Y-132600000D03*
X101520000Y-132600000D03*
%TD*%
%TO.C,C6*%
X102480000Y-135600000D03*
X101520000Y-135600000D03*
%TD*%
%TO.C,C22*%
X107520000Y-135600000D03*
X108480000Y-135600000D03*
%TD*%
%TO.C,C10*%
X104520000Y-123600000D03*
X105480000Y-123600000D03*
%TD*%
%TO.C,C20*%
X107520000Y-129600000D03*
X108480000Y-129600000D03*
%TD*%
%TO.C,C1*%
X102480000Y-120550000D03*
X101520000Y-120550000D03*
%TD*%
%TO.C,C3*%
X102480000Y-126600000D03*
X101520000Y-126600000D03*
%TD*%
%TO.C,C9*%
X104520000Y-120550000D03*
X105480000Y-120550000D03*
%TD*%
%TO.C,C11*%
X104520000Y-126600000D03*
X105480000Y-126600000D03*
%TD*%
%TO.C,C12*%
X104475200Y-129600000D03*
X105435200Y-129600000D03*
%TD*%
%TO.C,C13*%
X104520000Y-132600000D03*
X105480000Y-132600000D03*
%TD*%
%TO.C,C14*%
X104475200Y-135600000D03*
X105435200Y-135600000D03*
%TD*%
%TO.C,C15*%
X104520000Y-138600000D03*
X105480000Y-138600000D03*
%TD*%
%TO.C,C17*%
X107520000Y-120550000D03*
X108480000Y-120550000D03*
%TD*%
%TO.C,C19*%
X107520000Y-126600000D03*
X108480000Y-126600000D03*
%TD*%
%TO.C,C18*%
X107520000Y-123600000D03*
X108480000Y-123600000D03*
%TD*%
%TO.C,C16*%
X104520000Y-141600000D03*
X105480000Y-141600000D03*
%TD*%
%TO.C,C21*%
X107520000Y-132600000D03*
X108480000Y-132600000D03*
%TD*%
%TO.C,C23*%
X107605200Y-138600000D03*
X108565200Y-138600000D03*
%TD*%
%TO.C,C8*%
X102480000Y-141600000D03*
X101520000Y-141600000D03*
%TD*%
%TO.C,C24*%
X107605200Y-141600000D03*
X108565200Y-141600000D03*
%TD*%
D16*
%TO.C,CN1*%
X122499900Y-97125200D03*
D17*
X102499900Y-97125200D03*
%TD*%
%LPD*%
M02*
