%TF.GenerationSoftware,KiCad,Pcbnew,7.0.5*%
%TF.CreationDate,2023-09-01T16:08:52-05:00*%
%TF.ProjectId,Chimera_0004_Aurora,4368696d-6572-4615-9f30-3030345f4175,rev?*%
%TF.SameCoordinates,Original*%
%TF.FileFunction,Paste,Bot*%
%TF.FilePolarity,Positive*%
%FSLAX46Y46*%
G04 Gerber Fmt 4.6, Leading zero omitted, Abs format (unit mm)*
G04 Created by KiCad (PCBNEW 7.0.5) date 2023-09-01 16:08:52*
%MOMM*%
%LPD*%
G01*
G04 APERTURE LIST*
G04 Aperture macros list*
%AMRoundRect*
0 Rectangle with rounded corners*
0 $1 Rounding radius*
0 $2 $3 $4 $5 $6 $7 $8 $9 X,Y pos of 4 corners*
0 Add a 4 corners polygon primitive as box body*
4,1,4,$2,$3,$4,$5,$6,$7,$8,$9,$2,$3,0*
0 Add four circle primitives for the rounded corners*
1,1,$1+$1,$2,$3*
1,1,$1+$1,$4,$5*
1,1,$1+$1,$6,$7*
1,1,$1+$1,$8,$9*
0 Add four rect primitives between the rounded corners*
20,1,$1+$1,$2,$3,$4,$5,0*
20,1,$1+$1,$4,$5,$6,$7,0*
20,1,$1+$1,$6,$7,$8,$9,0*
20,1,$1+$1,$8,$9,$2,$3,0*%
G04 Aperture macros list end*
%ADD10RoundRect,0.140000X-0.140000X-0.170000X0.140000X-0.170000X0.140000X0.170000X-0.140000X0.170000X0*%
%ADD11RoundRect,0.140000X0.140000X0.170000X-0.140000X0.170000X-0.140000X-0.170000X0.140000X-0.170000X0*%
G04 APERTURE END LIST*
D10*
%TO.C,C70*%
X114480000Y-141600000D03*
X113520000Y-141600000D03*
%TD*%
%TO.C,C69*%
X117480000Y-141600000D03*
X116520000Y-141600000D03*
%TD*%
%TO.C,C66*%
X122420000Y-141600000D03*
X123380000Y-141600000D03*
%TD*%
%TO.C,C65*%
X110520000Y-141600000D03*
X111480000Y-141600000D03*
%TD*%
%TO.C,C63*%
X119520000Y-141700000D03*
X120480000Y-141700000D03*
%TD*%
%TO.C,C62*%
X123480000Y-120600000D03*
X122520000Y-120600000D03*
%TD*%
%TO.C,C61*%
X123380000Y-123600000D03*
X122420000Y-123600000D03*
%TD*%
%TO.C,C59*%
X123380000Y-126600000D03*
X122420000Y-126600000D03*
%TD*%
%TO.C,C58*%
X122420000Y-129700000D03*
X123380000Y-129700000D03*
%TD*%
%TO.C,C57*%
X122620000Y-132600000D03*
X123580000Y-132600000D03*
%TD*%
%TO.C,C55*%
X122420000Y-135500000D03*
X123380000Y-135500000D03*
%TD*%
%TO.C,C54*%
X122420000Y-138600000D03*
X123380000Y-138600000D03*
%TD*%
%TO.C,C53*%
X119420000Y-120600000D03*
X120380000Y-120600000D03*
%TD*%
%TO.C,C51*%
X119550000Y-123600000D03*
X120510000Y-123600000D03*
%TD*%
%TO.C,C50*%
X120510000Y-126600000D03*
X119550000Y-126600000D03*
%TD*%
%TO.C,C49*%
X120510000Y-129700000D03*
X119550000Y-129700000D03*
%TD*%
%TO.C,C48*%
X120400000Y-132600000D03*
X119440000Y-132600000D03*
%TD*%
%TO.C,C47*%
X120510000Y-135500000D03*
X119550000Y-135500000D03*
%TD*%
%TO.C,C46*%
X120480000Y-138600000D03*
X119520000Y-138600000D03*
%TD*%
%TO.C,C45*%
X116520000Y-120600000D03*
X117480000Y-120600000D03*
%TD*%
%TO.C,C44*%
X116390000Y-123600000D03*
X117350000Y-123600000D03*
%TD*%
%TO.C,C43*%
X116420000Y-126600000D03*
X117380000Y-126600000D03*
%TD*%
%TO.C,C42*%
X117280000Y-129700000D03*
X116320000Y-129700000D03*
%TD*%
%TO.C,C41*%
X117280000Y-132600000D03*
X116320000Y-132600000D03*
%TD*%
%TO.C,C40*%
X117380000Y-135600000D03*
X116420000Y-135600000D03*
%TD*%
%TO.C,C39*%
X117430000Y-138570000D03*
X116470000Y-138570000D03*
%TD*%
%TO.C,C38*%
X113420000Y-120600000D03*
X114380000Y-120600000D03*
%TD*%
%TO.C,C37*%
X113520000Y-123600000D03*
X114480000Y-123600000D03*
%TD*%
%TO.C,C36*%
X113550000Y-126600000D03*
X114510000Y-126600000D03*
%TD*%
%TO.C,C35*%
X114410000Y-129700000D03*
X113450000Y-129700000D03*
%TD*%
%TO.C,C34*%
X114410000Y-132600000D03*
X113450000Y-132600000D03*
%TD*%
%TO.C,C33*%
X114410000Y-135600000D03*
X113450000Y-135600000D03*
%TD*%
%TO.C,C32*%
X114480000Y-138570000D03*
X113520000Y-138570000D03*
%TD*%
%TO.C,C31*%
X110520000Y-120600000D03*
X111480000Y-120600000D03*
%TD*%
%TO.C,C30*%
X110650000Y-123600000D03*
X111610000Y-123600000D03*
%TD*%
%TO.C,C29*%
X110680000Y-126600000D03*
X111640000Y-126600000D03*
%TD*%
%TO.C,C28*%
X111540000Y-129700000D03*
X110580000Y-129700000D03*
%TD*%
%TO.C,C27*%
X111540000Y-132600000D03*
X110580000Y-132600000D03*
%TD*%
%TO.C,C26*%
X111540000Y-135600000D03*
X110580000Y-135600000D03*
%TD*%
%TO.C,C25*%
X111480000Y-138750000D03*
X110520000Y-138750000D03*
%TD*%
D11*
%TO.C,C7*%
X102480000Y-138600000D03*
X101520000Y-138600000D03*
%TD*%
%TO.C,C2*%
X102480000Y-123600000D03*
X101520000Y-123600000D03*
%TD*%
%TO.C,C4*%
X102480000Y-129600000D03*
X101520000Y-129600000D03*
%TD*%
%TO.C,C5*%
X102480000Y-132600000D03*
X101520000Y-132600000D03*
%TD*%
%TO.C,C6*%
X102480000Y-135600000D03*
X101520000Y-135600000D03*
%TD*%
%TO.C,C22*%
X107520000Y-135600000D03*
X108480000Y-135600000D03*
%TD*%
%TO.C,C10*%
X104520000Y-123600000D03*
X105480000Y-123600000D03*
%TD*%
%TO.C,C20*%
X107520000Y-129600000D03*
X108480000Y-129600000D03*
%TD*%
%TO.C,C1*%
X102480000Y-120550000D03*
X101520000Y-120550000D03*
%TD*%
%TO.C,C3*%
X102480000Y-126600000D03*
X101520000Y-126600000D03*
%TD*%
%TO.C,C9*%
X104520000Y-120550000D03*
X105480000Y-120550000D03*
%TD*%
%TO.C,C11*%
X104520000Y-126600000D03*
X105480000Y-126600000D03*
%TD*%
%TO.C,C12*%
X104475200Y-129600000D03*
X105435200Y-129600000D03*
%TD*%
%TO.C,C13*%
X104520000Y-132600000D03*
X105480000Y-132600000D03*
%TD*%
%TO.C,C14*%
X104475200Y-135600000D03*
X105435200Y-135600000D03*
%TD*%
%TO.C,C15*%
X104520000Y-138600000D03*
X105480000Y-138600000D03*
%TD*%
%TO.C,C17*%
X107520000Y-120550000D03*
X108480000Y-120550000D03*
%TD*%
%TO.C,C19*%
X107520000Y-126600000D03*
X108480000Y-126600000D03*
%TD*%
%TO.C,C18*%
X107520000Y-123600000D03*
X108480000Y-123600000D03*
%TD*%
%TO.C,C16*%
X104520000Y-141600000D03*
X105480000Y-141600000D03*
%TD*%
%TO.C,C21*%
X107520000Y-132600000D03*
X108480000Y-132600000D03*
%TD*%
%TO.C,C23*%
X107605200Y-138600000D03*
X108565200Y-138600000D03*
%TD*%
%TO.C,C8*%
X102480000Y-141600000D03*
X101520000Y-141600000D03*
%TD*%
%TO.C,C24*%
X107605200Y-141600000D03*
X108565200Y-141600000D03*
%TD*%
M02*
