%TF.GenerationSoftware,KiCad,Pcbnew,7.0.5*%
%TF.CreationDate,2023-09-01T16:08:52-05:00*%
%TF.ProjectId,Chimera_0004_Aurora,4368696d-6572-4615-9f30-3030345f4175,rev?*%
%TF.SameCoordinates,Original*%
%TF.FileFunction,Copper,L1,Top*%
%TF.FilePolarity,Positive*%
%FSLAX46Y46*%
G04 Gerber Fmt 4.6, Leading zero omitted, Abs format (unit mm)*
G04 Created by KiCad (PCBNEW 7.0.5) date 2023-09-01 16:08:52*
%MOMM*%
%LPD*%
G01*
G04 APERTURE LIST*
G04 Aperture macros list*
%AMRoundRect*
0 Rectangle with rounded corners*
0 $1 Rounding radius*
0 $2 $3 $4 $5 $6 $7 $8 $9 X,Y pos of 4 corners*
0 Add a 4 corners polygon primitive as box body*
4,1,4,$2,$3,$4,$5,$6,$7,$8,$9,$2,$3,0*
0 Add four circle primitives for the rounded corners*
1,1,$1+$1,$2,$3*
1,1,$1+$1,$4,$5*
1,1,$1+$1,$6,$7*
1,1,$1+$1,$8,$9*
0 Add four rect primitives between the rounded corners*
20,1,$1+$1,$2,$3,$4,$5,0*
20,1,$1+$1,$4,$5,$6,$7,0*
20,1,$1+$1,$6,$7,$8,$9,0*
20,1,$1+$1,$8,$9,$2,$3,0*%
G04 Aperture macros list end*
%TA.AperFunction,SMDPad,CuDef*%
%ADD10R,1.335001X1.500000*%
%TD*%
%TA.AperFunction,ComponentPad*%
%ADD11C,3.600000*%
%TD*%
%TA.AperFunction,ConnectorPad*%
%ADD12C,6.400000*%
%TD*%
%TA.AperFunction,SMDPad,CuDef*%
%ADD13R,0.700000X0.900000*%
%TD*%
%TA.AperFunction,SMDPad,CuDef*%
%ADD14R,0.350000X1.450000*%
%TD*%
%TA.AperFunction,SMDPad,CuDef*%
%ADD15R,0.300000X1.550013*%
%TD*%
%TA.AperFunction,SMDPad,CuDef*%
%ADD16R,0.300000X1.524003*%
%TD*%
%TA.AperFunction,SMDPad,CuDef*%
%ADD17R,1.300000X2.800000*%
%TD*%
%TA.AperFunction,SMDPad,CuDef*%
%ADD18RoundRect,0.200000X-0.275000X0.200000X-0.275000X-0.200000X0.275000X-0.200000X0.275000X0.200000X0*%
%TD*%
%TA.AperFunction,SMDPad,CuDef*%
%ADD19RoundRect,0.200000X-0.200000X-0.275000X0.200000X-0.275000X0.200000X0.275000X-0.200000X0.275000X0*%
%TD*%
%TA.AperFunction,SMDPad,CuDef*%
%ADD20R,0.800000X0.800000*%
%TD*%
%TA.AperFunction,ViaPad*%
%ADD21C,0.600000*%
%TD*%
%TA.AperFunction,Conductor*%
%ADD22C,0.254000*%
%TD*%
%TA.AperFunction,Conductor*%
%ADD23C,0.152400*%
%TD*%
%TA.AperFunction,Conductor*%
%ADD24C,0.500000*%
%TD*%
%TA.AperFunction,Conductor*%
%ADD25C,0.200000*%
%TD*%
G04 APERTURE END LIST*
D10*
%TO.P,F1,1,1*%
%TO.N,Net-(CN1-1-Pad3)*%
X120542494Y-105200000D03*
%TO.P,F1,2,2*%
%TO.N,+5V*%
X118257506Y-105200000D03*
%TD*%
D11*
%TO.P,H1,1*%
%TO.N,N/C*%
X112500000Y-149900000D03*
D12*
X112500000Y-149900000D03*
%TD*%
D13*
%TO.P,LED72,1,DO*%
%TO.N,Net-(LED53-DI)*%
X122449962Y-131415037D03*
%TO.P,LED72,2,GND*%
%TO.N,GND*%
X123550038Y-131415037D03*
%TO.P,LED72,3,DI*%
%TO.N,Net-(LED68-DO)*%
X123550038Y-129584963D03*
%TO.P,LED72,4,VDD*%
%TO.N,+5V*%
X122449962Y-129584963D03*
%TD*%
%TO.P,LED71,1,DO*%
%TO.N,Net-(LED52-DI)*%
X119449962Y-137415037D03*
%TO.P,LED71,2,GND*%
%TO.N,GND*%
X120550038Y-137415037D03*
%TO.P,LED71,3,DI*%
%TO.N,Net-(LED67-DO)*%
X120550038Y-135584963D03*
%TO.P,LED71,4,VDD*%
%TO.N,+5V*%
X119449962Y-135584963D03*
%TD*%
%TO.P,LED68,1,DO*%
%TO.N,Net-(LED68-DO)*%
X122449962Y-128415037D03*
%TO.P,LED68,2,GND*%
%TO.N,GND*%
X123550038Y-128415037D03*
%TO.P,LED68,3,DI*%
%TO.N,Net-(LED64-DO)*%
X123550038Y-126584963D03*
%TO.P,LED68,4,VDD*%
%TO.N,+5V*%
X122449962Y-126584963D03*
%TD*%
%TO.P,LED67,1,DO*%
%TO.N,Net-(LED67-DO)*%
X119449962Y-134415037D03*
%TO.P,LED67,2,GND*%
%TO.N,GND*%
X120550038Y-134415037D03*
%TO.P,LED67,3,DI*%
%TO.N,Net-(LED63-DO)*%
X120550038Y-132584963D03*
%TO.P,LED67,4,VDD*%
%TO.N,+5V*%
X119449962Y-132584963D03*
%TD*%
%TO.P,LED65,1,DO*%
%TO.N,LED_DO*%
X122449962Y-143415037D03*
%TO.P,LED65,2,GND*%
%TO.N,GND*%
X123550038Y-143415037D03*
%TO.P,LED65,3,DI*%
%TO.N,Net-(LED61-DO)*%
X123550038Y-141584963D03*
%TO.P,LED65,4,VDD*%
%TO.N,+5V*%
X122449962Y-141584963D03*
%TD*%
%TO.P,LED64,1,DO*%
%TO.N,Net-(LED64-DO)*%
X122449962Y-125415037D03*
%TO.P,LED64,2,GND*%
%TO.N,GND*%
X123550038Y-125415037D03*
%TO.P,LED64,3,DI*%
%TO.N,Net-(LED60-DO)*%
X123550038Y-123584963D03*
%TO.P,LED64,4,VDD*%
%TO.N,+5V*%
X122449962Y-123584963D03*
%TD*%
%TO.P,LED63,1,DO*%
%TO.N,Net-(LED63-DO)*%
X119449962Y-131415037D03*
%TO.P,LED63,2,GND*%
%TO.N,GND*%
X120550038Y-131415037D03*
%TO.P,LED63,3,DI*%
%TO.N,Net-(LED59-DO)*%
X120550038Y-129584963D03*
%TO.P,LED63,4,VDD*%
%TO.N,+5V*%
X119449962Y-129584963D03*
%TD*%
%TO.P,LED61,1,DO*%
%TO.N,Net-(LED61-DO)*%
X122449962Y-140415037D03*
%TO.P,LED61,2,GND*%
%TO.N,GND*%
X123550038Y-140415037D03*
%TO.P,LED61,3,DI*%
%TO.N,Net-(LED57-DO)*%
X123550038Y-138584963D03*
%TO.P,LED61,4,VDD*%
%TO.N,+5V*%
X122449962Y-138584963D03*
%TD*%
%TO.P,LED60,1,DO*%
%TO.N,Net-(LED60-DO)*%
X122449962Y-122415037D03*
%TO.P,LED60,2,GND*%
%TO.N,GND*%
X123550038Y-122415037D03*
%TO.P,LED60,3,DI*%
%TO.N,Net-(LED56-DO)*%
X123550038Y-120584963D03*
%TO.P,LED60,4,VDD*%
%TO.N,+5V*%
X122449962Y-120584963D03*
%TD*%
%TO.P,LED59,1,DO*%
%TO.N,Net-(LED59-DO)*%
X119449962Y-128415037D03*
%TO.P,LED59,2,GND*%
%TO.N,GND*%
X120550038Y-128415037D03*
%TO.P,LED59,3,DI*%
%TO.N,Net-(LED55-DO)*%
X120550038Y-126584963D03*
%TO.P,LED59,4,VDD*%
%TO.N,+5V*%
X119449962Y-126584963D03*
%TD*%
%TO.P,LED57,1,DO*%
%TO.N,Net-(LED57-DO)*%
X122449962Y-137415037D03*
%TO.P,LED57,2,GND*%
%TO.N,GND*%
X123550038Y-137415037D03*
%TO.P,LED57,3,DI*%
%TO.N,Net-(LED53-DO)*%
X123550038Y-135584963D03*
%TO.P,LED57,4,VDD*%
%TO.N,+5V*%
X122449962Y-135584963D03*
%TD*%
%TO.P,LED56,1,DO*%
%TO.N,Net-(LED56-DO)*%
X119449962Y-143415037D03*
%TO.P,LED56,2,GND*%
%TO.N,GND*%
X120550038Y-143415037D03*
%TO.P,LED56,3,DI*%
%TO.N,Net-(LED52-DO)*%
X120550038Y-141584963D03*
%TO.P,LED56,4,VDD*%
%TO.N,+5V*%
X119449962Y-141584963D03*
%TD*%
%TO.P,LED55,1,DO*%
%TO.N,Net-(LED55-DO)*%
X119449962Y-125415037D03*
%TO.P,LED55,2,GND*%
%TO.N,GND*%
X120550038Y-125415037D03*
%TO.P,LED55,3,DI*%
%TO.N,Net-(LED51-DO)*%
X120550038Y-123584963D03*
%TO.P,LED55,4,VDD*%
%TO.N,+5V*%
X119449962Y-123584963D03*
%TD*%
%TO.P,LED53,1,DO*%
%TO.N,Net-(LED53-DO)*%
X122449962Y-134415037D03*
%TO.P,LED53,2,GND*%
%TO.N,GND*%
X123550038Y-134415037D03*
%TO.P,LED53,3,DI*%
%TO.N,Net-(LED53-DI)*%
X123550038Y-132584963D03*
%TO.P,LED53,4,VDD*%
%TO.N,+5V*%
X122449962Y-132584963D03*
%TD*%
%TO.P,LED52,1,DO*%
%TO.N,Net-(LED52-DO)*%
X119449962Y-140415037D03*
%TO.P,LED52,2,GND*%
%TO.N,GND*%
X120550038Y-140415037D03*
%TO.P,LED52,3,DI*%
%TO.N,Net-(LED52-DI)*%
X120550038Y-138584963D03*
%TO.P,LED52,4,VDD*%
%TO.N,+5V*%
X119449962Y-138584963D03*
%TD*%
%TO.P,LED51,1,DO*%
%TO.N,Net-(LED51-DO)*%
X119449962Y-122415037D03*
%TO.P,LED51,2,GND*%
%TO.N,GND*%
X120550038Y-122415037D03*
%TO.P,LED51,3,DI*%
%TO.N,Net-(LED50-DO)*%
X120550038Y-120584963D03*
%TO.P,LED51,4,VDD*%
%TO.N,+5V*%
X119449962Y-120584963D03*
%TD*%
%TO.P,LED50,1,DO*%
%TO.N,Net-(LED50-DO)*%
X116449962Y-143415037D03*
%TO.P,LED50,2,GND*%
%TO.N,GND*%
X117550038Y-143415037D03*
%TO.P,LED50,3,DI*%
%TO.N,Net-(LED46-DO)*%
X117550038Y-141584963D03*
%TO.P,LED50,4,VDD*%
%TO.N,+5V*%
X116449962Y-141584963D03*
%TD*%
%TO.P,LED49,1,DO*%
%TO.N,Net-(LED30-DI)*%
X116449962Y-125415037D03*
%TO.P,LED49,2,GND*%
%TO.N,GND*%
X117550038Y-125415037D03*
%TO.P,LED49,3,DI*%
%TO.N,Net-(LED45-DO)*%
X117550038Y-123584963D03*
%TO.P,LED49,4,VDD*%
%TO.N,+5V*%
X116449962Y-123584963D03*
%TD*%
%TO.P,LED48,1,DO*%
%TO.N,Net-(LED29-DI)*%
X113449962Y-131415037D03*
%TO.P,LED48,2,GND*%
%TO.N,GND*%
X114550038Y-131415037D03*
%TO.P,LED48,3,DI*%
%TO.N,Net-(LED44-DO)*%
X114550038Y-129584963D03*
%TO.P,LED48,4,VDD*%
%TO.N,+5V*%
X113449962Y-129584963D03*
%TD*%
%TO.P,LED47,1,DO*%
%TO.N,Net-(LED28-DI)*%
X110449962Y-137415037D03*
%TO.P,LED47,2,GND*%
%TO.N,GND*%
X111550038Y-137415037D03*
%TO.P,LED47,3,DI*%
%TO.N,Net-(LED43-DO)*%
X111550038Y-135584963D03*
%TO.P,LED47,4,VDD*%
%TO.N,+5V*%
X110449962Y-135584963D03*
%TD*%
%TO.P,LED46,1,DO*%
%TO.N,Net-(LED46-DO)*%
X116449962Y-140415037D03*
%TO.P,LED46,2,GND*%
%TO.N,GND*%
X117550038Y-140415037D03*
%TO.P,LED46,3,DI*%
%TO.N,Net-(LED42-DO)*%
X117550038Y-138584963D03*
%TO.P,LED46,4,VDD*%
%TO.N,+5V*%
X116449962Y-138584963D03*
%TD*%
%TO.P,LED45,1,DO*%
%TO.N,Net-(LED45-DO)*%
X116449962Y-122415037D03*
%TO.P,LED45,2,GND*%
%TO.N,GND*%
X117550038Y-122415037D03*
%TO.P,LED45,3,DI*%
%TO.N,Net-(LED41-DO)*%
X117550038Y-120584963D03*
%TO.P,LED45,4,VDD*%
%TO.N,+5V*%
X116449962Y-120584963D03*
%TD*%
%TO.P,LED44,1,DO*%
%TO.N,Net-(LED44-DO)*%
X113449962Y-128415037D03*
%TO.P,LED44,2,GND*%
%TO.N,GND*%
X114550038Y-128415037D03*
%TO.P,LED44,3,DI*%
%TO.N,Net-(LED40-DO)*%
X114550038Y-126584963D03*
%TO.P,LED44,4,VDD*%
%TO.N,+5V*%
X113449962Y-126584963D03*
%TD*%
%TO.P,LED43,1,DO*%
%TO.N,Net-(LED43-DO)*%
X110449962Y-134415037D03*
%TO.P,LED43,2,GND*%
%TO.N,GND*%
X111550038Y-134415037D03*
%TO.P,LED43,3,DI*%
%TO.N,Net-(LED39-DO)*%
X111550038Y-132584963D03*
%TO.P,LED43,4,VDD*%
%TO.N,+5V*%
X110449962Y-132584963D03*
%TD*%
%TO.P,LED42,1,DO*%
%TO.N,Net-(LED42-DO)*%
X116449962Y-137415037D03*
%TO.P,LED42,2,GND*%
%TO.N,GND*%
X117550038Y-137415037D03*
%TO.P,LED42,3,DI*%
%TO.N,Net-(LED38-DO)*%
X117550038Y-135584963D03*
%TO.P,LED42,4,VDD*%
%TO.N,+5V*%
X116449962Y-135584963D03*
%TD*%
%TO.P,LED41,1,DO*%
%TO.N,Net-(LED41-DO)*%
X113449962Y-143415037D03*
%TO.P,LED41,2,GND*%
%TO.N,GND*%
X114550038Y-143415037D03*
%TO.P,LED41,3,DI*%
%TO.N,Net-(LED37-DO)*%
X114550038Y-141584963D03*
%TO.P,LED41,4,VDD*%
%TO.N,+5V*%
X113449962Y-141584963D03*
%TD*%
%TO.P,LED40,1,DO*%
%TO.N,Net-(LED40-DO)*%
X113449962Y-125415037D03*
%TO.P,LED40,2,GND*%
%TO.N,GND*%
X114550038Y-125415037D03*
%TO.P,LED40,3,DI*%
%TO.N,Net-(LED36-DO)*%
X114550038Y-123584963D03*
%TO.P,LED40,4,VDD*%
%TO.N,+5V*%
X113449962Y-123584963D03*
%TD*%
%TO.P,LED39,1,DO*%
%TO.N,Net-(LED39-DO)*%
X110449962Y-131415037D03*
%TO.P,LED39,2,GND*%
%TO.N,GND*%
X111550038Y-131415037D03*
%TO.P,LED39,3,DI*%
%TO.N,Net-(LED35-DO)*%
X111550038Y-129584963D03*
%TO.P,LED39,4,VDD*%
%TO.N,+5V*%
X110449962Y-129584963D03*
%TD*%
%TO.P,LED38,1,DO*%
%TO.N,Net-(LED38-DO)*%
X116449962Y-134415037D03*
%TO.P,LED38,2,GND*%
%TO.N,GND*%
X117550038Y-134415037D03*
%TO.P,LED38,3,DI*%
%TO.N,Net-(LED34-DO)*%
X117550038Y-132584963D03*
%TO.P,LED38,4,VDD*%
%TO.N,+5V*%
X116449962Y-132584963D03*
%TD*%
%TO.P,LED37,1,DO*%
%TO.N,Net-(LED37-DO)*%
X113449962Y-140415037D03*
%TO.P,LED37,2,GND*%
%TO.N,GND*%
X114550038Y-140415037D03*
%TO.P,LED37,3,DI*%
%TO.N,Net-(LED33-DO)*%
X114550038Y-138584963D03*
%TO.P,LED37,4,VDD*%
%TO.N,+5V*%
X113449962Y-138584963D03*
%TD*%
%TO.P,LED36,1,DO*%
%TO.N,Net-(LED36-DO)*%
X113449962Y-122415037D03*
%TO.P,LED36,2,GND*%
%TO.N,GND*%
X114550038Y-122415037D03*
%TO.P,LED36,3,DI*%
%TO.N,Net-(LED32-DO)*%
X114550038Y-120584963D03*
%TO.P,LED36,4,VDD*%
%TO.N,+5V*%
X113449962Y-120584963D03*
%TD*%
%TO.P,LED35,1,DO*%
%TO.N,Net-(LED35-DO)*%
X110449962Y-128415037D03*
%TO.P,LED35,2,GND*%
%TO.N,GND*%
X111550038Y-128415037D03*
%TO.P,LED35,3,DI*%
%TO.N,Net-(LED31-DO)*%
X111550038Y-126584963D03*
%TO.P,LED35,4,VDD*%
%TO.N,+5V*%
X110449962Y-126584963D03*
%TD*%
%TO.P,LED34,1,DO*%
%TO.N,Net-(LED34-DO)*%
X116449962Y-131415037D03*
%TO.P,LED34,2,GND*%
%TO.N,GND*%
X117550038Y-131415037D03*
%TO.P,LED34,3,DI*%
%TO.N,Net-(LED30-DO)*%
X117550038Y-129584963D03*
%TO.P,LED34,4,VDD*%
%TO.N,+5V*%
X116449962Y-129584963D03*
%TD*%
%TO.P,LED33,1,DO*%
%TO.N,Net-(LED33-DO)*%
X113449962Y-137415037D03*
%TO.P,LED33,2,GND*%
%TO.N,GND*%
X114550038Y-137415037D03*
%TO.P,LED33,3,DI*%
%TO.N,Net-(LED29-DO)*%
X114550038Y-135584963D03*
%TO.P,LED33,4,VDD*%
%TO.N,+5V*%
X113449962Y-135584963D03*
%TD*%
%TO.P,LED32,1,DO*%
%TO.N,Net-(LED32-DO)*%
X110449962Y-143415037D03*
%TO.P,LED32,2,GND*%
%TO.N,GND*%
X111550038Y-143415037D03*
%TO.P,LED32,3,DI*%
%TO.N,Net-(LED28-DO)*%
X111550038Y-141584963D03*
%TO.P,LED32,4,VDD*%
%TO.N,+5V*%
X110449962Y-141584963D03*
%TD*%
%TO.P,LED31,1,DO*%
%TO.N,Net-(LED31-DO)*%
X110449962Y-125415037D03*
%TO.P,LED31,2,GND*%
%TO.N,GND*%
X111550038Y-125415037D03*
%TO.P,LED31,3,DI*%
%TO.N,Net-(LED27-DO)*%
X111550038Y-123584963D03*
%TO.P,LED31,4,VDD*%
%TO.N,+5V*%
X110449962Y-123584963D03*
%TD*%
%TO.P,LED30,1,DO*%
%TO.N,Net-(LED30-DO)*%
X116449962Y-128415037D03*
%TO.P,LED30,2,GND*%
%TO.N,GND*%
X117550038Y-128415037D03*
%TO.P,LED30,3,DI*%
%TO.N,Net-(LED30-DI)*%
X117550038Y-126584963D03*
%TO.P,LED30,4,VDD*%
%TO.N,+5V*%
X116449962Y-126584963D03*
%TD*%
%TO.P,LED29,1,DO*%
%TO.N,Net-(LED29-DO)*%
X113449962Y-134415037D03*
%TO.P,LED29,2,GND*%
%TO.N,GND*%
X114550038Y-134415037D03*
%TO.P,LED29,3,DI*%
%TO.N,Net-(LED29-DI)*%
X114550038Y-132584963D03*
%TO.P,LED29,4,VDD*%
%TO.N,+5V*%
X113449962Y-132584963D03*
%TD*%
%TO.P,LED28,1,DO*%
%TO.N,Net-(LED28-DO)*%
X110449962Y-140415037D03*
%TO.P,LED28,2,GND*%
%TO.N,GND*%
X111550038Y-140415037D03*
%TO.P,LED28,3,DI*%
%TO.N,Net-(LED28-DI)*%
X111550038Y-138584963D03*
%TO.P,LED28,4,VDD*%
%TO.N,+5V*%
X110449962Y-138584963D03*
%TD*%
%TO.P,LED27,1,DO*%
%TO.N,Net-(LED27-DO)*%
X110449962Y-122415037D03*
%TO.P,LED27,2,GND*%
%TO.N,GND*%
X111550038Y-122415037D03*
%TO.P,LED27,3,DI*%
%TO.N,Net-(LED26-DO)*%
X111550038Y-120584963D03*
%TO.P,LED27,4,VDD*%
%TO.N,+5V*%
X110449962Y-120584963D03*
%TD*%
%TO.P,LED21,4,VDD*%
%TO.N,+5V*%
X107449962Y-126584963D03*
%TO.P,LED21,3,DI*%
%TO.N,Net-(LED20-DO)*%
X108550038Y-126584963D03*
%TO.P,LED21,2,GND*%
%TO.N,GND*%
X108550038Y-128415037D03*
%TO.P,LED21,1,DO*%
%TO.N,Net-(LED21-DO)*%
X107449962Y-128415037D03*
%TD*%
%TO.P,LED23,4,VDD*%
%TO.N,+5V*%
X107449962Y-132584963D03*
%TO.P,LED23,3,DI*%
%TO.N,Net-(LED22-DO)*%
X108550038Y-132584963D03*
%TO.P,LED23,2,GND*%
%TO.N,GND*%
X108550038Y-134415037D03*
%TO.P,LED23,1,DO*%
%TO.N,Net-(LED23-DO)*%
X107449962Y-134415037D03*
%TD*%
%TO.P,LED26,4,VDD*%
%TO.N,+5V*%
X107449962Y-141584963D03*
%TO.P,LED26,3,DI*%
%TO.N,Net-(LED25-DO)*%
X108550038Y-141584963D03*
%TO.P,LED26,2,GND*%
%TO.N,GND*%
X108550038Y-143415037D03*
%TO.P,LED26,1,DO*%
%TO.N,Net-(LED26-DO)*%
X107449962Y-143415037D03*
%TD*%
%TO.P,LED25,4,VDD*%
%TO.N,+5V*%
X107449962Y-138584963D03*
%TO.P,LED25,3,DI*%
%TO.N,Net-(LED24-DO)*%
X108550038Y-138584963D03*
%TO.P,LED25,2,GND*%
%TO.N,GND*%
X108550038Y-140415037D03*
%TO.P,LED25,1,DO*%
%TO.N,Net-(LED25-DO)*%
X107449962Y-140415037D03*
%TD*%
%TO.P,LED22,4,VDD*%
%TO.N,+5V*%
X107449962Y-129584963D03*
%TO.P,LED22,3,DI*%
%TO.N,Net-(LED21-DO)*%
X108550038Y-129584963D03*
%TO.P,LED22,2,GND*%
%TO.N,GND*%
X108550038Y-131415037D03*
%TO.P,LED22,1,DO*%
%TO.N,Net-(LED22-DO)*%
X107449962Y-131415037D03*
%TD*%
%TO.P,LED24,4,VDD*%
%TO.N,+5V*%
X107449962Y-135584963D03*
%TO.P,LED24,3,DI*%
%TO.N,Net-(LED23-DO)*%
X108550038Y-135584963D03*
%TO.P,LED24,2,GND*%
%TO.N,GND*%
X108550038Y-137415037D03*
%TO.P,LED24,1,DO*%
%TO.N,Net-(LED24-DO)*%
X107449962Y-137415037D03*
%TD*%
%TO.P,LED8,1,DO*%
%TO.N,Net-(LED8-DO)*%
X101449962Y-137415037D03*
%TO.P,LED8,2,GND*%
%TO.N,GND*%
X102550038Y-137415037D03*
%TO.P,LED8,3,DI*%
%TO.N,Net-(LED7-DO)*%
X102550038Y-135584963D03*
%TO.P,LED8,4,VDD*%
%TO.N,+5V*%
X101449962Y-135584963D03*
%TD*%
%TO.P,LED11,1,DO*%
%TO.N,Net-(LED11-DO)*%
X104449962Y-122415037D03*
%TO.P,LED11,2,GND*%
%TO.N,GND*%
X105550038Y-122415037D03*
%TO.P,LED11,3,DI*%
%TO.N,Net-(LED10-DO)*%
X105550038Y-120584963D03*
%TO.P,LED11,4,VDD*%
%TO.N,+5V*%
X104449962Y-120584963D03*
%TD*%
%TO.P,LED14,1,DO*%
%TO.N,Net-(LED14-DO)*%
X104449962Y-131415037D03*
%TO.P,LED14,2,GND*%
%TO.N,GND*%
X105550038Y-131415037D03*
%TO.P,LED14,3,DI*%
%TO.N,Net-(LED13-DO)*%
X105550038Y-129584963D03*
%TO.P,LED14,4,VDD*%
%TO.N,+5V*%
X104449962Y-129584963D03*
%TD*%
%TO.P,LED20,1,DO*%
%TO.N,Net-(LED20-DO)*%
X107449962Y-125415037D03*
%TO.P,LED20,2,GND*%
%TO.N,GND*%
X108550038Y-125415037D03*
%TO.P,LED20,3,DI*%
%TO.N,Net-(LED19-DO)*%
X108550038Y-123584963D03*
%TO.P,LED20,4,VDD*%
%TO.N,+5V*%
X107449962Y-123584963D03*
%TD*%
%TO.P,LED5,1,DO*%
%TO.N,Net-(LED5-DO)*%
X101449962Y-128415037D03*
%TO.P,LED5,2,GND*%
%TO.N,GND*%
X102550038Y-128415037D03*
%TO.P,LED5,3,DI*%
%TO.N,Net-(LED4-DO)*%
X102550038Y-126584963D03*
%TO.P,LED5,4,VDD*%
%TO.N,+5V*%
X101449962Y-126584963D03*
%TD*%
%TO.P,LED6,1,DO*%
%TO.N,Net-(LED6-DO)*%
X101449962Y-131415037D03*
%TO.P,LED6,2,GND*%
%TO.N,GND*%
X102550038Y-131415037D03*
%TO.P,LED6,3,DI*%
%TO.N,Net-(LED5-DO)*%
X102550038Y-129584963D03*
%TO.P,LED6,4,VDD*%
%TO.N,+5V*%
X101449962Y-129584963D03*
%TD*%
%TO.P,LED19,1,DO*%
%TO.N,Net-(LED19-DO)*%
X107449962Y-122415037D03*
%TO.P,LED19,2,GND*%
%TO.N,GND*%
X108550038Y-122415037D03*
%TO.P,LED19,3,DI*%
%TO.N,Net-(LED18-DO)*%
X108550038Y-120584963D03*
%TO.P,LED19,4,VDD*%
%TO.N,+5V*%
X107449962Y-120584963D03*
%TD*%
%TO.P,LED4,1,DO*%
%TO.N,Net-(LED4-DO)*%
X101449962Y-125415037D03*
%TO.P,LED4,2,GND*%
%TO.N,GND*%
X102550038Y-125415037D03*
%TO.P,LED4,3,DI*%
%TO.N,Net-(LED3-DO)*%
X102550038Y-123584963D03*
%TO.P,LED4,4,VDD*%
%TO.N,+5V*%
X101449962Y-123584963D03*
%TD*%
%TO.P,LED3,1,DO*%
%TO.N,Net-(LED3-DO)*%
X101449962Y-122415037D03*
%TO.P,LED3,2,GND*%
%TO.N,GND*%
X102550038Y-122415037D03*
%TO.P,LED3,3,DI*%
%TO.N,LED_DI*%
X102550038Y-120584963D03*
%TO.P,LED3,4,VDD*%
%TO.N,+5V*%
X101449962Y-120584963D03*
%TD*%
%TO.P,LED12,1,DO*%
%TO.N,Net-(LED12-DO)*%
X104449962Y-125415037D03*
%TO.P,LED12,2,GND*%
%TO.N,GND*%
X105550038Y-125415037D03*
%TO.P,LED12,3,DI*%
%TO.N,Net-(LED11-DO)*%
X105550038Y-123584963D03*
%TO.P,LED12,4,VDD*%
%TO.N,+5V*%
X104449962Y-123584963D03*
%TD*%
%TO.P,LED13,1,DO*%
%TO.N,Net-(LED13-DO)*%
X104449962Y-128415037D03*
%TO.P,LED13,2,GND*%
%TO.N,GND*%
X105550038Y-128415037D03*
%TO.P,LED13,3,DI*%
%TO.N,Net-(LED12-DO)*%
X105550038Y-126584963D03*
%TO.P,LED13,4,VDD*%
%TO.N,+5V*%
X104449962Y-126584963D03*
%TD*%
%TO.P,LED7,1,DO*%
%TO.N,Net-(LED7-DO)*%
X101449962Y-134415037D03*
%TO.P,LED7,2,GND*%
%TO.N,GND*%
X102550038Y-134415037D03*
%TO.P,LED7,3,DI*%
%TO.N,Net-(LED6-DO)*%
X102550038Y-132584963D03*
%TO.P,LED7,4,VDD*%
%TO.N,+5V*%
X101449962Y-132584963D03*
%TD*%
%TO.P,LED15,4,VDD*%
%TO.N,+5V*%
X104449962Y-132584963D03*
%TO.P,LED15,3,DI*%
%TO.N,Net-(LED14-DO)*%
X105550038Y-132584963D03*
%TO.P,LED15,2,GND*%
%TO.N,GND*%
X105550038Y-134415037D03*
%TO.P,LED15,1,DO*%
%TO.N,Net-(LED15-DO)*%
X104449962Y-134415037D03*
%TD*%
%TO.P,LED16,4,VDD*%
%TO.N,+5V*%
X104449962Y-135584963D03*
%TO.P,LED16,3,DI*%
%TO.N,Net-(LED15-DO)*%
X105550038Y-135584963D03*
%TO.P,LED16,2,GND*%
%TO.N,GND*%
X105550038Y-137415037D03*
%TO.P,LED16,1,DO*%
%TO.N,Net-(LED16-DO)*%
X104449962Y-137415037D03*
%TD*%
%TO.P,LED10,4,VDD*%
%TO.N,+5V*%
X101449962Y-141584963D03*
%TO.P,LED10,3,DI*%
%TO.N,Net-(LED10-DI)*%
X102550038Y-141584963D03*
%TO.P,LED10,2,GND*%
%TO.N,GND*%
X102550038Y-143415037D03*
%TO.P,LED10,1,DO*%
%TO.N,Net-(LED10-DO)*%
X101449962Y-143415037D03*
%TD*%
%TO.P,LED17,1,DO*%
%TO.N,Net-(LED17-DO)*%
X104449962Y-140415037D03*
%TO.P,LED17,2,GND*%
%TO.N,GND*%
X105550038Y-140415037D03*
%TO.P,LED17,3,DI*%
%TO.N,Net-(LED16-DO)*%
X105550038Y-138584963D03*
%TO.P,LED17,4,VDD*%
%TO.N,+5V*%
X104449962Y-138584963D03*
%TD*%
%TO.P,LED18,1,DO*%
%TO.N,Net-(LED18-DO)*%
X104449962Y-143415037D03*
%TO.P,LED18,2,GND*%
%TO.N,GND*%
X105550038Y-143415037D03*
%TO.P,LED18,3,DI*%
%TO.N,Net-(LED17-DO)*%
X105550038Y-141584963D03*
%TO.P,LED18,4,VDD*%
%TO.N,+5V*%
X104449962Y-141584963D03*
%TD*%
%TO.P,LED9,4,VDD*%
%TO.N,+5V*%
X101449962Y-138584963D03*
%TO.P,LED9,3,DI*%
%TO.N,Net-(LED8-DO)*%
X102550038Y-138584963D03*
%TO.P,LED9,2,GND*%
%TO.N,GND*%
X102550038Y-140415037D03*
%TO.P,LED9,1,DO*%
%TO.N,Net-(LED10-DI)*%
X101449962Y-140415037D03*
%TD*%
D14*
%TO.P,U2,1,1*%
%TO.N,GND*%
X103250000Y-91175000D03*
%TO.P,U2,3,1*%
%TO.N,Net-(CN1-1-Pad74)*%
X103750000Y-91175000D03*
%TO.P,U2,5,1*%
%TO.N,Net-(CN1-1-Pad71)*%
X104250000Y-91175000D03*
%TO.P,U2,7,1*%
%TO.N,Net-(CN1-1-Pad69)*%
X104750000Y-91175000D03*
%TO.P,U2,9,1*%
%TO.N,Net-(CN1-1-Pad67)*%
X105250000Y-91175000D03*
%TO.P,U2,11,1*%
%TO.N,Net-(CN1-1-Pad66)*%
X105750000Y-91175000D03*
%TO.P,U2,13,13*%
%TO.N,Net-(CN1-20-Pad63)*%
X106250000Y-91175000D03*
%TO.P,U2,15,15*%
%TO.N,Net-(CN1-20-Pad61)*%
X106750000Y-91175000D03*
%TO.P,U2,17,17*%
%TO.N,Net-(CN1-20-Pad59)*%
X107250000Y-91175000D03*
%TO.P,U2,19,19*%
%TO.N,Net-(CN1-20-Pad57)*%
X107750000Y-91175000D03*
%TO.P,U2,21,20*%
%TO.N,Net-(CN1-20-Pad55)*%
X108250000Y-91175000D03*
%TO.P,U2,23,20*%
%TO.N,Net-(CN1-20-Pad53)*%
X108750000Y-91175000D03*
%TO.P,U2,25,20*%
%TO.N,Net-(CN1-20-Pad51)*%
X109250000Y-91175000D03*
%TO.P,U2,27,20*%
%TO.N,Net-(CN1-20-Pad49)*%
X109750000Y-91175000D03*
%TO.P,U2,29,20*%
%TO.N,LED_DO*%
X110250000Y-91175000D03*
%TO.P,U2,31,20*%
%TO.N,Net-(CN1-20-Pad45)*%
X110750000Y-91175000D03*
%TO.P,U2,33,20*%
%TO.N,Net-(CN1-20-Pad43)*%
X111250000Y-91175000D03*
%TO.P,U2,35,20*%
%TO.N,Net-(CN1-20-Pad41)*%
X111750000Y-91175000D03*
%TO.P,U2,37,20*%
%TO.N,Net-(CN1-20-Pad39)*%
X112250000Y-91175000D03*
%TO.P,U2,39,20*%
%TO.N,Net-(CN1-20-Pad37)*%
X112750000Y-91175000D03*
%TO.P,U2,41,20*%
%TO.N,Net-(CN1-20-Pad35)*%
X113250000Y-91175000D03*
%TO.P,U2,43,20*%
%TO.N,Net-(CN1-20-Pad33)*%
X113750000Y-91175000D03*
%TO.P,U2,45,20*%
%TO.N,Net-(CN1-20-Pad31)*%
X114250000Y-91175000D03*
%TO.P,U2,47,20*%
%TO.N,Net-(CN1-20-Pad29)*%
X114750000Y-91175000D03*
%TO.P,U2,49,20*%
%TO.N,Net-(CN1-20-Pad27)*%
X115250000Y-91175000D03*
%TO.P,U2,51,20*%
%TO.N,Net-(CN1-20-Pad25)*%
X115750000Y-91175000D03*
%TO.P,U2,53,20*%
%TO.N,Net-(CN1-20-Pad23)*%
X116250000Y-91175000D03*
%TO.P,U2,55,20*%
%TO.N,Net-(CN1-20-Pad21)*%
X116750000Y-91175000D03*
%TO.P,U2,57,20*%
%TO.N,20*%
X117250000Y-91175000D03*
%TO.P,U2,67,1*%
%TO.N,10*%
X119750000Y-91175000D03*
%TO.P,U2,69,1*%
%TO.N,8*%
X120250000Y-91175000D03*
%TO.P,U2,71,1*%
%TO.N,6*%
X120750000Y-91175000D03*
%TO.P,U2,73,1*%
%TO.N,4*%
X121250000Y-91175000D03*
%TO.P,U2,75,1*%
%TO.N,GND*%
X121750000Y-91175000D03*
%TD*%
D15*
%TO.P,CN1,1,1*%
%TO.N,+3V3*%
X121749836Y-102400029D03*
%TO.P,CN1,2,1*%
%TO.N,GND*%
X121499900Y-94850117D03*
%TO.P,CN1,3,1*%
%TO.N,Net-(CN1-1-Pad3)*%
X121249964Y-102400029D03*
%TO.P,CN1,4,1*%
%TO.N,4*%
X120999773Y-94850117D03*
%TO.P,CN1,5,1*%
%TO.N,Net-(CN1-1-Pad5)*%
X120749836Y-102400029D03*
%TO.P,CN1,6,1*%
%TO.N,6*%
X120499900Y-94850117D03*
%TO.P,CN1,7,1*%
%TO.N,Net-(CN1-1-Pad7)*%
X120249964Y-102400029D03*
%TO.P,CN1,8,1*%
%TO.N,8*%
X119999773Y-94850117D03*
%TO.P,CN1,9,1*%
%TO.N,Net-(CN1-1-Pad9)*%
X119749836Y-102400029D03*
%TO.P,CN1,10,1*%
%TO.N,10*%
X119499900Y-94850117D03*
%TO.P,CN1,11,1*%
%TO.N,Net-(CN1-1-Pad11)*%
X119249964Y-102400029D03*
%TO.P,CN1,20,20*%
%TO.N,20*%
X116999773Y-94850117D03*
%TO.P,CN1,21,20*%
%TO.N,Net-(CN1-20-Pad21)*%
X116749836Y-102400029D03*
%TO.P,CN1,22,20*%
X116499900Y-94850117D03*
%TO.P,CN1,23,20*%
%TO.N,Net-(CN1-20-Pad23)*%
X116249964Y-102400029D03*
%TO.P,CN1,24,20*%
X115999773Y-94850117D03*
%TO.P,CN1,25,20*%
%TO.N,Net-(CN1-20-Pad25)*%
X115749836Y-102400029D03*
%TO.P,CN1,26,20*%
X115499900Y-94850117D03*
%TO.P,CN1,27,20*%
%TO.N,Net-(CN1-20-Pad27)*%
X115249964Y-102400029D03*
%TO.P,CN1,28,20*%
X114999773Y-94850117D03*
%TO.P,CN1,29,20*%
%TO.N,Net-(CN1-20-Pad29)*%
X114749836Y-102400029D03*
%TO.P,CN1,30,20*%
X114499900Y-94850117D03*
%TO.P,CN1,31,20*%
%TO.N,Net-(CN1-20-Pad31)*%
X114249964Y-102400029D03*
%TO.P,CN1,32,20*%
X113999773Y-94850117D03*
%TO.P,CN1,33,20*%
%TO.N,Net-(CN1-20-Pad33)*%
X113749836Y-102400029D03*
%TO.P,CN1,34,20*%
X113499900Y-94850117D03*
%TO.P,CN1,35,20*%
%TO.N,Net-(CN1-20-Pad35)*%
X113249964Y-102400029D03*
%TO.P,CN1,36,20*%
X112999773Y-94850117D03*
%TO.P,CN1,37,20*%
%TO.N,Net-(CN1-20-Pad37)*%
X112749836Y-102400029D03*
%TO.P,CN1,38,20*%
X112499900Y-94850117D03*
%TO.P,CN1,39,20*%
%TO.N,Net-(CN1-20-Pad39)*%
X112249964Y-102400029D03*
%TO.P,CN1,40,20*%
X111999773Y-94850117D03*
%TO.P,CN1,41,20*%
%TO.N,Net-(CN1-20-Pad41)*%
X111749836Y-102400029D03*
%TO.P,CN1,42,20*%
X111499900Y-94850371D03*
%TO.P,CN1,43,20*%
%TO.N,Net-(CN1-20-Pad43)*%
X111249964Y-102400029D03*
%TO.P,CN1,44,20*%
X110999773Y-94850371D03*
%TO.P,CN1,45,20*%
%TO.N,Net-(CN1-20-Pad45)*%
X110749836Y-102400029D03*
%TO.P,CN1,46,20*%
X110499900Y-94850371D03*
%TO.P,CN1,47,20*%
%TO.N,LED_DI*%
X110249964Y-102400029D03*
%TO.P,CN1,48,20*%
%TO.N,LED_DO*%
X109999773Y-94850371D03*
%TO.P,CN1,49,20*%
%TO.N,Net-(CN1-20-Pad49)*%
X109749836Y-102400029D03*
%TO.P,CN1,50,20*%
X109499900Y-94850371D03*
%TO.P,CN1,51,20*%
%TO.N,Net-(CN1-20-Pad51)*%
X109249964Y-102400029D03*
%TO.P,CN1,52,20*%
X108999773Y-94850371D03*
%TO.P,CN1,53,20*%
%TO.N,Net-(CN1-20-Pad53)*%
X108749836Y-102400029D03*
%TO.P,CN1,54,20*%
X108499900Y-94850371D03*
%TO.P,CN1,55,20*%
%TO.N,Net-(CN1-20-Pad55)*%
X108249964Y-102400029D03*
%TO.P,CN1,56,20*%
X107999773Y-94850371D03*
%TO.P,CN1,57,20*%
%TO.N,Net-(CN1-20-Pad57)*%
X107749836Y-102400029D03*
%TO.P,CN1,58,20*%
X107499900Y-94850371D03*
D16*
%TO.P,CN1,59,20*%
%TO.N,Net-(CN1-20-Pad59)*%
X107249964Y-102400283D03*
%TO.P,CN1,60,20*%
X106999773Y-94850371D03*
%TO.P,CN1,61,20*%
%TO.N,Net-(CN1-20-Pad61)*%
X106749836Y-102400283D03*
%TO.P,CN1,62,20*%
X106499900Y-94850371D03*
%TO.P,CN1,63,20*%
%TO.N,Net-(CN1-20-Pad63)*%
X106249964Y-102400283D03*
%TO.P,CN1,64,20*%
X105999773Y-94850371D03*
%TO.P,CN1,65,20*%
%TO.N,Net-(CN1-1-Pad66)*%
X105749836Y-102400283D03*
%TO.P,CN1,66,1*%
X105499900Y-94850371D03*
D15*
%TO.P,CN1,67,1*%
%TO.N,Net-(CN1-1-Pad67)*%
X105249964Y-102400029D03*
%TO.P,CN1,68,1*%
X104999773Y-94850371D03*
%TO.P,CN1,69,1*%
%TO.N,Net-(CN1-1-Pad69)*%
X104749836Y-102400029D03*
%TO.P,CN1,70,1*%
X104499900Y-94850371D03*
%TO.P,CN1,71,1*%
%TO.N,Net-(CN1-1-Pad71)*%
X104249964Y-102400029D03*
%TO.P,CN1,72,1*%
X103999773Y-94850371D03*
%TO.P,CN1,73,1*%
%TO.N,Net-(CN1-1-Pad73)*%
X103749836Y-102400029D03*
%TO.P,CN1,74,1*%
%TO.N,Net-(CN1-1-Pad74)*%
X103499900Y-94850371D03*
%TO.P,CN1,75,1*%
%TO.N,GND*%
X103249964Y-102400029D03*
D17*
%TO.P,CN1,76*%
%TO.N,N/C*%
X102149887Y-101675111D03*
%TO.P,CN1,77*%
X122849913Y-101675111D03*
%TD*%
D18*
%TO.P,R1,2*%
%TO.N,Net-(LED2-+)*%
X122850000Y-106000000D03*
%TO.P,R1,1*%
%TO.N,+3V3*%
X122850000Y-104350000D03*
%TD*%
D19*
%TO.P,R2,2*%
%TO.N,Net-(LED1-+)*%
X119425000Y-107700000D03*
%TO.P,R2,1*%
%TO.N,+5V*%
X117775000Y-107700000D03*
%TD*%
D20*
%TO.P,LED1,2,+*%
%TO.N,Net-(LED1-+)*%
X121150533Y-107678429D03*
%TO.P,LED1,1,-*%
%TO.N,GND*%
X122749467Y-107671571D03*
%TD*%
%TO.P,LED2,2,+*%
%TO.N,Net-(LED2-+)*%
X121150533Y-111478429D03*
%TO.P,LED2,1,-*%
%TO.N,GND*%
X122749467Y-111471571D03*
%TD*%
D21*
%TO.N,LED_DO*%
X122400000Y-144500000D03*
X110400000Y-100600000D03*
%TO.N,+5V*%
X117100000Y-105200000D03*
X117000000Y-107700000D03*
%TO.N,Net-(LED56-DO)*%
X121500000Y-142672900D03*
X123645300Y-119459600D03*
%TO.N,Net-(LED50-DO)*%
X119047200Y-139500000D03*
X120552900Y-121502800D03*
%TO.N,Net-(LED41-DO)*%
X115443500Y-125400000D03*
X112750000Y-144702800D03*
%TO.N,Net-(LED34-DO)*%
X115649000Y-131449900D03*
X118344000Y-132565000D03*
%TO.N,Net-(LED32-DO)*%
X109650000Y-142827700D03*
X114740700Y-119692500D03*
%TO.N,Net-(LED26-DO)*%
X107600000Y-142500000D03*
X111455800Y-119459600D03*
%TO.N,Net-(LED18-DO)*%
X106533300Y-143100000D03*
X107600000Y-121500000D03*
%TO.N,Net-(LED10-DO)*%
X103750600Y-119599400D03*
X101514200Y-144702800D03*
%TO.N,LED_DI*%
X110250000Y-104607100D03*
%TO.N,Net-(CN1-20-Pad31)*%
X114156000Y-97054400D03*
X114125000Y-92928000D03*
%TO.N,Net-(CN1-20-Pad29)*%
X114748000Y-96463100D03*
%TO.N,Net-(CN1-1-Pad9)*%
X119343000Y-99507100D03*
%TO.N,Net-(CN1-20-Pad63)*%
X105985000Y-93010900D03*
%TO.N,Net-(CN1-1-Pad7)*%
X120251000Y-99629000D03*
%TO.N,Net-(CN1-1-Pad67)*%
X105045000Y-97221400D03*
%TO.N,Net-(CN1-20-Pad61)*%
X106750000Y-103598000D03*
%TO.N,Net-(CN1-20-Pad59)*%
X107144000Y-97644100D03*
%TO.N,Net-(CN1-20-Pad57)*%
X107524000Y-96199400D03*
%TO.N,Net-(CN1-20-Pad55)*%
X108174000Y-100800000D03*
%TO.N,Net-(CN1-20-Pad53)*%
X108696500Y-99795501D03*
%TO.N,Net-(CN1-20-Pad51)*%
X109283500Y-100700000D03*
X109038000Y-92998700D03*
%TO.N,Net-(CN1-20-Pad49)*%
X109404000Y-96835300D03*
%TO.N,Net-(CN1-20-Pad45)*%
X110400000Y-98100000D03*
%TO.N,Net-(CN1-20-Pad43)*%
X110951000Y-103640000D03*
%TO.N,+3V3*%
X123100000Y-95900000D03*
%TO.N,Net-(CN1-20-Pad41)*%
X111635000Y-93248200D03*
X111556000Y-96746600D03*
X112109000Y-103629000D03*
%TO.N,Net-(CN1-1-Pad73)*%
X103768000Y-99155600D03*
%TO.N,Net-(CN1-1-Pad71)*%
X104045000Y-93369500D03*
%TO.N,Net-(CN1-1-Pad69)*%
X104817000Y-100573000D03*
%TO.N,Net-(CN1-20-Pad39)*%
X112085000Y-97876300D03*
%TO.N,Net-(CN1-1-Pad5)*%
X120831000Y-98800000D03*
%TO.N,Net-(CN1-20-Pad37)*%
X112519000Y-99831700D03*
%TO.N,Net-(CN1-20-Pad35)*%
X113250000Y-103607000D03*
%TO.N,Net-(CN1-20-Pad33)*%
X113453000Y-96299800D03*
%TO.N,Net-(CN1-1-Pad66)*%
X105453500Y-98100000D03*
%TO.N,Net-(CN1-20-Pad27)*%
X115250000Y-97947800D03*
%TO.N,Net-(CN1-20-Pad25)*%
X115631000Y-93269900D03*
%TO.N,Net-(CN1-20-Pad23)*%
X116306000Y-96281400D03*
%TO.N,Net-(CN1-20-Pad21)*%
X117612000Y-95617700D03*
%TO.N,Net-(CN1-1-Pad11)*%
X119196000Y-100500000D03*
%TO.N,Net-(CN1-1-Pad3)*%
X121900000Y-99200000D03*
%TO.N,+5V*%
X101305000Y-139500000D03*
X101353400Y-142500000D03*
X103500000Y-135743400D03*
X104450000Y-133500000D03*
X106450000Y-135556500D03*
X106450000Y-129652200D03*
X106605600Y-138414100D03*
X106450000Y-141454700D03*
X106450000Y-133313100D03*
X106666600Y-125971500D03*
X101491900Y-119459600D03*
X101355000Y-133500000D03*
X101355000Y-130500000D03*
X101355000Y-124500000D03*
X113700000Y-124500000D03*
X113700000Y-119459600D03*
X116500000Y-124500000D03*
X119650000Y-121500000D03*
X122598200Y-133500400D03*
X119999800Y-142500000D03*
X122648100Y-142500000D03*
X104560900Y-142500000D03*
X106450000Y-120667800D03*
X104612200Y-139490200D03*
X104450000Y-130500000D03*
X103500000Y-126784000D03*
X104450000Y-121500000D03*
X104450000Y-124500000D03*
X110198400Y-139512700D03*
X110200000Y-133500000D03*
X115350000Y-132495300D03*
X114410000Y-130464900D03*
X118344500Y-138546100D03*
X118331400Y-135743400D03*
X117280000Y-133470000D03*
X116500000Y-130500000D03*
X120480000Y-139465000D03*
X121331000Y-135743400D03*
X118500000Y-131000000D03*
X120510000Y-130480000D03*
X121314400Y-124754100D03*
X123380000Y-124466900D03*
X123480000Y-121465000D03*
X118338000Y-141499200D03*
X115350000Y-141454700D03*
X106647600Y-123337700D03*
X110450000Y-119678500D03*
X113450000Y-133470400D03*
X115651900Y-126350400D03*
X110450000Y-124471700D03*
X110450000Y-142468700D03*
X112650900Y-134881900D03*
X109650000Y-127189600D03*
X112500000Y-137200000D03*
X109650000Y-129398800D03*
X113450000Y-142473800D03*
X115655200Y-135824700D03*
X112649500Y-126784000D03*
X116450000Y-119684600D03*
X115668000Y-138667400D03*
X109549000Y-135093400D03*
X112669900Y-129708000D03*
X118496600Y-123817700D03*
X118499100Y-126588100D03*
X122450000Y-119681400D03*
X121622000Y-139320000D03*
X118501200Y-129389400D03*
X122269800Y-124500000D03*
X118683700Y-133400000D03*
X121655700Y-125978600D03*
X121669900Y-129708000D03*
X106668700Y-126811200D03*
%TO.N,GND*%
X102923000Y-94656200D03*
X122200000Y-95300000D03*
X102401600Y-139500000D03*
X102559200Y-142500000D03*
X106448900Y-137553700D03*
X105350000Y-133500000D03*
X109650000Y-137378400D03*
X108500000Y-130500000D03*
X108500000Y-142500000D03*
X108500000Y-133500000D03*
X102400000Y-121500000D03*
X102680300Y-133500000D03*
X102750000Y-130500000D03*
X114701200Y-121501200D03*
X117778100Y-121500000D03*
X123151900Y-130500000D03*
X105766500Y-142500000D03*
X109343700Y-123763600D03*
X108700000Y-121500000D03*
X105350000Y-130500000D03*
X105350000Y-121500000D03*
X105350000Y-124500000D03*
X110580000Y-130476200D03*
X112500000Y-138800000D03*
X112652800Y-135743400D03*
X112666200Y-132536400D03*
X115657500Y-127162500D03*
X116470000Y-139470000D03*
X115653300Y-135015200D03*
X116320000Y-133479900D03*
X115594500Y-129800500D03*
X121500000Y-141146000D03*
X118653300Y-134983600D03*
X121500000Y-133128900D03*
X119550000Y-130481200D03*
X119550000Y-124500000D03*
X121661000Y-126784000D03*
X121666200Y-123848800D03*
X121652300Y-120555000D03*
X116520000Y-142480000D03*
X112664000Y-141454700D03*
X105550000Y-139525000D03*
X106348100Y-128496200D03*
X102550000Y-124509200D03*
X103329000Y-128419000D03*
X109359200Y-125669100D03*
X103337600Y-137378400D03*
X112329100Y-122191000D03*
X112340100Y-140180000D03*
X114550000Y-133532800D03*
X118353900Y-128546200D03*
X112351900Y-125003000D03*
X111550000Y-142518400D03*
X115350000Y-137440600D03*
X118600000Y-131800000D03*
X112335200Y-128546200D03*
X114550000Y-139535100D03*
X118349500Y-134170600D03*
X112347200Y-131172900D03*
X114918800Y-124519400D03*
X114550000Y-142532900D03*
X118347900Y-137433900D03*
X115334700Y-128601700D03*
X118348900Y-140171200D03*
X117728100Y-124515000D03*
X117295400Y-144307400D03*
X121336100Y-122435300D03*
X121351900Y-140088600D03*
X120903000Y-144305800D03*
X123882700Y-139467000D03*
X121335200Y-128546200D03*
X122269800Y-121500000D03*
X121346900Y-131471200D03*
X123550000Y-144302100D03*
X121339500Y-137378400D03*
X108550000Y-139525000D03*
X109338600Y-128400900D03*
%TD*%
D22*
%TO.N,+5V*%
X122449962Y-123584963D02*
X122449962Y-124319838D01*
X122449962Y-124319838D02*
X122269800Y-124500000D01*
%TO.N,LED_DO*%
X122400000Y-143464999D02*
X122449962Y-143415037D01*
X122400000Y-144500000D02*
X122400000Y-143464999D01*
X110400000Y-99900000D02*
X110400000Y-100600000D01*
X109785000Y-98400000D02*
X110200000Y-98815000D01*
X110200000Y-98815000D02*
X110200000Y-99700000D01*
X110200000Y-99700000D02*
X110400000Y-99900000D01*
X109785000Y-97600000D02*
X109785000Y-98400000D01*
X109999773Y-97385227D02*
X109785000Y-97600000D01*
X109999773Y-94850371D02*
X109999773Y-97385227D01*
%TO.N,Net-(CN1-20-Pad49)*%
X109837500Y-100237500D02*
X109837500Y-102054500D01*
X109837500Y-102054500D02*
X109750000Y-102142000D01*
X109733000Y-99233000D02*
X109733000Y-100133000D01*
X109404000Y-98904000D02*
X109733000Y-99233000D01*
X109733000Y-100133000D02*
X109837500Y-100237500D01*
X109404000Y-96835300D02*
X109404000Y-98904000D01*
%TO.N,Net-(CN1-20-Pad51)*%
X108996000Y-94854600D02*
X108998000Y-94852500D01*
X108996000Y-96455600D02*
X108996000Y-94854600D01*
X108848000Y-99048000D02*
X108848000Y-96602900D01*
X108848000Y-96602900D02*
X108996000Y-96455600D01*
X109250000Y-99450000D02*
X108848000Y-99048000D01*
X109250000Y-99917100D02*
X109250000Y-99450000D01*
%TO.N,Net-(CN1-20-Pad53)*%
X108500000Y-95881300D02*
X108500000Y-94850400D01*
X108465000Y-95915800D02*
X108500000Y-95881300D01*
X108696500Y-99795501D02*
X108465000Y-99564001D01*
X108750000Y-101369000D02*
X108750000Y-102142000D01*
X108730000Y-99829001D02*
X108730000Y-101349000D01*
X108465000Y-99564001D02*
X108465000Y-95915800D01*
X108696500Y-99795501D02*
X108730000Y-99829001D01*
X108730000Y-101349000D02*
X108750000Y-101369000D01*
%TO.N,Net-(CN1-20-Pad45)*%
X110586000Y-99348100D02*
X111100000Y-99862100D01*
X111100000Y-99862100D02*
X111100000Y-101140023D01*
X111100000Y-101140023D02*
X110750000Y-101490023D01*
X110750000Y-101490023D02*
X110750000Y-101678000D01*
X110586000Y-98286000D02*
X110586000Y-99348100D01*
X110400000Y-98100000D02*
X110586000Y-98286000D01*
%TO.N,Net-(CN1-20-Pad43)*%
X111250000Y-103341000D02*
X110951000Y-103640000D01*
X111250000Y-101571815D02*
X111250000Y-103341000D01*
X111582000Y-99725400D02*
X111582000Y-101239815D01*
X111000000Y-99143400D02*
X111582000Y-99725400D01*
X111000000Y-95991000D02*
X111000000Y-99143400D01*
X111582000Y-101239815D02*
X111250000Y-101571815D01*
%TO.N,Net-(CN1-20-Pad51)*%
X109283500Y-100700000D02*
X109250000Y-100666500D01*
X109250000Y-100666500D02*
X109250000Y-99917100D01*
%TO.N,Net-(CN1-20-Pad55)*%
X108000000Y-95881300D02*
X108000000Y-94850400D01*
X108082000Y-95964000D02*
X108000000Y-95881300D01*
X108082000Y-100708000D02*
X108082000Y-95964000D01*
X108174000Y-100800000D02*
X108082000Y-100708000D01*
X108250000Y-101369000D02*
X108250000Y-102400000D01*
X108174000Y-100800000D02*
X108174000Y-101293000D01*
X108174000Y-101293000D02*
X108250000Y-101369000D01*
%TO.N,+3V3*%
X122550000Y-104350000D02*
X122850000Y-104350000D01*
X121750000Y-103550000D02*
X122550000Y-104350000D01*
X121750000Y-102366000D02*
X121750000Y-103550000D01*
%TO.N,GND*%
X123861900Y-95681100D02*
X121750000Y-93569200D01*
X123861900Y-106126100D02*
X123861900Y-95681100D01*
X122972000Y-107016000D02*
X123861900Y-106126100D01*
X122750000Y-107016000D02*
X122972000Y-107016000D01*
X122750000Y-107344000D02*
X122750000Y-107016000D01*
%TO.N,Net-(LED2-+)*%
X122000000Y-110464000D02*
X121150000Y-111314000D01*
X122000000Y-106850000D02*
X122000000Y-110464000D01*
X122850000Y-106000000D02*
X122000000Y-106850000D01*
D23*
%TO.N,+5V*%
X112500000Y-137200000D02*
X112500000Y-137635000D01*
X112500000Y-137635000D02*
X113450000Y-138585000D01*
X118683700Y-133400000D02*
X117350000Y-133400000D01*
X117350000Y-133400000D02*
X117280000Y-133470000D01*
%TO.N,GND*%
X121500000Y-134020100D02*
X121105100Y-134415000D01*
X121500000Y-133128900D02*
X121500000Y-134020100D01*
X120550000Y-134415000D02*
X121105100Y-134415000D01*
X112103238Y-137968238D02*
X111550000Y-137415000D01*
X112103238Y-138303238D02*
X112103238Y-137968238D01*
X112500000Y-138700000D02*
X112103238Y-138303238D01*
X112500000Y-138800000D02*
X112500000Y-138700000D01*
%TO.N,Net-(LED18-DO)*%
X106102100Y-144070100D02*
X105105100Y-144070100D01*
X105105100Y-144070100D02*
X104450000Y-143415000D01*
X106533300Y-143100000D02*
X106533300Y-143638900D01*
X106533300Y-143638900D02*
X106102100Y-144070100D01*
%TO.N,+5V*%
X119450000Y-132750000D02*
X119450000Y-132585000D01*
X118800000Y-133400000D02*
X119450000Y-132750000D01*
X118683700Y-133400000D02*
X118800000Y-133400000D01*
%TO.N,Net-(LED41-DO)*%
X117550000Y-119929900D02*
X117550000Y-120585000D01*
X116778700Y-119158600D02*
X117550000Y-119929900D01*
X116218100Y-119158600D02*
X116778700Y-119158600D01*
X115443500Y-119933200D02*
X116218100Y-119158600D01*
X115443500Y-125400000D02*
X115443500Y-119933200D01*
%TO.N,GND*%
X123550000Y-139759900D02*
X123550000Y-140415000D01*
X124105100Y-139244600D02*
X124105100Y-137416500D01*
X123882700Y-139467000D02*
X124105100Y-139244600D01*
X124105100Y-137416500D02*
X124103600Y-137415000D01*
X123882700Y-139467000D02*
X123589800Y-139759900D01*
X123589800Y-139759900D02*
X123550000Y-139759900D01*
%TO.N,+5V*%
X116450000Y-130450000D02*
X116450000Y-129750000D01*
X116500000Y-130500000D02*
X116450000Y-130450000D01*
%TO.N,GND*%
X118380000Y-131580000D02*
X117550000Y-131580000D01*
X118600000Y-131800000D02*
X118380000Y-131580000D01*
%TO.N,Net-(LED30-DO)*%
X116450000Y-128418237D02*
X117550000Y-129518237D01*
X117550000Y-129518237D02*
X117550000Y-129750000D01*
X116450000Y-128415000D02*
X116450000Y-128418237D01*
D22*
%TO.N,Net-(CN1-1-Pad66)*%
X105808000Y-102342000D02*
X105750000Y-102400000D01*
X105808000Y-98454500D02*
X105808000Y-102342000D01*
X105453500Y-98100000D02*
X105808000Y-98454500D01*
X105500000Y-96860200D02*
X105500000Y-94974300D01*
X105599000Y-96959200D02*
X105500000Y-96860200D01*
X105599000Y-97954500D02*
X105599000Y-96959200D01*
X105453500Y-98100000D02*
X105599000Y-97954500D01*
%TO.N,Net-(CN1-1-Pad67)*%
X105084000Y-98610495D02*
X104900000Y-98426495D01*
X104900000Y-98426495D02*
X104900000Y-97366400D01*
X105425000Y-100395000D02*
X105084000Y-100054000D01*
X105425000Y-101194000D02*
X105425000Y-100395000D01*
X105250000Y-101369000D02*
X105425000Y-101194000D01*
X105084000Y-100054000D02*
X105084000Y-98610495D01*
X104900000Y-97366400D02*
X105045000Y-97221400D01*
X105250000Y-102400000D02*
X105250000Y-101369000D01*
%TO.N,Net-(CN1-1-Pad69)*%
X104703000Y-98768310D02*
X104703000Y-100526000D01*
X104489000Y-98554309D02*
X104703000Y-98768310D01*
X104489000Y-95892000D02*
X104489000Y-98554309D01*
X104500000Y-94850400D02*
X104500000Y-95881300D01*
X104500000Y-95881300D02*
X104489000Y-95892000D01*
X104703000Y-100526000D02*
X104750000Y-100573000D01*
%TO.N,Net-(CN1-1-Pad71)*%
X104322000Y-99388200D02*
X104322000Y-98926125D01*
X104250000Y-99460200D02*
X104322000Y-99388200D01*
X104250000Y-102400000D02*
X104250000Y-99460200D01*
X104322000Y-98926125D02*
X104000000Y-98604125D01*
X104000000Y-98604125D02*
X104000000Y-94978000D01*
%TO.N,Net-(CN1-20-Pad57)*%
X107750000Y-101369000D02*
X107750000Y-102142000D01*
X107618000Y-98518000D02*
X107618000Y-101237000D01*
X107616000Y-98516000D02*
X107618000Y-98518000D01*
X107616000Y-98484000D02*
X107616000Y-98516000D01*
X107618000Y-101237000D02*
X107750000Y-101369000D01*
X107701000Y-98399000D02*
X107616000Y-98484000D01*
X107701000Y-96376400D02*
X107701000Y-98399000D01*
X107524000Y-96199400D02*
X107701000Y-96376400D01*
%TO.N,Net-(CN1-20-Pad61)*%
X106750000Y-98036500D02*
X106750000Y-101908000D01*
X106583000Y-97869500D02*
X106750000Y-98036500D01*
X106583000Y-95951300D02*
X106583000Y-97869500D01*
X106500000Y-95868300D02*
X106583000Y-95951300D01*
X106500000Y-94831500D02*
X106500000Y-95868300D01*
%TO.N,Net-(CN1-20-Pad45)*%
X110400000Y-98100000D02*
X110500000Y-98000000D01*
X110500000Y-98000000D02*
X110500000Y-94887200D01*
%TO.N,LED_DO*%
X109999773Y-92614612D02*
X109999773Y-94850371D01*
X110227000Y-92387385D02*
X109999773Y-92614612D01*
X110227000Y-91198000D02*
X110227000Y-92387385D01*
X110250000Y-91175000D02*
X110227000Y-91198000D01*
D24*
%TO.N,+5V*%
X118257506Y-105200000D02*
X117100000Y-105200000D01*
X117775000Y-107700000D02*
X117000000Y-107700000D01*
X118257506Y-105442494D02*
X117775000Y-105925000D01*
X118257506Y-105200000D02*
X118257506Y-105442494D01*
X117775000Y-105925000D02*
X117775000Y-107700000D01*
D22*
%TO.N,Net-(LED1-+)*%
X121128962Y-107700000D02*
X121150533Y-107678429D01*
X119425000Y-107700000D02*
X121128962Y-107700000D01*
%TO.N,Net-(CN1-1-Pad3)*%
X121249964Y-104492530D02*
X121249964Y-102400029D01*
X120542494Y-105200000D02*
X121249964Y-104492530D01*
%TO.N,+3V3*%
X121750000Y-100273000D02*
X121750000Y-102263000D01*
X123480900Y-98542100D02*
X121750000Y-100273000D01*
X123100000Y-95900000D02*
X123480900Y-96280900D01*
X123480900Y-96280900D02*
X123480900Y-98542100D01*
D25*
%TO.N,LED_DI*%
X102550038Y-114949962D02*
X102550038Y-120584963D01*
X110250000Y-107250000D02*
X102550038Y-114949962D01*
D23*
%TO.N,Net-(LED68-DO)*%
X123550000Y-129515000D02*
X123550000Y-129585000D01*
X122450000Y-128415000D02*
X123550000Y-129515000D01*
%TO.N,Net-(LED67-DO)*%
X120550000Y-135515000D02*
X120550000Y-135585000D01*
X119450000Y-134415000D02*
X120550000Y-135515000D01*
%TO.N,Net-(LED64-DO)*%
X123550000Y-126515000D02*
X123550000Y-126585000D01*
X122450000Y-125415000D02*
X123550000Y-126515000D01*
%TO.N,Net-(LED63-DO)*%
X120550000Y-132515000D02*
X120550000Y-132585000D01*
X119450000Y-131415000D02*
X120550000Y-132515000D01*
%TO.N,Net-(LED61-DO)*%
X123550000Y-141515000D02*
X123550000Y-141585000D01*
X122450000Y-140415000D02*
X123550000Y-141515000D01*
%TO.N,Net-(LED60-DO)*%
X123550000Y-123515000D02*
X123550000Y-123585000D01*
X122450000Y-122415000D02*
X123550000Y-123515000D01*
%TO.N,Net-(LED59-DO)*%
X120550000Y-129515000D02*
X120550000Y-129585000D01*
X119450000Y-128415000D02*
X120550000Y-129515000D01*
%TO.N,Net-(LED57-DO)*%
X123550000Y-138515000D02*
X123550000Y-138585000D01*
X122450000Y-137415000D02*
X123550000Y-138515000D01*
%TO.N,Net-(LED56-DO)*%
X121500000Y-144428300D02*
X121500000Y-142672900D01*
X121117300Y-144811000D02*
X121500000Y-144428300D01*
X120190900Y-144811000D02*
X121117300Y-144811000D01*
X119450000Y-144070100D02*
X120190900Y-144811000D01*
X123550000Y-119554900D02*
X123550000Y-120585000D01*
X123645300Y-119459600D02*
X123550000Y-119554900D01*
X119450000Y-143415000D02*
X119450000Y-144070100D01*
%TO.N,Net-(LED55-DO)*%
X120550000Y-126515000D02*
X120550000Y-126585000D01*
X119450000Y-125415000D02*
X120550000Y-126515000D01*
%TO.N,Net-(LED53-DI)*%
X122450000Y-131485000D02*
X122450000Y-131415000D01*
X123550000Y-132585000D02*
X122450000Y-131485000D01*
%TO.N,Net-(LED53-DO)*%
X123550000Y-135515000D02*
X123550000Y-135585000D01*
X122450000Y-134415000D02*
X123550000Y-135515000D01*
%TO.N,Net-(LED52-DI)*%
X119450000Y-137485000D02*
X119450000Y-137415000D01*
X120550000Y-138585000D02*
X119450000Y-137485000D01*
%TO.N,Net-(LED52-DO)*%
X120550000Y-141515000D02*
X120550000Y-141585000D01*
X119450000Y-140415000D02*
X120550000Y-141515000D01*
%TO.N,Net-(LED51-DO)*%
X120550000Y-123515000D02*
X120550000Y-123585000D01*
X119450000Y-122415000D02*
X120550000Y-123515000D01*
%TO.N,Net-(LED50-DO)*%
X118854100Y-139693100D02*
X119047200Y-139500000D01*
X118854100Y-141710300D02*
X118854100Y-139693100D01*
X117804500Y-142759900D02*
X118854100Y-141710300D01*
X117105100Y-142759900D02*
X117804500Y-142759900D01*
X116450000Y-143415000D02*
X117105100Y-142759900D01*
X120550000Y-121499900D02*
X120550000Y-120585000D01*
X120552900Y-121502800D02*
X120550000Y-121499900D01*
%TO.N,Net-(LED46-DO)*%
X117550000Y-141515000D02*
X117550000Y-141585000D01*
X116450000Y-140415000D02*
X117550000Y-141515000D01*
%TO.N,Net-(LED45-DO)*%
X117550000Y-123515000D02*
X117550000Y-123585000D01*
X116450000Y-122415000D02*
X117550000Y-123515000D01*
%TO.N,Net-(LED44-DO)*%
X114550000Y-129515000D02*
X114550000Y-129585000D01*
X113450000Y-128415000D02*
X114550000Y-129515000D01*
%TO.N,Net-(LED43-DO)*%
X111550000Y-135515000D02*
X111550000Y-135585000D01*
X110450000Y-134415000D02*
X111550000Y-135515000D01*
%TO.N,Net-(LED42-DO)*%
X117550000Y-138515000D02*
X117550000Y-138585000D01*
X116450000Y-137415000D02*
X117550000Y-138515000D01*
%TO.N,Net-(LED41-DO)*%
X113382700Y-144070100D02*
X113450000Y-144070100D01*
X112750000Y-144702800D02*
X113382700Y-144070100D01*
X113450000Y-143415000D02*
X113450000Y-144070100D01*
%TO.N,Net-(LED40-DO)*%
X114550000Y-126515000D02*
X114550000Y-126585000D01*
X113450000Y-125415000D02*
X114550000Y-126515000D01*
%TO.N,Net-(LED39-DO)*%
X111550000Y-132515000D02*
X111550000Y-132585000D01*
X110450000Y-131415000D02*
X111550000Y-132515000D01*
%TO.N,Net-(LED38-DO)*%
X117550000Y-135515000D02*
X117550000Y-135585000D01*
X116450000Y-134415000D02*
X117550000Y-135515000D01*
%TO.N,Net-(LED37-DO)*%
X114550000Y-141515000D02*
X114550000Y-141585000D01*
X113450000Y-140415000D02*
X114550000Y-141515000D01*
%TO.N,Net-(LED36-DO)*%
X114550000Y-123515000D02*
X114550000Y-123585000D01*
X113450000Y-122415000D02*
X114550000Y-123515000D01*
%TO.N,Net-(LED35-DO)*%
X111550000Y-129515000D02*
X111550000Y-129585000D01*
X110450000Y-128415000D02*
X111550000Y-129515000D01*
%TO.N,Net-(LED34-DO)*%
X117550000Y-132585000D02*
X118105100Y-132585000D01*
X118324000Y-132585000D02*
X118344000Y-132565000D01*
X118105100Y-132585000D02*
X118324000Y-132585000D01*
X115779100Y-131580000D02*
X115649000Y-131449900D01*
X116450000Y-131580000D02*
X115779100Y-131580000D01*
%TO.N,Net-(LED33-DO)*%
X114550000Y-138515000D02*
X114550000Y-138585000D01*
X113450000Y-137415000D02*
X114550000Y-138515000D01*
%TO.N,Net-(LED32-DO)*%
X109894900Y-143072600D02*
X109650000Y-142827700D01*
X109894900Y-143415000D02*
X109894900Y-143072600D01*
X114550000Y-119883200D02*
X114740700Y-119692500D01*
X114550000Y-120585000D02*
X114550000Y-119883200D01*
X110450000Y-143415000D02*
X109894900Y-143415000D01*
%TO.N,Net-(LED31-DO)*%
X111550000Y-126515000D02*
X111550000Y-126585000D01*
X110450000Y-125415000D02*
X111550000Y-126515000D01*
%TO.N,Net-(LED30-DI)*%
X116450000Y-125485000D02*
X116450000Y-125415000D01*
X117550000Y-126585000D02*
X116450000Y-125485000D01*
%TO.N,Net-(LED29-DI)*%
X113450000Y-131485000D02*
X113450000Y-131415000D01*
X114550000Y-132585000D02*
X113450000Y-131485000D01*
%TO.N,Net-(LED29-DO)*%
X114550000Y-135515000D02*
X114550000Y-135585000D01*
X113450000Y-134415000D02*
X114550000Y-135515000D01*
%TO.N,Net-(LED28-DI)*%
X110450000Y-137485000D02*
X110450000Y-137415000D01*
X111550000Y-138585000D02*
X110450000Y-137485000D01*
%TO.N,Net-(LED28-DO)*%
X111550000Y-141515000D02*
X111550000Y-141585000D01*
X110450000Y-140415000D02*
X111550000Y-141515000D01*
%TO.N,Net-(LED27-DO)*%
X111550000Y-123515000D02*
X111550000Y-123585000D01*
X110450000Y-122415000D02*
X111550000Y-123515000D01*
%TO.N,Net-(LED26-DO)*%
X107600000Y-142609900D02*
X107600000Y-142500000D01*
X107450000Y-142759900D02*
X107600000Y-142609900D01*
X111550000Y-119553800D02*
X111550000Y-120585000D01*
X111455800Y-119459600D02*
X111550000Y-119553800D01*
X107450000Y-143415000D02*
X107450000Y-142759900D01*
%TO.N,Net-(LED25-DO)*%
X108550000Y-141515000D02*
X108550000Y-141585000D01*
X107450000Y-140415000D02*
X108550000Y-141515000D01*
%TO.N,Net-(LED24-DO)*%
X108550000Y-138515000D02*
X108550000Y-138585000D01*
X107450000Y-137415000D02*
X108550000Y-138515000D01*
%TO.N,Net-(LED23-DO)*%
X107450000Y-134485000D02*
X107450000Y-134415000D01*
X108550000Y-135585000D02*
X107450000Y-134485000D01*
%TO.N,Net-(LED22-DO)*%
X108550000Y-132515000D02*
X108550000Y-132585000D01*
X107450000Y-131415000D02*
X108550000Y-132515000D01*
%TO.N,Net-(LED21-DO)*%
X107450000Y-128485000D02*
X107450000Y-128415000D01*
X108550000Y-129585000D02*
X107450000Y-128485000D01*
%TO.N,Net-(LED20-DO)*%
X107450000Y-125485000D02*
X107450000Y-125415000D01*
X108550000Y-126585000D02*
X107450000Y-125485000D01*
%TO.N,Net-(LED19-DO)*%
X108550000Y-123515000D02*
X108550000Y-123585000D01*
X107450000Y-122415000D02*
X108550000Y-123515000D01*
%TO.N,Net-(LED18-DO)*%
X107635000Y-121500000D02*
X108550000Y-120585000D01*
X107600000Y-121500000D02*
X107635000Y-121500000D01*
%TO.N,Net-(LED17-DO)*%
X104450000Y-140485000D02*
X104450000Y-140415000D01*
X105550000Y-141585000D02*
X104450000Y-140485000D01*
%TO.N,Net-(LED16-DO)*%
X105550000Y-138515000D02*
X105550000Y-138585000D01*
X104450000Y-137415000D02*
X105550000Y-138515000D01*
%TO.N,Net-(LED15-DO)*%
X104450000Y-134485000D02*
X104450000Y-134415000D01*
X105550000Y-135585000D02*
X104450000Y-134485000D01*
%TO.N,Net-(LED14-DO)*%
X104450000Y-131485000D02*
X104450000Y-131415000D01*
X105550000Y-132585000D02*
X104450000Y-131485000D01*
%TO.N,Net-(LED13-DO)*%
X105550000Y-129515000D02*
X105550000Y-129585000D01*
X104450000Y-128415000D02*
X105550000Y-129515000D01*
%TO.N,Net-(LED12-DO)*%
X104450000Y-125485000D02*
X104450000Y-125415000D01*
X105550000Y-126585000D02*
X104450000Y-125485000D01*
%TO.N,Net-(LED11-DO)*%
X104450000Y-122485000D02*
X104450000Y-122415000D01*
X105550000Y-123585000D02*
X104450000Y-122485000D01*
%TO.N,Net-(LED10-DO)*%
X104564400Y-119599400D02*
X103750600Y-119599400D01*
X105550000Y-120585000D02*
X104564400Y-119599400D01*
X101450000Y-144638600D02*
X101450000Y-143415000D01*
X101514200Y-144702800D02*
X101450000Y-144638600D01*
%TO.N,Net-(LED10-DI)*%
X102550000Y-141515000D02*
X102550000Y-141585000D01*
X101450000Y-140415000D02*
X102550000Y-141515000D01*
%TO.N,Net-(LED8-DO)*%
X101450000Y-137485000D02*
X101450000Y-137415000D01*
X102550000Y-138585000D02*
X101450000Y-137485000D01*
%TO.N,Net-(LED7-DO)*%
X102550000Y-135515000D02*
X102550000Y-135585000D01*
X101450000Y-134415000D02*
X102550000Y-135515000D01*
%TO.N,Net-(LED6-DO)*%
X101450000Y-131485000D02*
X101450000Y-131415000D01*
X102550000Y-132585000D02*
X101450000Y-131485000D01*
%TO.N,Net-(LED5-DO)*%
X101450000Y-128485000D02*
X101450000Y-128415000D01*
X102550000Y-129585000D02*
X101450000Y-128485000D01*
%TO.N,Net-(LED4-DO)*%
X102550000Y-126515000D02*
X102550000Y-126585000D01*
X101450000Y-125415000D02*
X102550000Y-126515000D01*
%TO.N,Net-(LED3-DO)*%
X102550000Y-123515000D02*
X102550000Y-123585000D01*
X101450000Y-122415000D02*
X102550000Y-123515000D01*
D25*
%TO.N,LED_DI*%
X110250000Y-107250000D02*
X110250000Y-105228000D01*
D22*
X110250000Y-105228000D02*
X110250000Y-107250000D01*
X110250000Y-102400000D02*
X110250000Y-104607100D01*
X110250000Y-104607100D02*
X110250000Y-105228000D01*
%TO.N,20*%
X117000000Y-94100200D02*
X117000000Y-94287600D01*
X117250000Y-93850000D02*
X117000000Y-94100200D01*
X117250000Y-91175000D02*
X117250000Y-93850000D01*
X117000000Y-94287600D02*
X117000000Y-94287800D01*
D25*
X117000000Y-94662600D02*
X117000000Y-94662800D01*
D22*
X117000000Y-94662600D02*
X117000000Y-94662800D01*
D25*
X117000000Y-94756400D02*
X117000000Y-94756600D01*
X117000000Y-94662800D02*
X117000000Y-94756400D01*
X117000000Y-94756400D02*
X117000000Y-94756600D01*
D22*
X117000000Y-94662800D02*
X117000000Y-94756400D01*
X117000000Y-94756400D02*
X117000000Y-94756600D01*
X117000000Y-94287800D02*
X117000000Y-94475100D01*
X117000000Y-94475100D02*
X117000000Y-94662600D01*
X117000000Y-94287600D02*
X117000000Y-94287800D01*
X117000000Y-94287800D02*
X117000000Y-94475100D01*
X117000000Y-94756600D02*
X117000000Y-94803300D01*
X117000000Y-94803300D02*
X117000000Y-94850100D01*
D25*
X117000000Y-94756600D02*
X117000000Y-94803300D01*
X117000000Y-94803300D02*
X117000000Y-94850100D01*
X117000000Y-94756600D02*
X117000000Y-94803300D01*
X117000000Y-94803300D02*
X117000000Y-94850100D01*
D23*
X116999800Y-94803500D02*
X116999800Y-94850100D01*
X117000000Y-94803300D02*
X116999800Y-94803500D01*
%TO.N,10*%
X119499900Y-94850100D02*
X119500000Y-94850100D01*
D22*
X117419000Y-96931000D02*
X119500000Y-94850100D01*
X117419000Y-102900000D02*
X117419000Y-96931000D01*
X119750000Y-92876600D02*
X119750000Y-91175000D01*
X119738000Y-92888700D02*
X119750000Y-92876600D01*
X119738000Y-93362100D02*
X119738000Y-92888700D01*
X119500000Y-93600100D02*
X119738000Y-93362100D01*
X119500000Y-94850100D02*
X119500000Y-93600100D01*
%TO.N,8*%
X120250000Y-92155900D02*
X120250000Y-91175000D01*
X120234000Y-92171900D02*
X120250000Y-92155900D01*
X120234000Y-92931400D02*
X120234000Y-92171900D01*
X120119000Y-93046500D02*
X120234000Y-92931400D01*
X120119000Y-93681100D02*
X120119000Y-93046500D01*
X120000000Y-93800200D02*
X120119000Y-93681100D01*
X120000000Y-94461200D02*
X120000000Y-93800200D01*
D25*
X120000000Y-94461200D02*
X120000000Y-94461400D01*
D22*
X117800000Y-99189000D02*
X117800000Y-103000000D01*
X120000000Y-96989200D02*
X117800000Y-99189000D01*
X120000000Y-96191900D02*
X120000000Y-96989200D01*
D25*
X120000000Y-96191900D02*
X120000000Y-96191700D01*
X120000000Y-96191700D02*
X120000000Y-95394700D01*
D22*
X120000000Y-94461400D02*
X120000000Y-94461200D01*
D25*
X120000000Y-94655900D02*
X120000000Y-94850100D01*
X120000000Y-94655700D02*
X120000000Y-94655900D01*
X120000000Y-94655900D02*
X120000000Y-94850100D01*
D22*
X120000000Y-94850100D02*
X120000000Y-94655900D01*
D25*
X120000000Y-94461400D02*
X120000000Y-94655700D01*
X120000000Y-94655700D02*
X120000000Y-94655900D01*
D22*
X120000000Y-94655900D02*
X120000000Y-94655700D01*
X120000000Y-94655700D02*
X120000000Y-94461400D01*
D25*
X120000000Y-95394700D02*
X120000000Y-95122300D01*
D22*
X120000000Y-95394700D02*
X120000000Y-96191700D01*
X120000000Y-96191700D02*
X120000000Y-96191900D01*
D25*
X120000000Y-95122300D02*
X120000000Y-94986200D01*
X120000000Y-94986200D02*
X120000000Y-94850100D01*
D22*
X120000000Y-95122300D02*
X120000000Y-94986200D01*
X120000000Y-94986200D02*
X120000000Y-94850100D01*
D23*
X119999800Y-94986000D02*
X119999800Y-94850100D01*
X120000000Y-94986200D02*
X119999800Y-94986000D01*
D22*
%TO.N,6*%
X120750000Y-92833500D02*
X120750000Y-91175000D01*
X120617000Y-92966600D02*
X120750000Y-92833500D01*
X120617000Y-93087300D02*
X120617000Y-92966600D01*
X120500000Y-93204300D02*
X120617000Y-93087300D01*
X120500000Y-94322000D02*
X120500000Y-93204300D01*
D25*
X120500000Y-94322000D02*
X120500000Y-94322100D01*
D22*
X118200000Y-99327800D02*
X118200000Y-103100000D01*
X120500000Y-97027900D02*
X118200000Y-99327800D01*
X120500000Y-96163300D02*
X120500000Y-97027900D01*
D25*
X120500000Y-96163300D02*
X120500000Y-96163200D01*
X120500000Y-96163200D02*
X120500000Y-95298800D01*
D22*
X120500000Y-94322100D02*
X120500000Y-94322000D01*
D25*
X120500000Y-94586200D02*
X120500000Y-94850100D01*
X120500000Y-94586100D02*
X120500000Y-94586200D01*
X120500000Y-94586200D02*
X120500000Y-94850100D01*
D22*
X120500000Y-94850100D02*
X120500000Y-94586200D01*
D25*
X120500000Y-94322100D02*
X120500000Y-94586100D01*
X120500000Y-94586100D02*
X120500000Y-94586200D01*
D22*
X120500000Y-94586200D02*
X120500000Y-94586100D01*
X120500000Y-94586100D02*
X120500000Y-94322100D01*
D25*
X120500000Y-95298800D02*
X120500000Y-95074400D01*
D22*
X120500000Y-95298800D02*
X120500000Y-96163200D01*
X120500000Y-96163200D02*
X120500000Y-96163300D01*
D25*
X120500000Y-95074400D02*
X120500000Y-94962200D01*
X120500000Y-94962200D02*
X120500000Y-94850100D01*
D22*
X120500000Y-95074400D02*
X120500000Y-94962200D01*
X120500000Y-94962200D02*
X120500000Y-94850100D01*
D23*
X120499900Y-94962100D02*
X120499900Y-94850100D01*
X120500000Y-94962200D02*
X120499900Y-94962100D01*
D22*
%TO.N,4*%
X121000000Y-97066900D02*
X121000000Y-95135600D01*
X118600000Y-99466600D02*
X121000000Y-97066900D01*
X118600000Y-103200000D02*
X118600000Y-99466600D01*
X121250000Y-92954200D02*
X121250000Y-91175000D01*
X121000000Y-93204400D02*
X121250000Y-92954200D01*
X121000000Y-94850100D02*
X121000000Y-93204400D01*
X121000000Y-95135600D02*
X121000000Y-95135400D01*
X121000000Y-94992700D02*
X121000000Y-94992500D01*
X121000000Y-94992700D02*
X121000000Y-94992500D01*
D25*
X121000000Y-94921300D02*
X121000000Y-94921100D01*
D22*
X121000000Y-94992500D02*
X121000000Y-94921300D01*
X121000000Y-94992500D02*
X121000000Y-94921300D01*
X121000000Y-94921300D02*
X121000000Y-94921100D01*
X121000000Y-94921300D02*
X121000000Y-94921100D01*
D25*
X121000000Y-94885600D02*
X121000000Y-94885400D01*
X121000000Y-94921100D02*
X121000000Y-94885600D01*
D22*
X121000000Y-94921100D02*
X121000000Y-94885600D01*
X121000000Y-94921100D02*
X121000000Y-94885600D01*
X121000000Y-94921100D02*
X121000000Y-94885600D01*
D25*
X121000000Y-94885600D02*
X121000000Y-94885400D01*
D22*
X121000000Y-94885600D02*
X121000000Y-94885400D01*
X121000000Y-94885600D02*
X121000000Y-94885400D01*
X121000000Y-94885600D02*
X121000000Y-94885400D01*
X121000000Y-95135400D02*
X121000000Y-94992700D01*
X121000000Y-94992700D02*
X121000000Y-94992500D01*
X121000000Y-95135600D02*
X121000000Y-95135400D01*
X121000000Y-95135400D02*
X121000000Y-94992700D01*
X121000000Y-94992500D02*
X121000000Y-94921300D01*
X121000000Y-94921300D02*
X121000000Y-94921100D01*
X121000000Y-94885400D02*
X121000000Y-94867700D01*
X121000000Y-94867700D02*
X121000000Y-94850100D01*
X121000000Y-94885400D02*
X121000000Y-94867700D01*
X121000000Y-94867700D02*
X121000000Y-94850100D01*
X121000000Y-94885400D02*
X121000000Y-94867700D01*
X121000000Y-94867700D02*
X121000000Y-94850100D01*
D25*
X121000000Y-94885400D02*
X121000000Y-94867700D01*
X121000000Y-94867700D02*
X121000000Y-94850100D01*
X121000000Y-94885400D02*
X121000000Y-94867700D01*
X121000000Y-94867700D02*
X121000000Y-94850100D01*
D23*
X120999800Y-94867500D02*
X120999800Y-94850100D01*
X121000000Y-94867700D02*
X120999800Y-94867500D01*
D22*
%TO.N,Net-(CN1-20-Pad31)*%
X114250000Y-92803000D02*
X114250000Y-91175000D01*
X114125000Y-92928000D02*
X114250000Y-92803000D01*
X114250000Y-97148300D02*
X114250000Y-102400000D01*
X114156000Y-97054400D02*
X114250000Y-97148300D01*
X114000000Y-95881000D02*
X114000000Y-95623200D01*
X114009000Y-95889900D02*
X114000000Y-95881000D01*
X114009000Y-96907000D02*
X114009000Y-95889900D01*
X114156000Y-97054400D02*
X114009000Y-96907000D01*
X114000000Y-95623200D02*
X114000000Y-95623000D01*
D25*
X114000000Y-95107800D02*
X114000000Y-95107600D01*
D22*
X114000000Y-95107800D02*
X114000000Y-95107600D01*
D25*
X114000000Y-94978800D02*
X114000000Y-94978600D01*
X114000000Y-95107600D02*
X114000000Y-94978800D01*
D22*
X114000000Y-95107600D02*
X114000000Y-94978800D01*
D25*
X114000000Y-94978800D02*
X114000000Y-94978600D01*
D22*
X114000000Y-94978800D02*
X114000000Y-94978600D01*
X114000000Y-95623000D02*
X114000000Y-95365500D01*
X114000000Y-95365500D02*
X114000000Y-95107800D01*
X114000000Y-95623200D02*
X114000000Y-95623000D01*
X114000000Y-95623000D02*
X114000000Y-95365500D01*
X114000000Y-94978600D02*
X114000000Y-94914300D01*
X114000000Y-94914300D02*
X114000000Y-94850100D01*
D25*
X114000000Y-94978600D02*
X114000000Y-94914300D01*
X114000000Y-94914300D02*
X114000000Y-94850100D01*
X114000000Y-94978600D02*
X114000000Y-94914300D01*
X114000000Y-94914300D02*
X114000000Y-94850100D01*
D23*
X113999800Y-94914100D02*
X113999800Y-94850100D01*
X114000000Y-94914300D02*
X113999800Y-94914100D01*
D22*
%TO.N,Net-(CN1-20-Pad29)*%
X114500000Y-93339300D02*
X114500000Y-94776900D01*
X114681000Y-93158300D02*
X114500000Y-93339300D01*
X114681000Y-91244100D02*
X114681000Y-93158300D01*
X114750000Y-91175000D02*
X114681000Y-91244100D01*
X114500000Y-96214600D02*
X114748000Y-96463100D01*
X114500000Y-94850100D02*
X114500000Y-96214600D01*
X114500000Y-94776900D02*
X114500000Y-94777000D01*
X114500000Y-94813500D02*
X114500000Y-94813600D01*
X114750000Y-101369000D02*
X114750000Y-101626000D01*
X114694000Y-101313000D02*
X114750000Y-101369000D01*
X114694000Y-97717600D02*
X114694000Y-101313000D01*
X114748000Y-97663100D02*
X114694000Y-97717600D01*
X114748000Y-96463100D02*
X114748000Y-97663100D01*
X114750000Y-101626000D02*
X114750000Y-101884000D01*
X114500000Y-94813500D02*
X114500000Y-94813600D01*
D25*
X114500000Y-94831800D02*
X114500000Y-94831900D01*
D22*
X114750000Y-101884000D02*
X114750000Y-102142000D01*
X114750000Y-101626000D02*
X114750000Y-101884000D01*
D25*
X114500000Y-94841000D02*
X114500000Y-94841100D01*
X114750000Y-102142000D02*
X114750000Y-102271000D01*
D22*
X114750000Y-102142000D02*
X114750000Y-102271000D01*
D25*
X114500000Y-94831900D02*
X114500000Y-94841000D01*
X114500000Y-94841000D02*
X114500000Y-94841100D01*
D22*
X114500000Y-94831900D02*
X114500000Y-94841000D01*
X114500000Y-94841000D02*
X114500000Y-94841100D01*
X114500000Y-94831900D02*
X114500000Y-94841000D01*
X114500000Y-94841000D02*
X114500000Y-94841100D01*
X114500000Y-94831900D02*
X114500000Y-94841000D01*
X114500000Y-94841000D02*
X114500000Y-94841100D01*
X114500000Y-94777000D02*
X114500000Y-94813500D01*
X114500000Y-94813500D02*
X114500000Y-94813600D01*
X114500000Y-94776900D02*
X114500000Y-94777000D01*
X114500000Y-94777000D02*
X114500000Y-94813500D01*
X114500000Y-94813600D02*
X114500000Y-94831800D01*
X114500000Y-94831800D02*
X114500000Y-94831900D01*
X114500000Y-94813600D02*
X114500000Y-94831800D01*
X114500000Y-94831800D02*
X114500000Y-94831900D01*
X114500000Y-94813600D02*
X114500000Y-94831800D01*
X114500000Y-94831800D02*
X114500000Y-94831900D01*
X114500000Y-94841100D02*
X114500000Y-94845600D01*
X114500000Y-94845600D02*
X114500000Y-94850100D01*
X114500000Y-94841100D02*
X114500000Y-94845600D01*
X114500000Y-94845600D02*
X114500000Y-94850100D01*
X114500000Y-94841100D02*
X114500000Y-94845600D01*
X114500000Y-94845600D02*
X114500000Y-94850100D01*
D25*
X114500000Y-94841100D02*
X114500000Y-94845600D01*
X114500000Y-94845600D02*
X114500000Y-94850100D01*
X114500000Y-94841100D02*
X114500000Y-94845600D01*
X114500000Y-94845600D02*
X114500000Y-94850100D01*
D23*
X114499900Y-94845700D02*
X114499900Y-94850100D01*
X114500000Y-94845600D02*
X114499900Y-94845700D01*
D22*
X114750000Y-102271000D02*
X114750000Y-102335500D01*
X114750000Y-102335500D02*
X114750000Y-102400000D01*
D25*
X114750000Y-102271000D02*
X114750000Y-102335500D01*
X114750000Y-102335500D02*
X114750000Y-102400000D01*
X114750000Y-102271000D02*
X114750000Y-102335500D01*
X114750000Y-102335500D02*
X114750000Y-102400000D01*
D23*
X114749800Y-102335700D02*
X114749800Y-102400000D01*
X114750000Y-102335500D02*
X114749800Y-102335700D01*
D25*
%TO.N,Net-(LED2-+)*%
X121150000Y-111314000D02*
X121150000Y-111396000D01*
D22*
X121150000Y-111314000D02*
X121150000Y-111396000D01*
X121150000Y-111396000D02*
X121150000Y-111437000D01*
X121150000Y-111437000D02*
X121150000Y-111478000D01*
D25*
X121150000Y-111396000D02*
X121150000Y-111437000D01*
X121150000Y-111437000D02*
X121150000Y-111478000D01*
X121150000Y-111396000D02*
X121150000Y-111437000D01*
X121150000Y-111437000D02*
X121150000Y-111478000D01*
D23*
X121150500Y-111437500D02*
X121150500Y-111478400D01*
X121150000Y-111437000D02*
X121150500Y-111437500D01*
D22*
%TO.N,Net-(LED1-+)*%
X121150000Y-107478000D02*
X121150000Y-107578000D01*
X121150000Y-107578000D02*
X121150000Y-107678000D01*
D25*
X121150000Y-107478000D02*
X121150000Y-107578000D01*
X121150000Y-107578000D02*
X121150000Y-107678000D01*
X121150000Y-107478000D02*
X121150000Y-107578000D01*
X121150000Y-107578000D02*
X121150000Y-107678000D01*
D23*
X121150500Y-107578500D02*
X121150500Y-107678400D01*
X121150000Y-107578000D02*
X121150500Y-107578500D01*
D22*
%TO.N,Net-(CN1-1-Pad9)*%
X119750000Y-99913900D02*
X119750000Y-100945000D01*
X119343000Y-99507100D02*
X119750000Y-99913900D01*
X119750000Y-100945000D02*
X119750000Y-101430000D01*
D25*
X119750000Y-101915000D02*
X119750000Y-102158000D01*
D22*
X119750000Y-100945000D02*
X119750000Y-101430000D01*
X119750000Y-101430000D02*
X119750000Y-101915000D01*
X119750000Y-101915000D02*
X119750000Y-102158000D01*
X119750000Y-102158000D02*
X119750000Y-102279000D01*
X119750000Y-102279000D02*
X119750000Y-102400000D01*
D25*
X119750000Y-102158000D02*
X119750000Y-102279000D01*
X119750000Y-102279000D02*
X119750000Y-102400000D01*
X119750000Y-102158000D02*
X119750000Y-102279000D01*
X119750000Y-102279000D02*
X119750000Y-102400000D01*
D23*
X119749800Y-102279200D02*
X119749800Y-102400000D01*
X119750000Y-102279000D02*
X119749800Y-102279200D01*
D22*
%TO.N,Net-(CN1-1-Pad74)*%
X103500000Y-93819500D02*
X103500000Y-94077200D01*
X103489000Y-93809000D02*
X103500000Y-93819500D01*
X103489000Y-92416500D02*
X103489000Y-93809000D01*
X103750000Y-92155900D02*
X103489000Y-92416500D01*
X103750000Y-91175000D02*
X103750000Y-92155900D01*
X103500000Y-94077200D02*
X103500000Y-94077300D01*
D25*
X103500000Y-94592600D02*
X103500000Y-94592700D01*
D22*
X103500000Y-94592600D02*
X103500000Y-94592700D01*
D25*
X103500000Y-94721500D02*
X103500000Y-94721600D01*
X103500000Y-94592700D02*
X103500000Y-94721500D01*
X103500000Y-94721500D02*
X103500000Y-94721600D01*
D22*
X103500000Y-94592700D02*
X103500000Y-94721500D01*
X103500000Y-94721500D02*
X103500000Y-94721600D01*
X103500000Y-94077300D02*
X103500000Y-94334900D01*
X103500000Y-94334900D02*
X103500000Y-94592600D01*
X103500000Y-94077200D02*
X103500000Y-94077300D01*
X103500000Y-94077300D02*
X103500000Y-94334900D01*
X103500000Y-94721600D02*
X103500000Y-94786000D01*
X103500000Y-94786000D02*
X103500000Y-94850400D01*
D25*
X103500000Y-94721600D02*
X103500000Y-94786000D01*
X103500000Y-94786000D02*
X103500000Y-94850400D01*
X103500000Y-94721600D02*
X103500000Y-94786000D01*
X103500000Y-94786000D02*
X103500000Y-94850400D01*
D23*
X103499900Y-94786100D02*
X103499900Y-94850400D01*
X103500000Y-94786000D02*
X103499900Y-94786100D01*
D22*
%TO.N,Net-(CN1-20-Pad63)*%
X106250000Y-92746300D02*
X106250000Y-91175000D01*
X105985000Y-93010900D02*
X106250000Y-92746300D01*
D23*
X106250000Y-102400000D02*
X106250000Y-102400300D01*
X105999800Y-94850400D02*
X106000000Y-94850400D01*
D22*
X106000000Y-93025300D02*
X106000000Y-94850400D01*
X105985000Y-93010900D02*
X106000000Y-93025300D01*
X106250000Y-101382000D02*
X106250000Y-102400000D01*
X106202000Y-101335000D02*
X106250000Y-101382000D01*
X106202000Y-96597400D02*
X106202000Y-101335000D01*
X106000000Y-96394700D02*
X106202000Y-96597400D01*
X106000000Y-94850400D02*
X106000000Y-96394700D01*
%TO.N,Net-(CN1-1-Pad7)*%
X120250000Y-99630200D02*
X120251000Y-99629000D01*
X120250000Y-102400000D02*
X120250000Y-99630200D01*
%TO.N,Net-(CN1-1-Pad67)*%
X105000000Y-97176100D02*
X105045000Y-97221400D01*
X105000000Y-96282500D02*
X105000000Y-97176100D01*
D25*
X105000000Y-96282500D02*
X105000000Y-96282300D01*
D22*
X105250000Y-92284100D02*
X105250000Y-91175000D01*
X105000000Y-92534300D02*
X105250000Y-92284100D01*
X105000000Y-94360800D02*
X105000000Y-92534300D01*
D25*
X105000000Y-94361000D02*
X105000000Y-94850400D01*
X105000000Y-94360800D02*
X105000000Y-94361000D01*
D22*
X105000000Y-94361000D02*
X105000000Y-94360800D01*
X105000000Y-94850400D02*
X105000000Y-94361000D01*
D25*
X105000000Y-94985000D02*
X105000000Y-94984800D01*
D22*
X105000000Y-95119600D02*
X105000000Y-94985000D01*
X105000000Y-94985000D02*
X105000000Y-94984800D01*
D25*
X105000000Y-94985000D02*
X105000000Y-94984800D01*
X105000000Y-96282300D02*
X105000000Y-95389000D01*
D22*
X105000000Y-95389000D02*
X105000000Y-96282300D01*
X105000000Y-96282300D02*
X105000000Y-96282500D01*
D25*
X105000000Y-95389000D02*
X105000000Y-95119600D01*
X105000000Y-95119600D02*
X105000000Y-94985000D01*
X105000000Y-94984800D02*
X105000000Y-94917600D01*
X105000000Y-94917600D02*
X105000000Y-94850400D01*
D22*
X105000000Y-94984800D02*
X105000000Y-94917600D01*
X105000000Y-94917600D02*
X105000000Y-94850400D01*
D25*
X105000000Y-94984800D02*
X105000000Y-94917600D01*
X105000000Y-94917600D02*
X105000000Y-94850400D01*
D23*
X104999800Y-94917400D02*
X104999800Y-94850400D01*
X105000000Y-94917600D02*
X104999800Y-94917400D01*
D22*
%TO.N,Net-(CN1-20-Pad61)*%
X106750000Y-92155900D02*
X106750000Y-91175000D01*
X106633000Y-92273000D02*
X106750000Y-92155900D01*
X106633000Y-93396400D02*
X106633000Y-92273000D01*
X106557000Y-93472300D02*
X106633000Y-93396400D01*
X106500000Y-93529400D02*
X106557000Y-93472300D01*
X106500000Y-94698800D02*
X106500000Y-93529400D01*
X106500000Y-94698800D02*
X106500000Y-94698900D01*
X106750000Y-99127200D02*
X106750000Y-100218000D01*
X106500000Y-95359200D02*
X106500000Y-95359300D01*
X106500000Y-94850400D02*
X106500000Y-95359200D01*
D25*
X106500000Y-94774600D02*
X106500000Y-94774700D01*
X106750000Y-101908000D02*
X106750000Y-102400000D01*
D22*
X106500000Y-94774600D02*
X106500000Y-94774700D01*
D25*
X106500000Y-94812500D02*
X106500000Y-94812600D01*
D22*
X106750000Y-102999000D02*
X106750000Y-103598000D01*
D25*
X106500000Y-94774700D02*
X106500000Y-94812500D01*
X106500000Y-94812500D02*
X106500000Y-94812600D01*
D22*
X106500000Y-94774700D02*
X106500000Y-94812500D01*
X106500000Y-94812500D02*
X106500000Y-94812600D01*
X106500000Y-94774700D02*
X106500000Y-94812500D01*
X106500000Y-94812500D02*
X106500000Y-94812600D01*
X106500000Y-94698900D02*
X106500000Y-94774600D01*
X106500000Y-94774600D02*
X106500000Y-94774700D01*
X106500000Y-94698800D02*
X106500000Y-94698900D01*
X106500000Y-94698900D02*
X106500000Y-94774600D01*
X106750000Y-101908000D02*
X106750000Y-102400000D01*
X106500000Y-94812600D02*
X106500000Y-94831500D01*
X106500000Y-94812600D02*
X106500000Y-94831500D01*
X106500000Y-94831500D02*
X106500000Y-94850400D01*
D25*
X106500000Y-94812600D02*
X106500000Y-94831500D01*
X106500000Y-94831500D02*
X106500000Y-94850400D01*
X106500000Y-94812600D02*
X106500000Y-94831500D01*
X106500000Y-94831500D02*
X106500000Y-94850400D01*
D23*
X106499900Y-94831600D02*
X106499900Y-94850400D01*
X106500000Y-94831500D02*
X106499900Y-94831600D01*
D22*
X106750000Y-102400000D02*
X106750000Y-102699500D01*
X106750000Y-102699500D02*
X106750000Y-102999000D01*
D25*
X106750000Y-102999000D02*
X106750000Y-102699500D01*
X106750000Y-102699500D02*
X106750000Y-102400000D01*
D23*
X106749800Y-102699300D02*
X106749800Y-102400300D01*
X106750000Y-102699500D02*
X106749800Y-102699300D01*
D25*
%TO.N,Net-(CN1-20-Pad59)*%
X107000000Y-94850400D02*
X107096000Y-94850400D01*
D22*
X107096000Y-93645800D02*
X107096000Y-94850400D01*
X107336000Y-93405900D02*
X107096000Y-93645800D01*
X107336000Y-92919400D02*
X107336000Y-93405900D01*
X107250000Y-92833600D02*
X107336000Y-92919400D01*
X107250000Y-91175000D02*
X107250000Y-92833600D01*
X106968000Y-97468800D02*
X107144000Y-97644100D01*
X106968000Y-95899700D02*
X106968000Y-97468800D01*
X107096000Y-95772200D02*
X106968000Y-95899700D01*
X107096000Y-94850400D02*
X107096000Y-95772200D01*
X107235000Y-97735200D02*
X107144000Y-97644100D01*
X107235000Y-102385000D02*
X107235000Y-97735200D01*
X107250000Y-102400000D02*
X107235000Y-102385000D01*
D23*
X107250000Y-102400000D02*
X107250000Y-102400300D01*
X106999800Y-94850400D02*
X107000000Y-94850400D01*
D22*
%TO.N,Net-(CN1-20-Pad57)*%
X107524000Y-93756200D02*
X107524000Y-94850400D01*
X107717000Y-93563700D02*
X107524000Y-93756200D01*
X107717000Y-92189100D02*
X107717000Y-93563700D01*
X107750000Y-92155900D02*
X107717000Y-92189100D01*
X107750000Y-91175000D02*
X107750000Y-92155900D01*
X107524000Y-94850400D02*
X107524000Y-96199400D01*
D25*
X107750000Y-102142000D02*
X107750000Y-102271000D01*
D22*
X107750000Y-102142000D02*
X107750000Y-102271000D01*
X107750000Y-101626000D02*
X107750000Y-101884000D01*
X107500000Y-94850400D02*
X107524000Y-94850400D01*
D23*
X107500000Y-94850400D02*
X107499900Y-94850400D01*
D22*
X107750000Y-102271000D02*
X107750000Y-102335500D01*
X107750000Y-102335500D02*
X107750000Y-102400000D01*
D25*
X107750000Y-102271000D02*
X107750000Y-102335500D01*
X107750000Y-102335500D02*
X107750000Y-102400000D01*
X107750000Y-102271000D02*
X107750000Y-102335500D01*
X107750000Y-102335500D02*
X107750000Y-102400000D01*
D23*
X107749800Y-102335700D02*
X107749800Y-102400000D01*
X107750000Y-102335500D02*
X107749800Y-102335700D01*
%TO.N,Net-(CN1-20-Pad55)*%
X108000000Y-94850400D02*
X107999800Y-94850400D01*
D22*
X108000000Y-93819500D02*
X108000000Y-94850400D01*
X108100000Y-93719600D02*
X108000000Y-93819500D01*
X108100000Y-92609900D02*
X108100000Y-93719600D01*
X108250000Y-92459600D02*
X108100000Y-92609900D01*
X108250000Y-91175000D02*
X108250000Y-92459600D01*
D25*
%TO.N,Net-(CN1-20-Pad53)*%
X108750000Y-102142000D02*
X108750000Y-102271000D01*
D22*
X108750000Y-102142000D02*
X108750000Y-102271000D01*
X108750000Y-101626000D02*
X108750000Y-101884000D01*
D23*
X108500000Y-94850400D02*
X108499900Y-94850400D01*
D22*
X108500000Y-93819500D02*
X108500000Y-94850400D01*
X108483000Y-93802200D02*
X108500000Y-93819500D01*
X108483000Y-92768500D02*
X108483000Y-93802200D01*
X108750000Y-92501100D02*
X108483000Y-92768500D01*
X108750000Y-91175000D02*
X108750000Y-92501100D01*
X108750000Y-102271000D02*
X108750000Y-102335500D01*
X108750000Y-102335500D02*
X108750000Y-102400000D01*
D25*
X108750000Y-102271000D02*
X108750000Y-102335500D01*
X108750000Y-102335500D02*
X108750000Y-102400000D01*
X108750000Y-102271000D02*
X108750000Y-102335500D01*
X108750000Y-102335500D02*
X108750000Y-102400000D01*
D23*
X108749800Y-102335700D02*
X108749800Y-102400000D01*
X108750000Y-102335500D02*
X108749800Y-102335700D01*
D22*
%TO.N,Net-(CN1-20-Pad51)*%
X109250000Y-92116600D02*
X109250000Y-91175000D01*
X109179000Y-92187200D02*
X109250000Y-92116600D01*
X109179000Y-92857800D02*
X109179000Y-92187200D01*
X109038000Y-92998700D02*
X109179000Y-92857800D01*
X109250000Y-102400000D02*
X109250000Y-99917100D01*
D23*
X108999800Y-94850400D02*
X109000000Y-94850400D01*
D22*
X109000000Y-94850700D02*
X109000000Y-94850400D01*
X108998000Y-94852500D02*
X109000000Y-94850700D01*
X109000000Y-94850400D02*
X108998000Y-94852500D01*
%TO.N,Net-(CN1-20-Pad49)*%
X109378000Y-96809500D02*
X109404000Y-96835300D01*
X109378000Y-95885400D02*
X109378000Y-96809500D01*
X109500000Y-95764000D02*
X109378000Y-95885400D01*
X109500000Y-95291000D02*
X109500000Y-95764000D01*
D25*
X109500000Y-95291000D02*
X109500000Y-95290900D01*
D22*
X109750000Y-92187300D02*
X109750000Y-91175000D01*
X109594000Y-92342900D02*
X109750000Y-92187300D01*
X109594000Y-93725000D02*
X109594000Y-92342900D01*
X109500000Y-93819500D02*
X109594000Y-93725000D01*
X109500000Y-94302600D02*
X109500000Y-93819500D01*
D25*
X109500000Y-94302600D02*
X109500000Y-94302700D01*
X109500000Y-94302700D02*
X109500000Y-94785700D01*
D22*
X109500000Y-95290900D02*
X109500000Y-95291000D01*
X109750000Y-101626000D02*
X109750000Y-101884000D01*
D25*
X109500000Y-95070500D02*
X109500000Y-94850400D01*
X109500000Y-95070600D02*
X109500000Y-95070500D01*
X109750000Y-102142000D02*
X109750000Y-102271000D01*
D22*
X109750000Y-102142000D02*
X109750000Y-102271000D01*
D25*
X109500000Y-95290900D02*
X109500000Y-95070600D01*
D22*
X109500000Y-95070600D02*
X109500000Y-95290900D01*
D25*
X109500000Y-95070600D02*
X109500000Y-95070500D01*
X109500000Y-95070500D02*
X109500000Y-94850400D01*
D22*
X109500000Y-94850400D02*
X109500000Y-95070500D01*
X109500000Y-95070500D02*
X109500000Y-95070600D01*
D25*
X109500000Y-94785700D02*
X109500000Y-94818100D01*
D22*
X109500000Y-94785700D02*
X109500000Y-94302700D01*
X109500000Y-94302700D02*
X109500000Y-94302600D01*
D25*
X109500000Y-94818100D02*
X109500000Y-94834200D01*
X109500000Y-94834200D02*
X109500000Y-94850400D01*
D22*
X109500000Y-94818100D02*
X109500000Y-94834200D01*
X109500000Y-94834200D02*
X109500000Y-94850400D01*
D23*
X109499900Y-94834300D02*
X109499900Y-94850400D01*
X109500000Y-94834200D02*
X109499900Y-94834300D01*
D22*
X109750000Y-102271000D02*
X109750000Y-102335500D01*
X109750000Y-102335500D02*
X109750000Y-102400000D01*
D25*
X109750000Y-102271000D02*
X109750000Y-102335500D01*
X109750000Y-102335500D02*
X109750000Y-102400000D01*
X109750000Y-102271000D02*
X109750000Y-102335500D01*
X109750000Y-102335500D02*
X109750000Y-102400000D01*
D23*
X109749800Y-102335700D02*
X109749800Y-102400000D01*
X109750000Y-102335500D02*
X109749800Y-102335700D01*
D22*
%TO.N,Net-(CN1-20-Pad45)*%
X110750000Y-92403400D02*
X110750000Y-91175000D01*
X110608000Y-92545200D02*
X110750000Y-92403400D01*
X110608000Y-93720700D02*
X110608000Y-92545200D01*
X110500000Y-93829000D02*
X110608000Y-93720700D01*
X110500000Y-94850400D02*
X110500000Y-93829000D01*
X110500000Y-94924200D02*
X110500000Y-94924100D01*
D25*
X110500000Y-94887200D02*
X110500000Y-94887100D01*
D22*
X110500000Y-94924100D02*
X110500000Y-94887200D01*
X110500000Y-94887200D02*
X110500000Y-94887100D01*
X110500000Y-94887200D02*
X110500000Y-94887100D01*
D25*
X110500000Y-94868700D02*
X110500000Y-94868600D01*
X110750000Y-101678000D02*
X110750000Y-102039000D01*
D22*
X110750000Y-101678000D02*
X110750000Y-102039000D01*
D25*
X110500000Y-94887100D02*
X110500000Y-94868700D01*
D22*
X110500000Y-94887100D02*
X110500000Y-94868700D01*
X110500000Y-94887100D02*
X110500000Y-94868700D01*
X110500000Y-94887100D02*
X110500000Y-94868700D01*
D25*
X110500000Y-94868700D02*
X110500000Y-94868600D01*
D22*
X110500000Y-94868700D02*
X110500000Y-94868600D01*
X110500000Y-94868700D02*
X110500000Y-94868600D01*
X110500000Y-94868700D02*
X110500000Y-94868600D01*
X110500000Y-94924200D02*
X110500000Y-94924100D01*
X110500000Y-94998200D02*
X110500000Y-94998100D01*
X110500000Y-94998100D02*
X110500000Y-94924200D01*
X110500000Y-94924100D02*
X110500000Y-94887200D01*
X110500000Y-94887200D02*
X110500000Y-94887100D01*
X110500000Y-94868600D02*
X110500000Y-94859500D01*
X110500000Y-94859500D02*
X110500000Y-94850400D01*
X110500000Y-94868600D02*
X110500000Y-94859500D01*
X110500000Y-94859500D02*
X110500000Y-94850400D01*
X110500000Y-94868600D02*
X110500000Y-94859500D01*
X110500000Y-94859500D02*
X110500000Y-94850400D01*
D25*
X110500000Y-94868600D02*
X110500000Y-94859500D01*
X110500000Y-94859500D02*
X110500000Y-94850400D01*
X110500000Y-94868600D02*
X110500000Y-94859500D01*
X110500000Y-94859500D02*
X110500000Y-94850400D01*
D23*
X110499900Y-94859400D02*
X110499900Y-94850400D01*
X110500000Y-94859500D02*
X110499900Y-94859400D01*
D22*
X110750000Y-102039000D02*
X110750000Y-102219500D01*
X110750000Y-102219500D02*
X110750000Y-102400000D01*
D25*
X110750000Y-102039000D02*
X110750000Y-102219500D01*
X110750000Y-102219500D02*
X110750000Y-102400000D01*
X110750000Y-102039000D02*
X110750000Y-102219500D01*
X110750000Y-102219500D02*
X110750000Y-102400000D01*
D23*
X110749800Y-102219700D02*
X110749800Y-102400000D01*
X110750000Y-102219500D02*
X110749800Y-102219700D01*
D25*
%TO.N,Net-(CN1-20-Pad43)*%
X111000000Y-95991000D02*
X111000000Y-95990800D01*
D22*
X111250000Y-92847200D02*
X111250000Y-91175000D01*
X111000000Y-93097400D02*
X111250000Y-92847200D01*
X111000000Y-94310100D02*
X111000000Y-93097400D01*
D25*
X111000000Y-94310300D02*
X111000000Y-94850400D01*
X111000000Y-94310100D02*
X111000000Y-94310300D01*
D22*
X111000000Y-94310300D02*
X111000000Y-94310100D01*
X111000000Y-94850400D02*
X111000000Y-94310300D01*
D25*
X111000000Y-94936100D02*
X111000000Y-94935900D01*
D22*
X111000000Y-95021800D02*
X111000000Y-94936100D01*
X111000000Y-94936100D02*
X111000000Y-94935900D01*
D25*
X111000000Y-94936100D02*
X111000000Y-94935900D01*
X111000000Y-95990800D02*
X111000000Y-95193500D01*
D22*
X111000000Y-95193500D02*
X111000000Y-95990800D01*
X111000000Y-95990800D02*
X111000000Y-95991000D01*
D25*
X111000000Y-95193500D02*
X111000000Y-95021800D01*
X111000000Y-95021800D02*
X111000000Y-94936100D01*
X111000000Y-94935900D02*
X111000000Y-94893100D01*
X111000000Y-94893100D02*
X111000000Y-94850400D01*
D22*
X111000000Y-94935900D02*
X111000000Y-94893100D01*
X111000000Y-94893100D02*
X111000000Y-94850400D01*
D25*
X111000000Y-94935900D02*
X111000000Y-94893100D01*
X111000000Y-94893100D02*
X111000000Y-94850400D01*
D23*
X110999800Y-94892900D02*
X110999800Y-94850400D01*
X111000000Y-94893100D02*
X110999800Y-94892900D01*
D25*
%TO.N,+3V3*%
X121750000Y-102263000D02*
X121750000Y-102332000D01*
D22*
X121750000Y-102263000D02*
X121750000Y-102332000D01*
X121750000Y-102263000D02*
X121750000Y-102332000D01*
X121750000Y-102263000D02*
X121750000Y-102332000D01*
X121750000Y-102126000D02*
X121750000Y-102263000D01*
X121750000Y-101852000D02*
X121750000Y-102126000D01*
X121750000Y-102126000D02*
X121750000Y-102263000D01*
X121750000Y-102332000D02*
X121750000Y-102366000D01*
X121750000Y-102332000D02*
X121750000Y-102366000D01*
X121750000Y-102366000D02*
X121750000Y-102400000D01*
X121750000Y-102332000D02*
X121750000Y-102366000D01*
X121750000Y-102366000D02*
X121750000Y-102400000D01*
D25*
X121750000Y-102332000D02*
X121750000Y-102366000D01*
X121750000Y-102366000D02*
X121750000Y-102400000D01*
X121750000Y-102332000D02*
X121750000Y-102366000D01*
X121750000Y-102366000D02*
X121750000Y-102400000D01*
D23*
X121749800Y-102366200D02*
X121749800Y-102400000D01*
X121750000Y-102366000D02*
X121749800Y-102366200D01*
D22*
%TO.N,Net-(CN1-20-Pad41)*%
X111750000Y-93133300D02*
X111635000Y-93248200D01*
X111750000Y-91175000D02*
X111750000Y-93133300D01*
X111750000Y-103431000D02*
X111750000Y-103174000D01*
X111911000Y-103431000D02*
X111750000Y-103431000D01*
X112109000Y-103629000D02*
X111911000Y-103431000D01*
X111750000Y-103174000D02*
X111750000Y-102916000D01*
X111500000Y-96690500D02*
X111556000Y-96746600D01*
X111500000Y-95770400D02*
X111500000Y-96690500D01*
D25*
X111500000Y-95770400D02*
X111500000Y-95770300D01*
D22*
X111750000Y-102916000D02*
X111750000Y-102658000D01*
X111500000Y-95770300D02*
X111500000Y-95770400D01*
X111750000Y-103174000D02*
X111750000Y-102916000D01*
D25*
X111500000Y-95310300D02*
X111500000Y-95310200D01*
X111750000Y-102658000D02*
X111750000Y-102529000D01*
D22*
X111750000Y-102658000D02*
X111750000Y-102529000D01*
D25*
X111500000Y-95770300D02*
X111500000Y-95310300D01*
D22*
X111500000Y-95310300D02*
X111500000Y-95770300D01*
D25*
X111500000Y-95310300D02*
X111500000Y-95310200D01*
D22*
X111500000Y-95310200D02*
X111500000Y-95310300D01*
X111500000Y-94850400D02*
X111500000Y-95080300D01*
X111500000Y-95080300D02*
X111500000Y-95310200D01*
D25*
X111500000Y-95310200D02*
X111500000Y-95080300D01*
X111500000Y-95080300D02*
X111500000Y-94850400D01*
X111500000Y-95310200D02*
X111500000Y-95080300D01*
X111500000Y-95080300D02*
X111500000Y-94850400D01*
D23*
X111499900Y-95080200D02*
X111499900Y-94850400D01*
X111500000Y-95080300D02*
X111499900Y-95080200D01*
D22*
X111750000Y-102529000D02*
X111750000Y-102464500D01*
X111750000Y-102464500D02*
X111750000Y-102400000D01*
D25*
X111750000Y-102529000D02*
X111750000Y-102464500D01*
X111750000Y-102464500D02*
X111750000Y-102400000D01*
X111750000Y-102529000D02*
X111750000Y-102464500D01*
X111750000Y-102464500D02*
X111750000Y-102400000D01*
D23*
X111749800Y-102464300D02*
X111749800Y-102400000D01*
X111750000Y-102464500D02*
X111749800Y-102464300D01*
D22*
%TO.N,Net-(CN1-1-Pad73)*%
X103750000Y-101369000D02*
X103750000Y-101626000D01*
X103768000Y-101350000D02*
X103750000Y-101369000D01*
X103768000Y-99155600D02*
X103768000Y-101350000D01*
X103750000Y-101626000D02*
X103750000Y-101884000D01*
D25*
X103750000Y-102142000D02*
X103750000Y-102271000D01*
D22*
X103750000Y-102142000D02*
X103750000Y-102271000D01*
X103750000Y-101626000D02*
X103750000Y-101884000D01*
X103750000Y-101884000D02*
X103750000Y-102142000D01*
X103750000Y-102271000D02*
X103750000Y-102335500D01*
X103750000Y-102335500D02*
X103750000Y-102400000D01*
D25*
X103750000Y-102271000D02*
X103750000Y-102335500D01*
X103750000Y-102335500D02*
X103750000Y-102400000D01*
X103750000Y-102271000D02*
X103750000Y-102335500D01*
X103750000Y-102335500D02*
X103750000Y-102400000D01*
D23*
X103749800Y-102335700D02*
X103749800Y-102400000D01*
X103750000Y-102335500D02*
X103749800Y-102335700D01*
D22*
%TO.N,Net-(CN1-1-Pad71)*%
X104218000Y-93196400D02*
X104045000Y-93369500D01*
X104218000Y-91206600D02*
X104218000Y-93196400D01*
X104250000Y-91175000D02*
X104218000Y-91206600D01*
X104045000Y-93774000D02*
X104045000Y-93369500D01*
X104000000Y-93819500D02*
X104045000Y-93774000D01*
X104000000Y-94850400D02*
X104000000Y-93819500D01*
X104000000Y-95105800D02*
X104000000Y-95105600D01*
D25*
X104000000Y-94978000D02*
X104000000Y-94977800D01*
D22*
X104000000Y-95105600D02*
X104000000Y-94978000D01*
X104000000Y-94978000D02*
X104000000Y-94977800D01*
X104000000Y-94978000D02*
X104000000Y-94977800D01*
D25*
X104000000Y-94914100D02*
X104000000Y-94913900D01*
X104000000Y-94977800D02*
X104000000Y-94914100D01*
D22*
X104000000Y-94977800D02*
X104000000Y-94914100D01*
X104000000Y-94977800D02*
X104000000Y-94914100D01*
X104000000Y-94977800D02*
X104000000Y-94914100D01*
D25*
X104000000Y-94914100D02*
X104000000Y-94913900D01*
D22*
X104000000Y-94914100D02*
X104000000Y-94913900D01*
X104000000Y-94914100D02*
X104000000Y-94913900D01*
X104000000Y-94914100D02*
X104000000Y-94913900D01*
X104000000Y-95105800D02*
X104000000Y-95105600D01*
X104000000Y-95361400D02*
X104000000Y-95361200D01*
X104000000Y-95361200D02*
X104000000Y-95105800D01*
X104000000Y-95105600D02*
X104000000Y-94978000D01*
X104000000Y-94978000D02*
X104000000Y-94977800D01*
X104000000Y-94913900D02*
X104000000Y-94882100D01*
X104000000Y-94882100D02*
X104000000Y-94850400D01*
X104000000Y-94913900D02*
X104000000Y-94882100D01*
X104000000Y-94882100D02*
X104000000Y-94850400D01*
X104000000Y-94913900D02*
X104000000Y-94882100D01*
X104000000Y-94882100D02*
X104000000Y-94850400D01*
D25*
X104000000Y-94913900D02*
X104000000Y-94882100D01*
X104000000Y-94882100D02*
X104000000Y-94850400D01*
X104000000Y-94913900D02*
X104000000Y-94882100D01*
X104000000Y-94882100D02*
X104000000Y-94850400D01*
D23*
X103999800Y-94881900D02*
X103999800Y-94850400D01*
X104000000Y-94882100D02*
X103999800Y-94881900D01*
D22*
%TO.N,Net-(CN1-1-Pad69)*%
X104750000Y-100573000D02*
X104817000Y-100573000D01*
D25*
X104750000Y-101943000D02*
X104750000Y-102172000D01*
D22*
X104750000Y-101943000D02*
X104750000Y-102172000D01*
X104750000Y-101030000D02*
X104750000Y-101486000D01*
X104750000Y-101486000D02*
X104750000Y-101943000D01*
X104750000Y-100573000D02*
X104750000Y-101030000D01*
X104750000Y-101030000D02*
X104750000Y-101486000D01*
D23*
X104500000Y-94850400D02*
X104499900Y-94850400D01*
D22*
X104500000Y-93819500D02*
X104500000Y-94850400D01*
X104601000Y-93718100D02*
X104500000Y-93819500D01*
X104601000Y-92304600D02*
X104601000Y-93718100D01*
X104750000Y-92155900D02*
X104601000Y-92304600D01*
X104750000Y-91175000D02*
X104750000Y-92155900D01*
X104750000Y-102172000D02*
X104750000Y-102286000D01*
X104750000Y-102286000D02*
X104750000Y-102400000D01*
D25*
X104750000Y-102172000D02*
X104750000Y-102286000D01*
X104750000Y-102286000D02*
X104750000Y-102400000D01*
X104750000Y-102172000D02*
X104750000Y-102286000D01*
X104750000Y-102286000D02*
X104750000Y-102400000D01*
D23*
X104749800Y-102286200D02*
X104749800Y-102400000D01*
X104750000Y-102286000D02*
X104749800Y-102286200D01*
D22*
%TO.N,Net-(CN1-20-Pad39)*%
X111963000Y-97998500D02*
X112085000Y-97876300D01*
X111963000Y-101082000D02*
X111963000Y-97998500D01*
X112250000Y-101369000D02*
X111963000Y-101082000D01*
X112250000Y-102400000D02*
X112250000Y-101369000D01*
X112112000Y-97849300D02*
X112085000Y-97876300D01*
X112112000Y-96516300D02*
X112112000Y-97849300D01*
X112000000Y-96404200D02*
X112112000Y-96516300D01*
X112000000Y-95720900D02*
X112000000Y-96404200D01*
D25*
X112000000Y-95720900D02*
X112000000Y-95720700D01*
D22*
X112250000Y-93420800D02*
X112250000Y-91175000D01*
X112000000Y-93671000D02*
X112250000Y-93420800D01*
X112000000Y-94307300D02*
X112000000Y-93671000D01*
D25*
X112000000Y-94307500D02*
X112000000Y-94850100D01*
X112000000Y-94307300D02*
X112000000Y-94307500D01*
D22*
X112000000Y-94307500D02*
X112000000Y-94307300D01*
X112000000Y-94850100D02*
X112000000Y-94307500D01*
D25*
X112000000Y-94896900D02*
X112000000Y-94896700D01*
D22*
X112000000Y-94943700D02*
X112000000Y-94896900D01*
X112000000Y-94896900D02*
X112000000Y-94896700D01*
D25*
X112000000Y-94896900D02*
X112000000Y-94896700D01*
X112000000Y-95720700D02*
X112000000Y-95037600D01*
D22*
X112000000Y-95037600D02*
X112000000Y-95720700D01*
X112000000Y-95720700D02*
X112000000Y-95720900D01*
D25*
X112000000Y-95037600D02*
X112000000Y-94943700D01*
X112000000Y-94943700D02*
X112000000Y-94896900D01*
X112000000Y-94896700D02*
X112000000Y-94873400D01*
X112000000Y-94873400D02*
X112000000Y-94850100D01*
D22*
X112000000Y-94896700D02*
X112000000Y-94873400D01*
X112000000Y-94873400D02*
X112000000Y-94850100D01*
D25*
X112000000Y-94896700D02*
X112000000Y-94873400D01*
X112000000Y-94873400D02*
X112000000Y-94850100D01*
D23*
X111999800Y-94873200D02*
X111999800Y-94850100D01*
X112000000Y-94873400D02*
X111999800Y-94873200D01*
D22*
%TO.N,Net-(CN1-1-Pad5)*%
X120750000Y-101369000D02*
X120750000Y-101626000D01*
X120831000Y-101288000D02*
X120750000Y-101369000D01*
X120831000Y-98800000D02*
X120831000Y-101288000D01*
X120750000Y-101626000D02*
X120750000Y-101884000D01*
D25*
X120750000Y-102142000D02*
X120750000Y-102271000D01*
D22*
X120750000Y-102142000D02*
X120750000Y-102271000D01*
X120750000Y-101626000D02*
X120750000Y-101884000D01*
X120750000Y-101884000D02*
X120750000Y-102142000D01*
X120750000Y-102271000D02*
X120750000Y-102335500D01*
X120750000Y-102335500D02*
X120750000Y-102400000D01*
D25*
X120750000Y-102271000D02*
X120750000Y-102335500D01*
X120750000Y-102335500D02*
X120750000Y-102400000D01*
X120750000Y-102271000D02*
X120750000Y-102335500D01*
X120750000Y-102335500D02*
X120750000Y-102400000D01*
D23*
X120749800Y-102335700D02*
X120749800Y-102400000D01*
X120750000Y-102335500D02*
X120749800Y-102335700D01*
D22*
%TO.N,Net-(CN1-20-Pad37)*%
X112500000Y-97301600D02*
X112500000Y-94965300D01*
X112682000Y-97483200D02*
X112500000Y-97301600D01*
X112682000Y-99668800D02*
X112682000Y-97483200D01*
X112519000Y-99831700D02*
X112682000Y-99668800D01*
X112750000Y-93569100D02*
X112750000Y-91175000D01*
X112500000Y-93819200D02*
X112750000Y-93569100D01*
X112500000Y-94850100D02*
X112500000Y-93819200D01*
X112500000Y-94965300D02*
X112500000Y-94965200D01*
X112500000Y-94907600D02*
X112500000Y-94907500D01*
X112750000Y-100063000D02*
X112750000Y-101454000D01*
X112519000Y-99831700D02*
X112750000Y-100063000D01*
X112750000Y-101454000D02*
X112750000Y-101769000D01*
X112750000Y-101454000D02*
X112750000Y-101769000D01*
X112500000Y-94907600D02*
X112500000Y-94907500D01*
D25*
X112500000Y-94878800D02*
X112500000Y-94878700D01*
X112750000Y-102084000D02*
X112750000Y-102085000D01*
D22*
X112500000Y-94907500D02*
X112500000Y-94878800D01*
X112500000Y-94907500D02*
X112500000Y-94878800D01*
X112500000Y-94878800D02*
X112500000Y-94878700D01*
X112500000Y-94878800D02*
X112500000Y-94878700D01*
D25*
X112500000Y-94864400D02*
X112500000Y-94864300D01*
X112750000Y-102242000D02*
X112750000Y-102243000D01*
X112750000Y-102085000D02*
X112750000Y-102242000D01*
X112750000Y-102242000D02*
X112750000Y-102243000D01*
D22*
X112750000Y-102085000D02*
X112750000Y-102242000D01*
X112750000Y-102242000D02*
X112750000Y-102243000D01*
D25*
X112500000Y-94878700D02*
X112500000Y-94864400D01*
D22*
X112500000Y-94878700D02*
X112500000Y-94864400D01*
X112500000Y-94878700D02*
X112500000Y-94864400D01*
X112500000Y-94878700D02*
X112500000Y-94864400D01*
D25*
X112500000Y-94864400D02*
X112500000Y-94864300D01*
D22*
X112500000Y-94864400D02*
X112500000Y-94864300D01*
X112500000Y-94864400D02*
X112500000Y-94864300D01*
X112500000Y-94864400D02*
X112500000Y-94864300D01*
X112500000Y-94965200D02*
X112500000Y-94907600D01*
X112500000Y-94907600D02*
X112500000Y-94907500D01*
X112500000Y-94965300D02*
X112500000Y-94965200D01*
X112500000Y-94965200D02*
X112500000Y-94907600D01*
X112500000Y-94907500D02*
X112500000Y-94878800D01*
X112500000Y-94878800D02*
X112500000Y-94878700D01*
X112750000Y-101769000D02*
X112750000Y-102084000D01*
X112750000Y-102084000D02*
X112750000Y-102085000D01*
X112500000Y-94864300D02*
X112500000Y-94857200D01*
X112500000Y-94857200D02*
X112500000Y-94850100D01*
X112500000Y-94864300D02*
X112500000Y-94857200D01*
X112500000Y-94857200D02*
X112500000Y-94850100D01*
X112500000Y-94864300D02*
X112500000Y-94857200D01*
X112500000Y-94857200D02*
X112500000Y-94850100D01*
D25*
X112500000Y-94864300D02*
X112500000Y-94857200D01*
X112500000Y-94857200D02*
X112500000Y-94850100D01*
X112500000Y-94864300D02*
X112500000Y-94857200D01*
X112500000Y-94857200D02*
X112500000Y-94850100D01*
D23*
X112499900Y-94857100D02*
X112499900Y-94850100D01*
X112500000Y-94857200D02*
X112499900Y-94857100D01*
D22*
X112750000Y-102243000D02*
X112750000Y-102321500D01*
X112750000Y-102321500D02*
X112750000Y-102400000D01*
D25*
X112750000Y-102243000D02*
X112750000Y-102321500D01*
X112750000Y-102321500D02*
X112750000Y-102400000D01*
X112750000Y-102243000D02*
X112750000Y-102321500D01*
X112750000Y-102321500D02*
X112750000Y-102400000D01*
D23*
X112749800Y-102321700D02*
X112749800Y-102400000D01*
X112750000Y-102321500D02*
X112749800Y-102321700D01*
D22*
%TO.N,Net-(CN1-20-Pad35)*%
X113250000Y-102400000D02*
X113250000Y-103607000D01*
X113250000Y-101369000D02*
X113250000Y-102400000D01*
X113179000Y-101298000D02*
X113250000Y-101369000D01*
X113179000Y-96814100D02*
X113179000Y-101298000D01*
X112896000Y-96531200D02*
X113179000Y-96814100D01*
X112896000Y-95985100D02*
X112896000Y-96531200D01*
X113000000Y-95881000D02*
X112896000Y-95985100D01*
X113000000Y-95396000D02*
X113000000Y-95881000D01*
D25*
X113000000Y-95396000D02*
X113000000Y-95395800D01*
D22*
X113250000Y-92155900D02*
X113250000Y-91175000D01*
X113186000Y-92219700D02*
X113250000Y-92155900D01*
X113186000Y-93754900D02*
X113186000Y-92219700D01*
X113000000Y-93941300D02*
X113186000Y-93754900D01*
X113000000Y-94410900D02*
X113000000Y-93941300D01*
D25*
X113000000Y-94411100D02*
X113000000Y-94850100D01*
X113000000Y-94410900D02*
X113000000Y-94411100D01*
D22*
X113000000Y-94411100D02*
X113000000Y-94410900D01*
X113000000Y-94850100D02*
X113000000Y-94411100D01*
D25*
X113000000Y-94865300D02*
X113000000Y-94865100D01*
D22*
X113000000Y-94880500D02*
X113000000Y-94865300D01*
X113000000Y-94865300D02*
X113000000Y-94865100D01*
D25*
X113000000Y-94865300D02*
X113000000Y-94865100D01*
X113000000Y-95395800D02*
X113000000Y-94911100D01*
D22*
X113000000Y-94911100D02*
X113000000Y-95395800D01*
X113000000Y-95395800D02*
X113000000Y-95396000D01*
D25*
X113000000Y-94911100D02*
X113000000Y-94880500D01*
X113000000Y-94880500D02*
X113000000Y-94865300D01*
X113000000Y-94865100D02*
X113000000Y-94857600D01*
X113000000Y-94857600D02*
X113000000Y-94850100D01*
D22*
X113000000Y-94865100D02*
X113000000Y-94857600D01*
X113000000Y-94857600D02*
X113000000Y-94850100D01*
D25*
X113000000Y-94865100D02*
X113000000Y-94857600D01*
X113000000Y-94857600D02*
X113000000Y-94850100D01*
D23*
X112999800Y-94857400D02*
X112999800Y-94850100D01*
X113000000Y-94857600D02*
X112999800Y-94857400D01*
D22*
%TO.N,Net-(CN1-20-Pad33)*%
X113500000Y-96299800D02*
X113453000Y-96299800D01*
X113569000Y-94780900D02*
X113534000Y-94815500D01*
X113569000Y-92697800D02*
X113569000Y-94780900D01*
X113750000Y-92516900D02*
X113569000Y-92697800D01*
X113750000Y-91175000D02*
X113750000Y-92516900D01*
X113500000Y-94850100D02*
X113500000Y-96299800D01*
X113500000Y-94849900D02*
X113500000Y-94850100D01*
X113517000Y-94832800D02*
X113500000Y-94849900D01*
X113750000Y-99116600D02*
X113750000Y-99937300D01*
X113562000Y-98929100D02*
X113750000Y-99116600D01*
X113562000Y-96362200D02*
X113562000Y-98929100D01*
X113500000Y-96299800D02*
X113562000Y-96362200D01*
X113750000Y-99937300D02*
X113750000Y-99937500D01*
X113534000Y-94815500D02*
X113517000Y-94832800D01*
X113534000Y-94815500D02*
X113517000Y-94832800D01*
X113508000Y-94841400D02*
X113504000Y-94845700D01*
X113517000Y-94832800D02*
X113508000Y-94841400D01*
X113508000Y-94841400D02*
X113504000Y-94845700D01*
X113517000Y-94832800D02*
X113508000Y-94841400D01*
X113750000Y-99937300D02*
X113750000Y-99937500D01*
X113750000Y-99937500D02*
X113750000Y-100758000D01*
X113750000Y-99937500D02*
X113750000Y-100758000D01*
X113504000Y-94845700D02*
X113502000Y-94847900D01*
X113502000Y-94847900D02*
X113500000Y-94850100D01*
X113504000Y-94845700D02*
X113502000Y-94847900D01*
X113502000Y-94847900D02*
X113500000Y-94850100D01*
D23*
X113499900Y-94850000D02*
X113499900Y-94850100D01*
X113502000Y-94847900D02*
X113499900Y-94850000D01*
D22*
X113750000Y-100758000D02*
X113750000Y-101579000D01*
X113750000Y-101579000D02*
X113750000Y-102400000D01*
D23*
X113749800Y-101579200D02*
X113749800Y-102400000D01*
X113750000Y-101579000D02*
X113749800Y-101579200D01*
D22*
%TO.N,Net-(CN1-1-Pad66)*%
X105750000Y-92460200D02*
X105750000Y-91175000D01*
X105430000Y-92780700D02*
X105750000Y-92460200D01*
X105430000Y-93762100D02*
X105430000Y-92780700D01*
X105500000Y-93832500D02*
X105430000Y-93762100D01*
X105500000Y-94850400D02*
X105500000Y-93832500D01*
X105500000Y-95098300D02*
X105500000Y-95098200D01*
D25*
X105500000Y-94974300D02*
X105500000Y-94974200D01*
D22*
X105500000Y-95098200D02*
X105500000Y-94974300D01*
X105500000Y-94974300D02*
X105500000Y-94974200D01*
X105500000Y-94974300D02*
X105500000Y-94974200D01*
D25*
X105500000Y-94912300D02*
X105500000Y-94912200D01*
X105500000Y-94974200D02*
X105500000Y-94912300D01*
D22*
X105500000Y-94974200D02*
X105500000Y-94912300D01*
X105500000Y-94974200D02*
X105500000Y-94912300D01*
X105500000Y-94974200D02*
X105500000Y-94912300D01*
D25*
X105500000Y-94912300D02*
X105500000Y-94912200D01*
D22*
X105500000Y-94912300D02*
X105500000Y-94912200D01*
X105500000Y-94912300D02*
X105500000Y-94912200D01*
X105500000Y-94912300D02*
X105500000Y-94912200D01*
X105500000Y-95098300D02*
X105500000Y-95098200D01*
X105500000Y-95346300D02*
X105500000Y-95346200D01*
X105500000Y-95346200D02*
X105500000Y-95098300D01*
X105500000Y-95098200D02*
X105500000Y-94974300D01*
X105500000Y-94974300D02*
X105500000Y-94974200D01*
X105500000Y-94912200D02*
X105500000Y-94881300D01*
X105500000Y-94881300D02*
X105500000Y-94850400D01*
X105500000Y-94912200D02*
X105500000Y-94881300D01*
X105500000Y-94881300D02*
X105500000Y-94850400D01*
X105500000Y-94912200D02*
X105500000Y-94881300D01*
X105500000Y-94881300D02*
X105500000Y-94850400D01*
D25*
X105500000Y-94912200D02*
X105500000Y-94881300D01*
X105500000Y-94881300D02*
X105500000Y-94850400D01*
X105500000Y-94912200D02*
X105500000Y-94881300D01*
X105500000Y-94881300D02*
X105500000Y-94850400D01*
D23*
X105499900Y-94881200D02*
X105499900Y-94850400D01*
X105500000Y-94881300D02*
X105499900Y-94881200D01*
X105749800Y-102400200D02*
X105749800Y-102400300D01*
X105750000Y-102400000D02*
X105749800Y-102400200D01*
D22*
%TO.N,Net-(CN1-20-Pad27)*%
X115250000Y-102400000D02*
X115250000Y-97947800D01*
D23*
X115000000Y-94850100D02*
X114999800Y-94850100D01*
D22*
X115000000Y-95881000D02*
X115000000Y-94850100D01*
X115306000Y-96187100D02*
X115000000Y-95881000D01*
X115306000Y-97891900D02*
X115306000Y-96187100D01*
X115250000Y-97947800D02*
X115306000Y-97891900D01*
X115250000Y-92155900D02*
X115250000Y-91175000D01*
X115064000Y-92342100D02*
X115250000Y-92155900D01*
X115064000Y-93755200D02*
X115064000Y-92342100D01*
X115000000Y-93819200D02*
X115064000Y-93755200D01*
X115000000Y-94850100D02*
X115000000Y-93819200D01*
%TO.N,Net-(CN1-20-Pad25)*%
X115750000Y-93151300D02*
X115631000Y-93269900D01*
X115750000Y-91175000D02*
X115750000Y-93151300D01*
X115750000Y-101626000D02*
X115750000Y-101884000D01*
X115750000Y-101369000D02*
X115750000Y-101626000D01*
X115806000Y-101313000D02*
X115750000Y-101369000D01*
X115806000Y-97717500D02*
X115806000Y-101313000D01*
X115750000Y-97661600D02*
X115806000Y-97717500D01*
X115750000Y-96061000D02*
X115750000Y-97661600D01*
X115500000Y-95811100D02*
X115750000Y-96061000D01*
X115500000Y-95321800D02*
X115500000Y-95811100D01*
D25*
X115500000Y-95321800D02*
X115500000Y-95321700D01*
D22*
X115631000Y-93687700D02*
X115631000Y-93269900D01*
X115500000Y-93819200D02*
X115631000Y-93687700D01*
X115500000Y-94317100D02*
X115500000Y-93819200D01*
D25*
X115500000Y-94317100D02*
X115500000Y-94317200D01*
D22*
X115750000Y-101884000D02*
X115750000Y-102142000D01*
D25*
X115500000Y-94317200D02*
X115500000Y-94815100D01*
D22*
X115500000Y-95321700D02*
X115500000Y-95321800D01*
X115750000Y-101626000D02*
X115750000Y-101884000D01*
D25*
X115500000Y-95085800D02*
X115500000Y-94850100D01*
X115500000Y-95085900D02*
X115500000Y-95085800D01*
X115750000Y-102142000D02*
X115750000Y-102271000D01*
D22*
X115750000Y-102142000D02*
X115750000Y-102271000D01*
D25*
X115500000Y-95321700D02*
X115500000Y-95085900D01*
D22*
X115500000Y-95085900D02*
X115500000Y-95321700D01*
D25*
X115500000Y-95085900D02*
X115500000Y-95085800D01*
X115500000Y-95085800D02*
X115500000Y-94850100D01*
D22*
X115500000Y-94850100D02*
X115500000Y-95085800D01*
X115500000Y-95085800D02*
X115500000Y-95085900D01*
D25*
X115500000Y-94815100D02*
X115500000Y-94832600D01*
D22*
X115500000Y-94815100D02*
X115500000Y-94317200D01*
X115500000Y-94317200D02*
X115500000Y-94317100D01*
D25*
X115500000Y-94832600D02*
X115500000Y-94841300D01*
X115500000Y-94841300D02*
X115500000Y-94850100D01*
D22*
X115500000Y-94832600D02*
X115500000Y-94841300D01*
X115500000Y-94841300D02*
X115500000Y-94850100D01*
D23*
X115499900Y-94841400D02*
X115499900Y-94850100D01*
X115500000Y-94841300D02*
X115499900Y-94841400D01*
D22*
X115750000Y-102271000D02*
X115750000Y-102335500D01*
X115750000Y-102335500D02*
X115750000Y-102400000D01*
D25*
X115750000Y-102271000D02*
X115750000Y-102335500D01*
X115750000Y-102335500D02*
X115750000Y-102400000D01*
X115750000Y-102271000D02*
X115750000Y-102335500D01*
X115750000Y-102335500D02*
X115750000Y-102400000D01*
D23*
X115749800Y-102335700D02*
X115749800Y-102400000D01*
X115750000Y-102335500D02*
X115749800Y-102335700D01*
D22*
%TO.N,Net-(CN1-20-Pad23)*%
X116260000Y-96281400D02*
X116306000Y-96281400D01*
X116250000Y-96291900D02*
X116260000Y-96281400D01*
X116250000Y-102400000D02*
X116250000Y-96291900D01*
X116260000Y-96030200D02*
X116260000Y-96281400D01*
X116000000Y-95769500D02*
X116260000Y-96030200D01*
X116000000Y-95293500D02*
X116000000Y-95769500D01*
D25*
X116000000Y-95293500D02*
X116000000Y-95293300D01*
D22*
X116250000Y-93550000D02*
X116250000Y-91175000D01*
X116000000Y-93800200D02*
X116250000Y-93550000D01*
X116000000Y-94292500D02*
X116000000Y-93800200D01*
D25*
X116000000Y-94292500D02*
X116000000Y-94292700D01*
X116000000Y-94292700D02*
X116000000Y-94784800D01*
D22*
X116000000Y-95293300D02*
X116000000Y-95293500D01*
D25*
X116000000Y-95071500D02*
X116000000Y-94850100D01*
X116000000Y-95071700D02*
X116000000Y-95071500D01*
X116000000Y-95293300D02*
X116000000Y-95071700D01*
D22*
X116000000Y-95071700D02*
X116000000Y-95293300D01*
D25*
X116000000Y-95071700D02*
X116000000Y-95071500D01*
X116000000Y-95071500D02*
X116000000Y-94850100D01*
D22*
X116000000Y-94850100D02*
X116000000Y-95071500D01*
X116000000Y-95071500D02*
X116000000Y-95071700D01*
D25*
X116000000Y-94784800D02*
X116000000Y-94817500D01*
D22*
X116000000Y-94784800D02*
X116000000Y-94292700D01*
X116000000Y-94292700D02*
X116000000Y-94292500D01*
D25*
X116000000Y-94817500D02*
X116000000Y-94833800D01*
X116000000Y-94833800D02*
X116000000Y-94850100D01*
D22*
X116000000Y-94817500D02*
X116000000Y-94833800D01*
X116000000Y-94833800D02*
X116000000Y-94850100D01*
D23*
X115999800Y-94834000D02*
X115999800Y-94850100D01*
X116000000Y-94833800D02*
X115999800Y-94834000D01*
D22*
%TO.N,Net-(CN1-20-Pad21)*%
X117252000Y-95978000D02*
X116862000Y-95978000D01*
X117612000Y-95617700D02*
X117252000Y-95978000D01*
X116500000Y-95647300D02*
X116500000Y-94854300D01*
X116831000Y-95978000D02*
X116500000Y-95647300D01*
X116862000Y-95978000D02*
X116831000Y-95978000D01*
X116750000Y-93811200D02*
X116750000Y-91175000D01*
X116500000Y-94061300D02*
X116750000Y-93811200D01*
X116500000Y-94850100D02*
X116500000Y-94061300D01*
X116500000Y-94854300D02*
X116500000Y-94854200D01*
X116500000Y-94852100D02*
X116500000Y-94852000D01*
X116750000Y-101369000D02*
X116750000Y-101626000D01*
X116862000Y-101257000D02*
X116750000Y-101369000D01*
X116862000Y-95978000D02*
X116862000Y-101257000D01*
X116750000Y-101626000D02*
X116750000Y-101884000D01*
X116500000Y-94852100D02*
X116500000Y-94852000D01*
D25*
X116500000Y-94851000D02*
X116500000Y-94850900D01*
D22*
X116750000Y-101884000D02*
X116750000Y-102142000D01*
X116500000Y-94852000D02*
X116500000Y-94851000D01*
X116500000Y-94852000D02*
X116500000Y-94851000D01*
X116500000Y-94851000D02*
X116500000Y-94850900D01*
X116500000Y-94851000D02*
X116500000Y-94850900D01*
X116750000Y-101626000D02*
X116750000Y-101884000D01*
D25*
X116500000Y-94850500D02*
X116500000Y-94850400D01*
X116750000Y-102142000D02*
X116750000Y-102271000D01*
D22*
X116750000Y-102142000D02*
X116750000Y-102271000D01*
D25*
X116500000Y-94850900D02*
X116500000Y-94850500D01*
D22*
X116500000Y-94850900D02*
X116500000Y-94850500D01*
X116500000Y-94850900D02*
X116500000Y-94850500D01*
X116500000Y-94850900D02*
X116500000Y-94850500D01*
D25*
X116500000Y-94850500D02*
X116500000Y-94850400D01*
D22*
X116500000Y-94850500D02*
X116500000Y-94850400D01*
X116500000Y-94850500D02*
X116500000Y-94850400D01*
X116500000Y-94850500D02*
X116500000Y-94850400D01*
X116500000Y-94854200D02*
X116500000Y-94852100D01*
X116500000Y-94852100D02*
X116500000Y-94852000D01*
X116500000Y-94854300D02*
X116500000Y-94854200D01*
X116500000Y-94854200D02*
X116500000Y-94852100D01*
X116500000Y-94852000D02*
X116500000Y-94851000D01*
X116500000Y-94851000D02*
X116500000Y-94850900D01*
D23*
X116500000Y-94850200D02*
X116499900Y-94850100D01*
D22*
X116500000Y-94850400D02*
X116500000Y-94850200D01*
X116500000Y-94850200D02*
X116500000Y-94850100D01*
X116500000Y-94850400D02*
X116500000Y-94850200D01*
X116500000Y-94850200D02*
X116500000Y-94850100D01*
X116500000Y-94850400D02*
X116500000Y-94850200D01*
X116500000Y-94850200D02*
X116500000Y-94850100D01*
D25*
X116500000Y-94850400D02*
X116500000Y-94850200D01*
X116500000Y-94850200D02*
X116500000Y-94850100D01*
X116500000Y-94850400D02*
X116500000Y-94850200D01*
X116500000Y-94850200D02*
X116500000Y-94850100D01*
D22*
X116750000Y-102271000D02*
X116750000Y-102335500D01*
X116750000Y-102335500D02*
X116750000Y-102400000D01*
D25*
X116750000Y-102271000D02*
X116750000Y-102335500D01*
X116750000Y-102335500D02*
X116750000Y-102400000D01*
X116750000Y-102271000D02*
X116750000Y-102335500D01*
X116750000Y-102335500D02*
X116750000Y-102400000D01*
D23*
X116749800Y-102335700D02*
X116749800Y-102400000D01*
X116750000Y-102335500D02*
X116749800Y-102335700D01*
D22*
%TO.N,Net-(CN1-1-Pad11)*%
X119250000Y-101369000D02*
X119250000Y-102400000D01*
X119196000Y-101315000D02*
X119250000Y-101369000D01*
X119196000Y-100500000D02*
X119196000Y-101315000D01*
%TO.N,Net-(CN1-1-Pad3)*%
X121250000Y-99850000D02*
X121250000Y-102400000D01*
X121900000Y-99200000D02*
X121250000Y-99850000D01*
D23*
%TO.N,+5V*%
X101450000Y-139355000D02*
X101450000Y-138585000D01*
X101305000Y-139500000D02*
X101450000Y-139355000D01*
X103736500Y-135743400D02*
X103894900Y-135585000D01*
X103500000Y-135743400D02*
X103736500Y-135743400D01*
X104450000Y-135585000D02*
X103894900Y-135585000D01*
X104450000Y-133500000D02*
X104450000Y-132585000D01*
X106866400Y-135556500D02*
X106894900Y-135585000D01*
X106450000Y-135556500D02*
X106866400Y-135556500D01*
X107450000Y-135585000D02*
X106894900Y-135585000D01*
X106827700Y-129652200D02*
X106894900Y-129585000D01*
X106450000Y-129652200D02*
X106827700Y-129652200D01*
X107450000Y-129585000D02*
X106894900Y-129585000D01*
X106724000Y-138414100D02*
X106894900Y-138585000D01*
X106605600Y-138414100D02*
X106724000Y-138414100D01*
X107450000Y-138585000D02*
X106894900Y-138585000D01*
X106764600Y-141454700D02*
X106894900Y-141585000D01*
X106450000Y-141454700D02*
X106764600Y-141454700D01*
X107450000Y-141585000D02*
X106894900Y-141585000D01*
X106894900Y-132868200D02*
X106894900Y-132585000D01*
X106450000Y-133313100D02*
X106894900Y-132868200D01*
X107450000Y-132585000D02*
X106894900Y-132585000D01*
X101491900Y-119888000D02*
X101491900Y-119459600D01*
X101450000Y-119929900D02*
X101491900Y-119888000D01*
X101450000Y-120585000D02*
X101450000Y-119929900D01*
X101450000Y-132585000D02*
X101450000Y-133240100D01*
X101355000Y-130335100D02*
X101355000Y-130500000D01*
X101450000Y-130240100D02*
X101355000Y-130335100D01*
X101450000Y-129585000D02*
X101450000Y-130240100D01*
X101450000Y-123585000D02*
X101450000Y-124240100D01*
X113700000Y-124490100D02*
X113700000Y-124500000D01*
X113450000Y-124240100D02*
X113700000Y-124490100D01*
X113450000Y-123585000D02*
X113450000Y-124240100D01*
X113700000Y-119679900D02*
X113700000Y-119459600D01*
X113450000Y-119929900D02*
X113700000Y-119679900D01*
X113450000Y-120585000D02*
X113450000Y-119929900D01*
X116500000Y-124290100D02*
X116500000Y-124500000D01*
X116450000Y-124240100D02*
X116500000Y-124290100D01*
X116450000Y-123585000D02*
X116450000Y-124240100D01*
X119650000Y-121440100D02*
X119650000Y-121500000D01*
X119450000Y-121240100D02*
X119650000Y-121440100D01*
X119450000Y-120585000D02*
X119450000Y-121240100D01*
X122450000Y-132585000D02*
X122450000Y-133240100D01*
X119739900Y-142240100D02*
X119999800Y-142500000D01*
X119450000Y-142240100D02*
X119739900Y-142240100D01*
X119450000Y-141585000D02*
X119450000Y-142240100D01*
X122648100Y-142438200D02*
X122648100Y-142500000D01*
X122450000Y-142240100D02*
X122648100Y-142438200D01*
X122450000Y-141585000D02*
X122450000Y-142240100D01*
X104560900Y-142351000D02*
X104560900Y-142500000D01*
X104450000Y-142240100D02*
X104560900Y-142351000D01*
X104450000Y-141585000D02*
X104450000Y-142240100D01*
X106532800Y-120585000D02*
X106450000Y-120667800D01*
X107450000Y-120585000D02*
X106532800Y-120585000D01*
X104450000Y-129585000D02*
X104450000Y-130500000D01*
X103699000Y-126585000D02*
X103500000Y-126784000D01*
X104450000Y-126585000D02*
X103699000Y-126585000D01*
X104450000Y-120585000D02*
X104450000Y-121500000D01*
X104450000Y-123585000D02*
X104450000Y-124500000D01*
X110450000Y-133250000D02*
X110200000Y-133500000D01*
X110450000Y-132585000D02*
X110450000Y-133250000D01*
X104450000Y-139328000D02*
X104612200Y-139490200D01*
X104450000Y-138585000D02*
X104450000Y-139328000D01*
X101450000Y-126585000D02*
X100894900Y-126585000D01*
X107450000Y-123585000D02*
X106894900Y-123585000D01*
X101450000Y-142403400D02*
X101353400Y-142500000D01*
X101450000Y-141585000D02*
X101450000Y-142403400D01*
X101355000Y-124335100D02*
X101355000Y-124500000D01*
X101450000Y-124240100D02*
X101355000Y-124335100D01*
X100894900Y-124877600D02*
X100894900Y-126585000D01*
X101272500Y-124500000D02*
X100894900Y-124877600D01*
X101355000Y-124500000D02*
X101272500Y-124500000D01*
X101355000Y-133335100D02*
X101355000Y-133417500D01*
X101450000Y-133240100D02*
X101355000Y-133335100D01*
X101355000Y-133417500D02*
X101355000Y-133500000D01*
X100894900Y-133877600D02*
X100894900Y-135585000D01*
X101355000Y-133417500D02*
X100894900Y-133877600D01*
X101450000Y-135585000D02*
X100894900Y-135585000D01*
X110450000Y-120585000D02*
X110450000Y-119678500D01*
X113450000Y-132585000D02*
X113450000Y-133470400D01*
X115886500Y-126585000D02*
X116450000Y-126585000D01*
X115651900Y-126350400D02*
X115886500Y-126585000D01*
X110450000Y-123585000D02*
X110450000Y-124471700D01*
X110450000Y-141585000D02*
X110450000Y-142468700D01*
X113354000Y-135585000D02*
X113450000Y-135585000D01*
X112650900Y-134881900D02*
X113354000Y-135585000D01*
X109894900Y-126944700D02*
X109894900Y-126585000D01*
X109650000Y-127189600D02*
X109894900Y-126944700D01*
X110450000Y-126585000D02*
X109894900Y-126585000D01*
X116450000Y-132640000D02*
X116450000Y-132585000D01*
X117280000Y-133470000D02*
X116450000Y-132640000D01*
X109708700Y-129398800D02*
X109894900Y-129585000D01*
X109650000Y-129398800D02*
X109708700Y-129398800D01*
X110450000Y-129585000D02*
X109894900Y-129585000D01*
X113450000Y-141585000D02*
X113450000Y-142473800D01*
X116450000Y-135585000D02*
X115894900Y-135585000D01*
X115655200Y-135824700D02*
X115894900Y-135585000D01*
X113450000Y-126585000D02*
X112894900Y-126585000D01*
X112695900Y-126784000D02*
X112894900Y-126585000D01*
X112649500Y-126784000D02*
X112695900Y-126784000D01*
X116450000Y-120585000D02*
X116450000Y-119684600D01*
X116450000Y-138585000D02*
X115894900Y-138585000D01*
X115812500Y-138667400D02*
X115894900Y-138585000D01*
X115668000Y-138667400D02*
X115812500Y-138667400D01*
X110450000Y-135585000D02*
X109894900Y-135585000D01*
X109894900Y-135439300D02*
X109894900Y-135585000D01*
X109549000Y-135093400D02*
X109894900Y-135439300D01*
X113450000Y-129585000D02*
X112894900Y-129585000D01*
X112771900Y-129708000D02*
X112894900Y-129585000D01*
X112669900Y-129708000D02*
X112771900Y-129708000D01*
X115764600Y-141454700D02*
X115894900Y-141585000D01*
X115350000Y-141454700D02*
X115764600Y-141454700D01*
X116450000Y-141585000D02*
X115894900Y-141585000D01*
X118856000Y-138546100D02*
X118894900Y-138585000D01*
X118344500Y-138546100D02*
X118856000Y-138546100D01*
X119450000Y-138585000D02*
X118894900Y-138585000D01*
X119450000Y-123585000D02*
X118894900Y-123585000D01*
X118662200Y-123817700D02*
X118894900Y-123585000D01*
X118496600Y-123817700D02*
X118662200Y-123817700D01*
X122598200Y-133388300D02*
X122598200Y-133500400D01*
X122450000Y-133240100D02*
X122598200Y-133388300D01*
X121736500Y-135743400D02*
X121894900Y-135585000D01*
X121331000Y-135743400D02*
X121736500Y-135743400D01*
X122450000Y-135585000D02*
X121894900Y-135585000D01*
X119450000Y-126585000D02*
X118894900Y-126585000D01*
X118891800Y-126588100D02*
X118894900Y-126585000D01*
X118499100Y-126588100D02*
X118891800Y-126588100D01*
X122450000Y-119681400D02*
X122450000Y-120585000D01*
X121894900Y-139047100D02*
X121894900Y-138585000D01*
X121622000Y-139320000D02*
X121894900Y-139047100D01*
X122450000Y-138585000D02*
X121894900Y-138585000D01*
X119450000Y-129585000D02*
X118894900Y-129585000D01*
X118699300Y-129389400D02*
X118894900Y-129585000D01*
X118501200Y-129389400D02*
X118699300Y-129389400D01*
X122450000Y-124319800D02*
X122450000Y-123585000D01*
X122269800Y-124500000D02*
X122450000Y-124319800D01*
X121843600Y-125978600D02*
X122450000Y-126585000D01*
X121655700Y-125978600D02*
X121843600Y-125978600D01*
X118736500Y-135743400D02*
X118894900Y-135585000D01*
X118331400Y-135743400D02*
X118736500Y-135743400D01*
X119450000Y-135585000D02*
X118894900Y-135585000D01*
X122450000Y-129585000D02*
X121894900Y-129585000D01*
X121771900Y-129708000D02*
X121894900Y-129585000D01*
X121669900Y-129708000D02*
X121771900Y-129708000D01*
X107450000Y-126585000D02*
X106894900Y-126585000D01*
X106894900Y-126585000D02*
X106668700Y-126811200D01*
X106894900Y-123585000D02*
X106647600Y-123337700D01*
X110450000Y-139261100D02*
X110198400Y-139512700D01*
X110450000Y-138585000D02*
X110450000Y-139261100D01*
D22*
%TO.N,GND*%
X122750000Y-110204000D02*
X122750000Y-110915000D01*
X122750000Y-108965000D02*
X122750000Y-110204000D01*
X122750000Y-108965000D02*
X122750000Y-107672000D01*
X122750000Y-108965000D02*
X122750000Y-107672000D01*
X121750000Y-93569200D02*
X121750000Y-91175000D01*
X102956000Y-94656200D02*
X102923000Y-94656200D01*
X103250000Y-92117100D02*
X103250000Y-91175000D01*
X103108000Y-92258700D02*
X103250000Y-92117100D01*
X103108000Y-93891600D02*
X103108000Y-92258700D01*
X103096000Y-93904100D02*
X103108000Y-93891600D01*
X103096000Y-94516600D02*
X103096000Y-93904100D01*
X102956000Y-94656200D02*
X103096000Y-94516600D01*
X101085000Y-96527200D02*
X102956000Y-94656200D01*
X101085000Y-97772200D02*
X101085000Y-96527200D01*
X103250000Y-99936900D02*
X101085000Y-97772200D01*
X103250000Y-102400000D02*
X103250000Y-99936900D01*
X121750000Y-94850100D02*
X121625000Y-94850100D01*
X122200000Y-95300000D02*
X121750000Y-94850100D01*
X121500000Y-93819200D02*
X121750000Y-93569200D01*
X121500000Y-94850100D02*
X121500000Y-93819200D01*
D25*
X122750000Y-111333000D02*
X122750000Y-111334000D01*
X122750000Y-111194000D02*
X122750000Y-111333000D01*
X122750000Y-111333000D02*
X122750000Y-111334000D01*
D22*
X122750000Y-111194000D02*
X122750000Y-111333000D01*
X122750000Y-111333000D02*
X122750000Y-111334000D01*
X122750000Y-110204000D02*
X122750000Y-110915000D01*
X122750000Y-110915000D02*
X122750000Y-111194000D01*
X122750000Y-111334000D02*
X122750000Y-111403000D01*
X122750000Y-111403000D02*
X122750000Y-111472000D01*
D25*
X122750000Y-111334000D02*
X122750000Y-111403000D01*
X122750000Y-111403000D02*
X122750000Y-111472000D01*
X122750000Y-111334000D02*
X122750000Y-111403000D01*
X122750000Y-111403000D02*
X122750000Y-111472000D01*
D23*
X122749500Y-111403500D02*
X122749500Y-111471600D01*
X122750000Y-111403000D02*
X122749500Y-111403500D01*
D25*
X122750000Y-107344000D02*
X122750000Y-107508000D01*
X122750000Y-107508000D02*
X122750000Y-107672000D01*
D23*
X122749500Y-107508500D02*
X122749500Y-107671600D01*
X122750000Y-107508000D02*
X122749500Y-107508500D01*
D22*
X121625000Y-94850100D02*
X121562500Y-94850100D01*
X121562500Y-94850100D02*
X121500000Y-94850100D01*
D23*
X121500000Y-94850100D02*
X121499900Y-94850100D01*
D22*
X121625000Y-94850100D02*
X121562500Y-94850100D01*
X121562500Y-94850100D02*
X121500000Y-94850100D01*
D23*
X102550000Y-142509200D02*
X102550000Y-143415000D01*
X102559200Y-142500000D02*
X102550000Y-142509200D01*
X105550000Y-137415000D02*
X106105100Y-137415000D01*
X105550000Y-133700000D02*
X105550000Y-134415000D01*
X105350000Y-133500000D02*
X105550000Y-133700000D01*
X109141700Y-137378400D02*
X109105100Y-137415000D01*
X109650000Y-137378400D02*
X109141700Y-137378400D01*
X108550000Y-137415000D02*
X109105100Y-137415000D01*
X108550000Y-130550000D02*
X108550000Y-131415000D01*
X108500000Y-130500000D02*
X108550000Y-130550000D01*
X108550000Y-142550000D02*
X108550000Y-143415000D01*
X108500000Y-142500000D02*
X108550000Y-142550000D01*
X108550000Y-133550000D02*
X108550000Y-134415000D01*
X108500000Y-133500000D02*
X108550000Y-133550000D01*
X102400000Y-121609900D02*
X102400000Y-121500000D01*
X102550000Y-121759900D02*
X102400000Y-121609900D01*
X102550000Y-122415000D02*
X102550000Y-121759900D01*
X102680300Y-133629600D02*
X102680300Y-133500000D01*
X102550000Y-133759900D02*
X102680300Y-133629600D01*
X102550000Y-134415000D02*
X102550000Y-133759900D01*
X102750000Y-130559900D02*
X102750000Y-130500000D01*
X102550000Y-130759900D02*
X102750000Y-130559900D01*
X102550000Y-131415000D02*
X102550000Y-130759900D01*
X117778100Y-121531800D02*
X117778100Y-121500000D01*
X117550000Y-121759900D02*
X117778100Y-121531800D01*
X117550000Y-122415000D02*
X117550000Y-121759900D01*
X123411800Y-130759900D02*
X123151900Y-130500000D01*
X123550000Y-130759900D02*
X123411800Y-130759900D01*
X105766500Y-142543400D02*
X105766500Y-142500000D01*
X105550000Y-142759900D02*
X105766500Y-142543400D01*
X105550000Y-143415000D02*
X105550000Y-142759900D01*
X108700000Y-121609900D02*
X108700000Y-121500000D01*
X108550000Y-121759900D02*
X108700000Y-121609900D01*
X108550000Y-122415000D02*
X108550000Y-121759900D01*
X105350000Y-130559900D02*
X105350000Y-130500000D01*
X105550000Y-130759900D02*
X105350000Y-130559900D01*
X105550000Y-131415000D02*
X105550000Y-130759900D01*
X105350000Y-121559900D02*
X105350000Y-121500000D01*
X105550000Y-121759900D02*
X105350000Y-121559900D01*
X105550000Y-122415000D02*
X105550000Y-121759900D01*
X105350000Y-124559900D02*
X105350000Y-124500000D01*
X105550000Y-124759900D02*
X105350000Y-124559900D01*
X105550000Y-125415000D02*
X105550000Y-124759900D01*
X105550000Y-140415000D02*
X105550000Y-139525000D01*
X106186300Y-128496200D02*
X106105100Y-128415000D01*
X106348100Y-128496200D02*
X106186300Y-128496200D01*
X105550000Y-128415000D02*
X106105100Y-128415000D01*
X102550000Y-124509200D02*
X102550000Y-125415000D01*
X102550000Y-128415000D02*
X103105100Y-128415000D01*
X103109100Y-128419000D02*
X103105100Y-128415000D01*
X103329000Y-128419000D02*
X103109100Y-128419000D01*
X108550000Y-125415000D02*
X109105100Y-125415000D01*
X109359200Y-125669100D02*
X109105100Y-125415000D01*
X102550000Y-139648400D02*
X102401600Y-139500000D01*
X102550000Y-140415000D02*
X102550000Y-139648400D01*
X102550000Y-137415000D02*
X103105100Y-137415000D01*
X103141700Y-137378400D02*
X103105100Y-137415000D01*
X103337600Y-137378400D02*
X103141700Y-137378400D01*
X111550000Y-122415000D02*
X112105100Y-122415000D01*
X111550000Y-140415000D02*
X112105100Y-140415000D01*
X117550000Y-128415000D02*
X118105100Y-128415000D01*
X118236300Y-128546200D02*
X118105100Y-128415000D01*
X118353900Y-128546200D02*
X118236300Y-128546200D01*
X111550000Y-125415000D02*
X112105100Y-125415000D01*
X112105100Y-125249800D02*
X112105100Y-125415000D01*
X112351900Y-125003000D02*
X112105100Y-125249800D01*
X111550000Y-143415000D02*
X111550000Y-142518400D01*
X115130700Y-137440600D02*
X115105100Y-137415000D01*
X115350000Y-137440600D02*
X115130700Y-137440600D01*
X114550000Y-137415000D02*
X115105100Y-137415000D01*
X111550000Y-128415000D02*
X112105100Y-128415000D01*
X112236300Y-128546200D02*
X112105100Y-128415000D01*
X112335200Y-128546200D02*
X112236300Y-128546200D01*
X112105100Y-122415000D02*
X112329100Y-122191000D01*
X114550000Y-140415000D02*
X114550000Y-139535100D01*
X117550000Y-134415000D02*
X118105100Y-134415000D01*
X118105100Y-134415000D02*
X118349500Y-134170600D01*
X114550000Y-125415000D02*
X114550000Y-124759900D01*
X114678300Y-124759900D02*
X114550000Y-124759900D01*
X114918800Y-124519400D02*
X114678300Y-124759900D01*
X117550000Y-137415000D02*
X118105100Y-137415000D01*
X118124000Y-137433900D02*
X118105100Y-137415000D01*
X118347900Y-137433900D02*
X118124000Y-137433900D01*
X112105100Y-135195700D02*
X112105100Y-134415000D01*
X112652800Y-135743400D02*
X112105100Y-135195700D01*
X111550000Y-134415000D02*
X112105100Y-134415000D01*
X114550000Y-128415000D02*
X115105100Y-128415000D01*
X115291800Y-128601700D02*
X115105100Y-128415000D01*
X115334700Y-128601700D02*
X115291800Y-128601700D01*
X114550000Y-143415000D02*
X114550000Y-142532900D01*
X114550000Y-134415000D02*
X114550000Y-133532800D01*
X112105100Y-140415000D02*
X112340100Y-140180000D01*
X111550000Y-131415000D02*
X112105100Y-131415000D01*
X112105100Y-131415000D02*
X112347200Y-131172900D01*
X117550000Y-140415000D02*
X118105100Y-140415000D01*
X115105100Y-130289900D02*
X115105100Y-131415000D01*
X115594500Y-129800500D02*
X115105100Y-130289900D01*
X114550000Y-131415000D02*
X115105100Y-131415000D01*
X117550000Y-124693100D02*
X117550000Y-125415000D01*
X117728100Y-124515000D02*
X117550000Y-124693100D01*
X117550000Y-143415000D02*
X117550000Y-144070100D01*
X117532700Y-144070100D02*
X117550000Y-144070100D01*
X117295400Y-144307400D02*
X117532700Y-144070100D01*
X118105100Y-140415000D02*
X118348900Y-140171200D01*
X120550000Y-122415000D02*
X121105100Y-122415000D01*
X121125400Y-122435300D02*
X121105100Y-122415000D01*
X121336100Y-122435300D02*
X121125400Y-122435300D01*
X120550000Y-140415000D02*
X121105100Y-140415000D01*
X121105100Y-140335400D02*
X121105100Y-140415000D01*
X121351900Y-140088600D02*
X121105100Y-140335400D01*
X124105100Y-137415000D02*
X124105100Y-134415000D01*
X123550000Y-134415000D02*
X124105100Y-134415000D01*
X119635000Y-124500000D02*
X120550000Y-125415000D01*
X119550000Y-124500000D02*
X119635000Y-124500000D01*
X120550000Y-143415000D02*
X120550000Y-144070100D01*
X120667300Y-144070100D02*
X120903000Y-144305800D01*
X120550000Y-144070100D02*
X120667300Y-144070100D01*
X123550000Y-137415000D02*
X124103600Y-137415000D01*
X124103600Y-137415000D02*
X124105100Y-137415000D01*
X120550000Y-128415000D02*
X121105100Y-128415000D01*
X121236300Y-128546200D02*
X121105100Y-128415000D01*
X121335200Y-128546200D02*
X121236300Y-128546200D01*
X120550000Y-131415000D02*
X121105100Y-131415000D01*
X121161300Y-131471200D02*
X121105100Y-131415000D01*
X121346900Y-131471200D02*
X121161300Y-131471200D01*
X122635000Y-121500000D02*
X123550000Y-122415000D01*
X122269800Y-121500000D02*
X122635000Y-121500000D01*
X124105100Y-128415000D02*
X124105100Y-125415000D01*
X123550000Y-125415000D02*
X124105100Y-125415000D01*
X123550000Y-144302100D02*
X123550000Y-143415000D01*
X123550000Y-131415000D02*
X123550000Y-131087400D01*
X123550000Y-131087400D02*
X123550000Y-130759900D01*
X124105100Y-128416500D02*
X124103600Y-128415000D01*
X124105100Y-130532300D02*
X124105100Y-128416500D01*
X123550000Y-131087400D02*
X124105100Y-130532300D01*
X123550000Y-128415000D02*
X124103600Y-128415000D01*
X124103600Y-128415000D02*
X124105100Y-128415000D01*
X120550000Y-137415000D02*
X121105100Y-137415000D01*
X121141700Y-137378400D02*
X121105100Y-137415000D01*
X121339500Y-137378400D02*
X121141700Y-137378400D01*
X108550000Y-140415000D02*
X108550000Y-139525000D01*
X106448900Y-137553600D02*
X106448900Y-137553700D01*
X106243700Y-137553600D02*
X106448900Y-137553600D01*
X106105100Y-137415000D02*
X106243700Y-137553600D01*
X108550000Y-128415000D02*
X109105100Y-128415000D01*
X109119200Y-128400900D02*
X109105100Y-128415000D01*
X109338600Y-128400900D02*
X109119200Y-128400900D01*
X114550000Y-121652400D02*
X114701200Y-121501200D01*
X114550000Y-122415000D02*
X114550000Y-121652400D01*
%TD*%
M02*
