%TF.GenerationSoftware,KiCad,Pcbnew,7.0.5*%
%TF.CreationDate,2023-09-01T16:08:52-05:00*%
%TF.ProjectId,Chimera_0004_Aurora,4368696d-6572-4615-9f30-3030345f4175,rev?*%
%TF.SameCoordinates,Original*%
%TF.FileFunction,Soldermask,Top*%
%TF.FilePolarity,Negative*%
%FSLAX46Y46*%
G04 Gerber Fmt 4.6, Leading zero omitted, Abs format (unit mm)*
G04 Created by KiCad (PCBNEW 7.0.5) date 2023-09-01 16:08:52*
%MOMM*%
%LPD*%
G01*
G04 APERTURE LIST*
G04 Aperture macros list*
%AMRoundRect*
0 Rectangle with rounded corners*
0 $1 Rounding radius*
0 $2 $3 $4 $5 $6 $7 $8 $9 X,Y pos of 4 corners*
0 Add a 4 corners polygon primitive as box body*
4,1,4,$2,$3,$4,$5,$6,$7,$8,$9,$2,$3,0*
0 Add four circle primitives for the rounded corners*
1,1,$1+$1,$2,$3*
1,1,$1+$1,$4,$5*
1,1,$1+$1,$6,$7*
1,1,$1+$1,$8,$9*
0 Add four rect primitives between the rounded corners*
20,1,$1+$1,$2,$3,$4,$5,0*
20,1,$1+$1,$4,$5,$6,$7,0*
20,1,$1+$1,$6,$7,$8,$9,0*
20,1,$1+$1,$8,$9,$2,$3,0*%
G04 Aperture macros list end*
%ADD10C,0.100000*%
%ADD11R,1.335001X1.500000*%
%ADD12C,3.600000*%
%ADD13C,6.400000*%
%ADD14R,0.700000X0.900000*%
%ADD15C,1.200000*%
%ADD16C,1.800000*%
%ADD17R,0.300000X1.550013*%
%ADD18R,0.300000X1.524003*%
%ADD19R,1.300000X2.800000*%
%ADD20RoundRect,0.200000X-0.275000X0.200000X-0.275000X-0.200000X0.275000X-0.200000X0.275000X0.200000X0*%
%ADD21RoundRect,0.200000X-0.200000X-0.275000X0.200000X-0.275000X0.200000X0.275000X-0.200000X0.275000X0*%
%ADD22R,0.800000X0.800000*%
G04 APERTURE END LIST*
%TO.C,U2*%
D10*
X122425000Y-91900000D02*
X119225000Y-91900000D01*
X119225000Y-89900000D01*
X122425000Y-89900000D01*
X122425000Y-91900000D01*
G36*
X122425000Y-91900000D02*
G01*
X119225000Y-91900000D01*
X119225000Y-89900000D01*
X122425000Y-89900000D01*
X122425000Y-91900000D01*
G37*
X118025000Y-91900000D02*
X102575000Y-91900000D01*
X102575000Y-89900000D01*
X118025000Y-89900000D01*
X118025000Y-91900000D01*
G36*
X118025000Y-91900000D02*
G01*
X102575000Y-91900000D01*
X102575000Y-89900000D01*
X118025000Y-89900000D01*
X118025000Y-91900000D01*
G37*
%TD*%
D11*
%TO.C,F1*%
X120542494Y-105200000D03*
X118257506Y-105200000D03*
%TD*%
D12*
%TO.C,H1*%
X112500000Y-149900000D03*
D13*
X112500000Y-149900000D03*
%TD*%
D14*
%TO.C,LED72*%
X122449962Y-131415037D03*
X123550038Y-131415037D03*
X123550038Y-129584963D03*
X122449962Y-129584963D03*
%TD*%
%TO.C,LED71*%
X119449962Y-137415037D03*
X120550038Y-137415037D03*
X120550038Y-135584963D03*
X119449962Y-135584963D03*
%TD*%
%TO.C,LED68*%
X122449962Y-128415037D03*
X123550038Y-128415037D03*
X123550038Y-126584963D03*
X122449962Y-126584963D03*
%TD*%
%TO.C,LED67*%
X119449962Y-134415037D03*
X120550038Y-134415037D03*
X120550038Y-132584963D03*
X119449962Y-132584963D03*
%TD*%
%TO.C,LED65*%
X122449962Y-143415037D03*
X123550038Y-143415037D03*
X123550038Y-141584963D03*
X122449962Y-141584963D03*
%TD*%
%TO.C,LED64*%
X122449962Y-125415037D03*
X123550038Y-125415037D03*
X123550038Y-123584963D03*
X122449962Y-123584963D03*
%TD*%
%TO.C,LED63*%
X119449962Y-131415037D03*
X120550038Y-131415037D03*
X120550038Y-129584963D03*
X119449962Y-129584963D03*
%TD*%
%TO.C,LED61*%
X122449962Y-140415037D03*
X123550038Y-140415037D03*
X123550038Y-138584963D03*
X122449962Y-138584963D03*
%TD*%
%TO.C,LED60*%
X122449962Y-122415037D03*
X123550038Y-122415037D03*
X123550038Y-120584963D03*
X122449962Y-120584963D03*
%TD*%
%TO.C,LED59*%
X119449962Y-128415037D03*
X120550038Y-128415037D03*
X120550038Y-126584963D03*
X119449962Y-126584963D03*
%TD*%
%TO.C,LED57*%
X122449962Y-137415037D03*
X123550038Y-137415037D03*
X123550038Y-135584963D03*
X122449962Y-135584963D03*
%TD*%
%TO.C,LED56*%
X119449962Y-143415037D03*
X120550038Y-143415037D03*
X120550038Y-141584963D03*
X119449962Y-141584963D03*
%TD*%
%TO.C,LED55*%
X119449962Y-125415037D03*
X120550038Y-125415037D03*
X120550038Y-123584963D03*
X119449962Y-123584963D03*
%TD*%
%TO.C,LED53*%
X122449962Y-134415037D03*
X123550038Y-134415037D03*
X123550038Y-132584963D03*
X122449962Y-132584963D03*
%TD*%
%TO.C,LED52*%
X119449962Y-140415037D03*
X120550038Y-140415037D03*
X120550038Y-138584963D03*
X119449962Y-138584963D03*
%TD*%
%TO.C,LED51*%
X119449962Y-122415037D03*
X120550038Y-122415037D03*
X120550038Y-120584963D03*
X119449962Y-120584963D03*
%TD*%
%TO.C,LED50*%
X116449962Y-143415037D03*
X117550038Y-143415037D03*
X117550038Y-141584963D03*
X116449962Y-141584963D03*
%TD*%
%TO.C,LED49*%
X116449962Y-125415037D03*
X117550038Y-125415037D03*
X117550038Y-123584963D03*
X116449962Y-123584963D03*
%TD*%
%TO.C,LED48*%
X113449962Y-131415037D03*
X114550038Y-131415037D03*
X114550038Y-129584963D03*
X113449962Y-129584963D03*
%TD*%
%TO.C,LED47*%
X110449962Y-137415037D03*
X111550038Y-137415037D03*
X111550038Y-135584963D03*
X110449962Y-135584963D03*
%TD*%
%TO.C,LED46*%
X116449962Y-140415037D03*
X117550038Y-140415037D03*
X117550038Y-138584963D03*
X116449962Y-138584963D03*
%TD*%
%TO.C,LED45*%
X116449962Y-122415037D03*
X117550038Y-122415037D03*
X117550038Y-120584963D03*
X116449962Y-120584963D03*
%TD*%
%TO.C,LED44*%
X113449962Y-128415037D03*
X114550038Y-128415037D03*
X114550038Y-126584963D03*
X113449962Y-126584963D03*
%TD*%
%TO.C,LED43*%
X110449962Y-134415037D03*
X111550038Y-134415037D03*
X111550038Y-132584963D03*
X110449962Y-132584963D03*
%TD*%
%TO.C,LED42*%
X116449962Y-137415037D03*
X117550038Y-137415037D03*
X117550038Y-135584963D03*
X116449962Y-135584963D03*
%TD*%
%TO.C,LED41*%
X113449962Y-143415037D03*
X114550038Y-143415037D03*
X114550038Y-141584963D03*
X113449962Y-141584963D03*
%TD*%
%TO.C,LED40*%
X113449962Y-125415037D03*
X114550038Y-125415037D03*
X114550038Y-123584963D03*
X113449962Y-123584963D03*
%TD*%
%TO.C,LED39*%
X110449962Y-131415037D03*
X111550038Y-131415037D03*
X111550038Y-129584963D03*
X110449962Y-129584963D03*
%TD*%
%TO.C,LED38*%
X116449962Y-134415037D03*
X117550038Y-134415037D03*
X117550038Y-132584963D03*
X116449962Y-132584963D03*
%TD*%
%TO.C,LED37*%
X113449962Y-140415037D03*
X114550038Y-140415037D03*
X114550038Y-138584963D03*
X113449962Y-138584963D03*
%TD*%
%TO.C,LED36*%
X113449962Y-122415037D03*
X114550038Y-122415037D03*
X114550038Y-120584963D03*
X113449962Y-120584963D03*
%TD*%
%TO.C,LED35*%
X110449962Y-128415037D03*
X111550038Y-128415037D03*
X111550038Y-126584963D03*
X110449962Y-126584963D03*
%TD*%
%TO.C,LED34*%
X116449962Y-131415037D03*
X117550038Y-131415037D03*
X117550038Y-129584963D03*
X116449962Y-129584963D03*
%TD*%
%TO.C,LED33*%
X113449962Y-137415037D03*
X114550038Y-137415037D03*
X114550038Y-135584963D03*
X113449962Y-135584963D03*
%TD*%
%TO.C,LED32*%
X110449962Y-143415037D03*
X111550038Y-143415037D03*
X111550038Y-141584963D03*
X110449962Y-141584963D03*
%TD*%
%TO.C,LED31*%
X110449962Y-125415037D03*
X111550038Y-125415037D03*
X111550038Y-123584963D03*
X110449962Y-123584963D03*
%TD*%
%TO.C,LED30*%
X116449962Y-128415037D03*
X117550038Y-128415037D03*
X117550038Y-126584963D03*
X116449962Y-126584963D03*
%TD*%
%TO.C,LED29*%
X113449962Y-134415037D03*
X114550038Y-134415037D03*
X114550038Y-132584963D03*
X113449962Y-132584963D03*
%TD*%
%TO.C,LED28*%
X110449962Y-140415037D03*
X111550038Y-140415037D03*
X111550038Y-138584963D03*
X110449962Y-138584963D03*
%TD*%
%TO.C,LED27*%
X110449962Y-122415037D03*
X111550038Y-122415037D03*
X111550038Y-120584963D03*
X110449962Y-120584963D03*
%TD*%
%TO.C,LED21*%
X107449962Y-126584963D03*
X108550038Y-126584963D03*
X108550038Y-128415037D03*
X107449962Y-128415037D03*
%TD*%
%TO.C,LED23*%
X107449962Y-132584963D03*
X108550038Y-132584963D03*
X108550038Y-134415037D03*
X107449962Y-134415037D03*
%TD*%
%TO.C,LED26*%
X107449962Y-141584963D03*
X108550038Y-141584963D03*
X108550038Y-143415037D03*
X107449962Y-143415037D03*
%TD*%
%TO.C,LED25*%
X107449962Y-138584963D03*
X108550038Y-138584963D03*
X108550038Y-140415037D03*
X107449962Y-140415037D03*
%TD*%
%TO.C,LED22*%
X107449962Y-129584963D03*
X108550038Y-129584963D03*
X108550038Y-131415037D03*
X107449962Y-131415037D03*
%TD*%
%TO.C,LED24*%
X107449962Y-135584963D03*
X108550038Y-135584963D03*
X108550038Y-137415037D03*
X107449962Y-137415037D03*
%TD*%
%TO.C,LED8*%
X101449962Y-137415037D03*
X102550038Y-137415037D03*
X102550038Y-135584963D03*
X101449962Y-135584963D03*
%TD*%
%TO.C,LED11*%
X104449962Y-122415037D03*
X105550038Y-122415037D03*
X105550038Y-120584963D03*
X104449962Y-120584963D03*
%TD*%
%TO.C,LED14*%
X104449962Y-131415037D03*
X105550038Y-131415037D03*
X105550038Y-129584963D03*
X104449962Y-129584963D03*
%TD*%
%TO.C,LED20*%
X107449962Y-125415037D03*
X108550038Y-125415037D03*
X108550038Y-123584963D03*
X107449962Y-123584963D03*
%TD*%
%TO.C,LED5*%
X101449962Y-128415037D03*
X102550038Y-128415037D03*
X102550038Y-126584963D03*
X101449962Y-126584963D03*
%TD*%
%TO.C,LED6*%
X101449962Y-131415037D03*
X102550038Y-131415037D03*
X102550038Y-129584963D03*
X101449962Y-129584963D03*
%TD*%
%TO.C,LED19*%
X107449962Y-122415037D03*
X108550038Y-122415037D03*
X108550038Y-120584963D03*
X107449962Y-120584963D03*
%TD*%
%TO.C,LED4*%
X101449962Y-125415037D03*
X102550038Y-125415037D03*
X102550038Y-123584963D03*
X101449962Y-123584963D03*
%TD*%
%TO.C,LED3*%
X101449962Y-122415037D03*
X102550038Y-122415037D03*
X102550038Y-120584963D03*
X101449962Y-120584963D03*
%TD*%
%TO.C,LED12*%
X104449962Y-125415037D03*
X105550038Y-125415037D03*
X105550038Y-123584963D03*
X104449962Y-123584963D03*
%TD*%
%TO.C,LED13*%
X104449962Y-128415037D03*
X105550038Y-128415037D03*
X105550038Y-126584963D03*
X104449962Y-126584963D03*
%TD*%
%TO.C,LED7*%
X101449962Y-134415037D03*
X102550038Y-134415037D03*
X102550038Y-132584963D03*
X101449962Y-132584963D03*
%TD*%
%TO.C,LED15*%
X104449962Y-132584963D03*
X105550038Y-132584963D03*
X105550038Y-134415037D03*
X104449962Y-134415037D03*
%TD*%
%TO.C,LED16*%
X104449962Y-135584963D03*
X105550038Y-135584963D03*
X105550038Y-137415037D03*
X104449962Y-137415037D03*
%TD*%
%TO.C,LED10*%
X101449962Y-141584963D03*
X102550038Y-141584963D03*
X102550038Y-143415037D03*
X101449962Y-143415037D03*
%TD*%
%TO.C,LED17*%
X104449962Y-140415037D03*
X105550038Y-140415037D03*
X105550038Y-138584963D03*
X104449962Y-138584963D03*
%TD*%
%TO.C,LED18*%
X104449962Y-143415037D03*
X105550038Y-143415037D03*
X105550038Y-141584963D03*
X104449962Y-141584963D03*
%TD*%
%TO.C,LED9*%
X101449962Y-138584963D03*
X102550038Y-138584963D03*
X102550038Y-140415037D03*
X101449962Y-140415037D03*
%TD*%
D15*
%TO.C,CN1*%
X122499900Y-97125200D03*
D16*
X102499900Y-97125200D03*
D17*
X121749836Y-102400029D03*
X121499900Y-94850117D03*
X121249964Y-102400029D03*
X120999773Y-94850117D03*
X120749836Y-102400029D03*
X120499900Y-94850117D03*
X120249964Y-102400029D03*
X119999773Y-94850117D03*
X119749836Y-102400029D03*
X119499900Y-94850117D03*
X119249964Y-102400029D03*
X116999773Y-94850117D03*
X116749836Y-102400029D03*
X116499900Y-94850117D03*
X116249964Y-102400029D03*
X115999773Y-94850117D03*
X115749836Y-102400029D03*
X115499900Y-94850117D03*
X115249964Y-102400029D03*
X114999773Y-94850117D03*
X114749836Y-102400029D03*
X114499900Y-94850117D03*
X114249964Y-102400029D03*
X113999773Y-94850117D03*
X113749836Y-102400029D03*
X113499900Y-94850117D03*
X113249964Y-102400029D03*
X112999773Y-94850117D03*
X112749836Y-102400029D03*
X112499900Y-94850117D03*
X112249964Y-102400029D03*
X111999773Y-94850117D03*
X111749836Y-102400029D03*
X111499900Y-94850371D03*
X111249964Y-102400029D03*
X110999773Y-94850371D03*
X110749836Y-102400029D03*
X110499900Y-94850371D03*
X110249964Y-102400029D03*
X109999773Y-94850371D03*
X109749836Y-102400029D03*
X109499900Y-94850371D03*
X109249964Y-102400029D03*
X108999773Y-94850371D03*
X108749836Y-102400029D03*
X108499900Y-94850371D03*
X108249964Y-102400029D03*
X107999773Y-94850371D03*
X107749836Y-102400029D03*
X107499900Y-94850371D03*
D18*
X107249964Y-102400283D03*
X106999773Y-94850371D03*
X106749836Y-102400283D03*
X106499900Y-94850371D03*
X106249964Y-102400283D03*
X105999773Y-94850371D03*
X105749836Y-102400283D03*
X105499900Y-94850371D03*
D17*
X105249964Y-102400029D03*
X104999773Y-94850371D03*
X104749836Y-102400029D03*
X104499900Y-94850371D03*
X104249964Y-102400029D03*
X103999773Y-94850371D03*
X103749836Y-102400029D03*
X103499900Y-94850371D03*
X103249964Y-102400029D03*
D19*
X102149887Y-101675111D03*
X122849913Y-101675111D03*
%TD*%
D20*
%TO.C,R1*%
X122850000Y-106000000D03*
X122850000Y-104350000D03*
%TD*%
D21*
%TO.C,R2*%
X119425000Y-107700000D03*
X117775000Y-107700000D03*
%TD*%
D22*
%TO.C,LED1*%
X121150533Y-107678429D03*
X122749467Y-107671571D03*
%TD*%
%TO.C,LED2*%
X121150533Y-111478429D03*
X122749467Y-111471571D03*
%TD*%
M02*
