M48
; DRILL file {KiCad 7.0.5} date Mon Sep 25 02:34:09 2023
; FORMAT={-:-/ absolute / inch / decimal}
; #@! TF.CreationDate,2023-09-25T02:34:09-05:00
; #@! TF.GenerationSoftware,Kicad,Pcbnew,7.0.5
; #@! TF.FileFunction,Plated,1,4,PTH
FMAT,2
INCH
; #@! TA.AperFunction,Plated,PTH,ViaDrill
T1C0.0079
%
G90
G05
T1
X1.8819Y-3.3228
X1.8898Y-3.5719
X1.8898Y-4.498
X1.8996Y-4.5965
X1.9193Y-3.6122
X1.9291Y-4.311
X1.9291Y-4.5276
X1.9488Y-4.5472
X1.9587Y-4.4882
X1.9685Y-3.6024
X1.9685Y-4.5276
X1.9685Y-4.5669
X1.9783Y-4.3602
X1.9783Y-4.3898
X1.9882Y-4.4882
X1.998Y-3.6122
X1.998Y-4.1634
X1.998Y-4.2028
X1.998Y-4.2421
X1.998Y-4.3307
X1.998Y-4.4488
X2.0079Y-4.1142
X2.0079Y-4.2815
X2.0079Y-4.4094
X2.0079Y-4.5079
X2.0177Y-4.1437
X2.0177Y-4.1831
X2.0177Y-4.2224
X2.0177Y-4.3701
X2.0177Y-4.4685
X2.022Y-3.6319
X2.0276Y-4.3307
X2.0276Y-4.4291
X2.0374Y-3.6614
X2.0374Y-4.2913
X2.0374Y-4.3898
X2.0472Y-3.3563
X2.0472Y-3.3957
X2.0472Y-3.435
X2.0472Y-4.1142
X2.0472Y-4.1535
X2.0472Y-4.252
X2.0472Y-4.3504
X2.0571Y-3.6811
X2.0571Y-4.2126
X2.0571Y-4.311
X2.0669Y-4.1732
X2.0669Y-4.2717
X2.0768Y-3.7008
X2.0768Y-4.1142
X2.0768Y-4.2323
X2.0866Y-4.1929
X2.0965Y-3.3563
X2.0965Y-3.3957
X2.0965Y-3.7205
X2.1063Y-3.435
X2.1112Y-4.1191
X2.1161Y-3.376
X2.1161Y-3.4744
X2.126Y-3.4154
X2.126Y-3.5138
X2.1358Y-3.4547
X2.1358Y-3.5531
X2.1457Y-3.4941
X2.1457Y-3.5925
X2.1555Y-3.5335
X2.1555Y-3.6319
X2.1654Y-3.5728
X2.1654Y-3.6614
X2.1752Y-3.3563
X2.1752Y-3.6122
X2.185Y-3.7106
X2.185Y-3.75
X2.1949Y-3.376
X2.1949Y-3.6516
X2.1949Y-3.7894
X2.2047Y-3.6909
X2.2146Y-3.3957
X2.2146Y-3.7303
X2.2146Y-3.7697
X2.2146Y-3.8287
X2.2343Y-3.4154
X2.2343Y-3.8091
X2.2539Y-3.435
X2.2736Y-3.4547
X2.2933Y-3.4744
X2.313Y-3.4941
X2.3327Y-3.5138
X2.3524Y-3.5335
X2.372Y-3.5531
X2.3917Y-3.5728
X2.4114Y-3.5925
X2.4311Y-3.6122
X2.4508Y-3.6319
X2.4705Y-3.6516
X2.4902Y-3.6713
X2.5098Y-3.6909
X2.5197Y-3.7992
X2.5197Y-3.8386
X2.5197Y-3.8878
X2.5295Y-3.7106
X2.5394Y-3.8189
X2.5394Y-3.8583
X2.5394Y-4.0059
X2.5443Y-3.7746
X2.5492Y-3.7402
X2.5689Y-4.0059
X2.5689Y-4.4783
X2.5886Y-4.4587
X2.5984Y-4.0059
X2.6083Y-4.439
X2.6181Y-4.0256
X2.6181Y-4.498
X2.628Y-4.4193
X2.6378Y-4.0453
X2.6476Y-4.3996
X2.6476Y-4.498
X2.6575Y-4.0256
X2.6673Y-4.3799
X2.6772Y-3.9469
X2.6772Y-3.9862
X2.6772Y-4.5079
X2.687Y-3.8878
X2.687Y-4.3602
X2.6969Y-3.9272
X2.6969Y-3.9665
X2.6969Y-4.0551
X2.6969Y-4.4783
X2.7067Y-3.7795
X2.7067Y-3.8091
X2.7067Y-3.8484
X2.7067Y-4.0059
X2.7067Y-4.3406
X2.7165Y-3.3563
X2.7165Y-3.75
X2.7165Y-3.8878
X2.7165Y-4.4587
X2.7264Y-4.065
X2.7264Y-4.3209
X2.7362Y-3.8681
X2.7362Y-4.5276
X2.7461Y-3.3563
X2.7461Y-3.7598
X2.7461Y-4.3012
X2.7499Y-3.9803
X2.7559Y-3.8484
X2.7657Y-3.3366
X2.7657Y-4.2815
X2.7756Y-3.7697
X2.7756Y-3.8287
X2.7854Y-4.2618
X2.7854Y-4.5276
X2.7953Y-3.8091
X2.8051Y-3.7795
X2.8051Y-4.2421
X2.8248Y-4.2224
X2.8346Y-3.3661
X2.8346Y-3.7894
X2.8346Y-4.5374
X2.8445Y-3.4252
X2.8445Y-3.6909
X2.8445Y-3.9567
X2.8445Y-4.2028
X2.8543Y-4.3209
X2.8642Y-3.4055
X2.8642Y-3.9764
X2.8642Y-4.1831
X2.874Y-3.7008
X2.874Y-4.5472
X2.8839Y-3.435
X2.8839Y-4.2028
X2.8937Y-4.4685
X2.9035Y-3.4154
X2.9035Y-3.7106
X2.9035Y-4.1831
X2.9035Y-4.3504
X2.9232Y-3.3957
X2.9232Y-4.2028
X2.9232Y-4.3307
X2.9331Y-3.7205
X2.9331Y-3.8878
X2.9429Y-3.376
X2.9429Y-4.2224
X2.9429Y-4.311
X2.9626Y-3.3563
X2.9626Y-3.7303
X2.9626Y-4.2421
X2.9626Y-4.2913
X2.9823Y-3.3366
X2.9823Y-4.2717
X2.9921Y-3.6909
X3.0118Y-3.3169
X3.0217Y-3.7008
X3.0512Y-3.7106
X3.0807Y-3.7205
X3.0807Y-3.7992
X3.1102Y-3.7303
X3.1398Y-3.7402
X3.1398Y-3.9665
X3.1693Y-3.75
X3.1693Y-3.9961
X3.1988Y-3.7598
X3.2087Y-3.878
X3.2087Y-3.9567
X3.2283Y-3.7697
X3.2382Y-4.0945
X3.2579Y-3.7795
X3.2579Y-4.0748
X3.2776Y-4.0945
X3.2874Y-3.7894
X3.2972Y-4.0748
X3.3071Y-3.9764
X3.3169Y-3.7992
X3.3169Y-4.0945
X3.3366Y-3.8287
X3.3366Y-4.0748
X3.3563Y-4.0945
X3.3661Y-3.8189
X3.376Y-4.0748
X3.3858Y-3.8878
X3.3957Y-4.0945
X3.4055Y-3.6713
X3.4055Y-3.9567
X3.4154Y-3.7106
X3.4154Y-4.0748
X3.435Y-3.6811
X3.435Y-4.0945
X3.4547Y-4.0748
X3.4646Y-3.6909
X3.4646Y-3.9469
X3.4744Y-4.0945
X3.4744Y-4.5571
X3.4843Y-3.9272
X3.4843Y-4.4291
X3.4843Y-4.4783
X3.4843Y-4.5276
X3.4941Y-3.7008
X3.4941Y-4.0748
X3.5039Y-3.9075
X3.5039Y-4.3701
X3.5039Y-4.4587
X3.5039Y-4.5079
X3.5138Y-4.0945
X3.5236Y-3.7106
X3.5335Y-4.0748
X3.5531Y-3.7205
X3.5531Y-4.0945
X3.5728Y-4.0748
X3.5763Y-3.8119
X3.5827Y-3.7303
X3.5925Y-4.0059
X3.5925Y-4.0945
X3.6122Y-3.7402
X3.6122Y-4.0748
X3.6122Y-4.4783
X3.6319Y-4.0945
X3.6417Y-3.75
X3.6516Y-4.0748
X3.6713Y-3.7598
X3.6713Y-4.0945
X3.6811Y-3.3465
X3.6909Y-4.0748
X3.7008Y-3.7697
X3.7106Y-4.0945
X3.7303Y-3.7795
X3.7303Y-4.0748
X3.7598Y-3.7894
X3.7697Y-3.376
X3.7894Y-3.4449
X3.7894Y-3.7992
X3.7992Y-3.3563
X3.8091Y-3.9862
X3.8091Y-4.5079
X3.8189Y-3.3366
X3.8189Y-3.8091
X3.8386Y-3.9862
X3.8484Y-3.8189
X3.8555Y-3.3338
X3.8681Y-3.9862
X3.878Y-3.4154
X3.878Y-3.8287
X3.8878Y-3.9665
X3.8976Y-3.3957
X3.9075Y-3.3661
X3.9075Y-3.8386
X3.937Y-3.3268
X3.937Y-3.3563
X3.937Y-3.8484
X3.937Y-4.0945
X3.9372Y-3.9569
X3.9567Y-4.0748
X3.9665Y-3.3169
X3.9665Y-3.8583
X3.9764Y-4.0945
X3.9961Y-3.8681
X3.9961Y-4.0748
X4.0157Y-4.0945
X4.0256Y-3.878
X4.0354Y-4.0748
X4.0551Y-3.8878
X4.0551Y-4.0945
X4.0748Y-4.0748
X4.0846Y-3.8976
X4.0945Y-4.0945
X4.1142Y-3.9075
X4.1142Y-4.0748
X4.1339Y-4.0945
X4.1535Y-4.0748
X4.1634Y-3.8287
X4.1732Y-4.1043
X4.1831Y-3.8484
X4.1831Y-3.9764
X4.1929Y-4.0846
X4.2028Y-3.878
X4.2126Y-4.1142
X4.2323Y-3.622
X4.2323Y-4.0945
X4.252Y-3.6417
X4.252Y-4.124
X4.2618Y-3.6811
X4.2717Y-3.622
X4.2717Y-4.1043
X4.2815Y-3.8386
X4.2913Y-3.6417
X4.2913Y-4.1339
X4.311Y-3.622
X4.311Y-4.1142
X4.3307Y-3.6417
X4.3307Y-4.1437
X4.3406Y-3.8681
X4.3504Y-3.622
X4.3504Y-4.124
X4.3701Y-3.6417
X4.3701Y-3.8681
X4.3799Y-4.1339
X4.3898Y-3.622
X4.3996Y-3.8681
X4.4094Y-3.6417
X4.4193Y-4.1732
X4.4291Y-3.622
X4.4291Y-4.5571
X4.4362Y-3.7266
X4.439Y-4.1535
X4.4488Y-3.6417
X4.4488Y-4.1929
X4.4685Y-3.622
X4.4685Y-4.0453
X4.4882Y-3.6417
X4.4882Y-4.5177
X4.4882Y-4.5472
X4.4882Y-4.5768
X4.5079Y-3.622
X4.5079Y-4.0354
X4.5079Y-4.498
X4.5276Y-3.6417
X4.5276Y-4.0551
X4.5276Y-4.5177
X4.5472Y-3.622
X4.5472Y-4.0748
X4.5472Y-4.5374
X4.5669Y-3.6417
X4.5669Y-3.9764
X4.5669Y-4.0945
X4.5669Y-4.5177
X4.5866Y-3.622
X4.5866Y-3.9567
X4.5866Y-4.1142
X4.5866Y-4.498
X4.5965Y-3.3169
X4.5965Y-3.3661
X4.5965Y-3.7795
X4.6063Y-3.6417
X4.6063Y-3.937
X4.6063Y-4.1339
X4.6063Y-4.5177
X4.626Y-3.622
X4.6358Y-4.5374
X4.6457Y-3.6417
X4.6752Y-3.3465
X4.6752Y-3.6319
X4.685Y-4.0945
X4.7047Y-3.6516
X4.7047Y-4.1929
X4.7047Y-4.498
X4.7146Y-4.1043
X4.7244Y-3.6811
X4.7343Y-3.3366
X4.7441Y-3.6614
X4.7441Y-4.0551
X4.7539Y-3.376
X4.7539Y-3.6909
X4.7638Y-4.0846
X4.7638Y-4.5374
X4.7736Y-3.3563
X4.7736Y-3.8091
X4.7835Y-4.0551
X4.7933Y-3.7598
X4.8031Y-4.0846
X4.8228Y-4.0551
X4.8425Y-3.376
X4.8425Y-4.0846
X4.8524Y-3.8386
X4.8622Y-4.0551
X4.872Y-3.376
X4.8748Y-3.3437
X4.8819Y-4.1339
X4.889Y-3.8555
X4.8917Y-4.065
X4.8917Y-4.1043
X4.9114Y-3.376
X4.9114Y-3.7795
X4.9114Y-3.8189
X4.9114Y-4.0846
X4.9114Y-4.1339
X4.9213Y-3.878
X4.9311Y-3.3169
X4.9311Y-3.7598
X4.9311Y-3.7992
X4.936Y-3.3612
X4.9409Y-3.9567
X4.9409Y-4.0551
X4.9606Y-3.9764
X4.9606Y-4.2913
X4.9703Y-3.3266
X4.9705Y-4.0551
X4.9803Y-3.6931
X4.9803Y-3.9961
X4.9803Y-4.311
X5.0Y-3.3268
X5.0Y-4.0157
X5.0Y-4.0551
X5.0Y-4.2913
X5.0098Y-3.6909
X5.0098Y-3.9173
X5.0197Y-3.7205
X5.0295Y-4.0256
X5.0295Y-4.0551
X5.0394Y-3.7402
X5.0394Y-3.8091
X5.0394Y-3.9173
X5.0591Y-3.7598
X5.0591Y-3.8976
X5.0591Y-3.9567
X5.0591Y-3.9961
X5.0591Y-4.0256
X5.0591Y-4.0551
X5.0787Y-3.7894
X5.0787Y-3.937
X5.0886Y-3.8878
X5.0886Y-3.9764
X5.0886Y-4.0157
X5.128Y-3.8878
X5.1575Y-3.8976
X5.1772Y-3.9173
X5.1969Y-3.937
X5.2165Y-3.9567
X5.2362Y-3.9764
X5.2461Y-4.0157
X5.2461Y-4.0551
X5.2461Y-4.0945
X5.2559Y-4.1339
X5.2559Y-4.1732
X5.2559Y-4.2126
X5.2657Y-3.9961
X5.2657Y-4.0354
X5.2657Y-4.0748
X5.2756Y-4.1142
X5.2756Y-4.1535
X5.2756Y-4.1929
X5.2756Y-4.2323
X5.2953Y-4.252
X5.315Y-4.2717
X5.3346Y-4.2963
X5.3445Y-3.6614
X5.3445Y-3.7008
X5.3445Y-4.4488
X5.3543Y-3.622
X5.3543Y-4.3209
X5.3543Y-4.3602
X5.3642Y-3.5833
X5.3642Y-3.6811
X5.3642Y-3.7205
X5.374Y-3.6417
X5.3839Y-3.5236
X5.3839Y-3.563
X5.3839Y-3.7402
X5.3839Y-4.3996
X5.3839Y-4.4685
X5.3937Y-3.6024
X5.3937Y-4.3406
X5.4035Y-3.5039
X5.4035Y-3.5433
X5.4035Y-3.6417
X5.4035Y-3.7205
X5.4134Y-3.75
X5.4134Y-4.3799
X5.4232Y-4.4882
X5.4331Y-3.4843
X5.4429Y-3.6909
X5.4429Y-3.7697
X5.4429Y-4.4685
X5.4528Y-3.5531
X5.4626Y-3.435
X5.4626Y-3.4843
X5.4626Y-3.7106
X5.4724Y-3.3957
X5.4724Y-3.622
X5.4724Y-4.4685
X5.4921Y-3.435
X5.4923Y-3.5925
X5.502Y-3.4055
X5.502Y-4.3701
X5.502Y-4.498
X5.502Y-4.5374
X5.5118Y-3.3661
X5.5118Y-3.6122
X5.5217Y-4.439
X5.5217Y-4.5177
X5.5315Y-3.3858
X5.5315Y-3.6319
X5.5315Y-4.5571
X5.5413Y-3.2874
X5.5413Y-3.3268
X5.5413Y-3.3563
X5.5413Y-3.7008
X5.5512Y-3.7402
X5.561Y-3.6319
X5.5709Y-4.3012
X5.5709Y-4.5374
X5.5807Y-3.563
X5.5906Y-3.3366
X5.5906Y-3.3661
X5.6398Y-3.3563
T0
M30
