%TF.GenerationSoftware,KiCad,Pcbnew,7.0.5*%
%TF.CreationDate,2023-09-25T02:34:09-05:00*%
%TF.ProjectId,Chimera_Carrier,4368696d-6572-4615-9f43-617272696572,rev?*%
%TF.SameCoordinates,Original*%
%TF.FileFunction,Legend,Bot*%
%TF.FilePolarity,Positive*%
%FSLAX46Y46*%
G04 Gerber Fmt 4.6, Leading zero omitted, Abs format (unit mm)*
G04 Created by KiCad (PCBNEW 7.0.5) date 2023-09-25 02:34:09*
%MOMM*%
%LPD*%
G01*
G04 APERTURE LIST*
%ADD10C,0.100000*%
G04 APERTURE END LIST*
%LPC*%
%TO.C,B1*%
D10*
X62525000Y-120000000D02*
X47575000Y-120000000D01*
X47575000Y-117500000D01*
X62525000Y-117500000D01*
X62525000Y-120000000D01*
G36*
X62525000Y-120000000D02*
G01*
X47575000Y-120000000D01*
X47575000Y-117500000D01*
X62525000Y-117500000D01*
X62525000Y-120000000D01*
G37*
X67425000Y-120000000D02*
X63725000Y-120000000D01*
X63725000Y-117500000D01*
X67425000Y-117500000D01*
X67425000Y-120000000D01*
G36*
X67425000Y-120000000D02*
G01*
X63725000Y-120000000D01*
X63725000Y-117500000D01*
X67425000Y-117500000D01*
X67425000Y-120000000D01*
G37*
%TO.C,A2*%
X92425000Y-82500000D02*
X77475000Y-82500000D01*
X77475000Y-80000000D01*
X92425000Y-80000000D01*
X92425000Y-82500000D01*
G36*
X92425000Y-82500000D02*
G01*
X77475000Y-82500000D01*
X77475000Y-80000000D01*
X92425000Y-80000000D01*
X92425000Y-82500000D01*
G37*
X76275000Y-82500000D02*
X72575000Y-82500000D01*
X72575000Y-80000000D01*
X76275000Y-80000000D01*
X76275000Y-82500000D01*
G36*
X76275000Y-82500000D02*
G01*
X72575000Y-82500000D01*
X72575000Y-80000000D01*
X76275000Y-80000000D01*
X76275000Y-82500000D01*
G37*
%TO.C,IN1*%
X47500000Y-105025000D02*
X45000000Y-105025000D01*
X45000000Y-90075000D01*
X47500000Y-90075000D01*
X47500000Y-105025000D01*
G36*
X47500000Y-105025000D02*
G01*
X45000000Y-105025000D01*
X45000000Y-90075000D01*
X47500000Y-90075000D01*
X47500000Y-105025000D01*
G37*
X47500000Y-109925000D02*
X45000000Y-109925000D01*
X45000000Y-106225000D01*
X47500000Y-106225000D01*
X47500000Y-109925000D01*
G36*
X47500000Y-109925000D02*
G01*
X45000000Y-109925000D01*
X45000000Y-106225000D01*
X47500000Y-106225000D01*
X47500000Y-109925000D01*
G37*
%TO.C,OUT1*%
X145000000Y-109925000D02*
X142500000Y-109925000D01*
X142500000Y-94975000D01*
X145000000Y-94975000D01*
X145000000Y-109925000D01*
G36*
X145000000Y-109925000D02*
G01*
X142500000Y-109925000D01*
X142500000Y-94975000D01*
X145000000Y-94975000D01*
X145000000Y-109925000D01*
G37*
X145000000Y-93775000D02*
X142500000Y-93775000D01*
X142500000Y-90075000D01*
X145000000Y-90075000D01*
X145000000Y-93775000D01*
G36*
X145000000Y-93775000D02*
G01*
X142500000Y-93775000D01*
X142500000Y-90075000D01*
X145000000Y-90075000D01*
X145000000Y-93775000D01*
G37*
%TO.C,A3*%
X117425000Y-82500000D02*
X102475000Y-82500000D01*
X102475000Y-80000000D01*
X117425000Y-80000000D01*
X117425000Y-82500000D01*
G36*
X117425000Y-82500000D02*
G01*
X102475000Y-82500000D01*
X102475000Y-80000000D01*
X117425000Y-80000000D01*
X117425000Y-82500000D01*
G37*
X101275000Y-82500000D02*
X97575000Y-82500000D01*
X97575000Y-80000000D01*
X101275000Y-80000000D01*
X101275000Y-82500000D01*
G36*
X101275000Y-82500000D02*
G01*
X97575000Y-82500000D01*
X97575000Y-80000000D01*
X101275000Y-80000000D01*
X101275000Y-82500000D01*
G37*
%TO.C,B3*%
X112525000Y-120000000D02*
X97575000Y-120000000D01*
X97575000Y-117500000D01*
X112525000Y-117500000D01*
X112525000Y-120000000D01*
G36*
X112525000Y-120000000D02*
G01*
X97575000Y-120000000D01*
X97575000Y-117500000D01*
X112525000Y-117500000D01*
X112525000Y-120000000D01*
G37*
X117425000Y-120000000D02*
X113725000Y-120000000D01*
X113725000Y-117500000D01*
X117425000Y-117500000D01*
X117425000Y-120000000D01*
G36*
X117425000Y-120000000D02*
G01*
X113725000Y-120000000D01*
X113725000Y-117500000D01*
X117425000Y-117500000D01*
X117425000Y-120000000D01*
G37*
%TO.C,B2*%
X87525000Y-120000000D02*
X72575000Y-120000000D01*
X72575000Y-117500000D01*
X87525000Y-117500000D01*
X87525000Y-120000000D01*
G36*
X87525000Y-120000000D02*
G01*
X72575000Y-120000000D01*
X72575000Y-117500000D01*
X87525000Y-117500000D01*
X87525000Y-120000000D01*
G37*
X92425000Y-120000000D02*
X88725000Y-120000000D01*
X88725000Y-117500000D01*
X92425000Y-117500000D01*
X92425000Y-120000000D01*
G36*
X92425000Y-120000000D02*
G01*
X88725000Y-120000000D01*
X88725000Y-117500000D01*
X92425000Y-117500000D01*
X92425000Y-120000000D01*
G37*
%TO.C,B4*%
X137525000Y-120000000D02*
X122575000Y-120000000D01*
X122575000Y-117500000D01*
X137525000Y-117500000D01*
X137525000Y-120000000D01*
G36*
X137525000Y-120000000D02*
G01*
X122575000Y-120000000D01*
X122575000Y-117500000D01*
X137525000Y-117500000D01*
X137525000Y-120000000D01*
G37*
X142425000Y-120000000D02*
X138725000Y-120000000D01*
X138725000Y-117500000D01*
X142425000Y-117500000D01*
X142425000Y-120000000D01*
G36*
X142425000Y-120000000D02*
G01*
X138725000Y-120000000D01*
X138725000Y-117500000D01*
X142425000Y-117500000D01*
X142425000Y-120000000D01*
G37*
%TO.C,A1*%
X67425000Y-82500000D02*
X52475000Y-82500000D01*
X52475000Y-80000000D01*
X67425000Y-80000000D01*
X67425000Y-82500000D01*
G36*
X67425000Y-82500000D02*
G01*
X52475000Y-82500000D01*
X52475000Y-80000000D01*
X67425000Y-80000000D01*
X67425000Y-82500000D01*
G37*
X51275000Y-82500000D02*
X47575000Y-82500000D01*
X47575000Y-80000000D01*
X51275000Y-80000000D01*
X51275000Y-82500000D01*
G36*
X51275000Y-82500000D02*
G01*
X47575000Y-82500000D01*
X47575000Y-80000000D01*
X51275000Y-80000000D01*
X51275000Y-82500000D01*
G37*
%TO.C,A4*%
X142425000Y-82500000D02*
X127475000Y-82500000D01*
X127475000Y-80000000D01*
X142425000Y-80000000D01*
X142425000Y-82500000D01*
G36*
X142425000Y-82500000D02*
G01*
X127475000Y-82500000D01*
X127475000Y-80000000D01*
X142425000Y-80000000D01*
X142425000Y-82500000D01*
G37*
X126275000Y-82500000D02*
X122575000Y-82500000D01*
X122575000Y-80000000D01*
X126275000Y-80000000D01*
X126275000Y-82500000D01*
G36*
X126275000Y-82500000D02*
G01*
X122575000Y-82500000D01*
X122575000Y-80000000D01*
X126275000Y-80000000D01*
X126275000Y-82500000D01*
G37*
%TD*%
%LPD*%
M02*
