%TF.GenerationSoftware,KiCad,Pcbnew,7.0.5*%
%TF.CreationDate,2023-09-25T02:34:09-05:00*%
%TF.ProjectId,Chimera_Carrier,4368696d-6572-4615-9f43-617272696572,rev?*%
%TF.SameCoordinates,Original*%
%TF.FileFunction,Profile,NP*%
%FSLAX46Y46*%
G04 Gerber Fmt 4.6, Leading zero omitted, Abs format (unit mm)*
G04 Created by KiCad (PCBNEW 7.0.5) date 2023-09-25 02:34:09*
%MOMM*%
%LPD*%
G01*
G04 APERTURE LIST*
%TA.AperFunction,Profile*%
%ADD10C,0.100000*%
%TD*%
%TA.AperFunction,Profile*%
%ADD11C,0.050000*%
%TD*%
G04 APERTURE END LIST*
D10*
X45000000Y-116000000D02*
X45000000Y-113000000D01*
X93500000Y-116000000D02*
X96500000Y-116000000D01*
X145000000Y-116000000D02*
X145000000Y-113000000D01*
X93500000Y-84000000D02*
X96500000Y-84000000D01*
X68500000Y-84000000D02*
X71500000Y-84000000D01*
X45000000Y-113000000D02*
X49000000Y-113000000D01*
X141000000Y-113000000D02*
X141000000Y-111000000D01*
X45000000Y-87000000D02*
X45000000Y-84000000D01*
X143500000Y-84000000D02*
X145000000Y-84000000D01*
X118500000Y-116000000D02*
X121500000Y-116000000D01*
X46500000Y-84000000D02*
X45000000Y-84000000D01*
X141000000Y-87000000D02*
X141000000Y-89000000D01*
X68500000Y-116000000D02*
X71500000Y-116000000D01*
X48000000Y-87000000D02*
X45000000Y-87000000D01*
X145000000Y-116000000D02*
X143500000Y-116000000D01*
X49000000Y-113000000D02*
X49000000Y-111000000D01*
X142000000Y-113000000D02*
X141000000Y-113000000D01*
X145000000Y-84000000D02*
X145000000Y-87000000D01*
X142000000Y-113000000D02*
X145000000Y-113000000D01*
X49000000Y-87000000D02*
X48000000Y-87000000D01*
X46500000Y-116000000D02*
X45000000Y-116000000D01*
X145000000Y-87000000D02*
X141000000Y-87000000D01*
X49000000Y-89000000D02*
X49000000Y-87000000D01*
X118500000Y-84000000D02*
X121500000Y-84000000D01*
D11*
%TO.C,B1*%
X46500000Y-116000000D02*
X47075000Y-116000000D01*
X47575000Y-116500000D02*
X47575000Y-120000000D01*
X47575000Y-120000000D02*
X57500000Y-120000000D01*
X57500000Y-120000000D02*
X62525000Y-120000000D01*
X62525000Y-120000000D02*
X62525000Y-117100000D01*
X63725000Y-117100000D02*
X63725000Y-120000000D01*
X63725000Y-120000000D02*
X67425000Y-120000000D01*
X67425000Y-120000000D02*
X67425000Y-116500000D01*
X67925000Y-116000000D02*
X68500000Y-116000000D01*
X47575000Y-116500000D02*
G75*
G03*
X47075000Y-116000000I-500001J-1D01*
G01*
X63725000Y-117100000D02*
G75*
G03*
X62525000Y-117100000I-600000J0D01*
G01*
X67925000Y-116000000D02*
G75*
G03*
X67425000Y-116500000I0J-500000D01*
G01*
%TO.C,A2*%
X93500000Y-84000000D02*
X92925000Y-84000000D01*
X92425000Y-83500000D02*
X92425000Y-80000000D01*
X92425000Y-80000000D02*
X82500000Y-80000000D01*
X82500000Y-80000000D02*
X77475000Y-80000000D01*
X77475000Y-80000000D02*
X77475000Y-82900000D01*
X76275000Y-82900000D02*
X76275000Y-80000000D01*
X76275000Y-80000000D02*
X72575000Y-80000000D01*
X72575000Y-80000000D02*
X72575000Y-83500000D01*
X72075000Y-84000000D02*
X71500000Y-84000000D01*
X92425000Y-83500000D02*
G75*
G03*
X92925000Y-84000000I500001J1D01*
G01*
X76275000Y-82900000D02*
G75*
G03*
X77475000Y-82900000I600000J0D01*
G01*
X72075000Y-84000000D02*
G75*
G03*
X72575000Y-83500000I0J500000D01*
G01*
%TO.C,IN1*%
X49000000Y-89000000D02*
X49000000Y-89575000D01*
X48500000Y-90075000D02*
X45000000Y-90075000D01*
X45000000Y-90075000D02*
X45000000Y-100000000D01*
X45000000Y-100000000D02*
X45000000Y-105025000D01*
X45000000Y-105025000D02*
X47900000Y-105025000D01*
X47900000Y-106225000D02*
X45000000Y-106225000D01*
X45000000Y-106225000D02*
X45000000Y-109925000D01*
X45000000Y-109925000D02*
X48500000Y-109925000D01*
X49000000Y-110425000D02*
X49000000Y-111000000D01*
X48500000Y-90075000D02*
G75*
G03*
X49000000Y-89575000I-1J500001D01*
G01*
X47900000Y-106225000D02*
G75*
G03*
X47900000Y-105025000I0J600000D01*
G01*
X49000000Y-110425000D02*
G75*
G03*
X48500000Y-109925000I-500000J0D01*
G01*
%TO.C,OUT1*%
X141000000Y-111000000D02*
X141000000Y-110425000D01*
X141500000Y-109925000D02*
X145000000Y-109925000D01*
X145000000Y-109925000D02*
X145000000Y-100000000D01*
X145000000Y-100000000D02*
X145000000Y-94975000D01*
X145000000Y-94975000D02*
X142100000Y-94975000D01*
X142100000Y-93775000D02*
X145000000Y-93775000D01*
X145000000Y-93775000D02*
X145000000Y-90075000D01*
X145000000Y-90075000D02*
X141500000Y-90075000D01*
X141000000Y-89575000D02*
X141000000Y-89000000D01*
X141500000Y-109925000D02*
G75*
G03*
X141000000Y-110425000I1J-500001D01*
G01*
X142100000Y-93775000D02*
G75*
G03*
X142100000Y-94975000I0J-600000D01*
G01*
X141000000Y-89575000D02*
G75*
G03*
X141500000Y-90075000I500000J0D01*
G01*
%TO.C,A3*%
X118500000Y-84000000D02*
X117925000Y-84000000D01*
X117425000Y-83500000D02*
X117425000Y-80000000D01*
X117425000Y-80000000D02*
X107500000Y-80000000D01*
X107500000Y-80000000D02*
X102475000Y-80000000D01*
X102475000Y-80000000D02*
X102475000Y-82900000D01*
X101275000Y-82900000D02*
X101275000Y-80000000D01*
X101275000Y-80000000D02*
X97575000Y-80000000D01*
X97575000Y-80000000D02*
X97575000Y-83500000D01*
X97075000Y-84000000D02*
X96500000Y-84000000D01*
X117425000Y-83500000D02*
G75*
G03*
X117925000Y-84000000I500001J1D01*
G01*
X101275000Y-82900000D02*
G75*
G03*
X102475000Y-82900000I600000J0D01*
G01*
X97075000Y-84000000D02*
G75*
G03*
X97575000Y-83500000I0J500000D01*
G01*
%TO.C,B3*%
X96500000Y-116000000D02*
X97075000Y-116000000D01*
X97575000Y-116500000D02*
X97575000Y-120000000D01*
X97575000Y-120000000D02*
X107500000Y-120000000D01*
X107500000Y-120000000D02*
X112525000Y-120000000D01*
X112525000Y-120000000D02*
X112525000Y-117100000D01*
X113725000Y-117100000D02*
X113725000Y-120000000D01*
X113725000Y-120000000D02*
X117425000Y-120000000D01*
X117425000Y-120000000D02*
X117425000Y-116500000D01*
X117925000Y-116000000D02*
X118500000Y-116000000D01*
X97575000Y-116500000D02*
G75*
G03*
X97075000Y-116000000I-500001J-1D01*
G01*
X113725000Y-117100000D02*
G75*
G03*
X112525000Y-117100000I-600000J0D01*
G01*
X117925000Y-116000000D02*
G75*
G03*
X117425000Y-116500000I0J-500000D01*
G01*
%TO.C,B2*%
X71500000Y-116000000D02*
X72075000Y-116000000D01*
X72575000Y-116500000D02*
X72575000Y-120000000D01*
X72575000Y-120000000D02*
X82500000Y-120000000D01*
X82500000Y-120000000D02*
X87525000Y-120000000D01*
X87525000Y-120000000D02*
X87525000Y-117100000D01*
X88725000Y-117100000D02*
X88725000Y-120000000D01*
X88725000Y-120000000D02*
X92425000Y-120000000D01*
X92425000Y-120000000D02*
X92425000Y-116500000D01*
X92925000Y-116000000D02*
X93500000Y-116000000D01*
X72575000Y-116500000D02*
G75*
G03*
X72075000Y-116000000I-500001J-1D01*
G01*
X88725000Y-117100000D02*
G75*
G03*
X87525000Y-117100000I-600000J0D01*
G01*
X92925000Y-116000000D02*
G75*
G03*
X92425000Y-116500000I0J-500000D01*
G01*
%TO.C,B4*%
X121500000Y-116000000D02*
X122075000Y-116000000D01*
X122575000Y-116500000D02*
X122575000Y-120000000D01*
X122575000Y-120000000D02*
X132500000Y-120000000D01*
X132500000Y-120000000D02*
X137525000Y-120000000D01*
X137525000Y-120000000D02*
X137525000Y-117100000D01*
X138725000Y-117100000D02*
X138725000Y-120000000D01*
X138725000Y-120000000D02*
X142425000Y-120000000D01*
X142425000Y-120000000D02*
X142425000Y-116500000D01*
X142925000Y-116000000D02*
X143500000Y-116000000D01*
X122575000Y-116500000D02*
G75*
G03*
X122075000Y-116000000I-500001J-1D01*
G01*
X138725000Y-117100000D02*
G75*
G03*
X137525000Y-117100000I-600000J0D01*
G01*
X142925000Y-116000000D02*
G75*
G03*
X142425000Y-116500000I0J-500000D01*
G01*
%TO.C,A1*%
X68500000Y-84000000D02*
X67925000Y-84000000D01*
X67425000Y-83500000D02*
X67425000Y-80000000D01*
X67425000Y-80000000D02*
X57500000Y-80000000D01*
X57500000Y-80000000D02*
X52475000Y-80000000D01*
X52475000Y-80000000D02*
X52475000Y-82900000D01*
X51275000Y-82900000D02*
X51275000Y-80000000D01*
X51275000Y-80000000D02*
X47575000Y-80000000D01*
X47575000Y-80000000D02*
X47575000Y-83500000D01*
X47075000Y-84000000D02*
X46500000Y-84000000D01*
X67425000Y-83500000D02*
G75*
G03*
X67925000Y-84000000I500001J1D01*
G01*
X51275000Y-82900000D02*
G75*
G03*
X52475000Y-82900000I600000J0D01*
G01*
X47075000Y-84000000D02*
G75*
G03*
X47575000Y-83500000I0J500000D01*
G01*
%TO.C,A4*%
X143500000Y-84000000D02*
X142925000Y-84000000D01*
X142425000Y-83500000D02*
X142425000Y-80000000D01*
X142425000Y-80000000D02*
X132500000Y-80000000D01*
X132500000Y-80000000D02*
X127475000Y-80000000D01*
X127475000Y-80000000D02*
X127475000Y-82900000D01*
X126275000Y-82900000D02*
X126275000Y-80000000D01*
X126275000Y-80000000D02*
X122575000Y-80000000D01*
X122575000Y-80000000D02*
X122575000Y-83500000D01*
X122075000Y-84000000D02*
X121500000Y-84000000D01*
X142425000Y-83500000D02*
G75*
G03*
X142925000Y-84000000I500001J1D01*
G01*
X126275000Y-82900000D02*
G75*
G03*
X127475000Y-82900000I600000J0D01*
G01*
X122075000Y-84000000D02*
G75*
G03*
X122575000Y-83500000I0J500000D01*
G01*
%TD*%
M02*
