%TF.GenerationSoftware,KiCad,Pcbnew,7.0.5*%
%TF.CreationDate,2023-08-28T16:59:48-05:00*%
%TF.ProjectId,Chimera_0002_thea,4368696d-6572-4615-9f30-3030325f7468,rev?*%
%TF.SameCoordinates,Original*%
%TF.FileFunction,Paste,Top*%
%TF.FilePolarity,Positive*%
%FSLAX46Y46*%
G04 Gerber Fmt 4.6, Leading zero omitted, Abs format (unit mm)*
G04 Created by KiCad (PCBNEW 7.0.5) date 2023-08-28 16:59:48*
%MOMM*%
%LPD*%
G01*
G04 APERTURE LIST*
G04 Aperture macros list*
%AMRoundRect*
0 Rectangle with rounded corners*
0 $1 Rounding radius*
0 $2 $3 $4 $5 $6 $7 $8 $9 X,Y pos of 4 corners*
0 Add a 4 corners polygon primitive as box body*
4,1,4,$2,$3,$4,$5,$6,$7,$8,$9,$2,$3,0*
0 Add four circle primitives for the rounded corners*
1,1,$1+$1,$2,$3*
1,1,$1+$1,$4,$5*
1,1,$1+$1,$6,$7*
1,1,$1+$1,$8,$9*
0 Add four rect primitives between the rounded corners*
20,1,$1+$1,$2,$3,$4,$5,0*
20,1,$1+$1,$4,$5,$6,$7,0*
20,1,$1+$1,$6,$7,$8,$9,0*
20,1,$1+$1,$8,$9,$2,$3,0*%
G04 Aperture macros list end*
%ADD10R,1.800000X2.000000*%
%ADD11RoundRect,0.225000X-0.250000X0.225000X-0.250000X-0.225000X0.250000X-0.225000X0.250000X0.225000X0*%
%ADD12RoundRect,0.200000X0.200000X0.275000X-0.200000X0.275000X-0.200000X-0.275000X0.200000X-0.275000X0*%
%ADD13R,0.300000X1.550013*%
%ADD14R,0.300000X1.524003*%
%ADD15R,1.300000X2.800000*%
%ADD16RoundRect,0.225000X0.250000X-0.225000X0.250000X0.225000X-0.250000X0.225000X-0.250000X-0.225000X0*%
%ADD17R,3.000000X1.000000*%
%ADD18R,5.499873X3.000000*%
%ADD19R,1.250013X0.400000*%
%ADD20R,6.000000X6.500025*%
%ADD21R,0.806477X0.864008*%
%ADD22R,0.800000X0.800000*%
%ADD23R,1.240005X0.600000*%
%ADD24R,1.240005X0.300000*%
G04 APERTURE END LIST*
D10*
%TO.C,U3*%
X113899975Y-114000102D03*
X113899975Y-110000102D03*
%TD*%
D11*
%TO.C,C3*%
X116000000Y-105900000D03*
X116000000Y-107450000D03*
%TD*%
D12*
%TO.C,R3*%
X123825000Y-119400000D03*
X122175000Y-119400000D03*
%TD*%
D11*
%TO.C,C4*%
X118800000Y-117925000D03*
X118800000Y-119475000D03*
%TD*%
D12*
%TO.C,R4*%
X123825000Y-117800000D03*
X122175000Y-117800000D03*
%TD*%
D13*
%TO.C,CN1*%
X121749872Y-102400000D03*
X121499936Y-94850088D03*
X121250000Y-102400000D03*
X120999809Y-94850088D03*
X120749872Y-102400000D03*
X120499936Y-94850088D03*
X120250000Y-102400000D03*
X119999809Y-94850088D03*
X119749872Y-102400000D03*
X119499936Y-94850088D03*
X119250000Y-102400000D03*
X116999809Y-94850088D03*
X116749872Y-102400000D03*
X116499936Y-94850088D03*
X116250000Y-102400000D03*
X115999809Y-94850088D03*
X115749872Y-102400000D03*
X115499936Y-94850088D03*
X115250000Y-102400000D03*
X114999809Y-94850088D03*
X114749872Y-102400000D03*
X114499936Y-94850088D03*
X114250000Y-102400000D03*
X113999809Y-94850088D03*
X113749872Y-102400000D03*
X113499936Y-94850088D03*
X113250000Y-102400000D03*
X112999809Y-94850088D03*
X112749872Y-102400000D03*
X112499936Y-94850088D03*
X112250000Y-102400000D03*
X111999809Y-94850088D03*
X111749872Y-102400000D03*
X111499936Y-94850342D03*
X111250000Y-102400000D03*
X110999809Y-94850342D03*
X110749872Y-102400000D03*
X110499936Y-94850342D03*
X110250000Y-102400000D03*
X109999809Y-94850342D03*
X109749872Y-102400000D03*
X109499936Y-94850342D03*
X109250000Y-102400000D03*
X108999809Y-94850342D03*
X108749872Y-102400000D03*
X108499936Y-94850342D03*
X108250000Y-102400000D03*
X107999809Y-94850342D03*
X107749872Y-102400000D03*
X107499936Y-94850342D03*
D14*
X107250000Y-102400254D03*
X106999809Y-94850342D03*
X106749872Y-102400254D03*
X106499936Y-94850342D03*
X106250000Y-102400254D03*
X105999809Y-94850342D03*
X105749872Y-102400254D03*
X105499936Y-94850342D03*
D13*
X105250000Y-102400000D03*
X104999809Y-94850342D03*
X104749872Y-102400000D03*
X104499936Y-94850342D03*
X104250000Y-102400000D03*
X103999809Y-94850342D03*
X103749872Y-102400000D03*
X103499936Y-94850342D03*
X103250000Y-102400000D03*
D15*
X102149923Y-101675082D03*
X122849949Y-101675082D03*
%TD*%
D12*
%TO.C,R1*%
X119325000Y-108500000D03*
X117675000Y-108500000D03*
%TD*%
%TO.C,R2*%
X122900000Y-108650000D03*
X121250000Y-108650000D03*
%TD*%
D16*
%TO.C,C5*%
X120500000Y-119475000D03*
X120500000Y-117925000D03*
%TD*%
D17*
%TO.C,USB2*%
X114844933Y-131150000D03*
X114844933Y-128649873D03*
X114844933Y-126649873D03*
X114844933Y-124150000D03*
D18*
X112145161Y-120149492D03*
X112145161Y-135150508D03*
%TD*%
D19*
%TO.C,USB1*%
X105749733Y-141800076D03*
X105749733Y-142450064D03*
X105749733Y-143100051D03*
X105749733Y-143750038D03*
X105749733Y-144400026D03*
%TD*%
D15*
%TO.C,Q1*%
X123372797Y-122008026D03*
D20*
X121100000Y-128591974D03*
D15*
X118827203Y-122008026D03*
%TD*%
D21*
%TO.C,F1*%
X109646634Y-109800000D03*
X111153366Y-109800000D03*
%TD*%
D11*
%TO.C,C2*%
X114400000Y-105925000D03*
X114400000Y-107475000D03*
%TD*%
%TO.C,C1*%
X112800000Y-105900000D03*
X112800000Y-107450000D03*
%TD*%
D22*
%TO.C,LED1*%
X121503429Y-113098934D03*
X121496571Y-111500000D03*
%TD*%
D23*
%TO.C,U1*%
X107718549Y-108800102D03*
X107718549Y-109599950D03*
D24*
X107718549Y-110750064D03*
X107718549Y-111750064D03*
X107718549Y-112249937D03*
X107718549Y-113249937D03*
D23*
X107718549Y-115199899D03*
X107718549Y-114400051D03*
D24*
X107718549Y-113750064D03*
X107718549Y-112750064D03*
X107718549Y-111249937D03*
X107718549Y-110249937D03*
%TD*%
D22*
%TO.C,LED2*%
X117803429Y-113198934D03*
X117796571Y-111600000D03*
%TD*%
M02*
