%TF.GenerationSoftware,KiCad,Pcbnew,7.0.5*%
%TF.CreationDate,2023-08-28T16:59:48-05:00*%
%TF.ProjectId,Chimera_0002_thea,4368696d-6572-4615-9f30-3030325f7468,rev?*%
%TF.SameCoordinates,Original*%
%TF.FileFunction,Copper,L2,Inr*%
%TF.FilePolarity,Positive*%
%FSLAX46Y46*%
G04 Gerber Fmt 4.6, Leading zero omitted, Abs format (unit mm)*
G04 Created by KiCad (PCBNEW 7.0.5) date 2023-08-28 16:59:48*
%MOMM*%
%LPD*%
G01*
G04 APERTURE LIST*
%TA.AperFunction,ComponentPad*%
%ADD10C,3.600000*%
%TD*%
%TA.AperFunction,ComponentPad*%
%ADD11C,1.200000*%
%TD*%
%TA.AperFunction,ComponentPad*%
%ADD12O,2.200000X1.300000*%
%TD*%
%TA.AperFunction,ComponentPad*%
%ADD13O,2.100000X1.000000*%
%TD*%
%TA.AperFunction,ComponentPad*%
%ADD14O,1.800000X1.000000*%
%TD*%
%TA.AperFunction,ViaPad*%
%ADD15C,0.450000*%
%TD*%
%TA.AperFunction,ViaPad*%
%ADD16C,0.330000*%
%TD*%
%TA.AperFunction,ViaPad*%
%ADD17C,0.400000*%
%TD*%
G04 APERTURE END LIST*
D10*
%TO.N,N/C*%
%TO.C,H1*%
X112500000Y-149900000D03*
%TD*%
D11*
%TO.N,GND*%
%TO.C,USB1*%
X105749987Y-140675108D03*
D12*
X103100000Y-139500102D03*
X103100000Y-146700000D03*
D11*
X105749987Y-145524994D03*
%TD*%
D13*
%TO.N,GND*%
%TO.C,U1*%
X107098534Y-107679960D03*
X107098534Y-116320041D03*
D14*
X102918448Y-116320041D03*
X102918448Y-107679960D03*
%TD*%
D15*
%TO.N,Net-(CN1-1-Pad11)*%
X119250000Y-103650000D03*
%TO.N,Net-(CN1-20-Pad21)*%
X116750000Y-103650000D03*
%TO.N,Net-(CN1-20-Pad23)*%
X116250000Y-100900000D03*
%TO.N,Net-(CN1-20-Pad25)*%
X115750000Y-103650000D03*
%TO.N,Net-(CN1-20-Pad27)*%
X115250000Y-100900000D03*
%TO.N,Net-(CN1-1-Pad66)*%
X105750000Y-103900000D03*
%TO.N,Net-(CN1-20-Pad33)*%
X113750000Y-103650000D03*
%TO.N,Net-(CN1-20-Pad35)*%
X113250000Y-100900000D03*
%TO.N,Net-(CN1-20-Pad37)*%
X112750000Y-103650000D03*
%TO.N,Net-(CN1-1-Pad5)*%
X120749872Y-100900000D03*
%TO.N,Net-(CN1-20-Pad39)*%
X112250000Y-100900000D03*
%TO.N,Net-(CN1-1-Pad69)*%
X104750000Y-103900000D03*
%TO.N,Net-(CN1-1-Pad71)*%
X104000000Y-100900000D03*
%TO.N,Net-(CN1-1-Pad73)*%
X103750000Y-103900000D03*
%TO.N,Net-(CN1-20-Pad41)*%
X111750000Y-103650000D03*
D16*
%TO.N,+3V3*%
X120500000Y-116600000D03*
X121100000Y-132700000D03*
D17*
X121749872Y-99000000D03*
D15*
%TO.N,Net-(CN1-20-Pad43)*%
X111250000Y-100900000D03*
%TO.N,Net-(CN1-20-Pad45)*%
X110750000Y-103650000D03*
%TO.N,Net-(CN1-20-Pad47)*%
X110250000Y-101400000D03*
%TO.N,Net-(CN1-20-Pad49)*%
X109750000Y-103650000D03*
%TO.N,Net-(CN1-20-Pad51)*%
X109250000Y-101150000D03*
%TO.N,Net-(CN1-20-Pad53)*%
X108750000Y-103900000D03*
%TO.N,Net-(CN1-20-Pad55)*%
X108250000Y-101150000D03*
%TO.N,Net-(CN1-20-Pad57)*%
X107750000Y-103900000D03*
%TO.N,Net-(CN1-20-Pad59)*%
X107250000Y-101400000D03*
%TO.N,Net-(CN1-20-Pad61)*%
X106750000Y-103900000D03*
%TO.N,Net-(CN1-1-Pad67)*%
X105250000Y-100339395D03*
%TO.N,Net-(CN1-1-Pad7)*%
X120250000Y-103650000D03*
%TO.N,Net-(CN1-20-Pad63)*%
X106250000Y-100400000D03*
%TO.N,Net-(CN1-1-Pad9)*%
X119749872Y-100900000D03*
%TO.N,GND*%
X117925000Y-114350000D03*
X102800000Y-103900000D03*
X122100000Y-94800000D03*
X121250000Y-114250000D03*
X107000000Y-144400000D03*
X114400000Y-105100000D03*
X117300000Y-131100000D03*
X116000000Y-105100000D03*
X109000000Y-108750000D03*
X112800000Y-105100000D03*
X115400000Y-114000000D03*
X109000000Y-115250000D03*
%TO.N,USB+*%
X114750000Y-103650000D03*
%TO.N,USB-*%
X114250000Y-100900000D03*
%TO.N,+5V*%
X121250000Y-103650000D03*
X123750000Y-108650000D03*
%TO.N,VBUS*%
X109000000Y-114400000D03*
X108500000Y-123100000D03*
X109700000Y-110900000D03*
X107400000Y-141500000D03*
%TD*%
%TA.AperFunction,Conductor*%
%TO.N,GND*%
G36*
X117767539Y-90120185D02*
G01*
X117813294Y-90172989D01*
X117824500Y-90224500D01*
X117824500Y-92760118D01*
X117824500Y-92800000D01*
X117824500Y-92884136D01*
X117859486Y-93048731D01*
X117927928Y-93202455D01*
X118026836Y-93338589D01*
X118026837Y-93338590D01*
X118026838Y-93338591D01*
X118026840Y-93338594D01*
X118102907Y-93407084D01*
X118151886Y-93451185D01*
X118297614Y-93535321D01*
X118297616Y-93535321D01*
X118297619Y-93535323D01*
X118353464Y-93553467D01*
X118457650Y-93587320D01*
X118625000Y-93604909D01*
X118792350Y-93587320D01*
X118952386Y-93535321D01*
X119098114Y-93451185D01*
X119199254Y-93360118D01*
X119223159Y-93338594D01*
X119223159Y-93338592D01*
X119223164Y-93338589D01*
X119322072Y-93202455D01*
X119390514Y-93048731D01*
X119425500Y-92884136D01*
X119425500Y-92800000D01*
X119425500Y-92760118D01*
X119425500Y-92735456D01*
X119425499Y-92735450D01*
X119425500Y-90224500D01*
X119445185Y-90157460D01*
X119497989Y-90111706D01*
X119549500Y-90100500D01*
X122100500Y-90100500D01*
X122167539Y-90120185D01*
X122213294Y-90172989D01*
X122224500Y-90224500D01*
X122224500Y-93360118D01*
X122224500Y-93400000D01*
X122224500Y-93468993D01*
X122224500Y-93468995D01*
X122224499Y-93468995D01*
X122251418Y-93604322D01*
X122251421Y-93604332D01*
X122304221Y-93731804D01*
X122304228Y-93731817D01*
X122380885Y-93846541D01*
X122380888Y-93846545D01*
X122478454Y-93944111D01*
X122478458Y-93944114D01*
X122593182Y-94020771D01*
X122593195Y-94020778D01*
X122720667Y-94073578D01*
X122720672Y-94073580D01*
X122720676Y-94073580D01*
X122720677Y-94073581D01*
X122856004Y-94100500D01*
X122856007Y-94100500D01*
X122902410Y-94100500D01*
X123365589Y-94100500D01*
X123432628Y-94120185D01*
X123453270Y-94136819D01*
X124763181Y-95446730D01*
X124796666Y-95508053D01*
X124799500Y-95534411D01*
X124799500Y-149575500D01*
X124779815Y-149642539D01*
X124727011Y-149688294D01*
X124675500Y-149699500D01*
X114907452Y-149699500D01*
X114840413Y-149679815D01*
X114794658Y-149627011D01*
X114785835Y-149599692D01*
X114771121Y-149525723D01*
X114726880Y-149303309D01*
X114629945Y-149017748D01*
X114496566Y-148747282D01*
X114329025Y-148496539D01*
X114130189Y-148269810D01*
X113903459Y-148070973D01*
X113652720Y-147903435D01*
X113652713Y-147903431D01*
X113382268Y-147770062D01*
X113382247Y-147770053D01*
X113096698Y-147673122D01*
X113096692Y-147673120D01*
X113096691Y-147673120D01*
X113096689Y-147673119D01*
X113096683Y-147673118D01*
X112800930Y-147614288D01*
X112800921Y-147614287D01*
X112800920Y-147614287D01*
X112500000Y-147594564D01*
X112499999Y-147594564D01*
X112349540Y-147604425D01*
X112199080Y-147614287D01*
X112199079Y-147614287D01*
X112199069Y-147614288D01*
X111903316Y-147673118D01*
X111903301Y-147673122D01*
X111617752Y-147770053D01*
X111617731Y-147770062D01*
X111347286Y-147903431D01*
X111347279Y-147903435D01*
X111096540Y-148070973D01*
X110869810Y-148269810D01*
X110670973Y-148496540D01*
X110503435Y-148747279D01*
X110503431Y-148747286D01*
X110370062Y-149017731D01*
X110370053Y-149017752D01*
X110273122Y-149303301D01*
X110273119Y-149303313D01*
X110214165Y-149599692D01*
X110181780Y-149661603D01*
X110121064Y-149696177D01*
X110092548Y-149699500D01*
X100324500Y-149699500D01*
X100257461Y-149679815D01*
X100211706Y-149627011D01*
X100200500Y-149575500D01*
X100200500Y-146950000D01*
X101526813Y-146950000D01*
X101539162Y-147016058D01*
X101539163Y-147016063D01*
X101616149Y-147214789D01*
X101616153Y-147214798D01*
X101728346Y-147395997D01*
X101728348Y-147395999D01*
X101871928Y-147553499D01*
X102042010Y-147681940D01*
X102232783Y-147776933D01*
X102232803Y-147776941D01*
X102437780Y-147835261D01*
X102437783Y-147835262D01*
X102596833Y-147850000D01*
X102850000Y-147850000D01*
X102850000Y-147050013D01*
X103350000Y-147050013D01*
X103350000Y-147850000D01*
X103603167Y-147850000D01*
X103762216Y-147835262D01*
X103762219Y-147835261D01*
X103967196Y-147776941D01*
X103967216Y-147776933D01*
X104157989Y-147681940D01*
X104328071Y-147553499D01*
X104471651Y-147395999D01*
X104471653Y-147395997D01*
X104583846Y-147214798D01*
X104583850Y-147214789D01*
X104660836Y-147016063D01*
X104660837Y-147016058D01*
X104673187Y-146950000D01*
X103745650Y-146950000D01*
X103797122Y-146894086D01*
X103844046Y-146787111D01*
X103853692Y-146670696D01*
X103825016Y-146557457D01*
X103761125Y-146459665D01*
X103760571Y-146459234D01*
X105169297Y-146459234D01*
X105169298Y-146459235D01*
X105257568Y-146513889D01*
X105257575Y-146513893D01*
X105447665Y-146587533D01*
X105648059Y-146624994D01*
X105851915Y-146624994D01*
X106052308Y-146587533D01*
X106242401Y-146513891D01*
X106330675Y-146459234D01*
X105749988Y-145878547D01*
X105749987Y-145878547D01*
X105169297Y-146459234D01*
X103760571Y-146459234D01*
X103748707Y-146450000D01*
X104673187Y-146450000D01*
X104660837Y-146383941D01*
X104660837Y-146383940D01*
X104603390Y-146235650D01*
X104597528Y-146166026D01*
X104604120Y-146153582D01*
X104545249Y-146118484D01*
X104530754Y-146099457D01*
X104471649Y-146003997D01*
X104328071Y-145846500D01*
X104157989Y-145718059D01*
X103967216Y-145623066D01*
X103967196Y-145623058D01*
X103762219Y-145564738D01*
X103762216Y-145564737D01*
X103603167Y-145550000D01*
X103350000Y-145550000D01*
X103350000Y-146349987D01*
X102850000Y-146349987D01*
X102850000Y-145550000D01*
X102596833Y-145550000D01*
X102437783Y-145564737D01*
X102437780Y-145564738D01*
X102232803Y-145623058D01*
X102232783Y-145623066D01*
X102042010Y-145718059D01*
X101871928Y-145846500D01*
X101728348Y-146004000D01*
X101728346Y-146004002D01*
X101616153Y-146185201D01*
X101616149Y-146185210D01*
X101539163Y-146383936D01*
X101539162Y-146383941D01*
X101526813Y-146450000D01*
X102454350Y-146450000D01*
X102402878Y-146505914D01*
X102355954Y-146612889D01*
X102346308Y-146729304D01*
X102374984Y-146842543D01*
X102438875Y-146940335D01*
X102451293Y-146950000D01*
X101526813Y-146950000D01*
X100200500Y-146950000D01*
X100200500Y-145524994D01*
X104645274Y-145524994D01*
X104664083Y-145727983D01*
X104664084Y-145727986D01*
X104719870Y-145924057D01*
X104719871Y-145924059D01*
X104747183Y-145978909D01*
X104759443Y-146047695D01*
X104748722Y-146073421D01*
X104760884Y-146074138D01*
X104808154Y-146108603D01*
X104812520Y-146108907D01*
X105367130Y-145554298D01*
X105396346Y-145554298D01*
X105425022Y-145667537D01*
X105488913Y-145765329D01*
X105581096Y-145837078D01*
X105691580Y-145875007D01*
X105778992Y-145875007D01*
X105865208Y-145860620D01*
X105967942Y-145805023D01*
X106047058Y-145719080D01*
X106093982Y-145612105D01*
X106101200Y-145524994D01*
X106103539Y-145524994D01*
X106687452Y-146108906D01*
X106689234Y-146106546D01*
X106689236Y-146106544D01*
X106780100Y-145924063D01*
X106780103Y-145924057D01*
X106835889Y-145727986D01*
X106835890Y-145727983D01*
X106854700Y-145524994D01*
X106854700Y-145524993D01*
X106835890Y-145322004D01*
X106835889Y-145322001D01*
X106780103Y-145125930D01*
X106780100Y-145125924D01*
X106689231Y-144943435D01*
X106687453Y-144941080D01*
X106687452Y-144941079D01*
X106103539Y-145524993D01*
X106103539Y-145524994D01*
X106101200Y-145524994D01*
X106103628Y-145495690D01*
X106074952Y-145382451D01*
X106011061Y-145284659D01*
X105918878Y-145212910D01*
X105808394Y-145174981D01*
X105720982Y-145174981D01*
X105634766Y-145189368D01*
X105532032Y-145244965D01*
X105452916Y-145330908D01*
X105405992Y-145437883D01*
X105396346Y-145554298D01*
X105367130Y-145554298D01*
X105396434Y-145524994D01*
X105396434Y-145524993D01*
X104812520Y-144941079D01*
X104810741Y-144943437D01*
X104719873Y-145125924D01*
X104719870Y-145125930D01*
X104664084Y-145322001D01*
X104664083Y-145322004D01*
X104645274Y-145524993D01*
X104645274Y-145524994D01*
X100200500Y-145524994D01*
X100200500Y-144590752D01*
X105169297Y-144590752D01*
X105749987Y-145171441D01*
X105749988Y-145171441D01*
X106330675Y-144590752D01*
X106330674Y-144590751D01*
X106242405Y-144536098D01*
X106242398Y-144536094D01*
X106052308Y-144462454D01*
X105851915Y-144424994D01*
X105648059Y-144424994D01*
X105447665Y-144462454D01*
X105257575Y-144536094D01*
X105257571Y-144536096D01*
X105169297Y-144590752D01*
X100200500Y-144590752D01*
X100200500Y-141609348D01*
X105169297Y-141609348D01*
X105169298Y-141609349D01*
X105257568Y-141664003D01*
X105257575Y-141664007D01*
X105447665Y-141737647D01*
X105648059Y-141775108D01*
X105851915Y-141775108D01*
X106052308Y-141737647D01*
X106242401Y-141664005D01*
X106330675Y-141609348D01*
X105749988Y-141028661D01*
X105749987Y-141028661D01*
X105169297Y-141609348D01*
X100200500Y-141609348D01*
X100200500Y-140675108D01*
X104645274Y-140675108D01*
X104664083Y-140878097D01*
X104664084Y-140878100D01*
X104719870Y-141074171D01*
X104719873Y-141074177D01*
X104810741Y-141256664D01*
X104810742Y-141256665D01*
X104812520Y-141259020D01*
X105367130Y-140704412D01*
X105396346Y-140704412D01*
X105425022Y-140817651D01*
X105488913Y-140915443D01*
X105581096Y-140987192D01*
X105691580Y-141025121D01*
X105778992Y-141025121D01*
X105865208Y-141010734D01*
X105967942Y-140955137D01*
X106047058Y-140869194D01*
X106093982Y-140762219D01*
X106101200Y-140675108D01*
X106103540Y-140675108D01*
X106654203Y-141225771D01*
X106687688Y-141287094D01*
X106687469Y-141330446D01*
X106688993Y-141330618D01*
X106669909Y-141499996D01*
X106669909Y-141500003D01*
X106688212Y-141662455D01*
X106742210Y-141816774D01*
X106742211Y-141816775D01*
X106829192Y-141955204D01*
X106944796Y-142070808D01*
X107083225Y-142157789D01*
X107237539Y-142211786D01*
X107237542Y-142211786D01*
X107237544Y-142211787D01*
X107399996Y-142230091D01*
X107400000Y-142230091D01*
X107400004Y-142230091D01*
X107562455Y-142211787D01*
X107562456Y-142211786D01*
X107562461Y-142211786D01*
X107716775Y-142157789D01*
X107855204Y-142070808D01*
X107970808Y-141955204D01*
X108057789Y-141816775D01*
X108111786Y-141662461D01*
X108111787Y-141662455D01*
X108130091Y-141500003D01*
X108130091Y-141499996D01*
X108111787Y-141337544D01*
X108111786Y-141337542D01*
X108111786Y-141337539D01*
X108057789Y-141183225D01*
X107970808Y-141044796D01*
X107855204Y-140929192D01*
X107763258Y-140871418D01*
X107716774Y-140842210D01*
X107562455Y-140788212D01*
X107400004Y-140769909D01*
X107399996Y-140769909D01*
X107237544Y-140788212D01*
X107083222Y-140842211D01*
X107036740Y-140871418D01*
X106969503Y-140890418D01*
X106902668Y-140870050D01*
X106857455Y-140816781D01*
X106847298Y-140754982D01*
X106854700Y-140675107D01*
X106835890Y-140472118D01*
X106835889Y-140472115D01*
X106780103Y-140276044D01*
X106780100Y-140276038D01*
X106689231Y-140093549D01*
X106687453Y-140091194D01*
X106687452Y-140091193D01*
X106103540Y-140675107D01*
X106103540Y-140675108D01*
X106101200Y-140675108D01*
X106103628Y-140645804D01*
X106074952Y-140532565D01*
X106011061Y-140434773D01*
X105918878Y-140363024D01*
X105808394Y-140325095D01*
X105720982Y-140325095D01*
X105634766Y-140339482D01*
X105532032Y-140395079D01*
X105452916Y-140481022D01*
X105405992Y-140587997D01*
X105396346Y-140704412D01*
X105367130Y-140704412D01*
X105396434Y-140675108D01*
X105396434Y-140675107D01*
X104812520Y-140091193D01*
X104807768Y-140091524D01*
X104761915Y-140125581D01*
X104752695Y-140126205D01*
X104754555Y-140128994D01*
X104755729Y-140198854D01*
X104747182Y-140221195D01*
X104719873Y-140276038D01*
X104719870Y-140276044D01*
X104664084Y-140472115D01*
X104664083Y-140472118D01*
X104645274Y-140675107D01*
X104645274Y-140675108D01*
X100200500Y-140675108D01*
X100200500Y-139750102D01*
X101526813Y-139750102D01*
X101539162Y-139816160D01*
X101539163Y-139816165D01*
X101616149Y-140014891D01*
X101616153Y-140014900D01*
X101728346Y-140196099D01*
X101728348Y-140196101D01*
X101871928Y-140353601D01*
X102042010Y-140482042D01*
X102232783Y-140577035D01*
X102232803Y-140577043D01*
X102437780Y-140635363D01*
X102437783Y-140635364D01*
X102596833Y-140650102D01*
X102850000Y-140650102D01*
X102850000Y-139850115D01*
X103350000Y-139850115D01*
X103350000Y-140650102D01*
X103603167Y-140650102D01*
X103762216Y-140635364D01*
X103762219Y-140635363D01*
X103967196Y-140577043D01*
X103967216Y-140577035D01*
X104157989Y-140482042D01*
X104328071Y-140353601D01*
X104471651Y-140196101D01*
X104471653Y-140196099D01*
X104530755Y-140100646D01*
X104582782Y-140054010D01*
X104605949Y-140050280D01*
X104597755Y-140035138D01*
X104603002Y-139965466D01*
X104603393Y-139964443D01*
X104660837Y-139816161D01*
X104660837Y-139816160D01*
X104673187Y-139750102D01*
X103745650Y-139750102D01*
X103754152Y-139740866D01*
X105169297Y-139740866D01*
X105749987Y-140321555D01*
X105749988Y-140321555D01*
X106330675Y-139740866D01*
X106330674Y-139740865D01*
X106242405Y-139686212D01*
X106242398Y-139686208D01*
X106052308Y-139612568D01*
X105851915Y-139575108D01*
X105648059Y-139575108D01*
X105447665Y-139612568D01*
X105257575Y-139686208D01*
X105257571Y-139686210D01*
X105169297Y-139740866D01*
X103754152Y-139740866D01*
X103797122Y-139694188D01*
X103844046Y-139587213D01*
X103853692Y-139470798D01*
X103825016Y-139357559D01*
X103761125Y-139259767D01*
X103748707Y-139250102D01*
X104673187Y-139250102D01*
X104660837Y-139184043D01*
X104660836Y-139184038D01*
X104583850Y-138985312D01*
X104583846Y-138985303D01*
X104471653Y-138804104D01*
X104471651Y-138804102D01*
X104328071Y-138646602D01*
X104157989Y-138518161D01*
X103967216Y-138423168D01*
X103967196Y-138423160D01*
X103762219Y-138364840D01*
X103762216Y-138364839D01*
X103603167Y-138350102D01*
X103350000Y-138350102D01*
X103350000Y-139150089D01*
X102850000Y-139150089D01*
X102850000Y-138350102D01*
X102596833Y-138350102D01*
X102437783Y-138364839D01*
X102437780Y-138364840D01*
X102232803Y-138423160D01*
X102232783Y-138423168D01*
X102042010Y-138518161D01*
X101871928Y-138646602D01*
X101728348Y-138804102D01*
X101728346Y-138804104D01*
X101616153Y-138985303D01*
X101616149Y-138985312D01*
X101539163Y-139184038D01*
X101539162Y-139184043D01*
X101526813Y-139250102D01*
X102454350Y-139250102D01*
X102402878Y-139306016D01*
X102355954Y-139412991D01*
X102346308Y-139529406D01*
X102374984Y-139642645D01*
X102438875Y-139740437D01*
X102451293Y-139750102D01*
X101526813Y-139750102D01*
X100200500Y-139750102D01*
X100200500Y-132700000D01*
X120429612Y-132700000D01*
X120449091Y-132860434D01*
X120506400Y-133011545D01*
X120506401Y-133011545D01*
X120598207Y-133144549D01*
X120719176Y-133251719D01*
X120862277Y-133326824D01*
X121019194Y-133365500D01*
X121180806Y-133365500D01*
X121337723Y-133326824D01*
X121480824Y-133251719D01*
X121601793Y-133144549D01*
X121693599Y-133011545D01*
X121750908Y-132860434D01*
X121770388Y-132700000D01*
X121750908Y-132539566D01*
X121693599Y-132388455D01*
X121601793Y-132255451D01*
X121480824Y-132148281D01*
X121467276Y-132141170D01*
X121337722Y-132073175D01*
X121180806Y-132034500D01*
X121019194Y-132034500D01*
X120862277Y-132073175D01*
X120719177Y-132148280D01*
X120598207Y-132255450D01*
X120598205Y-132255453D01*
X120506402Y-132388453D01*
X120506401Y-132388454D01*
X120449091Y-132539565D01*
X120429612Y-132699999D01*
X120429612Y-132700000D01*
X100200500Y-132700000D01*
X100200500Y-130198596D01*
X109486664Y-130198596D01*
X109516059Y-130390480D01*
X109516061Y-130390488D01*
X109583484Y-130572536D01*
X109686173Y-130737284D01*
X109819923Y-130877990D01*
X109979260Y-130988891D01*
X110157658Y-131065448D01*
X110347816Y-131104526D01*
X110493295Y-131104526D01*
X110638019Y-131089809D01*
X110823237Y-131031696D01*
X110823238Y-131031695D01*
X110823246Y-131031693D01*
X110992985Y-130937481D01*
X111140284Y-130811029D01*
X111259113Y-130657514D01*
X111344607Y-130483222D01*
X111393267Y-130295287D01*
X111403100Y-130101405D01*
X111373703Y-129909512D01*
X111306280Y-129727464D01*
X111203591Y-129562716D01*
X111069841Y-129422010D01*
X110910504Y-129311109D01*
X110910505Y-129311109D01*
X110910503Y-129311108D01*
X110732106Y-129234552D01*
X110541948Y-129195474D01*
X110396470Y-129195474D01*
X110396469Y-129195474D01*
X110251744Y-129210190D01*
X110066526Y-129268303D01*
X110066511Y-129268310D01*
X109896781Y-129362517D01*
X109896776Y-129362520D01*
X109749480Y-129488969D01*
X109749479Y-129488970D01*
X109630653Y-129642482D01*
X109545155Y-129816781D01*
X109496498Y-130004704D01*
X109496497Y-130004710D01*
X109486664Y-130198596D01*
X100200500Y-130198596D01*
X100200500Y-125198596D01*
X109486664Y-125198596D01*
X109516059Y-125390480D01*
X109516061Y-125390488D01*
X109583484Y-125572536D01*
X109686173Y-125737284D01*
X109819923Y-125877990D01*
X109979260Y-125988891D01*
X110157658Y-126065448D01*
X110347816Y-126104526D01*
X110493295Y-126104526D01*
X110638019Y-126089809D01*
X110823237Y-126031696D01*
X110823238Y-126031695D01*
X110823246Y-126031693D01*
X110992985Y-125937481D01*
X111140284Y-125811029D01*
X111259113Y-125657514D01*
X111344607Y-125483222D01*
X111393267Y-125295287D01*
X111403100Y-125101405D01*
X111373703Y-124909512D01*
X111306280Y-124727464D01*
X111203591Y-124562716D01*
X111069841Y-124422010D01*
X110910504Y-124311109D01*
X110910505Y-124311109D01*
X110910503Y-124311108D01*
X110732106Y-124234552D01*
X110541948Y-124195474D01*
X110396470Y-124195474D01*
X110396469Y-124195474D01*
X110251744Y-124210190D01*
X110066526Y-124268303D01*
X110066511Y-124268310D01*
X109896781Y-124362517D01*
X109896776Y-124362520D01*
X109749480Y-124488969D01*
X109749479Y-124488970D01*
X109630653Y-124642482D01*
X109545155Y-124816781D01*
X109496498Y-125004704D01*
X109496497Y-125004710D01*
X109486664Y-125198596D01*
X100200500Y-125198596D01*
X100200500Y-123100003D01*
X107769909Y-123100003D01*
X107788212Y-123262455D01*
X107842210Y-123416774D01*
X107842211Y-123416775D01*
X107929192Y-123555204D01*
X108044796Y-123670808D01*
X108183225Y-123757789D01*
X108337539Y-123811786D01*
X108337542Y-123811786D01*
X108337544Y-123811787D01*
X108499996Y-123830091D01*
X108500000Y-123830091D01*
X108500004Y-123830091D01*
X108662455Y-123811787D01*
X108662456Y-123811786D01*
X108662461Y-123811786D01*
X108816775Y-123757789D01*
X108955204Y-123670808D01*
X109070808Y-123555204D01*
X109157789Y-123416775D01*
X109211786Y-123262461D01*
X109230091Y-123100000D01*
X109211786Y-122937539D01*
X109157789Y-122783225D01*
X109070808Y-122644796D01*
X108955204Y-122529192D01*
X108955204Y-122529191D01*
X108816774Y-122442210D01*
X108662455Y-122388212D01*
X108500004Y-122369909D01*
X108499996Y-122369909D01*
X108337544Y-122388212D01*
X108183225Y-122442210D01*
X108044795Y-122529192D01*
X107929192Y-122644795D01*
X107842210Y-122783225D01*
X107788212Y-122937544D01*
X107769909Y-123099996D01*
X107769909Y-123100003D01*
X100200500Y-123100003D01*
X100200500Y-116570041D01*
X101545082Y-116570041D01*
X101545379Y-116571987D01*
X101545381Y-116571993D01*
X101616010Y-116762698D01*
X101616013Y-116762705D01*
X101723597Y-116935308D01*
X101863712Y-117082709D01*
X101863714Y-117082710D01*
X102030643Y-117198897D01*
X102217540Y-117279100D01*
X102416758Y-117320041D01*
X102668448Y-117320041D01*
X102668448Y-116620041D01*
X103168448Y-116620041D01*
X103168447Y-117320040D01*
X103168448Y-117320041D01*
X103369161Y-117320041D01*
X103520786Y-117304622D01*
X103714829Y-117243741D01*
X103714839Y-117243736D01*
X103892663Y-117145035D01*
X103892664Y-117145035D01*
X104046978Y-117012562D01*
X104046979Y-117012561D01*
X104171466Y-116851736D01*
X104261036Y-116669134D01*
X104286694Y-116570041D01*
X105575168Y-116570041D01*
X105575465Y-116571987D01*
X105575467Y-116571993D01*
X105646096Y-116762698D01*
X105646099Y-116762705D01*
X105753683Y-116935308D01*
X105893798Y-117082709D01*
X105893800Y-117082710D01*
X106060729Y-117198897D01*
X106247626Y-117279100D01*
X106446844Y-117320041D01*
X106848534Y-117320041D01*
X106848534Y-116620041D01*
X107348534Y-116620041D01*
X107348534Y-117320041D01*
X107699247Y-117320041D01*
X107850872Y-117304622D01*
X108044915Y-117243741D01*
X108044925Y-117243736D01*
X108222749Y-117145035D01*
X108222750Y-117145035D01*
X108377064Y-117012562D01*
X108377065Y-117012561D01*
X108501552Y-116851736D01*
X108591122Y-116669134D01*
X108609023Y-116600000D01*
X119829612Y-116600000D01*
X119849091Y-116760434D01*
X119883718Y-116851736D01*
X119906401Y-116911545D01*
X119998207Y-117044549D01*
X120119176Y-117151719D01*
X120262277Y-117226824D01*
X120419194Y-117265500D01*
X120580806Y-117265500D01*
X120737723Y-117226824D01*
X120880824Y-117151719D01*
X121001793Y-117044549D01*
X121093599Y-116911545D01*
X121150908Y-116760434D01*
X121170388Y-116600000D01*
X121150908Y-116439566D01*
X121137253Y-116403562D01*
X121094898Y-116291881D01*
X121093599Y-116288455D01*
X121001793Y-116155451D01*
X120880824Y-116048281D01*
X120827017Y-116020041D01*
X120737722Y-115973175D01*
X120580806Y-115934500D01*
X120419194Y-115934500D01*
X120262277Y-115973175D01*
X120119177Y-116048280D01*
X119998207Y-116155450D01*
X119998205Y-116155453D01*
X119906402Y-116288453D01*
X119906401Y-116288454D01*
X119849091Y-116439565D01*
X119829612Y-116599999D01*
X119829612Y-116600000D01*
X108609023Y-116600000D01*
X108616780Y-116570041D01*
X107814645Y-116570041D01*
X107854144Y-116545584D01*
X107921735Y-116456079D01*
X107952429Y-116348201D01*
X107942080Y-116236520D01*
X107892086Y-116136119D01*
X107819603Y-116070041D01*
X108621900Y-116070041D01*
X108621602Y-116068094D01*
X108621600Y-116068088D01*
X108550971Y-115877383D01*
X108550968Y-115877376D01*
X108443384Y-115704773D01*
X108303269Y-115557372D01*
X108303267Y-115557371D01*
X108136338Y-115441184D01*
X107949441Y-115360981D01*
X107750224Y-115320041D01*
X107233358Y-115320041D01*
X107166319Y-115300356D01*
X107120564Y-115247552D01*
X107110620Y-115178394D01*
X107118797Y-115148588D01*
X107126459Y-115130091D01*
X107163239Y-115041296D01*
X107183155Y-114890018D01*
X107163239Y-114738740D01*
X107104848Y-114597771D01*
X107011961Y-114476718D01*
X106911984Y-114400003D01*
X108269909Y-114400003D01*
X108288212Y-114562455D01*
X108342210Y-114716774D01*
X108356013Y-114738741D01*
X108429192Y-114855204D01*
X108544796Y-114970808D01*
X108683225Y-115057789D01*
X108837539Y-115111786D01*
X108837542Y-115111786D01*
X108837544Y-115111787D01*
X108999996Y-115130091D01*
X109000000Y-115130091D01*
X109000004Y-115130091D01*
X109162455Y-115111787D01*
X109162456Y-115111786D01*
X109162461Y-115111786D01*
X109316775Y-115057789D01*
X109455204Y-114970808D01*
X109570808Y-114855204D01*
X109657789Y-114716775D01*
X109711786Y-114562461D01*
X109730091Y-114400000D01*
X109728269Y-114383831D01*
X109711787Y-114237544D01*
X109711786Y-114237542D01*
X109711786Y-114237539D01*
X109657789Y-114083225D01*
X109570808Y-113944796D01*
X109455204Y-113829192D01*
X109316774Y-113742210D01*
X109162455Y-113688212D01*
X109000004Y-113669909D01*
X108999996Y-113669909D01*
X108837544Y-113688212D01*
X108683225Y-113742210D01*
X108544795Y-113829192D01*
X108429192Y-113944795D01*
X108342210Y-114083225D01*
X108288212Y-114237544D01*
X108269909Y-114399996D01*
X108269909Y-114400003D01*
X106911984Y-114400003D01*
X106890908Y-114383831D01*
X106890907Y-114383830D01*
X106890905Y-114383829D01*
X106749942Y-114325441D01*
X106749940Y-114325440D01*
X106749939Y-114325440D01*
X106735776Y-114323575D01*
X106636647Y-114310524D01*
X106636640Y-114310524D01*
X106560682Y-114310524D01*
X106560674Y-114310524D01*
X106447383Y-114325440D01*
X106447379Y-114325441D01*
X106306416Y-114383829D01*
X106185361Y-114476718D01*
X106092472Y-114597773D01*
X106034084Y-114738736D01*
X106034082Y-114738741D01*
X106014167Y-114890016D01*
X106014167Y-114890019D01*
X106034082Y-115041294D01*
X106034084Y-115041299D01*
X106092473Y-115182264D01*
X106137943Y-115241522D01*
X106163137Y-115306691D01*
X106149099Y-115375136D01*
X106100285Y-115425125D01*
X106099746Y-115425426D01*
X105974322Y-115495043D01*
X105974317Y-115495046D01*
X105820003Y-115627519D01*
X105820002Y-115627520D01*
X105695515Y-115788345D01*
X105605945Y-115970947D01*
X105580288Y-116070041D01*
X106382423Y-116070041D01*
X106342924Y-116094498D01*
X106275333Y-116184003D01*
X106244639Y-116291881D01*
X106254988Y-116403562D01*
X106304982Y-116503963D01*
X106377465Y-116570041D01*
X105575168Y-116570041D01*
X104286694Y-116570041D01*
X103484559Y-116570041D01*
X103524058Y-116545584D01*
X103591649Y-116456079D01*
X103622343Y-116348201D01*
X103611994Y-116236520D01*
X103562000Y-116136119D01*
X103489517Y-116070041D01*
X104291814Y-116070041D01*
X104291516Y-116068094D01*
X104291514Y-116068088D01*
X104220885Y-115877383D01*
X104220882Y-115877376D01*
X104113298Y-115704773D01*
X103973183Y-115557372D01*
X103973181Y-115557371D01*
X103806252Y-115441184D01*
X103619355Y-115360981D01*
X103420138Y-115320041D01*
X103168448Y-115320041D01*
X103168447Y-116020041D01*
X102668448Y-116020041D01*
X102668448Y-115320041D01*
X102467735Y-115320041D01*
X102316109Y-115335459D01*
X102122066Y-115396340D01*
X102122056Y-115396345D01*
X101944232Y-115495046D01*
X101944231Y-115495046D01*
X101789917Y-115627519D01*
X101789916Y-115627520D01*
X101665429Y-115788345D01*
X101575859Y-115970947D01*
X101550202Y-116070041D01*
X102352337Y-116070041D01*
X102312838Y-116094498D01*
X102245247Y-116184003D01*
X102214553Y-116291881D01*
X102224902Y-116403562D01*
X102274896Y-116503963D01*
X102347379Y-116570041D01*
X101545082Y-116570041D01*
X100200500Y-116570041D01*
X100200500Y-110900003D01*
X108969909Y-110900003D01*
X108988212Y-111062455D01*
X109042210Y-111216774D01*
X109042211Y-111216775D01*
X109129192Y-111355204D01*
X109244796Y-111470808D01*
X109383225Y-111557789D01*
X109537539Y-111611786D01*
X109537542Y-111611786D01*
X109537544Y-111611787D01*
X109699996Y-111630091D01*
X109700000Y-111630091D01*
X109700004Y-111630091D01*
X109862455Y-111611787D01*
X109862456Y-111611786D01*
X109862461Y-111611786D01*
X110016775Y-111557789D01*
X110155204Y-111470808D01*
X110270808Y-111355204D01*
X110357789Y-111216775D01*
X110411786Y-111062461D01*
X110430091Y-110900000D01*
X110411786Y-110737539D01*
X110357789Y-110583225D01*
X110270808Y-110444796D01*
X110155204Y-110329192D01*
X110016774Y-110242210D01*
X109862455Y-110188212D01*
X109700004Y-110169909D01*
X109699996Y-110169909D01*
X109537544Y-110188212D01*
X109383225Y-110242210D01*
X109244795Y-110329192D01*
X109129192Y-110444795D01*
X109042210Y-110583225D01*
X108988212Y-110737544D01*
X108969909Y-110899996D01*
X108969909Y-110900003D01*
X100200500Y-110900003D01*
X100200500Y-107929960D01*
X101545082Y-107929960D01*
X101545379Y-107931906D01*
X101545381Y-107931912D01*
X101616010Y-108122617D01*
X101616013Y-108122624D01*
X101723597Y-108295227D01*
X101863712Y-108442628D01*
X101863714Y-108442629D01*
X102030643Y-108558816D01*
X102217540Y-108639019D01*
X102416758Y-108679960D01*
X102668448Y-108679960D01*
X102668448Y-107979960D01*
X103168448Y-107979960D01*
X103168447Y-108679959D01*
X103168448Y-108679960D01*
X103369161Y-108679960D01*
X103520786Y-108664541D01*
X103714829Y-108603660D01*
X103714839Y-108603655D01*
X103892663Y-108504954D01*
X103892664Y-108504954D01*
X104046978Y-108372481D01*
X104046979Y-108372480D01*
X104171466Y-108211655D01*
X104261036Y-108029053D01*
X104286694Y-107929960D01*
X105575168Y-107929960D01*
X105575465Y-107931906D01*
X105575467Y-107931912D01*
X105646096Y-108122617D01*
X105646099Y-108122624D01*
X105753683Y-108295227D01*
X105893798Y-108442628D01*
X105893800Y-108442629D01*
X106060728Y-108558815D01*
X106081778Y-108567848D01*
X106135622Y-108612374D01*
X106156847Y-108678942D01*
X106138713Y-108746417D01*
X106131257Y-108757285D01*
X106092473Y-108807830D01*
X106034084Y-108948795D01*
X106034082Y-108948800D01*
X106014167Y-109100075D01*
X106014167Y-109100078D01*
X106034082Y-109251353D01*
X106034084Y-109251358D01*
X106092472Y-109392321D01*
X106092473Y-109392323D01*
X106092474Y-109392324D01*
X106185361Y-109513377D01*
X106306414Y-109606264D01*
X106447383Y-109664655D01*
X106560682Y-109679571D01*
X106560689Y-109679571D01*
X106636633Y-109679571D01*
X106636640Y-109679571D01*
X106749939Y-109664655D01*
X106890908Y-109606264D01*
X107011961Y-109513377D01*
X107104848Y-109392324D01*
X107163239Y-109251355D01*
X107183155Y-109100077D01*
X107163239Y-108948799D01*
X107122899Y-108851411D01*
X107115431Y-108781943D01*
X107146706Y-108719464D01*
X107206795Y-108683812D01*
X107237461Y-108679960D01*
X107699247Y-108679960D01*
X107850872Y-108664541D01*
X107897208Y-108650003D01*
X123019909Y-108650003D01*
X123038212Y-108812455D01*
X123092210Y-108966774D01*
X123092211Y-108966775D01*
X123179192Y-109105204D01*
X123294796Y-109220808D01*
X123433225Y-109307789D01*
X123587539Y-109361786D01*
X123587542Y-109361786D01*
X123587544Y-109361787D01*
X123749996Y-109380091D01*
X123750000Y-109380091D01*
X123750004Y-109380091D01*
X123912455Y-109361787D01*
X123912456Y-109361786D01*
X123912461Y-109361786D01*
X124066775Y-109307789D01*
X124205204Y-109220808D01*
X124320808Y-109105204D01*
X124407789Y-108966775D01*
X124461786Y-108812461D01*
X124468003Y-108757285D01*
X124480091Y-108650003D01*
X124480091Y-108649996D01*
X124461787Y-108487544D01*
X124461786Y-108487542D01*
X124461786Y-108487539D01*
X124407789Y-108333225D01*
X124320808Y-108194796D01*
X124205204Y-108079192D01*
X124125409Y-108029053D01*
X124066774Y-107992210D01*
X123912455Y-107938212D01*
X123750004Y-107919909D01*
X123749996Y-107919909D01*
X123587544Y-107938212D01*
X123433225Y-107992210D01*
X123294795Y-108079192D01*
X123179192Y-108194795D01*
X123092210Y-108333225D01*
X123038212Y-108487544D01*
X123019909Y-108649996D01*
X123019909Y-108650003D01*
X107897208Y-108650003D01*
X108044915Y-108603660D01*
X108044925Y-108603655D01*
X108222749Y-108504954D01*
X108222750Y-108504954D01*
X108377064Y-108372481D01*
X108377065Y-108372480D01*
X108501552Y-108211655D01*
X108591122Y-108029053D01*
X108616780Y-107929960D01*
X107814645Y-107929960D01*
X107854144Y-107905503D01*
X107921735Y-107815998D01*
X107952429Y-107708120D01*
X107942080Y-107596439D01*
X107892086Y-107496038D01*
X107819603Y-107429960D01*
X108621900Y-107429960D01*
X108621602Y-107428013D01*
X108621600Y-107428007D01*
X108550971Y-107237302D01*
X108550968Y-107237295D01*
X108443384Y-107064692D01*
X108303269Y-106917291D01*
X108303267Y-106917290D01*
X108136338Y-106801103D01*
X107949441Y-106720900D01*
X107750224Y-106679960D01*
X107348534Y-106679960D01*
X107348534Y-107379960D01*
X106848534Y-107379960D01*
X106848534Y-106679960D01*
X106497821Y-106679960D01*
X106346195Y-106695378D01*
X106152152Y-106756259D01*
X106152142Y-106756264D01*
X105974318Y-106854965D01*
X105974317Y-106854965D01*
X105820003Y-106987438D01*
X105820002Y-106987439D01*
X105695515Y-107148264D01*
X105605945Y-107330866D01*
X105580288Y-107429960D01*
X106382423Y-107429960D01*
X106342924Y-107454417D01*
X106275333Y-107543922D01*
X106244639Y-107651800D01*
X106254988Y-107763481D01*
X106304982Y-107863882D01*
X106377465Y-107929960D01*
X105575168Y-107929960D01*
X104286694Y-107929960D01*
X103484559Y-107929960D01*
X103524058Y-107905503D01*
X103591649Y-107815998D01*
X103622343Y-107708120D01*
X103611994Y-107596439D01*
X103562000Y-107496038D01*
X103489517Y-107429960D01*
X104291814Y-107429960D01*
X104291516Y-107428013D01*
X104291514Y-107428007D01*
X104220885Y-107237302D01*
X104220882Y-107237295D01*
X104113298Y-107064692D01*
X103973183Y-106917291D01*
X103973181Y-106917290D01*
X103806252Y-106801103D01*
X103619355Y-106720900D01*
X103420138Y-106679960D01*
X103168448Y-106679960D01*
X103168447Y-107379960D01*
X102668448Y-107379960D01*
X102668448Y-106679960D01*
X102467735Y-106679960D01*
X102316109Y-106695378D01*
X102122066Y-106756259D01*
X102122056Y-106756264D01*
X101944232Y-106854965D01*
X101944231Y-106854965D01*
X101789917Y-106987438D01*
X101789916Y-106987439D01*
X101665429Y-107148264D01*
X101575859Y-107330866D01*
X101550202Y-107429960D01*
X102352337Y-107429960D01*
X102312838Y-107454417D01*
X102245247Y-107543922D01*
X102214553Y-107651800D01*
X102224902Y-107763481D01*
X102274896Y-107863882D01*
X102347379Y-107929960D01*
X101545082Y-107929960D01*
X100200500Y-107929960D01*
X100200500Y-103900003D01*
X103019909Y-103900003D01*
X103038212Y-104062455D01*
X103092210Y-104216774D01*
X103092211Y-104216775D01*
X103179192Y-104355204D01*
X103294796Y-104470808D01*
X103433225Y-104557789D01*
X103587539Y-104611786D01*
X103587542Y-104611786D01*
X103587544Y-104611787D01*
X103749996Y-104630091D01*
X103750000Y-104630091D01*
X103750004Y-104630091D01*
X103912455Y-104611787D01*
X103912456Y-104611786D01*
X103912461Y-104611786D01*
X104066775Y-104557789D01*
X104184027Y-104484114D01*
X104251265Y-104465114D01*
X104315972Y-104484114D01*
X104433225Y-104557789D01*
X104587539Y-104611786D01*
X104587542Y-104611786D01*
X104587544Y-104611787D01*
X104749996Y-104630091D01*
X104750000Y-104630091D01*
X104750004Y-104630091D01*
X104912455Y-104611787D01*
X104912456Y-104611786D01*
X104912461Y-104611786D01*
X105066775Y-104557789D01*
X105184027Y-104484114D01*
X105251265Y-104465114D01*
X105315972Y-104484114D01*
X105433225Y-104557789D01*
X105587539Y-104611786D01*
X105587542Y-104611786D01*
X105587544Y-104611787D01*
X105749996Y-104630091D01*
X105750000Y-104630091D01*
X105750004Y-104630091D01*
X105912455Y-104611787D01*
X105912456Y-104611786D01*
X105912461Y-104611786D01*
X106066775Y-104557789D01*
X106184027Y-104484114D01*
X106251265Y-104465114D01*
X106315972Y-104484114D01*
X106433225Y-104557789D01*
X106587539Y-104611786D01*
X106587542Y-104611786D01*
X106587544Y-104611787D01*
X106749996Y-104630091D01*
X106750000Y-104630091D01*
X106750004Y-104630091D01*
X106912455Y-104611787D01*
X106912456Y-104611786D01*
X106912461Y-104611786D01*
X107066775Y-104557789D01*
X107184026Y-104484114D01*
X107251263Y-104465114D01*
X107315971Y-104484114D01*
X107433223Y-104557788D01*
X107433225Y-104557789D01*
X107587539Y-104611786D01*
X107587542Y-104611786D01*
X107587544Y-104611787D01*
X107749996Y-104630091D01*
X107750000Y-104630091D01*
X107750004Y-104630091D01*
X107912455Y-104611787D01*
X107912456Y-104611786D01*
X107912461Y-104611786D01*
X108066775Y-104557789D01*
X108184027Y-104484114D01*
X108251265Y-104465114D01*
X108315972Y-104484114D01*
X108433225Y-104557789D01*
X108587539Y-104611786D01*
X108587542Y-104611786D01*
X108587544Y-104611787D01*
X108749996Y-104630091D01*
X108750000Y-104630091D01*
X108750004Y-104630091D01*
X108912455Y-104611787D01*
X108912456Y-104611786D01*
X108912461Y-104611786D01*
X109066775Y-104557789D01*
X109205204Y-104470808D01*
X109320808Y-104355204D01*
X109320808Y-104355203D01*
X109325732Y-104350280D01*
X109326845Y-104351393D01*
X109377207Y-104316033D01*
X109447018Y-104313171D01*
X109457936Y-104316435D01*
X109587539Y-104361786D01*
X109587543Y-104361786D01*
X109587545Y-104361787D01*
X109749996Y-104380091D01*
X109750000Y-104380091D01*
X109750004Y-104380091D01*
X109912455Y-104361787D01*
X109912456Y-104361786D01*
X109912461Y-104361786D01*
X110066775Y-104307789D01*
X110184028Y-104234113D01*
X110251264Y-104215113D01*
X110315971Y-104234113D01*
X110433225Y-104307789D01*
X110587539Y-104361786D01*
X110587542Y-104361786D01*
X110587544Y-104361787D01*
X110749996Y-104380091D01*
X110750000Y-104380091D01*
X110750004Y-104380091D01*
X110912455Y-104361787D01*
X110912456Y-104361786D01*
X110912461Y-104361786D01*
X111066775Y-104307789D01*
X111184029Y-104234113D01*
X111251262Y-104215113D01*
X111315970Y-104234112D01*
X111433225Y-104307789D01*
X111587539Y-104361786D01*
X111587542Y-104361786D01*
X111587544Y-104361787D01*
X111749996Y-104380091D01*
X111750000Y-104380091D01*
X111750004Y-104380091D01*
X111912455Y-104361787D01*
X111912456Y-104361786D01*
X111912461Y-104361786D01*
X112066775Y-104307789D01*
X112184028Y-104234113D01*
X112251264Y-104215113D01*
X112315971Y-104234113D01*
X112433225Y-104307789D01*
X112587539Y-104361786D01*
X112587542Y-104361786D01*
X112587544Y-104361787D01*
X112749996Y-104380091D01*
X112750000Y-104380091D01*
X112750004Y-104380091D01*
X112912455Y-104361787D01*
X112912456Y-104361786D01*
X112912461Y-104361786D01*
X113066775Y-104307789D01*
X113184028Y-104234113D01*
X113251264Y-104215113D01*
X113315971Y-104234113D01*
X113433225Y-104307789D01*
X113587539Y-104361786D01*
X113587542Y-104361786D01*
X113587544Y-104361787D01*
X113749996Y-104380091D01*
X113750000Y-104380091D01*
X113750004Y-104380091D01*
X113912455Y-104361787D01*
X113912456Y-104361786D01*
X113912461Y-104361786D01*
X114066775Y-104307789D01*
X114184029Y-104234113D01*
X114251262Y-104215113D01*
X114315970Y-104234112D01*
X114433225Y-104307789D01*
X114587539Y-104361786D01*
X114587542Y-104361786D01*
X114587544Y-104361787D01*
X114749996Y-104380091D01*
X114750000Y-104380091D01*
X114750004Y-104380091D01*
X114912455Y-104361787D01*
X114912456Y-104361786D01*
X114912461Y-104361786D01*
X115066775Y-104307789D01*
X115184028Y-104234113D01*
X115251264Y-104215113D01*
X115315971Y-104234113D01*
X115433225Y-104307789D01*
X115587539Y-104361786D01*
X115587542Y-104361786D01*
X115587544Y-104361787D01*
X115749996Y-104380091D01*
X115750000Y-104380091D01*
X115750004Y-104380091D01*
X115912455Y-104361787D01*
X115912456Y-104361786D01*
X115912461Y-104361786D01*
X116066775Y-104307789D01*
X116184028Y-104234113D01*
X116251264Y-104215113D01*
X116315971Y-104234113D01*
X116433225Y-104307789D01*
X116587539Y-104361786D01*
X116587542Y-104361786D01*
X116587544Y-104361787D01*
X116749996Y-104380091D01*
X116750000Y-104380091D01*
X116750004Y-104380091D01*
X116912455Y-104361787D01*
X116912456Y-104361786D01*
X116912461Y-104361786D01*
X117066775Y-104307789D01*
X117205204Y-104220808D01*
X117320808Y-104105204D01*
X117407789Y-103966775D01*
X117461786Y-103812461D01*
X117480091Y-103650003D01*
X118519909Y-103650003D01*
X118538212Y-103812455D01*
X118592210Y-103966774D01*
X118592211Y-103966775D01*
X118679192Y-104105204D01*
X118794796Y-104220808D01*
X118933225Y-104307789D01*
X119087539Y-104361786D01*
X119087542Y-104361786D01*
X119087544Y-104361787D01*
X119249996Y-104380091D01*
X119250000Y-104380091D01*
X119250004Y-104380091D01*
X119412455Y-104361787D01*
X119412456Y-104361786D01*
X119412461Y-104361786D01*
X119566775Y-104307789D01*
X119684029Y-104234113D01*
X119751262Y-104215113D01*
X119815970Y-104234112D01*
X119933225Y-104307789D01*
X120087539Y-104361786D01*
X120087542Y-104361786D01*
X120087544Y-104361787D01*
X120249996Y-104380091D01*
X120250000Y-104380091D01*
X120250004Y-104380091D01*
X120412455Y-104361787D01*
X120412456Y-104361786D01*
X120412461Y-104361786D01*
X120566775Y-104307789D01*
X120684028Y-104234113D01*
X120751264Y-104215113D01*
X120815971Y-104234113D01*
X120933225Y-104307789D01*
X121087539Y-104361786D01*
X121087542Y-104361786D01*
X121087544Y-104361787D01*
X121249996Y-104380091D01*
X121250000Y-104380091D01*
X121250004Y-104380091D01*
X121412455Y-104361787D01*
X121412456Y-104361786D01*
X121412461Y-104361786D01*
X121566775Y-104307789D01*
X121705204Y-104220808D01*
X121820808Y-104105204D01*
X121907789Y-103966775D01*
X121961786Y-103812461D01*
X121980091Y-103650000D01*
X121972567Y-103583225D01*
X121961787Y-103487544D01*
X121961786Y-103487542D01*
X121961786Y-103487539D01*
X121907789Y-103333225D01*
X121820808Y-103194796D01*
X121705204Y-103079192D01*
X121684026Y-103065885D01*
X121566774Y-102992210D01*
X121412455Y-102938212D01*
X121250004Y-102919909D01*
X121249996Y-102919909D01*
X121087544Y-102938212D01*
X120933225Y-102992210D01*
X120815971Y-103065886D01*
X120748734Y-103084886D01*
X120684026Y-103065885D01*
X120566776Y-102992211D01*
X120412455Y-102938212D01*
X120250004Y-102919909D01*
X120249996Y-102919909D01*
X120087544Y-102938212D01*
X119933225Y-102992210D01*
X119815972Y-103065886D01*
X119748735Y-103084886D01*
X119684028Y-103065886D01*
X119566774Y-102992210D01*
X119412455Y-102938212D01*
X119250004Y-102919909D01*
X119249996Y-102919909D01*
X119087544Y-102938212D01*
X118933225Y-102992210D01*
X118794795Y-103079192D01*
X118679192Y-103194795D01*
X118592210Y-103333225D01*
X118538212Y-103487544D01*
X118519909Y-103649996D01*
X118519909Y-103650003D01*
X117480091Y-103650003D01*
X117480091Y-103650000D01*
X117472567Y-103583225D01*
X117461787Y-103487544D01*
X117461786Y-103487542D01*
X117461786Y-103487539D01*
X117407789Y-103333225D01*
X117320808Y-103194796D01*
X117205204Y-103079192D01*
X117184026Y-103065885D01*
X117066774Y-102992210D01*
X116912455Y-102938212D01*
X116750004Y-102919909D01*
X116749996Y-102919909D01*
X116587544Y-102938212D01*
X116433225Y-102992210D01*
X116315972Y-103065886D01*
X116248735Y-103084886D01*
X116184028Y-103065886D01*
X116066774Y-102992210D01*
X115912455Y-102938212D01*
X115750004Y-102919909D01*
X115749996Y-102919909D01*
X115587544Y-102938212D01*
X115433225Y-102992210D01*
X115315971Y-103065886D01*
X115248734Y-103084886D01*
X115184026Y-103065885D01*
X115066776Y-102992211D01*
X114912455Y-102938212D01*
X114750004Y-102919909D01*
X114749996Y-102919909D01*
X114587544Y-102938212D01*
X114433225Y-102992210D01*
X114315972Y-103065886D01*
X114248735Y-103084886D01*
X114184028Y-103065886D01*
X114066774Y-102992210D01*
X113912455Y-102938212D01*
X113750004Y-102919909D01*
X113749996Y-102919909D01*
X113587544Y-102938212D01*
X113433225Y-102992210D01*
X113315972Y-103065886D01*
X113248735Y-103084886D01*
X113184028Y-103065886D01*
X113066774Y-102992210D01*
X112912455Y-102938212D01*
X112750004Y-102919909D01*
X112749996Y-102919909D01*
X112587544Y-102938212D01*
X112433225Y-102992210D01*
X112315972Y-103065886D01*
X112248735Y-103084886D01*
X112184028Y-103065886D01*
X112066774Y-102992210D01*
X111912455Y-102938212D01*
X111750004Y-102919909D01*
X111749996Y-102919909D01*
X111587544Y-102938212D01*
X111433225Y-102992210D01*
X111315971Y-103065886D01*
X111248734Y-103084886D01*
X111184026Y-103065885D01*
X111066776Y-102992211D01*
X110912455Y-102938212D01*
X110750004Y-102919909D01*
X110749996Y-102919909D01*
X110587544Y-102938212D01*
X110433225Y-102992210D01*
X110315971Y-103065886D01*
X110248734Y-103084886D01*
X110184026Y-103065885D01*
X110066776Y-102992211D01*
X109912455Y-102938212D01*
X109750004Y-102919909D01*
X109749996Y-102919909D01*
X109587544Y-102938212D01*
X109433225Y-102992210D01*
X109294795Y-103079192D01*
X109174268Y-103199720D01*
X109173157Y-103198609D01*
X109122763Y-103233976D01*
X109052952Y-103236821D01*
X109042059Y-103233562D01*
X108912455Y-103188212D01*
X108750004Y-103169909D01*
X108749996Y-103169909D01*
X108587544Y-103188212D01*
X108433225Y-103242210D01*
X108315972Y-103315886D01*
X108248735Y-103334886D01*
X108184028Y-103315886D01*
X108066774Y-103242210D01*
X107912455Y-103188212D01*
X107750004Y-103169909D01*
X107749996Y-103169909D01*
X107587544Y-103188212D01*
X107433225Y-103242210D01*
X107315972Y-103315886D01*
X107248735Y-103334886D01*
X107184028Y-103315886D01*
X107066774Y-103242210D01*
X106912455Y-103188212D01*
X106750004Y-103169909D01*
X106749996Y-103169909D01*
X106587544Y-103188212D01*
X106433225Y-103242210D01*
X106315972Y-103315886D01*
X106248735Y-103334886D01*
X106184028Y-103315886D01*
X106066774Y-103242210D01*
X105912455Y-103188212D01*
X105750004Y-103169909D01*
X105749996Y-103169909D01*
X105587544Y-103188212D01*
X105433225Y-103242210D01*
X105315972Y-103315886D01*
X105248735Y-103334886D01*
X105184028Y-103315886D01*
X105066774Y-103242210D01*
X104912455Y-103188212D01*
X104750004Y-103169909D01*
X104749996Y-103169909D01*
X104587544Y-103188212D01*
X104433225Y-103242210D01*
X104315972Y-103315886D01*
X104248735Y-103334886D01*
X104184028Y-103315886D01*
X104066774Y-103242210D01*
X103912455Y-103188212D01*
X103750004Y-103169909D01*
X103749996Y-103169909D01*
X103587544Y-103188212D01*
X103433225Y-103242210D01*
X103294795Y-103329192D01*
X103179192Y-103444795D01*
X103092210Y-103583225D01*
X103038212Y-103737544D01*
X103019909Y-103899996D01*
X103019909Y-103900003D01*
X100200500Y-103900003D01*
X100200500Y-100900003D01*
X103269909Y-100900003D01*
X103288212Y-101062455D01*
X103342210Y-101216774D01*
X103429192Y-101355204D01*
X103544796Y-101470808D01*
X103683225Y-101557789D01*
X103837539Y-101611786D01*
X103837542Y-101611786D01*
X103837544Y-101611787D01*
X103999996Y-101630091D01*
X104000000Y-101630091D01*
X104000004Y-101630091D01*
X104162455Y-101611787D01*
X104162456Y-101611786D01*
X104162461Y-101611786D01*
X104316775Y-101557789D01*
X104455204Y-101470808D01*
X104570808Y-101355204D01*
X104657789Y-101216775D01*
X104711786Y-101062461D01*
X104711787Y-101062455D01*
X104711788Y-101062452D01*
X104713338Y-101055665D01*
X104715993Y-101056271D01*
X104738246Y-101003276D01*
X104795830Y-100963706D01*
X104865667Y-100961549D01*
X104900392Y-100976554D01*
X104933223Y-100997183D01*
X104933225Y-100997184D01*
X105087539Y-101051181D01*
X105087542Y-101051181D01*
X105087544Y-101051182D01*
X105249996Y-101069486D01*
X105250000Y-101069486D01*
X105250004Y-101069486D01*
X105412455Y-101051182D01*
X105412456Y-101051181D01*
X105412461Y-101051181D01*
X105566775Y-100997184D01*
X105639275Y-100951628D01*
X105706512Y-100932628D01*
X105773347Y-100952995D01*
X105792929Y-100968941D01*
X105794796Y-100970808D01*
X105933225Y-101057789D01*
X106087539Y-101111786D01*
X106087542Y-101111786D01*
X106087544Y-101111787D01*
X106249996Y-101130091D01*
X106250000Y-101130091D01*
X106250003Y-101130091D01*
X106399667Y-101113228D01*
X106468489Y-101125282D01*
X106519869Y-101172632D01*
X106537493Y-101240242D01*
X106536771Y-101250331D01*
X106519909Y-101399995D01*
X106519909Y-101400003D01*
X106538212Y-101562455D01*
X106592210Y-101716774D01*
X106592211Y-101716775D01*
X106679192Y-101855204D01*
X106794796Y-101970808D01*
X106933225Y-102057789D01*
X107087539Y-102111786D01*
X107087542Y-102111786D01*
X107087544Y-102111787D01*
X107249996Y-102130091D01*
X107250000Y-102130091D01*
X107250004Y-102130091D01*
X107412455Y-102111787D01*
X107412456Y-102111786D01*
X107412461Y-102111786D01*
X107566775Y-102057789D01*
X107705204Y-101970808D01*
X107820808Y-101855204D01*
X107820808Y-101855203D01*
X107825732Y-101850280D01*
X107826845Y-101851393D01*
X107877207Y-101816033D01*
X107947018Y-101813171D01*
X107957936Y-101816435D01*
X108087539Y-101861786D01*
X108087543Y-101861786D01*
X108087545Y-101861787D01*
X108249996Y-101880091D01*
X108250000Y-101880091D01*
X108250004Y-101880091D01*
X108412455Y-101861787D01*
X108412456Y-101861786D01*
X108412461Y-101861786D01*
X108566775Y-101807789D01*
X108684028Y-101734113D01*
X108751264Y-101715113D01*
X108815971Y-101734113D01*
X108933225Y-101807789D01*
X109087539Y-101861786D01*
X109087542Y-101861786D01*
X109087544Y-101861787D01*
X109249996Y-101880091D01*
X109250000Y-101880091D01*
X109250004Y-101880091D01*
X109412457Y-101861787D01*
X109412459Y-101861786D01*
X109412461Y-101861786D01*
X109542057Y-101816437D01*
X109611836Y-101812876D01*
X109672463Y-101847604D01*
X109678586Y-101854598D01*
X109679191Y-101855203D01*
X109679192Y-101855204D01*
X109794796Y-101970808D01*
X109933225Y-102057789D01*
X110087539Y-102111786D01*
X110087542Y-102111786D01*
X110087544Y-102111787D01*
X110249996Y-102130091D01*
X110250000Y-102130091D01*
X110250004Y-102130091D01*
X110412455Y-102111787D01*
X110412456Y-102111786D01*
X110412461Y-102111786D01*
X110566775Y-102057789D01*
X110705204Y-101970808D01*
X110820808Y-101855204D01*
X110907789Y-101716775D01*
X110919172Y-101684242D01*
X110959891Y-101627469D01*
X111024843Y-101601720D01*
X111077168Y-101608157D01*
X111087542Y-101611787D01*
X111249996Y-101630091D01*
X111250000Y-101630091D01*
X111250004Y-101630091D01*
X111412455Y-101611787D01*
X111412456Y-101611786D01*
X111412461Y-101611786D01*
X111566775Y-101557789D01*
X111684027Y-101484114D01*
X111751265Y-101465114D01*
X111815972Y-101484114D01*
X111933225Y-101557789D01*
X112087539Y-101611786D01*
X112087542Y-101611786D01*
X112087544Y-101611787D01*
X112249996Y-101630091D01*
X112250000Y-101630091D01*
X112250004Y-101630091D01*
X112412455Y-101611787D01*
X112412456Y-101611786D01*
X112412461Y-101611786D01*
X112566775Y-101557789D01*
X112684027Y-101484114D01*
X112751265Y-101465114D01*
X112815972Y-101484114D01*
X112933225Y-101557789D01*
X113087539Y-101611786D01*
X113087542Y-101611786D01*
X113087544Y-101611787D01*
X113249996Y-101630091D01*
X113250000Y-101630091D01*
X113250004Y-101630091D01*
X113412455Y-101611787D01*
X113412456Y-101611786D01*
X113412461Y-101611786D01*
X113566775Y-101557789D01*
X113684027Y-101484114D01*
X113751265Y-101465114D01*
X113815972Y-101484114D01*
X113933225Y-101557789D01*
X114087539Y-101611786D01*
X114087542Y-101611786D01*
X114087544Y-101611787D01*
X114249996Y-101630091D01*
X114250000Y-101630091D01*
X114250004Y-101630091D01*
X114412455Y-101611787D01*
X114412456Y-101611786D01*
X114412461Y-101611786D01*
X114566775Y-101557789D01*
X114684027Y-101484114D01*
X114751265Y-101465114D01*
X114815972Y-101484114D01*
X114933225Y-101557789D01*
X115087539Y-101611786D01*
X115087542Y-101611786D01*
X115087544Y-101611787D01*
X115249996Y-101630091D01*
X115250000Y-101630091D01*
X115250004Y-101630091D01*
X115412455Y-101611787D01*
X115412456Y-101611786D01*
X115412461Y-101611786D01*
X115566775Y-101557789D01*
X115684027Y-101484114D01*
X115751265Y-101465114D01*
X115815972Y-101484114D01*
X115933225Y-101557789D01*
X116087539Y-101611786D01*
X116087542Y-101611786D01*
X116087544Y-101611787D01*
X116249996Y-101630091D01*
X116250000Y-101630091D01*
X116250004Y-101630091D01*
X116412455Y-101611787D01*
X116412456Y-101611786D01*
X116412461Y-101611786D01*
X116566775Y-101557789D01*
X116705204Y-101470808D01*
X116820808Y-101355204D01*
X116907789Y-101216775D01*
X116961786Y-101062461D01*
X116961787Y-101062452D01*
X116980091Y-100900003D01*
X119019781Y-100900003D01*
X119038084Y-101062455D01*
X119092082Y-101216774D01*
X119179063Y-101355204D01*
X119179064Y-101355204D01*
X119294668Y-101470808D01*
X119433097Y-101557789D01*
X119587411Y-101611786D01*
X119587414Y-101611786D01*
X119587416Y-101611787D01*
X119749868Y-101630091D01*
X119749872Y-101630091D01*
X119749876Y-101630091D01*
X119912327Y-101611787D01*
X119912328Y-101611786D01*
X119912333Y-101611786D01*
X120066647Y-101557789D01*
X120183899Y-101484114D01*
X120251137Y-101465114D01*
X120315844Y-101484114D01*
X120433097Y-101557789D01*
X120587411Y-101611786D01*
X120587414Y-101611786D01*
X120587416Y-101611787D01*
X120749868Y-101630091D01*
X120749872Y-101630091D01*
X120749876Y-101630091D01*
X120912327Y-101611787D01*
X120912328Y-101611786D01*
X120912333Y-101611786D01*
X121066647Y-101557789D01*
X121205076Y-101470808D01*
X121320680Y-101355204D01*
X121407661Y-101216775D01*
X121461658Y-101062461D01*
X121461659Y-101062452D01*
X121479963Y-100900003D01*
X121479963Y-100899996D01*
X121461659Y-100737544D01*
X121461658Y-100737542D01*
X121461658Y-100737539D01*
X121407661Y-100583225D01*
X121320680Y-100444796D01*
X121205076Y-100329192D01*
X121183898Y-100315885D01*
X121066646Y-100242210D01*
X120912327Y-100188212D01*
X120749876Y-100169909D01*
X120749868Y-100169909D01*
X120587416Y-100188212D01*
X120433097Y-100242210D01*
X120315843Y-100315886D01*
X120248606Y-100334886D01*
X120183898Y-100315885D01*
X120066648Y-100242211D01*
X119912327Y-100188212D01*
X119749876Y-100169909D01*
X119749868Y-100169909D01*
X119587416Y-100188212D01*
X119433097Y-100242210D01*
X119294667Y-100329192D01*
X119179064Y-100444795D01*
X119092082Y-100583225D01*
X119038084Y-100737544D01*
X119019781Y-100899996D01*
X119019781Y-100900003D01*
X116980091Y-100900003D01*
X116980091Y-100899996D01*
X116961787Y-100737544D01*
X116961786Y-100737542D01*
X116961786Y-100737539D01*
X116907789Y-100583225D01*
X116820808Y-100444796D01*
X116705204Y-100329192D01*
X116684026Y-100315885D01*
X116566774Y-100242210D01*
X116412455Y-100188212D01*
X116250004Y-100169909D01*
X116249996Y-100169909D01*
X116087544Y-100188212D01*
X115933225Y-100242210D01*
X115815971Y-100315886D01*
X115748734Y-100334886D01*
X115684026Y-100315885D01*
X115566776Y-100242211D01*
X115412455Y-100188212D01*
X115250004Y-100169909D01*
X115249996Y-100169909D01*
X115087544Y-100188212D01*
X114933225Y-100242210D01*
X114815972Y-100315886D01*
X114748735Y-100334886D01*
X114684028Y-100315886D01*
X114566774Y-100242210D01*
X114412455Y-100188212D01*
X114250004Y-100169909D01*
X114249996Y-100169909D01*
X114087544Y-100188212D01*
X113933225Y-100242210D01*
X113815972Y-100315886D01*
X113748735Y-100334886D01*
X113684028Y-100315886D01*
X113566774Y-100242210D01*
X113412455Y-100188212D01*
X113250004Y-100169909D01*
X113249996Y-100169909D01*
X113087544Y-100188212D01*
X112933225Y-100242210D01*
X112815971Y-100315886D01*
X112748734Y-100334886D01*
X112684026Y-100315885D01*
X112566776Y-100242211D01*
X112412455Y-100188212D01*
X112250004Y-100169909D01*
X112249996Y-100169909D01*
X112087544Y-100188212D01*
X111933225Y-100242210D01*
X111815972Y-100315886D01*
X111748735Y-100334886D01*
X111684028Y-100315886D01*
X111566774Y-100242210D01*
X111412455Y-100188212D01*
X111250004Y-100169909D01*
X111249996Y-100169909D01*
X111087544Y-100188212D01*
X110933225Y-100242210D01*
X110794795Y-100329192D01*
X110679192Y-100444795D01*
X110592212Y-100583222D01*
X110580827Y-100615758D01*
X110540104Y-100672533D01*
X110475151Y-100698279D01*
X110422831Y-100691842D01*
X110412460Y-100688213D01*
X110250004Y-100669909D01*
X110249996Y-100669909D01*
X110087544Y-100688212D01*
X109957941Y-100733562D01*
X109888162Y-100737123D01*
X109827535Y-100702394D01*
X109821403Y-100695391D01*
X109705204Y-100579192D01*
X109566774Y-100492210D01*
X109412455Y-100438212D01*
X109250004Y-100419909D01*
X109249996Y-100419909D01*
X109087544Y-100438212D01*
X108933225Y-100492210D01*
X108815971Y-100565886D01*
X108748734Y-100584886D01*
X108684026Y-100565885D01*
X108566776Y-100492211D01*
X108412455Y-100438212D01*
X108250004Y-100419909D01*
X108249996Y-100419909D01*
X108087544Y-100438212D01*
X107933225Y-100492210D01*
X107794795Y-100579192D01*
X107674268Y-100699720D01*
X107673157Y-100698609D01*
X107622763Y-100733976D01*
X107552952Y-100736821D01*
X107542059Y-100733562D01*
X107412455Y-100688212D01*
X107250004Y-100669909D01*
X107249996Y-100669909D01*
X107100331Y-100686771D01*
X107031509Y-100674716D01*
X106980130Y-100627367D01*
X106962506Y-100559756D01*
X106963228Y-100549667D01*
X106980091Y-100400002D01*
X106980091Y-100399996D01*
X106961787Y-100237544D01*
X106961786Y-100237542D01*
X106961786Y-100237539D01*
X106907789Y-100083225D01*
X106820808Y-99944796D01*
X106705204Y-99829192D01*
X106608752Y-99768587D01*
X106566774Y-99742210D01*
X106412455Y-99688212D01*
X106250004Y-99669909D01*
X106249996Y-99669909D01*
X106087544Y-99688212D01*
X105933222Y-99742211D01*
X105860722Y-99787766D01*
X105793485Y-99806766D01*
X105726650Y-99786398D01*
X105707070Y-99770453D01*
X105705204Y-99768587D01*
X105566774Y-99681605D01*
X105412455Y-99627607D01*
X105250004Y-99609304D01*
X105249996Y-99609304D01*
X105087544Y-99627607D01*
X104933225Y-99681605D01*
X104794795Y-99768587D01*
X104679192Y-99884190D01*
X104592210Y-100022620D01*
X104538211Y-100176942D01*
X104536662Y-100183730D01*
X104534019Y-100183126D01*
X104511703Y-100236180D01*
X104454093Y-100275713D01*
X104384256Y-100277825D01*
X104349608Y-100262840D01*
X104316777Y-100242211D01*
X104162455Y-100188212D01*
X104000004Y-100169909D01*
X103999996Y-100169909D01*
X103837544Y-100188212D01*
X103683225Y-100242210D01*
X103544795Y-100329192D01*
X103429192Y-100444795D01*
X103342210Y-100583225D01*
X103288212Y-100737544D01*
X103269909Y-100899996D01*
X103269909Y-100900003D01*
X100200500Y-100900003D01*
X100200500Y-98999999D01*
X121044227Y-98999999D01*
X121064731Y-99168869D01*
X121064732Y-99168874D01*
X121125054Y-99327931D01*
X121187347Y-99418177D01*
X121221689Y-99467929D01*
X121327377Y-99561560D01*
X121349022Y-99580736D01*
X121499645Y-99659789D01*
X121499647Y-99659790D01*
X121664816Y-99700500D01*
X121834928Y-99700500D01*
X122000097Y-99659790D01*
X122096289Y-99609304D01*
X122150721Y-99580736D01*
X122150722Y-99580734D01*
X122150724Y-99580734D01*
X122278055Y-99467929D01*
X122374690Y-99327930D01*
X122435012Y-99168872D01*
X122455517Y-99000000D01*
X122435012Y-98831128D01*
X122374690Y-98672070D01*
X122278055Y-98532071D01*
X122150724Y-98419266D01*
X122150721Y-98419263D01*
X122000098Y-98340210D01*
X121834928Y-98299500D01*
X121664816Y-98299500D01*
X121499645Y-98340210D01*
X121349022Y-98419263D01*
X121221688Y-98532072D01*
X121125054Y-98672068D01*
X121064732Y-98831125D01*
X121064731Y-98831130D01*
X121044227Y-98999999D01*
X100200500Y-98999999D01*
X100200500Y-97232151D01*
X101345436Y-97232151D01*
X101384751Y-97442468D01*
X101448698Y-97607533D01*
X101462042Y-97641978D01*
X101462044Y-97641984D01*
X101574672Y-97823884D01*
X101574678Y-97823893D01*
X101718822Y-97982012D01*
X101889566Y-98110952D01*
X102081094Y-98206321D01*
X102081100Y-98206324D01*
X102257001Y-98256371D01*
X102286888Y-98264875D01*
X102446561Y-98279671D01*
X102446564Y-98279671D01*
X102553308Y-98279671D01*
X102553311Y-98279671D01*
X102712984Y-98264875D01*
X102800936Y-98239850D01*
X102918771Y-98206324D01*
X102918773Y-98206322D01*
X102918776Y-98206322D01*
X103110306Y-98110952D01*
X103281050Y-97982012D01*
X103425194Y-97823893D01*
X103537829Y-97641981D01*
X103615121Y-97442468D01*
X103654436Y-97232151D01*
X103654436Y-97078638D01*
X121641658Y-97078638D01*
X121651720Y-97264228D01*
X121651720Y-97264233D01*
X121701441Y-97443314D01*
X121701445Y-97443322D01*
X121788505Y-97607534D01*
X121851438Y-97681624D01*
X121908831Y-97749192D01*
X122056797Y-97861673D01*
X122056798Y-97861673D01*
X122056799Y-97861674D01*
X122225479Y-97939714D01*
X122225487Y-97939717D01*
X122280556Y-97951838D01*
X122407003Y-97979671D01*
X122407006Y-97979671D01*
X122546263Y-97979671D01*
X122546268Y-97979671D01*
X122684711Y-97964614D01*
X122860847Y-97905267D01*
X123020107Y-97809444D01*
X123155044Y-97681625D01*
X123259349Y-97527786D01*
X123293344Y-97442465D01*
X123328144Y-97355126D01*
X123328145Y-97355122D01*
X123358214Y-97171706D01*
X123348152Y-96986113D01*
X123322916Y-96895220D01*
X123298430Y-96807027D01*
X123298426Y-96807019D01*
X123211366Y-96642807D01*
X123091041Y-96501150D01*
X123091040Y-96501150D01*
X122943075Y-96388669D01*
X122943073Y-96388668D01*
X122943072Y-96388667D01*
X122774392Y-96310627D01*
X122774384Y-96310624D01*
X122592869Y-96270671D01*
X122453604Y-96270671D01*
X122453602Y-96270671D01*
X122315162Y-96285727D01*
X122315159Y-96285728D01*
X122139019Y-96345077D01*
X121979763Y-96440899D01*
X121979762Y-96440900D01*
X121844826Y-96568717D01*
X121740521Y-96722558D01*
X121740520Y-96722560D01*
X121671727Y-96895215D01*
X121641658Y-97078638D01*
X103654436Y-97078638D01*
X103654436Y-97018191D01*
X103615121Y-96807874D01*
X103537829Y-96608361D01*
X103434140Y-96440898D01*
X103425199Y-96426457D01*
X103425197Y-96426454D01*
X103425194Y-96426449D01*
X103281050Y-96268330D01*
X103110306Y-96139390D01*
X103110305Y-96139390D01*
X102918777Y-96044020D01*
X102918771Y-96044017D01*
X102712986Y-95985467D01*
X102712983Y-95985466D01*
X102590756Y-95974140D01*
X102553311Y-95970671D01*
X102446561Y-95970671D01*
X102411830Y-95973889D01*
X102286888Y-95985466D01*
X102286885Y-95985467D01*
X102081100Y-96044017D01*
X102081094Y-96044020D01*
X101889565Y-96139390D01*
X101718823Y-96268329D01*
X101718822Y-96268330D01*
X101574678Y-96426449D01*
X101574676Y-96426450D01*
X101574674Y-96426454D01*
X101574672Y-96426457D01*
X101462044Y-96608357D01*
X101462042Y-96608363D01*
X101448698Y-96642809D01*
X101384751Y-96807874D01*
X101345436Y-97018191D01*
X101345436Y-97232151D01*
X100200500Y-97232151D01*
X100200500Y-95534411D01*
X100220185Y-95467372D01*
X100236819Y-95446730D01*
X101546731Y-94136819D01*
X101608054Y-94103334D01*
X101634412Y-94100500D01*
X102143995Y-94100500D01*
X102235041Y-94082389D01*
X102279328Y-94073580D01*
X102406811Y-94020775D01*
X102521542Y-93944114D01*
X102619114Y-93846542D01*
X102695775Y-93731811D01*
X102748580Y-93604328D01*
X102762306Y-93535323D01*
X102775500Y-93468995D01*
X102775500Y-90224500D01*
X102795185Y-90157461D01*
X102847989Y-90111706D01*
X102899500Y-90100500D01*
X112477410Y-90100500D01*
X117700500Y-90100500D01*
X117767539Y-90120185D01*
G37*
%TD.AperFunction*%
%TD*%
M02*
