%TF.GenerationSoftware,KiCad,Pcbnew,7.0.5*%
%TF.CreationDate,2023-08-28T16:59:48-05:00*%
%TF.ProjectId,Chimera_0002_thea,4368696d-6572-4615-9f30-3030325f7468,rev?*%
%TF.SameCoordinates,Original*%
%TF.FileFunction,Legend,Top*%
%TF.FilePolarity,Positive*%
%FSLAX46Y46*%
G04 Gerber Fmt 4.6, Leading zero omitted, Abs format (unit mm)*
G04 Created by KiCad (PCBNEW 7.0.5) date 2023-08-28 16:59:48*
%MOMM*%
%LPD*%
G01*
G04 APERTURE LIST*
G04 Aperture macros list*
%AMRoundRect*
0 Rectangle with rounded corners*
0 $1 Rounding radius*
0 $2 $3 $4 $5 $6 $7 $8 $9 X,Y pos of 4 corners*
0 Add a 4 corners polygon primitive as box body*
4,1,4,$2,$3,$4,$5,$6,$7,$8,$9,$2,$3,0*
0 Add four circle primitives for the rounded corners*
1,1,$1+$1,$2,$3*
1,1,$1+$1,$4,$5*
1,1,$1+$1,$6,$7*
1,1,$1+$1,$8,$9*
0 Add four rect primitives between the rounded corners*
20,1,$1+$1,$2,$3,$4,$5,0*
20,1,$1+$1,$4,$5,$6,$7,0*
20,1,$1+$1,$6,$7,$8,$9,0*
20,1,$1+$1,$8,$9,$2,$3,0*%
G04 Aperture macros list end*
%ADD10C,0.200000*%
%ADD11C,0.220000*%
%ADD12C,0.300000*%
%ADD13C,0.150000*%
%ADD14C,0.254000*%
%ADD15C,0.127000*%
%ADD16C,0.059995*%
%ADD17C,0.120000*%
%ADD18C,0.151994*%
%ADD19C,0.152400*%
%ADD20C,0.150013*%
%ADD21C,0.100000*%
%ADD22C,3.600000*%
%ADD23C,6.400000*%
%ADD24R,1.800000X2.000000*%
%ADD25RoundRect,0.225000X-0.250000X0.225000X-0.250000X-0.225000X0.250000X-0.225000X0.250000X0.225000X0*%
%ADD26RoundRect,0.200000X0.200000X0.275000X-0.200000X0.275000X-0.200000X-0.275000X0.200000X-0.275000X0*%
%ADD27C,1.200000*%
%ADD28C,1.800000*%
%ADD29R,0.300000X1.550013*%
%ADD30R,0.300000X1.524003*%
%ADD31R,1.300000X2.800000*%
%ADD32RoundRect,0.225000X0.250000X-0.225000X0.250000X0.225000X-0.250000X0.225000X-0.250000X-0.225000X0*%
%ADD33C,1.400051*%
%ADD34R,3.000000X1.000000*%
%ADD35R,5.499873X3.000000*%
%ADD36R,1.250013X0.400000*%
%ADD37O,2.200000X1.300000*%
%ADD38R,6.000000X6.500025*%
%ADD39R,0.806477X0.864008*%
%ADD40R,0.800000X0.800000*%
%ADD41C,0.649987*%
%ADD42O,2.100000X1.000000*%
%ADD43O,1.800000X1.000000*%
%ADD44R,1.240005X0.600000*%
%ADD45R,1.240005X0.300000*%
G04 APERTURE END LIST*
D10*
X122257219Y-148630326D02*
X121257219Y-148630326D01*
X121257219Y-148630326D02*
X121971504Y-148296993D01*
X121971504Y-148296993D02*
X121257219Y-147963660D01*
X121257219Y-147963660D02*
X122257219Y-147963660D01*
X122161980Y-146916041D02*
X122209600Y-146963660D01*
X122209600Y-146963660D02*
X122257219Y-147106517D01*
X122257219Y-147106517D02*
X122257219Y-147201755D01*
X122257219Y-147201755D02*
X122209600Y-147344612D01*
X122209600Y-147344612D02*
X122114361Y-147439850D01*
X122114361Y-147439850D02*
X122019123Y-147487469D01*
X122019123Y-147487469D02*
X121828647Y-147535088D01*
X121828647Y-147535088D02*
X121685790Y-147535088D01*
X121685790Y-147535088D02*
X121495314Y-147487469D01*
X121495314Y-147487469D02*
X121400076Y-147439850D01*
X121400076Y-147439850D02*
X121304838Y-147344612D01*
X121304838Y-147344612D02*
X121257219Y-147201755D01*
X121257219Y-147201755D02*
X121257219Y-147106517D01*
X121257219Y-147106517D02*
X121304838Y-146963660D01*
X121304838Y-146963660D02*
X121352457Y-146916041D01*
X121257219Y-146487469D02*
X122066742Y-146487469D01*
X122066742Y-146487469D02*
X122161980Y-146439850D01*
X122161980Y-146439850D02*
X122209600Y-146392231D01*
X122209600Y-146392231D02*
X122257219Y-146296993D01*
X122257219Y-146296993D02*
X122257219Y-146106517D01*
X122257219Y-146106517D02*
X122209600Y-146011279D01*
X122209600Y-146011279D02*
X122161980Y-145963660D01*
X122161980Y-145963660D02*
X122066742Y-145916041D01*
X122066742Y-145916041D02*
X121257219Y-145916041D01*
X121876266Y-145439850D02*
X121876266Y-144677946D01*
X121257219Y-144011279D02*
X121257219Y-143916041D01*
X121257219Y-143916041D02*
X121304838Y-143820803D01*
X121304838Y-143820803D02*
X121352457Y-143773184D01*
X121352457Y-143773184D02*
X121447695Y-143725565D01*
X121447695Y-143725565D02*
X121638171Y-143677946D01*
X121638171Y-143677946D02*
X121876266Y-143677946D01*
X121876266Y-143677946D02*
X122066742Y-143725565D01*
X122066742Y-143725565D02*
X122161980Y-143773184D01*
X122161980Y-143773184D02*
X122209600Y-143820803D01*
X122209600Y-143820803D02*
X122257219Y-143916041D01*
X122257219Y-143916041D02*
X122257219Y-144011279D01*
X122257219Y-144011279D02*
X122209600Y-144106517D01*
X122209600Y-144106517D02*
X122161980Y-144154136D01*
X122161980Y-144154136D02*
X122066742Y-144201755D01*
X122066742Y-144201755D02*
X121876266Y-144249374D01*
X121876266Y-144249374D02*
X121638171Y-144249374D01*
X121638171Y-144249374D02*
X121447695Y-144201755D01*
X121447695Y-144201755D02*
X121352457Y-144154136D01*
X121352457Y-144154136D02*
X121304838Y-144106517D01*
X121304838Y-144106517D02*
X121257219Y-144011279D01*
X121257219Y-143058898D02*
X121257219Y-142963660D01*
X121257219Y-142963660D02*
X121304838Y-142868422D01*
X121304838Y-142868422D02*
X121352457Y-142820803D01*
X121352457Y-142820803D02*
X121447695Y-142773184D01*
X121447695Y-142773184D02*
X121638171Y-142725565D01*
X121638171Y-142725565D02*
X121876266Y-142725565D01*
X121876266Y-142725565D02*
X122066742Y-142773184D01*
X122066742Y-142773184D02*
X122161980Y-142820803D01*
X122161980Y-142820803D02*
X122209600Y-142868422D01*
X122209600Y-142868422D02*
X122257219Y-142963660D01*
X122257219Y-142963660D02*
X122257219Y-143058898D01*
X122257219Y-143058898D02*
X122209600Y-143154136D01*
X122209600Y-143154136D02*
X122161980Y-143201755D01*
X122161980Y-143201755D02*
X122066742Y-143249374D01*
X122066742Y-143249374D02*
X121876266Y-143296993D01*
X121876266Y-143296993D02*
X121638171Y-143296993D01*
X121638171Y-143296993D02*
X121447695Y-143249374D01*
X121447695Y-143249374D02*
X121352457Y-143201755D01*
X121352457Y-143201755D02*
X121304838Y-143154136D01*
X121304838Y-143154136D02*
X121257219Y-143058898D01*
X121257219Y-142106517D02*
X121257219Y-142011279D01*
X121257219Y-142011279D02*
X121304838Y-141916041D01*
X121304838Y-141916041D02*
X121352457Y-141868422D01*
X121352457Y-141868422D02*
X121447695Y-141820803D01*
X121447695Y-141820803D02*
X121638171Y-141773184D01*
X121638171Y-141773184D02*
X121876266Y-141773184D01*
X121876266Y-141773184D02*
X122066742Y-141820803D01*
X122066742Y-141820803D02*
X122161980Y-141868422D01*
X122161980Y-141868422D02*
X122209600Y-141916041D01*
X122209600Y-141916041D02*
X122257219Y-142011279D01*
X122257219Y-142011279D02*
X122257219Y-142106517D01*
X122257219Y-142106517D02*
X122209600Y-142201755D01*
X122209600Y-142201755D02*
X122161980Y-142249374D01*
X122161980Y-142249374D02*
X122066742Y-142296993D01*
X122066742Y-142296993D02*
X121876266Y-142344612D01*
X121876266Y-142344612D02*
X121638171Y-142344612D01*
X121638171Y-142344612D02*
X121447695Y-142296993D01*
X121447695Y-142296993D02*
X121352457Y-142249374D01*
X121352457Y-142249374D02*
X121304838Y-142201755D01*
X121304838Y-142201755D02*
X121257219Y-142106517D01*
X121352457Y-141392231D02*
X121304838Y-141344612D01*
X121304838Y-141344612D02*
X121257219Y-141249374D01*
X121257219Y-141249374D02*
X121257219Y-141011279D01*
X121257219Y-141011279D02*
X121304838Y-140916041D01*
X121304838Y-140916041D02*
X121352457Y-140868422D01*
X121352457Y-140868422D02*
X121447695Y-140820803D01*
X121447695Y-140820803D02*
X121542933Y-140820803D01*
X121542933Y-140820803D02*
X121685790Y-140868422D01*
X121685790Y-140868422D02*
X122257219Y-141439850D01*
X122257219Y-141439850D02*
X122257219Y-140820803D01*
X121876266Y-140392231D02*
X121876266Y-139630327D01*
X121257219Y-138963660D02*
X121257219Y-138868422D01*
X121257219Y-138868422D02*
X121304838Y-138773184D01*
X121304838Y-138773184D02*
X121352457Y-138725565D01*
X121352457Y-138725565D02*
X121447695Y-138677946D01*
X121447695Y-138677946D02*
X121638171Y-138630327D01*
X121638171Y-138630327D02*
X121876266Y-138630327D01*
X121876266Y-138630327D02*
X122066742Y-138677946D01*
X122066742Y-138677946D02*
X122161980Y-138725565D01*
X122161980Y-138725565D02*
X122209600Y-138773184D01*
X122209600Y-138773184D02*
X122257219Y-138868422D01*
X122257219Y-138868422D02*
X122257219Y-138963660D01*
X122257219Y-138963660D02*
X122209600Y-139058898D01*
X122209600Y-139058898D02*
X122161980Y-139106517D01*
X122161980Y-139106517D02*
X122066742Y-139154136D01*
X122066742Y-139154136D02*
X121876266Y-139201755D01*
X121876266Y-139201755D02*
X121638171Y-139201755D01*
X121638171Y-139201755D02*
X121447695Y-139154136D01*
X121447695Y-139154136D02*
X121352457Y-139106517D01*
X121352457Y-139106517D02*
X121304838Y-139058898D01*
X121304838Y-139058898D02*
X121257219Y-138963660D01*
X121257219Y-138011279D02*
X121257219Y-137916041D01*
X121257219Y-137916041D02*
X121304838Y-137820803D01*
X121304838Y-137820803D02*
X121352457Y-137773184D01*
X121352457Y-137773184D02*
X121447695Y-137725565D01*
X121447695Y-137725565D02*
X121638171Y-137677946D01*
X121638171Y-137677946D02*
X121876266Y-137677946D01*
X121876266Y-137677946D02*
X122066742Y-137725565D01*
X122066742Y-137725565D02*
X122161980Y-137773184D01*
X122161980Y-137773184D02*
X122209600Y-137820803D01*
X122209600Y-137820803D02*
X122257219Y-137916041D01*
X122257219Y-137916041D02*
X122257219Y-138011279D01*
X122257219Y-138011279D02*
X122209600Y-138106517D01*
X122209600Y-138106517D02*
X122161980Y-138154136D01*
X122161980Y-138154136D02*
X122066742Y-138201755D01*
X122066742Y-138201755D02*
X121876266Y-138249374D01*
X121876266Y-138249374D02*
X121638171Y-138249374D01*
X121638171Y-138249374D02*
X121447695Y-138201755D01*
X121447695Y-138201755D02*
X121352457Y-138154136D01*
X121352457Y-138154136D02*
X121304838Y-138106517D01*
X121304838Y-138106517D02*
X121257219Y-138011279D01*
X122867219Y-148773183D02*
X122867219Y-148201755D01*
X123867219Y-148487469D02*
X122867219Y-148487469D01*
X123867219Y-147868421D02*
X122867219Y-147868421D01*
X123867219Y-147439850D02*
X123343409Y-147439850D01*
X123343409Y-147439850D02*
X123248171Y-147487469D01*
X123248171Y-147487469D02*
X123200552Y-147582707D01*
X123200552Y-147582707D02*
X123200552Y-147725564D01*
X123200552Y-147725564D02*
X123248171Y-147820802D01*
X123248171Y-147820802D02*
X123295790Y-147868421D01*
X123819600Y-146582707D02*
X123867219Y-146677945D01*
X123867219Y-146677945D02*
X123867219Y-146868421D01*
X123867219Y-146868421D02*
X123819600Y-146963659D01*
X123819600Y-146963659D02*
X123724361Y-147011278D01*
X123724361Y-147011278D02*
X123343409Y-147011278D01*
X123343409Y-147011278D02*
X123248171Y-146963659D01*
X123248171Y-146963659D02*
X123200552Y-146868421D01*
X123200552Y-146868421D02*
X123200552Y-146677945D01*
X123200552Y-146677945D02*
X123248171Y-146582707D01*
X123248171Y-146582707D02*
X123343409Y-146535088D01*
X123343409Y-146535088D02*
X123438647Y-146535088D01*
X123438647Y-146535088D02*
X123533885Y-147011278D01*
X123867219Y-145677945D02*
X123343409Y-145677945D01*
X123343409Y-145677945D02*
X123248171Y-145725564D01*
X123248171Y-145725564D02*
X123200552Y-145820802D01*
X123200552Y-145820802D02*
X123200552Y-146011278D01*
X123200552Y-146011278D02*
X123248171Y-146106516D01*
X123819600Y-145677945D02*
X123867219Y-145773183D01*
X123867219Y-145773183D02*
X123867219Y-146011278D01*
X123867219Y-146011278D02*
X123819600Y-146106516D01*
X123819600Y-146106516D02*
X123724361Y-146154135D01*
X123724361Y-146154135D02*
X123629123Y-146154135D01*
X123629123Y-146154135D02*
X123533885Y-146106516D01*
X123533885Y-146106516D02*
X123486266Y-146011278D01*
X123486266Y-146011278D02*
X123486266Y-145773183D01*
X123486266Y-145773183D02*
X123438647Y-145677945D01*
D11*
X109566179Y-114617168D02*
X110375702Y-114617168D01*
X110375702Y-114617168D02*
X110470940Y-114569549D01*
X110470940Y-114569549D02*
X110518560Y-114521930D01*
X110518560Y-114521930D02*
X110566179Y-114426692D01*
X110566179Y-114426692D02*
X110566179Y-114236216D01*
X110566179Y-114236216D02*
X110518560Y-114140978D01*
X110518560Y-114140978D02*
X110470940Y-114093359D01*
X110470940Y-114093359D02*
X110375702Y-114045740D01*
X110375702Y-114045740D02*
X109566179Y-114045740D01*
X110518560Y-113617168D02*
X110566179Y-113474311D01*
X110566179Y-113474311D02*
X110566179Y-113236216D01*
X110566179Y-113236216D02*
X110518560Y-113140978D01*
X110518560Y-113140978D02*
X110470940Y-113093359D01*
X110470940Y-113093359D02*
X110375702Y-113045740D01*
X110375702Y-113045740D02*
X110280464Y-113045740D01*
X110280464Y-113045740D02*
X110185226Y-113093359D01*
X110185226Y-113093359D02*
X110137607Y-113140978D01*
X110137607Y-113140978D02*
X110089988Y-113236216D01*
X110089988Y-113236216D02*
X110042369Y-113426692D01*
X110042369Y-113426692D02*
X109994750Y-113521930D01*
X109994750Y-113521930D02*
X109947131Y-113569549D01*
X109947131Y-113569549D02*
X109851893Y-113617168D01*
X109851893Y-113617168D02*
X109756655Y-113617168D01*
X109756655Y-113617168D02*
X109661417Y-113569549D01*
X109661417Y-113569549D02*
X109613798Y-113521930D01*
X109613798Y-113521930D02*
X109566179Y-113426692D01*
X109566179Y-113426692D02*
X109566179Y-113188597D01*
X109566179Y-113188597D02*
X109613798Y-113045740D01*
X110042369Y-112283835D02*
X110089988Y-112140978D01*
X110089988Y-112140978D02*
X110137607Y-112093359D01*
X110137607Y-112093359D02*
X110232845Y-112045740D01*
X110232845Y-112045740D02*
X110375702Y-112045740D01*
X110375702Y-112045740D02*
X110470940Y-112093359D01*
X110470940Y-112093359D02*
X110518560Y-112140978D01*
X110518560Y-112140978D02*
X110566179Y-112236216D01*
X110566179Y-112236216D02*
X110566179Y-112617168D01*
X110566179Y-112617168D02*
X109566179Y-112617168D01*
X109566179Y-112617168D02*
X109566179Y-112283835D01*
X109566179Y-112283835D02*
X109613798Y-112188597D01*
X109613798Y-112188597D02*
X109661417Y-112140978D01*
X109661417Y-112140978D02*
X109756655Y-112093359D01*
X109756655Y-112093359D02*
X109851893Y-112093359D01*
X109851893Y-112093359D02*
X109947131Y-112140978D01*
X109947131Y-112140978D02*
X109994750Y-112188597D01*
X109994750Y-112188597D02*
X110042369Y-112283835D01*
X110042369Y-112283835D02*
X110042369Y-112617168D01*
X109566179Y-111712406D02*
X109566179Y-111093359D01*
X109566179Y-111093359D02*
X109947131Y-111426692D01*
X109947131Y-111426692D02*
X109947131Y-111283835D01*
X109947131Y-111283835D02*
X109994750Y-111188597D01*
X109994750Y-111188597D02*
X110042369Y-111140978D01*
X110042369Y-111140978D02*
X110137607Y-111093359D01*
X110137607Y-111093359D02*
X110375702Y-111093359D01*
X110375702Y-111093359D02*
X110470940Y-111140978D01*
X110470940Y-111140978D02*
X110518560Y-111188597D01*
X110518560Y-111188597D02*
X110566179Y-111283835D01*
X110566179Y-111283835D02*
X110566179Y-111569549D01*
X110566179Y-111569549D02*
X110518560Y-111664787D01*
X110518560Y-111664787D02*
X110470940Y-111712406D01*
X116066179Y-136517168D02*
X116875702Y-136517168D01*
X116875702Y-136517168D02*
X116970940Y-136469549D01*
X116970940Y-136469549D02*
X117018560Y-136421930D01*
X117018560Y-136421930D02*
X117066179Y-136326692D01*
X117066179Y-136326692D02*
X117066179Y-136136216D01*
X117066179Y-136136216D02*
X117018560Y-136040978D01*
X117018560Y-136040978D02*
X116970940Y-135993359D01*
X116970940Y-135993359D02*
X116875702Y-135945740D01*
X116875702Y-135945740D02*
X116066179Y-135945740D01*
X117018560Y-135517168D02*
X117066179Y-135374311D01*
X117066179Y-135374311D02*
X117066179Y-135136216D01*
X117066179Y-135136216D02*
X117018560Y-135040978D01*
X117018560Y-135040978D02*
X116970940Y-134993359D01*
X116970940Y-134993359D02*
X116875702Y-134945740D01*
X116875702Y-134945740D02*
X116780464Y-134945740D01*
X116780464Y-134945740D02*
X116685226Y-134993359D01*
X116685226Y-134993359D02*
X116637607Y-135040978D01*
X116637607Y-135040978D02*
X116589988Y-135136216D01*
X116589988Y-135136216D02*
X116542369Y-135326692D01*
X116542369Y-135326692D02*
X116494750Y-135421930D01*
X116494750Y-135421930D02*
X116447131Y-135469549D01*
X116447131Y-135469549D02*
X116351893Y-135517168D01*
X116351893Y-135517168D02*
X116256655Y-135517168D01*
X116256655Y-135517168D02*
X116161417Y-135469549D01*
X116161417Y-135469549D02*
X116113798Y-135421930D01*
X116113798Y-135421930D02*
X116066179Y-135326692D01*
X116066179Y-135326692D02*
X116066179Y-135088597D01*
X116066179Y-135088597D02*
X116113798Y-134945740D01*
X116542369Y-134183835D02*
X116589988Y-134040978D01*
X116589988Y-134040978D02*
X116637607Y-133993359D01*
X116637607Y-133993359D02*
X116732845Y-133945740D01*
X116732845Y-133945740D02*
X116875702Y-133945740D01*
X116875702Y-133945740D02*
X116970940Y-133993359D01*
X116970940Y-133993359D02*
X117018560Y-134040978D01*
X117018560Y-134040978D02*
X117066179Y-134136216D01*
X117066179Y-134136216D02*
X117066179Y-134517168D01*
X117066179Y-134517168D02*
X116066179Y-134517168D01*
X116066179Y-134517168D02*
X116066179Y-134183835D01*
X116066179Y-134183835D02*
X116113798Y-134088597D01*
X116113798Y-134088597D02*
X116161417Y-134040978D01*
X116161417Y-134040978D02*
X116256655Y-133993359D01*
X116256655Y-133993359D02*
X116351893Y-133993359D01*
X116351893Y-133993359D02*
X116447131Y-134040978D01*
X116447131Y-134040978D02*
X116494750Y-134088597D01*
X116494750Y-134088597D02*
X116542369Y-134183835D01*
X116542369Y-134183835D02*
X116542369Y-134517168D01*
X116161417Y-133564787D02*
X116113798Y-133517168D01*
X116113798Y-133517168D02*
X116066179Y-133421930D01*
X116066179Y-133421930D02*
X116066179Y-133183835D01*
X116066179Y-133183835D02*
X116113798Y-133088597D01*
X116113798Y-133088597D02*
X116161417Y-133040978D01*
X116161417Y-133040978D02*
X116256655Y-132993359D01*
X116256655Y-132993359D02*
X116351893Y-132993359D01*
X116351893Y-132993359D02*
X116494750Y-133040978D01*
X116494750Y-133040978D02*
X117066179Y-133612406D01*
X117066179Y-133612406D02*
X117066179Y-132993359D01*
X108066179Y-144617168D02*
X108875702Y-144617168D01*
X108875702Y-144617168D02*
X108970940Y-144569549D01*
X108970940Y-144569549D02*
X109018560Y-144521930D01*
X109018560Y-144521930D02*
X109066179Y-144426692D01*
X109066179Y-144426692D02*
X109066179Y-144236216D01*
X109066179Y-144236216D02*
X109018560Y-144140978D01*
X109018560Y-144140978D02*
X108970940Y-144093359D01*
X108970940Y-144093359D02*
X108875702Y-144045740D01*
X108875702Y-144045740D02*
X108066179Y-144045740D01*
X109018560Y-143617168D02*
X109066179Y-143474311D01*
X109066179Y-143474311D02*
X109066179Y-143236216D01*
X109066179Y-143236216D02*
X109018560Y-143140978D01*
X109018560Y-143140978D02*
X108970940Y-143093359D01*
X108970940Y-143093359D02*
X108875702Y-143045740D01*
X108875702Y-143045740D02*
X108780464Y-143045740D01*
X108780464Y-143045740D02*
X108685226Y-143093359D01*
X108685226Y-143093359D02*
X108637607Y-143140978D01*
X108637607Y-143140978D02*
X108589988Y-143236216D01*
X108589988Y-143236216D02*
X108542369Y-143426692D01*
X108542369Y-143426692D02*
X108494750Y-143521930D01*
X108494750Y-143521930D02*
X108447131Y-143569549D01*
X108447131Y-143569549D02*
X108351893Y-143617168D01*
X108351893Y-143617168D02*
X108256655Y-143617168D01*
X108256655Y-143617168D02*
X108161417Y-143569549D01*
X108161417Y-143569549D02*
X108113798Y-143521930D01*
X108113798Y-143521930D02*
X108066179Y-143426692D01*
X108066179Y-143426692D02*
X108066179Y-143188597D01*
X108066179Y-143188597D02*
X108113798Y-143045740D01*
X108542369Y-142283835D02*
X108589988Y-142140978D01*
X108589988Y-142140978D02*
X108637607Y-142093359D01*
X108637607Y-142093359D02*
X108732845Y-142045740D01*
X108732845Y-142045740D02*
X108875702Y-142045740D01*
X108875702Y-142045740D02*
X108970940Y-142093359D01*
X108970940Y-142093359D02*
X109018560Y-142140978D01*
X109018560Y-142140978D02*
X109066179Y-142236216D01*
X109066179Y-142236216D02*
X109066179Y-142617168D01*
X109066179Y-142617168D02*
X108066179Y-142617168D01*
X108066179Y-142617168D02*
X108066179Y-142283835D01*
X108066179Y-142283835D02*
X108113798Y-142188597D01*
X108113798Y-142188597D02*
X108161417Y-142140978D01*
X108161417Y-142140978D02*
X108256655Y-142093359D01*
X108256655Y-142093359D02*
X108351893Y-142093359D01*
X108351893Y-142093359D02*
X108447131Y-142140978D01*
X108447131Y-142140978D02*
X108494750Y-142188597D01*
X108494750Y-142188597D02*
X108542369Y-142283835D01*
X108542369Y-142283835D02*
X108542369Y-142617168D01*
X109066179Y-141093359D02*
X109066179Y-141664787D01*
X109066179Y-141379073D02*
X108066179Y-141379073D01*
X108066179Y-141379073D02*
X108209036Y-141474311D01*
X108209036Y-141474311D02*
X108304274Y-141569549D01*
X108304274Y-141569549D02*
X108351893Y-141664787D01*
D12*
X123529400Y-115345489D02*
X123529400Y-114202632D01*
X124100828Y-114774060D02*
X122957971Y-114774060D01*
X122600828Y-113631203D02*
X122600828Y-112702631D01*
X122600828Y-112702631D02*
X123172257Y-113202631D01*
X123172257Y-113202631D02*
X123172257Y-112988346D01*
X123172257Y-112988346D02*
X123243685Y-112845489D01*
X123243685Y-112845489D02*
X123315114Y-112774060D01*
X123315114Y-112774060D02*
X123457971Y-112702631D01*
X123457971Y-112702631D02*
X123815114Y-112702631D01*
X123815114Y-112702631D02*
X123957971Y-112774060D01*
X123957971Y-112774060D02*
X124029400Y-112845489D01*
X124029400Y-112845489D02*
X124100828Y-112988346D01*
X124100828Y-112988346D02*
X124100828Y-113416917D01*
X124100828Y-113416917D02*
X124029400Y-113559774D01*
X124029400Y-113559774D02*
X123957971Y-113631203D01*
X122600828Y-112274060D02*
X124100828Y-111774060D01*
X124100828Y-111774060D02*
X122600828Y-111274060D01*
X122600828Y-110916918D02*
X122600828Y-109988346D01*
X122600828Y-109988346D02*
X123172257Y-110488346D01*
X123172257Y-110488346D02*
X123172257Y-110274061D01*
X123172257Y-110274061D02*
X123243685Y-110131204D01*
X123243685Y-110131204D02*
X123315114Y-110059775D01*
X123315114Y-110059775D02*
X123457971Y-109988346D01*
X123457971Y-109988346D02*
X123815114Y-109988346D01*
X123815114Y-109988346D02*
X123957971Y-110059775D01*
X123957971Y-110059775D02*
X124029400Y-110131204D01*
X124029400Y-110131204D02*
X124100828Y-110274061D01*
X124100828Y-110274061D02*
X124100828Y-110702632D01*
X124100828Y-110702632D02*
X124029400Y-110845489D01*
X124029400Y-110845489D02*
X123957971Y-110916918D01*
X119829400Y-114645489D02*
X119829400Y-113502632D01*
X120400828Y-114074060D02*
X119257971Y-114074060D01*
X118900828Y-112074060D02*
X118900828Y-112788346D01*
X118900828Y-112788346D02*
X119615114Y-112859774D01*
X119615114Y-112859774D02*
X119543685Y-112788346D01*
X119543685Y-112788346D02*
X119472257Y-112645489D01*
X119472257Y-112645489D02*
X119472257Y-112288346D01*
X119472257Y-112288346D02*
X119543685Y-112145489D01*
X119543685Y-112145489D02*
X119615114Y-112074060D01*
X119615114Y-112074060D02*
X119757971Y-112002631D01*
X119757971Y-112002631D02*
X120115114Y-112002631D01*
X120115114Y-112002631D02*
X120257971Y-112074060D01*
X120257971Y-112074060D02*
X120329400Y-112145489D01*
X120329400Y-112145489D02*
X120400828Y-112288346D01*
X120400828Y-112288346D02*
X120400828Y-112645489D01*
X120400828Y-112645489D02*
X120329400Y-112788346D01*
X120329400Y-112788346D02*
X120257971Y-112859774D01*
X118900828Y-111574060D02*
X120400828Y-111074060D01*
X120400828Y-111074060D02*
X118900828Y-110574060D01*
D13*
%TO.C,H1*%
X111738095Y-154554819D02*
X111738095Y-153554819D01*
X111738095Y-154031009D02*
X112309523Y-154031009D01*
X112309523Y-154554819D02*
X112309523Y-153554819D01*
X113309523Y-154554819D02*
X112738095Y-154554819D01*
X113023809Y-154554819D02*
X113023809Y-153554819D01*
X113023809Y-153554819D02*
X112928571Y-153697676D01*
X112928571Y-153697676D02*
X112833333Y-153792914D01*
X112833333Y-153792914D02*
X112738095Y-153840533D01*
D14*
%TO.C,U3*%
X112500025Y-114300025D02*
X112768885Y-114300025D01*
X112500025Y-114300025D02*
X112500025Y-109700025D01*
X115031166Y-114300025D02*
X115300025Y-114300025D01*
X115300025Y-114300025D02*
X115300025Y-109700025D01*
D15*
X113897054Y-112759995D02*
X113897054Y-111270053D01*
X113597028Y-112590043D02*
X114197003Y-112590043D01*
X113597028Y-112590043D02*
X113886005Y-112002032D01*
X114184049Y-112576073D02*
X113885014Y-112004013D01*
X113886005Y-112002032D02*
X113505004Y-112002032D01*
X113886005Y-112002032D02*
X114267005Y-112002032D01*
X114187071Y-111460046D02*
X113886005Y-112002032D01*
X113587046Y-111430048D02*
X113886005Y-112002032D01*
X113587046Y-111430048D02*
X114187071Y-111430048D01*
D14*
X112500025Y-109700025D02*
X112768885Y-109700025D01*
X115031166Y-109700025D02*
X115300025Y-109700025D01*
D16*
X115180137Y-114484989D02*
G75*
G03*
X115180137Y-114484989I-29972J0D01*
G01*
D17*
%TO.C,C3*%
X116510000Y-106534420D02*
X116510000Y-106815580D01*
X115490000Y-106534420D02*
X115490000Y-106815580D01*
%TO.C,R3*%
X123237258Y-119922500D02*
X122762742Y-119922500D01*
X123237258Y-118877500D02*
X122762742Y-118877500D01*
%TO.C,C4*%
X119310000Y-118559420D02*
X119310000Y-118840580D01*
X118290000Y-118559420D02*
X118290000Y-118840580D01*
%TO.C,R4*%
X123237258Y-118322500D02*
X122762742Y-118322500D01*
X123237258Y-117277500D02*
X122762742Y-117277500D01*
D18*
%TO.C,CN1*%
X123401130Y-94865328D02*
X123401130Y-100095199D01*
X121849187Y-94865328D02*
X123401130Y-94865328D01*
X121849187Y-94865328D02*
X121844996Y-94865328D01*
X119154724Y-94865328D02*
X117344996Y-94865328D01*
X101600266Y-96602692D02*
X101600266Y-94865328D01*
X101600266Y-94865328D02*
X103159829Y-94865328D01*
X101599936Y-100094996D02*
X101599936Y-97647853D01*
D16*
X123429958Y-102725247D02*
G75*
G03*
X123429958Y-102725247I-29997J0D01*
G01*
D17*
%TO.C,R1*%
X118737258Y-109022500D02*
X118262742Y-109022500D01*
X118737258Y-107977500D02*
X118262742Y-107977500D01*
%TO.C,R2*%
X122312258Y-109172500D02*
X121837742Y-109172500D01*
X122312258Y-108127500D02*
X121837742Y-108127500D01*
%TO.C,C5*%
X119990000Y-118840580D02*
X119990000Y-118559420D01*
X121010000Y-118840580D02*
X121010000Y-118559420D01*
D14*
%TO.C,USB2*%
X108400178Y-121059576D02*
X109163170Y-121059576D01*
X100282068Y-121059576D02*
X108400178Y-121059576D01*
X100282068Y-121059576D02*
X100282068Y-134259474D01*
X113956312Y-121881648D02*
X113956312Y-123418733D01*
X106741808Y-122379108D02*
X106741808Y-122887109D01*
X101001397Y-122861709D02*
X106741808Y-122379108D01*
X106741808Y-122887109D02*
X101606680Y-123392316D01*
X104476632Y-123164732D02*
X104476632Y-125424829D01*
X103266574Y-123304686D02*
X103266574Y-125334658D01*
X101606680Y-123392316D02*
X101606680Y-125142634D01*
X113956312Y-124881013D02*
X113956312Y-125918733D01*
X101606680Y-125142634D02*
X106741808Y-125731915D01*
X106741808Y-125731915D02*
X106741808Y-126112916D01*
X101001397Y-125757315D02*
X101001397Y-122861709D01*
X106741808Y-126112916D02*
X101001397Y-125757315D01*
X113956312Y-127381013D02*
X113956312Y-127918733D01*
X106676276Y-129213500D02*
X106672466Y-129722263D01*
X113956312Y-129381013D02*
X113956312Y-130418733D01*
X100941199Y-129708547D02*
X106676276Y-129213500D01*
X106672466Y-129722263D02*
X102132207Y-130232550D01*
X104377572Y-130045860D02*
X104377572Y-132305956D01*
X103167513Y-130185814D02*
X103167513Y-132215786D01*
X102132207Y-130232550D02*
X101454026Y-130307734D01*
X101454026Y-130307734D02*
X101464694Y-132057544D01*
X113956312Y-131881013D02*
X113956312Y-133419368D01*
X101464694Y-132057544D02*
X106242951Y-132531509D01*
X106242951Y-132531509D02*
X106672974Y-132561481D01*
X106672974Y-132561481D02*
X106672974Y-132941720D01*
X100936373Y-132593739D02*
X100941199Y-129708547D01*
X106672974Y-132941720D02*
X100936373Y-132593739D01*
X108400178Y-134259474D02*
X109163170Y-134259474D01*
X100282068Y-134259474D02*
X108400178Y-134259474D01*
D16*
X115174931Y-135650025D02*
G75*
G03*
X115174931Y-135650025I-29998J0D01*
G01*
D14*
%TO.C,USB1*%
X106009957Y-139099314D02*
X104236322Y-139099314D01*
X106009957Y-139099314D02*
X106009957Y-139815037D01*
X101836322Y-139099314D02*
X100270053Y-139099314D01*
X100369875Y-139129286D02*
X100959918Y-139719330D01*
X100270053Y-139129286D02*
X100369875Y-139129286D01*
X106010338Y-146385065D02*
X106009957Y-147099060D01*
X100959918Y-146489205D02*
X100959918Y-139719330D01*
X100369875Y-147079248D02*
X100959918Y-146489205D01*
X100249987Y-147079248D02*
X100369875Y-147079248D01*
X101836322Y-147099314D02*
X100249987Y-147099314D01*
X100250317Y-147099314D02*
X100249987Y-139099314D01*
X106010338Y-147100051D02*
X104236322Y-147100305D01*
D16*
X106067996Y-139100051D02*
G75*
G03*
X106067996Y-139100051I-29972J0D01*
G01*
D19*
%TO.C,Q1*%
X124439599Y-123843739D02*
X117747193Y-123843739D01*
X124439599Y-129811176D02*
X124439599Y-123843739D01*
X117747193Y-129811176D02*
X117747193Y-123843739D01*
D16*
X124429997Y-121302159D02*
G75*
G03*
X124429997Y-121302159I-29997J0D01*
G01*
D18*
%TO.C,F1*%
X109002997Y-109418999D02*
X109002997Y-110181001D01*
X110018999Y-109164999D02*
X109256998Y-109164999D01*
X110018999Y-110435001D02*
X109256998Y-110435001D01*
X110781001Y-109164999D02*
X111543002Y-109164999D01*
X110781001Y-110435001D02*
X111543002Y-110435001D01*
X111797003Y-109418999D02*
X111797003Y-110181001D01*
X110527001Y-109419000D02*
G75*
G03*
X110368250Y-109863500I-31434J-239372D01*
G01*
X110273000Y-110308001D02*
G75*
G03*
X110369139Y-109863500I20487J228216D01*
G01*
D16*
X109629997Y-110200000D02*
G75*
G03*
X109629997Y-110200000I-29997J0D01*
G01*
D17*
%TO.C,C2*%
X114910000Y-106559420D02*
X114910000Y-106840580D01*
X113890000Y-106559420D02*
X113890000Y-106840580D01*
%TO.C,C1*%
X113310000Y-106534420D02*
X113310000Y-106815580D01*
X112290000Y-106534420D02*
X112290000Y-106815580D01*
D20*
%TO.C,LED1*%
X121045669Y-113789078D02*
X120745720Y-113489129D01*
X121145822Y-113789078D02*
X121045669Y-113789078D01*
X121145822Y-113789078D02*
X121845771Y-113789078D01*
X121845771Y-113789078D02*
X121945796Y-113789078D01*
X121945796Y-113789078D02*
X122245847Y-113489129D01*
X120745720Y-112439015D02*
X120745720Y-113489129D01*
X122245847Y-112439015D02*
X122245847Y-113489129D01*
X121823520Y-112089002D02*
X121493472Y-112419050D01*
X121143485Y-112079045D02*
X121153467Y-112079045D01*
X121143485Y-112079045D02*
X121823520Y-112079045D01*
X121153467Y-112079045D02*
X121493472Y-112419050D01*
X121493472Y-112079045D02*
X121493472Y-112419050D01*
X121823520Y-112079045D02*
X121823520Y-112089002D01*
X120743409Y-112059005D02*
X120743409Y-110908992D01*
X122243536Y-112059005D02*
X122243536Y-110908992D01*
X120743510Y-110908992D02*
X122223444Y-110908992D01*
D16*
X121933452Y-113098934D02*
G75*
G03*
X121933452Y-113098934I-29972J0D01*
G01*
D14*
%TO.C,U1*%
X103997010Y-107499975D02*
X106009913Y-107499975D01*
X100288450Y-107499975D02*
X101979891Y-107499975D01*
X103997010Y-116500001D02*
X106009913Y-116500001D01*
X100288450Y-116500001D02*
X100288450Y-107499975D01*
X100288450Y-116500001D02*
X101979891Y-116500001D01*
D16*
X108248521Y-107529973D02*
G75*
G03*
X108248521Y-107529973I-29997J0D01*
G01*
D20*
%TO.C,LED2*%
X117345669Y-113889078D02*
X117045720Y-113589129D01*
X117445822Y-113889078D02*
X117345669Y-113889078D01*
X117445822Y-113889078D02*
X118145771Y-113889078D01*
X118145771Y-113889078D02*
X118245796Y-113889078D01*
X118245796Y-113889078D02*
X118545847Y-113589129D01*
X117045720Y-112539015D02*
X117045720Y-113589129D01*
X118545847Y-112539015D02*
X118545847Y-113589129D01*
X118123520Y-112189002D02*
X117793472Y-112519050D01*
X117443485Y-112179045D02*
X117453467Y-112179045D01*
X117443485Y-112179045D02*
X118123520Y-112179045D01*
X117453467Y-112179045D02*
X117793472Y-112519050D01*
X117793472Y-112179045D02*
X117793472Y-112519050D01*
X118123520Y-112179045D02*
X118123520Y-112189002D01*
X117043409Y-112159005D02*
X117043409Y-111008992D01*
X118543536Y-112159005D02*
X118543536Y-111008992D01*
X117043510Y-111008992D02*
X118523444Y-111008992D01*
D16*
X118233452Y-113198934D02*
G75*
G03*
X118233452Y-113198934I-29972J0D01*
G01*
%TD*%
%LPC*%
%TO.C,U2*%
D21*
X122425000Y-91900000D02*
X119225000Y-91900000D01*
X119225000Y-89900000D01*
X122425000Y-89900000D01*
X122425000Y-91900000D01*
G36*
X122425000Y-91900000D02*
G01*
X119225000Y-91900000D01*
X119225000Y-89900000D01*
X122425000Y-89900000D01*
X122425000Y-91900000D01*
G37*
X118025000Y-91900000D02*
X102575000Y-91900000D01*
X102575000Y-89900000D01*
X118025000Y-89900000D01*
X118025000Y-91900000D01*
G36*
X118025000Y-91900000D02*
G01*
X102575000Y-91900000D01*
X102575000Y-89900000D01*
X118025000Y-89900000D01*
X118025000Y-91900000D01*
G37*
%TD*%
D22*
%TO.C,H1*%
X112500000Y-149900000D03*
D23*
X112500000Y-149900000D03*
%TD*%
D24*
%TO.C,U3*%
X113899975Y-114000102D03*
X113899975Y-110000102D03*
%TD*%
D25*
%TO.C,C3*%
X116000000Y-105900000D03*
X116000000Y-107450000D03*
%TD*%
D26*
%TO.C,R3*%
X123825000Y-119400000D03*
X122175000Y-119400000D03*
%TD*%
D25*
%TO.C,C4*%
X118800000Y-117925000D03*
X118800000Y-119475000D03*
%TD*%
D26*
%TO.C,R4*%
X123825000Y-117800000D03*
X122175000Y-117800000D03*
%TD*%
D27*
%TO.C,CN1*%
X122499936Y-97125171D03*
D28*
X102499936Y-97125171D03*
D29*
X121749872Y-102400000D03*
X121499936Y-94850088D03*
X121250000Y-102400000D03*
X120999809Y-94850088D03*
X120749872Y-102400000D03*
X120499936Y-94850088D03*
X120250000Y-102400000D03*
X119999809Y-94850088D03*
X119749872Y-102400000D03*
X119499936Y-94850088D03*
X119250000Y-102400000D03*
X116999809Y-94850088D03*
X116749872Y-102400000D03*
X116499936Y-94850088D03*
X116250000Y-102400000D03*
X115999809Y-94850088D03*
X115749872Y-102400000D03*
X115499936Y-94850088D03*
X115250000Y-102400000D03*
X114999809Y-94850088D03*
X114749872Y-102400000D03*
X114499936Y-94850088D03*
X114250000Y-102400000D03*
X113999809Y-94850088D03*
X113749872Y-102400000D03*
X113499936Y-94850088D03*
X113250000Y-102400000D03*
X112999809Y-94850088D03*
X112749872Y-102400000D03*
X112499936Y-94850088D03*
X112250000Y-102400000D03*
X111999809Y-94850088D03*
X111749872Y-102400000D03*
X111499936Y-94850342D03*
X111250000Y-102400000D03*
X110999809Y-94850342D03*
X110749872Y-102400000D03*
X110499936Y-94850342D03*
X110250000Y-102400000D03*
X109999809Y-94850342D03*
X109749872Y-102400000D03*
X109499936Y-94850342D03*
X109250000Y-102400000D03*
X108999809Y-94850342D03*
X108749872Y-102400000D03*
X108499936Y-94850342D03*
X108250000Y-102400000D03*
X107999809Y-94850342D03*
X107749872Y-102400000D03*
X107499936Y-94850342D03*
D30*
X107250000Y-102400254D03*
X106999809Y-94850342D03*
X106749872Y-102400254D03*
X106499936Y-94850342D03*
X106250000Y-102400254D03*
X105999809Y-94850342D03*
X105749872Y-102400254D03*
X105499936Y-94850342D03*
D29*
X105250000Y-102400000D03*
X104999809Y-94850342D03*
X104749872Y-102400000D03*
X104499936Y-94850342D03*
X104250000Y-102400000D03*
X103999809Y-94850342D03*
X103749872Y-102400000D03*
X103499936Y-94850342D03*
X103250000Y-102400000D03*
D31*
X102149923Y-101675082D03*
X122849949Y-101675082D03*
%TD*%
D26*
%TO.C,R1*%
X119325000Y-108500000D03*
X117675000Y-108500000D03*
%TD*%
%TO.C,R2*%
X122900000Y-108650000D03*
X121250000Y-108650000D03*
%TD*%
D32*
%TO.C,C5*%
X120500000Y-119475000D03*
X120500000Y-117925000D03*
%TD*%
D33*
%TO.C,USB2*%
X110444882Y-125150000D03*
X110444882Y-130150000D03*
D34*
X114844933Y-131150000D03*
X114844933Y-128649873D03*
X114844933Y-126649873D03*
X114844933Y-124150000D03*
D35*
X112145161Y-120149492D03*
X112145161Y-135150508D03*
%TD*%
D36*
%TO.C,USB1*%
X105749733Y-141800076D03*
X105749733Y-142450064D03*
X105749733Y-143100051D03*
X105749733Y-143750038D03*
X105749733Y-144400026D03*
D27*
X105749987Y-140675108D03*
D37*
X103100000Y-139500102D03*
X103100000Y-146700000D03*
D27*
X105749987Y-145524994D03*
%TD*%
D31*
%TO.C,Q1*%
X123372797Y-122008026D03*
D38*
X121100000Y-128591974D03*
D31*
X118827203Y-122008026D03*
%TD*%
D39*
%TO.C,F1*%
X109646634Y-109800000D03*
X111153366Y-109800000D03*
%TD*%
D25*
%TO.C,C2*%
X114400000Y-105925000D03*
X114400000Y-107475000D03*
%TD*%
%TO.C,C1*%
X112800000Y-105900000D03*
X112800000Y-107450000D03*
%TD*%
D40*
%TO.C,LED1*%
X121503429Y-113098934D03*
X121496571Y-111500000D03*
%TD*%
D41*
%TO.C,U1*%
X106598661Y-109100077D03*
X106598661Y-114890018D03*
D42*
X107098534Y-107679960D03*
X107098534Y-116320041D03*
D43*
X102918448Y-116320041D03*
X102918448Y-107679960D03*
D44*
X107718549Y-108800102D03*
X107718549Y-109599950D03*
D45*
X107718549Y-110750064D03*
X107718549Y-111750064D03*
X107718549Y-112249937D03*
X107718549Y-113249937D03*
D44*
X107718549Y-115199899D03*
X107718549Y-114400051D03*
D45*
X107718549Y-113750064D03*
X107718549Y-112750064D03*
X107718549Y-111249937D03*
X107718549Y-110249937D03*
%TD*%
D40*
%TO.C,LED2*%
X117803429Y-113198934D03*
X117796571Y-111600000D03*
%TD*%
%LPD*%
M02*
