%TF.GenerationSoftware,KiCad,Pcbnew,7.0.5*%
%TF.CreationDate,2023-08-28T16:59:48-05:00*%
%TF.ProjectId,Chimera_0002_thea,4368696d-6572-4615-9f30-3030325f7468,rev?*%
%TF.SameCoordinates,Original*%
%TF.FileFunction,Copper,L1,Top*%
%TF.FilePolarity,Positive*%
%FSLAX46Y46*%
G04 Gerber Fmt 4.6, Leading zero omitted, Abs format (unit mm)*
G04 Created by KiCad (PCBNEW 7.0.5) date 2023-08-28 16:59:48*
%MOMM*%
%LPD*%
G01*
G04 APERTURE LIST*
G04 Aperture macros list*
%AMRoundRect*
0 Rectangle with rounded corners*
0 $1 Rounding radius*
0 $2 $3 $4 $5 $6 $7 $8 $9 X,Y pos of 4 corners*
0 Add a 4 corners polygon primitive as box body*
4,1,4,$2,$3,$4,$5,$6,$7,$8,$9,$2,$3,0*
0 Add four circle primitives for the rounded corners*
1,1,$1+$1,$2,$3*
1,1,$1+$1,$4,$5*
1,1,$1+$1,$6,$7*
1,1,$1+$1,$8,$9*
0 Add four rect primitives between the rounded corners*
20,1,$1+$1,$2,$3,$4,$5,0*
20,1,$1+$1,$4,$5,$6,$7,0*
20,1,$1+$1,$6,$7,$8,$9,0*
20,1,$1+$1,$8,$9,$2,$3,0*%
G04 Aperture macros list end*
%TA.AperFunction,ComponentPad*%
%ADD10C,3.600000*%
%TD*%
%TA.AperFunction,ConnectorPad*%
%ADD11C,6.400000*%
%TD*%
%TA.AperFunction,SMDPad,CuDef*%
%ADD12R,1.800000X2.000000*%
%TD*%
%TA.AperFunction,SMDPad,CuDef*%
%ADD13RoundRect,0.225000X-0.250000X0.225000X-0.250000X-0.225000X0.250000X-0.225000X0.250000X0.225000X0*%
%TD*%
%TA.AperFunction,SMDPad,CuDef*%
%ADD14RoundRect,0.200000X0.200000X0.275000X-0.200000X0.275000X-0.200000X-0.275000X0.200000X-0.275000X0*%
%TD*%
%TA.AperFunction,SMDPad,CuDef*%
%ADD15R,0.350000X1.450000*%
%TD*%
%TA.AperFunction,SMDPad,CuDef*%
%ADD16R,0.300000X1.550013*%
%TD*%
%TA.AperFunction,SMDPad,CuDef*%
%ADD17R,0.300000X1.524003*%
%TD*%
%TA.AperFunction,SMDPad,CuDef*%
%ADD18R,1.300000X2.800000*%
%TD*%
%TA.AperFunction,SMDPad,CuDef*%
%ADD19RoundRect,0.225000X0.250000X-0.225000X0.250000X0.225000X-0.250000X0.225000X-0.250000X-0.225000X0*%
%TD*%
%TA.AperFunction,SMDPad,CuDef*%
%ADD20R,3.000000X1.000000*%
%TD*%
%TA.AperFunction,SMDPad,CuDef*%
%ADD21R,5.499873X3.000000*%
%TD*%
%TA.AperFunction,SMDPad,CuDef*%
%ADD22R,1.250013X0.400000*%
%TD*%
%TA.AperFunction,ComponentPad*%
%ADD23C,1.200000*%
%TD*%
%TA.AperFunction,ComponentPad*%
%ADD24O,2.200000X1.300000*%
%TD*%
%TA.AperFunction,SMDPad,CuDef*%
%ADD25R,6.000000X6.500025*%
%TD*%
%TA.AperFunction,SMDPad,CuDef*%
%ADD26R,0.806477X0.864008*%
%TD*%
%TA.AperFunction,SMDPad,CuDef*%
%ADD27R,0.800000X0.800000*%
%TD*%
%TA.AperFunction,ComponentPad*%
%ADD28O,2.100000X1.000000*%
%TD*%
%TA.AperFunction,ComponentPad*%
%ADD29O,1.800000X1.000000*%
%TD*%
%TA.AperFunction,SMDPad,CuDef*%
%ADD30R,1.240005X0.600000*%
%TD*%
%TA.AperFunction,SMDPad,CuDef*%
%ADD31R,1.240005X0.300000*%
%TD*%
%TA.AperFunction,ViaPad*%
%ADD32C,0.450000*%
%TD*%
%TA.AperFunction,ViaPad*%
%ADD33C,0.330000*%
%TD*%
%TA.AperFunction,ViaPad*%
%ADD34C,0.400000*%
%TD*%
%TA.AperFunction,Conductor*%
%ADD35C,0.127000*%
%TD*%
%TA.AperFunction,Conductor*%
%ADD36C,0.254000*%
%TD*%
%TA.AperFunction,Conductor*%
%ADD37C,0.200000*%
%TD*%
%TA.AperFunction,Conductor*%
%ADD38C,0.500000*%
%TD*%
G04 APERTURE END LIST*
D10*
%TO.P,H1,1*%
%TO.N,N/C*%
X112500000Y-149900000D03*
D11*
X112500000Y-149900000D03*
%TD*%
D12*
%TO.P,U3,1,K*%
%TO.N,GND*%
X113899975Y-114000102D03*
%TO.P,U3,2,A*%
%TO.N,+5V*%
X113899975Y-110000102D03*
%TD*%
D13*
%TO.P,C3,1*%
%TO.N,GND*%
X116000000Y-105900000D03*
%TO.P,C3,2*%
%TO.N,+5V*%
X116000000Y-107450000D03*
%TD*%
D14*
%TO.P,R3,1*%
%TO.N,Net-(Q1-ADJ)*%
X123825000Y-119400000D03*
%TO.P,R3,2*%
%TO.N,Net-(C4-Pad1)*%
X122175000Y-119400000D03*
%TD*%
D13*
%TO.P,C4,1*%
%TO.N,Net-(C4-Pad1)*%
X118800000Y-117925000D03*
%TO.P,C4,2*%
%TO.N,+5V*%
X118800000Y-119475000D03*
%TD*%
D15*
%TO.P,U2,1,1*%
%TO.N,GND*%
X103250000Y-91175000D03*
%TO.P,U2,3,1*%
%TO.N,Net-(CN1-1-Pad74)*%
X103750000Y-91175000D03*
%TO.P,U2,5,1*%
%TO.N,Net-(CN1-1-Pad71)*%
X104250000Y-91175000D03*
%TO.P,U2,7,1*%
%TO.N,Net-(CN1-1-Pad69)*%
X104750000Y-91175000D03*
%TO.P,U2,9,1*%
%TO.N,Net-(CN1-1-Pad67)*%
X105250000Y-91175000D03*
%TO.P,U2,11,1*%
%TO.N,Net-(CN1-1-Pad66)*%
X105750000Y-91175000D03*
%TO.P,U2,13,13*%
%TO.N,Net-(CN1-20-Pad63)*%
X106250000Y-91175000D03*
%TO.P,U2,15,15*%
%TO.N,Net-(CN1-20-Pad61)*%
X106750000Y-91175000D03*
%TO.P,U2,17,17*%
%TO.N,Net-(CN1-20-Pad59)*%
X107250000Y-91175000D03*
%TO.P,U2,19,19*%
%TO.N,Net-(CN1-20-Pad57)*%
X107750000Y-91175000D03*
%TO.P,U2,21,20*%
%TO.N,Net-(CN1-20-Pad55)*%
X108250000Y-91175000D03*
%TO.P,U2,23,20*%
%TO.N,Net-(CN1-20-Pad53)*%
X108750000Y-91175000D03*
%TO.P,U2,25,20*%
%TO.N,Net-(CN1-20-Pad51)*%
X109250000Y-91175000D03*
%TO.P,U2,27,20*%
%TO.N,Net-(CN1-20-Pad49)*%
X109750000Y-91175000D03*
%TO.P,U2,29,20*%
%TO.N,Net-(CN1-20-Pad47)*%
X110250000Y-91175000D03*
%TO.P,U2,31,20*%
%TO.N,Net-(CN1-20-Pad45)*%
X110750000Y-91175000D03*
%TO.P,U2,33,20*%
%TO.N,Net-(CN1-20-Pad43)*%
X111250000Y-91175000D03*
%TO.P,U2,35,20*%
%TO.N,Net-(CN1-20-Pad41)*%
X111750000Y-91175000D03*
%TO.P,U2,37,20*%
%TO.N,Net-(CN1-20-Pad39)*%
X112250000Y-91175000D03*
%TO.P,U2,39,20*%
%TO.N,Net-(CN1-20-Pad37)*%
X112750000Y-91175000D03*
%TO.P,U2,41,20*%
%TO.N,Net-(CN1-20-Pad35)*%
X113250000Y-91175000D03*
%TO.P,U2,43,20*%
%TO.N,Net-(CN1-20-Pad33)*%
X113750000Y-91175000D03*
%TO.P,U2,45,20*%
%TO.N,Net-(CN1-20-Pad32)*%
X114250000Y-91175000D03*
%TO.P,U2,47,20*%
%TO.N,Net-(CN1-20-Pad30)*%
X114750000Y-91175000D03*
%TO.P,U2,49,20*%
%TO.N,Net-(CN1-20-Pad27)*%
X115250000Y-91175000D03*
%TO.P,U2,51,20*%
%TO.N,Net-(CN1-20-Pad25)*%
X115750000Y-91175000D03*
%TO.P,U2,53,20*%
%TO.N,Net-(CN1-20-Pad23)*%
X116250000Y-91175000D03*
%TO.P,U2,55,20*%
%TO.N,Net-(CN1-20-Pad21)*%
X116750000Y-91175000D03*
%TO.P,U2,57,20*%
%TO.N,Net-(CN1-Pad20)*%
X117250000Y-91175000D03*
%TO.P,U2,67,1*%
%TO.N,Net-(CN1-1-Pad10)*%
X119750000Y-91175000D03*
%TO.P,U2,69,1*%
%TO.N,Net-(CN1-1-Pad8)*%
X120250000Y-91175000D03*
%TO.P,U2,71,1*%
%TO.N,Net-(CN1-1-Pad6)*%
X120750000Y-91175000D03*
%TO.P,U2,73,1*%
%TO.N,Net-(CN1-1-Pad4)*%
X121250000Y-91175000D03*
%TO.P,U2,75,1*%
%TO.N,GND*%
X121750000Y-91175000D03*
%TD*%
D14*
%TO.P,R4,1*%
%TO.N,Net-(Q1-ADJ)*%
X123825000Y-117800000D03*
%TO.P,R4,2*%
%TO.N,+3V3*%
X122175000Y-117800000D03*
%TD*%
D16*
%TO.P,CN1,1,1*%
%TO.N,+3V3*%
X121749872Y-102400000D03*
%TO.P,CN1,2,1*%
%TO.N,GND*%
X121499936Y-94850088D03*
%TO.P,CN1,3,1*%
%TO.N,+5V*%
X121250000Y-102400000D03*
%TO.P,CN1,4,1*%
%TO.N,Net-(CN1-1-Pad4)*%
X120999809Y-94850088D03*
%TO.P,CN1,5,1*%
%TO.N,Net-(CN1-1-Pad5)*%
X120749872Y-102400000D03*
%TO.P,CN1,6,1*%
%TO.N,Net-(CN1-1-Pad6)*%
X120499936Y-94850088D03*
%TO.P,CN1,7,1*%
%TO.N,Net-(CN1-1-Pad7)*%
X120250000Y-102400000D03*
%TO.P,CN1,8,1*%
%TO.N,Net-(CN1-1-Pad8)*%
X119999809Y-94850088D03*
%TO.P,CN1,9,1*%
%TO.N,Net-(CN1-1-Pad9)*%
X119749872Y-102400000D03*
%TO.P,CN1,10,1*%
%TO.N,Net-(CN1-1-Pad10)*%
X119499936Y-94850088D03*
%TO.P,CN1,11,1*%
%TO.N,Net-(CN1-1-Pad11)*%
X119250000Y-102400000D03*
%TO.P,CN1,20,20*%
%TO.N,Net-(CN1-Pad20)*%
X116999809Y-94850088D03*
%TO.P,CN1,21,20*%
%TO.N,Net-(CN1-20-Pad21)*%
X116749872Y-102400000D03*
%TO.P,CN1,22,20*%
X116499936Y-94850088D03*
%TO.P,CN1,23,20*%
%TO.N,Net-(CN1-20-Pad23)*%
X116250000Y-102400000D03*
%TO.P,CN1,24,20*%
X115999809Y-94850088D03*
%TO.P,CN1,25,20*%
%TO.N,Net-(CN1-20-Pad25)*%
X115749872Y-102400000D03*
%TO.P,CN1,26,20*%
X115499936Y-94850088D03*
%TO.P,CN1,27,20*%
%TO.N,Net-(CN1-20-Pad27)*%
X115250000Y-102400000D03*
%TO.P,CN1,28,20*%
X114999809Y-94850088D03*
%TO.P,CN1,29,20*%
%TO.N,USB+*%
X114749872Y-102400000D03*
%TO.P,CN1,30,20*%
%TO.N,Net-(CN1-20-Pad30)*%
X114499936Y-94850088D03*
%TO.P,CN1,31,20*%
%TO.N,USB-*%
X114250000Y-102400000D03*
%TO.P,CN1,32,20*%
%TO.N,Net-(CN1-20-Pad32)*%
X113999809Y-94850088D03*
%TO.P,CN1,33,20*%
%TO.N,Net-(CN1-20-Pad33)*%
X113749872Y-102400000D03*
%TO.P,CN1,34,20*%
X113499936Y-94850088D03*
%TO.P,CN1,35,20*%
%TO.N,Net-(CN1-20-Pad35)*%
X113250000Y-102400000D03*
%TO.P,CN1,36,20*%
X112999809Y-94850088D03*
%TO.P,CN1,37,20*%
%TO.N,Net-(CN1-20-Pad37)*%
X112749872Y-102400000D03*
%TO.P,CN1,38,20*%
X112499936Y-94850088D03*
%TO.P,CN1,39,20*%
%TO.N,Net-(CN1-20-Pad39)*%
X112250000Y-102400000D03*
%TO.P,CN1,40,20*%
X111999809Y-94850088D03*
%TO.P,CN1,41,20*%
%TO.N,Net-(CN1-20-Pad41)*%
X111749872Y-102400000D03*
%TO.P,CN1,42,20*%
X111499936Y-94850342D03*
%TO.P,CN1,43,20*%
%TO.N,Net-(CN1-20-Pad43)*%
X111250000Y-102400000D03*
%TO.P,CN1,44,20*%
X110999809Y-94850342D03*
%TO.P,CN1,45,20*%
%TO.N,Net-(CN1-20-Pad45)*%
X110749872Y-102400000D03*
%TO.P,CN1,46,20*%
X110499936Y-94850342D03*
%TO.P,CN1,47,20*%
%TO.N,Net-(CN1-20-Pad47)*%
X110250000Y-102400000D03*
%TO.P,CN1,48,20*%
X109999809Y-94850342D03*
%TO.P,CN1,49,20*%
%TO.N,Net-(CN1-20-Pad49)*%
X109749872Y-102400000D03*
%TO.P,CN1,50,20*%
X109499936Y-94850342D03*
%TO.P,CN1,51,20*%
%TO.N,Net-(CN1-20-Pad51)*%
X109250000Y-102400000D03*
%TO.P,CN1,52,20*%
X108999809Y-94850342D03*
%TO.P,CN1,53,20*%
%TO.N,Net-(CN1-20-Pad53)*%
X108749872Y-102400000D03*
%TO.P,CN1,54,20*%
X108499936Y-94850342D03*
%TO.P,CN1,55,20*%
%TO.N,Net-(CN1-20-Pad55)*%
X108250000Y-102400000D03*
%TO.P,CN1,56,20*%
X107999809Y-94850342D03*
%TO.P,CN1,57,20*%
%TO.N,Net-(CN1-20-Pad57)*%
X107749872Y-102400000D03*
%TO.P,CN1,58,20*%
X107499936Y-94850342D03*
D17*
%TO.P,CN1,59,20*%
%TO.N,Net-(CN1-20-Pad59)*%
X107250000Y-102400254D03*
%TO.P,CN1,60,20*%
X106999809Y-94850342D03*
%TO.P,CN1,61,20*%
%TO.N,Net-(CN1-20-Pad61)*%
X106749872Y-102400254D03*
%TO.P,CN1,62,20*%
X106499936Y-94850342D03*
%TO.P,CN1,63,20*%
%TO.N,Net-(CN1-20-Pad63)*%
X106250000Y-102400254D03*
%TO.P,CN1,64,20*%
X105999809Y-94850342D03*
%TO.P,CN1,65,20*%
%TO.N,Net-(CN1-1-Pad66)*%
X105749872Y-102400254D03*
%TO.P,CN1,66,1*%
X105499936Y-94850342D03*
D16*
%TO.P,CN1,67,1*%
%TO.N,Net-(CN1-1-Pad67)*%
X105250000Y-102400000D03*
%TO.P,CN1,68,1*%
X104999809Y-94850342D03*
%TO.P,CN1,69,1*%
%TO.N,Net-(CN1-1-Pad69)*%
X104749872Y-102400000D03*
%TO.P,CN1,70,1*%
X104499936Y-94850342D03*
%TO.P,CN1,71,1*%
%TO.N,Net-(CN1-1-Pad71)*%
X104250000Y-102400000D03*
%TO.P,CN1,72,1*%
X103999809Y-94850342D03*
%TO.P,CN1,73,1*%
%TO.N,Net-(CN1-1-Pad73)*%
X103749872Y-102400000D03*
%TO.P,CN1,74,1*%
%TO.N,Net-(CN1-1-Pad74)*%
X103499936Y-94850342D03*
%TO.P,CN1,75,1*%
%TO.N,GND*%
X103250000Y-102400000D03*
D18*
%TO.P,CN1,76*%
%TO.N,N/C*%
X102149923Y-101675082D03*
%TO.P,CN1,77*%
X122849949Y-101675082D03*
%TD*%
D14*
%TO.P,R1,1*%
%TO.N,+3V3*%
X119325000Y-108500000D03*
%TO.P,R1,2*%
%TO.N,Net-(LED2-+)*%
X117675000Y-108500000D03*
%TD*%
%TO.P,R2,1*%
%TO.N,+5V*%
X122900000Y-108650000D03*
%TO.P,R2,2*%
%TO.N,Net-(LED1-+)*%
X121250000Y-108650000D03*
%TD*%
D19*
%TO.P,C5,1*%
%TO.N,Net-(C4-Pad1)*%
X120500000Y-119475000D03*
%TO.P,C5,2*%
%TO.N,+3V3*%
X120500000Y-117925000D03*
%TD*%
D20*
%TO.P,USB2,1,GND*%
%TO.N,GND*%
X114844933Y-131150000D03*
%TO.P,USB2,2,D+*%
%TO.N,USB+*%
X114844933Y-128649873D03*
%TO.P,USB2,3,D-*%
%TO.N,USB-*%
X114844933Y-126649873D03*
%TO.P,USB2,4,VCC*%
%TO.N,VBUS*%
X114844933Y-124150000D03*
D21*
%TO.P,USB2,5,5*%
%TO.N,GND*%
X112145161Y-120149492D03*
%TO.P,USB2,6,6*%
X112145161Y-135150508D03*
%TD*%
D22*
%TO.P,USB1,1,V+*%
%TO.N,VBUS*%
X105749733Y-141800076D03*
%TO.P,USB1,2,D-*%
%TO.N,USB-*%
X105749733Y-142450064D03*
%TO.P,USB1,3,D+*%
%TO.N,USB+*%
X105749733Y-143100051D03*
%TO.P,USB1,4,ID*%
%TO.N,unconnected-(USB1-ID-Pad4)*%
X105749733Y-143750038D03*
%TO.P,USB1,5,V-*%
%TO.N,GND*%
X105749733Y-144400026D03*
D23*
%TO.P,USB1,SH0,MTN*%
X105749987Y-140675108D03*
D24*
%TO.P,USB1,SH1*%
X103100000Y-139500102D03*
%TO.P,USB1,SH2,2*%
X103100000Y-146700000D03*
D23*
%TO.P,USB1,SH3,SH3*%
X105749987Y-145524994D03*
%TD*%
D18*
%TO.P,Q1,1,ADJ*%
%TO.N,Net-(Q1-ADJ)*%
X123372797Y-122008026D03*
D25*
%TO.P,Q1,2,OUTPUT*%
%TO.N,+3V3*%
X121100000Y-128591974D03*
D18*
%TO.P,Q1,3,INPUT*%
%TO.N,+5V*%
X118827203Y-122008026D03*
%TD*%
D26*
%TO.P,F1,1,1*%
%TO.N,VBUS*%
X109646634Y-109800000D03*
%TO.P,F1,2,2*%
%TO.N,+5V*%
X111153366Y-109800000D03*
%TD*%
D13*
%TO.P,C2,1*%
%TO.N,GND*%
X114400000Y-105925000D03*
%TO.P,C2,2*%
%TO.N,+5V*%
X114400000Y-107475000D03*
%TD*%
%TO.P,C1,1*%
%TO.N,GND*%
X112800000Y-105900000D03*
%TO.P,C1,2*%
%TO.N,+5V*%
X112800000Y-107450000D03*
%TD*%
D27*
%TO.P,LED1,1,-*%
%TO.N,GND*%
X121503429Y-113098934D03*
%TO.P,LED1,2,+*%
%TO.N,Net-(LED1-+)*%
X121496571Y-111500000D03*
%TD*%
D28*
%TO.P,U1,1,SHELL*%
%TO.N,GND*%
X107098534Y-107679960D03*
%TO.P,U1,2,SHELL*%
X107098534Y-116320041D03*
D29*
%TO.P,U1,3,SHELL*%
X102918448Y-116320041D03*
%TO.P,U1,4,SHELL*%
X102918448Y-107679960D03*
D30*
%TO.P,U1,A1B12,GND*%
X107718549Y-108800102D03*
%TO.P,U1,A4B9,VBUS*%
%TO.N,VBUS*%
X107718549Y-109599950D03*
D31*
%TO.P,U1,A5,CC1*%
%TO.N,unconnected-(U1-CC1-PadA5)*%
X107718549Y-110750064D03*
%TO.P,U1,A6,DP1*%
%TO.N,USB+*%
X107718549Y-111750064D03*
%TO.P,U1,A7,DN1*%
%TO.N,USB-*%
X107718549Y-112249937D03*
%TO.P,U1,A8,SBU1*%
%TO.N,unconnected-(U1-SBU1-PadA8)*%
X107718549Y-113249937D03*
D30*
%TO.P,U1,B1A12,GND*%
%TO.N,GND*%
X107718549Y-115199899D03*
%TO.P,U1,B4A9,VBUS*%
%TO.N,VBUS*%
X107718549Y-114400051D03*
D31*
%TO.P,U1,B5,CC2*%
%TO.N,unconnected-(U1-CC2-PadB5)*%
X107718549Y-113750064D03*
%TO.P,U1,B6,DP2*%
%TO.N,USB+*%
X107718549Y-112750064D03*
%TO.P,U1,B7,DN2*%
%TO.N,USB-*%
X107718549Y-111249937D03*
%TO.P,U1,B8,SBU2*%
%TO.N,unconnected-(U1-SBU2-PadB8)*%
X107718549Y-110249937D03*
%TD*%
D27*
%TO.P,LED2,1,-*%
%TO.N,GND*%
X117803429Y-113198934D03*
%TO.P,LED2,2,+*%
%TO.N,Net-(LED2-+)*%
X117796571Y-111600000D03*
%TD*%
D32*
%TO.N,Net-(CN1-1-Pad11)*%
X119250000Y-103650000D03*
%TO.N,Net-(CN1-20-Pad21)*%
X116750000Y-103650000D03*
%TO.N,Net-(CN1-20-Pad23)*%
X116250000Y-100900000D03*
%TO.N,Net-(CN1-20-Pad25)*%
X115750000Y-103650000D03*
%TO.N,Net-(CN1-20-Pad27)*%
X115250000Y-100900000D03*
%TO.N,Net-(CN1-1-Pad66)*%
X105750000Y-103900000D03*
%TO.N,Net-(CN1-20-Pad33)*%
X113750000Y-103650000D03*
%TO.N,Net-(CN1-20-Pad35)*%
X113250000Y-100900000D03*
%TO.N,Net-(CN1-20-Pad37)*%
X112750000Y-103650000D03*
%TO.N,Net-(CN1-1-Pad5)*%
X120749872Y-100900000D03*
%TO.N,Net-(CN1-20-Pad39)*%
X112250000Y-100900000D03*
%TO.N,Net-(CN1-1-Pad69)*%
X104750000Y-103900000D03*
%TO.N,Net-(CN1-1-Pad71)*%
X104000000Y-100900000D03*
%TO.N,Net-(CN1-1-Pad73)*%
X103750000Y-103900000D03*
%TO.N,Net-(CN1-20-Pad41)*%
X111750000Y-103650000D03*
D33*
%TO.N,+3V3*%
X120500000Y-116600000D03*
X121100000Y-132700000D03*
D34*
X121749872Y-99000000D03*
D32*
%TO.N,Net-(CN1-20-Pad43)*%
X111250000Y-100900000D03*
%TO.N,Net-(CN1-20-Pad45)*%
X110750000Y-103650000D03*
%TO.N,Net-(CN1-20-Pad47)*%
X110250000Y-101400000D03*
%TO.N,Net-(CN1-20-Pad49)*%
X109750000Y-103650000D03*
%TO.N,Net-(CN1-20-Pad51)*%
X109250000Y-101150000D03*
%TO.N,Net-(CN1-20-Pad53)*%
X108750000Y-103900000D03*
%TO.N,Net-(CN1-20-Pad55)*%
X108250000Y-101150000D03*
%TO.N,Net-(CN1-20-Pad57)*%
X107750000Y-103900000D03*
%TO.N,Net-(CN1-20-Pad59)*%
X107250000Y-101400000D03*
%TO.N,Net-(CN1-20-Pad61)*%
X106750000Y-103900000D03*
%TO.N,Net-(CN1-1-Pad67)*%
X105250000Y-100339395D03*
%TO.N,Net-(CN1-1-Pad7)*%
X120250000Y-103650000D03*
%TO.N,Net-(CN1-20-Pad63)*%
X106250000Y-100400000D03*
%TO.N,Net-(CN1-1-Pad9)*%
X119749872Y-100900000D03*
%TO.N,GND*%
X117925000Y-114350000D03*
X102800000Y-103900000D03*
X122100000Y-94800000D03*
X121250000Y-114250000D03*
X107000000Y-144400000D03*
X114400000Y-105100000D03*
X117300000Y-131100000D03*
X116000000Y-105100000D03*
X109000000Y-108750000D03*
X112800000Y-105100000D03*
X115400000Y-114000000D03*
X109000000Y-115250000D03*
%TO.N,USB+*%
X114750000Y-103650000D03*
%TO.N,USB-*%
X114250000Y-100900000D03*
%TO.N,+5V*%
X121250000Y-103650000D03*
X123750000Y-108650000D03*
%TO.N,VBUS*%
X109000000Y-114400000D03*
X108500000Y-123100000D03*
X109700000Y-110900000D03*
X107400000Y-141500000D03*
%TD*%
D35*
%TO.N,Net-(CN1-1-Pad11)*%
X119250000Y-103650000D02*
X119250000Y-102400000D01*
%TO.N,Net-(CN1-20-Pad21)*%
X116750000Y-103650000D02*
X116750000Y-102400128D01*
X116750000Y-96150000D02*
X116749872Y-96150128D01*
X116750000Y-102400128D02*
X116749872Y-102400000D01*
X116749872Y-96150128D02*
X116749872Y-102400000D01*
X116499936Y-94850088D02*
X116499936Y-95899936D01*
X116499936Y-95899936D02*
X116750000Y-96150000D01*
X116750000Y-103650000D02*
X116750000Y-104150000D01*
X116750000Y-93150000D02*
X116499936Y-93400064D01*
X116499936Y-93400064D02*
X116499936Y-94850088D01*
X116750000Y-91175000D02*
X116750000Y-93150000D01*
%TO.N,Net-(CN1-20-Pad23)*%
X115999809Y-93150191D02*
X115999809Y-94850088D01*
X116250000Y-96150000D02*
X116250000Y-100900000D01*
X116250000Y-92900000D02*
X115999809Y-93150191D01*
X115999809Y-95899809D02*
X116250000Y-96150000D01*
X116250000Y-91175000D02*
X116250000Y-92900000D01*
X115999809Y-94850088D02*
X115999809Y-95899809D01*
X116250000Y-100900000D02*
X116250000Y-102400000D01*
X116250000Y-102400000D02*
X116250000Y-104150000D01*
%TO.N,Net-(CN1-1-Pad10)*%
X119750000Y-92150000D02*
X119499936Y-92400064D01*
X119750000Y-92150000D02*
X119750000Y-91175000D01*
X119499936Y-92400064D02*
X119499936Y-94850088D01*
%TO.N,Net-(CN1-20-Pad25)*%
X115750000Y-92900000D02*
X115499936Y-93150064D01*
X115749872Y-96124872D02*
X115749872Y-102400000D01*
X115750000Y-103650000D02*
X115750000Y-102400128D01*
X115499936Y-95874936D02*
X115749872Y-96124872D01*
X115750000Y-103650000D02*
X115750000Y-104150000D01*
X115499936Y-93150064D02*
X115499936Y-94850088D01*
X115499936Y-94850088D02*
X115499936Y-95874936D01*
X115750000Y-102400128D02*
X115749872Y-102400000D01*
X115750000Y-91175000D02*
X115750000Y-92900000D01*
%TO.N,Net-(CN1-20-Pad27)*%
X115250000Y-91175000D02*
X115250000Y-92900000D01*
X115250000Y-92900000D02*
X114999809Y-93150191D01*
X115250000Y-96150000D02*
X114999809Y-95899809D01*
X114999809Y-93150191D02*
X114999809Y-94850088D01*
X115250000Y-102400000D02*
X115250000Y-104150000D01*
X114999809Y-95899809D02*
X114999809Y-94850088D01*
X115250000Y-100900000D02*
X115250000Y-96150000D01*
X115250000Y-102400000D02*
X115250000Y-100900000D01*
%TO.N,Net-(CN1-1-Pad66)*%
X105750000Y-103900000D02*
X105749872Y-103899872D01*
X105749872Y-102400254D02*
X105749872Y-99149872D01*
X105499936Y-92277064D02*
X105499936Y-94850342D01*
X105749872Y-103899872D02*
X105749872Y-102400254D01*
X105499936Y-96154127D02*
X105499936Y-94850342D01*
X105749872Y-99149872D02*
X105500000Y-98900000D01*
X105500000Y-98900000D02*
X105500000Y-96154191D01*
X105500000Y-96154191D02*
X105499936Y-96154127D01*
X105750000Y-91175000D02*
X105750000Y-92027000D01*
X105750000Y-92027000D02*
X105499936Y-92277064D01*
%TO.N,Net-(CN1-20-Pad33)*%
X113750000Y-91175000D02*
X113750000Y-92027000D01*
X113750000Y-102400128D02*
X113749872Y-102400000D01*
X113749872Y-96100192D02*
X113749872Y-102400000D01*
X113750000Y-96100064D02*
X113749872Y-96100192D01*
X113750000Y-92027000D02*
X113499936Y-92277064D01*
X113499936Y-94850088D02*
X113499936Y-95850000D01*
X113750000Y-103650000D02*
X113750000Y-102400128D01*
X113499936Y-92277064D02*
X113499936Y-94850088D01*
X113499936Y-95850000D02*
X113750000Y-96100064D01*
%TO.N,Net-(CN1-20-Pad35)*%
X113250000Y-100900000D02*
X113250000Y-96175191D01*
X112999809Y-92277191D02*
X112999809Y-94850088D01*
X113250000Y-96175191D02*
X112999809Y-95925000D01*
X112999809Y-95925000D02*
X112999809Y-94850088D01*
X113250000Y-91175000D02*
X113250000Y-92027000D01*
X113250000Y-100900000D02*
X113250000Y-102400000D01*
X113250000Y-92027000D02*
X112999809Y-92277191D01*
%TO.N,Net-(CN1-20-Pad37)*%
X112750000Y-92027000D02*
X112499936Y-92277064D01*
X112749872Y-102400000D02*
X112749872Y-96249872D01*
X112499936Y-95999936D02*
X112499936Y-94850088D01*
X112750000Y-102400128D02*
X112749872Y-102400000D01*
X112749872Y-96249872D02*
X112499936Y-95999936D01*
X112750000Y-91175000D02*
X112750000Y-92027000D01*
X112750000Y-103650000D02*
X112750000Y-102400128D01*
X112499936Y-92277064D02*
X112499936Y-94850088D01*
%TO.N,Net-(CN1-1-Pad5)*%
X120749872Y-100900000D02*
X120749872Y-102400000D01*
%TO.N,Net-(CN1-20-Pad39)*%
X111999809Y-92277191D02*
X111999809Y-94850088D01*
X112250000Y-92027000D02*
X111999809Y-92277191D01*
X112250000Y-91175000D02*
X112250000Y-92027000D01*
X112250000Y-96259592D02*
X111999809Y-96009401D01*
X112250000Y-100900000D02*
X112250000Y-102400000D01*
X112250000Y-100900000D02*
X112250000Y-96259592D01*
X111999809Y-94850088D02*
X111999809Y-96009401D01*
%TO.N,Net-(CN1-1-Pad69)*%
X104499936Y-100448997D02*
X104749872Y-100698933D01*
X104499936Y-92277064D02*
X104499936Y-94850342D01*
X104499936Y-94850342D02*
X104499936Y-100448997D01*
X104750000Y-103900000D02*
X104749872Y-103899872D01*
X104750000Y-92027000D02*
X104499936Y-92277064D01*
X104749872Y-103899872D02*
X104749872Y-102400000D01*
X104750000Y-91175000D02*
X104750000Y-92027000D01*
X104749872Y-100698933D02*
X104749872Y-102400000D01*
%TO.N,Net-(CN1-1-Pad71)*%
X104200000Y-100700000D02*
X104200000Y-95856412D01*
X104000000Y-100900000D02*
X104000000Y-101107332D01*
X103999809Y-95656221D02*
X103999809Y-94850342D01*
X104250000Y-92027000D02*
X103999809Y-92277191D01*
X104250000Y-91175000D02*
X104250000Y-92027000D01*
X103999809Y-92277191D02*
X103999809Y-94850342D01*
X104250000Y-101357332D02*
X104250000Y-102400000D01*
X104000000Y-101107332D02*
X104250000Y-101357332D01*
X104200000Y-95856412D02*
X103999809Y-95656221D01*
X104000000Y-100900000D02*
X104200000Y-100700000D01*
%TO.N,Net-(CN1-1-Pad73)*%
X103750000Y-103900000D02*
X103749872Y-103899872D01*
X103749872Y-103899872D02*
X103749872Y-102400000D01*
%TO.N,Net-(CN1-20-Pad41)*%
X111750000Y-91175000D02*
X111750000Y-92027000D01*
X111750000Y-92027000D02*
X111499936Y-92277064D01*
X111749872Y-102400000D02*
X111749872Y-96400000D01*
X111499936Y-92277064D02*
X111499936Y-94850342D01*
X111499936Y-94850342D02*
X111499936Y-96150064D01*
X111749872Y-96400000D02*
X111499936Y-96150064D01*
X111750000Y-102400128D02*
X111749872Y-102400000D01*
X111750000Y-103650000D02*
X111750000Y-102400128D01*
D36*
%TO.N,+3V3*%
X122000000Y-103400000D02*
X122000000Y-105825000D01*
X120500000Y-109675000D02*
X119325000Y-108500000D01*
X121749872Y-102400000D02*
X121749872Y-103149872D01*
X121100000Y-121700000D02*
X123000000Y-119800000D01*
X122050000Y-117925000D02*
X122175000Y-117800000D01*
X121100000Y-128591974D02*
X121100000Y-121700000D01*
X121749872Y-103149872D02*
X122000000Y-103400000D01*
X123000000Y-118625000D02*
X122175000Y-117800000D01*
X123000000Y-119800000D02*
X123000000Y-118625000D01*
X120500000Y-117925000D02*
X120500000Y-116600000D01*
X122000000Y-105825000D02*
X119325000Y-108500000D01*
X120500000Y-117925000D02*
X122050000Y-117925000D01*
D35*
X121749872Y-99000000D02*
X121749872Y-102400000D01*
D36*
X120500000Y-116600000D02*
X120500000Y-109675000D01*
X121100000Y-128591974D02*
X121100000Y-132700000D01*
D35*
%TO.N,Net-(CN1-20-Pad43)*%
X111250000Y-92027000D02*
X110999809Y-92277191D01*
X110999809Y-92277191D02*
X110999809Y-94850342D01*
X111250000Y-100900000D02*
X111250000Y-96541172D01*
X111250000Y-96541172D02*
X110999809Y-96290981D01*
X111250000Y-91175000D02*
X111250000Y-92027000D01*
X111250000Y-100900000D02*
X111250000Y-102400000D01*
X110999809Y-94850342D02*
X110999809Y-96290981D01*
%TO.N,Net-(CN1-20-Pad45)*%
X110749872Y-96681580D02*
X110499936Y-96431644D01*
X110749872Y-102400000D02*
X110749872Y-103649872D01*
X110749872Y-102400000D02*
X110749872Y-96681580D01*
X110749872Y-103649872D02*
X110750000Y-103650000D01*
X110499936Y-94850342D02*
X110499936Y-96431644D01*
X110499936Y-92277064D02*
X110499936Y-94850342D01*
X110750000Y-91175000D02*
X110750000Y-92027000D01*
X110750000Y-92027000D02*
X110499936Y-92277064D01*
%TO.N,Net-(CN1-20-Pad47)*%
X110250000Y-91175000D02*
X110250000Y-92027000D01*
X110250000Y-92027000D02*
X109999809Y-92277191D01*
X109999809Y-92277191D02*
X109999809Y-94850342D01*
X110250000Y-96822752D02*
X109999809Y-96572561D01*
X110250000Y-102400000D02*
X110250000Y-101400000D01*
X110250000Y-104150000D02*
X110250000Y-102400000D01*
X110250000Y-101400000D02*
X110250000Y-96822752D01*
X109999809Y-94850342D02*
X109999809Y-96572561D01*
%TO.N,Net-(CN1-20-Pad49)*%
X109745809Y-96895937D02*
X109499936Y-96650064D01*
X109750000Y-103650000D02*
X109750000Y-102400128D01*
X109750000Y-102400128D02*
X109749872Y-102400000D01*
X109750000Y-91175000D02*
X109750000Y-92027000D01*
X109749872Y-102400000D02*
X109745809Y-102395937D01*
X109750000Y-92027000D02*
X109499936Y-92277064D01*
X109499936Y-92277064D02*
X109499936Y-94850342D01*
X109745809Y-102395937D02*
X109745809Y-96895937D01*
X109499936Y-94850342D02*
X109499936Y-96650064D01*
%TO.N,Net-(CN1-20-Pad51)*%
X109000000Y-96900000D02*
X109000000Y-96150000D01*
X109250000Y-101150000D02*
X109250000Y-97150000D01*
X109250000Y-92027000D02*
X108999809Y-92277191D01*
X108999809Y-96149809D02*
X109000000Y-96150000D01*
X108999809Y-92277191D02*
X108999809Y-94850342D01*
X109250000Y-102400000D02*
X109250000Y-104150000D01*
X109250000Y-97150000D02*
X109000000Y-96900000D01*
X109250000Y-91175000D02*
X109250000Y-92027000D01*
X109250000Y-101150000D02*
X109250000Y-102400000D01*
X108999809Y-94850342D02*
X108999809Y-96149809D01*
%TO.N,Net-(CN1-20-Pad53)*%
X108499936Y-92277064D02*
X108499936Y-94850342D01*
X108499936Y-97900064D02*
X108499936Y-94850342D01*
X108750000Y-92027000D02*
X108499936Y-92277064D01*
X108750000Y-103900000D02*
X108749872Y-103899872D01*
X108749872Y-103899872D02*
X108749872Y-102400000D01*
X108749872Y-102400000D02*
X108749872Y-98150000D01*
X108750000Y-91175000D02*
X108750000Y-92027000D01*
X108749872Y-98150000D02*
X108499936Y-97900064D01*
%TO.N,Net-(CN1-20-Pad55)*%
X107999809Y-92277191D02*
X107999809Y-94850342D01*
X108250000Y-101150000D02*
X108250000Y-98150000D01*
X108250000Y-102400000D02*
X108250000Y-104150000D01*
X108250000Y-91175000D02*
X108250000Y-92027000D01*
X108250000Y-101150000D02*
X108250000Y-102400000D01*
X108250000Y-98150000D02*
X107999809Y-97899809D01*
X108250000Y-92027000D02*
X107999809Y-92277191D01*
X107999809Y-97899809D02*
X107999809Y-94850342D01*
%TO.N,Net-(CN1-20-Pad57)*%
X107499936Y-92277064D02*
X107499936Y-94850342D01*
X107745809Y-98395809D02*
X107500000Y-98150000D01*
X107750000Y-92027000D02*
X107499936Y-92277064D01*
X107745809Y-102395937D02*
X107745809Y-98395809D01*
X107500000Y-96900128D02*
X107499936Y-96900064D01*
X107750000Y-91175000D02*
X107750000Y-92027000D01*
X107749872Y-102400000D02*
X107745809Y-102395937D01*
X107749872Y-103899872D02*
X107749872Y-102400000D01*
X107500000Y-98150000D02*
X107500000Y-96900128D01*
X107750000Y-103900000D02*
X107749872Y-103899872D01*
X107499936Y-96900064D02*
X107499936Y-94850342D01*
%TO.N,Net-(CN1-20-Pad59)*%
X107250000Y-102400254D02*
X107250000Y-104150000D01*
X107250000Y-101400000D02*
X107250000Y-102400254D01*
X107000000Y-98400000D02*
X107000000Y-96650191D01*
X107250000Y-101400000D02*
X107250000Y-98650000D01*
X107250000Y-91175000D02*
X107250000Y-92027000D01*
X106999809Y-96650000D02*
X106999809Y-94850342D01*
X107250000Y-98650000D02*
X107000000Y-98400000D01*
X106999809Y-92277191D02*
X106999809Y-94850342D01*
X107250000Y-92027000D02*
X106999809Y-92277191D01*
X107000000Y-96650191D02*
X106999809Y-96650000D01*
%TO.N,Net-(CN1-20-Pad61)*%
X106500000Y-96150064D02*
X106499936Y-96150000D01*
X106499936Y-92277064D02*
X106499936Y-94850342D01*
X106749872Y-102400254D02*
X106749872Y-98899872D01*
X106500000Y-98650000D02*
X106500000Y-96150064D01*
X106749872Y-98899872D02*
X106500000Y-98650000D01*
X106749872Y-103899872D02*
X106749872Y-102400254D01*
X106750000Y-103900000D02*
X106749872Y-103899872D01*
X106750000Y-92027000D02*
X106499936Y-92277064D01*
X106750000Y-91175000D02*
X106750000Y-92027000D01*
X106499936Y-96150000D02*
X106499936Y-94850342D01*
%TO.N,Net-(CN1-1-Pad67)*%
X105250000Y-91175000D02*
X105250000Y-92027000D01*
X105250000Y-92027000D02*
X104999809Y-92277191D01*
X105250000Y-100339395D02*
X105250000Y-99650000D01*
X105000000Y-99400000D02*
X105000000Y-97506839D01*
X105250000Y-102400000D02*
X105250000Y-104250000D01*
X105250000Y-100339395D02*
X105250000Y-102400000D01*
X104999809Y-97506648D02*
X104999809Y-94850342D01*
X105000000Y-97506839D02*
X104999809Y-97506648D01*
X105250000Y-99650000D02*
X105000000Y-99400000D01*
X104999809Y-92277191D02*
X104999809Y-94850342D01*
%TO.N,Net-(CN1-1-Pad4)*%
X121250000Y-92027000D02*
X120999809Y-92277191D01*
X121250000Y-91175000D02*
X121250000Y-92027000D01*
X120999809Y-92277191D02*
X120999809Y-94850088D01*
%TO.N,Net-(CN1-1-Pad6)*%
X120750000Y-91175000D02*
X120750000Y-92027000D01*
X120499936Y-92277064D02*
X120499936Y-94850088D01*
X120750000Y-92027000D02*
X120499936Y-92277064D01*
%TO.N,Net-(CN1-1-Pad7)*%
X120250000Y-102400000D02*
X120250000Y-103650000D01*
%TO.N,Net-(CN1-1-Pad8)*%
X119999809Y-92277191D02*
X119999809Y-94850088D01*
X120250000Y-91175000D02*
X120250000Y-92027000D01*
X120250000Y-92027000D02*
X119999809Y-92277191D01*
%TO.N,Net-(CN1-Pad20)*%
X117250000Y-93400000D02*
X116999809Y-93650191D01*
X117250000Y-91175000D02*
X117250000Y-93400000D01*
X116999809Y-93650191D02*
X116999809Y-94850088D01*
%TO.N,Net-(CN1-20-Pad63)*%
X106250000Y-102400254D02*
X106250000Y-104250000D01*
X106250000Y-98900000D02*
X105999809Y-98649809D01*
X106250000Y-92027000D02*
X105999809Y-92277191D01*
X106250000Y-100400000D02*
X106250000Y-102400254D01*
X106250000Y-91175000D02*
X106250000Y-92027000D01*
X106250000Y-100400000D02*
X106250000Y-98900000D01*
X105999809Y-98649809D02*
X105999809Y-94850342D01*
X105999809Y-92277191D02*
X105999809Y-94850342D01*
%TO.N,Net-(CN1-1-Pad74)*%
X103499936Y-92277064D02*
X103499936Y-94850342D01*
X103750000Y-92027000D02*
X103499936Y-92277064D01*
X103750000Y-91175000D02*
X103750000Y-92027000D01*
%TO.N,Net-(CN1-1-Pad9)*%
X119749872Y-102400000D02*
X119749872Y-103740307D01*
X119750000Y-103740435D02*
X119750000Y-104150000D01*
X119749872Y-103740307D02*
X119750000Y-103740435D01*
X119749872Y-100900000D02*
X119749872Y-102400000D01*
%TO.N,GND*%
X103250000Y-91175000D02*
X103245936Y-91179064D01*
D36*
X112145161Y-135150508D02*
X113249492Y-135150508D01*
D35*
X121750000Y-91175000D02*
X121750000Y-92150000D01*
X106999974Y-144400026D02*
X107000000Y-144400000D01*
X117250000Y-131150000D02*
X117300000Y-131100000D01*
X122049912Y-94850088D02*
X122100000Y-94800000D01*
X114844933Y-131150000D02*
X117250000Y-131150000D01*
X107718549Y-115199899D02*
X108949899Y-115199899D01*
D36*
X112800000Y-105900000D02*
X112800000Y-105100000D01*
X112145161Y-118045161D02*
X110420041Y-116320041D01*
X121503429Y-113996571D02*
X121250000Y-114250000D01*
D35*
X108949899Y-115199899D02*
X109000000Y-115250000D01*
X108949898Y-108800102D02*
X109000000Y-108750000D01*
D36*
X112145161Y-120149492D02*
X112145161Y-118045161D01*
D35*
X103946000Y-96602412D02*
X103946000Y-99204000D01*
X105749733Y-144400026D02*
X106999974Y-144400026D01*
X117931858Y-114343142D02*
X117925000Y-114350000D01*
D36*
X117803429Y-114228429D02*
X117925000Y-114350000D01*
D35*
X121750000Y-92150000D02*
X121499936Y-92400064D01*
X103250000Y-99900000D02*
X103250000Y-102400000D01*
D36*
X114400000Y-131594933D02*
X114844933Y-131150000D01*
D35*
X121499936Y-92400064D02*
X121499936Y-94850088D01*
X121256858Y-114243142D02*
X121250000Y-114250000D01*
D36*
X110420041Y-116320041D02*
X107098534Y-116320041D01*
X117803429Y-113198934D02*
X117803429Y-114228429D01*
X114400000Y-134000000D02*
X114400000Y-131594933D01*
D35*
X103159436Y-93971336D02*
X103159436Y-95815848D01*
X103250000Y-103450000D02*
X102800000Y-103900000D01*
D36*
X121503429Y-113098934D02*
X121503429Y-113996571D01*
D35*
X103159436Y-95815848D02*
X103946000Y-96602412D01*
X103250000Y-102400000D02*
X103250000Y-103450000D01*
X103946000Y-99204000D02*
X103250000Y-99900000D01*
X103245936Y-93884836D02*
X103159436Y-93971336D01*
X103245936Y-91179064D02*
X103245936Y-93884836D01*
X107718549Y-108800102D02*
X108949898Y-108800102D01*
D36*
X113899975Y-114000102D02*
X115399898Y-114000102D01*
X114400000Y-105925000D02*
X114400000Y-105100000D01*
X113249492Y-135150508D02*
X114400000Y-134000000D01*
D35*
X121499936Y-94850088D02*
X122049912Y-94850088D01*
D36*
X116000000Y-105900000D02*
X116000000Y-105100000D01*
X115399898Y-114000102D02*
X115400000Y-114000000D01*
%TO.N,Net-(LED1-+)*%
X121496571Y-111500000D02*
X121496571Y-108896571D01*
X121496571Y-108896571D02*
X121250000Y-108650000D01*
D35*
%TO.N,USB+*%
X114750000Y-103650000D02*
X114750000Y-102400128D01*
D37*
X114844933Y-128649873D02*
X116650127Y-128649873D01*
D35*
X109950000Y-111750000D02*
X109940790Y-111759210D01*
D37*
X107718549Y-112750064D02*
X108749936Y-112750064D01*
X108900000Y-112600000D02*
X108900000Y-111759210D01*
X109300000Y-132000000D02*
X110500000Y-132000000D01*
D36*
X105749733Y-143100051D02*
X108199949Y-143100051D01*
D37*
X113600000Y-116900000D02*
X113500000Y-116800000D01*
D35*
X114750000Y-103650000D02*
X114750000Y-103869731D01*
D37*
X114400000Y-116900000D02*
X113600000Y-116900000D01*
X117000000Y-119500000D02*
X114400000Y-116900000D01*
X113850127Y-128649873D02*
X114844933Y-128649873D01*
D35*
X109940790Y-111759210D02*
X108900000Y-111759210D01*
X110400000Y-111300000D02*
X109950000Y-111750000D01*
D37*
X116650127Y-128649873D02*
X117000000Y-128300000D01*
X108199949Y-143100051D02*
X109000000Y-142300000D01*
D35*
X114745809Y-96145809D02*
X114499936Y-95899936D01*
X114499936Y-95899936D02*
X114499936Y-94850088D01*
D37*
X113492614Y-116800000D02*
X109950000Y-113257386D01*
D35*
X114750000Y-103869731D02*
X114098226Y-104521505D01*
D37*
X109000000Y-142300000D02*
X109000000Y-138500000D01*
D35*
X114750000Y-102400128D02*
X114749872Y-102400000D01*
D37*
X109000000Y-138500000D02*
X108200000Y-137700000D01*
D35*
X114745809Y-102395937D02*
X114745809Y-96145809D01*
X114098226Y-104521505D02*
X112478495Y-104521505D01*
D37*
X108200000Y-137700000D02*
X108200000Y-133100000D01*
X108200000Y-133100000D02*
X109300000Y-132000000D01*
X108749936Y-112750064D02*
X108900000Y-112600000D01*
D36*
X108890854Y-111750064D02*
X108900000Y-111759210D01*
D37*
X117000000Y-128300000D02*
X117000000Y-119500000D01*
D36*
X107718549Y-111750064D02*
X108890854Y-111750064D01*
D35*
X112478495Y-104521505D02*
X110400000Y-106600000D01*
X110400000Y-106600000D02*
X110400000Y-111300000D01*
D37*
X113500000Y-116800000D02*
X113492614Y-116800000D01*
X109950000Y-113257386D02*
X109950000Y-111750000D01*
X108900000Y-111759210D02*
X108909146Y-111750064D01*
D35*
X114749872Y-102400000D02*
X114745809Y-102395937D01*
D37*
X110500000Y-132000000D02*
X113850127Y-128649873D01*
%TO.N,USB-*%
X106898547Y-111249937D02*
X107718549Y-111249937D01*
X105300000Y-108500000D02*
X105300000Y-107100000D01*
X106449937Y-111698547D02*
X106898547Y-111249937D01*
X107718549Y-112249937D02*
X106449937Y-112249937D01*
X111000000Y-104200000D02*
X111046000Y-104154000D01*
X107500000Y-138400000D02*
X107500000Y-127199746D01*
X106898547Y-111249937D02*
X105300000Y-109651390D01*
X105200000Y-113499874D02*
X105200000Y-123800000D01*
X108049873Y-126649873D02*
X114844933Y-126649873D01*
D35*
X114250000Y-100900000D02*
X114250000Y-102400000D01*
D37*
X110610829Y-104200000D02*
X111000000Y-104200000D01*
X108900000Y-104600000D02*
X110210829Y-104600000D01*
X105749733Y-142450064D02*
X107849936Y-142450064D01*
X107500000Y-127199746D02*
X108049873Y-126649873D01*
D35*
X113946000Y-104154000D02*
X111046000Y-104154000D01*
D37*
X108300000Y-142000000D02*
X108300000Y-139200000D01*
X107849936Y-142450064D02*
X108300000Y-142000000D01*
X110210829Y-104600000D02*
X110610829Y-104200000D01*
X108300000Y-139200000D02*
X107500000Y-138400000D01*
X107800000Y-104600000D02*
X108900000Y-104600000D01*
X106449937Y-112249937D02*
X105200000Y-113499874D01*
X106600000Y-105800000D02*
X107800000Y-104600000D01*
X105300000Y-109651390D02*
X105300000Y-108500000D01*
X105200000Y-123800000D02*
X108049873Y-126649873D01*
X106449937Y-112249937D02*
X106449937Y-111698547D01*
X105300000Y-107100000D02*
X106600000Y-105800000D01*
D35*
X114250000Y-103850000D02*
X113946000Y-104154000D01*
X114250000Y-102400000D02*
X114250000Y-103850000D01*
D36*
%TO.N,+5V*%
X117300000Y-118200000D02*
X117300000Y-115149052D01*
X117300000Y-115149052D02*
X116300000Y-114149052D01*
X118827203Y-119502203D02*
X118800000Y-119475000D01*
D38*
X113899975Y-110000102D02*
X113899975Y-108799975D01*
D36*
X121250000Y-102400000D02*
X121250000Y-103650000D01*
X116300000Y-114149052D02*
X116300000Y-112400127D01*
D38*
X112800000Y-107700000D02*
X112800000Y-107450000D01*
D36*
X118827203Y-122008026D02*
X118827203Y-119502203D01*
D38*
X111153366Y-109800000D02*
X113699873Y-109800000D01*
X114375000Y-107450000D02*
X114400000Y-107475000D01*
X115975000Y-107475000D02*
X116000000Y-107450000D01*
D36*
X118575000Y-119475000D02*
X117300000Y-118200000D01*
X121250000Y-104250000D02*
X121250000Y-103650000D01*
D38*
X118072833Y-107450000D02*
X120900000Y-104622833D01*
X116000000Y-107450000D02*
X118072833Y-107450000D01*
X113899975Y-108799975D02*
X112800000Y-107700000D01*
X112800000Y-107450000D02*
X114375000Y-107450000D01*
X113699873Y-109800000D02*
X113899975Y-110000102D01*
D36*
X120900000Y-104600000D02*
X121250000Y-104250000D01*
D38*
X114400000Y-107475000D02*
X115975000Y-107475000D01*
D35*
X122900000Y-108650000D02*
X123750000Y-108650000D01*
D36*
X116300000Y-112400127D02*
X113899975Y-110000102D01*
X118800000Y-119475000D02*
X118575000Y-119475000D01*
D38*
X120900000Y-104622833D02*
X120900000Y-104600000D01*
D36*
%TO.N,Net-(LED2-+)*%
X117796571Y-108621571D02*
X117675000Y-108500000D01*
D35*
X117675000Y-108500000D02*
X117925000Y-108750000D01*
D36*
X117796571Y-111600000D02*
X117796571Y-108621571D01*
%TO.N,Net-(CN1-20-Pad32)*%
X114250000Y-91175000D02*
X114250000Y-93250000D01*
X113999809Y-93500191D02*
X113999809Y-94532588D01*
X114250000Y-93250000D02*
X113999809Y-93500191D01*
D38*
%TO.N,VBUS*%
X109700000Y-109853366D02*
X109646634Y-109800000D01*
X107099924Y-141800076D02*
X107400000Y-141500000D01*
D36*
X109000000Y-114400000D02*
X107718600Y-114400000D01*
D38*
X105749733Y-141800076D02*
X107099924Y-141800076D01*
D36*
X111800000Y-123100000D02*
X108500000Y-123100000D01*
D35*
X108999949Y-114400051D02*
X109000000Y-114400000D01*
D36*
X107718549Y-109599950D02*
X109446584Y-109599950D01*
X109446584Y-109599950D02*
X109646634Y-109800000D01*
X107718600Y-114400000D02*
X107718549Y-114400051D01*
D38*
X109700000Y-110900000D02*
X109700000Y-109853366D01*
D36*
X114844933Y-124150000D02*
X112850000Y-124150000D01*
X112850000Y-124150000D02*
X111800000Y-123100000D01*
%TO.N,Net-(C4-Pad1)*%
X120500000Y-119475000D02*
X122100000Y-119475000D01*
X120350000Y-119475000D02*
X118800000Y-117925000D01*
X122100000Y-119475000D02*
X122175000Y-119400000D01*
X120500000Y-119475000D02*
X120350000Y-119475000D01*
%TO.N,Net-(Q1-ADJ)*%
X123372797Y-122008026D02*
X123825000Y-121555823D01*
X123825000Y-121555823D02*
X123825000Y-119400000D01*
X123825000Y-119400000D02*
X123825000Y-117800000D01*
%TD*%
M02*
