M48
; DRILL file {KiCad 7.0.5} date Mon Aug 28 16:59:48 2023
; FORMAT={-:-/ absolute / inch / decimal}
; #@! TF.CreationDate,2023-08-28T16:59:48-05:00
; #@! TF.GenerationSoftware,Kicad,Pcbnew,7.0.5
; #@! TF.FileFunction,Plated,1,4,PTH
FMAT,2
INCH
; #@! TA.AperFunction,Plated,PTH,ViaDrill
T1C0.0079
; #@! TA.AperFunction,Plated,PTH,ViaDrill
T2C0.0118
; #@! TA.AperFunction,Plated,PTH,ComponentDrill
T3C0.0236
; #@! TA.AperFunction,Plated,PTH,ComponentDrill
T4C0.0276
; #@! TA.AperFunction,Plated,PTH,ComponentDrill
T5C0.1260
%
G90
G05
T1
X4.7441Y-4.5906
X4.7677Y-5.2244
T2
X4.0472Y-4.0906
X4.0846Y-4.0906
X4.0945Y-3.9724
X4.124Y-4.0906
X4.1437Y-3.9504
X4.1634Y-4.0906
X4.1831Y-3.9528
X4.2028Y-4.0906
X4.2126Y-5.685
X4.2224Y-3.9921
X4.2283Y-5.5709
X4.2421Y-4.0906
X4.2618Y-3.9823
X4.2717Y-4.8465
X4.2815Y-4.0906
X4.2913Y-4.2815
X4.2913Y-4.5039
X4.2913Y-4.5374
X4.3012Y-3.9823
X4.3189Y-4.3661
X4.3209Y-4.0807
X4.3406Y-3.9921
X4.3602Y-4.0807
X4.3799Y-3.9724
X4.3996Y-4.0807
X4.4193Y-3.9724
X4.439Y-4.0807
X4.4409Y-4.1378
X4.4587Y-3.9724
X4.4783Y-4.0807
X4.498Y-3.9724
X4.5039Y-4.1378
X4.5177Y-4.0807
X4.5374Y-3.9724
X4.5433Y-4.4882
X4.5571Y-4.0807
X4.5669Y-4.1378
X4.5768Y-3.9724
X4.5965Y-4.0807
X4.6181Y-5.1614
X4.6427Y-4.502
X4.6949Y-4.0807
X4.7146Y-3.9724
X4.7343Y-4.0807
X4.7539Y-3.9724
X4.7736Y-4.0807
X4.7736Y-4.498
X4.7933Y-3.8976
X4.8071Y-3.7323
X4.872Y-4.2776
T4
X4.1634Y-5.5384
X4.1634Y-5.7293
T5
X4.4291Y-5.9016
T3
G00X4.0677Y-4.2394
M15
G01X4.0362Y-4.2394
M16
G05
G00X4.0677Y-4.5795
M15
G01X4.0362Y-4.5795
M16
G05
G00X4.2381Y-4.2394
M15
G01X4.1948Y-4.2394
M16
G05
G00X4.2381Y-4.5795
M15
G01X4.1948Y-4.5795
M16
G05
T4
G00X4.0748Y-5.4921
M15
G01X4.0433Y-5.4921
M16
G05
G00X4.0748Y-5.7756
M15
G01X4.0433Y-5.7756
M16
G05
T0
M30
