G04 EAGLE Gerber RS-274X export*
G75*
%MOMM*%
%FSLAX34Y34*%
%LPD*%
%INTop Copper*%
%IPPOS*%
%AMOC8*
5,1,8,0,0,1.08239X$1,22.5*%
G01*
%ADD10C,2.199994*%
%ADD11R,0.822200X4.470391*%
%ADD12R,6.101888X0.924900*%
%ADD13R,0.590900X4.881488*%
%ADD14R,1.186200X14.358275*%
%ADD15R,4.729191X1.185300*%
%ADD16R,14.232375X0.964600*%
%ADD17R,0.956200X14.255072*%
%ADD18R,5.161787X1.511097*%
%ADD19C,0.500000*%
%ADD20C,0.000000*%
%ADD21C,0.200000*%
%ADD22C,0.999997*%
%ADD23C,0.756400*%


D10*
X137128Y137128D03*
X137128Y0D03*
X0Y0D03*
X0Y137128D03*
D11*
X95109Y189107D03*
D12*
X68710Y206834D03*
D13*
X41155Y187051D03*
D14*
X-26250Y66711D03*
D15*
X19242Y164278D03*
D16*
X68621Y-27682D03*
D17*
X164800Y68735D03*
D18*
X116430Y162494D03*
D19*
X53858Y189187D03*
X46406Y189128D03*
X61310Y189247D03*
X61191Y204151D03*
X61251Y196699D03*
X46287Y204032D03*
X46346Y196580D03*
X53798Y196639D03*
X53739Y204092D03*
X68762Y189307D03*
X68702Y196759D03*
X76155Y196818D03*
X76214Y189366D03*
X76095Y204270D03*
X68643Y204211D03*
X83666Y189426D03*
X83607Y196878D03*
X91059Y196938D03*
X91118Y189486D03*
X90999Y204390D03*
X83547Y204330D03*
X113622Y162586D03*
X106172Y162586D03*
X106234Y155194D03*
X106295Y147801D03*
X113745Y147801D03*
X121195Y147801D03*
X113684Y155194D03*
X121072Y162586D03*
X121134Y155194D03*
X128584Y155194D03*
X128522Y162586D03*
X135972Y162586D03*
X15932Y147801D03*
X908Y162586D03*
X8420Y155194D03*
X23381Y147801D03*
X30832Y147801D03*
X23320Y155194D03*
X15870Y155194D03*
X15808Y162586D03*
X8358Y162586D03*
X23258Y162586D03*
X30708Y162586D03*
X30770Y155194D03*
X-10672Y15932D03*
X-25457Y908D03*
X-18065Y8420D03*
X-10672Y23381D03*
X-10672Y30832D03*
X-18065Y23320D03*
X-18065Y15870D03*
X-25457Y15808D03*
X-25457Y8358D03*
X-25457Y23258D03*
X-25457Y30708D03*
X-18065Y30770D03*
X-18065Y38220D03*
X-25457Y38158D03*
X-25457Y45608D03*
X-18065Y45670D03*
X-18065Y53120D03*
X-25457Y53058D03*
X-25457Y60508D03*
X-18065Y60570D03*
X-18065Y68020D03*
X-25457Y67958D03*
X-25457Y75408D03*
X-18065Y75470D03*
X-25457Y135972D03*
X-25457Y128522D03*
X-18065Y128584D03*
X-18065Y121134D03*
X-25457Y121072D03*
X-18065Y113684D03*
X-10672Y121195D03*
X-10672Y113745D03*
X-10672Y106295D03*
X-18065Y106234D03*
X-25457Y106172D03*
X-25457Y98722D03*
X-18065Y98784D03*
X-18065Y91334D03*
X-25457Y91272D03*
X-25457Y83822D03*
X-18065Y83884D03*
X-25457Y113622D03*
X147801Y121195D03*
X162586Y136219D03*
X155194Y128707D03*
X147801Y113745D03*
X147801Y106295D03*
X155194Y113807D03*
X155194Y121257D03*
X162586Y121319D03*
X162586Y128769D03*
X162586Y113869D03*
X162586Y106419D03*
X155194Y106357D03*
X155194Y98907D03*
X162586Y98969D03*
X162586Y91519D03*
X155194Y91457D03*
X155194Y84007D03*
X162586Y84069D03*
X162586Y76619D03*
X155194Y76557D03*
X155194Y69107D03*
X162586Y69169D03*
X162586Y61719D03*
X155194Y61657D03*
X162586Y1155D03*
X162586Y8605D03*
X155194Y8543D03*
X155194Y15993D03*
X162586Y16055D03*
X155194Y23443D03*
X147801Y15932D03*
X147801Y23381D03*
X147801Y30832D03*
X155194Y30893D03*
X162586Y30955D03*
X162586Y38405D03*
X155194Y38343D03*
X155194Y45793D03*
X162586Y45855D03*
X162586Y53305D03*
X155194Y53243D03*
X162586Y23505D03*
X23505Y-25457D03*
X30955Y-25457D03*
X30893Y-18065D03*
X30832Y-10672D03*
X23381Y-10672D03*
X15932Y-10672D03*
X23443Y-18065D03*
X16055Y-25457D03*
X15993Y-18065D03*
X8543Y-18065D03*
X8605Y-25457D03*
X1155Y-25457D03*
X106357Y-18065D03*
X106419Y-25457D03*
X113869Y-25457D03*
X128769Y-25457D03*
X121319Y-25457D03*
X121257Y-18065D03*
X113807Y-18065D03*
X106295Y-10672D03*
X113745Y-10672D03*
X128707Y-18065D03*
X136219Y-25457D03*
X121195Y-10672D03*
D10*
X137128Y137128D03*
X137128Y0D03*
X0Y0D03*
X0Y137128D03*
D11*
X95109Y189107D03*
D12*
X68710Y206834D03*
D13*
X41155Y187051D03*
D14*
X-26250Y66711D03*
D15*
X19242Y164278D03*
D16*
X68621Y-27682D03*
D17*
X164800Y68735D03*
D18*
X116430Y162494D03*
D19*
X53858Y189187D03*
X46406Y189128D03*
X61310Y189247D03*
X61191Y204151D03*
X61251Y196699D03*
X46287Y204032D03*
X46346Y196580D03*
X53798Y196639D03*
X53739Y204092D03*
X68762Y189307D03*
X68702Y196759D03*
X76155Y196818D03*
X76214Y189366D03*
X76095Y204270D03*
X68643Y204211D03*
X83666Y189426D03*
X83607Y196878D03*
X91059Y196938D03*
X91118Y189486D03*
X90999Y204390D03*
X83547Y204330D03*
X113622Y162586D03*
X106172Y162586D03*
X106234Y155194D03*
X106295Y147801D03*
X113745Y147801D03*
X121195Y147801D03*
X113684Y155194D03*
X121072Y162586D03*
X121134Y155194D03*
X128584Y155194D03*
X128522Y162586D03*
X135972Y162586D03*
X15932Y147801D03*
X908Y162586D03*
X8420Y155194D03*
X23381Y147801D03*
X30832Y147801D03*
X23320Y155194D03*
X15870Y155194D03*
X15808Y162586D03*
X8358Y162586D03*
X23258Y162586D03*
X30708Y162586D03*
X30770Y155194D03*
X-10672Y15932D03*
X-25457Y908D03*
X-18065Y8420D03*
X-10672Y23381D03*
X-10672Y30832D03*
X-18065Y23320D03*
X-18065Y15870D03*
X-25457Y15808D03*
X-25457Y8358D03*
X-25457Y23258D03*
X-25457Y30708D03*
X-18065Y30770D03*
X-18065Y38220D03*
X-25457Y38158D03*
X-25457Y45608D03*
X-18065Y45670D03*
X-18065Y53120D03*
X-25457Y53058D03*
X-25457Y60508D03*
X-18065Y60570D03*
X-18065Y68020D03*
X-25457Y67958D03*
X-25457Y75408D03*
X-18065Y75470D03*
X-25457Y135972D03*
X-25457Y128522D03*
X-18065Y128584D03*
X-18065Y121134D03*
X-25457Y121072D03*
X-18065Y113684D03*
X-10672Y121195D03*
X-10672Y113745D03*
X-10672Y106295D03*
X-18065Y106234D03*
X-25457Y106172D03*
X-25457Y98722D03*
X-18065Y98784D03*
X-18065Y91334D03*
X-25457Y91272D03*
X-25457Y83822D03*
X-18065Y83884D03*
X-25457Y113622D03*
X147801Y121195D03*
X162586Y136219D03*
X155194Y128707D03*
X147801Y113745D03*
X147801Y106295D03*
X155194Y113807D03*
X155194Y121257D03*
X162586Y121319D03*
X162586Y128769D03*
X162586Y113869D03*
X162586Y106419D03*
X155194Y106357D03*
X155194Y98907D03*
X162586Y98969D03*
X162586Y91519D03*
X155194Y91457D03*
X155194Y84007D03*
X162586Y84069D03*
X162586Y76619D03*
X155194Y76557D03*
X155194Y69107D03*
X162586Y69169D03*
X162586Y61719D03*
X155194Y61657D03*
X162586Y1155D03*
X162586Y8605D03*
X155194Y8543D03*
X155194Y15993D03*
X162586Y16055D03*
X155194Y23443D03*
X147801Y15932D03*
X147801Y23381D03*
X147801Y30832D03*
X155194Y30893D03*
X162586Y30955D03*
X162586Y38405D03*
X155194Y38343D03*
X155194Y45793D03*
X162586Y45855D03*
X162586Y53305D03*
X155194Y53243D03*
X162586Y23505D03*
X23505Y-25457D03*
X30955Y-25457D03*
X30893Y-18065D03*
X30832Y-10672D03*
X23381Y-10672D03*
X15932Y-10672D03*
X23443Y-18065D03*
X16055Y-25457D03*
X15993Y-18065D03*
X8543Y-18065D03*
X8605Y-25457D03*
X1155Y-25457D03*
X106357Y-18065D03*
X106419Y-25457D03*
X113869Y-25457D03*
X128769Y-25457D03*
X121319Y-25457D03*
X121257Y-18065D03*
X113807Y-18065D03*
X106295Y-10672D03*
X113745Y-10672D03*
X128707Y-18065D03*
X136219Y-25457D03*
X121195Y-10672D03*
D20*
X95258Y167785D02*
X94944Y169365D01*
X95258Y167785D02*
X96153Y166445D01*
X97493Y165550D01*
X99073Y165236D01*
X137128Y165236D01*
X137269Y165264D01*
X141531Y164928D01*
X145826Y163897D01*
X149906Y162207D01*
X153672Y159899D01*
X157031Y157031D01*
X159899Y153672D01*
X162207Y149906D01*
X163897Y145826D01*
X164928Y141531D01*
X165264Y137269D01*
X165236Y137128D01*
X165236Y0D01*
X165264Y-140D01*
X164928Y-4402D01*
X163897Y-8697D01*
X162207Y-12778D01*
X159899Y-16543D01*
X157031Y-19902D01*
X153672Y-22770D01*
X149906Y-25078D01*
X145826Y-26768D01*
X141531Y-27800D01*
X137269Y-28135D01*
X137128Y-28107D01*
X0Y-28107D01*
X-140Y-28135D01*
X-4402Y-27800D01*
X-8697Y-26768D01*
X-12778Y-25078D01*
X-16543Y-22770D01*
X-19902Y-19902D01*
X-22770Y-16543D01*
X-25078Y-12778D01*
X-26768Y-8697D01*
X-27800Y-4402D01*
X-28135Y-140D01*
X-28107Y0D01*
X-28107Y137128D01*
X-28135Y137269D01*
X-27800Y141531D01*
X-26768Y145826D01*
X-25078Y149906D01*
X-22770Y153672D01*
X-19902Y157031D01*
X-16543Y159899D01*
X-12778Y162207D01*
X-8697Y163897D01*
X-4402Y164928D01*
X-140Y165264D01*
X0Y165236D01*
X38054Y165236D01*
X39634Y165550D01*
X40974Y166445D01*
X41869Y167785D01*
X42183Y169365D01*
X42183Y207250D01*
X94944Y207250D01*
X94944Y169365D01*
X69459Y181935D02*
X67668Y181935D01*
X66014Y181250D01*
X64748Y179984D01*
X64063Y178330D01*
X64063Y176540D01*
X64748Y174886D01*
X65200Y174435D01*
X64748Y173984D01*
X64063Y172331D01*
X64063Y170540D01*
X64748Y168886D01*
X65200Y168435D01*
X64748Y167984D01*
X64063Y166331D01*
X64063Y164540D01*
X64748Y162886D01*
X65200Y162435D01*
X64748Y161984D01*
X64063Y160330D01*
X64063Y158540D01*
X64748Y156886D01*
X65200Y156435D01*
X64748Y155984D01*
X64063Y154331D01*
X64063Y152540D01*
X64748Y150886D01*
X66014Y149620D01*
X67286Y149094D01*
X67063Y147811D01*
X60355Y147482D01*
X52434Y146307D01*
X44667Y144361D01*
X37127Y141664D01*
X29888Y138240D01*
X23020Y134123D01*
X16588Y129353D01*
X10655Y123975D01*
X5277Y118042D01*
X508Y111610D01*
X-3608Y104742D01*
X-7032Y97503D01*
X-9729Y89963D01*
X-11675Y82196D01*
X-12850Y74275D01*
X-13243Y66277D01*
X-12850Y58279D01*
X-11675Y50358D01*
X-9729Y42590D01*
X-7032Y35050D01*
X-3608Y27811D01*
X508Y20943D01*
X5277Y14511D01*
X10655Y8578D01*
X16588Y3200D01*
X23020Y-1568D01*
X29888Y-5685D01*
X37127Y-9108D01*
X44667Y-11806D01*
X52434Y-13752D01*
X60355Y-14927D01*
X64707Y-15141D01*
X65097Y-15218D01*
X65299Y-15258D01*
X65657Y-15187D01*
X68433Y-15324D01*
X76627Y-14921D01*
X84743Y-13717D01*
X92701Y-11724D01*
X100426Y-8960D01*
X107842Y-5452D01*
X114879Y-1234D01*
X121469Y3651D01*
X127548Y9160D01*
X133058Y15240D01*
X137945Y21829D01*
X142162Y28866D01*
X145670Y36282D01*
X148434Y44007D01*
X150428Y51965D01*
X151631Y60081D01*
X152034Y68275D01*
X151631Y76469D01*
X150428Y84585D01*
X148434Y92543D01*
X145670Y100268D01*
X142162Y107684D01*
X137945Y114721D01*
X133058Y121311D01*
X127548Y127390D01*
X121469Y132899D01*
X114879Y137786D01*
X107842Y142004D01*
X100426Y145512D01*
X99060Y146001D01*
X99060Y149001D01*
X98671Y150952D01*
X97566Y152606D01*
X95912Y153711D01*
X93961Y154099D01*
X92010Y153711D01*
X90356Y152606D01*
X89251Y150952D01*
X88863Y149001D01*
X88863Y146179D01*
X87849Y145415D01*
X86151Y145904D01*
X77349Y147400D01*
X72870Y147651D01*
X71610Y147773D01*
X71408Y147814D01*
X71218Y147776D01*
X70019Y147796D01*
X69797Y149075D01*
X71112Y149620D01*
X72378Y150886D01*
X73063Y152540D01*
X73063Y154331D01*
X72378Y155984D01*
X71927Y156435D01*
X72378Y156886D01*
X73063Y158540D01*
X73063Y160330D01*
X72378Y161984D01*
X71927Y162435D01*
X72378Y162886D01*
X73063Y164540D01*
X73063Y166331D01*
X72378Y167984D01*
X71927Y168435D01*
X72378Y168886D01*
X73063Y170540D01*
X73063Y172331D01*
X72378Y173984D01*
X71927Y174435D01*
X72378Y174886D01*
X73063Y176540D01*
X73063Y178330D01*
X72378Y179984D01*
X71112Y181250D01*
X69459Y181935D01*
X95569Y147064D02*
X95441Y146901D01*
X95329Y146727D01*
X95231Y146542D01*
X95149Y146347D01*
X95081Y146141D01*
X95029Y145924D01*
X94991Y145697D01*
X94969Y145459D01*
X94961Y145210D01*
X92961Y145210D01*
X92954Y145459D01*
X92931Y145697D01*
X92894Y145924D01*
X92841Y146141D01*
X92774Y146347D01*
X92691Y146542D01*
X92594Y146727D01*
X92481Y146901D01*
X92354Y147064D01*
X92211Y147216D01*
X95711Y147216D01*
X95569Y147064D01*
X60626Y69956D02*
X60778Y69813D01*
X60626Y69956D02*
X60463Y70083D01*
X60289Y70196D01*
X60104Y70293D01*
X59909Y70376D01*
X59703Y70443D01*
X59486Y70496D01*
X59259Y70533D01*
X59021Y70556D01*
X58772Y70563D01*
X58772Y72563D01*
X59021Y72571D01*
X59259Y72593D01*
X59486Y72631D01*
X59703Y72683D01*
X59909Y72751D01*
X60104Y72833D01*
X60289Y72931D01*
X60463Y73043D01*
X60626Y73171D01*
X60778Y73313D01*
X60778Y69813D01*
D21*
X58087Y71563D02*
X57968Y71559D01*
X57849Y71547D01*
X57732Y71526D01*
X57616Y71497D01*
X57502Y71460D01*
X57392Y71415D01*
X57284Y71363D01*
X57181Y71303D01*
X57082Y71237D01*
X56987Y71163D01*
X56899Y71083D01*
X56816Y70997D01*
X56739Y70906D01*
X56669Y70809D01*
X56606Y70708D01*
X56550Y70602D01*
X56501Y70493D01*
X56460Y70381D01*
X56427Y70266D01*
X56402Y70149D01*
X56386Y70031D01*
X56377Y69912D01*
X56376Y69852D01*
X67742Y86767D02*
X69172Y86760D01*
X67742Y86767D02*
X66314Y86675D01*
X64896Y86483D01*
X63494Y86192D01*
X62117Y85805D01*
X60770Y85322D01*
X59460Y84747D01*
X58193Y84081D01*
X56976Y83329D01*
X55814Y82494D01*
X54713Y81579D01*
X53679Y80591D01*
X52716Y79532D01*
X51830Y78409D01*
X51024Y77227D01*
X50302Y75991D01*
X49668Y74708D01*
X49126Y73384D01*
X48677Y72026D01*
X48324Y70639D01*
X48068Y69231D01*
X47912Y67809D01*
X47854Y66379D01*
X47897Y64949D01*
X48040Y63525D01*
X48281Y62114D01*
X48620Y60725D01*
X49056Y59361D01*
X49585Y58032D01*
X50206Y56743D01*
X50915Y55500D01*
X51709Y54310D01*
X52584Y53178D01*
X53537Y52110D01*
X54561Y51110D01*
X55652Y50185D01*
X56806Y49338D01*
X58015Y48574D01*
X59275Y47896D01*
X60580Y47308D01*
X61922Y46811D01*
X63295Y46410D01*
X64694Y46106D01*
X66109Y45899D01*
X67535Y45793D01*
X67383Y98763D02*
X69651Y98751D01*
X67383Y98763D02*
X65119Y98616D01*
X62871Y98312D01*
X60650Y97851D01*
X58466Y97237D01*
X56331Y96472D01*
X54254Y95560D01*
X52246Y94505D01*
X50316Y93312D01*
X48474Y91988D01*
X46729Y90539D01*
X45089Y88971D01*
X43563Y87293D01*
X42157Y85513D01*
X40879Y83638D01*
X39735Y81680D01*
X38730Y79646D01*
X37870Y77547D01*
X37158Y75393D01*
X36598Y73195D01*
X36193Y70963D01*
X35945Y68708D01*
X35854Y66441D01*
X35922Y64174D01*
X36147Y61917D01*
X36530Y59681D01*
X37068Y57477D01*
X37758Y55316D01*
X38597Y53208D01*
X39581Y51164D01*
X40705Y49194D01*
X41964Y47307D01*
X43352Y45513D01*
X44861Y43819D01*
X46485Y42235D01*
X48216Y40768D01*
X50044Y39426D01*
X51962Y38214D01*
X53959Y37139D01*
X56027Y36206D01*
X58155Y35419D01*
X60332Y34783D01*
X62549Y34300D01*
X64793Y33973D01*
X67056Y33803D01*
X67502Y94764D02*
X69491Y94754D01*
X67502Y94764D02*
X65517Y94636D01*
X63546Y94369D01*
X61598Y93965D01*
X59683Y93426D01*
X57810Y92755D01*
X55989Y91955D01*
X54228Y91030D01*
X52536Y89985D01*
X50920Y88824D01*
X49390Y87553D01*
X47952Y86178D01*
X46614Y84706D01*
X45381Y83145D01*
X44261Y81501D01*
X43257Y79784D01*
X42376Y78000D01*
X41622Y76160D01*
X40998Y74271D01*
X40507Y72343D01*
X40151Y70386D01*
X39933Y68409D01*
X39854Y66421D01*
X39913Y64432D01*
X40111Y62453D01*
X40447Y60492D01*
X40918Y58560D01*
X41524Y56665D01*
X42260Y54817D01*
X43123Y53024D01*
X44109Y51297D01*
X45213Y49642D01*
X46429Y48068D01*
X47753Y46583D01*
X49177Y45194D01*
X50694Y43908D01*
X52298Y42731D01*
X53979Y41668D01*
X55731Y40725D01*
X57544Y39907D01*
X59410Y39217D01*
X61319Y38659D01*
X63263Y38236D01*
X65232Y37949D01*
X67215Y37800D01*
X67216Y37799D01*
X67622Y90766D02*
X69332Y90757D01*
X67622Y90766D02*
X65916Y90655D01*
X64221Y90426D01*
X62546Y90079D01*
X60900Y89616D01*
X59290Y89039D01*
X57725Y88351D01*
X56211Y87556D01*
X54756Y86657D01*
X53367Y85658D01*
X52052Y84566D01*
X50816Y83384D01*
X49665Y82119D01*
X48606Y80777D01*
X47642Y79364D01*
X46780Y77887D01*
X46022Y76354D01*
X45374Y74772D01*
X44837Y73148D01*
X44415Y71491D01*
X44110Y69808D01*
X43922Y68108D01*
X43854Y66399D01*
X43905Y64690D01*
X44075Y62988D01*
X44364Y61303D01*
X44769Y59641D01*
X45290Y58012D01*
X45922Y56424D01*
X46664Y54883D01*
X47512Y53398D01*
X48461Y51975D01*
X49507Y50622D01*
X50645Y49346D01*
X51869Y48152D01*
X53174Y47046D01*
X54552Y46033D01*
X55998Y45120D01*
X57504Y44310D01*
X59062Y43606D01*
X60666Y43013D01*
X62308Y42534D01*
X63979Y42170D01*
X65671Y41923D01*
X67375Y41796D01*
X67861Y82769D02*
X69012Y82763D01*
X67861Y82769D02*
X66711Y82695D01*
X65570Y82540D01*
X64442Y82306D01*
X63334Y81995D01*
X62250Y81606D01*
X61195Y81143D01*
X60175Y80607D01*
X59196Y80002D01*
X58260Y79330D01*
X57375Y78594D01*
X56542Y77798D01*
X55767Y76946D01*
X55053Y76042D01*
X54405Y75091D01*
X53824Y74096D01*
X53314Y73064D01*
X52877Y71998D01*
X52516Y70904D01*
X52231Y69788D01*
X52026Y68655D01*
X51899Y67510D01*
X51853Y66360D01*
X51888Y65208D01*
X52002Y64062D01*
X52197Y62927D01*
X52470Y61808D01*
X52820Y60711D01*
X53246Y59641D01*
X53746Y58604D01*
X54317Y57603D01*
X54956Y56645D01*
X55660Y55734D01*
X56427Y54874D01*
X57251Y54070D01*
X58129Y53326D01*
X59058Y52644D01*
X60031Y52029D01*
X61046Y51483D01*
X62095Y51009D01*
X63175Y50610D01*
X64281Y50287D01*
X65406Y50042D01*
X66546Y49875D01*
X67694Y49789D01*
X67695Y49790D01*
X56156Y69008D02*
X56376Y69852D01*
X56156Y69008D02*
X55995Y68150D01*
X55895Y67284D01*
X55855Y66412D01*
X55876Y65540D01*
X55958Y64671D01*
X56100Y63811D01*
X56302Y62962D01*
X56563Y62129D01*
X56881Y61317D01*
X57255Y60528D01*
X57683Y59768D01*
X58163Y59040D01*
X58693Y58346D01*
X59269Y57692D01*
X59890Y57079D01*
X60553Y56511D01*
X61253Y55990D01*
X61988Y55520D01*
X62754Y55102D01*
X63547Y54739D01*
X64364Y54431D01*
X65200Y54182D01*
X66051Y53991D01*
X66914Y53860D01*
X67783Y53790D01*
X67854Y53786D01*
X67264Y102760D02*
X69811Y102747D01*
X67264Y102760D02*
X64721Y102595D01*
X62197Y102253D01*
X59702Y101736D01*
X57250Y101046D01*
X54851Y100187D01*
X52519Y99162D01*
X50263Y97978D01*
X48096Y96638D01*
X46027Y95151D01*
X44067Y93524D01*
X42226Y91763D01*
X40512Y89878D01*
X38933Y87879D01*
X37498Y85774D01*
X36213Y83574D01*
X35085Y81290D01*
X34119Y78932D01*
X33319Y76513D01*
X32691Y74044D01*
X32235Y71538D01*
X31957Y69005D01*
X31855Y66460D01*
X31931Y63913D01*
X32184Y61378D01*
X32614Y58867D01*
X33218Y56392D01*
X33993Y53965D01*
X34936Y51598D01*
X36041Y49303D01*
X37304Y47090D01*
X38718Y44971D01*
X40276Y42955D01*
X41971Y41054D01*
X43795Y39275D01*
X45739Y37627D01*
X47792Y36119D01*
X49946Y34758D01*
X52189Y33551D01*
X54511Y32503D01*
X56901Y31620D01*
X59346Y30905D01*
X61836Y30363D01*
X64357Y29996D01*
X66896Y29806D01*
X66905Y114755D02*
X70290Y114738D01*
X66905Y114755D02*
X63527Y114536D01*
X60172Y114082D01*
X56858Y113395D01*
X53599Y112478D01*
X50412Y111336D01*
X47313Y109975D01*
X44316Y108401D01*
X41436Y106621D01*
X38687Y104645D01*
X36083Y102482D01*
X33636Y100143D01*
X31359Y97639D01*
X29261Y94982D01*
X27354Y92184D01*
X25647Y89261D01*
X24147Y86226D01*
X22864Y83094D01*
X21801Y79880D01*
X20966Y76599D01*
X20361Y73268D01*
X19991Y69903D01*
X19855Y66521D01*
X19957Y63137D01*
X20293Y59769D01*
X20865Y56432D01*
X21667Y53143D01*
X22697Y49919D01*
X23949Y46774D01*
X25418Y43724D01*
X27096Y40783D01*
X28975Y37967D01*
X31045Y35289D01*
X33298Y32762D01*
X35721Y30398D01*
X38303Y28210D01*
X41032Y26206D01*
X43894Y24398D01*
X46875Y22793D01*
X49961Y21401D01*
X53136Y20227D01*
X56385Y19278D01*
X59693Y18558D01*
X63043Y18070D01*
X66417Y17815D01*
X66307Y134747D02*
X71088Y134722D01*
X66307Y134747D02*
X61536Y134437D01*
X56798Y133795D01*
X52116Y132825D01*
X47514Y131530D01*
X43013Y129917D01*
X38635Y127995D01*
X34403Y125771D01*
X30335Y123258D01*
X26453Y120467D01*
X22775Y117413D01*
X19319Y114108D01*
X16102Y110572D01*
X13139Y106819D01*
X10446Y102868D01*
X8034Y98740D01*
X5917Y94453D01*
X4103Y90029D01*
X2603Y85490D01*
X1423Y80856D01*
X569Y76152D01*
X45Y71399D01*
X-144Y66622D01*
X-1Y61843D01*
X473Y57085D01*
X1280Y52373D01*
X2413Y47728D01*
X3868Y43173D01*
X5637Y38731D01*
X7711Y34423D01*
X10081Y30271D01*
X12734Y26294D01*
X15659Y22511D01*
X18840Y18942D01*
X22263Y15603D01*
X25910Y12512D01*
X29764Y9682D01*
X33806Y7128D01*
X38016Y4862D01*
X42374Y2896D01*
X46858Y1238D01*
X51448Y-102D01*
X56119Y-1120D01*
X60851Y-1809D01*
X65618Y-2166D01*
X65619Y-2167D01*
X66427Y130748D02*
X70929Y130725D01*
X66427Y130748D02*
X61935Y130456D01*
X57473Y129852D01*
X53065Y128939D01*
X48731Y127719D01*
X44493Y126201D01*
X40371Y124390D01*
X36385Y122297D01*
X32555Y119930D01*
X28900Y117302D01*
X25437Y114426D01*
X22182Y111315D01*
X19153Y107984D01*
X16364Y104451D01*
X13828Y100731D01*
X11557Y96843D01*
X9563Y92807D01*
X7855Y88641D01*
X6443Y84367D01*
X5332Y80004D01*
X4528Y75574D01*
X4035Y71099D01*
X3855Y66601D01*
X3989Y62100D01*
X4437Y57621D01*
X5197Y53183D01*
X6264Y48809D01*
X7634Y44521D01*
X9299Y40338D01*
X11252Y36282D01*
X13484Y32372D01*
X15982Y28627D01*
X18736Y25065D01*
X21732Y21704D01*
X24955Y18561D01*
X28389Y15650D01*
X32018Y12985D01*
X35824Y10580D01*
X39788Y8447D01*
X43892Y6595D01*
X48114Y5034D01*
X52436Y3771D01*
X56835Y2813D01*
X61290Y2164D01*
X65778Y1828D01*
X66546Y126750D02*
X70769Y126728D01*
X66546Y126750D02*
X62333Y126476D01*
X58148Y125909D01*
X54013Y125052D01*
X49948Y123909D01*
X45972Y122484D01*
X42106Y120786D01*
X38368Y118822D01*
X34775Y116603D01*
X31347Y114138D01*
X28098Y111439D01*
X25046Y108521D01*
X22204Y105397D01*
X19588Y102083D01*
X17209Y98594D01*
X15079Y94947D01*
X13209Y91161D01*
X11607Y87254D01*
X10282Y83244D01*
X9240Y79152D01*
X8486Y74997D01*
X8023Y70800D01*
X7855Y66580D01*
X7981Y62359D01*
X8401Y58157D01*
X9114Y53995D01*
X10115Y49892D01*
X11400Y45870D01*
X12962Y41947D01*
X14794Y38142D01*
X16887Y34474D01*
X19231Y30961D01*
X21814Y27621D01*
X24624Y24468D01*
X27647Y21520D01*
X30868Y18789D01*
X34272Y16290D01*
X37841Y14034D01*
X41560Y12033D01*
X45409Y10296D01*
X49370Y8832D01*
X53424Y7647D01*
X57550Y6749D01*
X61728Y6140D01*
X65938Y5825D01*
X66786Y118754D02*
X70450Y118735D01*
X66786Y118754D02*
X63129Y118517D01*
X59498Y118025D01*
X55910Y117281D01*
X52382Y116289D01*
X48933Y115053D01*
X45578Y113579D01*
X42333Y111875D01*
X39216Y109949D01*
X36241Y107810D01*
X33422Y105468D01*
X30773Y102936D01*
X28307Y100225D01*
X26037Y97349D01*
X23973Y94322D01*
X22124Y91157D01*
X20501Y87872D01*
X19111Y84481D01*
X17962Y81002D01*
X17057Y77451D01*
X16403Y73845D01*
X16002Y70203D01*
X15855Y66541D01*
X15965Y62878D01*
X16329Y59232D01*
X16948Y55620D01*
X17816Y52060D01*
X18931Y48570D01*
X20287Y45165D01*
X21877Y41864D01*
X23693Y38681D01*
X25726Y35633D01*
X27968Y32734D01*
X30406Y29998D01*
X33029Y27439D01*
X35825Y25070D01*
X38778Y22901D01*
X41876Y20944D01*
X45103Y19207D01*
X48443Y17700D01*
X51880Y16429D01*
X55398Y15402D01*
X58978Y14622D01*
X62604Y14093D01*
X66257Y13819D01*
X67024Y110757D02*
X70130Y110741D01*
X67024Y110757D02*
X63925Y110556D01*
X60847Y110139D01*
X57805Y109509D01*
X54815Y108668D01*
X51891Y107620D01*
X49047Y106371D01*
X46298Y104926D01*
X43655Y103294D01*
X41133Y101481D01*
X38744Y99496D01*
X36499Y97350D01*
X34409Y95052D01*
X32484Y92614D01*
X30734Y90048D01*
X29168Y87366D01*
X27792Y84581D01*
X26614Y81707D01*
X25639Y78758D01*
X24872Y75748D01*
X24318Y72692D01*
X23977Y69604D01*
X23853Y66501D01*
X23946Y63396D01*
X24255Y60305D01*
X24779Y57243D01*
X25516Y54226D01*
X26460Y51267D01*
X27610Y48381D01*
X28957Y45583D01*
X30497Y42885D01*
X32220Y40301D01*
X34120Y37844D01*
X36187Y35525D01*
X38411Y33357D01*
X40780Y31348D01*
X43284Y29509D01*
X45909Y27850D01*
X48645Y26378D01*
X51476Y25101D01*
X54389Y24024D01*
X57370Y23153D01*
X60405Y22491D01*
X63479Y22044D01*
X66576Y21811D01*
X66577Y21812D01*
X67144Y106758D02*
X69970Y106744D01*
X67144Y106758D02*
X64322Y106576D01*
X61521Y106196D01*
X58753Y105622D01*
X56032Y104857D01*
X53371Y103904D01*
X50782Y102767D01*
X48280Y101452D01*
X45875Y99966D01*
X43580Y98316D01*
X41405Y96510D01*
X39362Y94556D01*
X37460Y92465D01*
X35708Y90246D01*
X34116Y87911D01*
X32690Y85470D01*
X31438Y82935D01*
X30366Y80320D01*
X29479Y77635D01*
X28781Y74896D01*
X28276Y72115D01*
X27966Y69305D01*
X27854Y66480D01*
X27938Y63654D01*
X28219Y60842D01*
X28696Y58055D01*
X29366Y55309D01*
X30226Y52616D01*
X31272Y49990D01*
X32499Y47443D01*
X33900Y44987D01*
X35469Y42636D01*
X37198Y40400D01*
X39079Y38289D01*
X41102Y36315D01*
X43259Y34488D01*
X45537Y32815D01*
X47927Y31304D01*
X50416Y29965D01*
X52993Y28802D01*
X55645Y27822D01*
X58358Y27029D01*
X61120Y26427D01*
X63917Y26020D01*
X66736Y25809D01*
X66069Y142743D02*
X71408Y142716D01*
X66069Y142743D02*
X60740Y142397D01*
X55449Y141681D01*
X50221Y140597D01*
X45080Y139151D01*
X40054Y137350D01*
X35165Y135203D01*
X30438Y132720D01*
X25895Y129913D01*
X21560Y126796D01*
X17452Y123385D01*
X13593Y119695D01*
X10000Y115745D01*
X6691Y111554D01*
X3683Y107142D01*
X990Y102531D01*
X-1373Y97744D01*
X-3399Y92803D01*
X-5074Y87733D01*
X-6392Y82558D01*
X-7345Y77305D01*
X-7930Y71997D01*
X-8144Y66662D01*
X-7984Y61324D01*
X-7452Y56012D01*
X-6552Y50748D01*
X-5286Y45561D01*
X-3661Y40474D01*
X-1686Y35514D01*
X629Y30703D01*
X3276Y26065D01*
X6239Y21624D01*
X9506Y17399D01*
X13058Y13413D01*
X16881Y9685D01*
X20954Y6232D01*
X25258Y3072D01*
X29772Y219D01*
X34474Y-2310D01*
X39341Y-4506D01*
X44349Y-6357D01*
X49475Y-7855D01*
X54692Y-8991D01*
X59976Y-9761D01*
X65299Y-10160D01*
X66188Y138745D02*
X71248Y138719D01*
X66188Y138745D02*
X61138Y138417D01*
X56124Y137738D01*
X51169Y136711D01*
X46297Y135341D01*
X41533Y133634D01*
X36900Y131599D01*
X32420Y129246D01*
X28115Y126586D01*
X24006Y123632D01*
X20114Y120399D01*
X16456Y116902D01*
X13051Y113159D01*
X9915Y109186D01*
X7064Y105006D01*
X4512Y100636D01*
X2271Y96099D01*
X352Y91416D01*
X-1235Y86612D01*
X-2484Y81708D01*
X-3388Y76729D01*
X-3942Y71699D01*
X-4144Y66642D01*
X-3993Y61584D01*
X-3489Y56549D01*
X-2636Y51561D01*
X-1436Y46645D01*
X102Y41824D01*
X1974Y37123D01*
X4169Y32564D01*
X6677Y28168D01*
X9486Y23959D01*
X12581Y19956D01*
X15948Y16178D01*
X19571Y12644D01*
X23431Y9372D01*
X27510Y6377D01*
X31788Y3674D01*
X36244Y1276D01*
X40856Y-804D01*
X45603Y-2559D01*
X50460Y-3978D01*
X55405Y-5055D01*
X60412Y-5785D01*
X65458Y-6163D01*
X65459Y-6164D01*
X67056Y33803D02*
X69464Y33791D01*
X71867Y33947D01*
X74254Y34270D01*
X76611Y34759D01*
X78929Y35411D01*
X81196Y36223D01*
X83401Y37192D01*
X85533Y38312D01*
X87581Y39578D01*
X89537Y40983D01*
X91389Y42522D01*
X93130Y44186D01*
X94750Y45967D01*
X96242Y47857D01*
X97598Y49847D01*
X98813Y51926D01*
X99879Y54085D01*
X100793Y56313D01*
X101548Y58600D01*
X102143Y60933D01*
X102573Y63303D01*
X102836Y65696D01*
X102932Y68102D01*
X102860Y70509D01*
X102621Y72905D01*
X102214Y75279D01*
X101644Y77618D01*
X100911Y79912D01*
X100020Y82149D01*
X98975Y84319D01*
X97782Y86410D01*
X96445Y88413D01*
X94972Y90318D01*
X93370Y92116D01*
X91647Y93797D01*
X89810Y95354D01*
X87869Y96780D01*
X85833Y98066D01*
X83712Y99207D01*
X81517Y100197D01*
X79259Y101032D01*
X76948Y101708D01*
X74594Y102220D01*
X72212Y102567D01*
X69811Y102747D01*
X69345Y37789D02*
X67216Y37799D01*
X69345Y37789D02*
X71470Y37927D01*
X73579Y38212D01*
X75664Y38644D01*
X77713Y39221D01*
X79717Y39939D01*
X81667Y40795D01*
X83551Y41785D01*
X85362Y42904D01*
X87091Y44146D01*
X88729Y45507D01*
X90268Y46978D01*
X91700Y48553D01*
X93019Y50224D01*
X94218Y51983D01*
X95292Y53821D01*
X96235Y55730D01*
X97042Y57699D01*
X97711Y59721D01*
X98236Y61784D01*
X98616Y63878D01*
X98849Y65995D01*
X98934Y68122D01*
X98871Y70250D01*
X98659Y72368D01*
X98300Y74466D01*
X97795Y76535D01*
X97147Y78562D01*
X96360Y80540D01*
X95436Y82459D01*
X94381Y84308D01*
X93200Y86079D01*
X91897Y87763D01*
X90481Y89352D01*
X88957Y90839D01*
X87333Y92215D01*
X85617Y93475D01*
X83817Y94612D01*
X81943Y95621D01*
X80002Y96497D01*
X78005Y97235D01*
X75962Y97832D01*
X73882Y98285D01*
X71775Y98592D01*
X69652Y98751D01*
X69651Y98751D01*
X69225Y41787D02*
X67375Y41796D01*
X69225Y41787D02*
X71071Y41907D01*
X72904Y42155D01*
X74715Y42531D01*
X76495Y43031D01*
X78237Y43655D01*
X79930Y44399D01*
X81568Y45259D01*
X83141Y46232D01*
X84643Y47311D01*
X86066Y48493D01*
X87403Y49771D01*
X88648Y51140D01*
X89794Y52591D01*
X90836Y54120D01*
X91769Y55717D01*
X92588Y57375D01*
X93289Y59087D01*
X93870Y60843D01*
X94326Y62635D01*
X94657Y64455D01*
X94859Y66294D01*
X94933Y68142D01*
X94878Y69991D01*
X94694Y71831D01*
X94382Y73655D01*
X93943Y75452D01*
X93381Y77214D01*
X92696Y78932D01*
X91894Y80599D01*
X90977Y82205D01*
X89951Y83744D01*
X88819Y85207D01*
X87588Y86588D01*
X86264Y87879D01*
X84853Y89076D01*
X83362Y90170D01*
X81799Y91158D01*
X80170Y92035D01*
X78484Y92796D01*
X76749Y93437D01*
X74973Y93956D01*
X73166Y94349D01*
X71336Y94616D01*
X69491Y94754D01*
X69106Y45786D02*
X67535Y45793D01*
X69106Y45786D02*
X70673Y45887D01*
X72229Y46098D01*
X73767Y46417D01*
X75279Y46842D01*
X76757Y47372D01*
X78195Y48003D01*
X79586Y48734D01*
X80921Y49559D01*
X82197Y50476D01*
X83405Y51479D01*
X84540Y52565D01*
X85596Y53726D01*
X86570Y54959D01*
X87454Y56257D01*
X88246Y57613D01*
X88942Y59021D01*
X89538Y60474D01*
X90030Y61965D01*
X90418Y63487D01*
X90698Y65032D01*
X90870Y66593D01*
X90933Y68162D01*
X90886Y69732D01*
X90730Y71295D01*
X90465Y72843D01*
X90093Y74369D01*
X89615Y75865D01*
X89034Y77324D01*
X88352Y78739D01*
X87574Y80103D01*
X86702Y81409D01*
X85742Y82651D01*
X84697Y83824D01*
X83572Y84920D01*
X82374Y85936D01*
X81109Y86865D01*
X79781Y87704D01*
X78398Y88448D01*
X76967Y89094D01*
X75493Y89639D01*
X73986Y90079D01*
X72451Y90414D01*
X70898Y90640D01*
X69332Y90757D01*
X68867Y53781D02*
X67854Y53786D01*
X68867Y53781D02*
X69876Y53847D01*
X70879Y53983D01*
X71870Y54188D01*
X72844Y54462D01*
X73797Y54803D01*
X74724Y55210D01*
X75620Y55681D01*
X76481Y56213D01*
X77303Y56804D01*
X78081Y57450D01*
X78813Y58150D01*
X79494Y58898D01*
X80121Y59693D01*
X80691Y60529D01*
X81201Y61403D01*
X81650Y62310D01*
X82033Y63247D01*
X82351Y64208D01*
X82601Y65188D01*
X82781Y66184D01*
X82892Y67190D01*
X82933Y68201D01*
X82903Y69213D01*
X82802Y70220D01*
X82631Y71218D01*
X82391Y72201D01*
X82083Y73165D01*
X81709Y74105D01*
X81270Y75017D01*
X80768Y75896D01*
X80207Y76738D01*
X79588Y77538D01*
X78914Y78294D01*
X78190Y79001D01*
X77418Y79655D01*
X76602Y80254D01*
X75746Y80795D01*
X74855Y81274D01*
X73933Y81691D01*
X72983Y82042D01*
X72012Y82325D01*
X71023Y82541D01*
X70022Y82687D01*
X69012Y82762D01*
X69012Y82763D01*
X68987Y49784D02*
X67695Y49790D01*
X68987Y49784D02*
X70275Y49867D01*
X71555Y50041D01*
X72819Y50303D01*
X74062Y50652D01*
X75278Y51088D01*
X76460Y51607D01*
X77603Y52208D01*
X78702Y52886D01*
X79750Y53640D01*
X80744Y54465D01*
X81677Y55357D01*
X82546Y56313D01*
X83346Y57326D01*
X84073Y58393D01*
X84725Y59508D01*
X85297Y60666D01*
X85786Y61860D01*
X86192Y63086D01*
X86510Y64338D01*
X86741Y65608D01*
X86882Y66892D01*
X86934Y68182D01*
X86895Y69473D01*
X86767Y70758D01*
X86549Y72030D01*
X86243Y73285D01*
X85850Y74515D01*
X85372Y75714D01*
X84812Y76878D01*
X84172Y77999D01*
X83456Y79074D01*
X82666Y80095D01*
X81807Y81059D01*
X80882Y81961D01*
X79897Y82796D01*
X78857Y83560D01*
X77765Y84250D01*
X76628Y84862D01*
X75451Y85393D01*
X74240Y85841D01*
X73000Y86203D01*
X71739Y86478D01*
X70461Y86664D01*
X69173Y86760D01*
X69172Y86760D01*
X70609Y122731D02*
X66666Y122751D01*
X62730Y122496D01*
X58822Y121967D01*
X54961Y121166D01*
X51164Y120098D01*
X47452Y118768D01*
X43841Y117182D01*
X40350Y115349D01*
X36995Y113275D01*
X33793Y110974D01*
X30759Y108454D01*
X27909Y105729D01*
X25255Y102811D01*
X22811Y99716D01*
X20590Y96458D01*
X18601Y93052D01*
X16854Y89516D01*
X15359Y85868D01*
X14121Y82123D01*
X13148Y78301D01*
X12443Y74421D01*
X12011Y70501D01*
X11854Y66561D01*
X11972Y62619D01*
X12364Y58695D01*
X13029Y54808D01*
X13964Y50976D01*
X15164Y47220D01*
X16623Y43556D01*
X18334Y40003D01*
X20289Y36578D01*
X22477Y33297D01*
X24889Y30177D01*
X27514Y27233D01*
X30336Y24480D01*
X33345Y21929D01*
X36524Y19595D01*
X39857Y17489D01*
X43330Y15620D01*
X46925Y13998D01*
X50624Y12630D01*
X54409Y11524D01*
X58262Y10685D01*
X62165Y10116D01*
X66097Y9821D01*
X66098Y9822D01*
X65619Y-2167D02*
X70540Y-2192D01*
X75451Y-1874D01*
X80327Y-1213D01*
X85145Y-214D01*
X89882Y1117D01*
X94515Y2777D01*
X99020Y4755D01*
X103377Y7044D01*
X107563Y9630D01*
X111559Y12503D01*
X115344Y15647D01*
X118901Y19047D01*
X122212Y22688D01*
X125261Y26550D01*
X128033Y30615D01*
X130515Y34865D01*
X132694Y39277D01*
X134561Y43830D01*
X136105Y48502D01*
X137319Y53271D01*
X138198Y58112D01*
X138737Y63004D01*
X138934Y67921D01*
X138787Y72839D01*
X138297Y77736D01*
X137467Y82586D01*
X136300Y87367D01*
X134803Y92054D01*
X132983Y96626D01*
X130848Y101059D01*
X128409Y105333D01*
X125678Y109427D01*
X122668Y113320D01*
X119394Y116993D01*
X115871Y120429D01*
X112118Y123611D01*
X108151Y126524D01*
X103991Y129152D01*
X99658Y131484D01*
X95173Y133508D01*
X90557Y135215D01*
X85834Y136595D01*
X81026Y137642D01*
X76156Y138352D01*
X71249Y138719D01*
X71248Y138719D01*
X70420Y1805D02*
X65778Y1828D01*
X70420Y1805D02*
X75052Y2105D01*
X79652Y2728D01*
X84196Y3671D01*
X88665Y4928D01*
X93034Y6493D01*
X97284Y8360D01*
X101393Y10518D01*
X105342Y12958D01*
X109111Y15667D01*
X112682Y18633D01*
X116037Y21841D01*
X119160Y25274D01*
X122036Y28918D01*
X124651Y32753D01*
X126992Y36761D01*
X129048Y40922D01*
X130808Y45217D01*
X132264Y49624D01*
X133410Y54122D01*
X134239Y58689D01*
X134747Y63303D01*
X134932Y67941D01*
X134794Y72581D01*
X134332Y77199D01*
X133549Y81774D01*
X132449Y86284D01*
X131037Y90705D01*
X129320Y95018D01*
X127306Y99199D01*
X125005Y103231D01*
X122429Y107092D01*
X119590Y110764D01*
X116501Y114229D01*
X113179Y117470D01*
X109638Y120471D01*
X105896Y123219D01*
X101973Y125698D01*
X97885Y127898D01*
X93654Y129807D01*
X89301Y131417D01*
X84845Y132718D01*
X80310Y133706D01*
X75717Y134375D01*
X71088Y134722D01*
X70301Y5803D02*
X65938Y5825D01*
X70301Y5803D02*
X74654Y6086D01*
X78977Y6671D01*
X83249Y7557D01*
X87448Y8738D01*
X91555Y10210D01*
X95549Y11964D01*
X99411Y13993D01*
X103122Y16286D01*
X106664Y18832D01*
X110020Y21619D01*
X113173Y24634D01*
X116108Y27861D01*
X118812Y31285D01*
X121269Y34890D01*
X123469Y38657D01*
X125401Y42568D01*
X127056Y46604D01*
X128425Y50746D01*
X129501Y54974D01*
X130280Y59266D01*
X130758Y63602D01*
X130932Y67961D01*
X130802Y72322D01*
X130368Y76663D01*
X129632Y80963D01*
X128598Y85200D01*
X127271Y89356D01*
X125657Y93409D01*
X123764Y97340D01*
X121602Y101129D01*
X119181Y104757D01*
X116512Y108208D01*
X113610Y111465D01*
X110487Y114511D01*
X107159Y117332D01*
X103643Y119914D01*
X99955Y122244D01*
X96113Y124311D01*
X92137Y126106D01*
X88045Y127618D01*
X83858Y128842D01*
X79595Y129770D01*
X75278Y130399D01*
X70929Y130725D01*
X70181Y9802D02*
X66098Y9822D01*
X70181Y9802D02*
X74256Y10066D01*
X78302Y10614D01*
X82301Y11443D01*
X86231Y12549D01*
X90075Y13926D01*
X93814Y15568D01*
X97429Y17467D01*
X100902Y19613D01*
X104217Y21997D01*
X107359Y24606D01*
X110310Y27427D01*
X113057Y30448D01*
X115587Y33653D01*
X117888Y37027D01*
X119947Y40553D01*
X121755Y44214D01*
X123304Y47992D01*
X124585Y51869D01*
X125593Y55826D01*
X126322Y59843D01*
X126769Y63902D01*
X126932Y67982D01*
X126810Y72063D01*
X126404Y76126D01*
X125715Y80151D01*
X124747Y84118D01*
X123505Y88007D01*
X121994Y91801D01*
X120223Y95480D01*
X118199Y99026D01*
X115932Y102423D01*
X113435Y105653D01*
X110718Y108701D01*
X107795Y111552D01*
X104680Y114192D01*
X101389Y116609D01*
X97937Y118790D01*
X94341Y120725D01*
X90620Y122405D01*
X86790Y123820D01*
X82870Y124965D01*
X78881Y125835D01*
X74840Y126423D01*
X70769Y126728D01*
X70061Y13800D02*
X66257Y13819D01*
X70061Y13800D02*
X73858Y14046D01*
X77627Y14557D01*
X81352Y15329D01*
X85014Y16359D01*
X88595Y17642D01*
X92078Y19172D01*
X95446Y20941D01*
X98682Y22941D01*
X101771Y25161D01*
X104697Y27592D01*
X107447Y30220D01*
X110006Y33034D01*
X112364Y36021D01*
X114507Y39164D01*
X116425Y42448D01*
X118110Y45859D01*
X119553Y49379D01*
X120746Y52991D01*
X121685Y56677D01*
X122365Y60420D01*
X122781Y64201D01*
X122933Y68002D01*
X122819Y71805D01*
X122441Y75590D01*
X121799Y79339D01*
X120897Y83035D01*
X119740Y86659D01*
X118333Y90193D01*
X116683Y93620D01*
X114797Y96924D01*
X112686Y100089D01*
X110359Y103098D01*
X107828Y105938D01*
X105104Y108594D01*
X102203Y111054D01*
X99136Y113305D01*
X95921Y115338D01*
X92571Y117140D01*
X89103Y118705D01*
X85536Y120024D01*
X81884Y121091D01*
X78167Y121900D01*
X74403Y122449D01*
X70609Y122731D01*
X69942Y17798D02*
X66417Y17815D01*
X69942Y17798D02*
X73460Y18026D01*
X76953Y18499D01*
X80404Y19214D01*
X83797Y20169D01*
X87116Y21358D01*
X90343Y22775D01*
X93463Y24414D01*
X96462Y26267D01*
X99324Y28325D01*
X102036Y30577D01*
X104583Y33013D01*
X106955Y35620D01*
X109139Y38387D01*
X111125Y41299D01*
X112903Y44343D01*
X114464Y47504D01*
X115801Y50765D01*
X116907Y54112D01*
X117777Y57528D01*
X118406Y60996D01*
X118792Y64499D01*
X118933Y68022D01*
X118828Y71545D01*
X118477Y75052D01*
X117882Y78527D01*
X117047Y81951D01*
X115974Y85309D01*
X114670Y88584D01*
X113141Y91760D01*
X111394Y94821D01*
X109438Y97753D01*
X107281Y100542D01*
X104936Y103173D01*
X102413Y105634D01*
X99724Y107913D01*
X96883Y110000D01*
X93903Y111882D01*
X90799Y113553D01*
X87586Y115003D01*
X84280Y116225D01*
X80896Y117214D01*
X77452Y117964D01*
X73964Y118472D01*
X70450Y118735D01*
X69703Y25794D02*
X66736Y25809D01*
X69703Y25794D02*
X72663Y25986D01*
X75603Y26385D01*
X78507Y26987D01*
X81363Y27790D01*
X84156Y28790D01*
X86872Y29983D01*
X89498Y31363D01*
X92021Y32922D01*
X94430Y34654D01*
X96712Y36549D01*
X98856Y38599D01*
X100852Y40793D01*
X102690Y43122D01*
X104361Y45573D01*
X105858Y48134D01*
X107171Y50794D01*
X108296Y53539D01*
X109227Y56355D01*
X109960Y59230D01*
X110489Y62149D01*
X110814Y65097D01*
X110933Y68061D01*
X110844Y71027D01*
X110549Y73978D01*
X110049Y76902D01*
X109345Y79784D01*
X108443Y82610D01*
X107345Y85366D01*
X106058Y88039D01*
X104588Y90615D01*
X102942Y93083D01*
X101127Y95430D01*
X99153Y97644D01*
X97030Y99715D01*
X94767Y101634D01*
X92376Y103389D01*
X89868Y104974D01*
X87256Y106380D01*
X84552Y107600D01*
X81770Y108628D01*
X78922Y109461D01*
X76024Y110092D01*
X73089Y110519D01*
X70130Y110741D01*
X69584Y29793D02*
X66896Y29806D01*
X69584Y29793D02*
X72265Y29967D01*
X74928Y30327D01*
X77559Y30873D01*
X80146Y31601D01*
X82676Y32507D01*
X85136Y33588D01*
X87515Y34837D01*
X89801Y36250D01*
X91983Y37818D01*
X94051Y39535D01*
X95993Y41392D01*
X97801Y43380D01*
X99466Y45490D01*
X100980Y47710D01*
X102335Y50030D01*
X103525Y52440D01*
X104545Y54926D01*
X105388Y57477D01*
X106051Y60082D01*
X106531Y62726D01*
X106825Y65397D01*
X106932Y68082D01*
X106852Y70768D01*
X106585Y73442D01*
X106132Y76091D01*
X105495Y78701D01*
X104677Y81261D01*
X103683Y83758D01*
X102517Y86179D01*
X101185Y88513D01*
X99694Y90748D01*
X98050Y92874D01*
X96262Y94880D01*
X94338Y96756D01*
X92288Y98494D01*
X90122Y100084D01*
X87850Y101520D01*
X85484Y102793D01*
X83035Y103899D01*
X80514Y104830D01*
X77935Y105584D01*
X75309Y106156D01*
X72650Y106543D01*
X69970Y106744D01*
X69823Y21796D02*
X66577Y21812D01*
X69823Y21796D02*
X73062Y22006D01*
X76278Y22442D01*
X79456Y23101D01*
X82580Y23980D01*
X85636Y25074D01*
X88608Y26380D01*
X91481Y27889D01*
X94242Y29595D01*
X96877Y31490D01*
X99374Y33563D01*
X101720Y35806D01*
X103904Y38207D01*
X105915Y40755D01*
X107744Y43437D01*
X109381Y46239D01*
X110818Y49149D01*
X112049Y52152D01*
X113067Y55234D01*
X113868Y58379D01*
X114448Y61573D01*
X114803Y64799D01*
X114933Y68042D01*
X114836Y71286D01*
X114513Y74516D01*
X113965Y77715D01*
X113196Y80868D01*
X112208Y83960D01*
X111008Y86975D01*
X109599Y89899D01*
X107991Y92718D01*
X106189Y95418D01*
X104204Y97986D01*
X102044Y100409D01*
X99721Y102675D01*
X97245Y104774D01*
X94629Y106695D01*
X91885Y108429D01*
X89027Y109967D01*
X86069Y111302D01*
X83024Y112427D01*
X79909Y113337D01*
X76738Y114028D01*
X73526Y114496D01*
X70290Y114738D01*
X70778Y-10188D02*
X65299Y-10160D01*
X70778Y-10188D02*
X76246Y-9833D01*
X81676Y-9098D01*
X87041Y-7986D01*
X92315Y-6502D01*
X97474Y-4654D01*
X102490Y-2450D01*
X107341Y96D01*
X112002Y2976D01*
X116451Y6175D01*
X120666Y9675D01*
X124626Y13462D01*
X128313Y17515D01*
X131708Y21816D01*
X134795Y26343D01*
X137558Y31074D01*
X139985Y35986D01*
X142063Y41056D01*
X143782Y46259D01*
X145135Y51569D01*
X146113Y56960D01*
X146713Y62406D01*
X146932Y67881D01*
X146768Y73357D01*
X146223Y78809D01*
X145299Y84210D01*
X144000Y89533D01*
X142333Y94753D01*
X140306Y99843D01*
X137929Y104780D01*
X135213Y109539D01*
X132172Y114096D01*
X128820Y118431D01*
X125175Y122521D01*
X121252Y126347D01*
X117073Y129890D01*
X112656Y133133D01*
X108024Y136060D01*
X103200Y138656D01*
X98205Y140910D01*
X93963Y142507D01*
X70659Y-6190D02*
X65459Y-6164D01*
X70659Y-6190D02*
X75848Y-5854D01*
X81002Y-5156D01*
X86093Y-4100D01*
X91099Y-2692D01*
X95994Y-938D01*
X100755Y1152D01*
X105359Y3570D01*
X109783Y6303D01*
X114005Y9339D01*
X118005Y12661D01*
X121764Y16254D01*
X125263Y20101D01*
X128485Y24183D01*
X131414Y28479D01*
X134037Y32969D01*
X136340Y37632D01*
X138312Y42443D01*
X139944Y47381D01*
X141227Y52420D01*
X142156Y57536D01*
X142725Y62705D01*
X142933Y67901D01*
X142777Y73099D01*
X142260Y78273D01*
X141383Y83399D01*
X140150Y88450D01*
X138568Y93404D01*
X136644Y98235D01*
X134388Y102920D01*
X131811Y107437D01*
X128925Y111762D01*
X125744Y115876D01*
X122284Y119758D01*
X118561Y123389D01*
X114595Y126751D01*
X110403Y129829D01*
X106007Y132607D01*
X101428Y135071D01*
X96688Y137210D01*
X91811Y139013D01*
X86819Y140471D01*
X81739Y141578D01*
X76593Y142328D01*
X71408Y142716D01*
X62563Y71563D02*
X58087Y71563D01*
X93961Y142510D02*
X93961Y149001D01*
X93961Y142510D02*
X93963Y142507D01*
D22*
X-27199Y0D02*
X-27133Y-1897D01*
X-26935Y-3785D01*
X-26605Y-5655D01*
X-26146Y-7497D01*
X-25559Y-9302D01*
X-24848Y-11063D01*
X-24015Y-12769D01*
X-23066Y-14413D01*
X-22005Y-15987D01*
X-20836Y-17483D01*
X-19565Y-18894D01*
X-18200Y-20213D01*
X-16745Y-21433D01*
X-15210Y-22549D01*
X-13599Y-23555D01*
X-11923Y-24446D01*
X-10189Y-25219D01*
X-8405Y-25868D01*
X-6580Y-26391D01*
X-4723Y-26786D01*
X-2843Y-27050D01*
X-949Y-27183D01*
X0Y-27199D01*
X137128Y-27199D02*
X139026Y-27133D01*
X140914Y-26935D01*
X142784Y-26605D01*
X144626Y-26146D01*
X146431Y-25559D01*
X148192Y-24848D01*
X149898Y-24015D01*
X151542Y-23066D01*
X153116Y-22005D01*
X154612Y-20836D01*
X156023Y-19565D01*
X157342Y-18200D01*
X158562Y-16745D01*
X159678Y-15210D01*
X160684Y-13599D01*
X161576Y-11923D01*
X162348Y-10189D01*
X162997Y-8405D01*
X163520Y-6580D01*
X163915Y-4723D01*
X164179Y-2843D01*
X164312Y-949D01*
X164328Y0D01*
X164328Y137128D02*
X164262Y139026D01*
X164064Y140914D01*
X163734Y142784D01*
X163275Y144626D01*
X162688Y146431D01*
X161977Y148192D01*
X161144Y149898D01*
X160195Y151542D01*
X159134Y153116D01*
X157965Y154612D01*
X156694Y156023D01*
X155329Y157342D01*
X153874Y158562D01*
X152339Y159678D01*
X150728Y160684D01*
X149052Y161576D01*
X147318Y162348D01*
X145534Y162997D01*
X143709Y163520D01*
X141852Y163915D01*
X139972Y164179D01*
X138078Y164312D01*
X137128Y164328D01*
X0Y164328D02*
X-1897Y164262D01*
X-3785Y164064D01*
X-5655Y163734D01*
X-7497Y163275D01*
X-9302Y162688D01*
X-11063Y161977D01*
X-12769Y161144D01*
X-14413Y160195D01*
X-15987Y159134D01*
X-17483Y157965D01*
X-18894Y156694D01*
X-20213Y155329D01*
X-21433Y153874D01*
X-22549Y152339D01*
X-23555Y150728D01*
X-24446Y149052D01*
X-25219Y147318D01*
X-25868Y145534D01*
X-26391Y143709D01*
X-26786Y141852D01*
X-27050Y139972D01*
X-27183Y138078D01*
X-27199Y137128D01*
D20*
X64748Y156886D02*
X65200Y156435D01*
X64748Y155984D01*
X64063Y154331D01*
X64063Y152540D01*
X64748Y150886D01*
X66014Y149620D01*
X67286Y149094D01*
X67063Y147811D01*
X60355Y147482D01*
X52434Y146307D01*
X44667Y144361D01*
X37127Y141664D01*
X29888Y138240D01*
X23020Y134123D01*
X16588Y129353D01*
X10655Y123975D01*
X5277Y118042D01*
X508Y111610D01*
X-3608Y104742D01*
X-7032Y97503D01*
X-9729Y89963D01*
X-11675Y82196D01*
X-12850Y74275D01*
X-13243Y66277D01*
X-12850Y58279D01*
X-11675Y50358D01*
X-9729Y42590D01*
X-7032Y35050D01*
X-3608Y27811D01*
X508Y20943D01*
X5277Y14511D01*
X10655Y8578D01*
X16588Y3200D01*
X23020Y-1568D01*
X29888Y-5685D01*
X37127Y-9108D01*
X44667Y-11806D01*
X52434Y-13752D01*
X60355Y-14927D01*
X64707Y-15141D01*
X65097Y-15218D01*
X65299Y-15258D01*
X65657Y-15187D01*
X68433Y-15324D01*
X76627Y-14921D01*
X84743Y-13717D01*
X92701Y-11724D01*
X100426Y-8960D01*
X107842Y-5452D01*
X114879Y-1234D01*
X121469Y3651D01*
X127548Y9160D01*
X133058Y15240D01*
X137945Y21829D01*
X142162Y28866D01*
X145670Y36282D01*
X148434Y44007D01*
X150428Y51965D01*
X151631Y60081D01*
X152034Y68275D02*
X151631Y76469D01*
X150428Y84585D01*
X137945Y114721D02*
X133058Y121311D01*
X127548Y127390D01*
X121469Y132899D01*
X107842Y142004D02*
X100426Y145512D01*
X99060Y146001D01*
X99060Y149001D01*
X98671Y150952D01*
X97566Y152606D01*
X95912Y153711D01*
X93961Y154099D01*
X92010Y153711D02*
X90356Y152606D01*
X89251Y150952D01*
X88863Y149001D01*
X88863Y146179D01*
X72378Y173984D02*
X71927Y174435D01*
X72378Y179984D02*
X71112Y181250D01*
X59703Y72683D02*
X59486Y72631D01*
X59703Y72683D02*
X59909Y72751D01*
X60104Y72833D01*
X60289Y72931D01*
X60463Y73043D01*
X60626Y73171D01*
X60778Y73313D01*
X60778Y69813D01*
D21*
X66314Y86675D02*
X67742Y86767D01*
X66314Y86675D02*
X64896Y86483D01*
X63494Y86192D01*
X62117Y85805D01*
X51024Y77227D02*
X50302Y75991D01*
X49668Y74708D01*
X49126Y73384D01*
X48677Y72026D01*
X48324Y70639D01*
X48068Y69231D01*
X47912Y67809D01*
X47854Y66379D01*
X47897Y64949D01*
X48040Y63525D01*
X48281Y62114D01*
X48620Y60725D01*
X49056Y59361D01*
X49585Y58032D01*
X50206Y56743D01*
X50915Y55500D01*
X54561Y51110D02*
X55652Y50185D01*
X56806Y49338D02*
X58015Y48574D01*
X42157Y85513D02*
X43563Y87293D01*
X42157Y85513D02*
X40879Y83638D01*
X39735Y81680D01*
X38730Y79646D01*
X37870Y77547D01*
X37158Y75393D01*
X36598Y73195D01*
X36193Y70963D01*
X35945Y68708D01*
X35854Y66441D01*
X35922Y64174D01*
X36147Y61917D01*
X36530Y59681D01*
X37068Y57477D01*
X37758Y55316D01*
X38597Y53208D01*
X39581Y51164D01*
X40705Y49194D01*
X41964Y47307D01*
X43352Y45513D01*
X44861Y43819D01*
X46485Y42235D01*
X48216Y40768D01*
X50044Y39426D01*
X51962Y38214D01*
X53959Y37139D01*
X56027Y36206D01*
X58155Y35419D01*
X60332Y34783D01*
X62549Y34300D01*
X64793Y33973D01*
X67056Y33803D01*
X49665Y82119D02*
X50816Y83384D01*
X49665Y82119D02*
X48606Y80777D01*
X47642Y79364D01*
X46780Y77887D01*
X46022Y76354D01*
X45374Y74772D01*
X44837Y73148D01*
X44415Y71491D01*
X44110Y69808D01*
X43922Y68108D01*
X43854Y66399D01*
X43905Y64690D01*
X44075Y62988D01*
X46664Y54883D02*
X47512Y53398D01*
X48461Y51975D01*
X49507Y50622D01*
X50645Y49346D01*
X51869Y48152D01*
X53174Y47046D01*
X54552Y46033D01*
X55998Y45120D01*
X57504Y44310D01*
X59062Y43606D01*
X60666Y43013D01*
X62308Y42534D01*
X63979Y42170D01*
X65671Y41923D01*
X67375Y41796D01*
X67861Y82769D02*
X69012Y82763D01*
X67861Y82769D02*
X66711Y82695D01*
X62250Y81606D02*
X61195Y81143D01*
X60175Y80607D01*
X59196Y80002D01*
X58260Y79330D01*
X61836Y30363D02*
X64357Y29996D01*
X20966Y76599D02*
X21801Y79880D01*
X20966Y76599D02*
X20361Y73268D01*
X19991Y69903D01*
X19855Y66521D01*
X19957Y63137D01*
X20865Y56432D02*
X21667Y53143D01*
X22697Y49919D01*
X23949Y46774D01*
X56385Y19278D02*
X59693Y18558D01*
X63043Y18070D01*
X66417Y17815D01*
X569Y76152D02*
X1423Y80856D01*
X569Y76152D02*
X45Y71399D01*
X-144Y66622D01*
X-1Y61843D01*
X473Y57085D01*
X1280Y52373D01*
X2413Y47728D01*
X3868Y43173D01*
X5637Y38731D01*
X51448Y-102D02*
X56119Y-1120D01*
X60851Y-1809D01*
X65618Y-2166D01*
X65619Y-2167D01*
X5332Y80004D02*
X6443Y84367D01*
X5332Y80004D02*
X4528Y75574D01*
X4035Y71099D01*
X3855Y66601D01*
X3989Y62100D01*
X4437Y57621D01*
X5197Y53183D01*
X6264Y48809D01*
X7634Y44521D01*
X9299Y40338D01*
X56835Y2813D02*
X61290Y2164D01*
X65778Y1828D01*
X66546Y126750D02*
X70769Y126728D01*
X66546Y126750D02*
X62333Y126476D01*
X58148Y125909D01*
X54013Y125052D01*
X49948Y123909D01*
X45972Y122484D01*
X10282Y83244D02*
X9240Y79152D01*
X8486Y74997D01*
X8023Y70800D01*
X7855Y66580D01*
X7981Y62359D01*
X8401Y58157D01*
X9114Y53995D01*
X10115Y49892D01*
X11400Y45870D01*
X12962Y41947D01*
X27647Y21520D02*
X30868Y18789D01*
X34272Y16290D01*
X39216Y109949D02*
X42333Y111875D01*
X39216Y109949D02*
X36241Y107810D01*
X33422Y105468D01*
X30773Y102936D01*
X28307Y100225D01*
X26037Y97349D01*
X20501Y87872D02*
X19111Y84481D01*
X17962Y81002D01*
X17057Y77451D01*
X16403Y73845D01*
X16002Y70203D01*
X15855Y66541D01*
X15965Y62878D01*
X16329Y59232D01*
X16948Y55620D01*
X17816Y52060D01*
X18931Y48570D01*
X20287Y45165D01*
X21877Y41864D02*
X23693Y38681D01*
X25726Y35633D01*
X63925Y110556D02*
X67024Y110757D01*
X46298Y104926D02*
X43655Y103294D01*
X41133Y101481D01*
X38744Y99496D01*
X34409Y95052D02*
X32484Y92614D01*
X30734Y90048D01*
X29168Y87366D01*
X30497Y42885D02*
X32220Y40301D01*
X34120Y37844D01*
X36187Y35525D01*
X38411Y33357D01*
X40780Y31348D01*
X43284Y29509D01*
X45909Y27850D01*
X48645Y26378D01*
X51476Y25101D01*
X54389Y24024D01*
X57370Y23153D01*
X60405Y22491D01*
X63479Y22044D01*
X66576Y21811D01*
X66577Y21812D01*
X53371Y103904D02*
X56032Y104857D01*
X53371Y103904D02*
X50782Y102767D01*
X48280Y101452D01*
X45875Y99966D01*
X43580Y98316D01*
X41405Y96510D01*
X39362Y94556D01*
X37460Y92465D01*
X35708Y90246D01*
X34116Y87911D01*
X32499Y47443D02*
X33900Y44987D01*
X39079Y38289D02*
X41102Y36315D01*
X43259Y34488D01*
X45537Y32815D01*
X47927Y31304D01*
X50416Y29965D01*
X52993Y28802D01*
X58358Y27029D02*
X61120Y26427D01*
X63917Y26020D01*
X66736Y25809D01*
X45080Y139151D02*
X50221Y140597D01*
X-7984Y61324D02*
X-7452Y56012D01*
X66188Y138745D02*
X71248Y138719D01*
X51169Y136711D02*
X46297Y135341D01*
X41533Y133634D01*
X36900Y131599D01*
X32420Y129246D01*
X13051Y113159D02*
X9915Y109186D01*
X7064Y105006D01*
X4512Y100636D01*
X94381Y84308D02*
X95436Y82459D01*
X94381Y84308D02*
X93200Y86079D01*
X91897Y87763D01*
X90481Y89352D01*
X84643Y47311D02*
X83141Y46232D01*
X88819Y85207D02*
X87588Y86588D01*
X86264Y87879D01*
X84853Y89076D01*
X86702Y81409D02*
X87574Y80103D01*
X82374Y85936D02*
X81109Y86865D01*
X79781Y87704D01*
X71870Y54188D02*
X70879Y53983D01*
X73797Y54803D02*
X74724Y55210D01*
X75620Y55681D01*
X71023Y82541D02*
X70022Y82687D01*
X71555Y50041D02*
X70275Y49867D01*
X75278Y51088D02*
X76460Y51607D01*
X77603Y52208D01*
X78702Y52886D01*
X75451Y85393D02*
X74240Y85841D01*
X73000Y86203D01*
X54961Y121166D02*
X51164Y120098D01*
X47452Y118768D01*
X43841Y117182D01*
X40350Y115349D01*
X13148Y78301D02*
X12443Y74421D01*
X12011Y70501D01*
X11854Y66561D01*
X11972Y62619D01*
X12364Y58695D01*
X13029Y54808D01*
X13964Y50976D01*
X15164Y47220D01*
X16623Y43556D01*
X134561Y43830D02*
X136105Y48502D01*
X137319Y53271D01*
X70301Y5803D02*
X65938Y5825D01*
X70301Y5803D02*
X74654Y6086D01*
X78977Y6671D01*
X142333Y94753D02*
X140306Y99843D01*
X137929Y104780D01*
X70659Y-6190D02*
X65459Y-6164D01*
X70659Y-6190D02*
X75848Y-5854D01*
X81002Y-5156D01*
X86093Y-4100D01*
X91099Y-2692D01*
X95994Y-938D01*
X100755Y1152D01*
X105359Y3570D01*
X109783Y6303D01*
X114005Y9339D01*
X118005Y12661D01*
X121764Y16254D01*
X125263Y20101D01*
X128485Y24183D01*
X131414Y28479D01*
X134037Y32969D02*
X136340Y37632D01*
X138312Y42443D01*
X139944Y47381D01*
X141227Y52420D01*
X142156Y57536D01*
X142725Y62705D02*
X142933Y67901D01*
X142777Y73099D01*
X140150Y88450D02*
X138568Y93404D01*
X136644Y98235D01*
X134388Y102920D01*
X131811Y107437D01*
X128925Y111762D01*
X96688Y137210D02*
X91811Y139013D01*
X86819Y140471D01*
X81739Y141578D01*
X76593Y142328D01*
X71408Y142716D01*
X62563Y71563D02*
X58087Y71563D01*
X93961Y142510D02*
X93961Y149001D01*
X93961Y142510D02*
X93963Y142507D01*
D22*
X-24015Y-12769D02*
X-23066Y-14413D01*
X-22005Y-15987D01*
X-20836Y-17483D01*
X-19565Y-18894D01*
X-18200Y-20213D01*
X-16745Y-21433D01*
X-15210Y-22549D01*
X-13599Y-23555D02*
X-11923Y-24446D01*
X-10189Y-25219D01*
X-8405Y-25868D01*
X-6580Y-26391D02*
X-4723Y-26786D01*
X-2843Y-27050D01*
X-949Y-27183D01*
X0Y-27199D01*
X153116Y-22005D02*
X154612Y-20836D01*
X156023Y-19565D01*
X157342Y-18200D01*
X158562Y-16745D01*
X159678Y-15210D01*
D23*
X68500Y177500D03*
X68500Y153000D03*
X93500Y149500D03*
X73500Y65000D03*
X71500Y74300D03*
X62000Y73500D03*
M02*
