G04 EAGLE Gerber RS-274X export*
G75*
%MOMM*%
%FSLAX34Y34*%
%LPD*%
%INSilkscreen Top*%
%IPPOS*%
%AMOC8*
5,1,8,0,0,1.08239X$1,22.5*%
G01*
%ADD10C,0.000000*%
%ADD11C,0.200000*%


D10*
X55584Y-13755D02*
X55740Y-13755D01*
X55916Y-13794D01*
X56130Y-13833D01*
X56384Y-13872D01*
X56638Y-13950D01*
X56930Y-14048D01*
X57223Y-14165D01*
X57515Y-14301D01*
X57827Y-14478D01*
X58120Y-14672D01*
X58432Y-14906D01*
X58725Y-15159D01*
X58998Y-15472D01*
X59018Y-15491D01*
X59056Y-15550D01*
X59115Y-15628D01*
X59213Y-15764D01*
X59310Y-15920D01*
X59427Y-16096D01*
X59544Y-16310D01*
X59681Y-16564D01*
X59798Y-16817D01*
X59934Y-17110D01*
X60051Y-17442D01*
X60149Y-17773D01*
X60246Y-18144D01*
X60305Y-18515D01*
X60344Y-18924D01*
X60363Y-19334D01*
X60363Y-19451D01*
X60344Y-19588D01*
X60344Y-19763D01*
X60325Y-19997D01*
X60285Y-20251D01*
X60246Y-20524D01*
X60188Y-20836D01*
X60110Y-21168D01*
X60012Y-21499D01*
X59915Y-21850D01*
X59778Y-22201D01*
X59603Y-22553D01*
X59427Y-22904D01*
X59213Y-23216D01*
X58959Y-23528D01*
X58803Y-23684D01*
X58686Y-23782D01*
X58549Y-23918D01*
X58354Y-24055D01*
X58140Y-24211D01*
X57906Y-24367D01*
X57633Y-24503D01*
X57340Y-24659D01*
X57008Y-24796D01*
X56638Y-24933D01*
X56267Y-25030D01*
X55838Y-25108D01*
X55409Y-25167D01*
X54941Y-25186D01*
X54765Y-25186D01*
X54648Y-25167D01*
X54492Y-25147D01*
X54316Y-25128D01*
X53926Y-25030D01*
X53477Y-24874D01*
X53243Y-24777D01*
X53009Y-24659D01*
X52775Y-24523D01*
X52561Y-24347D01*
X52346Y-24152D01*
X52151Y-23938D01*
X52131Y-23918D01*
X52053Y-23899D01*
X52034Y-23899D01*
X52014Y-23918D01*
X51995Y-23957D01*
X51975Y-24035D01*
X51936Y-24113D01*
X51878Y-24250D01*
X51839Y-24425D01*
X51839Y-24445D01*
X51819Y-24503D01*
X51780Y-24601D01*
X51741Y-24698D01*
X51702Y-24796D01*
X51644Y-24893D01*
X51585Y-24952D01*
X51527Y-24972D01*
X51449Y-24972D01*
X51332Y-24952D01*
X51176Y-24952D01*
X50961Y-24913D01*
X50688Y-24874D01*
X50337Y-24816D01*
X49947Y-24738D01*
X49888Y-24738D01*
X49830Y-24718D01*
X49771Y-24698D01*
X49556Y-24659D01*
X49322Y-24601D01*
X49049Y-24542D01*
X48776Y-24484D01*
X48542Y-24425D01*
X48327Y-24367D01*
X48308Y-24347D01*
X48249Y-24308D01*
X48191Y-24250D01*
X48171Y-24172D01*
X48171Y-24055D01*
X48191Y-23938D01*
X48191Y-23918D01*
X48210Y-23840D01*
X48230Y-23743D01*
X48249Y-23587D01*
X48288Y-23392D01*
X48308Y-23177D01*
X48347Y-22923D01*
X48387Y-22631D01*
X48425Y-22338D01*
X48464Y-21987D01*
X48484Y-21636D01*
X48523Y-21265D01*
X48562Y-20465D01*
X48581Y-19627D01*
X48581Y-19119D01*
X48562Y-18983D01*
X48562Y-18612D01*
X48542Y-18398D01*
X48542Y-18163D01*
X48523Y-17910D01*
X48523Y-17637D01*
X48503Y-17344D01*
X48484Y-17032D01*
X48484Y-16954D01*
X48464Y-16876D01*
X48464Y-16623D01*
X48445Y-16447D01*
X48425Y-16076D01*
X48406Y-15667D01*
X48387Y-15237D01*
X48367Y-14828D01*
X48367Y-14399D01*
X48387Y-14321D01*
X48406Y-14243D01*
X48464Y-14145D01*
X48523Y-14067D01*
X48620Y-14008D01*
X48757Y-13989D01*
X48893Y-13989D01*
X49010Y-13970D01*
X49127Y-13970D01*
X49303Y-13950D01*
X49674Y-13950D01*
X49908Y-13930D01*
X50142Y-13930D01*
X50688Y-13911D01*
X51293Y-13892D01*
X51956Y-13892D01*
X51975Y-13911D01*
X52014Y-13930D01*
X52073Y-13970D01*
X52131Y-14048D01*
X52190Y-14165D01*
X52229Y-14321D01*
X52268Y-14535D01*
X52268Y-14555D01*
X52287Y-14633D01*
X52287Y-14730D01*
X52307Y-14867D01*
X52326Y-14984D01*
X52365Y-15081D01*
X52385Y-15159D01*
X52424Y-15179D01*
X52444Y-15179D01*
X52483Y-15140D01*
X52561Y-15081D01*
X52658Y-15003D01*
X52678Y-14984D01*
X52717Y-14945D01*
X52775Y-14886D01*
X52873Y-14808D01*
X52990Y-14711D01*
X53126Y-14594D01*
X53302Y-14496D01*
X53477Y-14379D01*
X53868Y-14145D01*
X54336Y-13930D01*
X54589Y-13852D01*
X54843Y-13794D01*
X55096Y-13755D01*
X55370Y-13735D01*
X55467Y-13735D01*
X55584Y-13755D01*
X70800Y-13755D02*
X70956Y-13755D01*
X71268Y-13794D01*
X71600Y-13833D01*
X71756Y-13872D01*
X71892Y-13892D01*
X72009Y-13950D01*
X72087Y-13989D01*
X72146Y-14067D01*
X72165Y-14125D01*
X72165Y-15354D01*
X72146Y-15491D01*
X72146Y-16174D01*
X72126Y-16252D01*
X72048Y-16388D01*
X72009Y-16466D01*
X71931Y-16564D01*
X71834Y-16661D01*
X71775Y-16739D01*
X71678Y-16837D01*
X71580Y-16954D01*
X71444Y-17091D01*
X71287Y-17247D01*
X71112Y-17422D01*
X70936Y-17637D01*
X70722Y-17851D01*
X70488Y-18105D01*
X70234Y-18378D01*
X69961Y-18671D01*
X69649Y-18983D01*
X69337Y-19315D01*
X69376Y-19353D01*
X69473Y-19451D01*
X69629Y-19588D01*
X69825Y-19783D01*
X70078Y-20017D01*
X70332Y-20270D01*
X70917Y-20816D01*
X70936Y-20836D01*
X71112Y-21012D01*
X71307Y-21226D01*
X71541Y-21460D01*
X71775Y-21714D01*
X71970Y-21948D01*
X72048Y-22045D01*
X72107Y-22143D01*
X72146Y-22201D01*
X72165Y-22260D01*
X72165Y-24289D01*
X72107Y-24406D01*
X72068Y-24445D01*
X72009Y-24503D01*
X71912Y-24523D01*
X71775Y-24542D01*
X71248Y-24542D01*
X71014Y-24523D01*
X70741Y-24523D01*
X70429Y-24503D01*
X69922Y-24503D01*
X69707Y-24484D01*
X69044Y-24484D01*
X68947Y-24464D01*
X68810Y-24386D01*
X68732Y-24328D01*
X68654Y-24250D01*
X68635Y-24211D01*
X68537Y-24094D01*
X68400Y-23918D01*
X68205Y-23665D01*
X67971Y-23372D01*
X67679Y-23001D01*
X67328Y-22592D01*
X66937Y-22143D01*
X66918Y-22163D01*
X66898Y-22201D01*
X66840Y-22260D01*
X66762Y-22358D01*
X66684Y-22455D01*
X66586Y-22572D01*
X66352Y-22865D01*
X66099Y-23196D01*
X65826Y-23548D01*
X65552Y-23899D01*
X65318Y-24250D01*
X65318Y-24269D01*
X65279Y-24289D01*
X65201Y-24367D01*
X65065Y-24425D01*
X64987Y-24464D01*
X64558Y-24464D01*
X64362Y-24484D01*
X63836Y-24484D01*
X63504Y-24503D01*
X63348Y-24503D01*
X63172Y-24523D01*
X62743Y-24523D01*
X62490Y-24542D01*
X62022Y-24542D01*
X61865Y-24503D01*
X61807Y-24464D01*
X61729Y-24425D01*
X61690Y-24347D01*
X61671Y-24250D01*
X61671Y-22221D01*
X61690Y-22143D01*
X61768Y-22006D01*
X61807Y-21948D01*
X61885Y-21889D01*
X61924Y-21850D01*
X61983Y-21792D01*
X62041Y-21733D01*
X62139Y-21636D01*
X62236Y-21519D01*
X62529Y-21226D01*
X62685Y-21051D01*
X62880Y-20855D01*
X63094Y-20641D01*
X63309Y-20407D01*
X63563Y-20134D01*
X63836Y-19861D01*
X64109Y-19568D01*
X64421Y-19236D01*
X64401Y-19217D01*
X64382Y-19197D01*
X64323Y-19139D01*
X64265Y-19061D01*
X64167Y-18983D01*
X64070Y-18866D01*
X63933Y-18729D01*
X63777Y-18554D01*
X63621Y-18378D01*
X63426Y-18183D01*
X63211Y-17949D01*
X62997Y-17715D01*
X62743Y-17442D01*
X62470Y-17169D01*
X62197Y-16857D01*
X61885Y-16525D01*
X61846Y-16486D01*
X61768Y-16388D01*
X61710Y-16252D01*
X61671Y-16193D01*
X61671Y-14106D01*
X61690Y-14048D01*
X61710Y-13970D01*
X61768Y-13911D01*
X61788Y-13911D01*
X61846Y-13872D01*
X61924Y-13852D01*
X62061Y-13813D01*
X62100Y-13813D01*
X62178Y-13794D01*
X62314Y-13794D01*
X62490Y-13774D01*
X62685Y-13755D01*
X62938Y-13755D01*
X63192Y-13735D01*
X63738Y-13735D01*
X63914Y-13755D01*
X64128Y-13755D01*
X64362Y-13774D01*
X64577Y-13794D01*
X64792Y-13813D01*
X64811Y-13813D01*
X64889Y-13852D01*
X65026Y-13930D01*
X65221Y-14028D01*
X65221Y-14048D01*
X65240Y-14067D01*
X65318Y-14184D01*
X65455Y-14379D01*
X65650Y-14633D01*
X65884Y-14964D01*
X66157Y-15374D01*
X66508Y-15842D01*
X66898Y-16388D01*
X66918Y-16369D01*
X66957Y-16310D01*
X67074Y-16174D01*
X67132Y-16096D01*
X67230Y-15979D01*
X67347Y-15842D01*
X67464Y-15686D01*
X67620Y-15491D01*
X67796Y-15277D01*
X67991Y-15023D01*
X68205Y-14750D01*
X68459Y-14438D01*
X68732Y-14087D01*
X68752Y-14048D01*
X68830Y-13970D01*
X68966Y-13872D01*
X69161Y-13813D01*
X69181Y-13813D01*
X69239Y-13794D01*
X69337Y-13794D01*
X69454Y-13774D01*
X69629Y-13755D01*
X69844Y-13755D01*
X70098Y-13735D01*
X70663Y-13735D01*
X70800Y-13755D01*
X45226Y-13755D02*
X44933Y-13755D01*
X45226Y-13755D02*
X45499Y-13774D01*
X45772Y-13794D01*
X45792Y-13794D01*
X45831Y-13813D01*
X45948Y-13872D01*
X46065Y-13970D01*
X46104Y-14067D01*
X46123Y-14165D01*
X46123Y-17481D01*
X46104Y-17871D01*
X46104Y-20017D01*
X46123Y-20231D01*
X46123Y-20504D01*
X46143Y-20797D01*
X46162Y-21109D01*
X46182Y-21441D01*
X46221Y-21792D01*
X46318Y-22533D01*
X46435Y-23255D01*
X46513Y-23606D01*
X46591Y-23938D01*
X46591Y-23996D01*
X46611Y-24094D01*
X46611Y-24113D01*
X46591Y-24191D01*
X46552Y-24250D01*
X46455Y-24308D01*
X46416Y-24308D01*
X46338Y-24328D01*
X46182Y-24347D01*
X45987Y-24367D01*
X45733Y-24406D01*
X45421Y-24464D01*
X45050Y-24523D01*
X44641Y-24581D01*
X44621Y-24581D01*
X44563Y-24601D01*
X44465Y-24620D01*
X44368Y-24640D01*
X44231Y-24659D01*
X44075Y-24698D01*
X43743Y-24757D01*
X43392Y-24816D01*
X43236Y-24854D01*
X43100Y-24874D01*
X42983Y-24893D01*
X42885Y-24913D01*
X42827Y-24933D01*
X42768Y-24933D01*
X42749Y-24913D01*
X42709Y-24893D01*
X42670Y-24854D01*
X42631Y-24757D01*
X42592Y-24640D01*
X42553Y-24464D01*
X42534Y-24230D01*
X42534Y-24133D01*
X42514Y-24016D01*
X42495Y-23899D01*
X42475Y-23762D01*
X42436Y-23645D01*
X42397Y-23548D01*
X42339Y-23509D01*
X42319Y-23528D01*
X42280Y-23567D01*
X42222Y-23606D01*
X42105Y-23684D01*
X41949Y-23782D01*
X41715Y-23918D01*
X41559Y-23996D01*
X41402Y-24094D01*
X41383Y-24094D01*
X41344Y-24113D01*
X41285Y-24152D01*
X41207Y-24191D01*
X41012Y-24289D01*
X40739Y-24406D01*
X40408Y-24503D01*
X40076Y-24601D01*
X39705Y-24679D01*
X39335Y-24698D01*
X39237Y-24698D01*
X39140Y-24679D01*
X39003Y-24659D01*
X38886Y-24620D01*
X38789Y-24581D01*
X38711Y-24503D01*
X38691Y-24406D01*
X38691Y-24172D01*
X38711Y-24035D01*
X38730Y-23879D01*
X38750Y-23704D01*
X38769Y-23489D01*
X38769Y-23392D01*
X38789Y-23274D01*
X38789Y-23138D01*
X38808Y-22826D01*
X38827Y-22689D01*
X38827Y-21480D01*
X38808Y-21343D01*
X38808Y-20739D01*
X38827Y-20680D01*
X38866Y-20602D01*
X38925Y-20504D01*
X39003Y-20447D01*
X39120Y-20387D01*
X39276Y-20368D01*
X39627Y-20368D01*
X39900Y-20387D01*
X39959Y-20387D01*
X40037Y-20407D01*
X40134Y-20407D01*
X40330Y-20426D01*
X40681Y-20426D01*
X40837Y-20407D01*
X41051Y-20387D01*
X41266Y-20348D01*
X41461Y-20309D01*
X41656Y-20231D01*
X41812Y-20134D01*
X41871Y-20075D01*
X41910Y-19997D01*
X41968Y-19880D01*
X42046Y-19724D01*
X42085Y-19529D01*
X42124Y-19275D01*
X42144Y-18963D01*
X42144Y-18124D01*
X42124Y-17832D01*
X42124Y-17149D01*
X42105Y-16935D01*
X42105Y-15764D01*
X42085Y-15628D01*
X42085Y-15257D01*
X42066Y-15023D01*
X42066Y-15003D01*
X42046Y-14925D01*
X42046Y-14808D01*
X42027Y-14672D01*
X42007Y-14360D01*
X42007Y-14048D01*
X42046Y-13930D01*
X42105Y-13892D01*
X42164Y-13833D01*
X42261Y-13794D01*
X42397Y-13774D01*
X42495Y-13774D01*
X42631Y-13755D01*
X43041Y-13755D01*
X43314Y-13735D01*
X44660Y-13735D01*
X44933Y-13755D01*
X96666Y-13755D02*
X96939Y-13755D01*
X97193Y-13774D01*
X97291Y-13794D01*
X97388Y-13794D01*
X97427Y-13813D01*
X97544Y-13872D01*
X97622Y-13930D01*
X97681Y-14008D01*
X97720Y-14125D01*
X97739Y-14243D01*
X97739Y-20524D01*
X97759Y-20563D01*
X97798Y-20641D01*
X97856Y-20701D01*
X97934Y-20739D01*
X98032Y-20778D01*
X98188Y-20797D01*
X98325Y-20797D01*
X98441Y-20778D01*
X98734Y-20778D01*
X98851Y-20797D01*
X98968Y-20836D01*
X99007Y-20875D01*
X99027Y-20934D01*
X99027Y-21031D01*
X99046Y-21129D01*
X99046Y-21226D01*
X99066Y-21343D01*
X99066Y-21675D01*
X99085Y-21850D01*
X99085Y-22065D01*
X99105Y-22299D01*
X99105Y-22572D01*
X99124Y-22845D01*
X99124Y-23879D01*
X99105Y-23938D01*
X99066Y-24035D01*
X99027Y-24113D01*
X98949Y-24191D01*
X98832Y-24269D01*
X98695Y-24308D01*
X98637Y-24308D01*
X98559Y-24328D01*
X98461Y-24328D01*
X98207Y-24347D01*
X97915Y-24367D01*
X97915Y-24523D01*
X97934Y-24679D01*
X97934Y-24874D01*
X97954Y-25108D01*
X97954Y-25342D01*
X97973Y-25557D01*
X97973Y-25947D01*
X97954Y-26083D01*
X97954Y-26239D01*
X97934Y-26435D01*
X97876Y-26844D01*
X97778Y-27312D01*
X97661Y-27781D01*
X97466Y-28229D01*
X97349Y-28424D01*
X97213Y-28600D01*
X97193Y-28619D01*
X97134Y-28678D01*
X97057Y-28756D01*
X96920Y-28873D01*
X96764Y-29010D01*
X96569Y-29166D01*
X96335Y-29322D01*
X96042Y-29478D01*
X95730Y-29634D01*
X95379Y-29809D01*
X94989Y-29946D01*
X94540Y-30082D01*
X94072Y-30200D01*
X93545Y-30277D01*
X92979Y-30336D01*
X92375Y-30356D01*
X92336Y-30356D01*
X92258Y-30336D01*
X92160Y-30297D01*
X92102Y-30219D01*
X92102Y-30200D01*
X92082Y-30141D01*
X92063Y-30024D01*
X92043Y-29868D01*
X92004Y-29653D01*
X91946Y-29400D01*
X91887Y-29068D01*
X91829Y-28697D01*
X91829Y-28639D01*
X91809Y-28580D01*
X91790Y-28502D01*
X91770Y-28405D01*
X91731Y-28268D01*
X91692Y-28093D01*
X91692Y-28073D01*
X91672Y-28015D01*
X91634Y-27859D01*
X91614Y-27625D01*
X91594Y-27430D01*
X91594Y-27410D01*
X91614Y-27390D01*
X91634Y-27351D01*
X91692Y-27293D01*
X91790Y-27234D01*
X91926Y-27176D01*
X92121Y-27117D01*
X92394Y-27078D01*
X92433Y-27078D01*
X92531Y-27059D01*
X92687Y-27039D01*
X93077Y-26961D01*
X93253Y-26903D01*
X93409Y-26825D01*
X93526Y-26747D01*
X93545Y-26727D01*
X93584Y-26670D01*
X93721Y-26396D01*
X93799Y-26181D01*
X93857Y-25908D01*
X93896Y-25576D01*
X93916Y-25167D01*
X93916Y-25030D01*
X93896Y-24933D01*
X93877Y-24718D01*
X93838Y-24464D01*
X93292Y-24464D01*
X93097Y-24484D01*
X92628Y-24484D01*
X92472Y-24503D01*
X91809Y-24503D01*
X91692Y-24464D01*
X91594Y-24406D01*
X91556Y-24328D01*
X91536Y-24250D01*
X91536Y-23860D01*
X91516Y-23625D01*
X91516Y-23040D01*
X91497Y-22670D01*
X91497Y-21031D01*
X91536Y-20934D01*
X91575Y-20875D01*
X91614Y-20836D01*
X91692Y-20816D01*
X91790Y-20797D01*
X92219Y-20797D01*
X92492Y-20816D01*
X92804Y-20816D01*
X93116Y-20836D01*
X93428Y-20855D01*
X93721Y-20875D01*
X93721Y-20719D01*
X93701Y-20524D01*
X93701Y-20251D01*
X93682Y-19919D01*
X93662Y-19510D01*
X93662Y-19041D01*
X93643Y-18515D01*
X93643Y-18378D01*
X93623Y-18222D01*
X93623Y-17988D01*
X93604Y-17676D01*
X93604Y-17500D01*
X93584Y-17286D01*
X93565Y-17071D01*
X93565Y-16817D01*
X93545Y-16564D01*
X93526Y-16271D01*
X93526Y-16135D01*
X93506Y-16037D01*
X93506Y-15764D01*
X93487Y-15452D01*
X93487Y-15081D01*
X93467Y-14711D01*
X93467Y-13989D01*
X93506Y-13911D01*
X93545Y-13872D01*
X93584Y-13813D01*
X93662Y-13794D01*
X93760Y-13774D01*
X93838Y-13774D01*
X93974Y-13755D01*
X94423Y-13755D01*
X94579Y-13735D01*
X96393Y-13735D01*
X96666Y-13755D01*
X78740Y-13755D02*
X78544Y-13755D01*
X78740Y-13755D02*
X78973Y-13774D01*
X79227Y-13813D01*
X79520Y-13872D01*
X79832Y-13930D01*
X80183Y-14008D01*
X80534Y-14106D01*
X80885Y-14243D01*
X81236Y-14379D01*
X81607Y-14555D01*
X81958Y-14769D01*
X82290Y-15003D01*
X82602Y-15277D01*
X82621Y-15296D01*
X82680Y-15354D01*
X82758Y-15452D01*
X82875Y-15569D01*
X82992Y-15725D01*
X83128Y-15920D01*
X83284Y-16154D01*
X83440Y-16427D01*
X83616Y-16701D01*
X83753Y-17032D01*
X83909Y-17383D01*
X84026Y-17754D01*
X84143Y-18163D01*
X84221Y-18612D01*
X84279Y-19061D01*
X84299Y-19548D01*
X84299Y-19666D01*
X84279Y-19802D01*
X84279Y-19978D01*
X84260Y-20193D01*
X84221Y-20465D01*
X84182Y-20739D01*
X84104Y-21051D01*
X84026Y-21382D01*
X83928Y-21733D01*
X83811Y-22084D01*
X83655Y-22436D01*
X83499Y-22787D01*
X83284Y-23138D01*
X83070Y-23489D01*
X82797Y-23801D01*
X82641Y-23957D01*
X82504Y-24074D01*
X82348Y-24191D01*
X82173Y-24347D01*
X81938Y-24503D01*
X81685Y-24659D01*
X81412Y-24816D01*
X81100Y-24972D01*
X80768Y-25128D01*
X80397Y-25245D01*
X80007Y-25362D01*
X79578Y-25440D01*
X79129Y-25498D01*
X78661Y-25518D01*
X78564Y-25518D01*
X78447Y-25498D01*
X78291Y-25498D01*
X78115Y-25479D01*
X77900Y-25440D01*
X77647Y-25381D01*
X77393Y-25323D01*
X77101Y-25245D01*
X76515Y-25011D01*
X76203Y-24854D01*
X75891Y-24679D01*
X75579Y-24464D01*
X75286Y-24211D01*
X74994Y-23938D01*
X74974Y-23918D01*
X74935Y-23860D01*
X74857Y-23782D01*
X74760Y-23665D01*
X74643Y-23509D01*
X74506Y-23313D01*
X74370Y-23118D01*
X74233Y-22884D01*
X74096Y-22611D01*
X73960Y-22319D01*
X73823Y-22006D01*
X73706Y-21675D01*
X73609Y-21324D01*
X73531Y-20953D01*
X73492Y-20582D01*
X73472Y-20173D01*
X73472Y-20075D01*
X73492Y-19997D01*
X73511Y-19802D01*
X73570Y-19588D01*
X73648Y-19353D01*
X73784Y-19139D01*
X73960Y-18963D01*
X74077Y-18905D01*
X74214Y-18866D01*
X74272Y-18866D01*
X74311Y-18846D01*
X74448Y-18846D01*
X74545Y-18827D01*
X74682Y-18807D01*
X74838Y-18807D01*
X75033Y-18788D01*
X75247Y-18768D01*
X75501Y-18729D01*
X75813Y-18710D01*
X76145Y-18671D01*
X76535Y-18632D01*
X76594Y-18632D01*
X76672Y-18612D01*
X76788Y-18612D01*
X76925Y-18593D01*
X77101Y-18573D01*
X77296Y-18554D01*
X77530Y-18534D01*
X77783Y-18515D01*
X78076Y-18495D01*
X78408Y-18456D01*
X78759Y-18417D01*
X79149Y-18398D01*
X79559Y-18359D01*
X80007Y-18320D01*
X80495Y-18281D01*
X80495Y-18242D01*
X80456Y-18163D01*
X80417Y-18027D01*
X80319Y-17871D01*
X80202Y-17676D01*
X80046Y-17500D01*
X79832Y-17325D01*
X79559Y-17169D01*
X79520Y-17149D01*
X79442Y-17110D01*
X79305Y-17071D01*
X79129Y-17013D01*
X78895Y-16935D01*
X78661Y-16896D01*
X78369Y-16857D01*
X78076Y-16837D01*
X77900Y-16837D01*
X77705Y-16876D01*
X77432Y-16915D01*
X77140Y-16974D01*
X76788Y-17071D01*
X76418Y-17208D01*
X76047Y-17383D01*
X76028Y-17403D01*
X75969Y-17422D01*
X75891Y-17481D01*
X75774Y-17559D01*
X75501Y-17734D01*
X75189Y-17929D01*
X75169Y-17929D01*
X75150Y-17890D01*
X75091Y-17851D01*
X74994Y-17754D01*
X74896Y-17598D01*
X74760Y-17403D01*
X74682Y-17286D01*
X74584Y-17130D01*
X74487Y-16974D01*
X74389Y-16779D01*
X74389Y-16759D01*
X74370Y-16739D01*
X74292Y-16623D01*
X74214Y-16447D01*
X74096Y-16232D01*
X73999Y-15998D01*
X73902Y-15784D01*
X73843Y-15608D01*
X73823Y-15472D01*
X73823Y-15452D01*
X73843Y-15413D01*
X73902Y-15315D01*
X74018Y-15218D01*
X74155Y-15081D01*
X74272Y-14984D01*
X74428Y-14867D01*
X74604Y-14750D01*
X74818Y-14613D01*
X75072Y-14478D01*
X75345Y-14340D01*
X75657Y-14204D01*
X76008Y-14087D01*
X76398Y-13970D01*
X76808Y-13872D01*
X77276Y-13794D01*
X77764Y-13755D01*
X78291Y-13735D01*
X78408Y-13735D01*
X78544Y-13755D01*
X88766Y-13755D02*
X89059Y-13755D01*
X89351Y-13774D01*
X89605Y-13794D01*
X89702Y-13794D01*
X89780Y-13813D01*
X89819Y-13833D01*
X89897Y-13872D01*
X89995Y-13970D01*
X90014Y-14048D01*
X90034Y-14125D01*
X90034Y-18515D01*
X90014Y-18749D01*
X90014Y-20621D01*
X89995Y-24933D01*
X89995Y-25342D01*
X90014Y-25557D01*
X90014Y-25810D01*
X90034Y-26083D01*
X90034Y-26396D01*
X90053Y-26727D01*
X90073Y-27078D01*
X90132Y-27781D01*
X90190Y-28522D01*
X90268Y-29224D01*
X90268Y-29244D01*
X90287Y-29283D01*
X90307Y-29341D01*
X90307Y-29439D01*
X90268Y-29536D01*
X90190Y-29614D01*
X90112Y-29634D01*
X90014Y-29653D01*
X85937Y-29653D01*
X85840Y-29614D01*
X85762Y-29556D01*
X85723Y-29478D01*
X85723Y-29107D01*
X85742Y-29010D01*
X85742Y-28756D01*
X85762Y-28580D01*
X85762Y-28405D01*
X85781Y-28210D01*
X85801Y-27976D01*
X85820Y-27488D01*
X85840Y-26922D01*
X85879Y-26318D01*
X85898Y-25674D01*
X85937Y-24991D01*
X85957Y-24269D01*
X85976Y-23548D01*
X86015Y-22065D01*
X86035Y-21324D01*
X86035Y-17305D01*
X86015Y-16935D01*
X86015Y-15667D01*
X85996Y-15550D01*
X85996Y-15394D01*
X85976Y-15218D01*
X85957Y-15003D01*
X85957Y-14808D01*
X85937Y-14672D01*
X85937Y-14067D01*
X85976Y-13989D01*
X86054Y-13892D01*
X86113Y-13852D01*
X86211Y-13813D01*
X86230Y-13813D01*
X86308Y-13794D01*
X86445Y-13794D01*
X86620Y-13774D01*
X86874Y-13755D01*
X87205Y-13755D01*
X87576Y-13735D01*
X88493Y-13735D01*
X88766Y-13755D01*
X54375Y-17325D02*
X54336Y-17325D01*
X54219Y-17344D01*
X54043Y-17364D01*
X53809Y-17403D01*
X53555Y-17481D01*
X53302Y-17598D01*
X53029Y-17734D01*
X52795Y-17949D01*
X52775Y-17988D01*
X52697Y-18066D01*
X52600Y-18203D01*
X52483Y-18398D01*
X52385Y-18632D01*
X52287Y-18905D01*
X52209Y-19197D01*
X52190Y-19548D01*
X52190Y-19705D01*
X52229Y-19900D01*
X52268Y-20114D01*
X52346Y-20368D01*
X52444Y-20641D01*
X52600Y-20895D01*
X52795Y-21148D01*
X52814Y-21168D01*
X52912Y-21246D01*
X53029Y-21343D01*
X53224Y-21460D01*
X53438Y-21577D01*
X53712Y-21675D01*
X54024Y-21753D01*
X54375Y-21772D01*
X54531Y-21772D01*
X54706Y-21733D01*
X54941Y-21694D01*
X55175Y-21616D01*
X55448Y-21519D01*
X55701Y-21363D01*
X55935Y-21148D01*
X55955Y-21129D01*
X56033Y-21031D01*
X56111Y-20895D01*
X56228Y-20719D01*
X56325Y-20485D01*
X56423Y-20212D01*
X56501Y-19900D01*
X56521Y-19548D01*
X56521Y-19510D01*
X56501Y-19393D01*
X56482Y-19217D01*
X56443Y-19002D01*
X56364Y-18768D01*
X56247Y-18495D01*
X56111Y-18222D01*
X55896Y-17968D01*
X55877Y-17949D01*
X55779Y-17871D01*
X55643Y-17773D01*
X55467Y-17656D01*
X55253Y-17520D01*
X54999Y-17422D01*
X54706Y-17344D01*
X54375Y-17325D01*
X80124Y-20426D02*
X80378Y-20426D01*
X80124Y-20426D02*
X80027Y-20447D01*
X79890Y-20447D01*
X79754Y-20465D01*
X79578Y-20465D01*
X79383Y-20485D01*
X79168Y-20504D01*
X78934Y-20543D01*
X78681Y-20563D01*
X78408Y-20602D01*
X78095Y-20641D01*
X77783Y-20680D01*
X77764Y-20680D01*
X77725Y-20701D01*
X77588Y-20719D01*
X77471Y-20797D01*
X77432Y-20836D01*
X77413Y-20875D01*
X77413Y-20992D01*
X77432Y-21129D01*
X77471Y-21285D01*
X77530Y-21480D01*
X77627Y-21675D01*
X77744Y-21889D01*
X77920Y-22084D01*
X77940Y-22104D01*
X78017Y-22163D01*
X78115Y-22260D01*
X78252Y-22358D01*
X78427Y-22436D01*
X78642Y-22533D01*
X78856Y-22592D01*
X79110Y-22611D01*
X79227Y-22611D01*
X79364Y-22572D01*
X79520Y-22533D01*
X79695Y-22475D01*
X79890Y-22358D01*
X80085Y-22221D01*
X80261Y-22026D01*
X80280Y-22006D01*
X80339Y-21928D01*
X80397Y-21811D01*
X80475Y-21655D01*
X80573Y-21460D01*
X80631Y-21246D01*
X80690Y-20992D01*
X80709Y-20739D01*
X80709Y-20701D01*
X80671Y-20582D01*
X80631Y-20524D01*
X80573Y-20485D01*
X80495Y-20447D01*
X80378Y-20426D01*
D11*
X68654Y176127D02*
X41184Y176127D01*
X68654Y176127D02*
X95527Y176127D01*
X41184Y176632D02*
X41184Y208219D01*
X68654Y208219D01*
X95527Y208219D01*
X68654Y208219D02*
X68654Y176127D01*
X95527Y176127D02*
X95527Y208219D01*
M02*
