G04 EAGLE Gerber RS-274X export*
G75*
%MOMM*%
%FSLAX34Y34*%
%LPD*%
%INSoldermask Bottom*%
%IPPOS*%
%AMOC8*
5,1,8,0,0,1.08239X$1,22.5*%
G01*
%ADD10C,1.799997*%
%ADD11C,2.199997*%
%ADD12R,3.752894X2.021094*%
%ADD13R,3.564694X2.144394*%
%ADD14R,1.716897X13.842975*%
%ADD15R,3.811694X1.776894*%
%ADD16R,4.015894X2.021094*%
%ADD17R,1.314597X14.216175*%
%ADD18C,2.199994*%
%ADD19R,1.020000X3.169994*%
%ADD20C,0.959600*%


D10*
X29051Y149963D02*
X23445Y147008D01*
X18058Y143669D01*
X12918Y139962D01*
X8048Y135905D01*
X3473Y131519D01*
X-783Y126824D01*
X-4703Y121844D01*
X-8265Y116602D01*
X-11454Y111125D01*
X-14252Y105438D01*
X-16647Y99571D01*
X-18627Y93550D01*
X-20182Y87406D01*
X-21305Y81169D01*
X-21990Y74868D01*
X-22234Y68535D01*
X-22035Y62200D01*
X-21395Y55895D01*
X-20317Y49650D01*
X-18806Y43495D01*
X-16869Y37460D01*
X-14516Y31576D01*
X-14017Y30466D01*
X158743Y78804D02*
X157785Y85069D01*
X156391Y91252D01*
X154570Y97322D01*
X152330Y103251D01*
X149682Y109009D01*
X146638Y114568D01*
X143214Y119901D01*
X139427Y124983D01*
X135294Y129788D01*
X130836Y134293D01*
X126075Y138476D01*
X121034Y142316D01*
X115736Y145796D01*
X110209Y148898D01*
X107945Y150027D01*
X116029Y-8489D02*
X110514Y-11611D01*
X116029Y-8489D02*
X121313Y-4989D01*
X126340Y-1130D01*
X131086Y3070D01*
X135527Y7592D01*
X139641Y12412D01*
X143409Y17508D01*
X146813Y22854D01*
X149836Y28425D01*
X152462Y34193D01*
X154680Y40130D01*
X156478Y46207D01*
X157848Y52395D01*
X158783Y58664D01*
X159278Y64982D01*
X159332Y71320D01*
X158943Y77645D01*
X158114Y83929D01*
X156848Y90139D01*
X155153Y96245D01*
X153035Y102219D01*
X151146Y106661D01*
X-21615Y58322D02*
X-20657Y52058D01*
X-19263Y45875D01*
X-17442Y39804D01*
X-15202Y33876D01*
X-12554Y28118D01*
X-9510Y22559D01*
X-6086Y17225D01*
X-2299Y12144D01*
X1833Y7339D01*
X6291Y2834D01*
X11052Y-1348D01*
X16093Y-5188D01*
X21390Y-8668D01*
X26613Y-11611D01*
D11*
X118935Y-9968D02*
X119675Y-11213D01*
X120500Y-12403D01*
X121406Y-13533D01*
X122388Y-14597D01*
X123442Y-15590D01*
X124563Y-16506D01*
X125745Y-17343D01*
X126982Y-18094D01*
X128270Y-18758D01*
X129600Y-19330D01*
X130966Y-19808D01*
X132363Y-20190D01*
X133783Y-20473D01*
X135220Y-20657D01*
X136665Y-20739D01*
X138113Y-20721D01*
X139556Y-20602D01*
X140988Y-20382D01*
X142400Y-20064D01*
X143787Y-19647D01*
X145141Y-19135D01*
X146456Y-18529D01*
X147726Y-17833D01*
X148944Y-17051D01*
X150105Y-16185D01*
X151203Y-15240D01*
X152231Y-14221D01*
X153187Y-13133D01*
X154064Y-11981D01*
X154858Y-10770D01*
X155566Y-9507D01*
X156185Y-8198D01*
X156710Y-6849D01*
X157140Y-5466D01*
X157473Y-4057D01*
X157707Y-2628D01*
X157840Y-1186D01*
X157872Y260D01*
X157803Y1707D01*
X157634Y3145D01*
X157364Y4567D01*
X156996Y5968D01*
X156532Y7339D01*
X155973Y8675D01*
X155321Y9968D01*
X154582Y11213D01*
X153757Y12403D01*
X152851Y13533D01*
X151869Y14597D01*
X150815Y15590D01*
X149694Y16506D01*
X148512Y17343D01*
X147828Y17772D01*
X-10828Y17693D02*
X-12036Y16895D01*
X-13185Y16014D01*
X-14270Y15055D01*
X-15286Y14023D01*
X-16227Y12923D01*
X-17089Y11759D01*
X-17868Y10538D01*
X-18559Y9266D01*
X-19160Y7949D01*
X-19668Y6593D01*
X-20080Y5205D01*
X-20395Y3791D01*
X-20609Y2359D01*
X-20724Y916D01*
X-20737Y-531D01*
X-20650Y-1976D01*
X-20461Y-3411D01*
X-20174Y-4831D01*
X-19788Y-6226D01*
X-19305Y-7591D01*
X-18728Y-8919D01*
X-18060Y-10204D01*
X-17305Y-11439D01*
X-16465Y-12618D01*
X-15544Y-13736D01*
X-14548Y-14787D01*
X-13481Y-15766D01*
X-12348Y-16668D01*
X-11155Y-17489D01*
X-9908Y-18225D01*
X-8613Y-18871D01*
X-7275Y-19426D01*
X-5902Y-19886D01*
X-4501Y-20250D01*
X-3077Y-20515D01*
X-1639Y-20679D01*
X-192Y-20743D01*
X1254Y-20706D01*
X2695Y-20568D01*
X4124Y-20330D01*
X5532Y-19993D01*
X6913Y-19558D01*
X8260Y-19028D01*
X9568Y-18406D01*
X10828Y-17693D01*
X12036Y-16895D01*
X13185Y-16014D01*
X14270Y-15055D01*
X15286Y-14023D01*
X16227Y-12923D01*
X17089Y-11759D01*
X17831Y-10601D01*
X18192Y147097D02*
X17453Y148342D01*
X16628Y149532D01*
X15722Y150662D01*
X14740Y151726D01*
X13686Y152719D01*
X12565Y153635D01*
X11383Y154472D01*
X10145Y155223D01*
X8858Y155887D01*
X7528Y156459D01*
X6161Y156937D01*
X4765Y157319D01*
X3344Y157602D01*
X1908Y157786D01*
X463Y157868D01*
X-984Y157850D01*
X-2427Y157731D01*
X-3859Y157512D01*
X-5271Y157193D01*
X-6658Y156776D01*
X-8012Y156264D01*
X-9327Y155658D01*
X-10597Y154962D01*
X-11815Y154180D01*
X-12976Y153314D01*
X-14074Y152369D01*
X-15102Y151350D01*
X-16058Y150262D01*
X-16935Y149110D01*
X-17729Y147899D01*
X-18437Y146636D01*
X-19056Y145327D01*
X-19581Y143978D01*
X-20011Y142595D01*
X-20344Y141186D01*
X-20578Y139757D01*
X-20711Y138315D01*
X-20743Y136867D01*
X-20674Y135421D01*
X-20505Y133983D01*
X-20235Y132560D01*
X-19867Y131160D01*
X-19403Y129788D01*
X-18844Y128453D01*
X-18192Y127159D01*
X-17453Y125915D01*
X-16628Y124724D01*
X-15722Y123595D01*
X-14740Y122531D01*
X-13686Y121538D01*
X-12565Y120622D01*
X-11383Y119785D01*
X-10699Y119355D01*
X-13648Y15622D02*
X-14705Y14632D01*
X-15690Y13571D01*
X-16598Y12443D01*
X-17426Y11255D01*
X-18169Y10012D01*
X-18823Y8720D01*
X-19385Y7386D01*
X-19853Y6015D01*
X-20225Y4616D01*
X-20497Y3194D01*
X-20670Y1756D01*
X-20742Y310D01*
X-20714Y-1136D01*
X-20584Y-2579D01*
X-20354Y-4008D01*
X-20025Y-5418D01*
X-19598Y-6802D01*
X-19075Y-8153D01*
X-18460Y-9463D01*
X-17755Y-10728D01*
X-16963Y-11941D01*
X-16089Y-13095D01*
X-15137Y-14185D01*
X-14110Y-15207D01*
X-13015Y-16154D01*
X-11856Y-17023D01*
X-10640Y-17808D01*
X-9372Y-18507D01*
X-8058Y-19116D01*
X-6705Y-19631D01*
X-5319Y-20051D01*
X-3907Y-20373D01*
X-2477Y-20596D01*
X-1034Y-20719D01*
X413Y-20741D01*
X1859Y-20661D01*
X3295Y-20481D01*
X4716Y-20201D01*
X6114Y-19823D01*
X7482Y-19348D01*
X8813Y-18779D01*
X10102Y-18119D01*
X11341Y-17370D01*
X12525Y-16536D01*
X13648Y-15622D01*
X14705Y-14632D01*
X15690Y-13571D01*
X16598Y-12443D01*
X17426Y-11255D01*
X17838Y-10588D01*
X119337Y-10669D02*
X120125Y-11884D01*
X120995Y-13041D01*
X121945Y-14135D01*
X122968Y-15160D01*
X124060Y-16110D01*
X125215Y-16983D01*
X126429Y-17772D01*
X127695Y-18475D01*
X129007Y-19088D01*
X130358Y-19608D01*
X131742Y-20033D01*
X133153Y-20360D01*
X134583Y-20587D01*
X136025Y-20714D01*
X137473Y-20741D01*
X138919Y-20666D01*
X140356Y-20491D01*
X141778Y-20216D01*
X143177Y-19842D01*
X144546Y-19372D01*
X145879Y-18807D01*
X147170Y-18151D01*
X148412Y-17406D01*
X149598Y-16577D01*
X150724Y-15666D01*
X151784Y-14680D01*
X152773Y-13622D01*
X153685Y-12497D01*
X154516Y-11311D01*
X155263Y-10071D01*
X155921Y-8781D01*
X156488Y-7449D01*
X156961Y-6080D01*
X157336Y-4682D01*
X157614Y-3261D01*
X157791Y-1824D01*
X157868Y-378D01*
X157844Y1069D01*
X157719Y2511D01*
X157494Y3941D01*
X157169Y5353D01*
X156747Y6737D01*
X156229Y8090D01*
X155618Y9402D01*
X154917Y10669D01*
X154130Y11884D01*
X153259Y13041D01*
X152310Y14135D01*
X151287Y15160D01*
X150253Y16064D01*
X147957Y119434D02*
X149165Y120233D01*
X150314Y121114D01*
X151400Y122072D01*
X152415Y123105D01*
X153356Y124205D01*
X154218Y125369D01*
X154997Y126589D01*
X155688Y127862D01*
X156290Y129179D01*
X156797Y130535D01*
X157209Y131923D01*
X157524Y133336D01*
X157738Y134768D01*
X157853Y136212D01*
X157866Y137660D01*
X157779Y139105D01*
X157590Y140540D01*
X157303Y141960D01*
X156917Y143355D01*
X156434Y144720D01*
X155857Y146048D01*
X155189Y147333D01*
X154434Y148568D01*
X153594Y149747D01*
X152673Y150865D01*
X151677Y151916D01*
X150610Y152895D01*
X149477Y153797D01*
X148284Y154618D01*
X147037Y155354D01*
X145742Y156000D01*
X144404Y156555D01*
X143031Y157015D01*
X141630Y157379D01*
X140206Y157644D01*
X138768Y157808D01*
X137321Y157872D01*
X135874Y157835D01*
X134432Y157697D01*
X133004Y157459D01*
X131596Y157122D01*
X130215Y156687D01*
X128867Y156157D01*
X127560Y155535D01*
X126299Y154822D01*
X125091Y154024D01*
X123942Y153143D01*
X122857Y152184D01*
X121842Y151152D01*
X120901Y150052D01*
X120039Y148888D01*
X119296Y147729D01*
D12*
X16833Y-21613D03*
D13*
X119304Y-21395D03*
D14*
X-23115Y70424D03*
X-23115Y70424D03*
D15*
X19057Y159953D03*
X19057Y159953D03*
D16*
X118978Y158742D03*
X118978Y158742D03*
D17*
X162244Y68558D03*
X162244Y68558D03*
D18*
X137128Y137128D03*
X137128Y0D03*
X0Y0D03*
X0Y137128D03*
D19*
X81259Y164746D03*
X55859Y164746D03*
D20*
X68500Y177500D03*
X68500Y153000D03*
X93500Y149500D03*
X73500Y65000D03*
X71500Y74300D03*
X62000Y73500D03*
M02*
